<?xml version="1.0" encoding="UTF-8" standalone="no"?>
<!DOCTYPE svg PUBLIC "-//W3C//DTD SVG 1.1//EN" "http://www.w3.org/Graphics/SVG/1.1/DTD/svg11.dtd">
<svg width="100%" height="100%" viewBox="0 0 256 256" version="1.1" xmlns="http://www.w3.org/2000/svg" xmlns:xlink="http://www.w3.org/1999/xlink" xml:space="preserve" xmlns:serif="http://www.serif.com/" style="fill-rule:evenodd;clip-rule:evenodd;stroke-linejoin:round;stroke-miterlimit:2;">
    <g id="Facial-Hair---Mustache-" serif:id="Facial Hair - Mustache " transform="matrix(4.11019,0,0,3.31178,-25307.6,-5920.02)">
        <g transform="matrix(0.787706,0,0,0.97761,5144.02,1049.71)">
            <path d="M1334.59,788.29L1343.06,787.605C1345.01,787.447 1346.94,787.549 1348.76,788.137C1350.66,788.749 1352.47,789.625 1354.02,790.941C1355.63,792.309 1356.99,793.896 1357.94,795.74C1358.92,797.653 1359.59,799.718 1359.77,801.902C1359.77,801.902 1360.37,809.32 1360.37,809.32C1360.37,810.226 1361.1,810.961 1362.01,810.961C1362.91,810.961 1363.65,810.226 1363.65,809.32L1364.25,801.902C1364.48,799.045 1364.06,796.239 1363.19,793.564C1362.31,790.814 1360.8,788.314 1358.89,786.07C1356.93,783.765 1354.5,782.013 1351.86,780.66C1349.15,779.271 1346.16,778.559 1343.06,778.308C1343.06,778.308 1334.59,777.623 1334.59,777.623C1331.65,777.623 1329.26,780.013 1329.26,782.956C1329.26,785.9 1331.65,788.29 1334.59,788.29Z" style="fill:white;"/>
        </g>
        <g transform="matrix(-0.787706,0,0,0.97761,7232.82,1049.71)">
            <path d="M1334.59,777.623L1343.06,778.308C1346.16,778.559 1349.15,779.271 1351.86,780.66C1354.5,782.013 1356.93,783.765 1358.89,786.07C1360.8,788.314 1362.31,790.814 1363.19,793.564C1364.06,796.239 1364.48,799.045 1364.25,801.902C1364.25,801.902 1363.65,809.32 1363.65,809.32C1363.65,810.226 1362.91,810.961 1362.01,810.961C1361.1,810.961 1360.37,810.226 1360.37,809.32L1359.77,801.902C1359.59,799.718 1358.92,797.653 1357.94,795.74C1356.99,793.896 1355.63,792.309 1354.02,790.941C1352.47,789.625 1350.66,788.749 1348.76,788.137C1346.94,787.549 1345.01,787.447 1343.06,787.605C1343.06,787.605 1334.59,788.29 1334.59,788.29C1331.65,788.29 1329.26,785.9 1329.26,782.956C1329.26,780.013 1331.65,777.623 1334.59,777.623Z" style="fill:white;"/>
        </g>
    </g>
</svg>
