<?xml version="1.0" encoding="UTF-8" standalone="no"?>
<!DOCTYPE svg PUBLIC "-//W3C//DTD SVG 1.1//EN" "http://www.w3.org/Graphics/SVG/1.1/DTD/svg11.dtd">
<svg width="100%" height="100%" viewBox="0 0 512 512" version="1.1" xmlns="http://www.w3.org/2000/svg" xmlns:xlink="http://www.w3.org/1999/xlink" xml:space="preserve" xmlns:serif="http://www.serif.com/" style="fill-rule:evenodd;clip-rule:evenodd;stroke-linejoin:round;stroke-miterlimit:2;">
    <g id="Hair---Half-Bald" serif:id="Hair - Half Bald" transform="matrix(2.16873,0,0,2.11056,-47.6227,-116.95)">
        <g transform="matrix(0.833852,0,0,0.853443,-958.894,-467.451)">
            <path d="M1298.49,634.42C1314.02,616.083 1337.2,613.624 1368.03,627.042C1348.56,622.834 1331.96,623.283 1318.23,628.389C1314.63,629.728 1311.23,631.387 1308.02,633.366C1304.72,633.6 1301.55,633.954 1298.49,634.42Z" style="fill:white;fill-rule:nonzero;"/>
        </g>
        <g transform="matrix(0.833852,0,0,0.853443,-958.894,-468.106)">
            <path d="M1397.89,675.163C1413.42,683.02 1422.8,696.624 1422.8,720.13C1422.8,738.265 1419.04,756.619 1411.12,772.881C1412.89,765.683 1413.83,757.922 1413.83,749.613C1413.83,723.52 1404.3,705.101 1397.89,675.163ZM1237.81,675.163C1231.96,702.505 1221.87,723.52 1221.87,749.613C1221.87,757.922 1222.81,765.683 1224.58,772.881C1216.66,756.619 1212.91,738.265 1212.91,720.13C1212.91,696.624 1222.28,683.02 1237.81,675.163Z" style="fill:white;"/>
        </g>
        <g transform="matrix(-1.59786,5.54747,-5.42013,-1.6354,523.666,-546.933)">
            <path d="M127.8,26.05C123.3,28.45 121.569,32.134 122.469,36.334C119.215,31.781 122.3,27.683 127.8,26.05Z" style="fill:white;fill-rule:nonzero;"/>
        </g>
    </g>
</svg>
