<?xml version="1.0" encoding="UTF-8" standalone="no"?>
<!DOCTYPE svg PUBLIC "-//W3C//DTD SVG 1.1//EN" "http://www.w3.org/Graphics/SVG/1.1/DTD/svg11.dtd">
<svg width="100%" height="100%" viewBox="0 0 512 512" version="1.1" xmlns="http://www.w3.org/2000/svg" xmlns:xlink="http://www.w3.org/1999/xlink" xml:space="preserve" xmlns:serif="http://www.serif.com/" style="fill-rule:evenodd;clip-rule:evenodd;stroke-linejoin:round;stroke-miterlimit:2;">
    <g id="Hair---Girl" serif:id="Hair - Girl" transform="matrix(2.32572,0,0,1.87394,-14137.2,-3090.63)">
        <g transform="matrix(-0.866025,-0.620542,-0.402873,0.866025,12169.2,4036.07)">
            <g transform="matrix(-0.682173,-0.488805,-0.393853,0.846635,7287.09,1773.15)">
                <path d="M1245.58,800.523C1250.95,808.005 1257.57,814.388 1265.18,819.627C1265.11,819.968 1265.02,820.31 1264.93,820.652C1262.41,830.049 1253.8,835.916 1245.7,833.746C1237.6,831.577 1233.07,822.187 1235.59,812.791C1237.13,807.026 1240.98,802.59 1245.58,800.523Z" style="fill:white;"/>
            </g>
            <g transform="matrix(0.787706,0,0,0.97761,5132.85,1071.35)">
                <ellipse cx="1238.87" cy="828.358" rx="15.188" ry="17.625" style="fill:white;"/>
            </g>
            <g transform="matrix(0.524823,-0.174529,0.140626,0.65135,5345.38,1585.5)">
                <ellipse cx="1238.87" cy="828.358" rx="15.188" ry="17.625" style="fill:white;"/>
            </g>
        </g>
        <g transform="matrix(0.866025,-0.620542,0.402873,0.866025,208.284,4036.07)">
            <g transform="matrix(-0.682173,-0.488805,-0.393853,0.846635,7287.09,1773.15)">
                <path d="M1245.58,800.523C1251,808.022 1257.61,814.399 1265.18,819.627C1265.11,819.968 1265.02,820.31 1264.93,820.652C1262.41,830.049 1253.8,835.916 1245.7,833.746C1237.6,831.577 1233.07,822.187 1235.59,812.791C1237.13,807.026 1240.98,802.59 1245.58,800.523Z" style="fill:white;"/>
            </g>
            <g transform="matrix(0.787706,0,0,0.97761,5132.85,1071.35)">
                <ellipse cx="1238.87" cy="828.358" rx="15.188" ry="17.625" style="fill:white;"/>
            </g>
            <g transform="matrix(0.524823,-0.174529,0.140626,0.65135,5345.38,1585.5)">
                <ellipse cx="1238.87" cy="828.358" rx="15.188" ry="17.625" style="fill:white;"/>
            </g>
        </g>
        <g transform="matrix(0.787706,0,0,0.97761,6078.45,1591.8)">
            <path d="M59.26,126.164L228.698,126.164C239.064,144.637 243.347,167.475 243.347,191.24C249.711,220.228 137.435,193.943 95.655,129.098C62.943,160.177 67.732,207.282 67.732,207.282C67.825,208.197 67.157,209.015 66.242,209.108C65.326,209.2 64.508,208.533 64.416,207.618C64.416,207.618 61.263,176.364 77.39,147.381C52.158,174.432 48.714,224.325 48.714,224.325L48.714,178.103C48.714,158.221 51.929,140.621 59.26,126.164ZM94.673,133.759C111.651,167.171 141.647,194.202 174.43,207.98C175.278,208.337 176.256,207.938 176.613,207.09C176.969,206.242 176.57,205.264 175.722,204.908C143.672,191.437 114.243,164.914 97.645,132.249C97.228,131.429 96.224,131.101 95.404,131.518C94.584,131.935 94.257,132.939 94.673,133.759Z" style="fill:white;fill-opacity:0.25;"/>
        </g>
        <g transform="matrix(0.787706,0,0,0.97761,6078.45,1591.8)">
            <path d="M54.141,237.152C57.849,244.125 62.8,250.943 67.892,256.199C61.64,251.371 55.044,245.208 50.192,239.129C51.46,238.652 52.982,237.841 54.141,237.152ZM225.848,237.152C226.889,237.771 228.158,238.488 229.29,238.938C224.925,244.429 219.584,249.574 214.066,254.058C218.584,249.131 222.662,243.287 225.848,237.152ZM35.773,191.603C35.228,187.481 34.919,180.259 34.919,175.944C34.919,119.541 67.97,74.158 140.285,74.158C212.599,74.158 246.002,121.752 246.002,178.155C246.002,182.378 245.934,187.929 245.411,191.966L236.136,190.831C215.081,205.785 134.268,188.898 94.53,127.655C48.022,159.57 49.193,226.968 49.193,226.968C49.193,226.968 43.777,212.236 43.501,192.541L35.773,191.603Z" style="fill:white;"/>
        </g>
        <g transform="matrix(0.787706,0,0,0.97761,5144.02,1049.71)">
            <path d="M1277.72,683.093C1294.7,716.505 1321.84,737.284 1354.62,751.062C1355.47,751.418 1356.45,751.019 1356.81,750.171C1357.16,749.323 1356.76,748.345 1355.92,747.989C1323.87,734.519 1297.29,714.248 1280.69,681.583C1280.27,680.763 1279.27,680.435 1278.45,680.852C1277.63,681.269 1277.3,682.273 1277.72,683.093Z" style="fill:white;"/>
        </g>
        <g transform="matrix(0.787706,0,0,0.97761,5144.02,1049.71)">
            <path d="M1278.13,681.06C1239.93,713.07 1245.22,765.538 1245.22,765.538C1245.32,766.453 1246.13,767.12 1247.05,767.028C1247.96,766.935 1248.63,766.117 1248.54,765.202C1248.54,765.202 1243.39,714.523 1280.28,683.615C1280.98,683.024 1281.07,681.972 1280.48,681.267C1279.89,680.562 1278.84,680.469 1278.13,681.06Z" style="fill:white;"/>
        </g>
    </g>
</svg>
