<?xml version="1.0" encoding="UTF-8" standalone="no"?>
<!DOCTYPE svg PUBLIC "-//W3C//DTD SVG 1.1//EN" "http://www.w3.org/Graphics/SVG/1.1/DTD/svg11.dtd">
<svg width="100%" height="100%" viewBox="0 0 512 512" version="1.1" xmlns="http://www.w3.org/2000/svg" xmlns:xlink="http://www.w3.org/1999/xlink" xml:space="preserve" xmlns:serif="http://www.serif.com/" style="fill-rule:evenodd;clip-rule:evenodd;stroke-linejoin:round;stroke-miterlimit:2;">
    <g id="Hair---Unisex" serif:id="Hair - Unisex" transform="matrix(2.34043,0,0,1.8858,-14294.7,-3068.17)">
        <g transform="matrix(0.761836,0,0,0.685384,5205.84,1244.24)">
            <path d="M1253.2,728.276L1236.38,728.276C1243.39,676.413 1254.17,644.709 1326.26,644.709C1398.34,644.709 1426.01,676.413 1433.03,728.276L1399.34,728.276L1393.87,705.869L1393.87,728.276L1329.44,728.276L1326.26,699.292L1323.79,728.276L1258.76,728.276L1258.76,705.869L1253.2,728.276Z" style="fill:white;fill-opacity:0.25;"/>
        </g>
        <g transform="matrix(0.782753,0,0,0.971462,6107.51,1569.88)">
            <path d="M66.218,173.769L33.563,173.769C40.581,121.906 67.19,75.908 139.271,75.479C211.805,75.047 239.339,121.579 246.015,173.769L212.355,173.769L194.142,141.314L201.449,173.769L159.327,173.769L139.271,113.009L119.851,173.769L77.124,173.769L80.931,144.976L66.218,173.769Z" style="fill:white;"/>
        </g>
        <g transform="matrix(0.782753,0,0,0.971462,5178.39,1031.2)">
            <path d="M1324.96,666.043C1328.34,689.043 1332.1,727.908 1332.1,727.908L1335.41,727.587C1335.41,727.587 1331.64,688.62 1328.26,665.558C1328.12,664.648 1327.28,664.018 1326.37,664.151C1325.45,664.285 1324.83,665.133 1324.96,666.043Z" style="fill:white;"/>
        </g>
        <g transform="matrix(0.782753,0,0,0.971462,5172.32,1033.41)">
            <path d="M1331.98,662.296C1326.77,689.754 1323.76,726.107 1323.76,726.107L1327.08,726.382C1327.08,726.382 1330.07,690.226 1335.25,662.918C1335.42,662.014 1334.83,661.141 1333.92,660.97C1333.02,660.798 1332.15,661.393 1331.98,662.296Z" style="fill:white;"/>
        </g>
        <g transform="matrix(0.782753,0,0,0.971462,5177.85,1031.2)">
            <path d="M1209.82,784.184C1214.26,790.058 1220.65,793.894 1228.45,793.894C1232.77,793.894 1237.94,792.665 1241.45,790.631C1254.55,815.146 1278.83,830.036 1307.84,835.499L1291.44,835.735L1291.44,833.968L1266.98,833.968L1266.98,836.324L1225.62,836.324L1225.62,833.968L1209.04,833.968L1212.01,810.642L1203.79,824.873L1190.71,817.321L1209.82,784.184ZM1445.52,784.184L1464.65,817.321L1451.57,824.873L1440.17,805.128L1443.84,833.968L1417.07,833.968L1417.07,835.357L1375.7,835.357L1375.7,833.968L1359.74,833.968L1359.74,835.735L1344.55,835.909C1374.34,831.597 1400.1,812.974 1412.31,791.876C1415.82,793.911 1420.15,794.804 1424.47,794.804C1433.23,794.804 1440.8,791.338 1445.52,784.184ZM1206.03,774.72L1196.84,788.264L1190.92,785.109L1219.08,735.047L1226.1,739.3L1222.37,746.296C1212.54,749.481 1205.73,773.155 1206.03,774.72ZM1431.34,746.404L1427.14,739.143L1435.02,734.593L1462.62,784.184L1454.74,788.734L1448.51,777.939C1449.06,775.851 1442.01,749.02 1431.34,746.404Z" style="fill:white;"/>
        </g>
        <g>
            <g transform="matrix(0.566031,0,0,4.94156,5447.34,-1989.3)">
                <rect x="1226.18" y="753.689" width="14.803" height="16.683" style="fill:white;"/>
            </g>
            <g transform="matrix(0.566031,0,0,4.94156,5589.22,-1989.3)">
                <rect x="1226.18" y="753.689" width="14.803" height="16.683" style="fill:white;"/>
            </g>
        </g>
        <g transform="matrix(-0.0386168,0,-0.0692715,0.362035,6228.69,1528.09)">
            <rect x="1223.06" y="579.855" width="192.816" height="56.673" style="fill:white;"/>
        </g>
        <g transform="matrix(0.0386168,0,0.0692715,0.362035,6204.36,1528.09)">
            <rect x="1223.06" y="579.855" width="192.816" height="56.673" style="fill:white;"/>
        </g>
        <g transform="matrix(0.567699,0,0,0.971462,5436.09,1090.67)">
            <path d="M1245.39,642.349L1245.39,692.323L1214.63,692.323L1245.39,642.349Z" style="fill:white;"/>
        </g>
        <g transform="matrix(-0.567699,0,0,0.971462,6998.47,1090.67)">
            <path d="M1245.39,642.349L1245.39,692.323L1214.63,692.323L1245.39,642.349Z" style="fill:white;"/>
        </g>
    </g>
</svg>
