# This file uses centimeters as units for non-parametric coordinates.

mtllib wall.mtl
g default
v -12.800000 0.000000 0.250000
v 12.800000 0.000000 0.250000
v -12.800000 25.600000 0.250000
v 12.800000 25.600000 0.250000
v -12.800000 25.600000 -0.250000
v 12.800000 25.600000 -0.250000
v -12.800000 0.000000 -0.250000
v 12.800000 0.000000 -0.250000
vt 0.016149 0.489648
vt 0.498780 0.489648
vt 0.498780 0.498910
vt 0.016149 0.498910
vt 0.498780 0.007016
vt 0.016149 0.007016
vt 0.508387 0.007016
vt 0.016149 0.981542
vt 0.498780 0.981542
vt 0.508387 0.489648
vt 0.498780 0.990804
vt 0.016149 0.990804
vt 0.006542 0.007016
vt 0.006542 0.489648
vn 0.000000 0.000000 1.000000
vn 0.000000 0.000000 1.000000
vn 0.000000 0.000000 1.000000
vn 0.000000 0.000000 1.000000
vn 0.000000 1.000000 0.000000
vn 0.000000 1.000000 0.000000
vn 0.000000 1.000000 0.000000
vn 0.000000 1.000000 0.000000
vn 0.000000 0.000000 -1.000000
vn 0.000000 0.000000 -1.000000
vn 0.000000 0.000000 -1.000000
vn 0.000000 0.000000 -1.000000
vn 0.000000 -1.000000 0.000000
vn 0.000000 -1.000000 0.000000
vn 0.000000 -1.000000 0.000000
vn 0.000000 -1.000000 0.000000
vn 1.000000 0.000000 0.000000
vn 1.000000 0.000000 0.000000
vn 1.000000 0.000000 0.000000
vn 1.000000 0.000000 0.000000
vn -1.000000 0.000000 0.000000
vn -1.000000 0.000000 0.000000
vn -1.000000 0.000000 0.000000
vn -1.000000 0.000000 0.000000
s off
g pCube1
usemtl initialShadingGroup
f 1/6/1 2/5/2 4/2/3 3/1/4
f 3/1/5 4/2/6 6/3/7 5/4/8
f 5/4/9 6/3/10 8/9/11 7/8/12
f 7/8/13 8/9/14 2/11/15 1/12/16
f 2/5/17 8/7/18 6/10/19 4/2/20
f 7/13/21 1/6/22 3/1/23 5/14/24
