# This file uses centimeters as units for non-parametric coordinates.

mtllib Floor.mtl
g default
v -12.800000 -0.500000 14.150000
v 12.800000 -0.500000 14.150000
v -12.800000 0.000000 14.150000
v 12.800000 0.000000 14.150000
v -12.800000 0.000000 -0.250000
v 12.800000 0.000000 -0.250000
v -12.800000 -0.500000 -0.250000
v 12.800000 -0.500000 -0.250000
vt 0.068370 0.511574
vt 0.068370 0.978901
vt 0.038294 0.978901
vt 0.038294 0.511574
vt 0.931630 0.978901
vt 0.931630 0.511574
vt 0.961706 0.511574
vt 0.961707 0.978901
vt 0.931630 0.494640
vt 0.068370 0.494640
vt 0.068370 0.027313
vt 0.931630 0.027313
vt 0.068370 0.010378
vt 0.931630 0.010379
vn 0.000000 0.000000 1.000000
vn 0.000000 0.000000 1.000000
vn 0.000000 0.000000 1.000000
vn 0.000000 0.000000 1.000000
vn 0.000000 1.000000 0.000000
vn 0.000000 1.000000 0.000000
vn 0.000000 1.000000 0.000000
vn 0.000000 1.000000 0.000000
vn 0.000000 0.000000 -1.000000
vn 0.000000 0.000000 -1.000000
vn 0.000000 0.000000 -1.000000
vn 0.000000 0.000000 -1.000000
vn 0.000000 -1.000000 0.000000
vn 0.000000 -1.000000 0.000000
vn 0.000000 -1.000000 0.000000
vn 0.000000 -1.000000 0.000000
vn 1.000000 0.000000 0.000000
vn 1.000000 0.000000 0.000000
vn 1.000000 0.000000 0.000000
vn 1.000000 0.000000 0.000000
vn -1.000000 0.000000 0.000000
vn -1.000000 0.000000 0.000000
vn -1.000000 0.000000 0.000000
vn -1.000000 0.000000 0.000000
s off
g pCube2
usemtl initialShadingGroup
f 1/6/1 2/1/2 4/10/3 3/9/4
f 3/9/5 4/10/6 6/11/7 5/12/8
f 5/12/9 6/11/10 8/13/11 7/14/12
f 7/5/13 8/2/14 2/1/15 1/6/16
f 2/1/17 8/2/18 6/3/19 4/4/20
f 7/5/21 1/6/22 3/7/23 5/8/24
