<?xml version="1.0" encoding="UTF-8" standalone="no"?>
<!DOCTYPE svg PUBLIC "-//W3C//DTD SVG 1.1//EN" "http://www.w3.org/Graphics/SVG/1.1/DTD/svg11.dtd">
<svg width="100%" height="100%" viewBox="0 0 512 512" version="1.1" xmlns="http://www.w3.org/2000/svg" xmlns:xlink="http://www.w3.org/1999/xlink" xml:space="preserve" xmlns:serif="http://www.serif.com/" style="fill-rule:evenodd;clip-rule:evenodd;stroke-linecap:round;stroke-linejoin:round;stroke-miterlimit:1.5;">
    <g id="Avatar----Cat--White" serif:id="Avatar -  Cat  White" transform="matrix(1.00489,0,0,0.849157,-5215.13,-1615.36)">
        <g transform="matrix(2.52295,0,0,2.98565,3965.43,1396.43)">
            <g transform="matrix(0.92528,0,0,0.801685,428.001,166.518)">
                <path d="M207.473,225.556C207.473,202.342 191.143,183.494 171.03,183.494C150.916,183.494 134.587,202.342 134.587,225.556L134.587,255.547L207.473,255.547L207.473,225.556Z" style="fill:white;"/>
                <clipPath id="_clip1">
                    <path d="M207.473,225.556C207.473,202.342 191.143,183.494 171.03,183.494C150.916,183.494 134.587,202.342 134.587,225.556L134.587,255.547L207.473,255.547L207.473,225.556Z"/>
                </clipPath>
                <g clip-path="url(#_clip1)">
                    <g transform="matrix(0.814476,0,0,1.06461,83.2709,15.5182)">
                        <rect x="107.972" y="158.108" width="48.45" height="71.28" style="fill:rgb(233,236,239);"/>
                    </g>
                </g>
            </g>
            <g transform="matrix(1.28795,0,0,1.67004,364.386,13.9486)">
                <ellipse cx="172.461" cy="185.881" rx="15.377" ry="6.294" style="fill:rgb(222,226,230);"/>
            </g>
        </g>
        <g transform="matrix(0.995135,0,0,1.17764,5189.76,1902.31)">
            <g transform="matrix(0.689755,0,0,0.689755,80.7451,135.874)">
                <circle cx="254.7" cy="436.585" r="11.731" style="fill:rgb(134,71,13);"/>
            </g>
            <g transform="matrix(0.689755,0,0,0.689755,80.7451,173.734)">
                <circle cx="254.7" cy="436.585" r="11.731" style="fill:rgb(134,71,13);"/>
            </g>
        </g>
        <g id="Cat-Hat-Pink" serif:id="Cat Hat Pink" transform="matrix(2.59633,0,0,2.90736,-6725.46,1813.07)">
            <g transform="matrix(0.908313,0,0,0.959902,298.601,-275.934)">
                <g transform="matrix(-0.679323,-0.392207,-0.431536,0.747442,5819.25,207.31)">
                    <g transform="matrix(1,0,0,1,-546.23,-81.3293)">
                        <path d="M1495.46,735.055C1517.23,735.055 1534.9,763.521 1534.9,785.29C1534.9,807.059 1517.23,824.733 1495.46,824.733C1473.69,824.733 1456.02,807.059 1456.02,785.29C1456.02,763.521 1473.69,735.055 1495.46,735.055Z" style="fill:rgb(251,189,57);"/>
                    </g>
                    <g transform="matrix(0.566334,0,0,0.566334,102.3,260.707)">
                        <path d="M1495.46,723.867C1517.23,723.867 1534.9,763.521 1534.9,785.29C1534.9,807.059 1517.23,824.733 1495.46,824.733C1473.69,824.733 1456.02,807.059 1456.02,785.29C1456.02,763.521 1473.69,723.867 1495.46,723.867Z" style="fill:rgb(254,126,159);"/>
                    </g>
                </g>
                <g transform="matrix(0.679323,-0.392207,0.431536,0.747442,3844.32,207.31)">
                    <g transform="matrix(1,0,0,1,-546.23,-81.3293)">
                        <path d="M1495.46,735.055C1517.23,735.055 1534.9,763.521 1534.9,785.29C1534.9,807.059 1517.23,824.733 1495.46,824.733C1473.69,824.733 1456.02,807.059 1456.02,785.29C1456.02,763.521 1473.69,735.055 1495.46,735.055Z" style="fill:rgb(165,104,9);"/>
                    </g>
                    <g transform="matrix(0.566334,0,0,0.566334,102.3,260.707)">
                        <path d="M1495.46,723.867C1517.23,723.867 1534.9,763.521 1534.9,785.29C1534.9,807.059 1517.23,824.733 1495.46,824.733C1473.69,824.733 1456.02,807.059 1456.02,785.29C1456.02,763.521 1473.69,723.867 1495.46,723.867Z" style="fill:rgb(254,126,159);"/>
                    </g>
                </g>
            </g>
            <g transform="matrix(0.966711,-4.74134e-18,4.71615e-18,-1.1146,4573.1,317.829)">
                <path d="M118.212,110.053C160.16,110.053 194.216,133.15 194.216,173.055C194.216,212.961 160.16,236.058 118.212,236.058C76.264,236.058 42.207,212.961 42.207,173.055C42.207,133.15 76.264,110.053 118.212,110.053Z" style="fill:white;"/>
                <clipPath id="_clip2">
                    <path d="M118.212,110.053C160.16,110.053 194.216,133.15 194.216,173.055C194.216,212.961 160.16,236.058 118.212,236.058C76.264,236.058 42.207,212.961 42.207,173.055C42.207,133.15 76.264,110.053 118.212,110.053Z"/>
                </clipPath>
                <g clip-path="url(#_clip2)">
                    <g transform="matrix(0.939591,-2.89534e-33,-5.50873e-33,-0.893842,-9730.33,1405.91)">
                        <circle cx="10540.7" cy="1285.71" r="52.107" style="fill:rgb(251,189,57);"/>
                    </g>
                    <g transform="matrix(-0.939591,7.99374e-18,8.72131e-18,-0.893842,9966.83,1405.91)">
                        <circle cx="10540.7" cy="1285.71" r="52.107" style="fill:rgb(165,104,9);"/>
                    </g>
                </g>
            </g>
            <g transform="matrix(0.319884,0,0,0.338053,2531.94,-246.541)">
                <circle cx="6738.16" cy="935.085" r="5.946" style="fill:rgb(255,93,101);"/>
            </g>
            <g transform="matrix(1,0,0,1,-87.4966,-189.123)">
                <g transform="matrix(0.506566,0,0,0.499266,374.923,26.5485)">
                    <ellipse cx="8685.84" cy="617.58" rx="100.454" ry="94.287" style="fill:rgb(244,181,142);"/>
                </g>
                <g transform="matrix(0.383285,0,0,0.405055,4676.75,219.816)">
                    <path d="M176.291,191.161C198.489,176.539 226.097,167.866 256,167.866C285.903,167.866 313.511,176.539 335.709,191.161C327.684,207.243 311.063,218.301 291.88,218.301C277.712,218.301 264.942,212.269 256,202.635C247.058,212.269 234.288,218.301 220.12,218.301C200.937,218.301 184.316,207.243 176.291,191.161Z" style="fill:rgb(226,143,101);"/>
                </g>
                <g transform="matrix(0.812698,0,0,0.858857,4440.41,229.213)">
                    <path d="M417.196,128.292C417.31,128.107 417.533,128.02 417.743,128.079C417.952,128.139 418.096,128.33 418.096,128.547C418.117,128.548 418.117,128.549 418.117,128.549C418.117,131.537 415.137,133.962 411.468,133.962C407.798,133.962 404.819,131.537 404.819,128.549C404.819,128.549 404.819,128.548 404.819,128.547C404.82,128.321 404.97,128.122 405.188,128.061C405.406,127.999 405.638,128.089 405.757,128.281C406.897,129.887 409.03,130.957 411.468,130.957C413.906,130.957 416.039,129.887 417.196,128.292Z" style="fill:rgb(217,129,85);"/>
                </g>
                <g transform="matrix(0.940771,0,0,0.706098,4240,95.6523)">
                    <g id="Mouth-Closed" serif:id="Mouth Closed">
                        <path d="M556.136,364.798C558,367.511 560.518,369.33 563.302,370.304C564.989,370.894 566.764,371.185 568.542,371.191C569.871,371.195 571.197,371.058 572.489,370.743C575.786,369.937 578.81,367.95 580.949,364.798C581.544,363.848 581.48,362.397 580.805,361.559C580.13,360.721 579.1,360.813 578.505,361.763C577.614,363.317 576.478,364.608 575.159,365.554C573.184,366.969 570.869,367.776 568.542,367.796C566.994,367.808 565.443,367.461 564,366.819C561.821,365.849 559.917,364.107 558.58,361.763C557.985,360.813 556.955,360.721 556.28,361.559C555.605,362.397 555.541,363.848 556.136,364.798Z" style="fill:rgb(148,75,64);"/>
                    </g>
                </g>
                <g transform="matrix(0.966803,0,0,1.02171,4566.27,291.913)">
                    <g transform="matrix(1,5.55112e-17,-5.55112e-17,1,2.19202,-1.84741e-13)">
                        <g transform="matrix(1,2.52562e-17,1.72673e-17,1.0011,-195.777,-81.2534)">
                            <circle cx="386.649" cy="114.577" r="13.028" style="fill:white;"/>
                        </g>
                        <g transform="matrix(0.226536,0,0,0.226536,103.282,7.49353)">
                            <circle cx="386.649" cy="114.577" r="13.028" style="fill:rgb(33,37,41);"/>
                        </g>
                    </g>
                    <g transform="matrix(1,0,4.996e-16,1,47.5787,-2.84217e-14)">
                        <g transform="matrix(0.866977,0.500549,-0.500549,0.866977,-86.9919,-259.423)">
                            <circle cx="386.649" cy="114.577" r="13.028" style="fill:white;"/>
                        </g>
                        <g transform="matrix(0.226536,0,0,0.226536,103.282,7.49353)">
                            <circle cx="386.649" cy="114.577" r="13.028" style="fill:rgb(33,37,41);"/>
                        </g>
                    </g>
                </g>
                <g transform="matrix(0.966711,0,0,1.02162,4657.25,161.144)">
                    <g transform="matrix(0.830736,2.77556e-17,-2.77556e-17,0.661585,79.7207,66.974)">
                        <circle cx="86.998" cy="174.87" r="10.068" style="fill:rgb(235,134,139);"/>
                    </g>
                    <g transform="matrix(0.830736,-2.77556e-17,2.77556e-17,0.661585,19.0819,66.974)">
                        <circle cx="86.998" cy="174.87" r="10.068" style="fill:rgb(235,134,139);"/>
                    </g>
                </g>
            </g>
            <g transform="matrix(1,0,0,1,-88.4393,-196.913)">
                <g transform="matrix(0.620512,0,0,0.655755,268.951,-93.7219)">
                    <circle cx="7240.97" cy="589.914" r="24.886" style="fill:white;"/>
                </g>
                <g transform="matrix(0.620512,0,0,0.655755,296.456,-93.7219)">
                    <circle cx="7240.97" cy="589.914" r="24.886" style="fill:white;"/>
                </g>
            </g>
            <g transform="matrix(1,0,0,1,-89.2461,-196.913)">
                <g transform="matrix(0.309161,0,0,0.326721,2524.24,103.502)">
                    <circle cx="7240.97" cy="589.914" r="24.886" style="fill:rgb(255,220,236);"/>
                </g>
                <g transform="matrix(0.309161,0,0,0.326721,2551.75,103.502)">
                    <circle cx="7240.97" cy="589.914" r="24.886" style="fill:rgb(255,220,236);"/>
                </g>
            </g>
            <g transform="matrix(0.805589,0,0,0.855358,-3883.96,-1027.34)">
                <g transform="matrix(0.982525,-0.262031,0.184513,0.685379,-7.53786,3229.84)">
                    <path d="M10687.3,1324.82C10687.3,1322.85 10686.1,1321.26 10684.8,1321.26L10660.6,1321.26C10659.2,1321.26 10658.1,1322.85 10658.1,1324.82C10658.1,1326.79 10659.2,1328.39 10660.6,1328.39L10684.8,1328.39C10686.1,1328.39 10687.3,1326.79 10687.3,1324.82Z" style="fill:rgb(134,71,13);"/>
                </g>
                <g transform="matrix(0.982525,0.262031,0.184513,-0.685379,-7.53786,-526.516)">
                    <path d="M10687.3,1324.82C10687.3,1322.85 10686.1,1321.26 10684.8,1321.26L10660.6,1321.26C10659.2,1321.26 10658.1,1322.85 10658.1,1324.82C10658.1,1326.79 10659.2,1328.39 10660.6,1328.39L10684.8,1328.39C10686.1,1328.39 10687.3,1326.79 10687.3,1324.82Z" style="fill:rgb(134,71,13);"/>
                </g>
                <g transform="matrix(-0.982525,-0.262031,-0.184513,0.685379,21287.2,3229.84)">
                    <path d="M10687.3,1324.82C10687.3,1322.85 10686.1,1321.26 10684.8,1321.26L10660.6,1321.26C10659.2,1321.26 10658.1,1322.85 10658.1,1324.82C10658.1,1326.79 10659.2,1328.39 10660.6,1328.39L10684.8,1328.39C10686.1,1328.39 10687.3,1326.79 10687.3,1324.82Z" style="fill:rgb(134,71,13);"/>
                </g>
                <g transform="matrix(-0.982525,0.262031,-0.184513,-0.685379,21287.2,-526.516)">
                    <path d="M10687.3,1324.82C10687.3,1322.85 10686.1,1321.26 10684.8,1321.26L10660.6,1321.26C10659.2,1321.26 10658.1,1322.85 10658.1,1324.82C10658.1,1326.79 10659.2,1328.39 10660.6,1328.39L10684.8,1328.39C10686.1,1328.39 10687.3,1326.79 10687.3,1324.82Z" style="fill:rgb(134,71,13);"/>
                </g>
            </g>
            <g transform="matrix(0.892968,0,0,0.948135,-4809.46,-1172.48)">
                <g>
                    <g transform="matrix(0.148885,-0.256666,0.428713,0.246356,8514.61,3724.43)">
                        <path d="M10687.3,1324.82C10687.3,1322.85 10684.6,1321.26 10681.3,1321.26L10664,1321.26C10660.8,1321.26 10658.1,1322.85 10658.1,1324.82C10658.1,1326.79 10660.8,1328.39 10664,1328.39L10681.3,1328.39C10684.6,1328.39 10687.3,1326.79 10687.3,1324.82Z" style="fill:rgb(89,55,11);"/>
                    </g>
                    <g transform="matrix(-0.0501512,-0.292138,-0.487964,0.082984,11840.7,4318.23)">
                        <path d="M10687.3,1324.82C10687.3,1322.85 10684.6,1321.26 10681.3,1321.26L10664,1321.26C10660.8,1321.26 10658.1,1322.85 10658.1,1324.82C10658.1,1326.79 10660.8,1328.39 10664,1328.39L10681.3,1328.39C10684.6,1328.39 10687.3,1326.79 10687.3,1324.82Z" style="fill:rgb(89,55,11);"/>
                    </g>
                </g>
                <g transform="matrix(-1,0,0,1,21270.3,0)">
                    <g transform="matrix(0.148885,-0.256666,0.428713,0.246356,8514.61,3724.43)">
                        <path d="M10687.3,1324.82C10687.3,1322.85 10684.6,1321.26 10681.3,1321.26L10664,1321.26C10660.8,1321.26 10658.1,1322.85 10658.1,1324.82C10658.1,1326.79 10660.8,1328.39 10664,1328.39L10681.3,1328.39C10684.6,1328.39 10687.3,1326.79 10687.3,1324.82Z" style="fill:rgb(89,55,11);"/>
                    </g>
                    <g transform="matrix(-0.0501512,-0.292138,-0.487964,0.082984,11840.7,4318.23)">
                        <path d="M10687.3,1324.82C10687.3,1322.85 10684.6,1321.26 10681.3,1321.26L10664,1321.26C10660.8,1321.26 10658.1,1322.85 10658.1,1324.82C10658.1,1326.79 10660.8,1328.39 10664,1328.39L10681.3,1328.39C10684.6,1328.39 10687.3,1326.79 10687.3,1324.82Z" style="fill:rgb(89,55,11);"/>
                    </g>
                </g>
            </g>
            <g transform="matrix(0.908313,0,0,1.46381,-697.365,-191.955)">
                <g transform="matrix(0.995028,-0.0653117,0.163689,1.07238,-4775.21,-523.166)">
                    <path d="M10564.3,1307.42C10569.3,1305.68 10574.3,1305.56 10579.3,1307.42" style="fill:none;stroke:rgb(89,55,11);stroke-width:2.94px;"/>
                </g>
                <g transform="matrix(-0.995028,-0.0653117,-0.163689,1.07238,16631.8,-523.166)">
                    <path d="M10564.3,1307.42C10569.3,1305.68 10574.3,1305.56 10579.3,1307.42" style="fill:none;stroke:rgb(89,55,11);stroke-width:2.94px;"/>
                </g>
            </g>
            <g transform="matrix(0.377183,0,0,0.398606,1951.09,-148.999)">
                <path d="M7254.52,595.676C7258.52,588.685 7266.53,588.685 7270.53,592.18C7274.53,595.676 7274.53,602.666 7270.53,609.657C7270.16,610.357 7269.7,611.057 7269.19,611.753C7265.79,616.476 7260.33,619.277 7254.52,619.276C7248.7,619.276 7243.24,616.475 7239.85,611.751C7239.33,611.056 7238.87,610.357 7238.5,609.657C7234.5,602.666 7234.5,595.676 7238.5,592.18C7242.5,588.685 7250.51,588.685 7254.52,595.676Z" style="fill:rgb(250,71,113);"/>
            </g>
        </g>
    </g>
</svg>
