<?xml version="1.0" encoding="UTF-8" standalone="no"?>
<!DOCTYPE svg PUBLIC "-//W3C//DTD SVG 1.1//EN" "http://www.w3.org/Graphics/SVG/1.1/DTD/svg11.dtd">
<svg width="100%" height="100%" viewBox="0 0 512 512" version="1.1" xmlns="http://www.w3.org/2000/svg" xmlns:xlink="http://www.w3.org/1999/xlink" xml:space="preserve" xmlns:serif="http://www.serif.com/" style="fill-rule:evenodd;clip-rule:evenodd;stroke-linejoin:round;stroke-miterlimit:2;">
    <g id="Avatar---Bunny" serif:id="Avatar - Bunny" transform="matrix(1.00489,0,0,0.849157,-4206.76,-1615.36)">
        <g transform="matrix(5.96664,0,0,12.5554,-12390.2,-11862.7)">
            <g>
                <g transform="matrix(0.38393,0,0,0.377132,1031.96,420.537)">
                    <path d="M4644.28,1800.09C4644.28,1795.6 4637.91,1791.95 4630.07,1791.95C4622.22,1791.95 4615.86,1795.6 4615.86,1800.09L4615.86,1832.32C4615.86,1836.81 4622.22,1840.45 4630.07,1840.45C4637.91,1840.45 4644.28,1836.81 4644.28,1832.32L4644.28,1800.09Z" style="fill:white;"/>
                </g>
                <g transform="matrix(0.133246,0,0,0.130886,2192.64,863.911)">
                    <path d="M4644.28,1800.09C4644.28,1795.6 4637.91,1791.95 4630.07,1791.95C4622.22,1791.95 4615.86,1795.6 4615.86,1800.09L4615.86,1832.32C4615.86,1836.81 4622.22,1840.45 4630.07,1840.45C4637.91,1840.45 4644.28,1836.81 4644.28,1832.32L4644.28,1800.09Z" style="fill:rgb(255,156,194);"/>
                </g>
            </g>
            <g transform="matrix(1,0,0,1,22.6284,4.54747e-13)">
                <g transform="matrix(0.38393,0,0,0.377132,1031.96,420.537)">
                    <path d="M4644.28,1800.09C4644.28,1795.6 4637.91,1791.95 4630.07,1791.95C4622.22,1791.95 4615.86,1795.6 4615.86,1800.09L4615.86,1832.32C4615.86,1836.81 4622.22,1840.45 4630.07,1840.45C4637.91,1840.45 4644.28,1836.81 4644.28,1832.32L4644.28,1800.09Z" style="fill:rgb(248,249,250);"/>
                </g>
                <g transform="matrix(0.133246,0,0,0.130886,2192.64,863.911)">
                    <path d="M4644.28,1800.09C4644.28,1795.6 4637.91,1791.95 4630.07,1791.95C4622.22,1791.95 4615.86,1795.6 4615.86,1800.09L4615.86,1832.32C4615.86,1836.81 4622.22,1840.45 4630.07,1840.45C4637.91,1840.45 4644.28,1836.81 4644.28,1832.32L4644.28,1800.09Z" style="fill:rgb(255,156,194);"/>
                </g>
            </g>
        </g>
        <g transform="matrix(2.52295,0,0,2.98565,2961.96,1396.43)">
            <g transform="matrix(0.92528,0,0,0.801685,428.001,166.518)">
                <path d="M207.473,225.556C207.473,202.342 191.143,183.494 171.03,183.494C150.916,183.494 134.587,202.342 134.587,225.556L134.587,255.547L207.473,255.547L207.473,225.556Z" style="fill:white;"/>
                <clipPath id="_clip1">
                    <path d="M207.473,225.556C207.473,202.342 191.143,183.494 171.03,183.494C150.916,183.494 134.587,202.342 134.587,225.556L134.587,255.547L207.473,255.547L207.473,225.556Z"/>
                </clipPath>
                <g clip-path="url(#_clip1)">
                    <g transform="matrix(0.814476,0,0,1.06461,83.2709,15.5182)">
                        <rect x="107.972" y="158.108" width="48.45" height="71.28" style="fill:rgb(233,236,239);"/>
                    </g>
                </g>
            </g>
            <g transform="matrix(1.28795,0,0,1.67004,364.386,13.9486)">
                <ellipse cx="172.461" cy="185.881" rx="15.377" ry="6.294" style="fill:rgb(222,226,230);"/>
            </g>
        </g>
        <g transform="matrix(0.995135,0,0,1.17764,4186.29,1902.31)">
            <g transform="matrix(0.689755,0,0,0.689755,80.7451,135.874)">
                <circle cx="254.7" cy="436.585" r="11.731" style="fill:rgb(52,58,64);"/>
            </g>
            <g transform="matrix(0.689755,0,0,0.689755,80.7451,173.734)">
                <circle cx="254.7" cy="436.585" r="11.731" style="fill:rgb(52,58,64);"/>
            </g>
        </g>
        <g id="Cat-Hat-Pink" serif:id="Cat Hat Pink" transform="matrix(2.59633,0,0,2.90736,-7728.93,1813.07)">
            <g transform="matrix(0.966711,-4.74134e-18,4.71615e-18,-1.1146,4573.1,317.829)">
                <path d="M118.212,110.053C160.16,110.053 194.216,133.15 194.216,173.055C194.216,212.961 160.16,236.058 118.212,236.058C76.264,236.058 42.207,212.961 42.207,173.055C42.207,133.15 76.264,110.053 118.212,110.053Z" style="fill:white;"/>
            </g>
            <g transform="matrix(1,0,-2.20771e-14,1.0305,-87.4966,-200.598)">
                <g transform="matrix(0.506566,0,0,0.517721,374.923,7.67756)">
                    <ellipse cx="8685.84" cy="617.58" rx="100.454" ry="94.287" style="fill:rgb(255,206,173);"/>
                </g>
                <g transform="matrix(0.753044,0,0,0.795814,4465.02,233.569)">
                    <path d="M417.196,128.292C417.31,128.107 417.533,128.02 417.743,128.079C417.952,128.139 418.096,128.33 418.096,128.547C418.117,128.548 418.117,128.549 418.117,128.549C418.117,131.537 415.137,133.962 411.468,133.962C407.798,133.962 404.819,131.537 404.819,128.549C404.819,128.549 404.819,128.548 404.819,128.547C404.82,128.321 404.97,128.122 405.188,128.061C405.406,127.999 405.638,128.089 405.757,128.281C406.897,129.887 409.03,130.957 411.468,130.957C413.906,130.957 416.039,129.887 417.196,128.292Z" style="fill:rgb(220,139,116);"/>
                </g>
                <g id="Mouth-Closed" serif:id="Mouth Closed" transform="matrix(0.971739,0,0,1.02693,4205.4,59.5328)">
                    <g transform="matrix(0.968132,0,-3.15544e-30,0.687582,35.6124,32.8168)">
                        <path d="M556.107,364.743C557.972,367.454 560.485,369.275 563.265,370.257C564.964,370.856 566.751,371.152 568.542,371.158C569.881,371.162 571.217,371.022 572.519,370.7C575.814,369.887 578.837,367.897 580.978,364.743C581.569,363.799 581.488,362.378 580.798,361.571C580.107,360.764 579.067,360.874 578.476,361.817C577.592,363.361 576.468,364.643 575.159,365.584C573.187,367.003 570.87,367.81 568.542,367.829C566.991,367.841 565.438,367.493 563.993,366.849C561.827,365.882 559.936,364.148 558.609,361.817C558.018,360.874 556.978,360.764 556.287,361.571C555.597,362.378 555.516,363.799 556.107,364.743Z" style="fill:rgb(183,101,88);"/>
                    </g>
                </g>
                <g transform="matrix(0.908313,0,0,1.46381,-610.34,52.2665)">
                    <g transform="matrix(0.995028,-0.0653117,0.163689,1.07238,-4777.42,-523.166)">
                        <path d="M10565.3,1308.46C10569.6,1306.96 10573.9,1306.84 10578.2,1308.44C10579.2,1308.79 10580.4,1308.63 10581,1308.06C10581.6,1307.5 10581.3,1306.76 10580.4,1306.4C10574.6,1304.27 10568.9,1304.39 10563.2,1306.38C10562.3,1306.72 10562,1307.46 10562.5,1308.03C10563.1,1308.61 10564.4,1308.8 10565.3,1308.46Z" style="fill:rgb(52,58,64);"/>
                    </g>
                    <g transform="matrix(-0.995028,-0.0653117,-0.163689,1.07238,16635,-523.166)">
                        <path d="M10563.2,1306.38C10568.9,1304.39 10574.6,1304.27 10580.4,1306.4C10581.3,1306.76 10581.6,1307.5 10581,1308.06C10580.4,1308.63 10579.2,1308.79 10578.2,1308.44C10573.9,1306.84 10569.6,1306.96 10565.3,1308.46C10564.4,1308.8 10563.1,1308.61 10562.5,1308.03C10562,1307.46 10562.3,1306.72 10563.2,1306.38Z" style="fill:rgb(52,58,64);"/>
                    </g>
                </g>
                <g transform="matrix(0.966711,0,0,1.02162,4656.84,160.889)">
                    <g transform="matrix(0.802429,0.21501,-0.171231,0.639042,112.158,47.0257)">
                        <circle cx="86.998" cy="174.87" r="10.068" style="fill:rgb(255,161,142);"/>
                    </g>
                    <g transform="matrix(0.802429,-0.21501,0.171231,0.639042,-7.58334,84.4365)">
                        <circle cx="86.998" cy="174.87" r="10.068" style="fill:rgb(255,161,142);"/>
                    </g>
                </g>
                <g transform="matrix(1.26271,0,0,1.33443,4033.37,-25.1468)">
                    <g transform="matrix(0.965926,0.258819,-0.258819,0.965926,529.97,-22.8302)">
                        <g transform="matrix(1,0,0,1,-195.777,-81.1275)">
                            <circle cx="298.947" cy="358.162" r="1.115" style="fill:rgb(228,106,119);"/>
                        </g>
                        <g transform="matrix(1,0,0,1,-187.452,-81.1275)">
                            <circle cx="298.947" cy="358.162" r="1.115" style="fill:rgb(228,106,119);"/>
                        </g>
                        <g transform="matrix(1,0,0,1,-191.614,-76.989)">
                            <circle cx="298.947" cy="358.162" r="1.115" style="fill:rgb(228,106,119);"/>
                        </g>
                    </g>
                    <g transform="matrix(-0.965926,0.258819,0.258819,0.965926,644.496,-22.8302)">
                        <g transform="matrix(1,0,0,1,-195.777,-81.1275)">
                            <circle cx="298.947" cy="358.162" r="1.115" style="fill:rgb(228,106,119);"/>
                        </g>
                        <g transform="matrix(1,0,0,1,-187.452,-81.1275)">
                            <circle cx="298.947" cy="358.162" r="1.115" style="fill:rgb(228,106,119);"/>
                        </g>
                        <g transform="matrix(1,0,0,1,-191.614,-76.989)">
                            <circle cx="298.947" cy="358.162" r="1.115" style="fill:rgb(228,106,119);"/>
                        </g>
                    </g>
                </g>
            </g>
            <g transform="matrix(0.805589,0,0,0.855358,-3883.96,-1027.34)">
                <g transform="matrix(0.982525,-0.262031,0.184513,0.685379,-7.53786,3229.84)">
                    <path d="M10687.3,1324.82C10687.3,1322.85 10686.1,1321.26 10684.8,1321.26L10660.6,1321.26C10659.2,1321.26 10658.1,1322.85 10658.1,1324.82C10658.1,1326.79 10659.2,1328.39 10660.6,1328.39L10684.8,1328.39C10686.1,1328.39 10687.3,1326.79 10687.3,1324.82Z" style="fill:rgb(52,58,64);"/>
                </g>
                <g transform="matrix(0.982525,0.262031,0.184513,-0.685379,-7.53786,-526.516)">
                    <path d="M10687.3,1324.82C10687.3,1322.85 10686.1,1321.26 10684.8,1321.26L10660.6,1321.26C10659.2,1321.26 10658.1,1322.85 10658.1,1324.82C10658.1,1326.79 10659.2,1328.39 10660.6,1328.39L10684.8,1328.39C10686.1,1328.39 10687.3,1326.79 10687.3,1324.82Z" style="fill:rgb(52,58,64);"/>
                </g>
                <g transform="matrix(-0.982525,-0.262031,-0.184513,0.685379,21287.2,3229.84)">
                    <path d="M10687.3,1324.82C10687.3,1322.85 10686.1,1321.26 10684.8,1321.26L10660.6,1321.26C10659.2,1321.26 10658.1,1322.85 10658.1,1324.82C10658.1,1326.79 10659.2,1328.39 10660.6,1328.39L10684.8,1328.39C10686.1,1328.39 10687.3,1326.79 10687.3,1324.82Z" style="fill:rgb(52,58,64);"/>
                </g>
                <g transform="matrix(-0.982525,0.262031,-0.184513,-0.685379,21287.2,-526.516)">
                    <path d="M10687.3,1324.82C10687.3,1322.85 10686.1,1321.26 10684.8,1321.26L10660.6,1321.26C10659.2,1321.26 10658.1,1322.85 10658.1,1324.82C10658.1,1326.79 10659.2,1328.39 10660.6,1328.39L10684.8,1328.39C10686.1,1328.39 10687.3,1326.79 10687.3,1324.82Z" style="fill:rgb(52,58,64);"/>
                </g>
            </g>
            <g transform="matrix(0.765541,0,0,0.809021,4572.93,-6.98583)">
                <g transform="matrix(1.33943,-0.358898,0.358898,1.33943,-1916.25,-1213.89)">
                    <ellipse cx="1170.52" cy="1294.25" rx="7.05" ry="4.893" style="fill:rgb(44,50,56);"/>
                </g>
                <g transform="matrix(-1.33943,-0.358898,-0.358898,1.33943,2215.23,-1213.89)">
                    <ellipse cx="1170.52" cy="1294.25" rx="7.05" ry="4.893" style="fill:rgb(44,50,56);"/>
                </g>
                <g transform="matrix(1.75208,0,0,1.75208,-982.894,-2032.47)">
                    <g transform="matrix(0.202336,0.350456,-0.866025,0.5,1531.83,151.308)">
                        <path d="M1194.32,1296.31C1194.32,1295.91 1193.52,1295.59 1192.54,1295.59C1191.55,1295.59 1190.76,1295.91 1190.76,1296.31L1190.76,1305.97C1190.76,1306.37 1191.55,1306.69 1192.54,1306.69C1193.52,1306.69 1194.32,1306.37 1194.32,1305.97L1194.32,1296.31Z" style="fill:rgb(132,142,151);"/>
                    </g>
                    <g transform="matrix(-0.202336,0.350456,0.866025,0.5,-239.218,151.308)">
                        <path d="M1194.32,1296.31C1194.32,1295.91 1193.52,1295.59 1192.54,1295.59C1191.55,1295.59 1190.76,1295.91 1190.76,1296.31L1190.76,1305.97C1190.76,1306.37 1191.55,1306.69 1192.54,1306.69C1193.52,1306.69 1194.32,1306.37 1194.32,1305.97L1194.32,1296.31Z" style="fill:rgb(132,142,151);"/>
                    </g>
                </g>
            </g>
        </g>
        <g transform="matrix(0.995135,0,0,1.17764,4186.29,1902.31)">
            <path d="M279.183,139.658C338.084,149.376 383.646,195.472 388.36,252.215C299.949,243.304 211.882,242.588 124.258,252.256L124.258,246.492C131.455,192.391 175.913,149.044 232.817,139.658L279.183,139.658Z" style="fill:rgb(243,169,131);"/>
        </g>
        <g transform="matrix(0.995135,0,0,1.17764,4186.29,1902.31)">
            <path d="M127.257,231.531C141.775,177.68 193.944,137.767 256,137.767C318.027,137.767 370.176,177.642 384.722,231.455C360.099,229.035 335.506,227.254 310.951,226.159L289.524,168.616L289.524,225.378C267.152,224.746 244.803,224.694 222.476,225.26L222.476,168.616L201.112,225.991C176.46,227.054 151.842,228.884 127.257,231.531Z" style="fill:rgb(0,220,235);"/>
        </g>
        <g transform="matrix(0.995135,0,-3.14009e-30,1.17764,4186.29,1902.31)">
            <path d="M290.833,172.133C299.47,170.487 307.972,168.13 316.324,164.995C336.158,175.244 349.471,187.582 357.128,201.733C337.415,195.767 317.444,191.592 297.205,189.245L290.833,172.133ZM214.613,189.733C195.361,192.134 175.874,196.124 156.154,201.733C163.631,186.391 176.54,174.966 191.465,164.995C201.514,167.815 211.463,170.107 221.294,171.791L214.613,189.733ZM222.476,171.991C245.538,175.83 267.953,176.303 289.524,172.377L289.524,188.443C267.49,186.398 245.144,186.514 222.476,188.839L222.476,171.991Z" style="fill:rgb(49,233,242);"/>
        </g>
    </g>
</svg>
