<?xml version="1.0" encoding="UTF-8" standalone="no"?>
<!DOCTYPE svg PUBLIC "-//W3C//DTD SVG 1.1//EN" "http://www.w3.org/Graphics/SVG/1.1/DTD/svg11.dtd">
<svg width="100%" height="100%" viewBox="0 0 512 512" version="1.1" xmlns="http://www.w3.org/2000/svg" xmlns:xlink="http://www.w3.org/1999/xlink" xml:space="preserve" xmlns:serif="http://www.serif.com/" style="fill-rule:evenodd;clip-rule:evenodd;stroke-linejoin:round;stroke-miterlimit:2;">
    <g id="Avatar----Cat-Yellow" serif:id="Avatar -  Cat Yellow" transform="matrix(1.00489,0,0,0.849157,-4658.21,-1619.81)">
        <g transform="matrix(2.52295,0,0,2.98565,3411.22,1401.67)">
            <g transform="matrix(0.92528,0,0,0.801685,428.001,166.518)">
                <path d="M207.473,225.556C207.473,202.342 191.143,183.494 171.03,183.494C150.916,183.494 134.587,202.342 134.587,225.556L134.587,255.547L207.473,255.547L207.473,225.556Z" style="fill:rgb(253,191,54);"/>
                <clipPath id="_clip1">
                    <path d="M207.473,225.556C207.473,202.342 191.143,183.494 171.03,183.494C150.916,183.494 134.587,202.342 134.587,225.556L134.587,255.547L207.473,255.547L207.473,225.556Z"/>
                </clipPath>
                <g clip-path="url(#_clip1)">
                    <g transform="matrix(0.814476,0,0,1.06461,83.2709,15.5182)">
                        <rect x="107.972" y="158.108" width="48.45" height="71.28" style="fill:rgb(218,159,34);fill-opacity:0.5;"/>
                    </g>
                </g>
            </g>
            <g transform="matrix(1.28795,0,0,1.67004,364.386,13.9486)">
                <ellipse cx="172.461" cy="185.881" rx="15.377" ry="6.294" style="fill:rgb(218,159,34);"/>
            </g>
        </g>
        <g transform="matrix(0.995135,0,0,1.17764,4635.55,1907.55)">
            <g transform="matrix(0.689755,0,0,0.689755,80.7451,135.874)">
                <circle cx="254.7" cy="436.585" r="11.731" style="fill:rgb(93,69,5);"/>
            </g>
            <g transform="matrix(0.689755,0,0,0.689755,80.7451,173.734)">
                <circle cx="254.7" cy="436.585" r="11.731" style="fill:rgb(93,69,5);"/>
            </g>
        </g>
        <g id="Cat-Hat-Pink" serif:id="Cat Hat Pink" transform="matrix(2.59633,0,0,2.90736,-7279.67,1818.32)">
            <g transform="matrix(0.908313,0,0,0.959902,298.601,-275.934)">
                <g transform="matrix(-0.679323,-0.392207,-0.431536,0.747442,5819.25,207.31)">
                    <g transform="matrix(1,0,0,1,-546.23,-81.3293)">
                        <path d="M1495.46,735.055C1517.23,735.055 1534.9,763.521 1534.9,785.29C1534.9,807.059 1517.23,824.733 1495.46,824.733C1473.69,824.733 1456.02,807.059 1456.02,785.29C1456.02,763.521 1473.69,735.055 1495.46,735.055Z" style="fill:rgb(253,191,54);"/>
                    </g>
                    <g transform="matrix(0.566334,0,0,0.566334,102.3,260.707)">
                        <path d="M1495.46,723.867C1517.23,723.867 1534.9,763.521 1534.9,785.29C1534.9,807.059 1517.23,824.733 1495.46,824.733C1473.69,824.733 1456.02,807.059 1456.02,785.29C1456.02,763.521 1473.69,723.867 1495.46,723.867Z" style="fill:rgb(247,102,109);"/>
                    </g>
                </g>
                <g transform="matrix(0.679323,-0.392207,0.431536,0.747442,3844.32,207.31)">
                    <g transform="matrix(1,0,0,1,-546.23,-81.3293)">
                        <path d="M1495.46,735.055C1517.23,735.055 1534.9,763.521 1534.9,785.29C1534.9,807.059 1517.23,824.733 1495.46,824.733C1473.69,824.733 1456.02,807.059 1456.02,785.29C1456.02,763.521 1473.69,735.055 1495.46,735.055Z" style="fill:rgb(253,191,54);"/>
                    </g>
                    <g transform="matrix(0.566334,0,0,0.566334,102.3,260.707)">
                        <path d="M1495.46,723.867C1517.23,723.867 1534.9,763.521 1534.9,785.29C1534.9,807.059 1517.23,824.733 1495.46,824.733C1473.69,824.733 1456.02,807.059 1456.02,785.29C1456.02,763.521 1473.69,723.867 1495.46,723.867Z" style="fill:rgb(247,102,109);"/>
                    </g>
                </g>
            </g>
            <g transform="matrix(0.966711,-4.74134e-18,4.71615e-18,-1.1146,4573.1,317.829)">
                <path d="M118.212,110.053C160.16,110.053 194.216,133.15 194.216,173.055C194.216,212.961 160.16,236.058 118.212,236.058C76.264,236.058 42.207,212.961 42.207,173.055C42.207,133.15 76.264,110.053 118.212,110.053Z" style="fill:rgb(253,191,54);"/>
                <clipPath id="_clip2">
                    <path d="M118.212,110.053C160.16,110.053 194.216,133.15 194.216,173.055C194.216,212.961 160.16,236.058 118.212,236.058C76.264,236.058 42.207,212.961 42.207,173.055C42.207,133.15 76.264,110.053 118.212,110.053Z"/>
                </clipPath>
                <g clip-path="url(#_clip2)">
                    <g transform="matrix(-0.0832035,0.292186,-0.365864,-0.0922448,542.804,-170.631)">
                        <path d="M1404.45,627.748C1404.45,623.181 1400.18,619.472 1394.92,619.472C1389.66,619.472 1385.39,623.181 1385.39,627.748L1385.39,678.955C1385.39,683.522 1389.66,687.231 1394.92,687.231C1400.18,687.231 1404.45,683.522 1404.45,678.955L1404.45,627.748Z" style="fill:rgb(93,69,5);"/>
                    </g>
                    <g transform="matrix(-0.110178,0.28438,-0.356411,-0.121025,578.319,-129.625)">
                        <path d="M1404.45,627.729C1404.45,623.172 1400.18,619.472 1394.92,619.472C1389.66,619.472 1385.39,623.172 1385.39,627.729L1385.39,678.974C1385.39,683.531 1389.66,687.231 1394.92,687.231C1400.18,687.231 1404.45,683.531 1404.45,678.974L1404.45,627.729Z" style="fill:rgb(93,69,5);"/>
                    </g>
                    <g transform="matrix(0.0556956,-0.298117,-0.37297,-0.0628725,363.226,625.717)">
                        <path d="M1404.45,627.766C1404.45,623.189 1400.18,619.472 1394.92,619.472C1389.66,619.472 1385.39,623.189 1385.39,627.766L1385.39,678.937C1385.39,683.514 1389.66,687.231 1394.92,687.231C1400.18,687.231 1404.45,683.514 1404.45,678.937L1404.45,627.766Z" style="fill:rgb(93,69,5);"/>
                    </g>
                    <g transform="matrix(0.321474,-4.74246e-17,-2.40506e-19,-0.473788,-330.219,535.691)">
                        <path d="M1404.45,625.4C1404.45,622.128 1400.18,619.472 1394.92,619.472C1389.66,619.472 1385.39,622.128 1385.39,625.4L1385.39,681.303C1385.39,684.575 1389.66,687.231 1394.92,687.231C1400.18,687.231 1404.45,684.575 1404.45,681.303L1404.45,625.4Z" style="fill:rgb(93,69,5);"/>
                    </g>
                    <g transform="matrix(0.320443,-0.0265369,-0.0319909,-0.355263,-297.316,497.915)">
                        <path d="M1404.45,627.357C1404.45,623.006 1400.18,619.472 1394.92,619.472C1389.66,619.472 1385.39,623.006 1385.39,627.357L1385.39,679.346C1385.39,683.697 1389.66,687.231 1394.92,687.231C1400.18,687.231 1404.45,683.697 1404.45,679.346L1404.45,627.357Z" style="fill:rgb(93,69,5);"/>
                    </g>
                    <g transform="matrix(-0.320443,-0.0265369,0.0319909,-0.355263,533.739,497.915)">
                        <path d="M1404.45,627.357C1404.45,623.006 1400.18,619.472 1394.92,619.472C1389.66,619.472 1385.39,623.006 1385.39,627.357L1385.39,679.346C1385.39,683.697 1389.66,687.231 1394.92,687.231C1400.18,687.231 1404.45,683.697 1404.45,679.346L1404.45,627.357Z" style="fill:rgb(93,69,5);"/>
                    </g>
                    <g transform="matrix(0.0832454,0.292333,0.366048,-0.0922911,-303.945,-167.621)">
                        <path d="M1404.45,627.748C1404.45,623.181 1400.18,619.472 1394.92,619.472C1389.66,619.472 1385.39,623.181 1385.39,627.748L1385.39,678.955C1385.39,683.522 1389.66,687.231 1394.92,687.231C1400.18,687.231 1404.45,683.522 1404.45,678.955L1404.45,627.748Z" style="fill:rgb(93,69,5);"/>
                    </g>
                    <g transform="matrix(0.110178,0.28438,0.356411,-0.121025,-339.281,-126.44)">
                        <path d="M1404.45,627.729C1404.45,623.172 1400.18,619.472 1394.92,619.472C1389.66,619.472 1385.39,623.172 1385.39,627.729L1385.39,678.974C1385.39,683.531 1389.66,687.231 1394.92,687.231C1400.18,687.231 1404.45,683.531 1404.45,678.974L1404.45,627.729Z" style="fill:rgb(93,69,5);"/>
                    </g>
                    <g transform="matrix(-0.0556956,-0.298117,0.37297,-0.0628725,-124.188,628.901)">
                        <path d="M1404.45,627.766C1404.45,623.189 1400.18,619.472 1394.92,619.472C1389.66,619.472 1385.39,623.189 1385.39,627.766L1385.39,678.937C1385.39,683.514 1389.66,687.231 1394.92,687.231C1400.18,687.231 1404.45,683.514 1404.45,678.937L1404.45,627.766Z" style="fill:rgb(93,69,5);"/>
                    </g>
                </g>
            </g>
            <g transform="matrix(0.383285,0,0,0.405055,4589.25,30.693)">
                <circle cx="160.265" cy="110.747" r="12.956" style="fill:rgb(255,243,191);"/>
            </g>
            <g transform="matrix(1,0,0,1,-87.4966,-189.123)">
                <g transform="matrix(0.521055,0,0,0.537481,249.072,-6.38893)">
                    <ellipse cx="8685.84" cy="617.58" rx="100.454" ry="94.287" style="fill:rgb(191,113,64);"/>
                    <clipPath id="_clip3">
                        <ellipse cx="8685.84" cy="617.58" rx="100.454" ry="94.287"/>
                    </clipPath>
                    <g clip-path="url(#_clip3)">
                        <g transform="matrix(1.85751,2.22045e-16,-4.44089e-16,1.90302,7925.53,384.958)">
                            <circle cx="386.649" cy="114.577" r="13.028" style="fill:rgb(244,225,199);"/>
                        </g>
                        <g transform="matrix(0.420332,2.39048e-17,-2.33331e-17,0.43063,8481.2,553.66)">
                            <circle cx="386.649" cy="114.577" r="13.028" style="fill:rgb(33,37,41);"/>
                        </g>
                        <g transform="matrix(1.85751,2.22045e-16,-4.44089e-16,1.90302,8009.73,384.958)">
                            <circle cx="386.649" cy="114.577" r="13.028" style="fill:rgb(244,225,199);"/>
                        </g>
                        <g transform="matrix(0.420332,0,2.09998e-16,0.43063,8565.41,553.66)">
                            <circle cx="386.649" cy="114.577" r="13.028" style="fill:rgb(33,37,41);"/>
                        </g>
                    </g>
                </g>
                <g transform="matrix(0.812698,0,0,0.858857,4440.41,220.836)">
                    <path d="M417.196,128.292C417.31,128.107 417.533,128.02 417.743,128.079C417.952,128.139 418.096,128.33 418.096,128.547C418.117,128.548 418.117,128.549 418.117,128.549C418.117,131.537 415.137,133.962 411.468,133.962C407.798,133.962 404.819,131.537 404.819,128.549C404.819,128.549 404.819,128.548 404.819,128.547C404.82,128.321 404.97,128.122 405.188,128.061C405.406,127.999 405.638,128.089 405.757,128.281C406.897,129.887 409.03,130.957 411.468,130.957C413.906,130.957 416.039,129.887 417.196,128.292Z" style="fill:rgb(118,63,51);"/>
                </g>
                <g transform="matrix(0.940771,0,0,0.706098,4240,87.2755)">
                    <g id="Mouth-Closed" serif:id="Mouth Closed">
                        <path d="M556.136,364.798C558,367.511 560.518,369.33 563.302,370.304C564.989,370.894 566.764,371.185 568.542,371.191C569.871,371.195 571.197,371.058 572.489,370.743C575.786,369.937 578.81,367.95 580.949,364.798C581.544,363.848 581.48,362.397 580.805,361.559C580.13,360.721 579.1,360.813 578.505,361.763C577.614,363.317 576.478,364.608 575.159,365.554C573.184,366.969 570.869,367.776 568.542,367.796C566.994,367.808 565.443,367.461 564,366.819C561.821,365.849 559.917,364.107 558.58,361.763C557.985,360.813 556.955,360.721 556.28,361.559C555.605,362.397 555.541,363.848 556.136,364.798Z" style="fill:rgb(80,40,32);"/>
                    </g>
                </g>
                <g transform="matrix(0.966711,0,0,1.02162,4657.17,152.458)">
                    <g transform="matrix(0.802429,0.21501,-0.171231,0.639042,115.547,53.8992)">
                        <circle cx="86.998" cy="174.87" r="10.068" style="fill:rgb(166,68,58);fill-opacity:0.53;"/>
                    </g>
                    <g transform="matrix(0.802429,-0.21501,0.171231,0.639042,-11.6498,91.31)">
                        <circle cx="86.998" cy="174.87" r="10.068" style="fill:rgb(166,68,58);fill-opacity:0.53;"/>
                    </g>
                </g>
            </g>
            <g transform="matrix(0.383285,0,0,0.405055,4589.25,30.693)">
                <path d="M292.507,140.448C338.859,152.215 375.34,185.842 387.873,228.439L124.127,228.439C136.659,185.847 173.136,152.221 219.493,140.448L292.507,140.448Z" style="fill:rgb(160,86,54);fill-opacity:0.71;"/>
            </g>
            <g transform="matrix(0.383285,0,0,0.405055,4589.25,30.693)">
                <path d="M127.769,217.938C146.959,170.088 197.158,135.919 256,135.919C314.842,135.919 365.041,170.088 384.231,217.938L365.776,217.938L349.171,193.092L349.171,217.938L266.793,217.938L257.611,163.494L248.428,217.938L162.686,217.938L162.686,193.092L146.081,217.938L127.769,217.938Z" style="fill:rgb(80,40,32);"/>
            </g>
            <g transform="matrix(0.383285,0,0,0.405055,4589.25,30.693)">
                <path d="M259.07,172.15C278.56,172.017 297.475,168.879 315.683,162.045C335.517,172.293 348.83,184.632 356.487,198.783C355.03,198.342 353.571,197.911 352.11,197.489L349.171,193.092L349.171,196.655C320.363,188.609 291.005,184.373 261.08,184.065L259.07,172.15ZM159.654,197.628C158.278,198.004 156.896,198.39 155.513,198.783C162.99,183.441 175.898,172.016 190.824,162.045C213.153,168.31 234.983,171.97 256.151,172.148L254.141,184.064C224.227,184.361 193.748,188.571 162.686,196.812L162.686,193.092L159.654,197.628Z" style="fill:rgb(98,48,39);"/>
            </g>
        </g>
    </g>
</svg>
