<?xml version="1.0" encoding="UTF-8" standalone="no"?>
<!DOCTYPE svg PUBLIC "-//W3C//DTD SVG 1.1//EN" "http://www.w3.org/Graphics/SVG/1.1/DTD/svg11.dtd">
<svg width="100%" height="100%" viewBox="0 0 512 512" version="1.1" xmlns="http://www.w3.org/2000/svg" xmlns:xlink="http://www.w3.org/1999/xlink" xml:space="preserve" xmlns:serif="http://www.serif.com/" style="fill-rule:evenodd;clip-rule:evenodd;stroke-linecap:round;stroke-linejoin:round;stroke-miterlimit:1.5;">
    <g id="Boy-2" serif:id="Boy 2" transform="matrix(2.53529,0,0,2.53529,25.9779,144.614)">
        <g transform="matrix(1,0,0,1,-0.681341,0)">
            <g transform="matrix(0.92528,0,0,0.801685,-66.8408,-59.9589)">
                <path d="M207.473,225.556C207.473,202.342 191.143,183.494 171.03,183.494C150.916,183.494 134.587,202.342 134.587,225.556L134.587,255.547L207.473,255.547L207.473,225.556Z" style="fill:rgb(255,135,135);"/>
                <clipPath id="_clip1">
                    <path d="M207.473,225.556C207.473,202.342 191.143,183.494 171.03,183.494C150.916,183.494 134.587,202.342 134.587,225.556L134.587,255.547L207.473,255.547L207.473,225.556Z"/>
                </clipPath>
                <g clip-path="url(#_clip1)">
                    <g transform="matrix(0.814476,0,0,1.06461,83.2709,15.5182)">
                        <rect x="107.972" y="158.108" width="48.45" height="71.28" style="fill:rgb(255,99,99);fill-opacity:0.5;"/>
                    </g>
                </g>
                <path d="M207.473,225.556C207.473,202.342 191.143,183.494 171.03,183.494C150.916,183.494 134.587,202.342 134.587,225.556L134.587,255.547L207.473,255.547L207.473,225.556Z" style="fill:none;stroke:rgb(244,88,88);stroke-width:0.61px;"/>
            </g>
            <g transform="matrix(1.28795,0,0,1.67004,-130.456,-212.529)">
                <ellipse cx="172.461" cy="185.881" rx="15.377" ry="6.294" style="fill:rgb(229,118,118);"/>
            </g>
            <g transform="matrix(0.394433,0,0,0.394433,-9.5652,-57.0403)">
                <path d="M265.268,366.564C288.88,368.737 306.858,379.674 306.858,392.822C306.858,407.53 284.359,419.472 256.647,419.472L256.445,419.471L256.445,366.564L265.268,366.564Z" style="fill:rgb(236,84,84);fill-opacity:0.5;"/>
            </g>
            <g transform="matrix(0.860341,0,0,1,-54.6437,-100.567)">
                <path d="M175.391,183.698C175.391,186.133 176.832,188.338 179.062,189.316C181.916,190.522 183.71,192.285 183.71,194.245C183.71,197.903 177.46,200.873 169.762,200.873C162.064,200.873 155.814,197.903 155.814,194.245C155.814,192.285 157.609,190.522 160.459,189.308C162.686,188.332 164.125,186.13 164.125,183.698C164.134,176.696 164.134,163.956 164.134,163.956L175.391,163.956L175.391,183.698Z" style="fill:rgb(248,204,177);"/>
                <clipPath id="_clip2">
                    <path d="M175.391,183.698C175.391,186.133 176.832,188.338 179.062,189.316C181.916,190.522 183.71,192.285 183.71,194.245C183.71,197.903 177.46,200.873 169.762,200.873C162.064,200.873 155.814,197.903 155.814,194.245C155.814,192.285 157.609,190.522 160.459,189.308C162.686,188.332 164.125,186.13 164.125,183.698C164.134,176.696 164.134,163.956 164.134,163.956L175.391,163.956L175.391,183.698Z"/>
                </clipPath>
                <g clip-path="url(#_clip2)">
                    <g transform="matrix(1.01866,0.27295,-0.258819,0.965926,48.5982,-39.2469)">
                        <rect x="159.572" y="177.268" width="18.851" height="7.881" style="fill:rgb(227,165,132);"/>
                    </g>
                    <g transform="matrix(4.32538e-16,2.67107,-2.0992,0.136351,558.624,-277.917)">
                        <rect x="159.572" y="177.268" width="18.851" height="7.881" style="fill:rgb(227,165,132);"/>
                    </g>
                </g>
                <path d="M175.391,183.698C175.391,186.133 176.832,188.338 179.062,189.316C181.916,190.522 183.71,192.285 183.71,194.245C183.71,197.903 177.46,200.873 169.762,200.873C162.064,200.873 155.814,197.903 155.814,194.245C155.814,192.285 157.609,190.522 160.459,189.308C162.686,188.332 164.125,186.13 164.125,183.698C164.134,176.696 164.134,163.956 164.134,163.956L175.391,163.956L175.391,183.698Z" style="fill:none;stroke:rgb(168,92,77);stroke-width:0.56px;"/>
            </g>
        </g>
        <g>
            <g transform="matrix(1.1358,0,0,1,-568.858,-74.5627)">
                <circle cx="581.348" cy="32.402" r="13.769" style="fill:rgb(11,114,133);"/>
            </g>
            <g transform="matrix(1.16685,0,0,1.17189,-106.745,-135.726)">
                <path d="M169.983,72.853C201.298,72.853 217.786,108.288 217.786,132.531C217.786,156.774 196.366,176.456 169.983,176.456C143.6,176.456 122.181,156.774 122.181,132.531C122.181,108.288 138.668,72.853 169.983,72.853Z" style="fill:rgb(16,152,173);"/>
                <clipPath id="_clip3">
                    <path d="M169.983,72.853C201.298,72.853 217.786,108.288 217.786,132.531C217.786,156.774 196.366,176.456 169.983,176.456C143.6,176.456 122.181,156.774 122.181,132.531C122.181,108.288 138.668,72.853 169.983,72.853Z"/>
                </clipPath>
                <g clip-path="url(#_clip3)">
                    <g transform="matrix(0.880148,0,0,0.81619,-343.356,30.9341)">
                        <path d="M637.929,98.896C631.635,79.579 609.642,65.301 583.508,65.301C557.375,65.301 535.381,79.579 529.088,98.896" style="fill:none;stroke:rgb(17,138,154);stroke-width:3.14px;"/>
                    </g>
                    <g transform="matrix(0.880148,0,0,0.81619,-343.356,23.4516)">
                        <path d="M637.929,98.896C631.635,79.579 609.642,65.301 583.508,65.301C557.375,65.301 535.381,79.579 529.088,98.896" style="fill:none;stroke:rgb(17,138,154);stroke-width:1.57px;"/>
                    </g>
                </g>
            </g>
            <g transform="matrix(1,0,0,1,-495.898,-79.6674)">
                <path d="M633.565,101.321C640.523,103.462 646.209,108.379 650.514,116.308L637.973,113.028L633.565,101.321Z" style="fill:rgb(172,88,73);"/>
            </g>
            <g transform="matrix(-1,0,0,1,677.355,-78.9803)">
                <path d="M633.565,101.321C641.048,103.883 646.698,108.879 650.514,116.308L637.973,113.028C631.056,109.017 631.305,105.149 633.565,101.321Z" style="fill:rgb(172,88,73);"/>
            </g>
            <g transform="matrix(1,0,0,1,119.685,-14.4394)">
                <g transform="matrix(1,0,0,1,0,6.33468)">
                    <g transform="matrix(1,0,0,1,-101.982,-82.0054)">
                        <circle cx="122.959" cy="132.898" r="12.204" style="fill:rgb(248,204,177);stroke:rgb(168,92,77);stroke-width:0.53px;"/>
                    </g>
                    <g transform="matrix(0.497418,0,0,0.497418,-40.1845,-15.2132)">
                        <circle cx="122.959" cy="132.898" r="12.204" style="fill:rgb(227,165,132);"/>
                    </g>
                </g>
                <g transform="matrix(1,0,0,1,-98.5059,6.33468)">
                    <g transform="matrix(1,0,0,1,-101.982,-82.0054)">
                        <circle cx="122.959" cy="132.898" r="12.204" style="fill:rgb(248,204,177);stroke:rgb(168,92,77);stroke-width:0.53px;"/>
                    </g>
                    <g transform="matrix(0.497418,0,0,0.497418,-40.1845,-15.2132)">
                        <circle cx="122.959" cy="132.898" r="12.204" style="fill:rgb(227,165,132);"/>
                    </g>
                </g>
            </g>
            <g transform="matrix(1,0,0,1.00643,-78.5737,-101.036)">
                <path d="M169.983,72.853C217.786,72.853 217.786,108.288 217.786,132.531C217.786,171.258 196.366,181.023 169.983,181.023C143.6,181.023 122.181,171.258 122.181,132.531C122.181,108.288 122.181,72.853 169.983,72.853Z" style="fill:rgb(227,165,132);"/>
                <clipPath id="_clip4">
                    <path d="M169.983,72.853C217.786,72.853 217.786,108.288 217.786,132.531C217.786,171.258 196.366,181.023 169.983,181.023C143.6,181.023 122.181,171.258 122.181,132.531C122.181,108.288 122.181,72.853 169.983,72.853Z"/>
                </clipPath>
                <g clip-path="url(#_clip4)">
                    <g transform="matrix(1,0,0,1,62.0546,19.4394)">
                        <rect x="50.041" y="43.786" width="57.94" height="121.023" style="fill:rgb(255,242,227);"/>
                    </g>
                </g>
                <path d="M169.983,72.853C217.786,72.853 217.786,108.288 217.786,132.531C217.786,171.258 196.366,181.023 169.983,181.023C143.6,181.023 122.181,171.258 122.181,132.531C122.181,108.288 122.181,72.853 169.983,72.853Z" style="fill:none;stroke:rgb(168,92,77);stroke-width:0.52px;"/>
            </g>
            <g transform="matrix(0.891688,0,0,1.00392,-60.1626,-100.852)">
                <path d="M169.983,72.853C217.786,72.853 217.786,108.288 217.786,132.531C217.786,171.258 196.366,181.023 169.983,181.023C143.6,181.023 122.181,171.258 122.181,132.531C122.181,108.288 122.181,72.853 169.983,72.853Z" style="fill:rgb(248,204,177);"/>
            </g>
            <g transform="matrix(0.9124,0,0,0.9124,-105.448,0.937184)">
                <g transform="matrix(1,5.55112e-17,-5.55112e-17,1,2.19202,-1.84741e-13)">
                    <g transform="matrix(1,2.52562e-17,1.72673e-17,1.0011,-195.777,-81.2534)">
                        <circle cx="386.649" cy="114.577" r="13.028" style="fill:white;"/>
                    </g>
                    <g transform="matrix(0.226536,0,0,0.226536,103.282,7.49353)">
                        <circle cx="386.649" cy="114.577" r="13.028" style="fill:rgb(33,37,41);"/>
                    </g>
                </g>
                <g transform="matrix(0.866025,-0.5,0.5,0.866025,56.426,99.9175)">
                    <g transform="matrix(0.866977,0.500549,-0.500549,0.866977,-86.9919,-259.423)">
                        <circle cx="386.649" cy="114.577" r="13.028" style="fill:white;"/>
                    </g>
                    <g transform="matrix(0.226536,0,0,0.226536,103.282,7.49353)">
                        <circle cx="386.649" cy="114.577" r="13.028" style="fill:rgb(33,37,41);"/>
                    </g>
                </g>
            </g>
            <g transform="matrix(1,0,0,1,-483.711,-73.3796)">
                <path d="M544.904,73.657C546.014,80.365 548.601,87.754 555.304,97.043L559.003,73.657C564.519,86.35 569.458,98.525 581.009,116.632L585.739,97.043C588.356,101.194 592.25,106.98 599.161,116.632L602.966,102.074C605.22,110.561 610.668,119.657 618.409,129.19L623.471,102.074L611.536,67.144L570.625,67.144L533.439,71.39L533.249,88.097L530.824,107.366L544.904,73.657Z" style="fill:rgb(227,165,132);"/>
            </g>
            <g transform="matrix(1,0,0,1,-132.069,1.93761)">
                <g transform="matrix(1,0,0,1,-199.188,-80.7042)">
                    <path d="M393.086,92.531C398.853,89.696 403.711,89.397 408.377,89.609C409.342,89.653 410.161,88.905 410.205,87.94C410.249,86.975 409.501,86.156 408.536,86.112C403.348,85.877 397.953,86.238 391.542,89.389C390.675,89.816 390.317,90.866 390.743,91.732C391.17,92.599 392.219,92.957 393.086,92.531Z" style="fill:rgb(116,77,58);"/>
                </g>
                <g transform="matrix(-1,0,0,1,647.85,-80.7042)">
                    <path d="M391.542,89.389C397.953,86.238 403.348,85.877 408.536,86.112C409.501,86.156 410.249,86.975 410.205,87.94C410.161,88.905 409.342,89.653 408.377,89.609C403.711,89.397 398.853,89.696 393.086,92.531C392.219,92.957 391.17,92.599 390.743,91.732C390.317,90.866 390.675,89.816 391.542,89.389Z" style="fill:rgb(116,77,58);"/>
                </g>
            </g>
            <g transform="matrix(1,0,0,1,-491.634,-81.1275)">
                <path d="M545.338,83.946L555.304,97.043L559.003,73.657C561.466,84.51 566.748,97.372 581.009,116.632L585.739,97.043C588.477,104.738 593.173,111.119 599.161,116.632L602.966,102.074C606.292,114.168 612.365,123.754 619.459,132.41L623.471,102.074L629.056,127.598L630.851,116.632L635.067,119.978C633.152,114.588 631.842,109.837 632.686,107.366C640.186,117.061 640.051,101.252 640.054,99.44C640.078,85.463 611.536,67.144 611.536,67.144L570.625,67.144L541.173,73.657L533.249,88.097L527.581,102.074C527.176,104.621 531.761,113.894 527.581,123.769L531.847,118.357L536.17,127.598C539.319,113.397 542.367,98.817 545.338,83.946Z" style="fill:rgb(172,88,73);"/>
            </g>
            <g transform="matrix(0.744129,0.199389,-0.197606,0.737476,-894.271,-362.258)">
                <path d="M1407.85,142.31C1400.63,131.306 1393.41,143.161 1383.73,140.022C1374.27,136.954 1371.22,131.439 1364.44,131.784C1357.66,132.128 1353.94,142.531 1354.35,150.737C1352.85,145.388 1336.58,133.257 1335.5,130.506C1349.38,134.077 1360.76,123.146 1368.36,123.712C1372.3,124.007 1378.57,134.091 1386.42,134.991C1389.62,135.351 1407.94,133.23 1400.6,123.69C1408.94,122.667 1414.23,142.69 1407.85,142.31Z" style="fill:rgb(193,115,89);fill-rule:nonzero;"/>
            </g>
            <g transform="matrix(1.027,0,0,0.9027,-507.39,-62.7857)">
                <path d="M529.088,98.896C527.907,95.274 527.279,91.474 527.279,87.557C527.279,62.757 552.475,42.622 583.508,42.622C614.542,42.622 639.738,62.757 639.738,87.557C639.738,91.474 639.109,95.274 637.929,98.896C631.635,79.579 609.642,65.301 583.508,65.301C557.375,65.301 535.381,79.579 529.088,98.896Z" style="fill:rgb(118,63,51);fill-opacity:0.42;"/>
            </g>
            <g transform="matrix(1.027,0,0,1,-507.39,-72.4083)">
                <path d="M529.088,98.896C527.907,95.274 527.279,91.474 527.279,87.557C527.279,62.757 552.475,42.622 583.508,42.622C614.542,42.622 639.738,62.757 639.738,87.557C639.738,91.474 639.109,95.274 637.929,98.896C631.635,79.579 609.642,65.301 583.508,65.301C557.375,65.301 535.381,79.579 529.088,98.896Z" style="fill:rgb(21,170,191);"/>
            </g>
            <g transform="matrix(1,0,0,1,-320.058,-79.8819)">
                <path d="M417.196,128.292C417.31,128.107 417.533,128.02 417.743,128.079C417.952,128.139 418.096,128.33 418.096,128.547C418.117,128.548 418.117,128.549 418.117,128.549C418.117,131.537 415.137,133.962 411.468,133.962C407.798,133.962 404.819,131.537 404.819,128.549C404.819,128.549 404.819,128.548 404.819,128.547C404.82,128.321 404.97,128.122 405.188,128.061C405.406,127.999 405.638,128.089 405.757,128.281C406.897,129.887 409.03,130.957 411.468,130.957C413.906,130.957 416.039,129.887 417.196,128.292Z" style="fill:rgb(229,169,135);"/>
            </g>
            <g transform="matrix(1,0,0,1,-125.478,-3.18453)">
                <g transform="matrix(0.845613,0.226581,-0.258819,0.965926,-100.805,-164.17)">
                    <ellipse cx="387.524" cy="139.779" rx="8.305" ry="5.623" style="fill:rgb(242,179,165);"/>
                </g>
                <g transform="matrix(0.845613,-0.226581,0.258819,0.965926,-120.811,11.4411)">
                    <ellipse cx="387.524" cy="139.779" rx="8.305" ry="5.623" style="fill:rgb(242,179,165);"/>
                </g>
            </g>
            <g transform="matrix(1.24046,-0.069679,0.0560833,0.998426,-639.921,-40.5222)">
                <path d="M583.133,142.957C588.244,142.957 592.394,140.474 592.394,142.957C592.394,145.439 588.244,147.455 583.133,147.455C578.021,147.455 573.872,145.439 573.872,142.957C573.872,140.474 578.021,142.957 583.133,142.957Z" style="fill:rgb(168,92,77);"/>
                <clipPath id="_clip5">
                    <path d="M583.133,142.957C588.244,142.957 592.394,140.474 592.394,142.957C592.394,145.439 588.244,147.455 583.133,147.455C578.021,147.455 573.872,145.439 573.872,142.957C573.872,140.474 578.021,142.957 583.133,142.957Z"/>
                </clipPath>
                <g clip-path="url(#_clip5)">
                    <g transform="matrix(0.803614,0.0560833,-0.0142921,0.316117,-36.8064,-17.0018)">
                        <ellipse cx="779.734" cy="385.003" rx="14.641" ry="13.485" style="fill:rgb(213,110,131);"/>
                    </g>
                </g>
            </g>
            <g transform="matrix(1,0,0,1,-492.755,-73.0954)">
                <circle cx="597.688" cy="130.598" r="1.056" style="fill:rgb(168,92,77);"/>
            </g>
        </g>
    </g>
</svg>
