<?xml version="1.0" encoding="UTF-8" standalone="no"?>
<!DOCTYPE svg PUBLIC "-//W3C//DTD SVG 1.1//EN" "http://www.w3.org/Graphics/SVG/1.1/DTD/svg11.dtd">
<svg width="100%" height="100%" viewBox="0 0 512 512" version="1.1" xmlns="http://www.w3.org/2000/svg" xmlns:xlink="http://www.w3.org/1999/xlink" xml:space="preserve" xmlns:serif="http://www.serif.com/" style="fill-rule:evenodd;clip-rule:evenodd;stroke-linecap:round;stroke-linejoin:round;stroke-miterlimit:1.5;">
    <g id="Boy-3" serif:id="Boy 3" transform="matrix(2.53529,0,0,2.53529,79.1395,144.614)">
        <g>
            <g transform="matrix(0.92528,0,0,0.801685,-88.4908,-59.9589)">
                <path d="M207.473,225.556C207.473,202.342 191.143,183.494 171.03,183.494C150.916,183.494 134.587,202.342 134.587,225.556L134.587,255.547L207.473,255.547L207.473,225.556Z" style="fill:rgb(138,219,134);"/>
                <clipPath id="_clip1">
                    <path d="M207.473,225.556C207.473,202.342 191.143,183.494 171.03,183.494C150.916,183.494 134.587,202.342 134.587,225.556L134.587,255.547L207.473,255.547L207.473,225.556Z"/>
                </clipPath>
                <g clip-path="url(#_clip1)">
                    <g transform="matrix(0.814476,0,0,1.06461,83.2709,15.5182)">
                        <rect x="107.972" y="158.108" width="48.45" height="71.28" style="fill:rgb(43,138,80);fill-opacity:0.5;"/>
                    </g>
                </g>
                <path d="M207.473,225.556C207.473,202.342 191.143,183.494 171.03,183.494C150.916,183.494 134.587,202.342 134.587,225.556L134.587,255.547L207.473,255.547L207.473,225.556Z" style="fill:none;stroke:rgb(63,162,96);stroke-width:0.61px;"/>
            </g>
            <g transform="matrix(1.28795,0,0,1.67004,-152.106,-212.529)">
                <ellipse cx="172.461" cy="185.881" rx="15.377" ry="6.294" style="fill:rgb(85,192,115);"/>
            </g>
            <g transform="matrix(0.394433,0,0,0.394433,-31.2152,-57.0403)">
                <path d="M265.268,366.564C288.88,368.737 306.858,379.674 306.858,392.822C306.858,407.53 284.359,419.472 256.647,419.472L256.445,419.471L256.445,366.564L265.268,366.564Z" style="fill:rgb(63,136,75);fill-opacity:0.5;"/>
            </g>
            <g transform="matrix(0.860341,0,0,1,-76.2937,-100.567)">
                <path d="M175.391,183.698C175.391,186.133 176.832,188.338 179.062,189.316C181.916,190.522 183.71,192.285 183.71,194.245C183.71,197.903 177.46,200.873 169.762,200.873C162.064,200.873 155.814,197.903 155.814,194.245C155.814,192.285 157.609,190.522 160.459,189.308C162.686,188.332 164.125,186.13 164.125,183.698C164.134,176.696 164.134,163.956 164.134,163.956L175.391,163.956L175.391,183.698Z" style="fill:rgb(251,193,159);"/>
                <clipPath id="_clip2">
                    <path d="M175.391,183.698C175.391,186.133 176.832,188.338 179.062,189.316C181.916,190.522 183.71,192.285 183.71,194.245C183.71,197.903 177.46,200.873 169.762,200.873C162.064,200.873 155.814,197.903 155.814,194.245C155.814,192.285 157.609,190.522 160.459,189.308C162.686,188.332 164.125,186.13 164.125,183.698C164.134,176.696 164.134,163.956 164.134,163.956L175.391,163.956L175.391,183.698Z"/>
                </clipPath>
                <g clip-path="url(#_clip2)">
                    <g transform="matrix(1.01866,0.27295,-0.258819,0.965926,48.5982,-39.2469)">
                        <rect x="159.572" y="177.268" width="18.851" height="7.881" style="fill:rgb(224,155,121);"/>
                    </g>
                    <g transform="matrix(4.32538e-16,2.67107,-2.0992,0.136351,558.624,-277.917)">
                        <rect x="159.572" y="177.268" width="18.851" height="7.881" style="fill:rgb(224,155,121);"/>
                    </g>
                </g>
                <path d="M175.391,183.698C175.391,186.133 176.832,188.338 179.062,189.316C181.916,190.522 183.71,192.285 183.71,194.245C183.71,197.903 177.46,200.873 169.762,200.873C162.064,200.873 155.814,197.903 155.814,194.245C155.814,192.285 157.609,190.522 160.459,189.308C162.686,188.332 164.125,186.13 164.125,183.698C164.134,176.696 164.134,163.956 164.134,163.956L175.391,163.956L175.391,183.698Z" style="fill:none;stroke:rgb(168,92,77);stroke-width:0.56px;"/>
            </g>
        </g>
        <g>
            <g transform="matrix(1.14558,0,0,1.04132,-124.97,-107.595)">
                <path d="M142.593,78.953C155.773,57.049 231.801,68.27 216.165,132.531C216.165,156.774 196.366,176.456 169.983,176.456C143.6,176.456 122.181,156.774 122.181,132.531C122.181,108.288 115.619,90.061 142.593,78.953Z" style="fill:rgb(181,116,87);stroke:rgb(118,63,51);stroke-width:0.48px;"/>
            </g>
            <g transform="matrix(1,0,0,1,98.0349,-14.4394)">
                <g transform="matrix(1,0,0,1,0,6.33468)">
                    <g transform="matrix(1,0,0,1,-101.982,-82.0054)">
                        <circle cx="122.959" cy="132.898" r="12.204" style="fill:rgb(251,193,159);stroke:rgb(168,92,77);stroke-width:0.53px;"/>
                    </g>
                    <g transform="matrix(0.497418,0,0,0.497418,-40.1845,-15.2132)">
                        <circle cx="122.959" cy="132.898" r="12.204" style="fill:rgb(224,155,121);"/>
                    </g>
                </g>
                <g transform="matrix(1,0,0,1,-98.5059,6.33468)">
                    <g transform="matrix(1,0,0,1,-101.982,-82.0054)">
                        <circle cx="122.959" cy="132.898" r="12.204" style="fill:rgb(251,193,159);stroke:rgb(168,92,77);stroke-width:0.53px;"/>
                    </g>
                    <g transform="matrix(0.497418,0,0,0.497418,-40.1845,-15.2132)">
                        <circle cx="122.959" cy="132.898" r="12.204" style="fill:rgb(224,155,121);"/>
                    </g>
                </g>
            </g>
            <g transform="matrix(1,0,0,1.00643,-100.224,-101.036)">
                <path d="M169.983,72.853C217.786,72.853 217.786,108.288 217.786,132.531C217.786,171.258 196.366,181.023 169.983,181.023C143.6,181.023 122.181,171.258 122.181,132.531C122.181,108.288 122.181,72.853 169.983,72.853Z" style="fill:rgb(224,155,121);"/>
                <clipPath id="_clip3">
                    <path d="M169.983,72.853C217.786,72.853 217.786,108.288 217.786,132.531C217.786,171.258 196.366,181.023 169.983,181.023C143.6,181.023 122.181,171.258 122.181,132.531C122.181,108.288 122.181,72.853 169.983,72.853Z"/>
                </clipPath>
                <g clip-path="url(#_clip3)">
                    <g transform="matrix(1,0,0,1,62.0546,19.4394)">
                        <rect x="50.041" y="43.786" width="57.94" height="121.023" style="fill:rgb(255,242,227);"/>
                    </g>
                </g>
                <path d="M169.983,72.853C217.786,72.853 217.786,108.288 217.786,132.531C217.786,171.258 196.366,181.023 169.983,181.023C143.6,181.023 122.181,171.258 122.181,132.531C122.181,108.288 122.181,72.853 169.983,72.853Z" style="fill:none;stroke:rgb(168,92,77);stroke-width:0.52px;"/>
            </g>
            <g transform="matrix(0.891688,0,0,1.00357,-81.8126,-100.827)">
                <path d="M169.983,72.853C217.786,72.853 217.786,108.288 217.786,132.531C217.786,171.258 196.366,181.023 169.983,181.023C143.6,181.023 122.181,171.258 122.181,132.531C122.181,108.288 122.181,72.853 169.983,72.853Z" style="fill:rgb(251,193,159);"/>
            </g>
            <g transform="matrix(0.998441,0.0558106,-0.0558106,0.998441,-189.143,-92.9488)">
                <path d="M234.364,74.173C234.364,74.173 256.264,104.017 308.39,104.017C309.071,104.017 309.623,103.465 309.623,102.784C309.623,102.104 309.071,101.552 308.39,101.552C257.71,101.552 236.349,72.71 236.349,72.71C235.945,72.163 235.173,72.046 234.625,72.45C234.077,72.853 233.961,73.626 234.364,74.173Z" style="fill:rgb(224,155,121);"/>
            </g>
            <g transform="matrix(-1.54994,-0.415304,-0.269635,1.00629,490.694,-3.75086)">
                <path d="M246.347,91.141C260.646,91.141 277.13,93.327 277.13,103.845C282.452,120.779 278.161,138.472 275.874,140.177C275.252,103.07 264.938,114.171 262.07,116.097C249.39,124.614 228.495,119.333 222.047,113.521C220.835,112.429 232.048,91.141 246.347,91.141Z" style="fill:rgb(224,155,121);"/>
            </g>
            <g transform="matrix(1,0,0,1,-192.801,-78.4282)">
                <path d="M232.614,77.356C232.614,77.356 242.953,96.89 269.641,108.127C270.268,108.391 270.992,108.097 271.256,107.47C271.52,106.843 271.225,106.119 270.598,105.855C244.825,95.004 234.791,76.199 234.791,76.199C234.472,75.598 233.725,75.37 233.124,75.689C232.524,76.008 232.295,76.755 232.614,77.356Z" style="fill:rgb(224,155,121);"/>
            </g>
            <g transform="matrix(-0.997895,0.0648445,0.0648445,0.997895,278.833,-102.481)">
                <path d="M241.084,76.034C241.084,76.034 248.659,82.658 253.685,108.797C253.813,109.465 253.375,110.112 252.707,110.24C252.039,110.369 251.392,109.93 251.264,109.262C246.462,84.285 239.442,77.873 239.442,77.873C238.935,77.42 238.891,76.64 239.344,76.132C239.797,75.625 240.577,75.581 241.084,76.034Z" style="fill:rgb(224,155,121);"/>
            </g>
            <g transform="matrix(1,0,0,1,-147.128,-3.18453)">
                <g transform="matrix(0.845613,0.226581,-0.258819,0.965926,-100.805,-164.17)">
                    <ellipse cx="387.524" cy="139.779" rx="8.305" ry="5.623" style="fill:rgb(245,148,184);fill-opacity:0.49;"/>
                </g>
                <g transform="matrix(0.845613,-0.226581,0.258819,0.965926,-120.811,11.4411)">
                    <ellipse cx="387.524" cy="139.779" rx="8.305" ry="5.623" style="fill:rgb(245,148,184);fill-opacity:0.49;"/>
                </g>
            </g>
            <g transform="matrix(1.07613,0,0,1.07613,-522.976,0.505815)">
                <g transform="matrix(0.955486,0,0,0.955486,-168.706,-76.141)">
                    <circle cx="728.006" cy="112.022" r="20.565" style="fill:none;stroke:rgb(224,155,121);stroke-width:1.13px;"/>
                </g>
                <g transform="matrix(1,0,0,1,-195.777,-81.1275)">
                    <path d="M742.32,112.022L751.478,112.022" style="fill:none;stroke:rgb(224,155,121);stroke-width:1.08px;"/>
                </g>
                <g transform="matrix(0.955486,0,0,0.955486,-120.002,-76.141)">
                    <circle cx="728.006" cy="112.022" r="20.565" style="fill:none;stroke:rgb(224,155,121);stroke-width:1.13px;"/>
                </g>
            </g>
            <g transform="matrix(1,0,0,-1,0,147.529)">
                <g transform="matrix(0.858289,0,0,0.858289,-147.317,-53.6087)">
                    <circle cx="252.918" cy="150.795" r="1.395" style="fill:rgb(193,115,89);"/>
                </g>
                <g transform="matrix(0.858289,0,0,0.858289,-167.353,-55.7452)">
                    <circle cx="252.918" cy="150.795" r="1.395" style="fill:rgb(193,115,89);"/>
                </g>
                <g transform="matrix(0.858289,0,0,0.858289,-137.473,-57.7131)">
                    <circle cx="252.918" cy="150.795" r="1.395" style="fill:rgb(193,115,89);"/>
                </g>
                <g transform="matrix(0.858289,0,0,0.858289,-156.008,-57.7131)">
                    <circle cx="252.918" cy="150.795" r="1.395" style="fill:rgb(193,115,89);"/>
                </g>
                <g transform="matrix(0.858289,0,0,0.858289,-127.461,-55.7452)">
                    <circle cx="252.918" cy="150.795" r="1.395" style="fill:rgb(193,115,89);"/>
                </g>
            </g>
            <g transform="matrix(1,0,0,0.937403,96.2777,-18.4765)">
                <g transform="matrix(0.997359,0.0726228,0.0785497,-1.07876,-452.451,113.663)">
                    <path d="M373.988,71.499C374.683,87.695 376.761,102.953 382.894,115.46L366.79,107.022L373.988,71.499Z" style="fill:rgb(181,116,87);"/>
                </g>
                <g transform="matrix(-0.869168,0.0632885,-0.0880701,-1.2095,351.296,126.586)">
                    <path d="M373.988,71.499C373.498,82.016 374.421,92.541 377.777,103.081C379.09,107.205 402.849,112.72 404.968,116.849C403.729,125.759 375.15,132.247 366.46,108.652L373.988,71.499Z" style="fill:rgb(181,116,87);"/>
                </g>
            </g>
            <g transform="matrix(0.9124,0,0,0.9124,-127.098,0.937184)">
                <g transform="matrix(1,2.77556e-17,-2.77556e-17,1,2.19202,-7.10543e-14)">
                    <g transform="matrix(1,1.04616e-17,7.60616e-18,1.0011,-195.777,-81.2534)">
                        <circle cx="386.649" cy="114.577" r="13.028" style="fill:white;"/>
                    </g>
                    <g transform="matrix(0.226536,0,0,0.226536,103.282,7.49353)">
                        <circle cx="386.649" cy="114.577" r="13.028" style="fill:rgb(33,37,41);"/>
                    </g>
                </g>
                <g transform="matrix(1,-2.77556e-17,2.77556e-17,1,47.5787,-2.84217e-14)">
                    <g transform="matrix(1.0011,-1.04311e-17,-7.58399e-18,1.0011,-196.201,-81.2534)">
                        <circle cx="386.649" cy="114.577" r="13.028" style="fill:white;"/>
                        <clipPath id="_clip4">
                            <circle cx="386.649" cy="114.577" r="13.028"/>
                        </clipPath>
                        <g clip-path="url(#_clip4)">
                            <g transform="matrix(1.0931,0.0611019,-0.0611019,1.0931,80.5324,-21.6228)">
                                <path d="M234.364,74.173C234.364,74.173 256.264,104.017 308.39,104.017C309.071,104.017 309.623,103.465 309.623,102.784C309.623,102.104 309.071,101.552 308.39,101.552C257.71,101.552 236.349,72.71 236.349,72.71C235.945,72.163 235.173,72.046 234.625,72.45C234.077,72.853 233.961,73.626 234.364,74.173Z" style="fill:rgb(224,155,121);fill-opacity:0.47;"/>
                            </g>
                        </g>
                    </g>
                    <g transform="matrix(0.226536,0,0,0.226536,103.282,7.49353)">
                        <circle cx="386.649" cy="114.577" r="13.028" style="fill:rgb(33,37,41);"/>
                    </g>
                </g>
            </g>
            <g transform="matrix(1,0,0,1,-153.411,3.8151)">
                <g transform="matrix(1,0,0,1,-199.188,-80.7042)">
                    <path d="M393.086,92.531C398.853,89.696 403.711,89.397 408.377,89.609C409.342,89.653 410.161,88.905 410.205,87.94C410.249,86.975 409.501,86.156 408.536,86.112C403.348,85.877 397.953,86.238 391.542,89.389C390.675,89.816 390.317,90.866 390.743,91.732C391.17,92.599 392.219,92.957 393.086,92.531Z" style="fill:rgb(178,110,81);"/>
                </g>
                <g transform="matrix(-1,0,0,1,647.85,-80.7042)">
                    <path d="M391.542,89.389C397.953,86.238 403.348,85.877 408.536,86.112C409.501,86.156 410.249,86.975 410.205,87.94C410.161,88.905 409.342,89.653 408.377,89.609C403.711,89.397 398.853,89.696 393.086,92.531C392.219,92.957 391.17,92.599 390.743,91.732C390.317,90.866 390.675,89.816 391.542,89.389Z" style="fill:rgb(178,110,81);"/>
                </g>
            </g>
            <g transform="matrix(1,0,0,1,-341.708,-80.9182)">
                <path d="M417.196,128.292C417.31,128.107 417.533,128.02 417.743,128.079C417.952,128.139 418.096,128.33 418.096,128.547C418.117,128.548 418.117,128.549 418.117,128.549C418.117,131.537 415.137,133.962 411.468,133.962C407.798,133.962 404.819,131.537 404.819,128.549C404.819,128.549 404.819,128.548 404.819,128.547C404.82,128.321 404.97,128.122 405.188,128.061C405.406,127.999 405.638,128.089 405.757,128.281C406.897,129.887 409.03,130.957 411.468,130.957C413.906,130.957 416.039,129.887 417.196,128.292Z" style="fill:rgb(224,155,121);"/>
            </g>
            <g transform="matrix(-1.54994,-0.415304,-0.269635,1.00629,490.694,-3.75086)">
                <path d="M248.668,74.833C262.966,74.833 280.26,94.619 280.26,105.137C285.582,122.071 278.161,138.472 275.874,140.177C275.252,103.07 264.938,114.171 262.07,116.097C247.007,126.214 220.748,113.074 220.489,106.49C220.075,95.981 234.369,74.833 248.668,74.833Z" style="fill:rgb(181,116,87);"/>
            </g>
            <g id="hairShine" transform="matrix(0.653913,0.13336,-0.13336,0.653913,-343.497,-424.578)">
                <path d="M686.165,472.197C678.115,488.291 697.632,477.604 708.161,478.241C716.504,478.746 730.906,486.817 740.155,483.872C762.808,476.66 774.038,474.37 762.599,456.608C778.801,461.781 785.395,469.941 790.844,480.011C775.102,472.041 765.441,493.532 742.737,496.532C730.663,498.128 715.473,488.646 704.586,488.534C692.683,488.411 668.902,495.811 656.547,511.956C654.251,496.249 669.963,477.369 686.165,472.197Z" style="fill:rgb(205,139,103);fill-rule:nonzero;"/>
            </g>
            <g transform="matrix(1.17034,2.08601e-17,-2.08601e-17,-1,-236.908,203.164)">
                <path d="M270.512,145.395C271.324,145.395 272.081,144.986 272.526,144.307C272.97,143.628 273.042,142.77 272.717,142.026C270.959,137.981 266.936,135.184 262.31,135.184C257.684,135.184 253.661,137.981 251.931,142.038C251.61,142.773 251.681,143.62 252.12,144.29C252.558,144.961 253.306,145.365 254.108,145.365C258.403,145.395 266.217,145.395 270.512,145.395Z" style="fill:rgb(168,92,77);"/>
                <clipPath id="_clip5">
                    <path d="M270.512,145.395C271.324,145.395 272.081,144.986 272.526,144.307C272.97,143.628 273.042,142.77 272.717,142.026C270.959,137.981 266.936,135.184 262.31,135.184C257.684,135.184 253.661,137.981 251.931,142.038C251.61,142.773 251.681,143.62 252.12,144.29C252.558,144.961 253.306,145.365 254.108,145.365C258.403,145.395 266.217,145.395 270.512,145.395Z"/>
                </clipPath>
                <g clip-path="url(#_clip5)">
                    <g transform="matrix(0.789164,2.51385e-17,-2.51385e-17,-0.583892,55.3076,219.205)">
                        <path d="M270.512,145.395C271.324,145.395 272.081,144.986 272.526,144.307C272.97,143.628 273.042,142.77 272.717,142.026C270.959,137.981 266.936,135.184 262.31,135.184C257.684,135.184 253.661,137.981 251.931,142.038C251.61,142.773 251.681,143.62 252.12,144.29C252.558,144.961 253.306,145.365 254.108,145.365C258.403,145.395 266.217,145.395 270.512,145.395Z" style="fill:rgb(232,149,159);"/>
                    </g>
                    <g transform="matrix(0.833809,-4.24806e-17,-4.24806e-17,0.486929,43.5575,75.3195)">
                        <path d="M270.512,145.395C271.324,145.395 272.081,144.986 272.526,144.307C272.97,143.628 273.042,142.77 272.717,142.026C270.959,137.981 266.936,135.184 262.31,135.184C257.684,135.184 253.661,137.981 251.931,142.038C251.61,142.773 251.681,143.62 252.12,144.29C252.558,144.961 253.306,145.365 254.108,145.365C258.403,145.395 266.217,145.395 270.512,145.395Z" style="fill:rgb(255,255,248);"/>
                    </g>
                </g>
            </g>
            <g transform="matrix(1,0,0,1,-196.134,-80.9519)">
                <path d="M234.364,74.173C234.364,74.173 256.264,104.017 308.39,104.017C309.071,104.017 309.623,103.465 309.623,102.784C309.623,102.104 309.071,101.552 308.39,101.552C257.71,101.552 236.349,72.71 236.349,72.71C235.945,72.163 235.173,72.046 234.625,72.45C234.077,72.853 233.961,73.626 234.364,74.173Z" style="fill:rgb(181,116,87);"/>
            </g>
            <g transform="matrix(1,0,0,1,-197.18,-85.8808)">
                <path d="M232.614,77.356C232.614,77.356 242.953,96.89 269.641,108.127C270.268,108.391 270.992,108.097 271.256,107.47C271.52,106.843 271.225,106.119 270.598,105.855C244.825,95.004 234.791,76.199 234.791,76.199C234.472,75.598 233.725,75.37 233.124,75.689C232.524,76.008 232.295,76.755 232.614,77.356Z" style="fill:rgb(181,116,87);"/>
            </g>
            <g transform="matrix(-0.973174,-0.230071,-0.230071,0.973174,301.48,-33.918)">
                <path d="M241.084,76.034C241.084,76.034 248.659,82.658 253.685,108.797C253.813,109.465 253.375,110.112 252.707,110.24C252.039,110.369 251.392,109.93 251.264,109.262C246.462,84.285 239.442,77.873 239.442,77.873C238.935,77.42 238.891,76.64 239.344,76.132C239.797,75.625 240.577,75.581 241.084,76.034Z" style="fill:rgb(181,116,87);"/>
            </g>
            <g transform="matrix(1.07613,0,0,1.07613,-522.976,-1.51903)">
                <g transform="matrix(0.955486,0,0,0.955486,-168.706,-76.141)">
                    <circle cx="728.006" cy="112.022" r="20.565" style="fill:none;stroke:rgb(73,80,87);stroke-width:0.45px;"/>
                </g>
                <g transform="matrix(1,0,0,1,-195.777,-81.1275)">
                    <path d="M742.32,112.022L751.478,112.022" style="fill:none;stroke:rgb(73,80,87);stroke-width:0.43px;"/>
                </g>
                <g transform="matrix(0.955486,0,0,0.955486,-120.002,-76.141)">
                    <circle cx="728.006" cy="112.022" r="20.565" style="fill:none;stroke:rgb(73,80,87);stroke-width:0.45px;"/>
                </g>
            </g>
        </g>
    </g>
</svg>
