<?xml version="1.0" encoding="UTF-8" standalone="no"?>
<!DOCTYPE svg PUBLIC "-//W3C//DTD SVG 1.1//EN" "http://www.w3.org/Graphics/SVG/1.1/DTD/svg11.dtd">
<svg width="100%" height="100%" viewBox="0 0 512 512" version="1.1" xmlns="http://www.w3.org/2000/svg" xmlns:xlink="http://www.w3.org/1999/xlink" xml:space="preserve" xmlns:serif="http://www.serif.com/" style="fill-rule:evenodd;clip-rule:evenodd;stroke-linecap:round;stroke-linejoin:round;stroke-miterlimit:1.5;">
    <g id="Boy-1" serif:id="Boy 1" transform="matrix(2.53529,0,0,2.53529,-313.013,144.614)">
        <g>
            <g transform="matrix(0.92528,0,0,0.801685,66.1867,-59.9589)">
                <path d="M207.473,225.556C207.473,202.342 191.143,183.494 171.03,183.494C150.916,183.494 134.587,202.342 134.587,225.556L134.587,255.547L207.473,255.547L207.473,225.556Z" style="fill:rgb(255,219,111);"/>
                <clipPath id="_clip1">
                    <path d="M207.473,225.556C207.473,202.342 191.143,183.494 171.03,183.494C150.916,183.494 134.587,202.342 134.587,225.556L134.587,255.547L207.473,255.547L207.473,225.556Z"/>
                </clipPath>
                <g clip-path="url(#_clip1)">
                    <g transform="matrix(0.814476,0,0,1.06461,83.2709,15.5182)">
                        <rect x="107.972" y="158.108" width="48.45" height="71.28" style="fill:rgb(235,134,57);fill-opacity:0.5;"/>
                    </g>
                </g>
                <path d="M207.473,225.556C207.473,202.342 191.143,183.494 171.03,183.494C150.916,183.494 134.587,202.342 134.587,225.556L134.587,255.547L207.473,255.547L207.473,225.556Z" style="fill:none;stroke:rgb(237,148,60);stroke-width:0.61px;"/>
            </g>
            <g transform="matrix(1.28795,0,0,1.67004,2.57143,-212.529)">
                <ellipse cx="172.461" cy="185.881" rx="15.377" ry="6.294" style="fill:rgb(238,168,70);"/>
            </g>
            <g transform="matrix(0.394433,0,0,0.394433,123.462,-57.0403)">
                <path d="M265.268,366.564C288.88,368.737 306.858,379.674 306.858,392.822C306.858,407.53 284.359,419.472 256.647,419.472L256.445,419.471L256.445,366.564L265.268,366.564Z" style="fill:rgb(235,134,57);fill-opacity:0.5;"/>
            </g>
            <g transform="matrix(0.860341,0,0,1,78.3838,-100.567)">
                <path d="M175.391,183.698C175.391,186.133 176.832,188.338 179.062,189.316C181.916,190.522 183.71,192.285 183.71,194.245C183.71,197.903 177.46,200.873 169.762,200.873C162.064,200.873 155.814,197.903 155.814,194.245C155.814,192.285 157.609,190.522 160.459,189.308C162.686,188.332 164.125,186.13 164.125,183.698C164.134,176.696 164.134,163.956 164.134,163.956L175.391,163.956L175.391,183.698Z" style="fill:rgb(193,115,89);"/>
                <clipPath id="_clip2">
                    <path d="M175.391,183.698C175.391,186.133 176.832,188.338 179.062,189.316C181.916,190.522 183.71,192.285 183.71,194.245C183.71,197.903 177.46,200.873 169.762,200.873C162.064,200.873 155.814,197.903 155.814,194.245C155.814,192.285 157.609,190.522 160.459,189.308C162.686,188.332 164.125,186.13 164.125,183.698C164.134,176.696 164.134,163.956 164.134,163.956L175.391,163.956L175.391,183.698Z"/>
                </clipPath>
                <g clip-path="url(#_clip2)">
                    <g transform="matrix(1.01866,0.27295,-0.258819,0.965926,48.5982,-39.2469)">
                        <rect x="159.572" y="177.268" width="18.851" height="7.881" style="fill:rgb(168,92,77);"/>
                    </g>
                    <g transform="matrix(4.32538e-16,2.67107,-2.0992,0.136351,558.624,-277.917)">
                        <rect x="159.572" y="177.268" width="18.851" height="7.881" style="fill:rgb(168,92,77);"/>
                    </g>
                </g>
                <path d="M175.391,183.698C175.391,186.133 176.832,188.338 179.062,189.316C181.916,190.522 183.71,192.285 183.71,194.245C183.71,197.903 177.46,200.873 169.762,200.873C162.064,200.873 155.814,197.903 155.814,194.245C155.814,192.285 157.609,190.522 160.459,189.308C162.686,188.332 164.125,186.13 164.125,183.698C164.134,176.696 164.134,163.956 164.134,163.956L175.391,163.956L175.391,183.698Z" style="fill:none;stroke:rgb(118,63,51);stroke-width:0.56px;"/>
            </g>
        </g>
        <g>
            <g transform="matrix(1,0,0,1,-437.756,-77.5123)">
                <path d="M633.723,36.246L642.215,45.347L642.215,36.246L680.818,36.246L680.818,45.51L689.462,36.246L705.861,36.246C708.365,36.246 710.759,37.382 712.482,39.386C714.204,41.391 715.103,44.088 714.969,46.846C713.779,71.201 710.952,129.08 710.952,129.08L612.081,129.08C612.081,129.08 609.254,71.201 608.064,46.846C607.929,44.088 608.829,41.391 610.551,39.386C612.274,37.382 614.668,36.246 617.172,36.246L633.723,36.246Z" style="fill:rgb(66,49,46);"/>
            </g>
            <g transform="matrix(0.874985,0,0,1,-355.056,-81.9883)">
                <path d="M608.064,46.846C644.771,59.248 680.272,57.913 714.969,46.846L710.952,65.665C678.765,58.725 646.005,56.943 612.081,65.665L608.064,46.846Z" style="fill:rgb(96,59,53);"/>
            </g>
            <g transform="matrix(1,0,0,1,252.712,-14.4394)">
                <g transform="matrix(1,0,0,1,0,6.33468)">
                    <g transform="matrix(1,0,0,1,-101.982,-82.0054)">
                        <circle cx="122.959" cy="132.898" r="12.204" style="fill:rgb(193,115,89);stroke:rgb(118,63,51);stroke-width:0.53px;"/>
                    </g>
                    <g transform="matrix(0.497418,0,0,0.497418,-40.1845,-15.2132)">
                        <circle cx="122.959" cy="132.898" r="12.204" style="fill:rgb(168,92,77);"/>
                    </g>
                </g>
                <g transform="matrix(1,0,0,1,-98.5059,6.33468)">
                    <g transform="matrix(1,0,0,1,-101.982,-82.0054)">
                        <circle cx="122.959" cy="132.898" r="12.204" style="fill:rgb(193,115,89);stroke:rgb(118,63,51);stroke-width:0.53px;"/>
                    </g>
                    <g transform="matrix(0.497418,0,0,0.497418,-40.1845,-15.2132)">
                        <circle cx="122.959" cy="132.898" r="12.204" style="fill:rgb(168,92,77);"/>
                    </g>
                </g>
            </g>
            <g transform="matrix(1,0,0,1.00643,54.4538,-101.036)">
                <path d="M169.983,92.892C217.786,92.892 217.786,108.288 217.786,132.531C217.786,171.258 196.366,181.023 169.983,181.023C143.6,181.023 122.181,171.258 122.181,132.531C122.181,108.288 122.181,92.892 169.983,92.892Z" style="fill:rgb(168,92,77);"/>
                <clipPath id="_clip3">
                    <path d="M169.983,92.892C217.786,92.892 217.786,108.288 217.786,132.531C217.786,171.258 196.366,181.023 169.983,181.023C143.6,181.023 122.181,171.258 122.181,132.531C122.181,108.288 122.181,92.892 169.983,92.892Z"/>
                </clipPath>
                <g clip-path="url(#_clip3)">
                    <g transform="matrix(1,0,0,1,62.0546,19.4394)">
                        <rect x="50.041" y="43.786" width="57.94" height="121.023" style="fill:rgb(219,139,109);"/>
                    </g>
                </g>
                <path d="M169.983,92.892C217.786,92.892 217.786,108.288 217.786,132.531C217.786,171.258 196.366,181.023 169.983,181.023C143.6,181.023 122.181,171.258 122.181,132.531C122.181,108.288 122.181,92.892 169.983,92.892Z" style="fill:none;stroke:rgb(118,63,51);stroke-width:0.52px;"/>
            </g>
            <g transform="matrix(0.891688,0,0,1.00298,72.8649,-100.675)">
                <path d="M169.983,92.853C217.786,92.853 217.786,108.288 217.786,132.531C217.786,171.258 196.366,181.023 169.983,181.023C143.6,181.023 122.181,171.258 122.181,132.531C122.181,125.402 118.73,92.853 169.983,92.853Z" style="fill:rgb(193,115,89);"/>
            </g>
            <g transform="matrix(0.9124,0,0,0.9124,27.5796,0.937184)">
                <g transform="matrix(1,2.77556e-17,-2.77556e-17,1,2.19202,-7.10543e-14)">
                    <g transform="matrix(1,1.04616e-17,7.60616e-18,1.0011,-195.777,-81.2534)">
                        <circle cx="386.649" cy="114.577" r="13.028" style="fill:rgb(252,242,230);"/>
                    </g>
                    <g transform="matrix(1.09601,-3.04204e-17,3.04204e-17,1.09601,-246.993,-89.9438)">
                        <path d="M388.967,107.082C390.952,103.281 394.93,100.684 399.508,100.684C404.087,100.684 408.064,103.281 410.049,107.082L388.967,107.082Z" style="fill:rgb(219,139,109);"/>
                    </g>
                    <g transform="matrix(0.226536,1.39614e-33,-1.39614e-33,0.226536,107.754,6.58419)">
                        <circle cx="386.649" cy="114.577" r="13.028" style="fill:rgb(33,37,41);"/>
                    </g>
                </g>
                <g transform="matrix(1,-2.77556e-17,2.77556e-17,1,47.5787,-2.84217e-14)">
                    <g transform="matrix(1.0011,-1.04311e-17,-7.58399e-18,1.0011,-196.201,-81.2534)">
                        <circle cx="386.649" cy="114.577" r="13.028" style="fill:rgb(252,242,230);"/>
                    </g>
                    <g transform="matrix(1.09601,3.04204e-17,-3.04204e-17,1.09601,-247.011,-89.9438)">
                        <path d="M388.967,107.082C390.952,103.281 394.93,100.684 399.508,100.684C404.087,100.684 408.064,103.281 410.049,107.082L388.967,107.082Z" style="fill:rgb(219,139,109);"/>
                    </g>
                    <g transform="matrix(0.226536,-1.39614e-33,1.39614e-33,0.226536,107.754,6.58419)">
                        <circle cx="386.649" cy="114.577" r="13.028" style="fill:rgb(33,37,41);"/>
                    </g>
                </g>
            </g>
            <g transform="matrix(1,0,0,1,-0.192469,-0.084407)">
                <g transform="matrix(0.720166,0,0,0.604961,-85.5181,-47.5746)">
                    <path d="M393.242,93.634C398.945,90.831 403.75,90.542 408.364,90.752C409.705,90.812 410.834,89.566 410.885,87.97C410.936,86.375 409.889,85.03 408.549,84.969C403.31,84.732 397.862,85.103 391.386,88.286C390.147,88.896 389.556,90.589 390.068,92.065C390.58,93.541 392.002,94.244 393.242,93.634Z" style="fill:rgb(66,49,46);"/>
                </g>
                <g transform="matrix(-0.720166,0,0,0.604961,534.913,-47.5746)">
                    <path d="M391.386,88.286C397.862,85.103 403.31,84.732 408.549,84.969C409.889,85.03 410.936,86.375 410.885,87.97C410.834,89.566 409.705,90.812 408.364,90.752C403.75,90.542 398.945,90.831 393.242,93.634C392.002,94.244 390.58,93.541 390.068,92.065C389.556,90.589 390.147,88.896 391.386,88.286Z" style="fill:rgb(66,49,46);"/>
                </g>
            </g>
            <g transform="matrix(1,0,0,1,-195.777,-77.7546)">
                <ellipse cx="400.298" cy="124.355" rx="11.107" ry="5.125" style="fill:rgb(193,115,89);"/>
            </g>
            <g transform="matrix(1,0,0,1,-154.494,-77.7546)">
                <ellipse cx="400.298" cy="124.355" rx="11.107" ry="5.125" style="fill:rgb(193,115,89);"/>
            </g>
            <g transform="matrix(1.27278,0,0,1,-299.272,-79.8819)">
                <path d="M417.196,128.292C417.31,128.107 417.533,128.02 417.743,128.079C417.952,128.139 418.096,128.33 418.096,128.547C418.117,128.548 418.117,128.549 418.117,128.549C418.117,131.537 415.137,133.962 411.468,133.962C407.798,133.962 404.819,131.537 404.819,128.549C404.819,128.549 404.819,128.548 404.819,128.547C404.82,128.321 404.97,128.122 405.188,128.061C405.406,127.999 405.638,128.089 405.757,128.281C406.897,129.887 409.03,130.957 411.468,130.957C413.906,130.957 416.039,129.887 417.196,128.292Z" style="fill:rgb(168,92,77);"/>
            </g>
            <g transform="matrix(1,0,0,1,7.54959,-5.02346)">
                <g transform="matrix(0.875443,0,0,1,-148.542,-84.1481)">
                    <ellipse cx="387.524" cy="139.779" rx="8.305" ry="5.623" style="fill:rgb(193,95,114);"/>
                </g>
                <g transform="matrix(0.875443,0,0,1,-96.1937,-84.1481)">
                    <ellipse cx="387.524" cy="139.779" rx="8.305" ry="5.623" style="fill:rgb(193,95,114);"/>
                </g>
            </g>
            <g transform="matrix(1.31112,3.81008e-17,-3.81008e-17,-1,-325.329,237.138)">
                <path d="M414.21,160.142C415.244,158.19 417.273,156.969 419.482,156.969C421.691,156.969 423.72,158.19 424.754,160.142C425.868,162.244 426.939,164.265 427.712,165.725C427.904,166.089 427.861,166.532 427.602,166.852C427.344,167.171 426.919,167.305 426.524,167.193C424.64,166.644 421.922,166.011 419.482,166.011C417.042,166.011 414.324,166.644 412.439,167.187C412.046,167.3 411.623,167.166 411.366,166.848C411.109,166.531 411.066,166.09 411.258,165.729C412.025,164.265 413.096,162.244 414.21,160.142Z" style="fill:rgb(66,49,46);"/>
            </g>
            <g transform="matrix(1.61946,0,0,1.61946,-240.439,-168.594)">
                <path d="M276.959,141.715C278.923,142.893 280.882,143.708 282.83,144.189C284.242,144.539 285.648,144.707 287.055,144.707C288.461,144.707 289.868,144.54 291.28,144.19C293.229,143.706 295.187,142.888 297.151,141.715C297.376,141.576 297.445,141.279 297.305,141.054C297.166,140.829 296.869,140.759 296.644,140.899C294.798,142.091 292.951,142.958 291.092,143.472C289.749,143.844 288.402,144.041 287.054,144.044C285.706,144.046 284.357,143.857 283.014,143.487C281.155,142.975 279.312,142.102 277.469,140.9C277.244,140.76 276.948,140.828 276.807,141.053C276.666,141.277 276.735,141.574 276.959,141.715Z" style="fill:rgb(118,63,51);"/>
            </g>
            <g transform="matrix(0.866025,-0.5,0.779183,1.34959,-246.672,88.2577)">
                <circle cx="436.971" cy="140.453" r="1.527" style="fill:rgb(118,63,51);"/>
            </g>
            <g transform="matrix(-0.866025,-0.5,-0.779183,1.34959,695.669,88.4489)">
                <circle cx="436.971" cy="140.453" r="1.527" style="fill:rgb(118,63,51);"/>
            </g>
        </g>
    </g>
</svg>
