<?xml version="1.0" encoding="UTF-8" standalone="no"?>
<!DOCTYPE svg PUBLIC "-//W3C//DTD SVG 1.1//EN" "http://www.w3.org/Graphics/SVG/1.1/DTD/svg11.dtd">
<svg width="100%" height="100%" viewBox="0 0 512 512" version="1.1" xmlns="http://www.w3.org/2000/svg" xmlns:xlink="http://www.w3.org/1999/xlink" xml:space="preserve" xmlns:serif="http://www.serif.com/" style="fill-rule:evenodd;clip-rule:evenodd;stroke-linecap:round;stroke-linejoin:round;stroke-miterlimit:1.5;">
    <g id="Boy-4" serif:id="Boy 4" transform="matrix(2.53529,0,0,2.53529,332.317,95.3291)">
        <g transform="matrix(1,0,0,1,-3.83229,0)">
            <g transform="matrix(0.92528,0,0,0.801685,-184.52,-40.5195)">
                <path d="M207.473,225.556C207.473,202.342 191.143,183.494 171.03,183.494C150.916,183.494 134.587,202.342 134.587,225.556L134.587,255.547L207.473,255.547L207.473,225.556Z" style="fill:rgb(108,146,224);"/>
                <clipPath id="_clip1">
                    <path d="M207.473,225.556C207.473,202.342 191.143,183.494 171.03,183.494C150.916,183.494 134.587,202.342 134.587,225.556L134.587,255.547L207.473,255.547L207.473,225.556Z"/>
                </clipPath>
                <g clip-path="url(#_clip1)">
                    <g transform="matrix(0.814476,0,0,1.06461,83.2709,15.5182)">
                        <rect x="107.972" y="158.108" width="48.45" height="71.28" style="fill:rgb(62,112,214);fill-opacity:0.5;"/>
                    </g>
                </g>
                <path d="M207.473,225.556C207.473,202.342 191.143,183.494 171.03,183.494C150.916,183.494 134.587,202.342 134.587,225.556L134.587,255.547L207.473,255.547L207.473,225.556Z" style="fill:none;stroke:rgb(60,111,214);stroke-width:0.61px;"/>
            </g>
            <g transform="matrix(1.28795,0,0,1.67004,-248.135,-193.089)">
                <ellipse cx="172.461" cy="185.881" rx="15.377" ry="6.294" style="fill:rgb(80,126,218);"/>
            </g>
            <g transform="matrix(0.394433,0,0,0.394433,-127.244,-37.6009)">
                <path d="M265.268,366.564C288.88,368.737 306.858,379.674 306.858,392.822C306.858,407.53 284.359,419.472 256.647,419.472L256.445,419.471L256.445,366.564L265.268,366.564Z" style="fill:rgb(46,101,211);fill-opacity:0.5;"/>
            </g>
            <g transform="matrix(0.860341,0,0,1,-172.323,-81.1275)">
                <path d="M175.391,183.698C175.391,186.133 176.832,188.338 179.062,189.316C181.916,190.522 183.71,192.285 183.71,194.245C183.71,197.903 177.46,200.873 169.762,200.873C162.064,200.873 155.814,197.903 155.814,194.245C155.814,192.285 157.609,190.522 160.459,189.308C162.686,188.332 164.125,186.13 164.125,183.698C164.134,176.696 164.134,163.956 164.134,163.956L175.391,163.956L175.391,183.698Z" style="fill:rgb(253,221,196);"/>
                <clipPath id="_clip2">
                    <path d="M175.391,183.698C175.391,186.133 176.832,188.338 179.062,189.316C181.916,190.522 183.71,192.285 183.71,194.245C183.71,197.903 177.46,200.873 169.762,200.873C162.064,200.873 155.814,197.903 155.814,194.245C155.814,192.285 157.609,190.522 160.459,189.308C162.686,188.332 164.125,186.13 164.125,183.698C164.134,176.696 164.134,163.956 164.134,163.956L175.391,163.956L175.391,183.698Z"/>
                </clipPath>
                <g clip-path="url(#_clip2)">
                    <g transform="matrix(1.01866,0.27295,-0.258819,0.965926,48.5982,-39.2469)">
                        <rect x="159.572" y="177.268" width="18.851" height="7.881" style="fill:rgb(227,169,124);"/>
                    </g>
                    <g transform="matrix(4.32538e-16,2.67107,-2.0992,0.136351,558.624,-277.917)">
                        <rect x="159.572" y="177.268" width="18.851" height="7.881" style="fill:rgb(227,169,124);"/>
                    </g>
                </g>
                <path d="M175.391,183.698C175.391,186.133 176.832,188.338 179.062,189.316C181.916,190.522 183.71,192.285 183.71,194.245C183.71,197.903 177.46,200.873 169.762,200.873C162.064,200.873 155.814,197.903 155.814,194.245C155.814,192.285 157.609,190.522 160.459,189.308C162.686,188.332 164.125,186.13 164.125,183.698C164.134,176.696 164.134,163.956 164.134,163.956L175.391,163.956L175.391,183.698Z" style="fill:none;stroke:rgb(193,115,89);stroke-width:0.56px;"/>
            </g>
        </g>
        <g>
            <g transform="matrix(1.1592,0,0,1.06475,-223.315,-92.2889)">
                <path d="M169.983,72.853C227.985,72.853 217.786,108.288 217.786,132.531C217.786,156.774 196.366,176.456 169.983,176.456C143.6,176.456 122.092,160.051 122.092,135.808C122.092,111.565 110.594,72.853 169.983,72.853Z" style="fill:rgb(117,67,65);"/>
            </g>
            <g transform="matrix(1,0,0,1,-1.82653,5)">
                <g transform="matrix(1,0,0,1,0,6.33468)">
                    <g transform="matrix(1,0,0,1,-101.982,-82.0054)">
                        <circle cx="122.959" cy="132.898" r="12.204" style="fill:rgb(253,221,196);stroke:rgb(193,115,89);stroke-width:0.53px;"/>
                    </g>
                    <g transform="matrix(0.497418,0,0,0.497418,-40.1845,-15.2132)">
                        <circle cx="122.959" cy="132.898" r="12.204" style="fill:rgb(227,169,124);"/>
                    </g>
                </g>
                <g transform="matrix(1,0,0,1,-98.5059,6.33468)">
                    <g transform="matrix(1,0,0,1,-101.982,-82.0054)">
                        <circle cx="122.959" cy="132.898" r="12.204" style="fill:rgb(253,221,196);stroke:rgb(193,115,89);stroke-width:0.53px;"/>
                    </g>
                    <g transform="matrix(0.497418,0,0,0.497418,-40.1845,-15.2132)">
                        <circle cx="122.959" cy="132.898" r="12.204" style="fill:rgb(227,169,124);"/>
                    </g>
                </g>
            </g>
            <g transform="matrix(1,0,0,1.00643,-200.085,-81.5963)">
                <path d="M169.983,72.853C217.786,72.853 217.786,108.288 217.786,132.531C217.786,171.258 196.366,181.023 169.983,181.023C143.6,181.023 122.181,171.258 122.181,132.531C122.181,108.288 122.181,72.853 169.983,72.853Z" style="fill:rgb(227,169,124);"/>
                <clipPath id="_clip3">
                    <path d="M169.983,72.853C217.786,72.853 217.786,108.288 217.786,132.531C217.786,171.258 196.366,181.023 169.983,181.023C143.6,181.023 122.181,171.258 122.181,132.531C122.181,108.288 122.181,72.853 169.983,72.853Z"/>
                </clipPath>
                <g clip-path="url(#_clip3)">
                    <g transform="matrix(1,0,0,1,62.0546,19.4394)">
                        <rect x="50.041" y="43.786" width="57.94" height="121.023" style="fill:rgb(255,242,227);"/>
                    </g>
                </g>
                <path d="M169.983,72.853C217.786,72.853 217.786,108.288 217.786,132.531C217.786,171.258 196.366,181.023 169.983,181.023C143.6,181.023 122.181,171.258 122.181,132.531C122.181,108.288 122.181,72.853 169.983,72.853Z" style="fill:none;stroke:rgb(193,115,89);stroke-width:0.52px;"/>
            </g>
            <g transform="matrix(0.891688,0,0,1.00384,-181.674,-81.4075)">
                <path d="M169.983,72.853C217.786,72.853 217.786,108.288 217.786,132.531C217.786,171.258 196.366,181.023 169.983,181.023C143.6,181.023 122.181,171.258 122.181,132.531C122.181,108.288 122.181,72.853 169.983,72.853Z" style="fill:rgb(253,221,196);"/>
            </g>
            <g transform="matrix(1,0,0,1.0208,-442.292,-54.6995)">
                <path d="M367.799,59.706C361.693,58.02 458.522,74.897 456.561,77.377C444.304,92.877 422.658,98.329 405.093,98.478C404.253,98.462 403.551,97.833 403.442,97C403.334,96.166 403.851,95.379 404.659,95.147C416.725,91.872 423.462,84.855 423.462,84.855C404.192,88 383.675,87.65 367.799,82.903C356.055,79.391 367.799,59.706 367.799,59.706Z" style="fill:rgb(227,169,124);"/>
            </g>
            <g transform="matrix(1,0,0,1,-254.433,25.7709)">
                <g transform="matrix(1,0,0,1,-199.188,-80.7042)">
                    <path d="M393.086,92.531C398.853,89.696 403.711,89.397 408.377,89.609C409.342,89.653 410.161,88.905 410.205,87.94C410.249,86.975 409.501,86.156 408.536,86.112C403.348,85.877 397.953,86.238 391.542,89.389C390.675,89.816 390.317,90.866 390.743,91.732C391.17,92.599 392.219,92.957 393.086,92.531Z" style="fill:rgb(91,62,48);"/>
                </g>
                <g transform="matrix(-1,0,0,1,647.85,-80.7042)">
                    <path d="M391.542,89.389C397.953,86.238 403.348,85.877 408.536,86.112C409.501,86.156 410.249,86.975 410.205,87.94C410.161,88.905 409.342,89.653 408.377,89.609C403.711,89.397 398.853,89.696 393.086,92.531C392.219,92.957 391.17,92.599 390.743,91.732C390.317,90.866 390.675,89.816 391.542,89.389Z" style="fill:rgb(91,62,48);"/>
                </g>
            </g>
            <g transform="matrix(1,0,0,1.02359,-442.292,-63.5392)">
                <path d="M458.373,71.462C458.373,88.61 426.504,98.297 405.093,98.478C404.253,98.462 403.551,97.833 403.442,97C403.334,96.166 403.851,95.379 404.659,95.147C416.725,91.872 423.462,84.855 423.462,84.855C389.939,90.326 352.64,85.22 342.568,64.786C342.337,64.289 342.358,63.712 342.626,63.234C342.895,62.756 343.377,62.437 343.921,62.377C350.303,61.651 367.799,59.706 367.799,59.706C361.693,58.02 355.746,54.838 350.337,46.622C349.969,46.08 349.946,45.376 350.277,44.811C350.608,44.246 351.234,43.922 351.886,43.979C360.2,44.697 381.786,46.25 391.959,43.642C399.279,41.765 458.373,27.193 458.373,71.462Z" style="fill:rgb(117,67,65);"/>
            </g>
            <g id="HairShine" transform="matrix(2.74971,0,0,2.74971,-420.15,-101.888)">
                <path d="M157.5,44.05C156.022,37.142 142.894,40.255 143.1,43.15C136,42.717 130.3,40.317 126,35.95C128.867,38.517 132.767,40.017 137.7,40.45C142.6,40.85 142,39.35 135.9,35.95C141.1,37.617 144.7,38.517 146.7,38.65C147.434,38.683 148.1,38.617 148.7,38.45C149.333,38.317 149.784,38.1 150.05,37.8C150.35,37.467 150.367,37.067 150.1,36.6C149.867,36.133 149.333,35.617 148.5,35.05C147.667,34.483 147.4,34.233 147.7,34.3C147.967,34.334 148.567,34.567 149.5,35C150.467,35.467 151.35,35.95 152.15,36.45C153.117,37.017 153.7,37.45 153.9,37.75C154.5,38.517 154.2,37.317 153,34.15C156.167,36.417 157.667,39.717 157.5,44.05Z" style="fill:rgb(168,89,91);fill-rule:nonzero;"/>
            </g>
            <g transform="matrix(1,0,0,0.937403,-3.67065,0.962853)">
                <g transform="matrix(0.997359,0.0726228,0.0785497,-1.07876,-452.561,113.422)">
                    <path d="M373.988,71.499C374.683,87.695 376.761,102.953 382.894,115.46L370.031,121.73L365.081,115.46L373.988,71.499Z" style="fill:rgb(117,67,65);"/>
                </g>
                <g transform="matrix(-0.997359,0.0726228,-0.0785497,-1.07876,399.699,113.422)">
                    <path d="M373.988,71.499C373.307,86.131 375.359,100.78 382.894,115.46L376.848,122.189L365.081,115.46L373.988,71.499Z" style="fill:rgb(117,67,65);"/>
                </g>
            </g>
            <g transform="matrix(0.9124,0,0,0.9124,-226.959,20.3766)">
                <g transform="matrix(1,0,0,1,2.19202,0)">
                    <g transform="matrix(1,0,0,1,-195.777,-81.1275)">
                        <circle cx="386.649" cy="114.577" r="13.028" style="fill:white;"/>
                    </g>
                    <g transform="matrix(0.226536,0,0,0.226536,103.282,9.49814)">
                        <circle cx="386.649" cy="114.577" r="13.028" style="fill:rgb(33,37,41);"/>
                    </g>
                    <g transform="matrix(1,0,0,1,-195.777,-81.1275)">
                        <path d="M386.649,101.549C393.839,101.549 399.677,107.386 399.677,114.577L373.621,114.577C373.621,107.386 379.458,101.549 386.649,101.549Z" style="fill:rgb(251,190,144);"/>
                    </g>
                </g>
                <g transform="matrix(1,0,0,1,47.5787,0)">
                    <g transform="matrix(1,0,0,1,-195.777,-81.1275)">
                        <circle cx="386.649" cy="114.577" r="13.028" style="fill:white;"/>
                    </g>
                    <g transform="matrix(0.226536,0,0,0.226536,103.282,9.49814)">
                        <circle cx="386.649" cy="114.577" r="13.028" style="fill:rgb(33,37,41);"/>
                    </g>
                    <g transform="matrix(1,0,0,1,-195.777,-81.1275)">
                        <path d="M386.649,101.549C393.839,101.549 399.677,107.386 399.677,114.577L373.621,114.577C373.621,107.386 379.458,101.549 386.649,101.549Z" style="fill:rgb(251,190,144);"/>
                    </g>
                </g>
            </g>
            <g transform="matrix(1,0,0,1,-441.57,-60.4425)">
                <path d="M417.196,128.292C417.31,128.107 417.533,128.02 417.743,128.079C417.952,128.139 418.096,128.33 418.096,128.547C418.117,128.548 418.117,128.549 418.117,128.549C418.117,131.537 415.137,133.962 411.468,133.962C407.798,133.962 404.819,131.537 404.819,128.549C404.819,128.549 404.819,128.548 404.819,128.547C404.82,128.321 404.97,128.122 405.188,128.061C405.406,127.999 405.638,128.089 405.757,128.281C406.897,129.887 409.03,130.957 411.468,130.957C413.906,130.957 416.039,129.887 417.196,128.292Z" style="fill:rgb(229,169,135);"/>
            </g>
            <g transform="matrix(1,0,0,1,-246.989,16.2548)">
                <g transform="matrix(0.845613,0.226581,-0.258819,0.965926,-100.805,-164.17)">
                    <ellipse cx="387.524" cy="139.779" rx="8.305" ry="5.623" style="fill:rgb(241,189,178);"/>
                </g>
                <g transform="matrix(0.845613,-0.226581,0.258819,0.965926,-120.811,11.4411)">
                    <ellipse cx="387.524" cy="139.779" rx="8.305" ry="5.623" style="fill:rgb(241,189,178);"/>
                </g>
            </g>
            <g transform="matrix(0.984709,0,0,0.775567,-411.7,-25.9383)">
                <path d="M387.524,137.994C392.108,137.994 395.83,134.891 395.83,137.994C395.83,141.097 394,145.606 387.524,145.606C381.049,145.606 379.219,141.097 379.219,137.994C379.219,134.891 382.941,137.994 387.524,137.994Z" style="fill:rgb(168,92,77);"/>
                <clipPath id="_clip4">
                    <path d="M387.524,137.994C392.108,137.994 395.83,134.891 395.83,137.994C395.83,141.097 394,145.606 387.524,145.606C381.049,145.606 379.219,141.097 379.219,137.994C379.219,134.891 382.941,137.994 387.524,137.994Z"/>
                </clipPath>
                <g clip-path="url(#_clip4)">
                    <g transform="matrix(0.874995,-1.94289e-16,-8.32667e-17,0.736883,48.7981,43.3568)">
                        <ellipse cx="387.524" cy="139.779" rx="8.305" ry="5.623" style="fill:rgb(232,149,159);"/>
                    </g>
                </g>
            </g>
        </g>
    </g>
</svg>
