<?xml version="1.0" encoding="UTF-8" standalone="no"?>
<!DOCTYPE svg PUBLIC "-//W3C//DTD SVG 1.1//EN" "http://www.w3.org/Graphics/SVG/1.1/DTD/svg11.dtd">
<svg width="100%" height="100%" viewBox="0 0 512 512" version="1.1" xmlns="http://www.w3.org/2000/svg" xmlns:xlink="http://www.w3.org/1999/xlink" xml:space="preserve" xmlns:serif="http://www.serif.com/" style="fill-rule:evenodd;clip-rule:evenodd;stroke-linecap:round;stroke-linejoin:round;stroke-miterlimit:1.5;">
    <g id="Girl-2" serif:id="Girl 2" transform="matrix(2.53529,0,0,2.53529,-89.9438,-429.571)">
        <g transform="matrix(1,0,0,1,3.55283,0)">
            <g transform="matrix(0.92528,0,0,0.801685,-25.3517,166.518)">
                <path d="M207.473,225.556C207.473,202.342 191.143,183.494 171.03,183.494C150.916,183.494 134.587,202.342 134.587,225.556L134.587,255.547L207.473,255.547L207.473,225.556Z" style="fill:rgb(82,195,213);"/>
                <clipPath id="_clip1">
                    <path d="M207.473,225.556C207.473,202.342 191.143,183.494 171.03,183.494C150.916,183.494 134.587,202.342 134.587,225.556L134.587,255.547L207.473,255.547L207.473,225.556Z"/>
                </clipPath>
                <g clip-path="url(#_clip1)">
                    <g transform="matrix(0.814476,0,0,1.06461,83.2709,15.5182)">
                        <rect x="107.972" y="158.108" width="48.45" height="71.28" style="fill:rgb(54,157,171);fill-opacity:0.5;"/>
                    </g>
                </g>
                <path d="M207.473,225.556C207.473,202.342 191.143,183.494 171.03,183.494C150.916,183.494 134.587,202.342 134.587,225.556L134.587,255.547L207.473,255.547L207.473,225.556Z" style="fill:none;stroke:rgb(56,155,189);stroke-width:0.61px;"/>
            </g>
            <g transform="matrix(1.28795,0,0,1.67004,-88.9669,13.9486)">
                <ellipse cx="172.461" cy="185.881" rx="15.377" ry="6.294" style="fill:rgb(59,170,187);"/>
            </g>
            <g transform="matrix(0.394433,0,0,0.394433,31.9239,169.437)">
                <path d="M265.268,366.564C288.88,368.737 306.858,379.674 306.858,392.822C306.858,407.53 284.359,419.472 256.647,419.472L256.445,419.471L256.445,366.564L265.268,366.564Z" style="fill:rgb(49,144,157);fill-opacity:0.5;"/>
            </g>
            <g transform="matrix(0.860341,0,0,1,-13.1546,125.91)">
                <path d="M175.391,183.698C175.391,186.133 176.832,188.338 179.062,189.316C181.916,190.522 183.71,192.285 183.71,194.245C183.71,197.903 177.46,200.873 169.762,200.873C162.064,200.873 155.814,197.903 155.814,194.245C155.814,192.285 157.609,190.522 160.459,189.308C162.686,188.332 164.125,186.13 164.125,183.698C164.134,176.696 164.134,163.956 164.134,163.956L175.391,163.956L175.391,183.698Z" style="fill:rgb(252,203,174);"/>
                <clipPath id="_clip2">
                    <path d="M175.391,183.698C175.391,186.133 176.832,188.338 179.062,189.316C181.916,190.522 183.71,192.285 183.71,194.245C183.71,197.903 177.46,200.873 169.762,200.873C162.064,200.873 155.814,197.903 155.814,194.245C155.814,192.285 157.609,190.522 160.459,189.308C162.686,188.332 164.125,186.13 164.125,183.698C164.134,176.696 164.134,163.956 164.134,163.956L175.391,163.956L175.391,183.698Z"/>
                </clipPath>
                <g clip-path="url(#_clip2)">
                    <g transform="matrix(1.01866,0.27295,-0.258819,0.965926,48.5982,-39.2469)">
                        <rect x="159.572" y="177.268" width="18.851" height="7.881" style="fill:rgb(223,151,115);"/>
                    </g>
                    <g transform="matrix(4.32538e-16,2.67107,-2.0992,0.136351,558.624,-277.917)">
                        <rect x="159.572" y="177.268" width="18.851" height="7.881" style="fill:rgb(223,151,115);"/>
                    </g>
                </g>
                <path d="M175.391,183.698C175.391,186.133 176.832,188.338 179.062,189.316C181.916,190.522 183.71,192.285 183.71,194.245C183.71,197.903 177.46,200.873 169.762,200.873C162.064,200.873 155.814,197.903 155.814,194.245C155.814,192.285 157.609,190.522 160.459,189.308C162.686,188.332 164.125,186.13 164.125,183.698C164.134,176.696 164.134,163.956 164.134,163.956L175.391,163.956L175.391,183.698Z" style="fill:none;stroke:rgb(168,92,77);stroke-width:0.56px;"/>
            </g>
        </g>
        <g>
            <g transform="matrix(1.21741,0,0,1.01632,-70.4884,110.631)">
                <path d="M169.983,67.922C212.73,67.922 217.786,108.288 217.786,132.531C217.786,156.774 196.366,176.456 169.983,176.456C143.6,176.456 122.181,156.774 122.181,132.531C122.181,108.288 127.237,67.922 169.983,67.922Z" style="fill:rgb(227,154,194);"/>
            </g>
            <g>
                <g transform="matrix(1,0,0,1,-5.50697,15.9815)">
                    <g transform="matrix(0.707107,0.707107,-0.707107,0.707107,-18.7389,-308.88)">
                        <path d="M436.058,272.765C460.927,313.051 430.249,316.151 433.91,341.657C434.029,342.743 433.448,343.786 432.461,344.255C431.474,344.724 430.298,344.516 429.532,343.737C395.582,309.714 410.543,276.684 436.058,272.765Z" style="fill:rgb(227,154,194);"/>
                    </g>
                    <g transform="matrix(1,0,0,1,-195.777,-81.1275)">
                        <path d="M294.029,271.961C294.029,271.961 284.978,263.135 272.046,261.649C265.212,260.864 257.281,262.076 249.063,267.842C248.634,268.126 248.518,268.704 248.802,269.132C249.086,269.561 249.664,269.678 250.093,269.393C257.964,264.455 265.337,263.638 271.617,264.689C283.205,266.63 290.978,274.961 290.978,274.961C291.805,275.802 293.161,275.814 294.003,274.986C294.845,274.159 294.856,272.803 294.029,271.961Z" style="fill:rgb(227,154,194);"/>
                    </g>
                </g>
                <g transform="matrix(-1,0,0,1,278.41,15.9815)">
                    <g transform="matrix(0.707107,0.707107,-0.707107,0.707107,-18.7389,-308.88)">
                        <path d="M436.058,272.765C460.927,313.051 430.249,316.151 433.91,341.657C434.029,342.743 433.448,343.786 432.461,344.255C431.474,344.724 430.298,344.516 429.532,343.737C395.582,309.714 410.543,276.684 436.058,272.765Z" style="fill:rgb(227,154,194);"/>
                    </g>
                    <g transform="matrix(1,0,0,1,-195.777,-81.1275)">
                        <path d="M290.978,274.961C290.978,274.961 283.205,266.63 271.617,264.689C265.337,263.638 257.964,264.455 250.093,269.393C249.664,269.678 249.086,269.561 248.802,269.132C248.518,268.704 248.634,268.126 249.063,267.842C257.281,262.076 265.212,260.864 272.046,261.649C284.978,263.135 294.029,271.961 294.029,271.961C294.856,272.803 294.845,274.159 294.003,274.986C293.161,275.814 291.805,275.802 290.978,274.961Z" style="fill:rgb(227,154,194);"/>
                    </g>
                </g>
            </g>
            <g transform="matrix(0.914529,0,0,0.834095,-161.697,-29.1581)">
                <path d="M389.714,325.787C389.714,290.629 363.681,262.085 331.615,262.085L320.41,262.085C288.345,262.085 262.311,290.629 262.311,325.787C262.311,360.944 288.345,389.488 320.41,389.488L331.615,389.488C363.681,389.488 389.714,360.944 389.714,325.787Z" style="fill:none;stroke:rgb(136,88,132);stroke-width:6.67px;"/>
            </g>
            <g transform="matrix(1,0,0,1,161.174,212.038)">
                <g transform="matrix(1,0,0,1,0,6.33468)">
                    <g transform="matrix(1,0,0,1,-101.982,-82.0054)">
                        <circle cx="122.959" cy="132.898" r="12.204" style="fill:rgb(252,194,161);"/>
                    </g>
                    <g transform="matrix(0.497418,0,0,0.497418,-40.1845,-15.2132)">
                        <circle cx="122.959" cy="132.898" r="12.204" style="fill:rgb(227,165,132);"/>
                    </g>
                </g>
                <g transform="matrix(1,0,0,1,-98.5059,6.33468)">
                    <g transform="matrix(1,0,0,1,-101.982,-82.0054)">
                        <circle cx="122.959" cy="132.898" r="12.204" style="fill:rgb(252,194,161);"/>
                    </g>
                    <g transform="matrix(0.497418,0,0,0.497418,-40.1845,-15.2132)">
                        <circle cx="122.959" cy="132.898" r="12.204" style="fill:rgb(227,165,132);"/>
                    </g>
                </g>
            </g>
            <g transform="matrix(1,0,0,1.00643,-33.5318,125.442)">
                <path d="M169.983,72.853C217.786,72.853 217.786,108.288 217.786,132.531C217.786,171.258 196.366,181.023 169.983,181.023C143.6,181.023 122.181,171.258 122.181,132.531C122.181,108.288 122.181,72.853 169.983,72.853Z" style="fill:rgb(223,151,115);"/>
                <clipPath id="_clip3">
                    <path d="M169.983,72.853C217.786,72.853 217.786,108.288 217.786,132.531C217.786,171.258 196.366,181.023 169.983,181.023C143.6,181.023 122.181,171.258 122.181,132.531C122.181,108.288 122.181,72.853 169.983,72.853Z"/>
                </clipPath>
                <g clip-path="url(#_clip3)">
                    <g transform="matrix(1,0,0,1,62.0546,19.4394)">
                        <rect x="50.041" y="43.786" width="57.94" height="121.023" style="fill:rgb(255,242,227);"/>
                    </g>
                </g>
                <path d="M169.983,72.853C217.786,72.853 217.786,108.288 217.786,132.531C217.786,171.258 196.366,181.023 169.983,181.023C143.6,181.023 122.181,171.258 122.181,132.531C122.181,108.288 122.181,72.853 169.983,72.853Z" style="fill:none;stroke:rgb(168,92,77);stroke-width:0.52px;"/>
            </g>
            <g transform="matrix(0.891688,0,0,1.00388,-15.1206,125.628)">
                <path d="M169.983,72.853C217.786,72.853 217.786,108.288 217.786,132.531C217.786,171.258 196.366,181.023 169.983,181.023C143.6,181.023 122.181,171.258 122.181,132.531C122.181,108.288 122.181,72.853 169.983,72.853Z" style="fill:rgb(252,203,174);"/>
            </g>
            <g transform="matrix(-1.07469,0,0,0.904645,939.62,152.318)">
                <path d="M702.404,88.492C719.726,101.233 746.299,103.229 769.274,100.776L749.915,86.12C765.144,95.751 780.592,99.909 796.171,100.776C796.171,100.776 795.25,50.569 749.915,50.748C704.581,50.928 702.404,88.492 702.404,88.492Z" style="fill:rgb(223,151,115);"/>
            </g>
            <g transform="matrix(1,0,0,0.937403,163.417,208.001)">
                <g transform="matrix(0.997359,0.0726228,0.0785497,-1.07876,-456.872,115.496)">
                    <path d="M380.882,37.755C381.153,36.88 382.058,36.351 382.961,36.538C383.865,36.726 384.464,37.567 384.339,38.472C379.077,74.753 377.472,104.403 382.894,115.46L368.039,101.788C369.114,83.97 366.482,74.263 380.882,37.755Z" style="fill:rgb(227,154,194);"/>
                </g>
                <g transform="matrix(-0.997359,0.0726228,-0.0785497,-1.07876,403.039,115.462)">
                    <path d="M380.887,37.732C381.152,36.855 382.055,36.321 382.96,36.506C383.865,36.69 384.466,37.532 384.34,38.437C379.078,74.734 377.47,104.399 382.894,115.46L377.782,121.705L368.242,100.936C369.317,83.118 366.523,74.096 380.887,37.732Z" style="fill:rgb(227,154,194);"/>
                </g>
            </g>
            <g transform="matrix(0.9124,0,0,0.9124,-60.4124,227.414)">
                <g transform="matrix(1,2.77556e-17,-2.77556e-17,1,-1.09601,-7.10543e-14)">
                    <g transform="matrix(1,1.04616e-17,7.60616e-18,1.0011,-195.777,-81.2534)">
                        <circle cx="386.649" cy="114.577" r="13.028" style="fill:white;"/>
                    </g>
                    <g transform="matrix(0.226536,4.18841e-33,-4.18841e-33,0.226536,103.282,-0.721112)">
                        <circle cx="386.649" cy="114.577" r="13.028" style="fill:rgb(33,37,41);"/>
                    </g>
                </g>
                <g transform="matrix(1,-2.77556e-17,2.77556e-17,1,50.8667,-2.84217e-14)">
                    <g transform="matrix(1.0011,-1.04311e-17,-7.58399e-18,1.0011,-196.201,-81.2534)">
                        <circle cx="386.649" cy="114.577" r="13.028" style="fill:white;"/>
                    </g>
                    <g transform="matrix(0.226536,-4.18841e-33,4.18841e-33,0.226536,103.282,-0.721112)">
                        <circle cx="386.649" cy="114.577" r="13.028" style="fill:rgb(33,37,41);"/>
                    </g>
                </g>
            </g>
            <g transform="matrix(1,0,0,1,-275.016,138.543)">
                <path d="M417.196,128.292C417.31,128.107 417.533,128.02 417.743,128.079C417.952,128.139 418.096,128.33 418.096,128.547C418.117,128.548 418.117,128.549 418.117,128.549C418.117,131.537 415.137,133.962 411.468,133.962C407.798,133.962 404.819,131.537 404.819,128.549C404.819,128.549 404.819,128.548 404.819,128.547C404.82,128.321 404.97,128.122 405.188,128.061C405.406,127.999 405.638,128.089 405.757,128.281C406.897,129.887 409.03,130.957 411.468,130.957C413.906,130.957 416.039,129.887 417.196,128.292Z" style="fill:rgb(223,151,115);"/>
            </g>
            <g transform="matrix(1,0,0,1,-80.436,228.886)">
                <g transform="matrix(1.04176,0.279139,-0.318855,1.18998,-168.426,-220.783)">
                    <ellipse cx="387.524" cy="139.779" rx="8.305" ry="5.623" style="fill:rgb(255,177,161);"/>
                </g>
                <g transform="matrix(1.04176,-0.279139,0.318855,1.18998,-205.216,-4.43666)">
                    <ellipse cx="387.524" cy="139.779" rx="8.305" ry="5.623" style="fill:rgb(255,177,161);"/>
                </g>
            </g>
            <g transform="matrix(-1.07469,0,0,0.904645,939.62,147.816)">
                <path d="M702.404,88.492C719.726,101.233 746.299,103.229 769.274,100.776L749.915,86.12C765.144,95.751 780.592,99.909 796.171,100.776C796.171,100.776 795.25,50.569 749.915,50.748C704.581,50.928 702.404,88.492 702.404,88.492Z" style="fill:rgb(227,154,194);"/>
            </g>
            <g id="hairShine" transform="matrix(0.843441,0,1.20192e-16,0.95507,-477.118,-253.641)">
                <path d="M693.58,476.262C692.411,482.142 762.509,482.142 761.34,476.262C777.542,481.434 781.869,496.52 780.575,497.267C780.468,497.267 776.825,493.9 770.06,491.949C749.762,486.095 707.658,486.601 684.86,491.949C678.005,493.557 674.453,497.267 674.346,497.267C673.051,496.52 677.379,481.434 693.58,476.262Z" style="fill:rgb(255,198,220);fill-rule:nonzero;"/>
            </g>
            <g transform="matrix(1,0,0,1,3.94525,0)">
                <g transform="matrix(-0.177677,-1.34888,1.34888,-0.177677,-278.26,412.59)">
                    <g transform="matrix(5.79044e-17,0.945651,-0.945651,5.79044e-17,391.299,19.9967)">
                        <path d="M261.517,326.424C269.563,326.424 269.563,355.579 261.517,355.579C253.472,355.579 246.94,349.047 246.94,341.001C246.94,332.956 253.472,326.424 261.517,326.424Z" style="fill:rgb(246,245,223);stroke:rgb(231,187,153);stroke-width:0.41px;"/>
                    </g>
                    <g transform="matrix(3.84958e-17,0.628683,-0.935329,5.72724e-17,392.56,100.91)">
                        <path d="M278.011,331.544C278.011,329.666 275.742,328.14 272.946,328.14L268.553,328.14C265.758,328.14 263.489,329.666 263.489,331.544L263.489,360.679C263.489,362.557 265.758,364.083 268.553,364.083L272.946,364.083C275.742,364.083 278.011,362.557 278.011,360.679L278.011,331.544Z" style="fill:rgb(136,88,132);"/>
                    </g>
                </g>
                <g transform="matrix(0.177677,-1.34888,-1.34888,-0.177677,543.272,412.59)">
                    <g transform="matrix(5.79044e-17,0.945651,-0.945651,5.79044e-17,391.299,19.9967)">
                        <path d="M261.517,326.424C269.563,326.424 269.563,355.579 261.517,355.579C253.472,355.579 246.94,349.047 246.94,341.001C246.94,332.956 253.472,326.424 261.517,326.424Z" style="fill:rgb(246,245,223);stroke:rgb(231,187,153);stroke-width:0.41px;"/>
                    </g>
                    <g transform="matrix(3.84958e-17,0.628683,-0.935329,5.72724e-17,392.56,100.91)">
                        <path d="M278.011,331.544C278.011,329.666 275.742,328.14 272.946,328.14L268.553,328.14C265.758,328.14 263.489,329.666 263.489,331.544L263.489,360.679C263.489,362.557 265.758,364.083 268.553,364.083L272.946,364.083C275.742,364.083 278.011,362.557 278.011,360.679L278.011,331.544Z" style="fill:rgb(136,88,132);"/>
                    </g>
                </g>
            </g>
            <g transform="matrix(1,0,0,1,3.96562,10.7682)">
                <g transform="matrix(0.965926,0.258819,-0.258819,0.965926,74.9262,-25.8567)">
                    <g transform="matrix(1,0,0,1,-195.777,-81.1275)">
                        <circle cx="298.947" cy="358.162" r="1.115" style="fill:rgb(228,106,119);"/>
                    </g>
                    <g transform="matrix(1,0,0,1,-187.452,-81.1275)">
                        <circle cx="298.947" cy="358.162" r="1.115" style="fill:rgb(228,106,119);"/>
                    </g>
                    <g transform="matrix(1,0,0,1,-191.614,-76.989)">
                        <circle cx="298.947" cy="358.162" r="1.115" style="fill:rgb(228,106,119);"/>
                    </g>
                </g>
                <g transform="matrix(-0.965926,0.258819,0.258819,0.965926,190.046,-25.8567)">
                    <g transform="matrix(1,0,0,1,-195.777,-81.1275)">
                        <circle cx="298.947" cy="358.162" r="1.115" style="fill:rgb(228,106,119);"/>
                    </g>
                    <g transform="matrix(1,0,0,1,-187.452,-81.1275)">
                        <circle cx="298.947" cy="358.162" r="1.115" style="fill:rgb(228,106,119);"/>
                    </g>
                    <g transform="matrix(1,0,0,1,-191.614,-76.989)">
                        <circle cx="298.947" cy="358.162" r="1.115" style="fill:rgb(228,106,119);"/>
                    </g>
                </g>
            </g>
            <g transform="matrix(0.812398,0,0,0.812398,23.8864,177.091)">
                <ellipse cx="138.689" cy="136.776" rx="5.354" ry="5.966" style="fill:rgb(168,92,77);"/>
            </g>
            <g transform="matrix(0.812398,0,0,0.812398,23.8864,177.091)">
                <path d="M138.689,129.852C135.235,129.852 132.378,132.928 132.378,136.776C132.378,140.624 135.235,143.699 138.689,143.699C142.142,143.699 145,140.624 145,136.776C145,132.928 142.142,129.852 138.689,129.852ZM138.689,131.767C141.145,131.767 143.085,134.038 143.085,136.776C143.085,139.513 141.145,141.784 138.689,141.784C136.232,141.784 134.293,139.513 134.293,136.776C134.293,134.038 136.232,131.767 138.689,131.767Z" style="fill:rgb(255,107,107);"/>
            </g>
        </g>
    </g>
</svg>
