<?xml version="1.0" encoding="UTF-8" standalone="no"?>
<!DOCTYPE svg PUBLIC "-//W3C//DTD SVG 1.1//EN" "http://www.w3.org/Graphics/SVG/1.1/DTD/svg11.dtd">
<svg width="100%" height="100%" viewBox="0 0 512 512" version="1.1" xmlns="http://www.w3.org/2000/svg" xmlns:xlink="http://www.w3.org/1999/xlink" xml:space="preserve" xmlns:serif="http://www.serif.com/" style="fill-rule:evenodd;clip-rule:evenodd;stroke-linecap:round;stroke-linejoin:round;stroke-miterlimit:1.5;">
    <g id="Girl-3" serif:id="Girl 3" transform="matrix(2.53529,0,0,2.53529,-690.799,-429.571)">
        <g transform="matrix(1,0,0,1,-0.0328621,0)">
            <g transform="matrix(0.92528,0,0,0.801685,215.231,166.518)">
                <path d="M207.473,225.556C207.473,202.342 191.143,183.494 171.03,183.494C150.916,183.494 134.587,202.342 134.587,225.556L134.587,255.547L207.473,255.547L207.473,225.556Z" style="fill:rgb(35,177,164);"/>
                <clipPath id="_clip1">
                    <path d="M207.473,225.556C207.473,202.342 191.143,183.494 171.03,183.494C150.916,183.494 134.587,202.342 134.587,225.556L134.587,255.547L207.473,255.547L207.473,225.556Z"/>
                </clipPath>
                <g clip-path="url(#_clip1)">
                    <g transform="matrix(0.814476,0,0,1.06461,83.2709,15.5182)">
                        <rect x="107.972" y="158.108" width="48.45" height="71.28" style="fill:rgb(27,139,128);fill-opacity:0.5;"/>
                    </g>
                </g>
                <path d="M207.473,225.556C207.473,202.342 191.143,183.494 171.03,183.494C150.916,183.494 134.587,202.342 134.587,225.556L134.587,255.547L207.473,255.547L207.473,225.556Z" style="fill:none;stroke:rgb(27,135,122);stroke-width:0.61px;"/>
            </g>
            <g transform="matrix(1.28795,0,0,1.67004,151.615,13.9486)">
                <ellipse cx="172.461" cy="185.881" rx="15.377" ry="6.294" style="fill:rgb(30,154,142);"/>
            </g>
            <g transform="matrix(0.394433,0,0,0.394433,272.506,169.437)">
                <path d="M265.268,366.564C288.88,368.737 306.858,379.674 306.858,392.822C306.858,407.53 284.359,419.472 256.647,419.472L256.445,419.471L256.445,366.564L265.268,366.564Z" style="fill:rgb(25,128,118);fill-opacity:0.5;"/>
            </g>
            <g transform="matrix(0.860341,0,0,1,227.428,125.91)">
                <path d="M175.391,183.698C175.391,186.133 176.832,188.338 179.062,189.316C181.916,190.522 183.71,192.285 183.71,194.245C183.71,197.903 177.46,200.873 169.762,200.873C162.064,200.873 155.814,197.903 155.814,194.245C155.814,192.285 157.609,190.522 160.459,189.308C162.686,188.332 164.125,186.13 164.125,183.698C164.134,176.696 164.134,163.956 164.134,163.956L175.391,163.956L175.391,183.698Z" style="fill:rgb(253,208,181);"/>
                <clipPath id="_clip2">
                    <path d="M175.391,183.698C175.391,186.133 176.832,188.338 179.062,189.316C181.916,190.522 183.71,192.285 183.71,194.245C183.71,197.903 177.46,200.873 169.762,200.873C162.064,200.873 155.814,197.903 155.814,194.245C155.814,192.285 157.609,190.522 160.459,189.308C162.686,188.332 164.125,186.13 164.125,183.698C164.134,176.696 164.134,163.956 164.134,163.956L175.391,163.956L175.391,183.698Z"/>
                </clipPath>
                <g clip-path="url(#_clip2)">
                    <g transform="matrix(1.01866,0.27295,-0.258819,0.965926,48.5982,-39.2469)">
                        <rect x="159.572" y="177.268" width="18.851" height="7.881" style="fill:rgb(227,165,132);"/>
                    </g>
                    <g transform="matrix(4.32538e-16,2.67107,-2.0992,0.136351,558.624,-277.917)">
                        <rect x="159.572" y="177.268" width="18.851" height="7.881" style="fill:rgb(227,165,132);"/>
                    </g>
                </g>
                <path d="M175.391,183.698C175.391,186.133 176.832,188.338 179.062,189.316C181.916,190.522 183.71,192.285 183.71,194.245C183.71,197.903 177.46,200.873 169.762,200.873C162.064,200.873 155.814,197.903 155.814,194.245C155.814,192.285 157.609,190.522 160.459,189.308C162.686,188.332 164.125,186.13 164.125,183.698C164.134,176.696 164.134,163.956 164.134,163.956L175.391,163.956L175.391,183.698Z" style="fill:none;stroke:rgb(168,92,77);stroke-width:0.56px;"/>
            </g>
        </g>
        <g>
            <g>
                <g transform="matrix(-0.5,-0.866025,-0.866025,0.5,767.372,355.914)">
                    <g transform="matrix(1,0,0,1,-223.389,-69.1091)">
                        <path d="M515.979,266.213C536.795,266.213 539.001,280.153 539.001,292.859C539.001,299.076 526.334,298.013 514.288,297.795C503.367,297.598 492.957,298.849 492.957,292.859C492.957,280.153 495.163,266.213 515.979,266.213Z" style="fill:rgb(50,50,50);"/>
                    </g>
                    <g transform="matrix(1,4.44089e-16,4.44089e-16,-1,-168.762,509.215)">
                        <path d="M485.032,284.821C478.351,286.151 470.177,286.933 461.352,286.933C452.528,286.933 444.353,286.151 437.673,284.821L437.673,274.704C444.353,276.034 452.528,276.816 461.352,276.816C470.177,276.816 478.351,276.034 485.032,274.704L485.032,284.821Z" style="fill:rgb(35,177,164);"/>
                    </g>
                    <g id="hairShine" transform="matrix(0.320956,0,-2.77556e-16,0.51624,59.2689,-42.9028)">
                        <path d="M693.58,476.262C692.411,482.142 762.509,482.142 761.34,476.262C775.088,478.989 785.084,491.048 784.47,497.267C770.027,484.94 683.091,483.788 669.539,497.267C668.244,496.52 677.379,481.434 693.58,476.262Z" style="fill:rgb(79,78,88);fill-rule:nonzero;"/>
                    </g>
                </g>
                <g transform="matrix(0.5,-0.866025,0.866025,0.5,-20.4758,355.914)">
                    <g transform="matrix(1,0,0,1,-223.389,-69.1091)">
                        <path d="M515.979,266.213C536.795,266.213 539.001,280.153 539.001,292.859C539.001,299.076 526.334,298.013 514.288,297.795C503.367,297.598 492.957,298.849 492.957,292.859C492.957,280.153 495.163,266.213 515.979,266.213Z" style="fill:rgb(50,50,50);"/>
                    </g>
                    <g transform="matrix(1,4.44089e-16,4.44089e-16,-1,-168.762,509.215)">
                        <path d="M485.032,284.821C478.351,286.151 470.177,286.933 461.352,286.933C452.528,286.933 444.353,286.151 437.673,284.821L437.673,274.704C444.353,276.034 452.528,276.816 461.352,276.816C470.177,276.816 478.351,276.034 485.032,274.704L485.032,284.821Z" style="fill:rgb(35,177,164);"/>
                    </g>
                    <g id="hairShine1" serif:id="hairShine" transform="matrix(0.320956,0,-2.77556e-16,0.51624,59.2689,-42.9028)">
                        <path d="M693.58,476.262C692.411,482.142 762.509,482.142 761.34,476.262C775.088,478.989 785.084,491.048 784.47,497.267C770.027,484.94 683.091,483.788 669.539,497.267C668.244,496.52 677.379,481.434 693.58,476.262Z" style="fill:rgb(79,78,88);fill-rule:nonzero;"/>
                    </g>
                </g>
            </g>
            <g transform="matrix(1.32901,0,0,1.32901,-719.106,149.661)">
                <path d="M795.492,39.131C795.492,39.131 781.323,20.196 793.07,20.019C804.816,19.842 797.705,37.361 797.705,37.361C797.705,37.361 805.681,24.798 814.22,31.965C822.759,39.131 795.492,39.131 795.492,39.131Z" style="fill:none;stroke:rgb(35,177,164);stroke-width:1.76px;"/>
            </g>
            <g transform="matrix(-1.32901,0,0,1.32901,1465.93,150.297)">
                <path d="M795.492,39.131C795.492,39.131 781.323,20.196 793.07,20.019C804.816,19.842 797.705,37.361 797.705,37.361C797.705,37.361 805.681,24.798 814.22,31.965C822.759,39.131 795.492,39.131 795.492,39.131Z" style="fill:none;stroke:rgb(35,177,164);stroke-width:1.76px;"/>
            </g>
            <g transform="matrix(1.22892,0,0,1.04355,164.552,123.487)">
                <path d="M169.983,67.922C221.813,67.922 217.786,108.288 217.786,132.531C217.786,156.774 196.366,176.456 169.983,176.456C143.6,176.456 122.181,156.774 122.181,132.531C122.181,108.288 118.154,67.922 169.983,67.922Z" style="fill:rgb(50,50,50);"/>
            </g>
            <g transform="matrix(1,0,0,1,401.723,212.038)">
                <g transform="matrix(1,0,0,1,0,6.33468)">
                    <g transform="matrix(1,0,0,1,-101.982,-82.0054)">
                        <circle cx="122.959" cy="132.898" r="12.204" style="fill:rgb(252,194,161);"/>
                    </g>
                    <g transform="matrix(0.497418,0,0,0.497418,-40.1845,-15.2132)">
                        <circle cx="122.959" cy="132.898" r="12.204" style="fill:rgb(227,165,132);"/>
                    </g>
                </g>
                <g transform="matrix(1,0,0,1,-98.5059,6.33468)">
                    <g transform="matrix(1,0,0,1,-101.982,-82.0054)">
                        <circle cx="122.959" cy="132.898" r="12.204" style="fill:rgb(252,194,161);"/>
                    </g>
                    <g transform="matrix(0.497418,0,0,0.497418,-40.1845,-15.2132)">
                        <circle cx="122.959" cy="132.898" r="12.204" style="fill:rgb(227,165,132);"/>
                    </g>
                </g>
            </g>
            <g transform="matrix(1,0,0,1.00643,203.498,125.442)">
                <path d="M169.983,72.853C217.786,72.853 217.786,108.288 217.786,132.531C217.786,171.258 196.366,181.023 169.983,181.023C143.6,181.023 122.181,171.258 122.181,132.531C122.181,108.288 122.181,72.853 169.983,72.853Z" style="fill:rgb(227,165,132);"/>
                <clipPath id="_clip3">
                    <path d="M169.983,72.853C217.786,72.853 217.786,108.288 217.786,132.531C217.786,171.258 196.366,181.023 169.983,181.023C143.6,181.023 122.181,171.258 122.181,132.531C122.181,108.288 122.181,72.853 169.983,72.853Z"/>
                </clipPath>
                <g clip-path="url(#_clip3)">
                    <g transform="matrix(0.903102,0,0,1.011,66.9035,18.9579)">
                        <rect x="50.041" y="43.786" width="57.94" height="121.023" style="fill:rgb(255,242,227);"/>
                    </g>
                </g>
                <path d="M169.983,72.853C217.786,72.853 217.786,108.288 217.786,132.531C217.786,171.258 196.366,181.023 169.983,181.023C143.6,181.023 122.181,171.258 122.181,132.531C122.181,108.288 122.181,72.853 169.983,72.853Z" style="fill:none;stroke:rgb(168,92,77);stroke-width:0.52px;"/>
            </g>
            <g transform="matrix(0.891688,0,0,1.00384,221.909,125.631)">
                <path d="M169.983,72.853C217.786,72.853 217.786,108.288 217.786,132.531C217.786,171.258 196.366,181.023 169.983,181.023C143.6,181.023 122.181,171.258 122.181,132.531C122.181,108.288 122.181,72.853 169.983,72.853Z" style="fill:rgb(253,208,181);"/>
            </g>
            <g transform="matrix(1.04739,0,0,1.24003,-222.772,-160.958)">
                <path d="M613.009,327.35L524.395,327.35L524.395,336.837C554.051,333.409 583.588,333.435 613.009,336.837L613.009,327.35Z" style="fill:rgb(227,165,132);"/>
            </g>
            <g transform="matrix(1,0,0,0.937403,400.616,208.001)">
                <g transform="matrix(1,0,0,1,-2.84217e-14,-2.81087)">
                    <g transform="matrix(1,0,0,1.06678,-595.776,-308.435)">
                        <circle cx="516.135" cy="366.84" r="3.376" style="fill:rgb(35,177,164);"/>
                    </g>
                    <g transform="matrix(1,0,0,1.06678,-490.83,-308.435)">
                        <circle cx="516.135" cy="366.84" r="3.376" style="fill:rgb(35,177,164);"/>
                    </g>
                </g>
                <g transform="matrix(0.921788,0.0671201,0.0785497,-1.07876,-428.442,117.566)">
                    <path d="M380.882,37.755C381.153,36.88 382.058,36.351 382.961,36.538C383.865,36.726 384.464,37.567 384.339,38.472C379.077,74.753 377.472,104.403 382.894,115.46L368.039,101.788C369.114,83.97 366.482,74.263 380.882,37.755Z" style="fill:rgb(50,50,50);"/>
                </g>
                <g transform="matrix(-0.922585,0.0780675,-0.0667088,-1.07789,373.771,113.331)">
                    <path d="M380.887,37.732C381.152,36.855 382.055,36.321 382.96,36.506C383.865,36.69 384.466,37.532 384.34,38.437C379.078,74.734 377.47,104.399 382.894,115.46L377.782,121.705L368.242,100.936C369.317,83.118 366.523,74.096 380.887,37.732Z" style="fill:rgb(50,50,50);"/>
                </g>
            </g>
            <g transform="matrix(0.988753,0,0,1,-33.3919,144.825)">
                <path d="M417.196,128.292C417.31,128.107 417.533,128.02 417.743,128.079C417.952,128.139 418.096,128.33 418.096,128.547C418.117,128.548 418.117,128.549 418.117,128.549C418.117,131.537 415.137,133.962 411.468,133.962C407.798,133.962 404.819,131.537 404.819,128.549C404.819,128.549 404.819,128.548 404.819,128.547C404.82,128.321 404.97,128.122 405.188,128.061C405.406,127.999 405.638,128.089 405.757,128.281C406.897,129.887 409.03,130.957 411.468,130.957C413.906,130.957 416.039,129.887 417.196,128.292Z" style="fill:rgb(229,169,135);"/>
            </g>
            <g transform="matrix(1,0,0,1,156.561,218.81)">
                <g transform="matrix(1.04176,0.279139,-0.318855,1.18998,-168.426,-220.783)">
                    <ellipse cx="387.524" cy="139.779" rx="8.305" ry="5.623" style="fill:rgb(255,177,161);"/>
                </g>
                <g transform="matrix(1.04176,-0.279139,0.318855,1.18998,-205.216,-4.43666)">
                    <ellipse cx="387.524" cy="139.779" rx="8.305" ry="5.623" style="fill:rgb(255,177,161);"/>
                </g>
            </g>
            <g transform="matrix(1.08162,0,0,1.35033,-240.47,-174.829)">
                <path d="M517,314.867C521.403,299.097 526.432,275.786 568.017,275.786C609.603,275.786 614.632,299.097 619.035,314.867C585.476,311.112 551.474,311.03 517,314.867Z" style="fill:rgb(50,50,50);"/>
            </g>
            <g id="hairShine2" serif:id="hairShine" transform="matrix(0.843441,0,1.20192e-16,0.95507,-240.371,-251.11)">
                <path d="M693.58,476.262C692.411,482.142 762.509,482.142 761.34,476.262C777.542,481.434 781.869,496.52 780.575,497.267C780.468,497.267 776.825,493.9 770.06,491.949C749.762,486.095 707.658,486.601 684.86,491.949C678.005,493.557 674.453,497.267 674.346,497.267C673.051,496.52 677.379,481.434 693.58,476.262Z" style="fill:rgb(79,78,88);fill-rule:nonzero;"/>
            </g>
            <g transform="matrix(0.90808,0,0,0.644933,-142.834,51.8057)">
                <path d="M556.394,364.477C558.198,367.154 560.658,368.957 563.376,369.935C565.037,370.533 566.788,370.827 568.542,370.832C569.853,370.835 571.162,370.691 572.434,370.368C575.658,369.551 578.616,367.587 580.691,364.477C581.16,363.728 581.109,362.584 580.577,361.923C580.045,361.263 579.232,361.335 578.763,362.083C577.139,364.848 574.712,366.707 572.028,367.577C570.896,367.944 569.72,368.152 568.542,368.155C566.97,368.159 565.395,367.826 563.926,367.187C561.686,366.213 559.71,364.47 558.322,362.083C557.853,361.335 557.04,361.263 556.508,361.923C555.976,362.584 555.925,363.728 556.394,364.477Z" style="fill:rgb(183,101,88);"/>
            </g>
            <g transform="matrix(1,0,0,1,0.874777,0)">
                <g transform="matrix(0.314423,0.0842495,-0.0842495,0.314423,215.3,146.686)">
                    <g transform="matrix(0.719163,0.290056,-0.290056,0.719163,-1414.67,-1037.14)">
                        <path d="M2850.39,610.793C2845.19,610.94 2840.75,610.939 2840.75,610.939C2837.52,610.939 2834.89,608.314 2834.89,605.08C2834.89,601.845 2837.52,599.22 2840.75,599.22C2840.75,599.22 2845.06,599.219 2850.09,599.077L2850.26,599.074C2858.28,599.074 2866.03,596.161 2871.99,590.944C2881.03,582.73 2889.17,578.121 2898.32,576.427C2907.25,574.773 2917.26,575.943 2930.33,579.848C2933.43,580.774 2935.19,584.041 2934.27,587.14C2933.34,590.239 2930.07,592.003 2926.97,591.078C2916.13,587.838 2907.86,586.579 2900.45,587.951C2893.25,589.284 2886.98,593.156 2879.79,599.691C2871.65,606.819 2861.21,610.762 2850.39,610.793Z" style="fill:rgb(51,51,51);"/>
                    </g>
                    <g transform="matrix(-0.683642,0.240422,0.240422,0.683642,2454.34,-808.939)">
                        <path d="M3084.54,446.35C3075.3,447.271 3062.68,447.258 3052.1,446.123C3049.8,445.877 3048.14,443.815 3048.39,441.521C3048.63,439.227 3050.69,437.564 3052.99,437.81C3063.01,438.885 3074.96,438.902 3083.71,438.031C3086.01,437.802 3088.06,439.48 3088.28,441.776C3088.51,444.072 3086.84,446.122 3084.54,446.35Z" style="fill:rgb(51,51,51);"/>
                    </g>
                </g>
                <g transform="matrix(-0.314423,0.0842495,0.0842495,0.314423,529.847,146.686)">
                    <g transform="matrix(0.719163,0.290056,-0.290056,0.719163,-1414.67,-1037.14)">
                        <path d="M2850.39,610.793C2861.21,610.762 2871.65,606.819 2879.86,599.621C2886.98,593.156 2893.25,589.284 2900.45,587.951C2907.86,586.579 2916.13,587.838 2926.97,591.078C2930.07,592.003 2933.34,590.239 2934.27,587.14C2935.19,584.041 2933.43,580.774 2930.33,579.848C2917.26,575.943 2907.25,574.773 2898.32,576.427C2889.17,578.121 2881.03,582.73 2872.06,590.875C2866.03,596.161 2858.28,599.074 2850.26,599.074L2850.09,599.077C2845.06,599.219 2840.75,599.22 2840.75,599.22C2837.52,599.22 2834.89,601.845 2834.89,605.08C2834.89,608.314 2837.52,610.939 2840.75,610.939C2840.75,610.939 2845.19,610.94 2850.39,610.793Z" style="fill:rgb(51,51,51);"/>
                    </g>
                    <g transform="matrix(-0.683642,0.240422,0.240422,0.683642,2454.25,-809.252)">
                        <path d="M3083.71,438.031C3074.96,438.902 3063.01,438.885 3052.99,437.81C3050.69,437.564 3048.63,439.227 3048.39,441.521C3048.14,443.815 3049.8,445.877 3052.1,446.123C3062.68,447.258 3075.3,447.271 3084.54,446.35C3086.84,446.122 3088.51,444.072 3088.28,441.776C3088.06,439.48 3086.01,437.802 3083.71,438.031Z" style="fill:rgb(51,51,51);"/>
                    </g>
                </g>
            </g>
            <g transform="matrix(0.523921,0,0,1.73676,65.042,-324.208)">
                <path d="M552.266,315.797L552.266,332.319L536.195,332.319L552.266,315.797Z" style="fill:rgb(227,165,132);"/>
            </g>
            <g transform="matrix(0.523921,0,0,1.73676,113.699,-324.643)">
                <path d="M536.195,315.797L552.266,332.319L536.195,332.319L536.195,315.797Z" style="fill:rgb(227,165,132);"/>
            </g>
        </g>
    </g>
</svg>
