<?xml version="1.0" encoding="UTF-8" standalone="no"?>
<!DOCTYPE svg PUBLIC "-//W3C//DTD SVG 1.1//EN" "http://www.w3.org/Graphics/SVG/1.1/DTD/svg11.dtd">
<svg width="100%" height="100%" viewBox="0 0 512 512" version="1.1" xmlns="http://www.w3.org/2000/svg" xmlns:xlink="http://www.w3.org/1999/xlink" xml:space="preserve" xmlns:serif="http://www.serif.com/" style="fill-rule:evenodd;clip-rule:evenodd;stroke-linecap:round;stroke-linejoin:round;stroke-miterlimit:1.5;">
    <g id="Girl-1" serif:id="Girl 1" transform="matrix(2.53529,0,0,2.53529,-1229.77,-429.571)">
        <g transform="matrix(1,0,0,1,-0.215147,0)">
            <g transform="matrix(0.92528,0,0,0.801685,428.001,166.518)">
                <path d="M207.473,225.556C207.473,202.342 191.143,183.494 171.03,183.494C150.916,183.494 134.587,202.342 134.587,225.556L134.587,255.547L207.473,255.547L207.473,225.556Z" style="fill:rgb(227,144,191);"/>
                <clipPath id="_clip1">
                    <path d="M207.473,225.556C207.473,202.342 191.143,183.494 171.03,183.494C150.916,183.494 134.587,202.342 134.587,225.556L134.587,255.547L207.473,255.547L207.473,225.556Z"/>
                </clipPath>
                <g clip-path="url(#_clip1)">
                    <g transform="matrix(0.814476,0,0,1.06461,83.2709,15.5182)">
                        <rect x="107.972" y="158.108" width="48.45" height="71.28" style="fill:rgb(199,92,164);fill-opacity:0.5;"/>
                    </g>
                </g>
                <path d="M207.473,225.556C207.473,202.342 191.143,183.494 171.03,183.494C150.916,183.494 134.587,202.342 134.587,225.556L134.587,255.547L207.473,255.547L207.473,225.556Z" style="fill:none;stroke:rgb(189,87,150);stroke-width:0.61px;"/>
            </g>
            <g transform="matrix(1.28795,0,0,1.67004,364.386,13.9486)">
                <ellipse cx="172.461" cy="185.881" rx="15.377" ry="6.294" style="fill:rgb(192,109,153);"/>
            </g>
            <g transform="matrix(0.394433,0,0,0.394433,485.277,169.437)">
                <path d="M265.268,366.564C288.88,368.737 306.858,379.674 306.858,392.822C306.858,407.53 284.359,419.472 256.647,419.472L256.445,419.471L256.445,366.564L265.268,366.564Z" style="fill:rgb(197,85,161);fill-opacity:0.5;"/>
            </g>
            <g transform="matrix(0.860341,0,0,1,440.198,125.91)">
                <path d="M175.391,183.698C175.391,186.133 176.832,188.338 179.062,189.316C181.916,190.522 183.71,192.285 183.71,194.245C183.71,197.903 177.46,200.873 169.762,200.873C162.064,200.873 155.814,197.903 155.814,194.245C155.814,192.285 157.609,190.522 160.459,189.308C162.686,188.332 164.125,186.13 164.125,183.698C164.134,176.696 164.134,163.956 164.134,163.956L175.391,163.956L175.391,183.698Z" style="fill:rgb(253,208,181);"/>
                <clipPath id="_clip2">
                    <path d="M175.391,183.698C175.391,186.133 176.832,188.338 179.062,189.316C181.916,190.522 183.71,192.285 183.71,194.245C183.71,197.903 177.46,200.873 169.762,200.873C162.064,200.873 155.814,197.903 155.814,194.245C155.814,192.285 157.609,190.522 160.459,189.308C162.686,188.332 164.125,186.13 164.125,183.698C164.134,176.696 164.134,163.956 164.134,163.956L175.391,163.956L175.391,183.698Z"/>
                </clipPath>
                <g clip-path="url(#_clip2)">
                    <g transform="matrix(1.01866,0.27295,-0.258819,0.965926,48.5982,-39.2469)">
                        <rect x="159.572" y="177.268" width="18.851" height="7.881" style="fill:rgb(227,165,132);"/>
                    </g>
                    <g transform="matrix(4.32538e-16,2.67107,-2.0992,0.136351,558.624,-277.917)">
                        <rect x="159.572" y="177.268" width="18.851" height="7.881" style="fill:rgb(227,165,132);"/>
                    </g>
                </g>
                <path d="M175.391,183.698C175.391,186.133 176.832,188.338 179.062,189.316C181.916,190.522 183.71,192.285 183.71,194.245C183.71,197.903 177.46,200.873 169.762,200.873C162.064,200.873 155.814,197.903 155.814,194.245C155.814,192.285 157.609,190.522 160.459,189.308C162.686,188.332 164.125,186.13 164.125,183.698C164.134,176.696 164.134,163.956 164.134,163.956L175.391,163.956L175.391,183.698Z" style="fill:none;stroke:rgb(168,92,77);stroke-width:0.56px;"/>
            </g>
        </g>
        <g>
            <g transform="matrix(1.22892,0,0,1.04355,376.719,123.487)">
                <path d="M169.983,67.922C221.813,67.922 217.786,108.288 217.786,132.531C217.786,156.774 196.366,176.456 169.983,176.456C143.6,176.456 122.181,156.774 122.181,132.531C122.181,108.288 118.154,67.922 169.983,67.922Z" style="fill:rgb(47,47,64);"/>
            </g>
            <g transform="matrix(0.481174,-0.481174,0.348429,0.348429,479.034,301.442)">
                <path d="M81.652,28.762C81.652,28.762 62.017,5.567 46.931,-0.978C95.406,-12.5 125.193,49.32 128.525,76.057C90.584,38.609 27.547,108.223 32.105,135.687C18.711,119.842 28.623,83.695 28.623,83.695C28.623,83.695 10.287,93.629 8.909,110.919C-0.047,90.626 19.234,65.351 19.234,65.351L4.132,75.686C34.623,16.019 69.668,30.421 69.668,30.421C69.668,30.421 40.013,16.931 15.337,42.653C45.569,-2.86 81.652,28.762 81.652,28.762Z" style="fill:rgb(47,47,64);fill-rule:nonzero;"/>
            </g>
            <g transform="matrix(-0.481174,-0.481174,-0.348429,0.348429,693.039,299.428)">
                <path d="M81.652,28.762C81.652,28.762 62.017,5.567 46.931,-0.978C95.406,-12.5 125.193,49.32 128.525,76.057C90.584,38.609 27.547,108.223 32.105,135.687C18.711,119.842 28.623,83.695 28.623,83.695C28.623,83.695 10.287,93.629 8.909,110.919C-0.047,90.626 19.234,65.351 19.234,65.351L4.132,75.686C34.623,16.019 69.668,30.421 69.668,30.421C69.668,30.421 40.013,16.931 15.337,42.653C45.569,-2.86 81.652,28.762 81.652,28.762Z" style="fill:rgb(47,47,64);fill-rule:nonzero;"/>
            </g>
            <g transform="matrix(1,0,0,1,614.527,212.038)">
                <g transform="matrix(1,0,0,1,0,6.33468)">
                    <g transform="matrix(1,0,0,1,-101.982,-82.0054)">
                        <circle cx="122.959" cy="132.898" r="12.204" style="fill:rgb(252,194,161);"/>
                    </g>
                    <g transform="matrix(0.497418,0,0,0.497418,-40.1845,-15.2132)">
                        <circle cx="122.959" cy="132.898" r="12.204" style="fill:rgb(227,165,132);"/>
                    </g>
                </g>
                <g transform="matrix(1,0,0,1,-98.5059,6.33468)">
                    <g transform="matrix(1,0,0,1,-101.982,-82.0054)">
                        <circle cx="122.959" cy="132.898" r="12.204" style="fill:rgb(252,194,161);"/>
                    </g>
                    <g transform="matrix(0.497418,0,0,0.497418,-40.1845,-15.2132)">
                        <circle cx="122.959" cy="132.898" r="12.204" style="fill:rgb(227,165,132);"/>
                    </g>
                </g>
            </g>
            <g transform="matrix(1,0,0,1.00643,416.268,125.442)">
                <path d="M169.983,72.853C217.786,72.853 217.786,108.288 217.786,132.531C217.786,171.258 196.366,181.023 169.983,181.023C143.6,181.023 122.181,171.258 122.181,132.531C122.181,108.288 122.181,72.853 169.983,72.853Z" style="fill:rgb(227,165,132);"/>
                <clipPath id="_clip3">
                    <path d="M169.983,72.853C217.786,72.853 217.786,108.288 217.786,132.531C217.786,171.258 196.366,181.023 169.983,181.023C143.6,181.023 122.181,171.258 122.181,132.531C122.181,108.288 122.181,72.853 169.983,72.853Z"/>
                </clipPath>
                <g clip-path="url(#_clip3)">
                    <g transform="matrix(0.903102,0,0,1.011,66.9035,18.9579)">
                        <rect x="50.041" y="43.786" width="57.94" height="121.023" style="fill:rgb(255,242,227);"/>
                    </g>
                </g>
                <path d="M169.983,72.853C217.786,72.853 217.786,108.288 217.786,132.531C217.786,171.258 196.366,181.023 169.983,181.023C143.6,181.023 122.181,171.258 122.181,132.531C122.181,108.288 122.181,72.853 169.983,72.853Z" style="fill:none;stroke:rgb(168,92,77);stroke-width:0.52px;"/>
            </g>
            <g transform="matrix(0.891688,0,0,1.00404,434.679,125.616)">
                <path d="M169.983,72.853C217.786,72.853 217.786,108.288 217.786,132.531C217.786,171.258 196.366,181.023 169.983,181.023C143.6,181.023 122.181,171.258 122.181,132.531C122.181,108.288 122.181,72.853 169.983,72.853Z" style="fill:rgb(253,208,181);"/>
            </g>
            <g transform="matrix(1,0,0,0.937403,612.77,208.001)">
                <g transform="matrix(1,0,0,1.06678,-595.776,-308.435)">
                    <circle cx="516.135" cy="366.84" r="3.376" style="fill:rgb(35,177,164);"/>
                </g>
                <g transform="matrix(1,0,0,1.06678,-490.83,-308.435)">
                    <circle cx="516.135" cy="366.84" r="3.376" style="fill:rgb(35,177,164);"/>
                </g>
                <g transform="matrix(0.997359,0.0726228,0.0785497,-1.07876,-456.872,115.496)">
                    <path d="M380.882,37.755C381.153,36.88 382.058,36.351 382.961,36.538C383.865,36.726 384.464,37.567 384.339,38.472C379.077,74.753 377.472,104.403 382.894,115.46L368.039,101.788C369.114,83.97 366.482,74.263 380.882,37.755Z" style="fill:rgb(47,47,64);"/>
                </g>
                <g transform="matrix(-0.997359,0.0726228,-0.0785497,-1.07876,403.039,115.462)">
                    <path d="M380.887,37.732C381.152,36.855 382.055,36.321 382.96,36.506C383.865,36.69 384.466,37.532 384.34,38.437C379.078,74.734 377.47,104.399 382.894,115.46L377.782,121.705L368.242,100.936C369.317,83.118 366.523,74.096 380.887,37.732Z" style="fill:rgb(47,47,64);"/>
                </g>
            </g>
            <g transform="matrix(0.988753,0,0,1,179.411,141.467)">
                <path d="M417.196,128.292C417.31,128.107 417.533,128.02 417.743,128.079C417.952,128.139 418.096,128.33 418.096,128.547C418.117,128.548 418.117,128.549 418.117,128.549C418.117,131.537 415.137,133.962 411.468,133.962C407.798,133.962 404.819,131.537 404.819,128.549C404.819,128.549 404.819,128.548 404.819,128.547C404.82,128.321 404.97,128.122 405.188,128.061C405.406,127.999 405.638,128.089 405.757,128.281C406.897,129.887 409.03,130.957 411.468,130.957C413.906,130.957 416.039,129.887 417.196,128.292Z" style="fill:rgb(229,169,135);"/>
            </g>
            <g transform="matrix(1,0,0,1,368.948,220.815)">
                <g transform="matrix(1.04176,0.279139,-0.318855,1.18998,-167.595,-220.783)">
                    <ellipse cx="387.524" cy="139.779" rx="8.305" ry="5.623" style="fill:rgb(255,177,161);"/>
                </g>
                <g transform="matrix(1.04176,-0.279139,0.318855,1.18998,-205.216,-4.43666)">
                    <ellipse cx="387.524" cy="139.779" rx="8.305" ry="5.623" style="fill:rgb(255,177,161);"/>
                </g>
            </g>
            <g>
                <g transform="matrix(0.394433,0,0,0.394433,485.062,169.437)">
                    <ellipse cx="312.113" cy="233.069" rx="8.739" ry="4.264" style="fill:rgb(227,165,132);"/>
                </g>
                <g transform="matrix(0.462108,0,0,0.394433,442.445,202.57)">
                    <ellipse cx="312.113" cy="233.069" rx="8.739" ry="4.264" style="fill:rgb(227,165,132);"/>
                </g>
                <g transform="matrix(0.394433,0,0,0.394433,440.677,169.437)">
                    <ellipse cx="312.113" cy="233.069" rx="8.739" ry="4.264" style="fill:rgb(227,165,132);"/>
                </g>
            </g>
            <g transform="matrix(1,0,0,1,-0.981291,-1.4767)">
                <g transform="matrix(0.965926,0.258819,-0.258819,0.965926,529.97,-22.8302)">
                    <g transform="matrix(1,0,0,1,-195.777,-81.1275)">
                        <circle cx="298.947" cy="358.162" r="1.115" style="fill:rgb(228,106,119);"/>
                    </g>
                    <g transform="matrix(1,0,0,1,-187.452,-81.1275)">
                        <circle cx="298.947" cy="358.162" r="1.115" style="fill:rgb(228,106,119);"/>
                    </g>
                    <g transform="matrix(1,0,0,1,-191.614,-76.989)">
                        <circle cx="298.947" cy="358.162" r="1.115" style="fill:rgb(228,106,119);"/>
                    </g>
                </g>
                <g transform="matrix(-0.965926,0.258819,0.258819,0.965926,644.496,-22.8302)">
                    <g transform="matrix(1,0,0,1,-195.777,-81.1275)">
                        <circle cx="298.947" cy="358.162" r="1.115" style="fill:rgb(228,106,119);"/>
                    </g>
                    <g transform="matrix(1,0,0,1,-187.452,-81.1275)">
                        <circle cx="298.947" cy="358.162" r="1.115" style="fill:rgb(228,106,119);"/>
                    </g>
                    <g transform="matrix(1,0,0,1,-191.614,-76.989)">
                        <circle cx="298.947" cy="358.162" r="1.115" style="fill:rgb(228,106,119);"/>
                    </g>
                </g>
            </g>
            <g transform="matrix(0.878788,0,0,0.914174,-99.7481,-43.4683)">
                <path d="M815.47,302.843C801.37,318.938 783.288,327.276 768.916,330.378L775.954,309.124C765.235,336.894 755.274,308.282 740.319,350.321C740.319,350.321 732.706,281.949 765.184,278.837C793.752,277.055 815.269,274.17 827.42,302.843C841.935,337.094 821.202,369.004 821.202,369.004C823.527,347.892 825.792,326.766 815.47,302.843Z" style="fill:rgb(227,165,132);"/>
            </g>
            <g transform="matrix(1,0,0,1,0.918893,0)">
                <g transform="matrix(-0.308481,0.0826573,0.0826573,0.308481,739.645,149.263)">
                    <g transform="matrix(0.775454,2.77556e-17,1.38778e-16,0.775454,-1746.48,-232.275)">
                        <path d="M2917.88,587.693C2902.58,573.786 2882.97,575.424 2868.19,583.664C2858.36,589.143 2850.53,597.521 2847.66,606.507C2846.68,609.588 2843.38,611.29 2840.3,610.306C2837.22,609.321 2835.52,606.021 2836.5,602.94C2840.18,591.434 2849.9,580.442 2862.48,573.427C2881.32,562.927 2906.27,561.3 2925.76,579.022C2928.16,581.198 2928.33,584.907 2926.16,587.3C2923.98,589.693 2920.27,589.869 2917.88,587.693Z" style="fill:rgb(51,51,51);"/>
                    </g>
                    <g transform="matrix(-2.96738,0.795107,0.795107,2.96738,2604.71,-1417.35)">
                        <path d="M815.495,332.888L809.663,334.514C809.242,334.632 808.995,335.07 809.113,335.491C809.23,335.913 809.668,336.159 810.09,336.042L815.921,334.415C816.342,334.298 816.589,333.86 816.472,333.439C816.354,333.017 815.916,332.77 815.495,332.888Z" style="fill:rgb(51,51,51);"/>
                    </g>
                </g>
                <g transform="matrix(0.308481,0.0826573,-0.0826573,0.308481,431.02,149.263)">
                    <g transform="matrix(0.775454,2.77556e-17,1.38778e-16,0.775454,-1746.48,-232.275)">
                        <path d="M2925.76,579.022C2906.27,561.3 2881.32,562.927 2862.48,573.427C2849.9,580.442 2840.18,591.434 2836.5,602.94C2835.52,606.021 2837.22,609.321 2840.3,610.306C2843.38,611.29 2846.68,609.588 2847.66,606.507C2850.53,597.521 2858.36,589.143 2868.19,583.664C2882.97,575.424 2902.58,573.786 2917.88,587.693C2920.27,589.869 2923.98,589.693 2926.16,587.3C2928.33,584.907 2928.16,581.198 2925.76,579.022Z" style="fill:rgb(51,51,51);"/>
                    </g>
                    <g transform="matrix(-2.96738,0.795107,0.795107,2.96738,2604.71,-1417.35)">
                        <path d="M815.921,334.415L810.09,336.042C809.668,336.159 809.23,335.913 809.113,335.491C808.995,335.07 809.242,334.632 809.663,334.514L815.495,332.888C815.916,332.77 816.354,333.017 816.472,333.439C816.589,333.86 816.342,334.298 815.921,334.415Z" style="fill:rgb(51,51,51);"/>
                    </g>
                </g>
            </g>
            <g transform="matrix(1,0,0,1,363.618,232.252)">
                <g transform="matrix(0.720166,0,0,0.604961,-85.5181,-47.5746)">
                    <path d="M392.314,90.96C398.403,87.967 403.53,87.637 408.457,87.86" style="fill:none;stroke:rgb(94,71,67);stroke-width:5.26px;"/>
                </g>
                <g transform="matrix(-0.720166,0,0,0.604961,536.893,-47.2468)">
                    <path d="M391.696,89.177C398.042,86.057 403.383,85.7 408.518,85.933C409.412,85.973 410.11,86.87 410.076,87.934C410.042,88.998 409.289,89.828 408.395,89.788C403.676,89.574 398.765,89.876 392.933,92.743C392.106,93.149 391.158,92.68 390.817,91.696C390.475,90.713 390.869,89.584 391.696,89.177Z" style="fill:rgb(94,71,67);"/>
                </g>
            </g>
            <g transform="matrix(0.98281,0,0,1,-183.185,-81.1275)">
                <path d="M815.47,302.843C801.37,318.938 783.288,327.276 768.916,330.378L775.954,309.124C765.235,336.894 754.834,319.328 739.878,361.367C739.878,361.367 711.695,282.174 765.184,278.837C793.752,277.055 815.269,274.17 827.42,302.843C841.935,337.094 821.202,369.004 821.202,369.004C823.527,347.892 825.792,326.766 815.47,302.843Z" style="fill:rgb(47,47,64);"/>
            </g>
            <g id="hairShine" transform="matrix(0.664874,-0.178152,0.24719,0.922527,-33.1854,-103.245)">
                <path d="M693.58,476.262C692.411,482.142 762.509,482.142 761.34,476.262C777.542,481.434 781.869,496.52 780.575,497.267C780.468,497.267 776.825,493.9 770.06,491.949C749.762,486.095 707.658,486.601 684.86,491.949C678.005,493.557 674.453,497.267 674.346,497.267C673.051,496.52 677.379,481.434 693.58,476.262Z" style="fill:rgb(64,67,101);fill-rule:nonzero;"/>
            </g>
            <g id="Mouth-Closed" serif:id="Mouth Closed">
                <g transform="matrix(0.968132,0,0,0.687582,35.6124,32.8168)">
                    <path d="M556.543,364.292C558.313,366.949 560.738,368.743 563.418,369.723C565.065,370.325 566.802,370.621 568.542,370.625C569.842,370.628 571.141,370.48 572.403,370.153C575.584,369.329 578.504,367.377 580.542,364.292C580.939,363.659 580.895,362.691 580.446,362.133C579.996,361.574 579.309,361.635 578.912,362.268C577.255,365.061 574.784,366.924 572.059,367.792C570.916,368.157 569.73,368.359 568.542,368.361C566.956,368.365 565.367,368.036 563.884,367.4C561.607,366.423 559.591,364.679 558.173,362.268C557.776,361.635 557.089,361.574 556.639,362.133C556.19,362.691 556.146,363.659 556.543,364.292Z" style="fill:rgb(183,101,88);"/>
                </g>
                <g transform="matrix(1,0,0,1,0.018719,0)">
                    <g transform="matrix(1.71474,0.990007,-0.566618,0.981411,-353.272,-438.176)">
                        <circle cx="597.688" cy="130.598" r="1.056" style="fill:rgb(168,92,77);"/>
                    </g>
                    <g transform="matrix(-1.71474,0.990007,0.566618,0.981411,1525.31,-438.176)">
                        <circle cx="597.688" cy="130.598" r="1.056" style="fill:rgb(168,92,77);"/>
                    </g>
                </g>
            </g>
            <g transform="matrix(1,0,0,1,-203.272,-76.3247)">
                <path d="M766.456,277.369C754.244,278.274 743.985,274.225 734.752,267.569C738.872,275.462 744.131,282.083 752.356,285.386L766.456,277.369Z" style="fill:rgb(47,47,64);"/>
            </g>
            <g transform="matrix(1,0,0,1,-198.042,-71.5962)">
                <path d="M833.827,302.7C839.227,304.534 846.563,302.243 854.221,299.266C846.721,308.015 839.811,313.172 833.827,312.68L833.827,302.7Z" style="fill:rgb(47,47,64);"/>
            </g>
            <g transform="matrix(0.370052,-0.318557,0.468736,0.544507,257.854,313.709)">
                <g transform="matrix(1,0,0,1,-198.842,-79.8256)">
                    <path d="M907.841,295.668C907.841,295.668 901.299,292.498 897.891,290.846C897.676,290.742 897.561,290.503 897.615,290.27C897.668,290.037 897.876,289.872 898.115,289.872C901.235,289.872 906.517,289.872 906.517,289.872C906.517,289.872 904.808,287.752 903.654,286.32C903.514,286.145 903.503,285.899 903.628,285.713C903.753,285.526 903.984,285.442 904.199,285.506C905.736,285.961 907.841,286.584 907.841,286.584C907.841,286.584 910.32,282.456 911.35,280.742C911.442,280.588 911.609,280.493 911.789,280.493C911.969,280.493 912.136,280.588 912.229,280.742C913.258,282.456 915.738,286.584 915.738,286.584C915.738,286.584 917.843,285.961 919.379,285.506C919.594,285.442 919.826,285.526 919.951,285.713C920.076,285.899 920.065,286.145 919.924,286.32C918.77,287.752 917.061,289.872 917.061,289.872L925.464,289.872C925.703,289.872 925.91,290.037 925.964,290.27C926.017,290.503 925.902,290.742 925.687,290.846C922.28,292.498 915.738,295.668 915.738,295.668L907.841,295.668Z" style="fill:rgb(58,173,115);"/>
                </g>
                <g transform="matrix(1,0,0,1,-195.777,-81.1275)">
                    <path d="M909.065,294.197C943.444,294.197 919.549,332.187 909.065,332.187C898.581,332.187 874.686,294.197 909.065,294.197Z" style="fill:rgb(244,137,192);"/>
                </g>
                <g transform="matrix(1,0,0,1,-196.41,-82.0961)">
                    <ellipse cx="898.616" cy="305.081" rx="2.587" ry="3.373" style="fill:rgb(222,116,171);"/>
                </g>
                <g transform="matrix(1,0,0,1,-174.311,-82.0961)">
                    <ellipse cx="898.616" cy="305.081" rx="2.587" ry="3.373" style="fill:rgb(222,116,171);"/>
                </g>
                <g transform="matrix(1,0,0,1,-185.327,-80.0858)">
                    <ellipse cx="898.616" cy="305.081" rx="2.587" ry="3.373" style="fill:rgb(222,116,171);"/>
                </g>
                <g transform="matrix(1,0,0,1,-185.327,-62.6751)">
                    <ellipse cx="898.616" cy="305.081" rx="2.587" ry="3.373" style="fill:rgb(222,116,171);"/>
                </g>
                <g transform="matrix(1,0,0,1,-191.969,-71.1408)">
                    <ellipse cx="898.616" cy="305.081" rx="2.587" ry="3.373" style="fill:rgb(222,116,171);"/>
                </g>
                <g transform="matrix(1,0,0,1,-178.677,-71.1408)">
                    <ellipse cx="898.616" cy="305.081" rx="2.587" ry="3.373" style="fill:rgb(222,116,171);"/>
                </g>
            </g>
        </g>
    </g>
</svg>
