<?xml version="1.0" encoding="UTF-8" standalone="no"?>
<!DOCTYPE svg PUBLIC "-//W3C//DTD SVG 1.1//EN" "http://www.w3.org/Graphics/SVG/1.1/DTD/svg11.dtd">
<svg width="100%" height="100%" viewBox="0 0 512 512" version="1.1" xmlns="http://www.w3.org/2000/svg" xmlns:xlink="http://www.w3.org/1999/xlink" xml:space="preserve" xmlns:serif="http://www.serif.com/" style="fill-rule:evenodd;clip-rule:evenodd;stroke-linecap:round;stroke-linejoin:round;stroke-miterlimit:1.5;">
    <g id="Girl-4" serif:id="Girl 4" transform="matrix(2.53529,0,0,2.53529,-1140.29,144.614)">
        <g transform="matrix(1,0,0,1,0.637597,0)">
            <g transform="matrix(0.92528,0,0,0.801685,391.856,-59.9589)">
                <path d="M207.473,225.556C207.473,202.342 191.143,183.494 171.03,183.494C150.916,183.494 134.587,202.342 134.587,225.556L134.587,255.547L207.473,255.547L207.473,225.556Z" style="fill:rgb(255,148,172);"/>
                <clipPath id="_clip1">
                    <path d="M207.473,225.556C207.473,202.342 191.143,183.494 171.03,183.494C150.916,183.494 134.587,202.342 134.587,225.556L134.587,255.547L207.473,255.547L207.473,225.556Z"/>
                </clipPath>
                <g clip-path="url(#_clip1)">
                    <g transform="matrix(0.814476,0,0,1.06461,83.2709,15.5182)">
                        <rect x="107.972" y="158.108" width="48.45" height="71.28" style="fill:rgb(181,92,136);fill-opacity:0.5;"/>
                    </g>
                </g>
                <path d="M207.473,225.556C207.473,202.342 191.143,183.494 171.03,183.494C150.916,183.494 134.587,202.342 134.587,225.556L134.587,255.547L207.473,255.547L207.473,225.556Z" style="fill:none;stroke:rgb(201,104,143);stroke-width:0.61px;"/>
            </g>
            <g transform="matrix(1.28795,0,0,1.67004,328.241,-212.529)">
                <ellipse cx="172.461" cy="185.881" rx="15.377" ry="6.294" style="fill:rgb(225,127,156);"/>
            </g>
            <g transform="matrix(0.394433,0,0,0.394433,449.132,-57.0403)">
                <path d="M265.268,366.564C288.88,368.737 306.858,379.674 306.858,392.822C306.858,407.53 284.359,419.472 256.647,419.472L256.445,419.471L256.445,366.564L265.268,366.564Z" style="fill:rgb(181,83,113);fill-opacity:0.5;"/>
            </g>
            <g transform="matrix(0.860341,0,0,1,404.053,-100.567)">
                <path d="M175.391,183.698C175.391,186.133 176.832,188.338 179.062,189.316C181.916,190.522 183.71,192.285 183.71,194.245C183.71,197.903 177.46,200.873 169.762,200.873C162.064,200.873 155.814,197.903 155.814,194.245C155.814,192.285 157.609,190.522 160.459,189.308C162.686,188.332 164.125,186.13 164.125,183.698C164.134,176.696 164.134,163.956 164.134,163.956L175.391,163.956L175.391,183.698Z" style="fill:rgb(251,181,141);"/>
                <clipPath id="_clip2">
                    <path d="M175.391,183.698C175.391,186.133 176.832,188.338 179.062,189.316C181.916,190.522 183.71,192.285 183.71,194.245C183.71,197.903 177.46,200.873 169.762,200.873C162.064,200.873 155.814,197.903 155.814,194.245C155.814,192.285 157.609,190.522 160.459,189.308C162.686,188.332 164.125,186.13 164.125,183.698C164.134,176.696 164.134,163.956 164.134,163.956L175.391,163.956L175.391,183.698Z"/>
                </clipPath>
                <g clip-path="url(#_clip2)">
                    <g transform="matrix(1.01866,0.27295,-0.258819,0.965926,48.5982,-39.2469)">
                        <rect x="159.572" y="177.268" width="18.851" height="7.881" style="fill:rgb(211,130,101);"/>
                    </g>
                    <g transform="matrix(4.32538e-16,2.67107,-2.0992,0.136351,558.624,-277.917)">
                        <rect x="159.572" y="177.268" width="18.851" height="7.881" style="fill:rgb(211,130,101);"/>
                    </g>
                </g>
                <path d="M175.391,183.698C175.391,186.133 176.832,188.338 179.062,189.316C181.916,190.522 183.71,192.285 183.71,194.245C183.71,197.903 177.46,200.873 169.762,200.873C162.064,200.873 155.814,197.903 155.814,194.245C155.814,192.285 157.609,190.522 160.459,189.308C162.686,188.332 164.125,186.13 164.125,183.698C164.134,176.696 164.134,163.956 164.134,163.956L175.391,163.956L175.391,183.698Z" style="fill:none;stroke:rgb(168,92,77);stroke-width:0.56px;"/>
            </g>
        </g>
        <g>
            <g transform="matrix(0.449843,-0.259717,0.399265,0.691547,143.422,141.908)">
                <path d="M853.321,194.619L821.192,202.344C829.796,227.191 783.757,272.995 783.757,272.995C827.576,266.36 858.349,272.821 858.349,272.821C858.349,272.821 883.298,233.436 853.321,194.619Z" style="fill:rgb(255,240,184);stroke:rgb(231,187,153);stroke-width:0.78px;"/>
            </g>
            <g transform="matrix(-0.449843,-0.259717,-0.399265,0.691547,958.066,143.166)">
                <path d="M853.321,194.619L821.192,202.344C829.796,227.191 783.757,272.995 783.757,272.995C827.576,266.36 858.349,272.821 858.349,272.821C858.349,272.821 883.298,233.436 853.321,194.619Z" style="fill:rgb(255,240,184);stroke:rgb(231,187,153);stroke-width:0.78px;"/>
            </g>
            <g transform="matrix(0.855877,0.0250023,-0.0301869,1.03336,-468.308,-100.733)">
                <ellipse cx="1176.65" cy="36.689" rx="7" ry="3.623" style="fill:rgb(255,148,172);stroke:rgb(247,131,172);stroke-width:0.55px;"/>
            </g>
            <g transform="matrix(1.21741,0,0,1.06934,343.167,-109.564)">
                <path d="M169.983,70.271C217.786,70.271 217.786,108.288 217.786,132.531C217.786,156.774 196.366,176.456 169.983,176.456C143.6,176.456 122.181,156.774 122.181,132.531C122.181,108.288 122.181,70.271 169.983,70.271Z" style="fill:rgb(255,240,184);stroke:rgb(231,187,153);stroke-width:0.46px;"/>
            </g>
            <g transform="matrix(0.399179,-0.399179,0.362581,0.362581,190.345,323.894)">
                <path d="M858.871,199.278C858.871,195.176 855.851,191.852 852.126,191.852C845.371,191.852 835.036,191.852 828.281,191.852C824.556,191.852 821.536,195.176 821.536,199.278C821.536,199.28 821.536,199.281 821.536,199.283C821.536,203.384 824.556,206.709 828.281,206.709C835.036,206.709 845.371,206.709 852.126,206.709C855.851,206.709 858.871,203.384 858.871,199.283C858.871,199.281 858.871,199.28 858.871,199.278Z" style="fill:rgb(250,162,193);"/>
            </g>
            <g transform="matrix(-0.399179,-0.399179,-0.362581,0.362581,911.143,325.152)">
                <path d="M858.871,199.278C858.871,195.176 855.851,191.852 852.126,191.852C845.371,191.852 835.036,191.852 828.281,191.852C824.556,191.852 821.536,195.176 821.536,199.278C821.536,199.28 821.536,199.281 821.536,199.283C821.536,203.384 824.556,206.709 828.281,206.709C835.036,206.709 845.371,206.709 852.126,206.709C855.851,206.709 858.871,203.384 858.871,199.283C858.871,199.281 858.871,199.28 858.871,199.278Z" style="fill:rgb(250,162,193);"/>
            </g>
            <g transform="matrix(1,0,0,1,578.382,-14.4394)">
                <g transform="matrix(1,0,0,1,0,6.33468)">
                    <g transform="matrix(1,0,0,1,-101.982,-82.0054)">
                        <circle cx="122.959" cy="132.898" r="12.204" style="fill:rgb(251,181,141);stroke:rgb(168,92,77);stroke-width:0.53px;"/>
                    </g>
                    <g transform="matrix(0.497418,0,0,0.497418,-40.1845,-15.2132)">
                        <circle cx="122.959" cy="132.898" r="12.204" style="fill:rgb(222,141,112);"/>
                    </g>
                </g>
                <g transform="matrix(1,0,0,1,-98.5059,6.33468)">
                    <g transform="matrix(1,0,0,1,-101.982,-82.0054)">
                        <circle cx="122.959" cy="132.898" r="12.204" style="fill:rgb(255,207,168);stroke:rgb(168,92,77);stroke-width:0.53px;"/>
                    </g>
                    <g transform="matrix(0.497418,0,0,0.497418,-40.1845,-15.2132)">
                        <circle cx="122.959" cy="132.898" r="12.204" style="fill:rgb(222,141,112);"/>
                    </g>
                </g>
            </g>
            <g transform="matrix(1,0,0,1.00643,380.123,-101.036)">
                <path d="M169.983,72.853C217.786,72.853 217.786,108.288 217.786,132.531C217.786,171.258 196.366,181.023 169.983,181.023C143.6,181.023 122.181,171.258 122.181,132.531C122.181,108.288 122.181,72.853 169.983,72.853Z" style="fill:rgb(211,130,101);"/>
                <clipPath id="_clip3">
                    <path d="M169.983,72.853C217.786,72.853 217.786,108.288 217.786,132.531C217.786,171.258 196.366,181.023 169.983,181.023C143.6,181.023 122.181,171.258 122.181,132.531C122.181,108.288 122.181,72.853 169.983,72.853Z"/>
                </clipPath>
                <g clip-path="url(#_clip3)">
                    <g transform="matrix(1,0,0,1,62.0546,19.4394)">
                        <rect x="50.041" y="43.786" width="57.94" height="121.023" style="fill:rgb(255,207,168);"/>
                    </g>
                </g>
                <path d="M169.983,72.853C217.786,72.853 217.786,108.288 217.786,132.531C217.786,171.258 196.366,181.023 169.983,181.023C143.6,181.023 122.181,171.258 122.181,132.531C122.181,108.288 122.181,72.853 169.983,72.853Z" style="fill:none;stroke:rgb(168,92,77);stroke-width:0.52px;"/>
            </g>
            <g transform="matrix(0.891688,0,0,1.00316,398.534,-100.797)">
                <path d="M169.983,72.853C217.786,72.853 217.786,108.288 217.786,132.531C217.786,171.258 196.366,181.023 169.983,181.023C143.6,181.023 122.181,171.258 122.181,132.531C122.181,108.288 122.181,72.853 169.983,72.853Z" style="fill:rgb(251,181,141);"/>
            </g>
            <g transform="matrix(1.03813,0.184995,-0.148944,0.835827,-213.653,-195.161)">
                <path d="M704.581,81.544C721.903,94.285 740.109,105.56 763.329,108.529L749.915,86.12C765.144,95.751 780.592,99.909 796.171,100.776C796.171,100.776 795.25,50.569 749.915,50.748C704.581,50.928 704.581,81.544 704.581,81.544Z" style="fill:rgb(211,130,101);"/>
            </g>
            <g transform="matrix(1.37362,0,0,1.37362,156.583,-136.336)">
                <path d="M276.59,141.751C278.081,143.734 280.133,145.091 282.403,145.857C283.893,146.36 285.473,146.604 287.056,146.607C288.639,146.609 290.222,146.372 291.712,145.869C293.984,145.103 296.033,143.737 297.522,141.751C297.766,141.406 297.685,140.928 297.341,140.683C296.996,140.438 296.518,140.519 296.273,140.864C295.047,142.688 293.296,144 291.313,144.756C289.963,145.271 288.51,145.547 287.056,145.549C285.601,145.551 284.145,145.283 282.794,144.768C280.809,144.012 279.062,142.691 277.838,140.864C277.594,140.519 277.115,140.438 276.771,140.683C276.426,140.928 276.345,141.406 276.59,141.751Z" style="fill:rgb(200,98,82);"/>
            </g>
            <g transform="matrix(1,0,0,0.937403,576.625,-18.4765)">
                <g transform="matrix(0.997359,0.0726228,0.0785497,-1.07876,-452.451,113.663)">
                    <path d="M373.988,71.499C374.683,87.695 376.761,102.953 382.894,115.46L366.79,107.022L373.988,71.499Z" style="fill:rgb(255,240,184);"/>
                </g>
                <g transform="matrix(-0.997359,0.0726228,-0.0785497,-1.07876,399.699,113.663)">
                    <path d="M373.988,71.499C373.307,86.131 375.359,100.78 382.894,115.46L365.081,115.46L373.988,71.499Z" style="fill:rgb(255,240,184);"/>
                </g>
            </g>
            <g transform="matrix(0.9124,0,0,0.9124,353.249,0.937184)">
                <g transform="matrix(1,2.77556e-17,-2.77556e-17,1,-1.09601,-7.10543e-14)">
                    <g transform="matrix(1,1.04616e-17,7.60616e-18,1.0011,-195.777,-81.2534)">
                        <circle cx="386.649" cy="114.577" r="13.028" style="fill:white;"/>
                        <clipPath id="_clip4">
                            <circle cx="386.649" cy="114.577" r="13.028"/>
                        </clipPath>
                        <g clip-path="url(#_clip4)">
                            <g transform="matrix(1.15961,0.206414,-0.163244,0.915069,-439.818,-136.26)">
                                <path d="M704.581,81.544C721.903,94.285 740.109,105.56 763.329,108.529L749.915,86.12C765.144,95.751 780.592,99.909 796.171,100.776C796.171,100.776 795.25,50.569 749.915,50.748C704.581,50.928 704.581,81.544 704.581,81.544Z" style="fill:rgb(222,141,112);fill-opacity:0.32;"/>
                            </g>
                        </g>
                    </g>
                    <g transform="matrix(0.226536,1.39614e-33,-1.39614e-33,0.226536,100.617,4.50739)">
                        <circle cx="386.649" cy="114.577" r="13.028" style="fill:rgb(33,37,41);"/>
                    </g>
                </g>
                <g transform="matrix(1.09601,0,0,1.09601,-29.5974,5.94389)">
                    <g transform="matrix(0.720166,0,0,0.604961,-85.5181,-47.5746)">
                        <path d="M393.242,93.634C398.945,90.831 403.75,90.542 408.364,90.752C409.705,90.812 410.834,89.566 410.885,87.97C410.936,86.375 409.889,85.03 408.549,84.969C403.31,84.732 397.862,85.103 391.386,88.286C390.147,88.896 389.556,90.589 390.068,92.065C390.58,93.541 392.002,94.244 393.242,93.634Z" style="fill:rgb(159,71,39);"/>
                    </g>
                    <g transform="matrix(-0.720166,0,0,0.604961,534.913,-47.5746)">
                        <path d="M391.386,88.286C397.862,85.103 403.31,84.732 408.549,84.969C409.889,85.03 410.936,86.375 410.885,87.97C410.834,89.566 409.705,90.812 408.364,90.752C403.75,90.542 398.945,90.831 393.242,93.634C392.002,94.244 390.58,93.541 390.068,92.065C389.556,90.589 390.147,88.896 391.386,88.286Z" style="fill:rgb(159,71,39);"/>
                    </g>
                </g>
                <g transform="matrix(1,-2.77556e-17,2.77556e-17,1,50.8667,-2.84217e-14)">
                    <g transform="matrix(1.0011,-1.04311e-17,-7.58399e-18,1.0011,-196.201,-81.2534)">
                        <circle cx="386.649" cy="114.577" r="13.028" style="fill:white;"/>
                        <clipPath id="_clip5">
                            <circle cx="386.649" cy="114.577" r="13.028"/>
                        </clipPath>
                        <g clip-path="url(#_clip5)">
                            <g transform="matrix(1.15833,0.206414,-0.163065,0.915069,-494.307,-137.15)">
                                <path d="M704.581,81.544C721.903,94.285 740.109,105.56 763.329,108.529L749.915,86.12C765.144,95.751 780.592,99.909 796.171,100.776C796.171,100.776 795.25,50.569 749.915,50.748C704.581,50.928 704.581,81.544 704.581,81.544Z" style="fill:rgb(118,63,51);fill-opacity:0.21;"/>
                            </g>
                        </g>
                    </g>
                    <g transform="matrix(0.226536,-1.39614e-33,1.39614e-33,0.226536,100.617,4.50739)">
                        <circle cx="386.649" cy="114.577" r="13.028" style="fill:rgb(33,37,41);"/>
                    </g>
                </g>
            </g>
            <g transform="matrix(1,0,0,1,138.639,-80.9182)">
                <path d="M417.196,128.292C417.31,128.107 417.533,128.02 417.743,128.079C417.952,128.139 418.096,128.33 418.096,128.547C418.117,128.548 418.117,128.549 418.117,128.549C418.117,131.537 415.137,133.962 411.468,133.962C407.798,133.962 404.819,131.537 404.819,128.549C404.819,128.549 404.819,128.548 404.819,128.547C404.82,128.321 404.97,128.122 405.188,128.061C405.406,127.999 405.638,128.089 405.757,128.281C406.897,129.887 409.03,130.957 411.468,130.957C413.906,130.957 416.039,129.887 417.196,128.292Z" style="fill:rgb(217,123,92);"/>
            </g>
            <g transform="matrix(0.339969,0,0,0.339969,464.869,-44.5596)">
                <g transform="matrix(1,0,0,1,-11.6234,0.942189)">
                    <circle cx="239.033" cy="247.937" r="2.856" style="fill:rgb(217,123,88);"/>
                </g>
                <g transform="matrix(1,0,0,1,0.601228,-7.9012)">
                    <circle cx="239.033" cy="247.937" r="2.856" style="fill:rgb(217,123,88);"/>
                </g>
                <g transform="matrix(1,0,0,1,12.1217,0.942189)">
                    <circle cx="239.033" cy="247.937" r="2.856" style="fill:rgb(217,123,88);"/>
                </g>
                <g transform="matrix(1,0,0,1,21.7022,-8.42742)">
                    <circle cx="239.033" cy="247.937" r="2.856" style="fill:rgb(217,123,88);"/>
                </g>
                <g transform="matrix(1,0,0,1,35.8668,0.942189)">
                    <circle cx="239.033" cy="247.937" r="2.856" style="fill:rgb(217,123,88);"/>
                </g>
            </g>
            <g transform="matrix(1,0,0,1,333.219,-0.660088)">
                <g transform="matrix(1.02261,0.274007,-0.312993,1.16811,-161.823,-215.736)">
                    <ellipse cx="387.524" cy="139.779" rx="8.305" ry="5.623" style="fill:rgb(252,194,215);"/>
                </g>
                <g transform="matrix(1.02261,-0.274007,0.312993,1.16811,-196.974,-3.36736)">
                    <ellipse cx="387.524" cy="139.779" rx="8.305" ry="5.623" style="fill:rgb(252,194,215);"/>
                </g>
            </g>
            <g>
                <g transform="matrix(0.965926,0.258819,-0.258819,0.965926,-549.056,-353.682)">
                    <path d="M1141.28,112.727C1142.23,110.957 1144.11,110.957 1145.06,111.842C1146,112.727 1146,114.496 1145.06,116.266C1144.4,117.593 1142.7,118.921 1141.28,119.805C1139.86,118.921 1138.16,117.593 1137.5,116.266C1136.56,114.496 1136.56,112.727 1137.5,111.842C1138.45,110.957 1140.34,110.957 1141.28,112.727Z" style="fill:rgb(247,131,172);"/>
                </g>
                <g transform="matrix(-0.965926,0.258819,0.258819,0.965926,1648.69,-353.682)">
                    <path d="M1141.28,112.727C1142.23,110.957 1144.11,110.957 1145.06,111.842C1146,112.727 1146,114.496 1145.06,116.266C1144.4,117.593 1142.7,118.921 1141.28,119.805C1139.86,118.921 1138.16,117.593 1137.5,116.266C1136.56,114.496 1136.56,112.727 1137.5,111.842C1138.45,110.957 1140.34,110.957 1141.28,112.727Z" style="fill:rgb(247,131,172);"/>
                </g>
            </g>
            <g transform="matrix(1.07469,0,0,1,-255.257,-80.2829)">
                <path d="M704.581,81.544C721.903,94.285 741.764,105.262 764.984,108.232L740.765,74.232C759.078,93.974 780.592,99.909 796.171,100.776C796.171,100.776 795.25,50.569 749.915,50.748C704.581,50.928 704.581,81.544 704.581,81.544Z" style="fill:rgb(255,240,184);"/>
            </g>
            <g>
                <g transform="matrix(0.773064,0.368134,-0.444473,0.933372,-309.235,-494.244)">
                    <ellipse cx="1176.65" cy="36.689" rx="7" ry="3.623" style="fill:rgb(153,233,242);stroke:rgb(165,216,255);stroke-width:0.55px;"/>
                </g>
                <g transform="matrix(0.854447,-0.055419,0.0669111,1.03163,-450.636,3.35415)">
                    <ellipse cx="1176.65" cy="36.689" rx="7" ry="3.623" style="fill:rgb(229,153,247);stroke:rgb(218,119,242);stroke-width:0.55px;"/>
                </g>
                <g transform="matrix(0.767596,-0.379403,0.458078,0.926771,-401.332,407.066)">
                    <ellipse cx="1176.65" cy="36.689" rx="7" ry="3.623" style="fill:rgb(165,216,255);stroke:rgb(116,192,252);stroke-width:0.55px;"/>
                </g>
                <g transform="matrix(0.767596,-0.379403,0.458078,0.926771,-410.962,388.933)">
                    <ellipse cx="1176.65" cy="36.689" rx="7" ry="3.623" style="fill:rgb(192,235,117);stroke:rgb(169,227,75);stroke-width:0.55px;"/>
                </g>
            </g>
            <g id="hairShine" transform="matrix(0.752545,0.201644,-0.24719,0.922527,125.145,-606.545)">
                <path d="M693.58,476.262C692.411,482.142 762.509,482.142 761.34,476.262C777.542,481.434 781.869,496.52 780.575,497.267C780.468,497.267 776.825,493.9 770.06,491.949C749.762,486.095 707.658,486.601 684.86,491.949C678.005,493.557 674.453,497.267 674.346,497.267C673.051,496.52 677.379,481.434 693.58,476.262Z" style="fill:white;fill-rule:nonzero;"/>
            </g>
        </g>
    </g>
</svg>
