<?xml version="1.0" encoding="UTF-8" standalone="no"?>
<!DOCTYPE svg PUBLIC "-//W3C//DTD SVG 1.1//EN" "http://www.w3.org/Graphics/SVG/1.1/DTD/svg11.dtd">
<svg width="100%" height="100%" viewBox="0 0 512 512" version="1.1" xmlns="http://www.w3.org/2000/svg" xmlns:xlink="http://www.w3.org/1999/xlink" xml:space="preserve" xmlns:serif="http://www.serif.com/" style="fill-rule:evenodd;clip-rule:evenodd;stroke-linecap:round;stroke-linejoin:round;stroke-miterlimit:1.5;">
    <g id="No-Avatar" serif:id="No Avatar" transform="matrix(3.27018,0,0,2.09141,420.525,-547.769)">
        <g transform="matrix(1,0,0,1,61.0407,1.79348)">
            <g transform="matrix(0.750132,0,0,1.01625,-239.646,245.231)">
                <path d="M207.473,225.556C207.473,202.342 191.143,183.494 171.03,183.494C150.916,183.494 134.587,202.342 134.587,225.556L134.587,255.547L207.473,255.547L207.473,225.556Z" style="fill:white;"/>
            </g>
            <g transform="matrix(0.697485,0,0,1.26764,-229.758,193.755)">
                <path d="M175.391,183.698C175.391,186.133 176.832,188.338 179.062,189.316C181.916,190.522 183.71,192.285 183.71,194.245C183.71,197.903 177.46,200.873 169.762,200.873C162.064,200.873 155.814,197.903 155.814,194.245C155.814,192.285 157.609,190.522 160.459,189.308C162.686,188.332 164.125,186.13 164.125,183.698C164.134,176.696 164.134,170.603 164.134,170.603L175.391,170.603L175.391,183.698Z" style="fill:white;"/>
            </g>
        </g>
        <g transform="matrix(1,0,0,1,61.0407,0)">
            <g>
                <g transform="matrix(0.810708,0,0,1.26764,-171.106,207.01)">
                    <circle cx="122.959" cy="132.898" r="12.204" style="fill:white;"/>
                </g>
                <g transform="matrix(0.810708,0,0,1.26764,-250.965,207.01)">
                    <circle cx="122.959" cy="132.898" r="12.204" style="fill:white;"/>
                </g>
            </g>
            <g transform="matrix(0.73969,-3.21021e-17,2.05305e-17,1.1566,-233.32,322.426)">
                <g transform="matrix(0.226536,-4.88648e-33,1.39614e-33,0.226536,100.195,4.68681)">
                    <circle cx="386.649" cy="114.577" r="13.028" style="fill:white;"/>
                </g>
                <g transform="matrix(0.226536,1.25753e-17,-1.25753e-17,0.226536,55.2085,4.68681)">
                    <circle cx="386.649" cy="114.577" r="13.028" style="fill:white;"/>
                </g>
            </g>
            <g transform="matrix(0.639539,0,0,1,-195.777,-81.1275)">
                <path d="M132.009,367.235C192.606,367.235 192.606,412.442 192.606,443.371C192.606,492.78 165.453,505.237 132.009,505.237C98.565,505.237 71.413,492.78 71.413,443.371C71.413,412.442 71.413,367.235 132.009,367.235ZM113.264,476.735C115.98,480.249 119.668,482.636 123.745,483.97C126.397,484.839 129.2,485.26 132.009,485.262C134.111,485.263 136.211,485.043 138.25,484.569C143.129,483.434 147.606,480.841 150.754,476.735C151.384,475.847 151.175,474.615 150.288,473.985C149.4,473.355 148.168,473.564 147.538,474.451C145.855,477.029 143.575,479.038 140.926,480.378C138.188,481.763 135.103,482.528 132.009,482.538C129.529,482.546 127.047,482.064 124.752,481.165C121.411,479.856 118.507,477.565 116.48,474.451C115.85,473.564 114.618,473.355 113.73,473.985C112.843,474.615 112.634,475.847 113.264,476.735ZM139.271,462.419C139.415,462.184 139.698,462.074 139.963,462.149C140.228,462.224 140.411,462.466 140.412,462.742C140.437,462.743 140.437,462.744 140.437,462.745C140.437,466.532 136.661,469.606 132.009,469.606C127.357,469.606 123.581,466.532 123.581,462.745C123.581,462.744 123.581,462.743 123.581,462.742C123.582,462.455 123.772,462.204 124.048,462.126C124.324,462.047 124.619,462.161 124.77,462.405C126.215,464.44 128.919,465.797 132.009,465.797C135.099,465.797 137.803,464.44 139.271,462.419ZM101.959,427.156C110.276,427.156 117.028,433.915 117.028,442.241C117.028,450.567 110.276,457.326 101.959,457.326C93.643,457.326 86.891,450.567 86.891,442.241C86.891,433.915 93.643,427.156 101.959,427.156ZM162.059,427.156C170.385,427.156 177.144,433.915 177.144,442.241C177.144,450.567 170.385,457.326 162.059,457.326C153.733,457.326 146.974,450.567 146.974,442.241C146.974,433.915 153.733,427.156 162.059,427.156Z" style="fill:white;"/>
            </g>
            <g>
                <g transform="matrix(0.639539,0,0,1,-195.777,-81.1275)">
                    <path d="M137.211,368.92C137.211,368.92 144.287,356.392 161.274,356.392" style="fill:none;stroke:white;stroke-width:3.77px;"/>
                </g>
                <g transform="matrix(0.639539,0,0,1,-195.457,-80.6847)">
                    <path d="M134.09,369.701C134.09,369.701 134.09,355.705 143.685,348.4" style="fill:none;stroke:white;stroke-width:3.77px;"/>
                </g>
            </g>
        </g>
    </g>
</svg>
