<?xml version="1.0" encoding="UTF-8" standalone="no"?>
<!DOCTYPE svg PUBLIC "-//W3C//DTD SVG 1.1//EN" "http://www.w3.org/Graphics/SVG/1.1/DTD/svg11.dtd">
<svg width="100%" height="100%" viewBox="0 0 512 512" version="1.1" xmlns="http://www.w3.org/2000/svg" xmlns:xlink="http://www.w3.org/1999/xlink" xml:space="preserve" xmlns:serif="http://www.serif.com/" style="fill-rule:evenodd;clip-rule:evenodd;stroke-linecap:round;stroke-linejoin:round;stroke-miterlimit:1.5;">
    <g id="No-Avatar-2" serif:id="No Avatar 2" transform="matrix(-2.68956,1.0408e-15,-1.10482e-14,5.35696,21114.4,-3641.45)">
        <g transform="matrix(0.472828,2.77556e-17,1.12859e-15,0.240601,-1961.22,276.068)">
            <path d="M20543.4,1948.6C20547.2,1997.85 20537.7,2102.8 20419.6,2124.2" style="fill:none;stroke:white;stroke-width:36px;stroke-dasharray:180,180,0,0;"/>
        </g>
        <g transform="matrix(0.721113,0,7.11072e-32,0.366942,-6215.75,-1004.15)">
            <path d="M19459.7,4719.72C19459.7,4673.79 19422.4,4636.49 19376.5,4636.49C19330.5,4636.49 19293.2,4673.79 19293.2,4719.72C19293.2,4765.66 19330.5,4802.95 19376.5,4802.95C19422.4,4802.95 19459.7,4765.66 19459.7,4719.72ZM19360.4,4711.72C19368.8,4720.16 19384.1,4720.16 19392.5,4711.72C19394.1,4710.18 19394.1,4707.69 19392.5,4706.15C19391,4704.62 19388.5,4704.62 19387,4706.15C19381.5,4711.68 19371.5,4711.68 19365.9,4706.15C19364.4,4704.62 19361.9,4704.62 19360.4,4706.15C19358.8,4707.69 19358.8,4710.18 19360.4,4711.72ZM19339.8,4683.66C19345.6,4683.66 19350.4,4688.4 19350.4,4694.24C19350.4,4700.08 19345.6,4704.82 19339.8,4704.82C19334,4704.82 19329.2,4700.08 19329.2,4694.24C19329.2,4688.4 19334,4683.66 19339.8,4683.66ZM19413.1,4683.66C19418.9,4683.66 19423.7,4688.4 19423.7,4694.24C19423.7,4700.08 19418.9,4704.82 19413.1,4704.82C19407.3,4704.82 19402.5,4700.08 19402.5,4694.24C19402.5,4688.4 19407.3,4683.66 19413.1,4683.66Z" style="fill:white;"/>
        </g>
        <g transform="matrix(0.399656,-0.0544921,0.107088,0.203367,3214.37,666.782)">
            <path d="M10574,2997.83C10618.9,2952.96 10675.4,2998.29 10675.4,2998.29C10678,3000.35 10681.8,2999.91 10683.8,2997.32C10685.9,2994.72 10685.4,2990.95 10682.8,2988.89C10682.8,2988.89 10617.4,2937.42 10565.5,2989.34C10563.2,2991.68 10563.2,2995.49 10565.5,2997.83C10567.8,3000.17 10571.6,3000.17 10574,2997.83Z" style="fill:white;"/>
        </g>
        <g transform="matrix(0.399656,-0.0544921,0.107088,0.203367,3214.37,666.782)">
            <path d="M10566.4,2996.26C10594.7,2939.44 10651.8,2939.27 10651.8,2939.27C10655.1,2939.27 10657.8,2936.58 10657.8,2933.27C10657.8,2929.96 10655.1,2927.27 10651.8,2927.27C10651.8,2927.27 10587.5,2927.1 10555.7,2990.91C10554.2,2993.88 10555.4,2997.48 10558.4,2998.96C10561.4,3000.43 10565,2999.22 10566.4,2996.26Z" style="fill:white;"/>
        </g>
    </g>
</svg>
