<?xml version="1.0" encoding="UTF-8" standalone="no"?>
<!DOCTYPE svg PUBLIC "-//W3C//DTD SVG 1.1//EN" "http://www.w3.org/Graphics/SVG/1.1/DTD/svg11.dtd">
<svg width="100%" height="100%" viewBox="0 0 256 256" version="1.1" xmlns="http://www.w3.org/2000/svg" xmlns:xlink="http://www.w3.org/1999/xlink" xml:space="preserve" xmlns:serif="http://www.serif.com/" style="fill-rule:evenodd;clip-rule:evenodd;stroke-linejoin:round;stroke-miterlimit:2;">
    <g id="Clothing---Magic-Cape" serif:id="Clothing - Magic Cape" transform="matrix(4.5036,0,0,3.62876,-26639.6,-7315.95)">
        <g transform="matrix(0.787706,0,0,1.72947,4118.75,693.176)">
            <path d="M2325.7,767.484C2325.7,766.074 2323.67,764.93 2321.18,764.93L2312.14,764.93C2309.65,764.93 2307.62,766.074 2307.62,767.484L2307.62,773.391C2307.62,774.8 2309.65,775.945 2312.14,775.945L2321.18,775.945C2323.67,775.945 2325.7,774.8 2325.7,773.391L2325.7,767.484Z" style="fill:rgb(190,75,219);"/>
        </g>
        <g transform="matrix(0.787706,0,0,2.04696,4232.25,22.0148)">
            <path d="M2198.68,984.404C2198.68,980.883 2192.7,978.023 2185.32,978.023L2159.81,978.023C2152.44,978.023 2146.45,980.883 2146.45,984.404L2146.45,996.582C2146.45,1000.1 2152.44,1002.96 2159.81,1002.96L2185.32,1002.96C2192.7,1002.96 2198.68,1000.1 2198.68,996.582L2198.68,984.404Z" style="fill:rgb(95,61,196);"/>
        </g>
        <g transform="matrix(0.787706,0,0,0.97761,4232.25,1094.53)">
            <path d="M2163.19,963.366L2146.45,979.653L2146.45,957.81L2163.19,963.366Z" style="fill:rgb(132,94,247);"/>
        </g>
        <g transform="matrix(-0.787706,0,0,0.97761,7654.94,1094.53)">
            <path d="M2161.36,964.259L2146.45,979.653L2146.45,957.81L2161.36,964.259Z" style="fill:rgb(132,94,247);"/>
        </g>
        <g transform="matrix(0.606352,0,0,0.825241,5333.79,1248.88)">
            <path d="M1036.29,970.183L1005.13,943.268L975.13,970.416L975.13,994.796L1036.29,994.796L1036.29,970.183Z" style="fill:rgb(204,93,232);"/>
        </g>
        <g transform="matrix(0.606352,0,0,0.825241,5333.79,1248.88)">
            <path d="M1027.19,970.183L1005.13,939.346L984.223,970.085L984.223,994.796L1027.19,994.796L1027.19,970.183Z" style="fill:rgb(218,119,242);"/>
        </g>
        <g transform="matrix(0.702498,-0.871859,-3.31435e-13,1.38255,4428.67,2572.58)">
            <rect x="2127.21" y="964.142" width="27.814" height="1.911" style="fill:rgb(132,94,247);"/>
        </g>
        <g transform="matrix(-0.702498,-0.871859,3.31435e-13,1.38255,7458.55,2572.58)">
            <rect x="2127.21" y="964.142" width="27.814" height="1.911" style="fill:rgb(132,94,247);"/>
        </g>
        <g transform="matrix(-0.550025,-0.682628,3.31457e-13,1.38255,7134.21,2166.5)">
            <rect x="2127.21" y="964.142" width="27.814" height="1.911" style="fill:rgb(255,224,102);"/>
        </g>
        <g transform="matrix(0.550025,-0.682628,-3.31457e-13,1.38255,4753.01,2166.5)">
            <rect x="2127.21" y="964.142" width="27.814" height="1.911" style="fill:rgb(255,224,102);"/>
        </g>
        <g transform="matrix(0.303176,0,0,0.184101,5647.97,1886.68)">
            <rect x="975.13" y="937.901" width="61.157" height="56.895" style="fill:rgb(52,58,64);"/>
        </g>
        <g transform="matrix(0.289002,0,0,0.184101,5644.12,1886.68)">
            <rect x="975.13" y="937.901" width="61.157" height="56.895" style="fill:rgb(63,70,78);"/>
        </g>
        <g transform="matrix(0.453436,0,0,0.867541,5210.79,1214.13)">
            <rect x="1614.4" y="933.513" width="3.474" height="40.761" style="fill:rgb(134,46,156);"/>
        </g>
        <g transform="matrix(0.225131,0,0,0.295718,5705.53,1792.47)">
            <rect x="975.13" y="937.901" width="61.157" height="56.895" style="fill:rgb(52,58,64);"/>
        </g>
        <g transform="matrix(-0.118957,0,0,0.479818,6048.34,1609.33)">
            <rect x="975.13" y="937.901" width="61.157" height="56.895" style="fill:rgb(63,70,78);"/>
        </g>
        <g transform="matrix(0.225131,0,0,0.479818,5728.96,1609.33)">
            <rect x="975.13" y="937.901" width="61.157" height="56.895" style="fill:rgb(52,58,64);"/>
        </g>
        <g transform="matrix(0.112566,0,0,0.295718,5838.73,1792.47)">
            <rect x="975.13" y="937.901" width="61.157" height="56.895" style="fill:rgb(63,70,78);"/>
        </g>
        <g transform="matrix(0.31752,0,0,0.394069,4446.64,1760.96)">
            <g>
                <g transform="matrix(0.653535,0.377319,-0.377319,0.653535,4196.89,-346.636)">
                    <rect x="1316.52" y="929.364" width="9.74" height="20.846" style="fill:rgb(204,93,232);"/>
                </g>
                <g transform="matrix(0.87138,9.11906e-15,-0.19631,0.340019,3742.03,441.205)">
                    <rect x="1316.52" y="929.364" width="9.74" height="20.846" style="fill:rgb(190,75,219);"/>
                </g>
                <g transform="matrix(-0.653535,0.377319,0.377319,0.653535,5231.82,-346.912)">
                    <rect x="1316.52" y="929.364" width="9.74" height="20.846" style="fill:rgb(204,93,232);"/>
                </g>
                <g transform="matrix(-0.87138,5.03506e-15,0.188659,0.326768,5693.95,453.52)">
                    <rect x="1316.52" y="929.364" width="9.74" height="20.846" style="fill:rgb(190,75,219);"/>
                </g>
            </g>
        </g>
        <g transform="matrix(0.787706,0,0,0.97761,4231.18,1094.53)">
            <path d="M2169.69,960.048C2166.77,964.064 2161.85,966.106 2156.95,965.334C2152.05,964.561 2147.99,961.104 2146.45,956.386C2146.45,956.385 2146.45,956.385 2146.45,956.385C2146.45,956.385 2146.45,956.385 2146.45,956.385C2148.97,952.846 2153.04,950.744 2157.38,950.744C2164.32,950.744 2173.96,950.744 2173.96,950.744L2172.18,956.617C2172.18,956.617 2171.19,957.974 2169.69,960.048Z" style="fill:rgb(52,58,64);"/>
        </g>
        <g transform="matrix(-0.787706,0,0,0.97761,7656.02,1094.53)">
            <path d="M2169.69,960.048C2166.77,964.064 2161.85,966.106 2156.95,965.334C2152.05,964.561 2147.99,961.104 2146.45,956.386C2146.45,956.385 2146.45,956.385 2146.45,956.385C2146.45,956.385 2146.45,956.385 2146.45,956.385C2148.97,952.846 2153.04,950.744 2157.38,950.744C2164.32,950.744 2173.96,950.744 2173.96,950.744L2172.18,956.617C2172.18,956.617 2171.19,957.974 2169.69,960.048Z" style="fill:rgb(52,58,64);"/>
        </g>
        <g transform="matrix(0.695078,0,0,0.695078,1641.96,715.413)">
            <g transform="matrix(0.787706,0,0,0.97761,5142.93,1111.76)">
                <circle cx="1327.63" cy="792.48" r="5.435" style="fill:rgb(34,184,207);"/>
            </g>
            <g>
                <g transform="matrix(0.467193,0.579827,-0.467193,0.579827,5939.9,658.671)">
                    <path d="M1325.82,789.274C1325.82,788.866 1325.49,788.534 1325.08,788.534C1324.67,788.534 1324.34,788.866 1324.34,789.274L1324.34,795.718C1324.34,796.126 1324.67,796.457 1325.08,796.457C1325.49,796.457 1325.82,796.126 1325.82,795.718L1325.82,789.274Z" style="fill:rgb(24,100,171);"/>
                </g>
                <g transform="matrix(-0.467193,0.579827,0.467193,0.579827,6437.54,658.671)">
                    <path d="M1325.82,789.274C1325.82,788.866 1325.49,788.534 1325.08,788.534C1324.67,788.534 1324.34,788.866 1324.34,789.274L1324.34,795.718C1324.34,796.126 1324.67,796.457 1325.08,796.457C1325.49,796.457 1325.82,796.126 1325.82,795.718L1325.82,789.274Z" style="fill:rgb(24,100,171);"/>
                </g>
            </g>
        </g>
    </g>
</svg>
