<?xml version="1.0" encoding="UTF-8" standalone="no"?>
<!DOCTYPE svg PUBLIC "-//W3C//DTD SVG 1.1//EN" "http://www.w3.org/Graphics/SVG/1.1/DTD/svg11.dtd">
<svg width="100%" height="100%" viewBox="0 0 256 256" version="1.1" xmlns="http://www.w3.org/2000/svg" xmlns:xlink="http://www.w3.org/1999/xlink" xml:space="preserve" xmlns:serif="http://www.serif.com/" style="fill-rule:evenodd;clip-rule:evenodd;stroke-linecap:round;stroke-linejoin:round;stroke-miterlimit:1.5;">
    <g id="Clothing---Trousers" serif:id="Clothing - Trousers" transform="matrix(3.54751,0,0,3.54751,-7876.36,-2721.76)">
        <g transform="matrix(1,0,0,1,0.0152363,0)">
            <path d="M2264.29,771.667L2265.75,771.667C2276.37,771.667 2284.99,780.287 2284.99,790.904L2284.99,800.98C2284.99,806.036 2280.88,810.141 2275.83,810.141L2236.8,810.141C2231.75,810.141 2227.64,806.036 2227.64,800.98L2227.64,790.904C2227.64,780.287 2236.26,771.667 2246.88,771.667L2248.35,771.667C2248.35,776.066 2251.92,779.637 2256.32,779.637C2260.71,779.637 2264.29,776.066 2264.29,771.667Z" style="fill:rgb(255,236,153);"/>
        </g>
        <g transform="matrix(1,0,0,1,0.0152363,0)">
            <path d="M2264.29,771.667L2265.75,771.667C2276.37,771.667 2284.99,780.287 2284.99,790.904L2284.99,800.98C2284.99,806.036 2280.88,810.141 2275.83,810.141L2256.32,810.141L2256.32,779.637C2260.71,779.637 2264.29,776.066 2264.29,771.667Z" style="fill:rgb(255,224,102);"/>
        </g>
        <g transform="matrix(0.85403,0,0,0.681324,1397.43,145.402)">
            <path d="M1036.29,952.125C1036.29,944.275 1031.2,937.901 1024.94,937.901L986.477,937.901C980.214,937.901 975.13,944.275 975.13,952.125L975.13,994.796L1036.29,994.796L1036.29,952.125Z" style="fill:rgb(51,154,240);"/>
        </g>
        <g transform="matrix(0.427015,0,0,0.681324,1839.94,145.402)">
            <path d="M1036.29,952.214C1036.29,944.314 1026.06,937.901 1013.45,937.901L975.13,937.901L975.13,994.796L1036.29,994.796L1036.29,952.214Z" style="fill:rgb(34,139,230);"/>
        </g>
        <g transform="matrix(0.317091,0,0,0.376635,1921.01,462.418)">
            <rect x="975.13" y="937.901" width="61.157" height="56.895" style="fill:rgb(51,154,240);"/>
        </g>
        <g transform="matrix(0.159697,0,0,0.37123,2084.12,467.795)">
            <rect x="975.13" y="937.901" width="61.157" height="56.895" style="fill:rgb(34,139,230);"/>
        </g>
        <g transform="matrix(0.431157,0,0,0.126695,1819.41,697.145)">
            <rect x="975.13" y="937.901" width="61.157" height="56.895" style="fill:rgb(34,139,230);"/>
        </g>
        <g transform="matrix(0.317091,0,0,0.244536,1953.85,593.83)">
            <rect x="975.13" y="937.901" width="61.157" height="56.895" style="fill:rgb(51,154,240);"/>
        </g>
        <g transform="matrix(0.15585,0,0,0.376635,2120.94,462.418)">
            <rect x="975.13" y="937.901" width="61.157" height="56.895" style="fill:rgb(34,139,230);"/>
        </g>
        <g transform="matrix(0.333508,0,0,0.115355,1904.62,722.338)">
            <rect x="975.13" y="937.901" width="61.157" height="56.895" style="fill:rgb(77,171,247);"/>
        </g>
        <g transform="matrix(0.16979,0,0,0.115355,2074.27,722.338)">
            <rect x="975.13" y="937.901" width="61.157" height="56.895" style="fill:rgb(51,154,240);"/>
        </g>
        <g transform="matrix(0.333508,0,0,0.115355,1937.5,722.338)">
            <rect x="975.13" y="937.901" width="61.157" height="56.895" style="fill:rgb(77,171,247);"/>
        </g>
        <g transform="matrix(0.166754,0,0,0.115355,2110.31,722.338)">
            <rect x="975.13" y="937.901" width="61.157" height="56.895" style="fill:rgb(51,154,240);"/>
        </g>
        <g transform="matrix(0.644778,0,0,0.680516,1604.47,140.733)">
            <path d="M995.507,930.541C995.507,926.933 992.416,924.004 988.607,924.004C984.799,924.004 981.708,926.933 981.708,930.541L981.708,955.553C981.708,959.161 984.799,962.09 988.607,962.09C992.416,962.09 995.507,959.161 995.507,955.553L995.507,930.541Z" style="fill:rgb(34,139,230);"/>
        </g>
        <g transform="matrix(0.644778,0,0,0.680516,1633.41,140.733)">
            <path d="M995.507,930.541C995.507,926.933 992.416,924.004 988.607,924.004C984.799,924.004 981.708,926.933 981.708,930.541L981.708,955.553C981.708,959.161 984.799,962.09 988.607,962.09C992.416,962.09 995.507,959.161 995.507,955.553L995.507,930.541Z" style="fill:rgb(34,139,230);"/>
        </g>
        <g transform="matrix(0.805368,0,2.97665e-16,0.805368,-1544.22,258.283)">
            <g transform="matrix(1.12318,0,0,1.12318,3223.84,-274.828)">
                <circle cx="1315.27" cy="833.501" r="4.132" style="fill:rgb(229,135,255);"/>
            </g>
            <g transform="matrix(0.754762,-0.754762,0.996772,0.996772,2875.58,819.429)">
                <path d="M1314.6,834.71C1314.6,834.49 1314.37,834.312 1314.08,834.312C1313.78,834.312 1313.55,834.49 1313.55,834.71L1313.55,838.137C1313.55,838.357 1313.78,838.535 1314.08,838.535C1314.37,838.535 1314.6,838.357 1314.6,838.137L1314.6,834.71Z" style="fill:rgb(204,93,232);"/>
            </g>
            <g transform="matrix(-0.754762,-0.754762,-0.996772,0.996772,6526.65,819.429)">
                <path d="M1314.6,834.71C1314.6,834.49 1314.37,834.312 1314.08,834.312C1313.78,834.312 1313.55,834.49 1313.55,834.71L1313.55,838.137C1313.55,838.357 1313.78,838.535 1314.08,838.535C1314.37,838.535 1314.6,838.357 1314.6,838.137L1314.6,834.71Z" style="fill:rgb(204,93,232);"/>
            </g>
        </g>
        <g transform="matrix(0.805368,0,-2.97665e-16,0.805368,-1538.13,258.283)">
            <g transform="matrix(1.12318,0,0,1.12318,3252.2,-274.828)">
                <circle cx="1315.27" cy="833.501" r="4.132" style="fill:rgb(247,131,135);"/>
            </g>
            <g transform="matrix(0.754762,-0.754762,0.996772,0.996772,2903.94,819.429)">
                <path d="M1314.6,834.71C1314.6,834.49 1314.37,834.312 1314.08,834.312C1313.78,834.312 1313.55,834.49 1313.55,834.71L1313.55,838.137C1313.55,838.357 1313.78,838.535 1314.08,838.535C1314.37,838.535 1314.6,838.357 1314.6,838.137L1314.6,834.71Z" style="fill:rgb(250,82,82);"/>
            </g>
            <g transform="matrix(-0.754762,-0.754762,-0.996772,0.996772,6555.01,819.429)">
                <path d="M1314.6,834.71C1314.6,834.49 1314.37,834.312 1314.08,834.312C1313.78,834.312 1313.55,834.49 1313.55,834.71L1313.55,838.137C1313.55,838.357 1313.78,838.535 1314.08,838.535C1314.37,838.535 1314.6,838.357 1314.6,838.137L1314.6,834.71Z" style="fill:rgb(250,82,82);"/>
            </g>
        </g>
        <g transform="matrix(0.470131,0.0409047,-0.0409047,0.470131,1666.21,343.22)">
            <path d="M1326.42,837.168C1326.56,836.147 1327.43,835.384 1328.46,835.384C1329.48,835.384 1330.35,836.147 1330.49,837.168L1331.34,843.758L1337.88,842.536C1338.89,842.347 1339.88,842.938 1340.2,843.917C1340.52,844.895 1340.06,845.958 1339.13,846.399L1333.13,849.251L1336.31,855.086C1336.8,855.989 1336.55,857.118 1335.71,857.723C1334.88,858.327 1333.73,858.221 1333.02,857.473L1328.46,852.646L1323.89,857.473C1323.18,858.221 1322.03,858.327 1321.2,857.723C1320.37,857.118 1320.11,855.989 1320.6,855.086L1323.78,849.251L1317.78,846.399C1316.85,845.958 1316.39,844.895 1316.71,843.917C1317.03,842.938 1318.02,842.347 1319.04,842.536L1325.57,843.758L1326.42,837.168Z" style="fill:rgb(255,255,104);"/>
        </g>
        <g transform="matrix(0.200968,0.0538492,-0.0538492,0.200968,2015.63,564.075)">
            <path d="M1326.42,837.168C1326.56,836.147 1327.43,835.384 1328.46,835.384C1329.48,835.384 1330.35,836.147 1330.49,837.168L1331.34,843.758L1337.88,842.536C1338.89,842.347 1339.88,842.938 1340.2,843.917C1340.52,844.895 1340.06,845.958 1339.13,846.399L1333.13,849.251L1336.31,855.086C1336.8,855.989 1336.55,857.118 1335.71,857.723C1334.88,858.327 1333.73,858.221 1333.02,857.473L1328.46,852.646L1323.89,857.473C1323.18,858.221 1322.03,858.327 1321.2,857.723C1320.37,857.118 1320.11,855.989 1320.6,855.086L1323.78,849.251L1317.78,846.399C1316.85,845.958 1316.39,844.895 1316.71,843.917C1317.03,842.938 1318.02,842.347 1319.04,842.536L1325.57,843.758L1326.42,837.168Z" style="fill:rgb(255,255,104);"/>
        </g>
        <g transform="matrix(0.139841,0.0374703,-0.0374703,0.139841,2124.9,641.817)">
            <path d="M1326.42,837.168C1326.56,836.147 1327.43,835.384 1328.46,835.384C1329.48,835.384 1330.35,836.147 1330.49,837.168L1331.34,843.758L1337.88,842.536C1338.89,842.347 1339.88,842.938 1340.2,843.917C1340.52,844.895 1340.06,845.958 1339.13,846.399L1333.13,849.251L1336.31,855.086C1336.8,855.989 1336.55,857.118 1335.71,857.723C1334.88,858.327 1333.73,858.221 1333.02,857.473L1328.46,852.646L1323.89,857.473C1323.18,858.221 1322.03,858.327 1321.2,857.723C1320.37,857.118 1320.11,855.989 1320.6,855.086L1323.78,849.251L1317.78,846.399C1316.85,845.958 1316.39,844.895 1316.71,843.917C1317.03,842.938 1318.02,842.347 1319.04,842.536L1325.57,843.758L1326.42,837.168Z" style="fill:rgb(105,219,124);"/>
        </g>
        <g transform="matrix(0.159518,0.0427428,-0.0427428,0.159518,2060.82,633.151)">
            <path d="M1326.42,837.168C1326.56,836.147 1327.43,835.384 1328.46,835.384C1329.48,835.384 1330.35,836.147 1330.49,837.168L1331.34,843.758L1337.88,842.536C1338.89,842.347 1339.88,842.938 1340.2,843.917C1340.52,844.895 1340.06,845.958 1339.13,846.399L1333.13,849.251L1336.31,855.086C1336.8,855.989 1336.55,857.118 1335.71,857.723C1334.88,858.327 1333.73,858.221 1333.02,857.473L1328.46,852.646L1323.89,857.473C1323.18,858.221 1322.03,858.327 1321.2,857.723C1320.37,857.118 1320.11,855.989 1320.6,855.086L1323.78,849.251L1317.78,846.399C1316.85,845.958 1316.39,844.895 1316.71,843.917C1317.03,842.938 1318.02,842.347 1319.04,842.536L1325.57,843.758L1326.42,837.168Z" style="fill:rgb(102,217,232);"/>
        </g>
        <g transform="matrix(1.49371,0,-1.63726e-16,1.96075,1473.31,-4964.62)">
            <g transform="matrix(1.17419,0,0,1.17419,-81.5366,-515.956)">
                <g transform="matrix(1,0,0,1,-7.12807,-5.87511)">
                    <g transform="matrix(0.194569,0,0,0.148224,-629.624,2113.39)">
                        <circle cx="5903.72" cy="5637.83" r="8.426" style="fill:white;"/>
                    </g>
                    <g transform="matrix(0.0968971,0,0,0.0738167,-52.9959,2532.88)">
                        <circle cx="5903.72" cy="5637.83" r="8.426" style="fill:rgb(255,101,157);"/>
                    </g>
                </g>
                <g transform="matrix(1,0,0,1,0.539389,-5.87511)">
                    <g transform="matrix(0.194569,0,0,0.148224,-629.624,2113.39)">
                        <circle cx="5903.72" cy="5637.83" r="8.426" style="fill:white;"/>
                    </g>
                    <g transform="matrix(0.0968971,0,0,0.0738167,-52.9959,2532.88)">
                        <circle cx="5903.72" cy="5637.83" r="8.426" style="fill:rgb(255,101,157);"/>
                    </g>
                </g>
            </g>
            <g transform="matrix(0.18048,-7.72182e-19,1.76476e-18,0.148224,-538.337,2110.12)">
                <path d="M5886.57,5590.18C5910.69,5590.18 5915.32,5603.61 5915.32,5617C5915.32,5630.4 5902.44,5633.77 5886.57,5633.77C5870.71,5633.77 5857.83,5630.4 5857.83,5617C5857.83,5603.61 5862.46,5590.18 5886.57,5590.18Z" style="fill:white;"/>
            </g>
            <g transform="matrix(0.729594,0,1.79859e-32,0.729594,142.127,789.147)">
                <g transform="matrix(0.266158,0,0,0.20276,-1054.15,1804.6)">
                    <circle cx="5927.49" cy="5657.76" r="7.367" style="fill:rgb(250,162,193);"/>
                </g>
                <g transform="matrix(0.0641476,0,0,0.048868,143.266,2674.86)">
                    <circle cx="5927.49" cy="5657.76" r="7.367" style="fill:rgb(186,19,55);"/>
                </g>
                <g transform="matrix(0.194569,0,1.827e-33,0.148224,-629.52,2112.91)">
                    <path d="M5926.02,5659.75L5923.99,5661.78C5923.77,5662 5923.41,5662 5923.19,5661.78C5922.97,5661.56 5922.97,5661.2 5923.19,5660.98L5925.61,5658.55C5925.84,5658.33 5926.2,5658.33 5926.42,5658.55L5928.85,5660.98C5929.07,5661.2 5929.07,5661.56 5928.85,5661.78C5928.62,5662 5928.27,5662 5928.04,5661.78L5926.02,5659.75Z" style="fill:rgb(186,19,55);"/>
                </g>
            </g>
            <g transform="matrix(1,0,0,1,0.570551,-9.06366)">
                <g transform="matrix(0.194569,0,0,0.148224,-629.624,2113.39)">
                    <path d="M5907.28,5650.39C5907.28,5657.43 5916.15,5657.43 5916.15,5650.39" style="fill:none;stroke:rgb(194,37,92);stroke-width:1.13px;"/>
                </g>
                <g transform="matrix(0.194569,0,0,0.148224,-623.854,2113.39)">
                    <path d="M5907.28,5650.39C5907.28,5657.43 5916.15,5657.43 5916.15,5650.39" style="fill:none;stroke:rgb(194,37,92);stroke-width:1.13px;"/>
                </g>
            </g>
            <g transform="matrix(1,0,0,1,0.506415,-9.06366)">
                <g transform="matrix(0.194569,0,0,0.148224,-630.009,2113.01)">
                    <circle cx="5909.09" cy="5662.18" r="2.876" style="fill:rgb(250,162,193);"/>
                </g>
                <g transform="matrix(0.194569,0,0,0.148224,-622.316,2113.01)">
                    <circle cx="5909.09" cy="5662.18" r="2.876" style="fill:rgb(250,162,193);"/>
                </g>
            </g>
        </g>
        <g transform="matrix(0.80071,-0.121793,0.0981341,0.64517,-2915.13,266.207)">
            <g id="Heart-Icon" serif:id="Heart Icon" transform="matrix(0.180826,0,0,0.224421,6064.25,1409.86)">
                <path d="M752,2724.5C752,2732.04 740,2740 740,2740C740,2740 728,2732.04 728,2724.5C728,2720.91 730.91,2718 734.5,2718C736.816,2718 738.849,2719.21 740,2721.03C741.151,2719.21 743.184,2718 745.5,2718C749.09,2718 752,2720.91 752,2724.5Z" style="fill:rgb(255,107,107);fill-rule:nonzero;"/>
            </g>
            <g id="Heart-Icon1" serif:id="Heart Icon" transform="matrix(0.180826,0,0,0.224421,6070.27,1409.86)">
                <path d="M752,2724.5C752,2732.04 740,2740 740,2740C740,2740 728,2732.04 728,2724.5C728,2720.91 730.91,2718 734.5,2718C736.816,2718 738.849,2719.21 740,2721.03C741.151,2719.21 743.184,2718 745.5,2718C749.09,2718 752,2720.91 752,2724.5Z" style="fill:rgb(255,107,107);fill-rule:nonzero;"/>
            </g>
            <g id="Heart-Icon2" serif:id="Heart Icon" transform="matrix(0.180826,0,0,0.224421,6076.18,1409.86)">
                <path d="M752,2724.5C752,2732.04 740,2740 740,2740C740,2740 728,2732.04 728,2724.5C728,2720.91 730.91,2718 734.5,2718C736.816,2718 738.849,2719.21 740,2721.03C741.151,2719.21 743.184,2718 745.5,2718C749.09,2718 752,2720.91 752,2724.5Z" style="fill:rgb(255,107,107);fill-rule:nonzero;"/>
            </g>
            <g id="Heart-Icon3" serif:id="Heart Icon" transform="matrix(0.180826,0,0,0.224421,6082.16,1409.86)">
                <path d="M752,2724.5C752,2732.04 740,2740 740,2740C740,2740 728,2732.04 728,2724.5C728,2720.91 730.91,2718 734.5,2718C736.816,2718 738.849,2719.21 740,2721.03C741.151,2719.21 743.184,2718 745.5,2718C749.09,2718 752,2720.91 752,2724.5Z" style="fill:rgb(24,100,171);fill-rule:nonzero;"/>
            </g>
            <g id="Heart-Icon4" serif:id="Heart Icon" transform="matrix(0.180826,0,0,0.224421,6088.29,1409.86)">
                <path d="M752,2724.5C752,2732.04 740,2740 740,2740C740,2740 728,2732.04 728,2724.5C728,2720.91 730.91,2718 734.5,2718C736.816,2718 738.849,2719.21 740,2721.03C741.151,2719.21 743.184,2718 745.5,2718C749.09,2718 752,2720.91 752,2724.5Z" style="fill:rgb(24,100,171);fill-rule:nonzero;"/>
            </g>
        </g>
    </g>
</svg>
