<?xml version="1.0" encoding="UTF-8" standalone="no"?>
<!DOCTYPE svg PUBLIC "-//W3C//DTD SVG 1.1//EN" "http://www.w3.org/Graphics/SVG/1.1/DTD/svg11.dtd">
<svg width="100%" height="100%" viewBox="0 0 256 256" version="1.1" xmlns="http://www.w3.org/2000/svg" xmlns:xlink="http://www.w3.org/1999/xlink" xml:space="preserve" xmlns:serif="http://www.serif.com/" style="fill-rule:evenodd;clip-rule:evenodd;stroke-linecap:round;stroke-linejoin:round;stroke-miterlimit:1.5;">
    <g id="Clothing---Dress" serif:id="Clothing - Dress" transform="matrix(3.54751,0,0,3.54751,-8886.42,-1559.24)">
        <g transform="matrix(4.16395,0,0,0.851008,-7814,80.4592)">
            <path d="M2493.7,449.454C2493.7,445.773 2493.09,442.785 2492.34,442.785L2481.33,442.785C2480.57,442.785 2479.96,445.773 2479.96,449.454L2479.96,466.793C2479.96,470.474 2480.57,473.463 2481.33,473.463L2492.34,473.463C2493.09,473.463 2493.7,470.474 2493.7,466.793L2493.7,449.454Z" style="fill:rgb(240,62,71);"/>
        </g>
        <g transform="matrix(1,0,0,1,27.3055,0)">
            <path d="M2521.01,444.978L2528.1,444.978C2536.57,444.978 2543.44,451.851 2543.44,460.317L2543.44,468.569C2543.44,472.48 2540.27,475.656 2536.35,475.656L2491.14,475.656C2487.23,475.656 2484.05,472.48 2484.05,468.569L2484.05,460.317C2484.05,451.851 2490.93,444.978 2499.39,444.978L2506.48,444.978C2507.61,447.886 2510.44,449.949 2513.75,449.949C2517.05,449.949 2519.88,447.886 2521.01,444.978Z" style="fill:rgb(255,107,119);"/>
        </g>
        <g transform="matrix(1,0,0,1,27.3055,0)">
            <path d="M2521.53,442.208L2523.68,442.208C2530.82,442.208 2536.62,448.004 2536.62,455.144L2536.62,487.068L2490.87,487.068L2490.87,455.144C2490.87,448.004 2496.67,442.208 2503.81,442.208L2505.96,442.208C2505.98,446.485 2509.46,449.949 2513.75,449.949C2518.03,449.949 2521.51,446.485 2521.53,442.208Z" style="fill:rgb(250,86,97);"/>
        </g>
        <g transform="matrix(1,0,0,1,27.3055,0)">
            <path d="M2521.53,442.208L2523.68,442.208C2530.82,442.208 2536.62,448.004 2536.62,455.144L2536.62,487.068L2513.75,487.068L2513.75,449.949C2518.03,449.949 2521.51,446.485 2521.53,442.208Z" style="fill:rgb(249,65,80);"/>
        </g>
        <g transform="matrix(1,0,0,1,-0.309468,2.70339)">
            <g id="Cat" transform="matrix(0.371404,0,0,0.299258,242.952,-119.805)">
                <g transform="matrix(1,0,0,1,-0.0753988,0)">
                    <g transform="matrix(-0.660802,-0.549575,-0.305289,0.565403,7347.97,2142.98)">
                        <path d="M1310.54,884.586C1311.02,883.634 1311.78,883.071 1312.59,883.071C1313.4,883.071 1314.16,883.634 1314.63,884.586C1318.76,892.844 1327.7,910.714 1327.7,910.714L1297.48,910.714C1297.48,910.714 1306.41,892.844 1310.54,884.586Z" style="fill:white;"/>
                    </g>
                    <g transform="matrix(0.660802,-0.549575,0.305289,0.565403,5029.05,2142.98)">
                        <path d="M1310.54,884.586C1311.02,883.634 1311.78,883.071 1312.59,883.071C1313.4,883.071 1314.16,883.634 1314.63,884.586C1318.76,892.844 1327.7,910.714 1327.7,910.714L1297.48,910.714C1297.48,910.714 1306.41,892.844 1310.54,884.586Z" style="fill:white;"/>
                    </g>
                </g>
                <g transform="matrix(1.05667,0,0,1.31141,4787.4,743.218)">
                    <path d="M1327.39,901.028C1340.36,901.839 1350.65,913.136 1350.65,924.748C1350.65,936.802 1339.56,944.661 1325.9,944.661C1312.23,944.661 1301.14,936.802 1301.14,924.748C1301.14,913.136 1311.44,901.839 1324.41,901.028L1324.41,905.926L1320.31,905.926C1319.49,905.926 1318.82,906.594 1318.82,907.417C1318.82,908.24 1319.49,908.908 1320.31,908.908L1324.41,908.908L1324.41,912.387C1324.41,913.209 1325.08,913.877 1325.9,913.877C1326.72,913.877 1327.39,913.209 1327.39,912.387L1327.39,908.908L1331.49,908.908C1332.31,908.908 1332.98,908.24 1332.98,907.417C1332.98,906.594 1332.31,905.926 1331.49,905.926L1327.39,905.926L1327.39,901.028ZM1334.06,934.275C1334.5,934.275 1334.86,933.917 1334.86,933.475C1334.86,933.034 1334.5,932.676 1334.06,932.676L1317.74,932.676C1317.3,932.676 1316.94,933.034 1316.94,933.475C1316.94,933.917 1317.3,934.275 1317.74,934.275L1334.06,934.275ZM1312.77,917.363C1315.75,917.363 1318.17,919.781 1318.17,922.759C1318.17,925.737 1315.75,928.155 1312.77,928.155C1309.79,928.155 1307.37,925.737 1307.37,922.759C1307.37,919.781 1309.79,917.363 1312.77,917.363ZM1339.03,917.363C1342,917.363 1344.42,919.781 1344.42,922.759C1344.42,925.737 1342,928.155 1339.03,928.155C1336.05,928.155 1333.63,925.737 1333.63,922.759C1333.63,919.781 1336.05,917.363 1339.03,917.363Z" style="fill:white;"/>
                </g>
            </g>
            <g transform="matrix(0.631489,0,0,0.50882,-1366.26,-527.892)">
                <g transform="matrix(0.718196,0,0,0.576885,5236.8,1408.39)">
                    <path d="M1325.87,885.38C1325.87,884.444 1325.38,883.685 1324.77,883.685C1324.17,883.685 1323.67,884.444 1323.67,885.38L1323.67,892.527C1323.67,893.462 1324.17,894.221 1324.77,894.221C1325.38,894.221 1325.87,893.462 1325.87,892.527L1325.87,885.38Z" style="fill:white;"/>
                </g>
                <g transform="matrix(0.621976,-0.445671,0.232411,0.499597,5150.46,2071.31)">
                    <path d="M1325.87,885.38C1325.87,884.444 1325.38,883.685 1324.77,883.685C1324.17,883.685 1323.67,884.444 1323.67,885.38L1323.67,892.527C1323.67,893.462 1324.17,894.221 1324.77,894.221C1325.38,894.221 1325.87,893.462 1325.87,892.527L1325.87,885.38Z" style="fill:white;"/>
                </g>
                <g transform="matrix(-0.621976,-0.445671,-0.232411,0.499597,7226.03,2071.31)">
                    <path d="M1325.87,885.38C1325.87,884.444 1325.38,883.685 1324.77,883.685C1324.17,883.685 1323.67,884.444 1323.67,885.38L1323.67,892.527C1323.67,893.462 1324.17,894.221 1324.77,894.221C1325.38,894.221 1325.87,893.462 1325.87,892.527L1325.87,885.38Z" style="fill:white;"/>
                </g>
            </g>
            <g transform="matrix(0.631489,0,0,-0.50882,-1366.26,1457.42)">
                <g transform="matrix(0.718196,0,0,0.576885,5236.8,1408.39)">
                    <path d="M1325.87,885.38C1325.87,884.444 1325.38,883.685 1324.77,883.685C1324.17,883.685 1323.67,884.444 1323.67,885.38L1323.67,892.527C1323.67,893.462 1324.17,894.221 1324.77,894.221C1325.38,894.221 1325.87,893.462 1325.87,892.527L1325.87,885.38Z" style="fill:white;"/>
                </g>
                <g transform="matrix(0.621976,-0.445671,0.232411,0.499597,5150.46,2071.31)">
                    <path d="M1325.87,885.38C1325.87,884.444 1325.38,883.685 1324.77,883.685C1324.17,883.685 1323.67,884.444 1323.67,885.38L1323.67,892.527C1323.67,893.462 1324.17,894.221 1324.77,894.221C1325.38,894.221 1325.87,893.462 1325.87,892.527L1325.87,885.38Z" style="fill:white;"/>
                </g>
                <g transform="matrix(-0.621976,-0.445671,-0.232411,0.499597,7226.03,2071.31)">
                    <path d="M1325.87,885.38C1325.87,884.444 1325.38,883.685 1324.77,883.685C1324.17,883.685 1323.67,884.444 1323.67,885.38L1323.67,892.527C1323.67,893.462 1324.17,894.221 1324.77,894.221C1325.38,894.221 1325.87,893.462 1325.87,892.527L1325.87,885.38Z" style="fill:white;"/>
                </g>
            </g>
        </g>
        <g>
            <g transform="matrix(0.901339,0,0,0.830203,274.19,86.4295)">
                <rect x="2489.58" y="481.69" width="50.833" height="27.326" style="fill:rgb(28,126,214);"/>
            </g>
            <g transform="matrix(0.451613,0,0,0.830203,1418.17,86.4295)">
                <rect x="2486.25" y="481.69" width="50.847" height="27.326" style="fill:rgb(25,113,194);"/>
            </g>
        </g>
        <g transform="matrix(1,0,0,1,-0.352337,-2.12628)">
            <g transform="matrix(0.498723,0,0,0.401845,-554.275,-320.004)">
                <g transform="matrix(0.787706,0,0,0.97761,5144.01,1049.71)">
                    <path d="M1314.5,1004.98C1314.5,999.503 1310.05,995.058 1304.58,995.058C1299.1,995.058 1294.65,999.503 1294.65,1004.98L1294.65,1014.9L1314.5,1014.9L1314.5,1004.98Z" style="fill:rgb(97,255,242);"/>
                </g>
                <g>
                    <g transform="matrix(0.636892,0,0,0.790437,5338.72,1240.48)">
                        <circle cx="1298.59" cy="1013.75" r="3.083" style="fill:rgb(97,255,242);"/>
                    </g>
                    <g transform="matrix(0.636892,0,0,0.790437,5342.62,1240.48)">
                        <circle cx="1298.59" cy="1013.75" r="3.083" style="fill:rgb(97,255,242);"/>
                    </g>
                    <g transform="matrix(0.636892,0,0,0.790437,5346.52,1240.48)">
                        <circle cx="1298.59" cy="1013.75" r="3.083" style="fill:rgb(97,255,242);"/>
                    </g>
                    <g transform="matrix(0.636892,0,0,0.790437,5350.42,1240.48)">
                        <circle cx="1298.59" cy="1013.75" r="3.083" style="fill:rgb(97,255,242);"/>
                    </g>
                </g>
                <g transform="matrix(1,0,0,-1,0.245078,4074.41)">
                    <g transform="matrix(0.787706,0,0,0.712817,5144.78,1317.36)">
                        <path d="M1298.3,1012.45L1299.95,1009.15L1301.6,1012.45" style="fill:none;stroke:rgb(52,58,64);stroke-width:1.07px;"/>
                    </g>
                    <g transform="matrix(0.787706,0,0,0.712817,5147.36,1317.36)">
                        <path d="M1298.3,1012.45L1299.95,1009.15L1301.6,1012.45" style="fill:none;stroke:rgb(52,58,64);stroke-width:1.07px;"/>
                    </g>
                    <g transform="matrix(0.787706,0,0,0.712817,5150.05,1317.36)">
                        <path d="M1298.3,1012.45L1299.95,1009.15L1301.6,1012.45" style="fill:none;stroke:rgb(52,58,64);stroke-width:1.07px;"/>
                    </g>
                </g>
                <g transform="matrix(1,0,0,1,0.411321,-1.75166)">
                    <g transform="matrix(0.787706,0,0,0.97761,5144.02,1049.71)">
                        <circle cx="1300.46" cy="1005.74" r="1.912" style="fill:rgb(52,58,64);"/>
                    </g>
                    <g transform="matrix(0.787706,0,0,0.97761,5149.66,1049.71)">
                        <circle cx="1300.46" cy="1005.74" r="1.912" style="fill:rgb(52,58,64);"/>
                    </g>
                </g>
            </g>
            <g transform="matrix(0.498723,0,2.9681e-17,0.401845,-518.788,-320.004)">
                <g transform="matrix(0.787706,0,0,0.97761,5144.01,1049.71)">
                    <path d="M1314.5,1004.98C1314.5,999.503 1310.05,995.058 1304.58,995.058C1299.1,995.058 1294.65,999.503 1294.65,1004.98L1294.65,1014.9L1314.5,1014.9L1314.5,1004.98Z" style="fill:rgb(255,255,104);"/>
                </g>
                <g>
                    <g transform="matrix(0.636892,0,0,0.790437,5338.72,1240.48)">
                        <circle cx="1298.59" cy="1013.75" r="3.083" style="fill:rgb(255,255,104);"/>
                    </g>
                    <g transform="matrix(0.636892,0,0,0.790437,5342.62,1240.48)">
                        <circle cx="1298.59" cy="1013.75" r="3.083" style="fill:rgb(255,255,104);"/>
                    </g>
                    <g transform="matrix(0.636892,0,0,0.790437,5346.52,1240.48)">
                        <circle cx="1298.59" cy="1013.75" r="3.083" style="fill:rgb(255,255,104);"/>
                    </g>
                    <g transform="matrix(0.636892,0,0,0.790437,5350.42,1240.48)">
                        <circle cx="1298.59" cy="1013.75" r="3.083" style="fill:rgb(255,255,104);"/>
                    </g>
                </g>
                <g transform="matrix(0.787706,0,0,-0.712817,5147.61,2757.05)">
                    <path d="M1298.3,1012.45L1299.95,1009.15L1301.6,1012.45" style="fill:none;stroke:rgb(52,58,64);stroke-width:1.07px;"/>
                </g>
                <g transform="matrix(1,0,0,1,0.411321,-1.75166)">
                    <g transform="matrix(0.787706,0,0,0.97761,5144.02,1049.71)">
                        <circle cx="1300.46" cy="1005.74" r="1.912" style="fill:rgb(52,58,64);"/>
                    </g>
                    <g transform="matrix(0.787706,0,0,0.97761,5149.66,1049.71)">
                        <circle cx="1300.46" cy="1005.74" r="1.912" style="fill:rgb(52,58,64);"/>
                    </g>
                </g>
            </g>
            <g transform="matrix(0.498723,0,0,0.401845,-536.532,-320.004)">
                <g transform="matrix(0.787706,0,0,0.97761,5144.01,1049.71)">
                    <path d="M1314.5,1004.98C1314.5,999.503 1310.05,995.058 1304.58,995.058C1299.1,995.058 1294.65,999.503 1294.65,1004.98L1294.65,1014.9L1314.5,1014.9L1314.5,1004.98Z" style="fill:rgb(169,250,108);"/>
                </g>
                <g>
                    <g transform="matrix(0.636892,0,0,0.790437,5338.72,1240.48)">
                        <circle cx="1298.59" cy="1013.75" r="3.083" style="fill:rgb(169,250,108);"/>
                    </g>
                    <g transform="matrix(0.636892,0,0,0.790437,5342.62,1240.48)">
                        <circle cx="1298.59" cy="1013.75" r="3.083" style="fill:rgb(169,250,108);"/>
                    </g>
                    <g transform="matrix(0.636892,0,0,0.790437,5346.52,1240.48)">
                        <circle cx="1298.59" cy="1013.75" r="3.083" style="fill:rgb(169,250,108);"/>
                    </g>
                    <g transform="matrix(0.636892,0,0,0.790437,5350.42,1240.48)">
                        <circle cx="1298.59" cy="1013.75" r="3.083" style="fill:rgb(169,250,108);"/>
                    </g>
                </g>
                <g transform="matrix(1,0,0,-1,-1.04851,4074.41)">
                    <g transform="matrix(0.787706,0,0,-0.712817,5147.36,2758.4)">
                        <path d="M1298.3,1012.45L1299.95,1009.15L1301.6,1012.45" style="fill:none;stroke:rgb(52,58,64);stroke-width:1.07px;"/>
                    </g>
                    <g transform="matrix(0.787706,0,0,-0.712817,5150.05,2758.4)">
                        <path d="M1298.3,1012.45L1299.95,1009.15L1301.6,1012.45" style="fill:none;stroke:rgb(52,58,64);stroke-width:1.07px;"/>
                    </g>
                </g>
                <g transform="matrix(1,0,0,1,0.411321,-1.75166)">
                    <g transform="matrix(0.787706,0,0,0.97761,5144.02,1049.71)">
                        <circle cx="1300.46" cy="1005.74" r="1.912" style="fill:rgb(52,58,64);"/>
                    </g>
                    <g transform="matrix(0.787706,0,0,0.97761,5149.66,1049.71)">
                        <circle cx="1300.46" cy="1005.74" r="1.912" style="fill:rgb(52,58,64);"/>
                    </g>
                </g>
            </g>
        </g>
        <g transform="matrix(1,0,0,1,27.5698,0.703803)">
            <path d="M2501.55,505.696L2504.75,505.696C2505.05,505.696 2505.29,505.457 2505.29,505.163C2505.29,504.869 2505.05,504.63 2504.75,504.63L2501.55,504.63C2501.26,504.63 2501.02,504.869 2501.02,505.163C2501.02,505.457 2501.26,505.696 2501.55,505.696ZM2507.95,505.696L2511.15,505.696C2511.45,505.696 2511.69,505.457 2511.69,505.163C2511.69,504.869 2511.45,504.63 2511.15,504.63L2507.95,504.63C2507.66,504.63 2507.42,504.869 2507.42,505.163C2507.42,505.457 2507.66,505.696 2507.95,505.696ZM2495.15,505.696L2498.35,505.696C2498.65,505.696 2498.89,505.457 2498.89,505.163C2498.89,504.869 2498.65,504.63 2498.35,504.63L2495.15,504.63C2494.86,504.63 2494.62,504.869 2494.62,505.163C2494.62,505.457 2494.86,505.696 2495.15,505.696Z" style="fill:white;"/>
        </g>
        <g transform="matrix(1,0,0,1,54.3723,0.703803)">
            <path d="M2501.55,505.696L2504.75,505.696C2505.05,505.696 2505.29,505.457 2505.29,505.163C2505.29,504.869 2505.05,504.63 2504.75,504.63L2501.55,504.63C2501.26,504.63 2501.02,504.869 2501.02,505.163C2501.02,505.457 2501.26,505.696 2501.55,505.696ZM2488.75,505.696L2491.95,505.696C2492.25,505.696 2492.49,505.457 2492.49,505.163C2492.49,504.869 2492.25,504.63 2491.95,504.63L2488.75,504.63C2488.46,504.63 2488.22,504.869 2488.22,505.163C2488.22,505.457 2488.46,505.696 2488.75,505.696ZM2495.15,505.696L2498.35,505.696C2498.65,505.696 2498.89,505.457 2498.89,505.163C2498.89,504.869 2498.65,504.63 2498.35,504.63L2495.15,504.63C2494.86,504.63 2494.62,504.869 2494.62,505.163C2494.62,505.457 2494.86,505.696 2495.15,505.696Z" style="fill:rgb(116,192,252);"/>
        </g>
        <g transform="matrix(1,0,0,1,27.3055,0)">
            <circle cx="2504.44" cy="495.44" r="0.895" style="fill:rgb(252,194,215);"/>
        </g>
        <g transform="matrix(1,0,0,1,45.5493,0)">
            <circle cx="2504.44" cy="495.44" r="0.895" style="fill:rgb(208,191,255);"/>
        </g>
    </g>
</svg>
