<?xml version="1.0" encoding="UTF-8" standalone="no"?>
<!DOCTYPE svg PUBLIC "-//W3C//DTD SVG 1.1//EN" "http://www.w3.org/Graphics/SVG/1.1/DTD/svg11.dtd">
<svg width="100%" height="100%" viewBox="0 0 256 256" version="1.1" xmlns="http://www.w3.org/2000/svg" xmlns:xlink="http://www.w3.org/1999/xlink" xml:space="preserve" xmlns:serif="http://www.serif.com/" style="fill-rule:evenodd;clip-rule:evenodd;stroke-linejoin:round;stroke-miterlimit:2;">
    <g id="Hat---Monster" serif:id="Hat - Monster" transform="matrix(0.899063,0,0,0.899063,-2950.82,-1089.62)">
        <g transform="matrix(4.0875,-2.96333e-16,5.26927e-16,7.26822,-8100.48,-6679.75)">
            <g transform="matrix(0.866025,-0.28119,0.889079,0.866025,-609.874,942.328)">
                <g transform="matrix(0.38393,4.5947e-18,1.42705e-17,0.266432,1031.96,618.905)">
                    <path d="M4644.28,1803.47C4644.28,1797.11 4637.91,1791.95 4630.07,1791.95C4622.22,1791.95 4615.86,1797.11 4615.86,1803.47L4615.86,1828.94C4615.86,1835.29 4622.22,1840.45 4630.07,1840.45C4637.91,1840.45 4644.28,1835.29 4644.28,1828.94L4644.28,1803.47Z" style="fill:rgb(252,196,25);"/>
                </g>
                <g transform="matrix(0.133246,0,0,0.130886,2192.64,863.911)">
                    <path d="M4644.28,1800.09C4644.28,1795.6 4637.91,1791.95 4630.07,1791.95C4622.22,1791.95 4615.86,1795.6 4615.86,1800.09L4615.86,1832.32C4615.86,1836.81 4622.22,1840.45 4630.07,1840.45C4637.91,1840.45 4644.28,1836.81 4644.28,1832.32L4644.28,1800.09Z" style="fill:rgb(118,63,51);"/>
                </g>
            </g>
            <g transform="matrix(0.866025,0.28119,-0.889079,0.866025,1382.88,-637.722)">
                <g transform="matrix(0.38393,4.5947e-18,1.42705e-17,0.266432,1031.96,618.905)">
                    <path d="M4644.28,1803.47C4644.28,1797.11 4637.91,1791.95 4630.07,1791.95C4622.22,1791.95 4615.86,1797.11 4615.86,1803.47L4615.86,1828.94C4615.86,1835.29 4622.22,1840.45 4630.07,1840.45C4637.91,1840.45 4644.28,1835.29 4644.28,1828.94L4644.28,1803.47Z" style="fill:rgb(245,159,0);"/>
                </g>
                <g transform="matrix(0.133246,0,0,0.130886,2192.64,863.911)">
                    <path d="M4644.28,1800.09C4644.28,1795.6 4637.91,1791.95 4630.07,1791.95C4622.22,1791.95 4615.86,1795.6 4615.86,1800.09L4615.86,1832.32C4615.86,1836.81 4622.22,1840.45 4630.07,1840.45C4637.91,1840.45 4644.28,1836.81 4644.28,1832.32L4644.28,1800.09Z" style="fill:rgb(118,63,51);"/>
                </g>
            </g>
        </g>
        <g transform="matrix(1,0,0,1,13.976,-402.439)">
            <g transform="matrix(1,0,0,1,-246.504,39.6928)">
                <path d="M3599.16,1647.32C3600.08,1645.25 3602.21,1643.98 3604.47,1644.15C3606.74,1644.32 3608.65,1645.89 3609.26,1648.07C3614.94,1668.49 3623.24,1685.02 3633.97,1697.95L3597.58,1712.36C3590.72,1688.96 3590.26,1667.05 3599.16,1647.32Z" style="fill:rgb(255,147,21);"/>
            </g>
            <g transform="matrix(-1,0,0,1,7068.39,39.6928)">
                <path d="M3599.16,1647.32C3600.08,1645.25 3602.21,1643.98 3604.47,1644.15C3606.74,1644.32 3608.65,1645.89 3609.26,1648.07C3614.94,1668.49 3623.24,1685.02 3633.97,1697.95L3597.58,1712.36C3590.72,1688.96 3590.26,1667.05 3599.16,1647.32Z" style="fill:rgb(239,103,3);"/>
            </g>
        </g>
        <g transform="matrix(0.779103,0,0,0.825871,2390.73,871.339)">
            <path d="M1327.05,549.427C1389.62,549.427 1442.29,592.187 1457.4,650.056C1459.53,658.163 1457.59,666.744 1452.13,673.323C1446.68,679.902 1438.32,683.746 1429.46,683.746C1377.64,684.128 1276.46,684.128 1224.64,684.128C1215.66,684.129 1207.18,680.231 1201.65,673.559C1196.12,666.887 1194.15,658.185 1196.31,649.964C1211.81,592.187 1264.48,549.427 1327.05,549.427Z" style="fill:rgb(253,191,54);"/>
            <clipPath id="_clip1">
                <path d="M1327.05,549.427C1389.62,549.427 1442.29,592.187 1457.4,650.056C1459.53,658.163 1457.59,666.744 1452.13,673.323C1446.68,679.902 1438.32,683.746 1429.46,683.746C1377.64,684.128 1276.46,684.128 1224.64,684.128C1215.66,684.129 1207.18,680.231 1201.65,673.559C1196.12,666.887 1194.15,658.185 1196.31,649.964C1211.81,592.187 1264.48,549.427 1327.05,549.427Z"/>
            </clipPath>
            <g clip-path="url(#_clip1)">
                <g transform="matrix(1.21084,0,0,1.21084,-279.799,-187.835)">
                    <path d="M1307.74,610.558C1314.01,609.458 1320.46,608.884 1327.05,608.884C1388.45,608.884 1438.3,658.731 1438.3,720.13L1381.8,720.13C1373.52,674.497 1353.46,618.578 1307.74,610.558Z" style="fill:rgb(250,176,5);"/>
                </g>
            </g>
        </g>
        <g transform="matrix(1,0,0,1,-11.3135,16.105)">
            <path d="M3360.28,1359.61C3360.44,1358.87 3361.1,1358.35 3361.85,1358.35C3362.6,1358.35 3363.25,1358.87 3363.42,1359.61L3364.67,1365.19L3370.37,1364.65C3371.12,1364.58 3371.81,1365.04 3372.05,1365.76C3372.28,1366.48 3371.99,1367.26 3371.34,1367.64L3366.41,1370.56L3368.68,1375.81C3368.98,1376.5 3368.76,1377.31 3368.15,1377.75C3367.54,1378.19 3366.71,1378.15 3366.14,1377.65L3361.85,1373.87L3357.55,1377.65C3356.99,1378.15 3356.15,1378.19 3355.55,1377.75C3354.93,1377.31 3354.72,1376.5 3355.01,1375.81L3357.28,1370.56L3352.36,1367.64C3351.71,1367.26 3351.42,1366.48 3351.65,1365.76C3351.88,1365.04 3352.58,1364.58 3353.33,1364.65L3359.03,1365.19L3360.28,1359.61Z" style="fill:rgb(255,236,153);"/>
        </g>
        <g transform="matrix(1,0,0,1,137.593,12.2685)">
            <path d="M3360.28,1359.61C3360.44,1358.87 3361.1,1358.35 3361.85,1358.35C3362.6,1358.35 3363.25,1358.87 3363.42,1359.61L3364.67,1365.19L3370.37,1364.65C3371.12,1364.58 3371.81,1365.04 3372.05,1365.76C3372.28,1366.48 3371.99,1367.26 3371.34,1367.64L3366.41,1370.56L3368.68,1375.81C3368.98,1376.5 3368.76,1377.31 3368.15,1377.75C3367.54,1378.19 3366.71,1378.15 3366.14,1377.65L3361.85,1373.87L3357.55,1377.65C3356.99,1378.15 3356.15,1378.19 3355.55,1377.75C3354.93,1377.31 3354.72,1376.5 3355.01,1375.81L3357.28,1370.56L3352.36,1367.64C3351.71,1367.26 3351.42,1366.48 3351.65,1365.76C3351.88,1365.04 3352.58,1364.58 3353.33,1364.65L3359.03,1365.19L3360.28,1359.61Z" style="fill:rgb(240,140,0);"/>
        </g>
        <g transform="matrix(1,0,0,1,13.6954,-390.473)">
            <g transform="matrix(1.46072,0.276988,-0.276988,1.46072,-1077.79,-1757.06)">
                <path d="M3384.23,1756.2C3384.54,1755.48 3385.26,1755.02 3386.04,1755.02C3386.83,1755.02 3387.54,1755.48 3387.86,1756.2C3390.31,1761.83 3394.4,1771.19 3394.4,1771.19L3377.68,1771.19C3377.68,1771.19 3381.77,1761.83 3384.23,1756.2Z" style="fill:white;"/>
            </g>
            <g transform="matrix(-1.46072,0.276988,0.276988,1.46072,7901.35,-1758.52)">
                <path d="M3384.23,1756.2C3384.54,1755.48 3385.26,1755.02 3386.04,1755.02C3386.83,1755.02 3387.54,1755.48 3387.86,1756.2C3390.31,1761.83 3394.4,1771.19 3394.4,1771.19L3377.68,1771.19C3377.68,1771.19 3381.77,1761.83 3384.23,1756.2Z" style="fill:white;"/>
            </g>
            <g transform="matrix(4.26681,-1.21309e-16,2.19693e-16,1.1884,985.082,1332.09)">
                <path d="M557.04,365.843C558.777,368.438 561.228,370.067 563.933,370.894C565.418,371.349 566.98,371.561 568.542,371.568C569.706,371.574 570.869,371.488 572.001,371.252C575.158,370.595 578.067,368.826 580.045,365.843C580.439,365.214 580.616,363.555 580.441,362.14C580.266,360.726 579.804,360.088 579.41,360.717C577.585,363.796 574.87,365.891 571.91,366.846C570.81,367.201 569.676,367.413 568.542,367.418C567.021,367.425 565.499,367.102 564.057,366.491C561.535,365.421 559.266,363.424 557.675,360.717C557.281,360.088 556.819,360.726 556.644,362.14C556.469,363.555 556.646,365.214 557.04,365.843Z" style="fill:rgb(134,46,156);"/>
            </g>
        </g>
        <g transform="matrix(1,0,0,1.01757,13.4206,-429.925)">
            <path d="M3411.22,1743.4C3414.34,1738.95 3420.59,1738.95 3423.71,1741.17C3426.84,1743.4 3426.84,1747.85 3423.71,1752.3C3422.68,1753.88 3420.88,1755.46 3418.77,1756.92C3414.24,1760.1 3408.2,1760.1 3403.67,1756.92C3401.56,1755.46 3399.76,1753.88 3398.73,1752.3C3395.6,1747.85 3395.6,1743.4 3398.73,1741.17C3401.85,1738.95 3408.1,1738.95 3411.22,1743.4Z" style="fill:rgb(240,62,62);"/>
        </g>
        <g transform="matrix(1,0,0,1,-0.280608,0)">
            <g transform="matrix(1.12392,-0.301154,0.301154,1.12392,1674.08,244.784)">
                <ellipse cx="1170.52" cy="1294.25" rx="7.05" ry="4.893" style="fill:rgb(52,58,64);"/>
            </g>
            <g transform="matrix(-1.12392,-0.301154,-0.301154,1.12392,5175.76,244.784)">
                <ellipse cx="1170.52" cy="1294.25" rx="7.05" ry="4.893" style="fill:rgb(52,58,64);"/>
            </g>
        </g>
    </g>
</svg>
