<?xml version="1.0" encoding="UTF-8" standalone="no"?>
<!DOCTYPE svg PUBLIC "-//W3C//DTD SVG 1.1//EN" "http://www.w3.org/Graphics/SVG/1.1/DTD/svg11.dtd">
<svg width="100%" height="100%" viewBox="0 0 256 256" version="1.1" xmlns="http://www.w3.org/2000/svg" xmlns:xlink="http://www.w3.org/1999/xlink" xml:space="preserve" xmlns:serif="http://www.serif.com/" style="fill-rule:evenodd;clip-rule:evenodd;stroke-linejoin:round;stroke-miterlimit:2;">
    <g transform="matrix(0.913092,0,0,0.913092,23.9399,0.67737)">
        <g id="Head---Model" serif:id="Head - Model">
            <g>
                <g id="Neck" transform="matrix(1,0,0,1,-1209.78,-333.351)">
                    <rect x="1311.41" y="531.82" width="24.666" height="27.745" style="fill:white;"/>
                </g>
                <g transform="matrix(2.95759,0,0,2.95759,-493.976,-1945.12)">
                    <path d="M219.879,741.743C219.879,737.556 216.479,734.157 212.292,734.157L198.813,734.157C194.626,734.157 191.227,737.556 191.227,741.743C191.227,745.93 194.626,749.329 198.813,749.329L212.292,749.329C216.479,749.329 219.879,745.93 219.879,741.743Z" style="fill:white;"/>
                </g>
                <g transform="matrix(1.98857,-1.4797e-16,1.44166e-16,2.04104,-32.6056,-126.32)">
                    <circle cx="122.959" cy="132.898" r="12.204" style="fill:white;"/>
                </g>
                <g transform="matrix(1.98857,-1.4797e-16,1.44166e-16,2.04104,-228.492,-126.32)">
                    <circle cx="122.959" cy="132.898" r="12.204" style="fill:white;"/>
                </g>
                <g id="Head" transform="matrix(0.817425,0,0,0.868693,-989.17,-223.987)">
                    <path d="M1349.52,266.815C1444.28,266.815 1466.94,336.221 1466.94,401.025C1466.94,465.83 1414.33,501.65 1349.52,501.65C1284.72,501.65 1232.11,465.83 1232.11,401.025C1232.11,336.221 1254.77,266.815 1349.52,266.815Z" style="fill:white;"/>
                </g>
                <g transform="matrix(1,0,0,1,-1212.29,-625.232)">
                    <path d="M1421.91,757.996C1422.65,757.85 1423.42,757.773 1424.2,757.773C1430.86,757.773 1436.27,763.325 1436.27,770.163C1436.27,777.001 1430.86,782.553 1424.2,782.553C1421.65,782.553 1419.28,781.738 1417.33,780.35C1419.7,773.48 1421.27,766.022 1421.91,757.996Z" style="fill:rgb(255,32,111);fill-opacity:0.3;"/>
                </g>
                <g transform="matrix(1,0,0,1,-1212.29,-625.232)">
                    <path d="M1235.18,780.35C1233.23,781.738 1230.87,782.553 1228.31,782.553C1221.65,782.553 1216.24,777.001 1216.24,770.163C1216.24,763.325 1221.65,757.773 1228.31,757.773C1229.1,757.773 1229.86,757.85 1230.61,757.996C1231.25,766.023 1232.81,773.48 1235.18,780.35Z" style="fill:rgb(255,32,111);fill-opacity:0.3;"/>
                </g>
            </g>
        </g>
    </g>
</svg>
