<?xml version="1.0" encoding="UTF-8" standalone="no"?>
<!DOCTYPE svg PUBLIC "-//W3C//DTD SVG 1.1//EN" "http://www.w3.org/Graphics/SVG/1.1/DTD/svg11.dtd">
<svg width="100%" height="100%" viewBox="0 0 256 256" version="1.1" xmlns="http://www.w3.org/2000/svg" xmlns:xlink="http://www.w3.org/1999/xlink" xml:space="preserve" xmlns:serif="http://www.serif.com/" style="fill-rule:evenodd;clip-rule:evenodd;stroke-linejoin:round;stroke-miterlimit:2;">
    <g id="Shoes---Sneakers" serif:id="Shoes - Sneakers" transform="matrix(1.85921,0,0,1.85921,-8636.46,-1609.61)">
        <g transform="matrix(0.537863,0,0,0.537863,4645.23,865.751)">
            <path d="M164.286,87.657C168.294,81.785 175.04,77.927 182.679,77.927L202.045,77.927C209.688,77.927 216.437,81.788 220.445,87.666L223.913,87.668C234.296,87.668 243.268,94.92 245.444,105.072C248.398,119.157 252.188,127.216 252.188,147.167L252.177,147.167C252.185,147.529 252.188,147.894 252.188,148.259C252.188,189.067 132.536,186.942 132.536,148.259C132.536,147.894 132.54,147.529 132.547,147.167L132.536,147.167L132.55,147.051C132.629,143.596 133.049,140.217 133.779,136.945C133.779,136.945 135.975,120.614 137.839,106.752C139.309,95.818 148.64,87.657 159.673,87.657L164.286,87.657ZM192.362,141.231C168.98,141.231 149.996,148.075 149.996,156.506C149.996,164.936 168.98,171.78 192.362,171.78C215.745,171.78 234.728,164.936 234.728,156.506C234.728,148.075 215.745,141.231 192.362,141.231ZM171.857,125.859C171.857,123.969 173.392,122.435 175.282,122.435L209.443,122.435C211.333,122.435 212.867,123.969 212.867,125.859C212.867,127.749 211.333,129.283 209.443,129.283L175.282,129.283C173.392,129.283 171.857,127.749 171.857,125.859ZM171.857,109.591C171.857,107.701 173.392,106.167 175.282,106.167L209.443,106.167C211.333,106.167 212.867,107.701 212.867,109.591C212.867,111.481 211.333,113.015 209.443,113.015L175.282,113.015C173.392,113.015 171.857,111.481 171.857,109.591Z" style="fill:white;"/>
        </g>
        <g transform="matrix(0.537863,0,0,0.537863,4645.23,865.751)">
            <path d="M35.561,87.657C39.57,81.785 46.315,77.927 53.955,77.927L73.321,77.927C80.964,77.927 87.713,81.788 91.72,87.666L95.189,87.668C105.572,87.668 114.544,94.92 116.72,105.072C119.674,119.157 123.464,127.216 123.464,147.167L123.453,147.167C123.46,147.529 123.464,147.894 123.464,148.259C123.464,189.067 3.812,186.942 3.812,148.259C3.812,147.894 3.815,147.529 3.823,147.167L3.812,147.167L3.826,147.051C3.905,143.596 4.325,140.217 5.055,136.945C5.055,136.945 7.251,120.614 9.114,106.752C10.584,95.818 19.916,87.657 30.949,87.657L35.561,87.657ZM63.638,141.231C40.255,141.231 21.272,148.075 21.272,156.506C21.272,164.936 40.255,171.78 63.638,171.78C87.02,171.78 106.004,164.936 106.004,156.506C106.004,148.075 87.02,141.231 63.638,141.231ZM43.133,125.859C43.133,123.969 44.667,122.435 46.557,122.435L80.718,122.435C82.608,122.435 84.143,123.969 84.143,125.859C84.143,127.749 82.608,129.283 80.718,129.283L46.557,129.283C44.667,129.283 43.133,127.749 43.133,125.859ZM43.133,109.591C43.133,107.701 44.667,106.167 46.557,106.167L80.718,106.167C82.608,106.167 84.143,107.701 84.143,109.591C84.143,111.481 82.608,113.015 80.718,113.015L46.557,113.015C44.667,113.015 43.133,111.481 43.133,109.591Z" style="fill:white;"/>
        </g>
    </g>
</svg>
