<?xml version="1.0" encoding="UTF-8" standalone="no"?>
<!DOCTYPE svg PUBLIC "-//W3C//DTD SVG 1.1//EN" "http://www.w3.org/Graphics/SVG/1.1/DTD/svg11.dtd">
<svg width="100%" height="100%" viewBox="0 0 256 256" version="1.1" xmlns="http://www.w3.org/2000/svg" xmlns:xlink="http://www.w3.org/1999/xlink" xml:space="preserve" xmlns:serif="http://www.serif.com/" style="fill-rule:evenodd;clip-rule:evenodd;stroke-linecap:round;stroke-linejoin:round;stroke-miterlimit:1.5;">
    <g id="Clothing---Dress" serif:id="Clothing - Dress" transform="matrix(0.886658,0,0,0.886658,-4052.22,-531.73)">
        <g transform="matrix(1.12783,0,0,1.12783,3218.78,-357.048)">
            <path d="M1307.44,848.309C1308.38,858.033 1316.58,865.646 1326.55,865.646C1336.5,865.646 1344.69,858.059 1345.64,848.361C1357.46,852.863 1366.16,863.889 1367.12,877.251C1370.51,924.309 1395.53,1041.66 1395.53,1041.66L1256.99,1041.66C1256.99,1041.66 1282.37,924.138 1285.93,877.097C1286.93,863.763 1295.64,852.785 1307.44,848.309Z" style="fill:rgb(250,86,97);"/>
            <clipPath id="_clip1">
                <path d="M1307.44,848.309C1308.38,858.033 1316.58,865.646 1326.55,865.646C1336.5,865.646 1344.69,858.059 1345.64,848.361C1357.46,852.863 1366.16,863.889 1367.12,877.251C1370.51,924.309 1395.53,1041.66 1395.53,1041.66L1256.99,1041.66C1256.99,1041.66 1282.37,924.138 1285.93,877.097C1286.93,863.763 1295.64,852.785 1307.44,848.309Z"/>
            </clipPath>
            <g clip-path="url(#_clip1)">
                <g transform="matrix(0.852636,0,0,0.838325,195.015,149.294)">
                    <rect x="1326.76" y="832.393" width="70.917" height="158.164" style="fill:rgb(249,65,80);"/>
                </g>
                <g transform="matrix(1,0,0,1.16002,-0.0648006,-152.63)">
                    <path d="M1386.92,974.367L1400.97,1044.05L1247.65,1044.05L1267.99,974.367L1386.92,974.367Z" style="fill:rgb(28,126,214);"/>
                </g>
                <g transform="matrix(1.0043,0,0,0.421163,-6.20773,627.081)">
                    <rect x="1326.76" y="832.393" width="70.917" height="158.164" style="fill:rgb(25,113,194);"/>
                </g>
            </g>
        </g>
        <g transform="matrix(1.12783,0,0,1.12783,4570.21,566.088)">
            <path d="M140.054,29.803L147.854,29.803C147.854,42.192 137.622,47.141 128.28,47.141C118.937,47.141 108.705,42.192 108.705,29.803L116.505,29.803C117.446,35.454 122.363,39.767 128.28,39.767C134.196,39.767 139.113,35.454 140.054,29.803Z" style="fill:rgb(255,135,135);"/>
        </g>
        <g transform="matrix(1.12783,0,0,1.12783,4570.21,571.788)">
            <path d="M60.51,214.23L128,214.23" style="fill:none;stroke:white;stroke-width:1px;stroke-dasharray:5,5,0,0;"/>
        </g>
        <g transform="matrix(1.12783,0,0,1.12783,4648.33,571.788)">
            <path d="M60.51,214.23L128,214.23" style="fill:none;stroke:rgb(165,216,255);stroke-width:1px;stroke-dasharray:5,5,0,0;"/>
        </g>
        <g id="Deco---Stars" serif:id="Deco - Stars">
            <g transform="matrix(0.650213,0,0,0.650213,3837.01,76.4575)">
                <path d="M1293.78,987.308L1295.35,999.239L1307.17,997.037L1296.31,1002.21L1302.06,1012.78L1293.78,1004.04L1285.51,1012.78L1291.26,1002.21L1280.39,997.037L1292.22,999.239L1293.78,987.308Z" style="fill:rgb(255,168,168);"/>
            </g>
            <g transform="matrix(0.445088,0,0,0.445088,4127,184.953)">
                <path d="M1293.78,987.308L1295.35,999.239L1307.17,997.037L1296.31,1002.21L1302.06,1012.78L1293.78,1004.04L1285.51,1012.78L1291.26,1002.21L1280.39,997.037L1292.22,999.239L1293.78,987.308Z" style="fill:rgb(255,168,168);"/>
            </g>
            <g transform="matrix(0.555398,0,0,0.555398,4028.59,166.502)">
                <path d="M1293.78,987.308L1295.35,999.239L1307.17,997.037L1296.31,1002.21L1302.06,1012.78L1293.78,1004.04L1285.51,1012.78L1291.26,1002.21L1280.39,997.037L1292.22,999.239L1293.78,987.308Z" style="fill:rgb(255,168,168);"/>
            </g>
            <g transform="matrix(0.349396,0,0,0.349396,4296.02,310.501)">
                <path d="M1293.78,987.308L1295.35,999.239L1307.17,997.037L1296.31,1002.21L1302.06,1012.78L1293.78,1004.04L1285.51,1012.78L1291.26,1002.21L1280.39,997.037L1292.22,999.239L1293.78,987.308Z" style="fill:rgb(255,168,168);"/>
            </g>
        </g>
        <g id="Deco---ghosts" serif:id="Deco - ghosts" transform="matrix(1,0,0,1,3.95866,-8.78096)">
            <g transform="matrix(1.01613,0.272271,-0.219381,0.818742,-1170.06,-2545.56)">
                <g transform="matrix(0.787706,0,0,0.97761,5144.01,1049.71)">
                    <path d="M1314.5,1004.98C1314.5,999.503 1310.05,995.058 1304.58,995.058C1299.1,995.058 1294.65,999.503 1294.65,1004.98L1294.65,1014.9L1314.5,1014.9L1314.5,1004.98Z" style="fill:rgb(252,194,215);"/>
                </g>
                <g>
                    <g transform="matrix(0.636892,0,0,0.790437,5338.72,1240.48)">
                        <circle cx="1298.59" cy="1013.75" r="3.083" style="fill:rgb(252,194,215);"/>
                    </g>
                    <g transform="matrix(0.636892,0,0,0.790437,5342.62,1240.48)">
                        <circle cx="1298.59" cy="1013.75" r="3.083" style="fill:rgb(252,194,215);"/>
                    </g>
                    <g transform="matrix(0.636892,0,0,0.790437,5346.52,1240.48)">
                        <circle cx="1298.59" cy="1013.75" r="3.083" style="fill:rgb(252,194,215);"/>
                    </g>
                    <g transform="matrix(0.636892,0,0,0.790437,5350.42,1240.48)">
                        <circle cx="1298.59" cy="1013.75" r="3.083" style="fill:rgb(252,194,215);"/>
                    </g>
                </g>
                <g transform="matrix(0.787706,0,0,0.712817,5147.61,1316.01)">
                    <path d="M1298.3,1012.45L1299.95,1009.15L1301.6,1012.45" style="fill:none;stroke:rgb(52,58,64);stroke-width:1.07px;"/>
                </g>
                <g transform="matrix(1,0,0,1,0.411321,-1.75166)">
                    <g transform="matrix(0.787706,0,0,0.97761,5144.02,1049.71)">
                        <circle cx="1300.46" cy="1005.74" r="1.912" style="fill:rgb(52,58,64);"/>
                    </g>
                    <g transform="matrix(0.787706,0,0,0.97761,5149.66,1049.71)">
                        <circle cx="1300.46" cy="1005.74" r="1.912" style="fill:rgb(52,58,64);"/>
                    </g>
                </g>
            </g>
            <g transform="matrix(1.05197,0,0,0.847624,-1794.65,-947.455)">
                <g transform="matrix(0.787706,0,0,0.97761,5144.01,1049.71)">
                    <path d="M1314.5,1004.98C1314.5,999.503 1310.05,995.058 1304.58,995.058C1299.1,995.058 1294.65,999.503 1294.65,1004.98L1294.65,1014.9L1314.5,1014.9L1314.5,1004.98Z" style="fill:rgb(97,255,242);"/>
                </g>
                <g>
                    <g transform="matrix(0.636892,0,0,0.790437,5338.72,1240.48)">
                        <circle cx="1298.59" cy="1013.75" r="3.083" style="fill:rgb(97,255,242);"/>
                    </g>
                    <g transform="matrix(0.636892,0,0,0.790437,5342.62,1240.48)">
                        <circle cx="1298.59" cy="1013.75" r="3.083" style="fill:rgb(97,255,242);"/>
                    </g>
                    <g transform="matrix(0.636892,0,0,0.790437,5346.52,1240.48)">
                        <circle cx="1298.59" cy="1013.75" r="3.083" style="fill:rgb(97,255,242);"/>
                    </g>
                    <g transform="matrix(0.636892,0,0,0.790437,5350.42,1240.48)">
                        <circle cx="1298.59" cy="1013.75" r="3.083" style="fill:rgb(97,255,242);"/>
                    </g>
                </g>
                <g transform="matrix(1,0,0,-1,0.245078,4074.41)">
                    <g transform="matrix(0.787706,0,0,0.712817,5144.78,1317.36)">
                        <path d="M1298.3,1012.45L1299.95,1009.15L1301.6,1012.45" style="fill:none;stroke:rgb(52,58,64);stroke-width:1.07px;"/>
                    </g>
                    <g transform="matrix(0.787706,0,0,0.712817,5147.36,1317.36)">
                        <path d="M1298.3,1012.45L1299.95,1009.15L1301.6,1012.45" style="fill:none;stroke:rgb(52,58,64);stroke-width:1.07px;"/>
                    </g>
                    <g transform="matrix(0.787706,0,0,0.712817,5150.05,1317.36)">
                        <path d="M1298.3,1012.45L1299.95,1009.15L1301.6,1012.45" style="fill:none;stroke:rgb(52,58,64);stroke-width:1.07px;"/>
                    </g>
                </g>
                <g transform="matrix(1,0,0,1,0.411321,-1.75166)">
                    <g transform="matrix(0.787706,0,0,0.97761,5144.02,1049.71)">
                        <circle cx="1300.46" cy="1005.74" r="1.912" style="fill:rgb(52,58,64);"/>
                    </g>
                    <g transform="matrix(0.787706,0,0,0.97761,5149.66,1049.71)">
                        <circle cx="1300.46" cy="1005.74" r="1.912" style="fill:rgb(52,58,64);"/>
                    </g>
                </g>
            </g>
            <g transform="matrix(1.01613,-0.272271,0.219381,0.818742,-1957.82,791.076)">
                <g transform="matrix(0.787706,0,0,0.97761,5144.01,1049.71)">
                    <path d="M1314.5,1004.98C1314.5,999.503 1310.05,995.058 1304.58,995.058C1299.1,995.058 1294.65,999.503 1294.65,1004.98L1294.65,1014.9L1314.5,1014.9L1314.5,1004.98Z" style="fill:rgb(255,255,104);"/>
                </g>
                <g>
                    <g transform="matrix(0.636892,0,0,0.790437,5338.72,1240.48)">
                        <circle cx="1298.59" cy="1013.75" r="3.083" style="fill:rgb(255,255,104);"/>
                    </g>
                    <g transform="matrix(0.636892,0,0,0.790437,5342.62,1240.48)">
                        <circle cx="1298.59" cy="1013.75" r="3.083" style="fill:rgb(255,255,104);"/>
                    </g>
                    <g transform="matrix(0.636892,0,0,0.790437,5346.52,1240.48)">
                        <circle cx="1298.59" cy="1013.75" r="3.083" style="fill:rgb(255,255,104);"/>
                    </g>
                    <g transform="matrix(0.636892,0,0,0.790437,5350.42,1240.48)">
                        <circle cx="1298.59" cy="1013.75" r="3.083" style="fill:rgb(255,255,104);"/>
                    </g>
                </g>
                <g transform="matrix(0.787706,0,0,-0.712817,5147.61,2757.05)">
                    <path d="M1298.3,1012.45L1299.95,1009.15L1301.6,1012.45" style="fill:none;stroke:rgb(52,58,64);stroke-width:1.07px;"/>
                </g>
                <g transform="matrix(1,0,0,1,0.411321,-1.75166)">
                    <g transform="matrix(0.787706,0,0,0.97761,5144.02,1049.71)">
                        <circle cx="1300.46" cy="1005.74" r="1.912" style="fill:rgb(52,58,64);"/>
                    </g>
                    <g transform="matrix(0.787706,0,0,0.97761,5149.66,1049.71)">
                        <circle cx="1300.46" cy="1005.74" r="1.912" style="fill:rgb(52,58,64);"/>
                    </g>
                </g>
            </g>
            <g transform="matrix(1.05197,0,0,0.847624,-1762.25,-916.454)">
                <g transform="matrix(0.787706,0,0,0.97761,5144.01,1049.71)">
                    <path d="M1314.5,1004.98C1314.5,999.503 1310.05,995.058 1304.58,995.058C1299.1,995.058 1294.65,999.503 1294.65,1004.98L1294.65,1014.9L1314.5,1014.9L1314.5,1004.98Z" style="fill:rgb(169,250,108);"/>
                </g>
                <g>
                    <g transform="matrix(0.636892,0,0,0.790437,5338.72,1240.48)">
                        <circle cx="1298.59" cy="1013.75" r="3.083" style="fill:rgb(169,250,108);"/>
                    </g>
                    <g transform="matrix(0.636892,0,0,0.790437,5342.62,1240.48)">
                        <circle cx="1298.59" cy="1013.75" r="3.083" style="fill:rgb(169,250,108);"/>
                    </g>
                    <g transform="matrix(0.636892,0,0,0.790437,5346.52,1240.48)">
                        <circle cx="1298.59" cy="1013.75" r="3.083" style="fill:rgb(169,250,108);"/>
                    </g>
                    <g transform="matrix(0.636892,0,0,0.790437,5350.42,1240.48)">
                        <circle cx="1298.59" cy="1013.75" r="3.083" style="fill:rgb(169,250,108);"/>
                    </g>
                </g>
                <g transform="matrix(1,0,0,-1,-1.04851,4074.41)">
                    <g transform="matrix(0.787706,0,0,-0.712817,5147.36,2758.4)">
                        <path d="M1298.3,1012.45L1299.95,1009.15L1301.6,1012.45" style="fill:none;stroke:rgb(52,58,64);stroke-width:1.07px;"/>
                    </g>
                    <g transform="matrix(0.787706,0,0,-0.712817,5150.05,2758.4)">
                        <path d="M1298.3,1012.45L1299.95,1009.15L1301.6,1012.45" style="fill:none;stroke:rgb(52,58,64);stroke-width:1.07px;"/>
                    </g>
                </g>
                <g transform="matrix(1,0,0,1,0.411321,-1.75166)">
                    <g transform="matrix(0.787706,0,0,0.97761,5144.02,1049.71)">
                        <circle cx="1300.46" cy="1005.74" r="1.912" style="fill:rgb(52,58,64);"/>
                    </g>
                    <g transform="matrix(0.787706,0,0,0.97761,5149.66,1049.71)">
                        <circle cx="1300.46" cy="1005.74" r="1.912" style="fill:rgb(52,58,64);"/>
                    </g>
                </g>
            </g>
        </g>
        <g id="Deco-Points" serif:id="Deco Points" transform="matrix(1.43179,0,0,1.15366,-4142.43,-1573.13)">
            <g transform="matrix(0.787706,0,0,0.97761,5160.3,1078.34)">
                <circle cx="1285.65" cy="996.988" r="2.24" style="fill:rgb(255,255,104);"/>
            </g>
            <g transform="matrix(0.787706,0,0,0.97761,5145,1050.3)">
                <circle cx="1285.65" cy="996.988" r="2.24" style="fill:rgb(169,250,108);"/>
            </g>
            <g transform="matrix(0.787706,0,0,0.97761,5183.49,1051.35)">
                <circle cx="1285.65" cy="996.988" r="2.24" style="fill:rgb(252,194,215);"/>
            </g>
            <g transform="matrix(0.787706,0,0,0.97761,5214.3,1073.79)">
                <circle cx="1285.65" cy="996.988" r="2.24" style="fill:rgb(97,255,242);"/>
            </g>
        </g>
        <g id="Cat" transform="matrix(0.842094,0,0,0.678515,-497.087,-639.082)">
            <g transform="matrix(1,0,0,1,-0.0753988,0)">
                <g transform="matrix(-0.660802,-0.549575,-0.305289,0.565403,7347.97,2142.98)">
                    <path d="M1310.54,884.586C1311.02,883.634 1311.78,883.071 1312.59,883.071C1313.4,883.071 1314.16,883.634 1314.63,884.586C1318.76,892.844 1327.7,910.714 1327.7,910.714L1297.48,910.714C1297.48,910.714 1306.41,892.844 1310.54,884.586Z" style="fill:white;"/>
                </g>
                <g transform="matrix(0.660802,-0.549575,0.305289,0.565403,5029.05,2142.98)">
                    <path d="M1310.54,884.586C1311.02,883.634 1311.78,883.071 1312.59,883.071C1313.4,883.071 1314.16,883.634 1314.63,884.586C1318.76,892.844 1327.7,910.714 1327.7,910.714L1297.48,910.714C1297.48,910.714 1306.41,892.844 1310.54,884.586Z" style="fill:white;"/>
                </g>
            </g>
            <g transform="matrix(1.05667,0,0,1.31141,4787.4,743.218)">
                <path d="M1327.39,901.028C1340.36,901.839 1350.65,913.136 1350.65,924.748C1350.65,936.802 1339.56,944.661 1325.9,944.661C1312.23,944.661 1301.14,936.802 1301.14,924.748C1301.14,913.136 1311.44,901.839 1324.41,901.028L1324.41,905.926L1320.31,905.926C1319.49,905.926 1318.82,906.594 1318.82,907.417C1318.82,908.24 1319.49,908.908 1320.31,908.908L1324.41,908.908L1324.41,912.387C1324.41,913.209 1325.08,913.877 1325.9,913.877C1326.72,913.877 1327.39,913.209 1327.39,912.387L1327.39,908.908L1331.49,908.908C1332.31,908.908 1332.98,908.24 1332.98,907.417C1332.98,906.594 1332.31,905.926 1331.49,905.926L1327.39,905.926L1327.39,901.028ZM1334.06,934.275C1334.5,934.275 1334.86,933.917 1334.86,933.475C1334.86,933.034 1334.5,932.676 1334.06,932.676L1317.74,932.676C1317.3,932.676 1316.94,933.034 1316.94,933.475C1316.94,933.917 1317.3,934.275 1317.74,934.275L1334.06,934.275ZM1312.77,917.363C1315.75,917.363 1318.17,919.781 1318.17,922.759C1318.17,925.737 1315.75,928.155 1312.77,928.155C1309.79,928.155 1307.37,925.737 1307.37,922.759C1307.37,919.781 1309.79,917.363 1312.77,917.363ZM1339.03,917.363C1342,917.363 1344.42,919.781 1344.42,922.759C1344.42,925.737 1342,928.155 1339.03,928.155C1336.05,928.155 1333.63,925.737 1333.63,922.759C1333.63,919.781 1336.05,917.363 1339.03,917.363Z" style="fill:white;"/>
            </g>
        </g>
        <g transform="matrix(1.43179,0,0,1.15366,-4145.7,-1564.35)">
            <g transform="matrix(0.718196,0,0,0.576885,5236.8,1408.39)">
                <path d="M1325.87,885.38C1325.87,884.444 1325.38,883.685 1324.77,883.685C1324.17,883.685 1323.67,884.444 1323.67,885.38L1323.67,892.527C1323.67,893.462 1324.17,894.221 1324.77,894.221C1325.38,894.221 1325.87,893.462 1325.87,892.527L1325.87,885.38Z" style="fill:white;"/>
            </g>
            <g transform="matrix(0.621976,-0.445671,0.232411,0.499597,5150.46,2071.31)">
                <path d="M1325.87,885.38C1325.87,884.444 1325.38,883.685 1324.77,883.685C1324.17,883.685 1323.67,884.444 1323.67,885.38L1323.67,892.527C1323.67,893.462 1324.17,894.221 1324.77,894.221C1325.38,894.221 1325.87,893.462 1325.87,892.527L1325.87,885.38Z" style="fill:white;"/>
            </g>
            <g transform="matrix(-0.621976,-0.445671,-0.232411,0.499597,7226.03,2071.31)">
                <path d="M1325.87,885.38C1325.87,884.444 1325.38,883.685 1324.77,883.685C1324.17,883.685 1323.67,884.444 1323.67,885.38L1323.67,892.527C1323.67,893.462 1324.17,894.221 1324.77,894.221C1325.38,894.221 1325.87,893.462 1325.87,892.527L1325.87,885.38Z" style="fill:white;"/>
            </g>
        </g>
        <g transform="matrix(1.43179,0,0,-1.15366,-4145.7,2937.01)">
            <g transform="matrix(0.718196,0,0,0.576885,5236.8,1408.39)">
                <path d="M1325.87,885.38C1325.87,884.444 1325.38,883.685 1324.77,883.685C1324.17,883.685 1323.67,884.444 1323.67,885.38L1323.67,892.527C1323.67,893.462 1324.17,894.221 1324.77,894.221C1325.38,894.221 1325.87,893.462 1325.87,892.527L1325.87,885.38Z" style="fill:white;"/>
            </g>
            <g transform="matrix(0.621976,-0.445671,0.232411,0.499597,5150.46,2071.31)">
                <path d="M1325.87,885.38C1325.87,884.444 1325.38,883.685 1324.77,883.685C1324.17,883.685 1323.67,884.444 1323.67,885.38L1323.67,892.527C1323.67,893.462 1324.17,894.221 1324.77,894.221C1325.38,894.221 1325.87,893.462 1325.87,892.527L1325.87,885.38Z" style="fill:white;"/>
            </g>
            <g transform="matrix(-0.621976,-0.445671,-0.232411,0.499597,7226.03,2071.31)">
                <path d="M1325.87,885.38C1325.87,884.444 1325.38,883.685 1324.77,883.685C1324.17,883.685 1323.67,884.444 1323.67,885.38L1323.67,892.527C1323.67,893.462 1324.17,894.221 1324.77,894.221C1325.38,894.221 1325.87,893.462 1325.87,892.527L1325.87,885.38Z" style="fill:white;"/>
            </g>
        </g>
        <g transform="matrix(1,0,0,1,0,-3.75683)">
            <g transform="matrix(0.116378,-0.434327,0.722609,0.193622,3864.53,1063.52)">
                <path d="M1312.6,868.277L1280.96,866.637L1278.3,899.278L1313.52,896.972L1312.6,868.277Z" style="fill:rgb(240,62,71);"/>
                <clipPath id="_clip2">
                    <path d="M1312.6,868.277L1280.96,866.637L1278.3,899.278L1313.52,896.972L1312.6,868.277Z"/>
                </clipPath>
                <g clip-path="url(#_clip2)">
                    <g transform="matrix(0.649182,1.45622,-2.42278,0.390194,2671.96,-1323.98)">
                        <path d="M1275.58,919.654L1279.53,900.739L1283.56,902.538L1280.51,919.654L1275.58,919.654Z" style="fill:rgb(216,47,58);"/>
                    </g>
                </g>
            </g>
            <g transform="matrix(0.32041,-1.19579,1.05789,0.28346,3315.9,1930.44)">
                <path d="M1314.5,891.896C1314.5,882.737 1307.2,872.994 1298.66,871.427C1288.83,870.978 1276.16,864.556 1267.69,872.098L1268.02,891.836C1268.02,891.836 1301.28,889.892 1314.5,891.896Z" style="fill:rgb(255,107,119);"/>
            </g>
            <g transform="matrix(-0.116378,-0.434327,-0.722609,0.193622,5565.19,1063.52)">
                <path d="M1312.6,868.277L1280.96,866.637L1278.3,899.278L1313.52,896.972L1312.6,868.277Z" style="fill:rgb(240,62,71);"/>
                <clipPath id="_clip3">
                    <path d="M1312.6,868.277L1280.96,866.637L1278.3,899.278L1313.52,896.972L1312.6,868.277Z"/>
                </clipPath>
                <g clip-path="url(#_clip3)">
                    <g transform="matrix(-0.649182,-1.45622,-2.42278,0.390194,4394.27,2539.45)">
                        <path d="M1383.31,921.44L1378.6,901.03L1389.63,896.94L1394.5,913.441L1383.31,921.44Z" style="fill:rgb(216,47,58);"/>
                    </g>
                </g>
            </g>
            <g transform="matrix(-0.32041,-1.19579,-1.05789,0.28346,6113.83,1930.44)">
                <path d="M1314.5,891.896C1314.5,882.737 1307.2,872.994 1298.66,871.427C1288.83,870.978 1276.16,864.556 1267.69,872.098L1268.02,891.836C1268.02,891.836 1301.28,889.892 1314.5,891.896Z" style="fill:rgb(255,107,119);"/>
            </g>
            <g transform="matrix(1.12783,0,0,1.12783,3218.77,-353.34)">
                <path d="M1372,871.859C1369.61,866.548 1376.7,858.376 1380.6,867.031C1383.81,877.347 1393.44,889.162 1388.77,900.042L1378.7,902.538C1383.37,891.658 1375.22,882.175 1372,871.859Z" style="fill:rgb(255,86,100);"/>
            </g>
        </g>
    </g>
</svg>
