<?xml version="1.0" encoding="UTF-8" standalone="no"?>
<!DOCTYPE svg PUBLIC "-//W3C//DTD SVG 1.1//EN" "http://www.w3.org/Graphics/SVG/1.1/DTD/svg11.dtd">
<svg width="100%" height="100%" viewBox="0 0 256 256" version="1.1" xmlns="http://www.w3.org/2000/svg" xmlns:xlink="http://www.w3.org/1999/xlink" xml:space="preserve" xmlns:serif="http://www.serif.com/" style="fill-rule:evenodd;clip-rule:evenodd;stroke-linecap:round;stroke-linejoin:round;stroke-miterlimit:1.5;">
    <g id="Clothing---Magic-Cape-Trousers" serif:id="Clothing - Magic Cape Trousers" transform="matrix(0.890333,0,0,0.890333,-4069.59,-527.84)">
        <g transform="matrix(1,0,0,1.3598,2.7189,-288.459)">
            <rect x="4666.36" y="770.345" width="90.951" height="29.941" style="fill:rgb(63,70,78);"/>
        </g>
        <g transform="matrix(0.5,0,0,1.3598,2381.38,-288.459)">
            <rect x="4666.36" y="770.345" width="90.951" height="29.941" style="fill:rgb(52,58,64);"/>
        </g>
        <g transform="matrix(1,0,0,1,-0.0309322,0)">
            <g transform="matrix(1,0,0,1,0.885789,-0.60018)">
                <path d="M4653.99,880.99L4659.2,765.222L4699.85,763.839L4698.18,880.987L4653.99,880.99Z" style="fill:rgb(63,70,78);"/>
                <clipPath id="_clip1">
                    <path d="M4653.99,880.99L4659.2,765.222L4699.85,763.839L4698.18,880.987L4653.99,880.99Z"/>
                </clipPath>
                <g clip-path="url(#_clip1)">
                    <g transform="matrix(1.12318,0,0,1.12318,3173.24,-278.159)">
                        <path d="M1340.38,960.246L1358.81,960.246L1357.7,1035.97L1338.29,1035.97L1340.38,960.246Z" style="fill:rgb(52,58,64);"/>
                    </g>
                </g>
            </g>
            <g transform="matrix(-1,0,0,1,9428.3,-0.60018)">
                <path d="M4654.59,880.987L4659.2,765.221L4699.85,763.839L4697.98,880.984L4654.59,880.987Z" style="fill:rgb(52,58,64);"/>
                <clipPath id="_clip2">
                    <path d="M4654.59,880.987L4659.2,765.221L4699.85,763.839L4697.98,880.984L4654.59,880.987Z"/>
                </clipPath>
                <g clip-path="url(#_clip2)">
                    <g transform="matrix(-1.12318,0,0,1.12318,6203.32,-278.029)">
                        <path d="M1339.15,960.13L1358.8,960.13L1359.5,1036.53L1340.38,1035.85L1339.15,960.13Z" style="fill:rgb(63,70,78);"/>
                    </g>
                </g>
            </g>
        </g>
        <g>
            <g transform="matrix(0.972699,0.561588,-0.561588,0.972699,3944.18,-885.713)">
                <rect x="1316.52" y="929.364" width="9.74" height="20.846" style="fill:rgb(204,93,232);"/>
            </g>
            <g transform="matrix(1.29693,-6.66134e-16,-0.205045,0.355149,3184.4,430.29)">
                <rect x="1316.52" y="929.364" width="9.74" height="20.846" style="fill:rgb(190,75,219);"/>
            </g>
            <g transform="matrix(-0.972699,0.561588,0.561588,0.972699,5484.94,-885.713)">
                <rect x="1316.52" y="929.364" width="9.74" height="20.846" style="fill:rgb(204,93,232);"/>
            </g>
            <g transform="matrix(-1.29693,7.49401e-15,0.280794,0.486349,6172.75,305.622)">
                <rect x="1316.52" y="929.364" width="9.74" height="20.846" style="fill:rgb(190,75,219);"/>
            </g>
        </g>
        <g transform="matrix(1.38789,0,0,2.04206,3111.17,-414.817)">
            <path d="M1194.55,577.574L1116,577.574C1116,577.574 1119.76,540.075 1122.63,514.202C1123.73,504.377 1136,496.878 1150.49,497.185C1153.85,497.257 1157.21,497.261 1160.56,497.203C1175.06,496.926 1187.3,504.457 1188.34,514.287C1191.08,540.17 1194.55,577.574 1194.55,577.574Z" style="fill:rgb(218,119,242);"/>
            <clipPath id="_clip3">
                <path d="M1194.55,577.574L1116,577.574C1116,577.574 1119.76,540.075 1122.63,514.202C1123.73,504.377 1136,496.878 1150.49,497.185C1153.85,497.257 1157.21,497.261 1160.56,497.203C1175.06,496.926 1187.3,504.457 1188.34,514.287C1191.08,540.17 1194.55,577.574 1194.55,577.574Z"/>
            </clipPath>
            <g clip-path="url(#_clip3)">
                <g transform="matrix(-0.809268,0,-0.220165,0.550022,2406.72,66.6915)">
                    <path d="M1326.26,793.775C1305.31,837.479 1277.24,870.481 1245.72,898.331C1252.66,862.03 1261.54,827.162 1282.97,801.565L1326.26,793.775Z" style="fill:rgb(134,46,156);fill-opacity:0.3;"/>
                </g>
                <g transform="matrix(0.809268,0,0.241418,0.550022,-112.943,66.6915)">
                    <path d="M1326.26,793.775C1305.31,837.479 1277.24,870.481 1245.72,898.331C1252.66,862.03 1261.54,827.162 1282.97,801.565L1326.26,793.775Z" style="fill:rgb(134,46,156);fill-opacity:0.3;"/>
                </g>
            </g>
        </g>
        <g transform="matrix(1.42588,0,0,1.1489,-4109.82,-1555.93)">
            <g transform="matrix(0.427688,0,0,0.97761,5604.85,1110.71)">
                <path d="M1287.99,922.271C1287.99,921.571 1286.95,921.003 1285.66,921.003C1284.37,921.003 1283.32,921.571 1283.32,922.271L1283.32,926.34C1283.32,927.04 1284.37,927.609 1285.66,927.609C1286.95,927.609 1287.99,927.04 1287.99,926.34L1287.99,922.271Z" style="fill:rgb(190,75,219);"/>
            </g>
            <g transform="matrix(0.427688,0,0,0.97761,5611.84,1110.71)">
                <path d="M1287.99,922.271C1287.99,921.571 1286.95,921.003 1285.66,921.003C1284.37,921.003 1283.32,921.571 1283.32,922.271L1283.32,926.34C1283.32,927.04 1284.37,927.609 1285.66,927.609C1286.95,927.609 1287.99,927.04 1287.99,926.34L1287.99,922.271Z" style="fill:rgb(190,75,219);"/>
            </g>
            <g transform="matrix(0.427688,0,0,0.97761,5618.83,1110.71)">
                <path d="M1287.99,922.271C1287.99,921.571 1286.95,921.003 1285.66,921.003C1284.37,921.003 1283.32,921.571 1283.32,922.271L1283.32,926.34C1283.32,927.04 1284.37,927.609 1285.66,927.609C1286.95,927.609 1287.99,927.04 1287.99,926.34L1287.99,922.271Z" style="fill:rgb(190,75,219);"/>
            </g>
            <g transform="matrix(0.427688,0,0,0.97761,5625.82,1110.71)">
                <path d="M1287.99,922.271C1287.99,921.571 1286.95,921.003 1285.66,921.003C1284.37,921.003 1283.32,921.571 1283.32,922.271L1283.32,926.34C1283.32,927.04 1284.37,927.609 1285.66,927.609C1286.95,927.609 1287.99,927.04 1287.99,926.34L1287.99,922.271Z" style="fill:rgb(190,75,219);"/>
            </g>
            <g transform="matrix(0.427688,0,0,0.97761,5632.81,1110.71)">
                <path d="M1287.99,922.271C1287.99,921.571 1286.95,921.003 1285.66,921.003C1284.37,921.003 1283.32,921.571 1283.32,922.271L1283.32,926.34C1283.32,927.04 1284.37,927.609 1285.66,927.609C1286.95,927.609 1287.99,927.04 1287.99,926.34L1287.99,922.271Z" style="fill:rgb(190,75,219);"/>
            </g>
        </g>
        <g transform="matrix(1.42588,0,0,1.1489,-4052.75,-1555.93)">
            <g transform="matrix(0.427688,0,0,0.97761,5604.85,1110.71)">
                <path d="M1287.99,922.271C1287.99,921.571 1286.95,921.003 1285.66,921.003C1284.37,921.003 1283.32,921.571 1283.32,922.271L1283.32,926.34C1283.32,927.04 1284.37,927.609 1285.66,927.609C1286.95,927.609 1287.99,927.04 1287.99,926.34L1287.99,922.271Z" style="fill:rgb(190,75,219);"/>
            </g>
            <g transform="matrix(0.427688,0,0,0.97761,5611.84,1110.71)">
                <path d="M1287.99,922.271C1287.99,921.571 1286.95,921.003 1285.66,921.003C1284.37,921.003 1283.32,921.571 1283.32,922.271L1283.32,926.34C1283.32,927.04 1284.37,927.609 1285.66,927.609C1286.95,927.609 1287.99,927.04 1287.99,926.34L1287.99,922.271Z" style="fill:rgb(190,75,219);"/>
            </g>
            <g transform="matrix(0.427688,0,0,0.97761,5618.83,1110.71)">
                <path d="M1287.99,922.271C1287.99,921.571 1286.95,921.003 1285.66,921.003C1284.37,921.003 1283.32,921.571 1283.32,922.271L1283.32,926.34C1283.32,927.04 1284.37,927.609 1285.66,927.609C1286.95,927.609 1287.99,927.04 1287.99,926.34L1287.99,922.271Z" style="fill:rgb(190,75,219);"/>
            </g>
            <g transform="matrix(0.427688,0,0,0.97761,5625.82,1110.71)">
                <path d="M1287.99,922.271C1287.99,921.571 1286.95,921.003 1285.66,921.003C1284.37,921.003 1283.32,921.571 1283.32,922.271L1283.32,926.34C1283.32,927.04 1284.37,927.609 1285.66,927.609C1286.95,927.609 1287.99,927.04 1287.99,926.34L1287.99,922.271Z" style="fill:rgb(190,75,219);"/>
            </g>
            <g transform="matrix(0.427688,0,0,0.97761,5632.81,1110.71)">
                <path d="M1287.99,922.271C1287.99,921.571 1286.95,921.003 1285.66,921.003C1284.37,921.003 1283.32,921.571 1283.32,922.271L1283.32,926.34C1283.32,927.04 1284.37,927.609 1285.66,927.609C1286.95,927.609 1287.99,927.04 1287.99,926.34L1287.99,922.271Z" style="fill:rgb(190,75,219);"/>
            </g>
        </g>
        <g transform="matrix(1.42588,0,0,1.1489,-4083.04,-1549.54)">
            <g transform="matrix(0.787706,0,0,1.36648,5144.02,768.851)">
                <path d="M1360.06,878.663C1360.06,876.927 1358.09,875.518 1355.67,875.518L1337.98,875.518C1335.55,875.518 1333.58,876.927 1333.58,878.663L1333.58,884.953C1333.58,886.689 1335.55,888.098 1337.98,888.098L1355.67,888.098C1358.09,888.098 1360.06,886.689 1360.06,884.953L1360.06,878.663Z" style="fill:rgb(174,62,201);"/>
            </g>
            <g transform="matrix(0.787706,0,0,0.97761,5145.25,1109.69)">
                <circle cx="1336.65" cy="899.289" r="4.623" style="fill:rgb(174,62,201);"/>
            </g>
            <g transform="matrix(0.787706,0,0,0.97761,5158.82,1109.69)">
                <circle cx="1336.65" cy="899.289" r="4.623" style="fill:rgb(174,62,201);"/>
            </g>
        </g>
        <g transform="matrix(3.15582,0,0,1.07016,528.006,-229.389)">
            <rect x="1326.26" y="789.289" width="0.712" height="139.55" style="fill:rgb(134,46,156);"/>
        </g>
        <g transform="matrix(1.91629,0,0,1.54404,-7159.58,-2245.42)">
            <g transform="matrix(0.606874,0,0,0.753182,5377.02,1283.23)">
                <circle cx="1309.73" cy="858.522" r="12.469" style="fill:none;stroke:rgb(250,162,193);stroke-width:0.93px;"/>
            </g>
            <g transform="matrix(0.48003,0,0,0.595758,5543.15,1418.38)">
                <circle cx="1309.73" cy="858.522" r="12.469" style="fill:rgb(238,190,250);"/>
            </g>
            <g transform="matrix(0.304795,0,0,0.378276,5772.66,1605.09)">
                <circle cx="1309.73" cy="858.522" r="12.469" style="fill:rgb(255,255,104);"/>
            </g>
            <g transform="matrix(3.17633e-17,-0.643792,0.518733,3.94209e-17,5731.3,2776.47)">
                <path d="M1315.05,849.295L1318.93,857.055L1311.17,857.055L1315.05,849.295Z" style="fill:rgb(238,190,250);"/>
            </g>
            <g transform="matrix(0.787706,0,0,0.97761,5144.02,1111.76)">
                <circle cx="1303.52" cy="834.897" r="0.627" style="fill:rgb(73,80,87);"/>
            </g>
        </g>
        <g transform="matrix(1.12318,0,0,0.717773,3224.94,38.7574)">
            <rect x="1310.64" y="771.97" width="30.352" height="10.922" style="fill:rgb(204,93,232);"/>
        </g>
        <g transform="matrix(0.594152,0,0,0.717773,3934.36,38.7574)">
            <rect x="1310.64" y="771.97" width="30.352" height="10.922" style="fill:rgb(190,75,219);"/>
        </g>
        <g transform="matrix(1.12318,0,0,1.12318,3224.94,-278.629)">
            <path d="M1277.09,944.211L1268.91,933.002C1269.18,932.232 1269.23,931.377 1269,930.531L1265.71,918.239L1282.81,860.05L1277.09,944.211ZM1248.93,895.175C1248.33,897.388 1247.73,899.602 1247.13,901.815L1246.43,904.393L1241.66,898.331L1250.65,888.856L1248.93,895.175Z" style="fill:rgb(95,61,196);"/>
        </g>
        <g transform="matrix(-1.12318,0,0,1.12318,6204.32,-278.629)">
            <path d="M1277.22,944.211L1268.91,933.002C1269.18,932.232 1269.23,931.377 1269,930.531L1265.71,918.239L1282.81,860.05L1277.22,944.211ZM1248.93,895.175C1248.33,897.388 1247.73,899.602 1247.13,901.815L1246.43,904.393L1241.66,898.331L1250.65,888.856L1248.93,895.175Z" style="fill:rgb(95,61,196);"/>
        </g>
        <g transform="matrix(0.689167,0.182815,-0.288222,1.0649,3946.03,-227.379)">
            <path d="M1312.17,556.721C1312.17,556.721 1304.13,561.463 1296.12,568.07C1281.36,580.235 1272.62,596.558 1272.62,612.6C1272.62,642.824 1272.08,693.81 1272.08,693.81L1285.02,710.498L1307.51,696.031L1312.17,556.721Z" style="fill:rgb(77,171,247);"/>
            <clipPath id="_clip4">
                <path d="M1312.17,556.721C1312.17,556.721 1304.13,561.463 1296.12,568.07C1281.36,580.235 1272.62,596.558 1272.62,612.6C1272.62,642.824 1272.08,693.81 1272.08,693.81L1285.02,710.498L1307.51,696.031L1312.17,556.721Z"/>
            </clipPath>
            <g clip-path="url(#_clip4)">
                <g transform="matrix(1.52059,-0.261044,0.865171,0.906194,-1361.25,185.564)">
                    <path d="M1326.26,793.775C1305.31,837.479 1277.24,870.481 1245.72,898.331C1252.66,862.03 1261.54,827.162 1282.97,801.565L1326.26,793.775Z" style="fill:rgb(34,139,230);"/>
                </g>
            </g>
        </g>
        <g transform="matrix(-0.689167,0.182815,0.288222,1.0649,5483.09,-227.379)">
            <path d="M1312.17,556.721C1312.17,556.721 1304.13,561.463 1296.12,568.07C1281.36,580.235 1272.62,596.558 1272.62,612.6C1272.62,642.824 1272.08,693.81 1272.08,693.81L1281.78,711.053L1307.51,696.031L1312.17,556.721Z" style="fill:rgb(77,171,247);"/>
            <clipPath id="_clip5">
                <path d="M1312.17,556.721C1312.17,556.721 1304.13,561.463 1296.12,568.07C1281.36,580.235 1272.62,596.558 1272.62,612.6C1272.62,642.824 1272.08,693.81 1272.08,693.81L1281.78,711.053L1307.51,696.031L1312.17,556.721Z"/>
            </clipPath>
            <g clip-path="url(#_clip5)">
                <g transform="matrix(1.52059,-0.261044,0.825236,0.91305,-1329.75,180.156)">
                    <path d="M1326.26,793.775C1305.31,837.479 1277.24,870.481 1245.72,898.331C1252.66,862.03 1261.54,827.162 1282.97,801.565L1326.26,793.775Z" style="fill:rgb(34,139,230);"/>
                </g>
            </g>
        </g>
        <g transform="matrix(-1.12318,0,0,1.12318,6208.88,-278.629)">
            <path d="M1326.26,793.775C1305.31,837.479 1277.24,870.481 1245.72,898.331C1252.66,862.03 1261.54,827.162 1282.97,801.565L1326.26,793.775Z" style="fill:rgb(132,94,247);"/>
            <clipPath id="_clip6">
                <path d="M1326.26,793.775C1305.31,837.479 1277.24,870.481 1245.72,898.331C1252.66,862.03 1261.54,827.162 1282.97,801.565L1326.26,793.775Z"/>
            </clipPath>
            <g clip-path="url(#_clip6)">
                <g transform="matrix(1,0,0,1,-5.26843,-6.72948)">
                    <path d="M1326.26,793.775C1305.31,837.479 1277.24,870.481 1245.72,898.331" style="fill:none;stroke:rgb(255,212,59);stroke-width:4px;"/>
                </g>
                <g id="Spiral" transform="matrix(0.14029,-0.24299,-0.175371,-0.0828035,821.826,2423.04)">
                    <path d="M5700.97,2111.17C5701,2102.19 5704.54,2094.39 5710.09,2088.47C5717.07,2081.03 5727.24,2076.6 5738.04,2076.66C5746.63,2076.71 5754.5,2079.79 5760.62,2084.92C5768.03,2091.13 5772.85,2100.34 5772.82,2110.73L5772.82,2110.73C5772.81,2114.3 5771.95,2117.76 5770.4,2120.89C5769,2123.72 5767.03,2126.27 5764.6,2128.39C5761.84,2130.81 5758.61,2132.54 5755.17,2133.55C5751.84,2134.53 5748.31,2134.81 5744.79,2134.35C5744.79,2134.35 5744.79,2134.35 5744.79,2134.35C5737.95,2133.47 5732.77,2131.11 5728.94,2128C5722.68,2122.94 5720.22,2115.99 5720.23,2111.25C5720.24,2106.18 5722.7,2101.95 5726.32,2099.08C5729.5,2096.54 5733.62,2095.09 5738.09,2095.12C5742.37,2095.14 5746.28,2096.53 5749.25,2098.94C5752.48,2101.56 5754.55,2105.44 5753.98,2110.06C5753.81,2111.52 5753.1,2112.62 5752.2,2113.49C5750.65,2114.97 5748.51,2115.71 5746.36,2115.77C5744.56,2115.83 5742.75,2115.4 5741.26,2114.41C5740.02,2113.58 5739,2112.35 5738.73,2110.46C5738.41,2108.35 5736.99,2106.87 5735.56,2107.15C5734.12,2107.43 5733.2,2109.37 5733.52,2111.48C5734.7,2119.28 5740.74,2123.59 5746.92,2123.33C5750.03,2123.2 5753.09,2121.97 5755.31,2119.8C5757.3,2117.85 5758.65,2115.16 5759.03,2111.89C5759.79,2105.35 5757.83,2099.47 5753.97,2095.11C5750.13,2090.77 5744.26,2087.98 5737.69,2088.02C5731.14,2088.06 5725.28,2090.84 5721.29,2095.27C5717.65,2099.31 5715.53,2104.72 5715.55,2110.7C5715.57,2116.22 5717.72,2124.19 5723.69,2130.62C5728.2,2135.47 5734.98,2139.54 5744.78,2140.68C5748.71,2141.15 5752.65,2140.78 5756.36,2139.64C5760.26,2138.46 5763.89,2136.43 5767,2133.66C5769.88,2131.09 5772.19,2128 5773.84,2124.6C5775.84,2120.48 5776.89,2115.9 5776.87,2111.22C5776.87,2111.22 5776.87,2111.22 5776.87,2111.22C5776.84,2100.95 5773.07,2091.53 5766.76,2084.41C5759.66,2076.41 5749.29,2071.31 5737.74,2071.38C5726.19,2071.45 5715.35,2076.39 5707.93,2084.45C5701.6,2091.33 5697.73,2100.47 5697.76,2110.78C5697.76,2112.06 5698.48,2113.19 5699.37,2113.29C5700.25,2113.4 5700.97,2112.45 5700.97,2111.17Z" style="fill:rgb(208,191,255);"/>
                </g>
            </g>
        </g>
        <g transform="matrix(1.12318,0,0,1.12318,3220.38,-278.629)">
            <path d="M1326.26,793.775C1305.31,837.479 1277.24,870.481 1245.72,898.331C1252.66,862.03 1261.54,827.162 1282.97,801.565L1326.26,793.775Z" style="fill:rgb(132,94,247);"/>
            <clipPath id="_clip7">
                <path d="M1326.26,793.775C1305.31,837.479 1277.24,870.481 1245.72,898.331C1252.66,862.03 1261.54,827.162 1282.97,801.565L1326.26,793.775Z"/>
            </clipPath>
            <g clip-path="url(#_clip7)">
                <g transform="matrix(1,0,0,1,-2.74094,-6.72948)">
                    <path d="M1326.26,793.775C1305.31,837.479 1277.24,870.481 1245.72,898.331" style="fill:none;stroke:rgb(255,212,59);stroke-width:4px;"/>
                </g>
            </g>
        </g>
        <g transform="matrix(-1.28559,0,0,1.12318,6421.66,-278.376)">
            <path d="M1314.21,782.667C1304.28,783.801 1287.51,795.575 1283.42,802.172C1287.51,819.257 1328.38,813.322 1328.38,782.667L1314.21,782.667Z" style="fill:rgb(52,58,64);"/>
        </g>
        <g transform="matrix(1.28559,0,0,1.12318,3007.61,-278.376)">
            <path d="M1314.21,782.667C1304.28,783.801 1287.51,795.575 1283.42,802.172C1287.51,819.257 1328.38,813.322 1328.38,782.667L1314.21,782.667Z" style="fill:rgb(52,58,64);"/>
        </g>
        <g transform="matrix(1.42588,0,0,1.1489,-4109.82,-1555.93)">
            <g transform="matrix(0.787706,0,0,0.97761,5142.93,1111.76)">
                <circle cx="1327.63" cy="792.48" r="5.435" style="fill:rgb(34,184,207);"/>
            </g>
            <g>
                <g transform="matrix(0.467193,0.579827,-0.467193,0.579827,5939.9,658.671)">
                    <path d="M1325.82,789.274C1325.82,788.866 1325.49,788.534 1325.08,788.534C1324.67,788.534 1324.34,788.866 1324.34,789.274L1324.34,795.718C1324.34,796.126 1324.67,796.457 1325.08,796.457C1325.49,796.457 1325.82,796.126 1325.82,795.718L1325.82,789.274Z" style="fill:rgb(24,100,171);"/>
                </g>
                <g transform="matrix(-0.467193,0.579827,0.467193,0.579827,6437.54,658.671)">
                    <path d="M1325.82,789.274C1325.82,788.866 1325.49,788.534 1325.08,788.534C1324.67,788.534 1324.34,788.866 1324.34,789.274L1324.34,795.718C1324.34,796.126 1324.67,796.457 1325.08,796.457C1325.49,796.457 1325.82,796.126 1325.82,795.718L1325.82,789.274Z" style="fill:rgb(24,100,171);"/>
                </g>
            </g>
        </g>
        <g transform="matrix(1.12318,0,0,1.12318,3224.94,-278.629)">
            <path d="M1299.86,993.073C1299.86,989.185 1296.7,986.029 1292.81,986.029C1288.92,986.029 1285.77,989.185 1285.77,993.073L1285.77,1000.5C1285.77,1004.38 1288.92,1007.54 1292.81,1007.54C1296.7,1007.54 1299.86,1004.38 1299.86,1000.5L1299.86,993.073Z" style="fill:rgb(92,124,250);"/>
            <clipPath id="_clip8">
                <path d="M1299.86,993.073C1299.86,989.185 1296.7,986.029 1292.81,986.029C1288.92,986.029 1285.77,989.185 1285.77,993.073L1285.77,1000.5C1285.77,1004.38 1288.92,1007.54 1292.81,1007.54C1296.7,1007.54 1299.86,1004.38 1299.86,1000.5L1299.86,993.073Z"/>
            </clipPath>
            <g clip-path="url(#_clip8)">
                <g id="Spiral1" serif:id="Spiral" transform="matrix(-0.174127,-4.08069e-17,6.60674e-18,0.200535,2292.99,574.485)">
                    <path d="M5697.27,2110.97C5697.22,2100.34 5701.49,2091.05 5708.26,2084.22C5715.83,2076.58 5726.53,2072.01 5737.89,2071.96C5749.29,2071.92 5759.61,2076.7 5766.86,2084.41C5773.4,2091.36 5777.44,2100.7 5777.49,2110.97C5777.49,2110.97 5777.49,2110.97 5777.49,2110.97C5777.51,2115.02 5776.67,2118.98 5775.09,2122.61C5773.43,2126.42 5770.94,2129.87 5767.76,2132.7C5764.65,2135.47 5761.02,2137.51 5757.14,2138.76C5753.07,2140.06 5748.72,2140.49 5744.38,2139.97C5734.77,2138.83 5727.98,2135.03 5723.34,2130.35C5717.2,2124.16 5714.87,2116.37 5714.84,2110.97C5714.81,2105 5717.15,2099.73 5720.92,2095.83C5725.14,2091.46 5731.19,2088.82 5737.89,2088.8C5744.63,2088.77 5750.69,2091.43 5754.76,2095.79C5758.47,2099.76 5760.52,2105.17 5759.82,2111.27C5758.99,2118.61 5752.61,2122.44 5746.33,2122.51C5740.19,2122.58 5733.87,2119.1 5732.68,2111.36C5732.44,2109.71 5733.78,2108.2 5735.68,2107.99C5737.58,2107.77 5739.32,2108.94 5739.57,2110.59C5740.14,2114.58 5743.11,2116.62 5746.27,2116.61C5749.54,2116.59 5752.72,2114.49 5753.19,2110.68C5753.74,2106.23 5752.35,2102.26 5749.67,2099.34C5746.85,2096.26 5742.62,2094.36 5737.89,2094.34C5733.08,2094.32 5728.74,2096.22 5725.68,2099.33C5722.74,2102.31 5720.96,2106.38 5720.94,2110.97C5720.91,2115.43 5722.8,2121.87 5727.82,2127.02C5731.63,2130.92 5737.24,2134.06 5745.18,2135.06C5745.18,2135.06 5745.19,2135.06 5745.19,2135.06C5748.6,2135.5 5752.01,2135.19 5755.22,2134.18C5758.36,2133.2 5761.3,2131.57 5763.84,2129.35C5766.52,2127 5768.63,2124.12 5770.05,2120.93C5771.44,2117.83 5772.19,2114.45 5772.2,2110.97L5772.2,2110.97C5772.25,2101.79 5768.75,2093.4 5762.97,2087.15C5756.72,2080.39 5747.82,2076.12 5737.89,2076.08C5727.85,2076.04 5718.39,2080.06 5711.63,2086.76C5705.43,2092.91 5701.51,2101.32 5701.46,2110.97C5701.46,2111.98 5700.52,2112.79 5699.37,2112.79C5698.21,2112.79 5697.27,2111.98 5697.27,2110.97Z" style="fill:rgb(116,192,252);"/>
                </g>
            </g>
        </g>
        <g transform="matrix(1.12318,0,0,1.12318,3299.41,-278.629)">
            <path d="M1299.86,993.073C1299.86,989.185 1296.7,986.029 1292.81,986.029C1288.92,986.029 1285.77,989.185 1285.77,993.073L1285.77,1000.5C1285.77,1004.38 1288.92,1007.54 1292.81,1007.54C1296.7,1007.54 1299.86,1004.38 1299.86,1000.5L1299.86,993.073Z" style="fill:rgb(151,117,250);"/>
            <clipPath id="_clip9">
                <path d="M1299.86,993.073C1299.86,989.185 1296.7,986.029 1292.81,986.029C1288.92,986.029 1285.77,989.185 1285.77,993.073L1285.77,1000.5C1285.77,1004.38 1288.92,1007.54 1292.81,1007.54C1296.7,1007.54 1299.86,1004.38 1299.86,1000.5L1299.86,993.073Z"/>
            </clipPath>
            <g clip-path="url(#_clip9)">
                <g id="Spiral2" serif:id="Spiral" transform="matrix(0.174127,-4.08069e-17,-6.60674e-18,0.200535,292.735,574.485)">
                    <path d="M5701.46,2110.97C5701.51,2101.32 5705.43,2092.91 5711.63,2086.76C5718.39,2080.06 5727.85,2076.04 5737.89,2076.08C5747.82,2076.12 5756.72,2080.39 5762.97,2087.15C5768.75,2093.4 5772.25,2101.79 5772.2,2110.97L5772.2,2110.97C5772.19,2114.45 5771.44,2117.83 5770.05,2120.93C5768.63,2124.12 5766.52,2127 5763.84,2129.35C5761.3,2131.57 5758.36,2133.2 5755.22,2134.18C5752.01,2135.19 5748.6,2135.5 5745.19,2135.06C5745.19,2135.06 5745.18,2135.06 5745.18,2135.06C5737.24,2134.06 5731.63,2130.92 5727.82,2127.02C5722.8,2121.87 5720.91,2115.43 5720.94,2110.97C5720.96,2106.38 5722.74,2102.31 5725.68,2099.33C5728.74,2096.22 5733.08,2094.32 5737.89,2094.34C5742.62,2094.36 5746.85,2096.26 5749.67,2099.34C5752.35,2102.26 5753.74,2106.23 5753.19,2110.68C5752.72,2114.49 5749.54,2116.59 5746.27,2116.61C5743.11,2116.62 5740.14,2114.58 5739.57,2110.59C5739.32,2108.94 5737.58,2107.77 5735.68,2107.99C5733.78,2108.2 5732.44,2109.71 5732.68,2111.36C5733.87,2119.1 5740.19,2122.58 5746.33,2122.51C5752.61,2122.44 5758.99,2118.61 5759.82,2111.27C5760.52,2105.17 5758.47,2099.76 5754.76,2095.79C5750.69,2091.43 5744.63,2088.77 5737.89,2088.8C5731.19,2088.82 5725.14,2091.46 5720.92,2095.83C5717.15,2099.73 5714.81,2105 5714.84,2110.97C5714.87,2116.37 5717.2,2124.16 5723.34,2130.35C5727.98,2135.03 5734.77,2138.83 5744.39,2139.97C5748.72,2140.49 5753.07,2140.06 5757.14,2138.76C5761.02,2137.51 5764.65,2135.47 5767.76,2132.7C5770.94,2129.87 5773.43,2126.42 5775.09,2122.61C5776.67,2118.98 5777.51,2115.02 5777.49,2110.97C5777.49,2110.97 5777.49,2110.97 5777.49,2110.97C5777.44,2100.7 5773.4,2091.36 5766.86,2084.41C5759.61,2076.7 5749.29,2071.92 5737.89,2071.96C5726.53,2072.01 5715.83,2076.58 5708.26,2084.22C5701.49,2091.05 5697.22,2100.34 5697.27,2110.97C5697.27,2111.98 5698.21,2112.79 5699.37,2112.79C5700.52,2112.79 5701.46,2111.98 5701.46,2110.97Z" style="fill:rgb(191,169,255);"/>
                </g>
            </g>
        </g>
        <g id="Planet" transform="matrix(0.159944,0.0923438,-0.0744057,0.128874,3892.88,-207.327)">
            <g transform="matrix(0.388273,0,0,0.0822753,517.562,1856.38)">
                <path d="M15432,2497.2C15377.7,2497.2 15331.5,2535.54 15315.2,2584.48C15306.8,2609.62 15303.9,2644.45 15303.9,2672.39C15303.9,2700.33 15306.8,2735.16 15315.2,2760.3C15331.5,2809.24 15377.7,2847.58 15432,2847.58C15486.4,2847.58 15532.6,2809.24 15548.9,2760.3C15557.3,2735.16 15560.2,2700.33 15560.2,2672.39C15560.2,2644.45 15557.3,2609.62 15548.9,2584.48C15532.6,2535.54 15486.4,2497.2 15432,2497.2ZM15534.5,2672.39L15534.3,2671.84C15515.1,2634.91 15476.5,2610.64 15432,2610.64C15387.6,2610.64 15349,2634.91 15329.8,2671.84L15329.6,2672.39L15329.8,2672.94C15349,2709.87 15387.6,2734.14 15432,2734.14C15476.5,2734.14 15515.1,2709.87 15534.3,2672.94L15534.5,2672.39Z" style="fill:rgb(255,216,168);"/>
            </g>
            <g transform="matrix(0.252066,0,0,0.312835,2504.28,1192.29)">
                <path d="M15983.8,2896.98C15962.2,2925.62 15927.8,2944.14 15889.2,2944.14C15850.6,2944.14 15816.2,2925.62 15794.6,2896.98C15822.4,2899.88 15854.8,2901.59 15889.2,2901.59C15923.7,2901.59 15956,2899.88 15983.8,2896.98ZM15777.5,2865.15C15773.1,2852.79 15770.7,2839.51 15770.7,2825.67C15770.7,2760.29 15823.8,2707.2 15889.2,2707.2C15954.6,2707.2 16007.7,2760.29 16007.7,2825.67C16007.7,2839.51 16005.3,2852.79 16000.9,2865.15C15970.4,2869.31 15931.5,2871.75 15889.2,2871.75C15846.9,2871.75 15808,2869.31 15777.5,2865.15Z" style="fill:rgb(255,216,168);"/>
            </g>
        </g>
        <g transform="matrix(1.0849,-0.290699,0.290699,1.0849,3024.75,128.898)">
            <path d="M1278,825.902C1274.97,825.902 1272.51,828.365 1272.51,831.399C1272.51,834.433 1274.97,836.897 1278,836.897C1277.09,835.614 1276.35,833.592 1276.35,831.399C1276.35,829.206 1277.09,827.185 1278,825.902Z" style="fill:rgb(165,216,255);"/>
        </g>
        <g transform="matrix(1.12318,0,0,1.12318,3224.94,-278.629)">
            <path d="M1282.05,815.997L1283.18,819.048L1286.23,820.177L1283.18,821.306L1282.05,824.357L1280.92,821.306L1277.87,820.177L1280.92,819.048L1282.05,815.997Z" style="fill:none;stroke:rgb(255,224,102);stroke-width:0.93px;"/>
        </g>
        <g transform="matrix(0.770177,0,0,0.715687,3650.72,94.5786)">
            <path d="M1282.05,815.997L1283.18,819.048L1286.23,820.177L1283.18,821.306L1282.05,824.357L1280.92,821.306L1277.87,820.177L1280.92,819.048L1282.05,815.997Z" style="fill:none;stroke:rgb(252,194,215);stroke-width:0.93px;"/>
        </g>
        <g transform="matrix(0.770177,0,0,0.715687,3775.09,59.0637)">
            <path d="M1282.05,815.997L1283.18,819.048L1286.23,820.177L1283.18,821.306L1282.05,824.357L1280.92,821.306L1277.87,820.177L1280.92,819.048L1282.05,815.997Z" style="fill:none;stroke:rgb(153,233,242);stroke-width:0.93px;"/>
        </g>
    </g>
</svg>
