<?xml version="1.0" encoding="UTF-8" standalone="no"?>
<!DOCTYPE svg PUBLIC "-//W3C//DTD SVG 1.1//EN" "http://www.w3.org/Graphics/SVG/1.1/DTD/svg11.dtd">
<svg width="100%" height="100%" viewBox="0 0 256 256" version="1.1" xmlns="http://www.w3.org/2000/svg" xmlns:xlink="http://www.w3.org/1999/xlink" xml:space="preserve" xmlns:serif="http://www.serif.com/" style="fill-rule:evenodd;clip-rule:evenodd;stroke-linecap:round;stroke-linejoin:round;stroke-miterlimit:1.5;">
    <g id="Clothing---Dungarees-Trousers" serif:id="Clothing - Dungarees Trousers" transform="matrix(0.890333,0,0,0.890333,-4069.53,-535.041)">
        <g>
            <g>
                <g transform="matrix(0.480741,-1.81013,1.13579,0.307044,3112.36,2714.44)">
                    <path d="M1307.44,835.524C1295.55,809.82 1286.38,808.721 1262.48,808.621L1262.48,835.524L1307.44,835.524Z" style="fill:rgb(255,236,153);"/>
                </g>
                <g>
                    <g transform="matrix(0.972546,0.260593,-0.290699,1.0849,3664.71,-563.931)">
                        <rect x="1252.01" y="839.15" width="32.092" height="4.849" style="fill:rgb(255,212,59);"/>
                    </g>
                    <g transform="matrix(0.290699,-1.0849,1.0849,0.290699,3366.94,1803.22)">
                        <path d="M1271.72,839.738C1271.72,838.938 1271.08,838.288 1270.28,838.288L1268.14,838.288C1267.34,838.288 1266.69,838.938 1266.69,839.738C1266.69,840.538 1267.34,841.187 1268.14,841.187L1270.28,841.187C1271.08,841.187 1271.72,840.538 1271.72,839.738Z" style="fill:rgb(255,212,59);"/>
                    </g>
                    <g transform="matrix(0.290699,-1.0849,1.0849,0.290699,3375.8,1805.59)">
                        <path d="M1271.72,839.738C1271.72,838.938 1271.08,838.288 1270.28,838.288L1268.14,838.288C1267.34,838.288 1266.69,838.938 1266.69,839.738C1266.69,840.538 1267.34,841.187 1268.14,841.187L1270.28,841.187C1271.08,841.187 1271.72,840.538 1271.72,839.738Z" style="fill:rgb(255,212,59);"/>
                    </g>
                    <g transform="matrix(0.290699,-1.0849,1.0849,0.290699,3384.66,1807.96)">
                        <path d="M1271.72,839.738C1271.72,838.938 1271.08,838.288 1270.28,838.288L1268.14,838.288C1267.34,838.288 1266.69,838.938 1266.69,839.738C1266.69,840.538 1267.34,841.187 1268.14,841.187L1270.28,841.187C1271.08,841.187 1271.72,840.538 1271.72,839.738Z" style="fill:rgb(255,212,59);"/>
                    </g>
                </g>
                <g transform="matrix(-0.480741,-1.81013,-1.13579,0.307044,6317.47,2714.44)">
                    <path d="M1307.44,835.524C1295.55,809.82 1286.38,808.721 1262.48,808.621L1262.48,835.524L1307.44,835.524Z" style="fill:rgb(255,236,153);"/>
                </g>
                <g transform="matrix(-1,0,0,1,9429.13,-5.68434e-14)">
                    <g transform="matrix(0.972546,0.260593,-0.290699,1.0849,3664.71,-563.931)">
                        <rect x="1252.01" y="839.15" width="32.092" height="4.849" style="fill:rgb(255,212,59);"/>
                    </g>
                    <g transform="matrix(0.290699,-1.0849,1.0849,0.290699,3366.94,1803.22)">
                        <path d="M1271.72,839.738C1271.72,838.938 1271.08,838.288 1270.28,838.288L1268.14,838.288C1267.34,838.288 1266.69,838.938 1266.69,839.738C1266.69,840.538 1267.34,841.187 1268.14,841.187L1270.28,841.187C1271.08,841.187 1271.72,840.538 1271.72,839.738Z" style="fill:rgb(255,212,59);"/>
                    </g>
                    <g transform="matrix(0.290699,-1.0849,1.0849,0.290699,3375.8,1805.59)">
                        <path d="M1271.72,839.738C1271.72,838.938 1271.08,838.288 1270.28,838.288L1268.14,838.288C1267.34,838.288 1266.69,838.938 1266.69,839.738C1266.69,840.538 1267.34,841.187 1268.14,841.187L1270.28,841.187C1271.08,841.187 1271.72,840.538 1271.72,839.738Z" style="fill:rgb(255,212,59);"/>
                    </g>
                    <g transform="matrix(0.290699,-1.0849,1.0849,0.290699,3384.66,1807.96)">
                        <path d="M1271.72,839.738C1271.72,838.938 1271.08,838.288 1270.28,838.288L1268.14,838.288C1267.34,838.288 1266.69,838.938 1266.69,839.738C1266.69,840.538 1267.34,841.187 1268.14,841.187L1270.28,841.187C1271.08,841.187 1271.72,840.538 1271.72,839.738Z" style="fill:rgb(255,212,59);"/>
                    </g>
                </g>
            </g>
            <g transform="matrix(1.12318,0,0,1.12318,3224.94,-349.922)">
                <path d="M1313.83,846.588C1315.18,852.362 1320.36,856.669 1326.55,856.669C1332.71,856.669 1337.89,852.383 1339.25,846.63C1354.21,849.113 1365.99,861.574 1367.12,877.251C1368.8,900.653 1370.98,930.644 1372.75,954.884L1280.05,954.884C1281.88,930.589 1284.16,900.517 1285.93,877.097C1287.11,861.454 1298.89,849.053 1313.83,846.588Z" style="fill:rgb(255,212,59);"/>
                <clipPath id="_clip1">
                    <path d="M1313.83,846.588C1315.18,852.362 1320.36,856.669 1326.55,856.669C1332.71,856.669 1337.89,852.383 1339.25,846.63C1354.21,849.113 1365.99,861.574 1367.12,877.251C1368.8,900.653 1370.98,930.644 1372.75,954.884L1280.05,954.884C1281.88,930.589 1284.16,900.517 1285.93,877.097C1287.11,861.454 1298.89,849.053 1313.83,846.588Z"/>
                </clipPath>
                <g clip-path="url(#_clip1)">
                    <g transform="matrix(1,0,0,1,0,63.4743)">
                        <rect x="1326.34" y="771.97" width="48.447" height="119.44" style="fill:rgb(250,176,5);"/>
                    </g>
                    <g transform="matrix(1,0,0,1,8.95284e-13,63.162)">
                        <path d="M1338.05,782.979C1340.69,783.319 1343.23,783.967 1345.64,784.886C1344.69,794.584 1336.5,802.172 1326.55,802.172C1316.58,802.172 1308.38,794.559 1307.44,784.835C1309.76,783.955 1312.2,783.326 1314.72,782.979L1338.05,782.979Z" style="fill:rgb(255,255,248);"/>
                    </g>
                </g>
            </g>
        </g>
        <g>
            <g transform="matrix(1.22388,0,0,2.79547,-1052.08,-1437.41)">
                <path d="M4754.56,770.345L4669.12,770.345L4665.59,800.286L4757.96,800.286L4754.56,770.345Z" style="fill:rgb(77,171,247);"/>
            </g>
            <g transform="matrix(1.22388,0,0,2.79547,-1052.08,-1437.41)">
                <path d="M4754.56,770.345L4711.84,770.345L4712.53,800.286L4757.96,800.286L4754.56,770.345Z" style="fill:rgb(51,154,240);"/>
            </g>
            <g transform="matrix(1,0,0,1,-0.0309322,5.68434e-14)">
                <g transform="matrix(1.12318,0,0,2.02403,3224.97,-1143.57)">
                    <rect x="1293.77" y="960.13" width="24.082" height="16.985" style="fill:rgb(51,154,240);"/>
                </g>
                <g transform="matrix(0.905898,0,-0.105855,2.02403,3587.7,-1143.57)">
                    <rect x="1293.77" y="960.13" width="24.082" height="16.985" style="fill:rgb(77,171,247);"/>
                </g>
                <g transform="matrix(-1.12318,0,0,2.02403,6205.14,-1143.57)">
                    <rect x="1293.77" y="960.13" width="24.082" height="16.985" style="fill:rgb(77,171,247);"/>
                </g>
                <g transform="matrix(-0.980555,0,0.105855,2.02403,5938.19,-1143.57)">
                    <rect x="1293.77" y="960.13" width="24.082" height="16.985" style="fill:rgb(51,154,240);"/>
                </g>
                <g>
                    <g transform="matrix(1.15133,0,0,1.12318,3186.13,-288.803)">
                        <rect x="1335.21" y="990.738" width="44.617" height="9.406" style="fill:rgb(116,192,252);"/>
                    </g>
                    <g transform="matrix(0.57574,0,0,1.12318,3980.34,-288.803)">
                        <rect x="1335.21" y="990.738" width="44.617" height="9.406" style="fill:rgb(77,171,247);"/>
                    </g>
                </g>
                <g transform="matrix(1,0,0,1,-68.2467,0)">
                    <g transform="matrix(1.15133,0,0,1.12318,3186.13,-288.803)">
                        <rect x="1335.21" y="990.738" width="44.617" height="9.406" style="fill:rgb(116,192,252);"/>
                    </g>
                    <g transform="matrix(0.636807,0,0,1.12318,3896.08,-288.803)">
                        <rect x="1335.21" y="990.738" width="44.617" height="9.406" style="fill:rgb(77,171,247);"/>
                    </g>
                </g>
            </g>
            <g transform="matrix(2.12209,0,0,1.52573,1934.37,-691.049)">
                <rect x="1293.77" y="960.13" width="24.082" height="16.985" style="fill:rgb(51,154,240);"/>
            </g>
            <g transform="matrix(0.757368,0,0,1.24113,3708.1,-375.061)">
                <path d="M1379.79,881.388L1278,881.388L1303.45,817.698L1354.34,817.698L1379.79,881.388Z" style="fill:rgb(77,171,247);"/>
            </g>
            <g transform="matrix(0.757368,0,0,1.24113,3708.1,-375.061)">
                <path d="M1379.79,881.388L1329.02,881.388L1329.02,817.698L1354.34,817.698L1379.79,881.388Z" style="fill:rgb(51,154,240);"/>
            </g>
            <g transform="matrix(0.972699,0.561588,-0.596948,1.03394,3956.36,-926.057)">
                <path d="M1311.07,783.167C1311.07,782.148 1310.64,781.171 1309.88,780.45C1309.11,779.729 1308.07,779.325 1306.99,779.325C1304.58,779.325 1301.54,779.325 1299.12,779.325C1298.04,779.325 1297,779.729 1296.24,780.45C1295.47,781.171 1295.04,782.148 1295.04,783.167C1295.04,794.425 1295.04,826.547 1295.04,826.547C1295.04,830.709 1298.63,834.088 1303.06,834.088C1307.48,834.088 1311.07,830.709 1311.07,826.547L1311.07,783.167Z" style="fill:rgb(34,139,230);"/>
            </g>
            <g transform="matrix(-0.972699,0.561588,0.596948,1.03394,5474.38,-926.057)">
                <path d="M1311.07,783.167C1311.07,782.148 1310.64,781.171 1309.88,780.45C1309.11,779.729 1308.07,779.325 1306.99,779.325C1304.58,779.325 1301.54,779.325 1299.12,779.325C1298.04,779.325 1297,779.729 1296.24,780.45C1295.47,781.171 1295.04,782.148 1295.04,783.167C1295.04,794.425 1295.04,826.547 1295.04,826.547C1295.04,830.709 1298.63,834.088 1303.06,834.088C1307.48,834.088 1311.07,830.709 1311.07,826.547L1311.07,783.167Z" style="fill:rgb(51,154,240);"/>
            </g>
        </g>
        <g transform="matrix(1.02264,-0.590423,0.590423,1.02264,-496.911,2760.67)">
            <g transform="matrix(1.12318,0,0,1.12318,3223.84,-274.828)">
                <circle cx="1315.27" cy="833.501" r="4.132" style="fill:rgb(229,135,255);"/>
            </g>
            <g transform="matrix(0.754762,-0.754762,0.996772,0.996772,2875.58,819.429)">
                <path d="M1314.6,834.71C1314.6,834.49 1314.37,834.312 1314.08,834.312C1313.78,834.312 1313.55,834.49 1313.55,834.71L1313.55,838.137C1313.55,838.357 1313.78,838.535 1314.08,838.535C1314.37,838.535 1314.6,838.357 1314.6,838.137L1314.6,834.71Z" style="fill:rgb(204,93,232);"/>
            </g>
            <g transform="matrix(-0.754762,-0.754762,-0.996772,0.996772,6526.65,819.429)">
                <path d="M1314.6,834.71C1314.6,834.49 1314.37,834.312 1314.08,834.312C1313.78,834.312 1313.55,834.49 1313.55,834.71L1313.55,838.137C1313.55,838.357 1313.78,838.535 1314.08,838.535C1314.37,838.535 1314.6,838.357 1314.6,838.137L1314.6,834.71Z" style="fill:rgb(204,93,232);"/>
            </g>
        </g>
        <g transform="matrix(1.02264,0.590423,-0.590423,1.02264,284.214,-2807.36)">
            <g transform="matrix(1.12318,0,0,1.12318,3252.2,-274.828)">
                <circle cx="1315.27" cy="833.501" r="4.132" style="fill:rgb(247,131,135);"/>
            </g>
            <g transform="matrix(0.754762,-0.754762,0.996772,0.996772,2903.94,819.429)">
                <path d="M1314.6,834.71C1314.6,834.49 1314.37,834.312 1314.08,834.312C1313.78,834.312 1313.55,834.49 1313.55,834.71L1313.55,838.137C1313.55,838.357 1313.78,838.535 1314.08,838.535C1314.37,838.535 1314.6,838.357 1314.6,838.137L1314.6,834.71Z" style="fill:rgb(250,82,82);"/>
            </g>
            <g transform="matrix(-0.754762,-0.754762,-0.996772,0.996772,6555.01,819.429)">
                <path d="M1314.6,834.71C1314.6,834.49 1314.37,834.312 1314.08,834.312C1313.78,834.312 1313.55,834.49 1313.55,834.71L1313.55,838.137C1313.55,838.357 1313.78,838.535 1314.08,838.535C1314.37,838.535 1314.6,838.357 1314.6,838.137L1314.6,834.71Z" style="fill:rgb(250,82,82);"/>
            </g>
        </g>
        <g>
            <g transform="matrix(1.23338,0.107312,-0.107312,1.23338,3167.88,-503.352)">
                <path d="M1326.42,837.168C1326.56,836.147 1327.43,835.384 1328.46,835.384C1329.48,835.384 1330.35,836.147 1330.49,837.168L1331.34,843.758L1337.88,842.536C1338.89,842.347 1339.88,842.938 1340.2,843.917C1340.52,844.895 1340.06,845.958 1339.13,846.399L1333.13,849.251L1336.31,855.086C1336.8,855.989 1336.55,857.118 1335.71,857.723C1334.88,858.327 1333.73,858.221 1333.02,857.473L1328.46,852.646L1323.89,857.473C1323.18,858.221 1322.03,858.327 1321.2,857.723C1320.37,857.118 1320.11,855.989 1320.6,855.086L1323.78,849.251L1317.78,846.399C1316.85,845.958 1316.39,844.895 1316.71,843.917C1317.03,842.938 1318.02,842.347 1319.04,842.536L1325.57,843.758L1326.42,837.168Z" style="fill:rgb(255,255,104);"/>
            </g>
            <g transform="matrix(0.527234,0.141272,-0.141272,0.527234,4113.38,123.38)">
                <path d="M1326.42,837.168C1326.56,836.147 1327.43,835.384 1328.46,835.384C1329.48,835.384 1330.35,836.147 1330.49,837.168L1331.34,843.758L1337.88,842.536C1338.89,842.347 1339.88,842.938 1340.2,843.917C1340.52,844.895 1340.06,845.958 1339.13,846.399L1333.13,849.251L1336.31,855.086C1336.8,855.989 1336.55,857.118 1335.71,857.723C1334.88,858.327 1333.73,858.221 1333.02,857.473L1328.46,852.646L1323.89,857.473C1323.18,858.221 1322.03,858.327 1321.2,857.723C1320.37,857.118 1320.11,855.989 1320.6,855.086L1323.78,849.251L1317.78,846.399C1316.85,845.958 1316.39,844.895 1316.71,843.917C1317.03,842.938 1318.02,842.347 1319.04,842.536L1325.57,843.758L1326.42,837.168Z" style="fill:rgb(255,255,104);"/>
            </g>
            <g transform="matrix(0.366869,0.0983023,-0.0983023,0.366869,4335.88,307.797)">
                <path d="M1326.42,837.168C1326.56,836.147 1327.43,835.384 1328.46,835.384C1329.48,835.384 1330.35,836.147 1330.49,837.168L1331.34,843.758L1337.88,842.536C1338.89,842.347 1339.88,842.938 1340.2,843.917C1340.52,844.895 1340.06,845.958 1339.13,846.399L1333.13,849.251L1336.31,855.086C1336.8,855.989 1336.55,857.118 1335.71,857.723C1334.88,858.327 1333.73,858.221 1333.02,857.473L1328.46,852.646L1323.89,857.473C1323.18,858.221 1322.03,858.327 1321.2,857.723C1320.37,857.118 1320.11,855.989 1320.6,855.086L1323.78,849.251L1317.78,846.399C1316.85,845.958 1316.39,844.895 1316.71,843.917C1317.03,842.938 1318.02,842.347 1319.04,842.536L1325.57,843.758L1326.42,837.168Z" style="fill:rgb(105,219,124);"/>
            </g>
            <g transform="matrix(0.418493,0.112135,-0.112135,0.418493,4228.24,275.315)">
                <path d="M1326.42,837.168C1326.56,836.147 1327.43,835.384 1328.46,835.384C1329.48,835.384 1330.35,836.147 1330.49,837.168L1331.34,843.758L1337.88,842.536C1338.89,842.347 1339.88,842.938 1340.2,843.917C1340.52,844.895 1340.06,845.958 1339.13,846.399L1333.13,849.251L1336.31,855.086C1336.8,855.989 1336.55,857.118 1335.71,857.723C1334.88,858.327 1333.73,858.221 1333.02,857.473L1328.46,852.646L1323.89,857.473C1323.18,858.221 1322.03,858.327 1321.2,857.723C1320.37,857.118 1320.11,855.989 1320.6,855.086L1323.78,849.251L1317.78,846.399C1316.85,845.958 1316.39,844.895 1316.71,843.917C1317.03,842.938 1318.02,842.347 1319.04,842.536L1325.57,843.758L1326.42,837.168Z" style="fill:rgb(102,217,232);"/>
            </g>
        </g>
        <g transform="matrix(0.709906,0,0,0.709906,3770.43,73.1317)">
            <path d="M1309.54,871.511L1352.95,871.511C1352.95,883.49 1352.95,906.614 1331.24,906.614C1309.54,906.614 1309.54,883.49 1309.54,871.511Z" style="fill:rgb(34,139,230);"/>
        </g>
        <g transform="matrix(3.9187,0,-4.2953e-16,5.14397,2661.82,-14428.3)">
            <g transform="matrix(1.17419,0,0,1.17419,-81.5366,-515.956)">
                <g transform="matrix(1,0,0,1,-7.12807,-5.87511)">
                    <g transform="matrix(0.194569,0,0,0.148224,-629.624,2113.39)">
                        <circle cx="5903.72" cy="5637.83" r="8.426" style="fill:white;"/>
                    </g>
                    <g transform="matrix(0.0968971,0,0,0.0738167,-52.9959,2532.88)">
                        <circle cx="5903.72" cy="5637.83" r="8.426" style="fill:rgb(255,101,157);"/>
                    </g>
                </g>
                <g transform="matrix(1,0,0,1,0.539389,-5.87511)">
                    <g transform="matrix(0.194569,0,0,0.148224,-629.624,2113.39)">
                        <circle cx="5903.72" cy="5637.83" r="8.426" style="fill:white;"/>
                    </g>
                    <g transform="matrix(0.0968971,0,0,0.0738167,-52.9959,2532.88)">
                        <circle cx="5903.72" cy="5637.83" r="8.426" style="fill:rgb(255,101,157);"/>
                    </g>
                </g>
            </g>
            <g transform="matrix(0.18048,-7.72182e-19,1.76476e-18,0.148224,-538.337,2110.12)">
                <path d="M5886.57,5590.18C5910.69,5590.18 5915.32,5603.61 5915.32,5617C5915.32,5630.4 5902.44,5633.77 5886.57,5633.77C5870.71,5633.77 5857.83,5630.4 5857.83,5617C5857.83,5603.61 5862.46,5590.18 5886.57,5590.18Z" style="fill:white;"/>
            </g>
            <g transform="matrix(0.729594,0,1.79859e-32,0.729594,142.127,789.147)">
                <g transform="matrix(0.266158,0,0,0.20276,-1054.15,1804.6)">
                    <circle cx="5927.49" cy="5657.76" r="7.367" style="fill:rgb(250,162,193);"/>
                </g>
                <g transform="matrix(0.0641476,0,0,0.048868,143.266,2674.86)">
                    <circle cx="5927.49" cy="5657.76" r="7.367" style="fill:rgb(186,19,55);"/>
                </g>
                <g transform="matrix(0.194569,0,1.827e-33,0.148224,-629.52,2112.91)">
                    <path d="M5926.02,5659.75L5923.99,5661.78C5923.77,5662 5923.41,5662 5923.19,5661.78C5922.97,5661.56 5922.97,5661.2 5923.19,5660.98L5925.61,5658.55C5925.84,5658.33 5926.2,5658.33 5926.42,5658.55L5928.85,5660.98C5929.07,5661.2 5929.07,5661.56 5928.85,5661.78C5928.62,5662 5928.27,5662 5928.04,5661.78L5926.02,5659.75Z" style="fill:rgb(186,19,55);"/>
                </g>
            </g>
            <g transform="matrix(1,0,0,1,0.570551,-9.06366)">
                <g transform="matrix(0.194569,0,0,0.148224,-629.624,2113.39)">
                    <path d="M5907.28,5650.39C5907.28,5657.43 5916.15,5657.43 5916.15,5650.39" style="fill:none;stroke:rgb(194,37,92);stroke-width:1.13px;"/>
                </g>
                <g transform="matrix(0.194569,0,0,0.148224,-623.854,2113.39)">
                    <path d="M5907.28,5650.39C5907.28,5657.43 5916.15,5657.43 5916.15,5650.39" style="fill:none;stroke:rgb(194,37,92);stroke-width:1.13px;"/>
                </g>
            </g>
            <g transform="matrix(1,0,0,1,0.506415,-9.06366)">
                <g transform="matrix(0.194569,0,0,0.148224,-630.009,2113.01)">
                    <circle cx="5909.09" cy="5662.18" r="2.876" style="fill:rgb(250,162,193);"/>
                </g>
                <g transform="matrix(0.194569,0,0,0.148224,-622.316,2113.01)">
                    <circle cx="5909.09" cy="5662.18" r="2.876" style="fill:rgb(250,162,193);"/>
                </g>
            </g>
        </g>
        <g transform="matrix(1.42588,0,0,1.1489,-4109.55,-1555.93)">
            <g transform="matrix(0.999009,0.0552311,-0.0358576,0.999009,78.6151,-341.091)">
                <g transform="matrix(1.5839,-5.55112e-17,2.08167e-17,0.763704,4108.12,1252.67)">
                    <path d="M1292.67,963.851C1292.67,962.664 1292.3,961.701 1291.84,961.701C1291.38,961.701 1291,962.664 1291,963.851L1291,971.689C1291,972.876 1291.38,973.839 1291.84,973.839C1292.3,973.839 1292.67,972.876 1292.67,971.689L1292.67,963.851Z" style="fill:rgb(51,154,240);"/>
                </g>
                <g transform="matrix(1.5839,-5.55112e-17,2.08167e-17,0.763704,4108.12,1267.4)">
                    <path d="M1292.67,963.851C1292.67,962.664 1292.3,961.701 1291.84,961.701C1291.38,961.701 1291,962.664 1291,963.851L1291,971.689C1291,972.876 1291.38,973.839 1291.84,973.839C1292.3,973.839 1292.67,972.876 1292.67,971.689L1292.67,963.851Z" style="fill:rgb(51,154,240);"/>
                </g>
                <g transform="matrix(1.5839,-5.55112e-17,2.08167e-17,0.763704,4108.12,1282.14)">
                    <path d="M1292.67,963.851C1292.67,962.664 1292.3,961.701 1291.84,961.701C1291.38,961.701 1291,962.664 1291,963.851L1291,971.689C1291,972.876 1291.38,973.839 1291.84,973.839C1292.3,973.839 1292.67,972.876 1292.67,971.689L1292.67,963.851Z" style="fill:rgb(51,154,240);"/>
                </g>
                <g transform="matrix(1.5839,-5.55112e-17,2.08167e-17,0.763704,4108.12,1296.88)">
                    <path d="M1292.67,963.851C1292.67,962.664 1292.3,961.701 1291.84,961.701C1291.38,961.701 1291,962.664 1291,963.851L1291,971.689C1291,972.876 1291.38,973.839 1291.84,973.839C1292.3,973.839 1292.67,972.876 1292.67,971.689L1292.67,963.851Z" style="fill:rgb(51,154,240);"/>
                </g>
                <g transform="matrix(1.5839,-5.55112e-17,3.1225e-17,0.763704,4108.12,1311.61)">
                    <path d="M1292.67,963.851C1292.67,962.664 1292.3,961.701 1291.84,961.701C1291.38,961.701 1291,962.664 1291,963.851L1291,971.689C1291,972.876 1291.38,973.839 1291.84,973.839C1292.3,973.839 1292.67,972.876 1292.67,971.689L1292.67,963.851Z" style="fill:rgb(51,154,240);"/>
                </g>
                <g transform="matrix(1.5839,-5.55112e-17,4.16334e-17,0.763704,4108.12,1326.35)">
                    <path d="M1292.67,963.851C1292.67,962.664 1292.3,961.701 1291.84,961.701C1291.38,961.701 1291,962.664 1291,963.851L1291,971.689C1291,972.876 1291.38,973.839 1291.84,973.839C1292.3,973.839 1292.67,972.876 1292.67,971.689L1292.67,963.851Z" style="fill:rgb(51,154,240);"/>
                </g>
            </g>
            <g transform="matrix(-0.999009,0.0552311,0.0358576,0.999009,12298.9,-341.091)">
                <g transform="matrix(1.5839,-5.55112e-17,2.08167e-17,0.763704,4108.12,1252.67)">
                    <path d="M1292.67,963.851C1292.67,962.664 1292.3,961.701 1291.84,961.701C1291.38,961.701 1291,962.664 1291,963.851L1291,971.689C1291,972.876 1291.38,973.839 1291.84,973.839C1292.3,973.839 1292.67,972.876 1292.67,971.689L1292.67,963.851Z" style="fill:rgb(34,139,230);"/>
                </g>
                <g transform="matrix(1.5839,-5.55112e-17,2.08167e-17,0.763704,4108.12,1267.4)">
                    <path d="M1292.67,963.851C1292.67,962.664 1292.3,961.701 1291.84,961.701C1291.38,961.701 1291,962.664 1291,963.851L1291,971.689C1291,972.876 1291.38,973.839 1291.84,973.839C1292.3,973.839 1292.67,972.876 1292.67,971.689L1292.67,963.851Z" style="fill:rgb(34,139,230);"/>
                </g>
                <g transform="matrix(1.5839,-5.55112e-17,2.08167e-17,0.763704,4108.12,1282.14)">
                    <path d="M1292.67,963.851C1292.67,962.664 1292.3,961.701 1291.84,961.701C1291.38,961.701 1291,962.664 1291,963.851L1291,971.689C1291,972.876 1291.38,973.839 1291.84,973.839C1292.3,973.839 1292.67,972.876 1292.67,971.689L1292.67,963.851Z" style="fill:rgb(34,139,230);"/>
                </g>
                <g transform="matrix(1.5839,-5.55112e-17,2.08167e-17,0.763704,4108.12,1296.88)">
                    <path d="M1292.67,963.851C1292.67,962.664 1292.3,961.701 1291.84,961.701C1291.38,961.701 1291,962.664 1291,963.851L1291,971.689C1291,972.876 1291.38,973.839 1291.84,973.839C1292.3,973.839 1292.67,972.876 1292.67,971.689L1292.67,963.851Z" style="fill:rgb(34,139,230);"/>
                </g>
                <g transform="matrix(1.5839,-5.55112e-17,3.1225e-17,0.763704,4108.12,1311.61)">
                    <path d="M1292.67,963.851C1292.67,962.664 1292.3,961.701 1291.84,961.701C1291.38,961.701 1291,962.664 1291,963.851L1291,971.689C1291,972.876 1291.38,973.839 1291.84,973.839C1292.3,973.839 1292.67,972.876 1292.67,971.689L1292.67,963.851Z" style="fill:rgb(34,139,230);"/>
                </g>
                <g transform="matrix(1.5839,-5.55112e-17,4.16334e-17,0.763704,4108.12,1326.35)">
                    <path d="M1292.67,963.851C1292.67,962.664 1292.3,961.701 1291.84,961.701C1291.38,961.701 1291,962.664 1291,963.851L1291,971.689C1291,972.876 1291.38,973.839 1291.84,973.839C1292.3,973.839 1292.67,972.876 1292.67,971.689L1292.67,963.851Z" style="fill:rgb(34,139,230);"/>
                </g>
            </g>
        </g>
        <g transform="matrix(2.10064,-0.31952,0.257452,1.69259,-8851.15,-705.392)">
            <g id="Heart-Icon" serif:id="Heart Icon" transform="matrix(0.180826,0,0,0.224421,6064.25,1409.86)">
                <path d="M752,2724.5C752,2732.04 740,2740 740,2740C740,2740 728,2732.04 728,2724.5C728,2720.91 730.91,2718 734.5,2718C736.816,2718 738.849,2719.21 740,2721.03C741.151,2719.21 743.184,2718 745.5,2718C749.09,2718 752,2720.91 752,2724.5Z" style="fill:rgb(255,107,107);fill-rule:nonzero;"/>
            </g>
            <g id="Heart-Icon1" serif:id="Heart Icon" transform="matrix(0.180826,0,0,0.224421,6070.27,1409.86)">
                <path d="M752,2724.5C752,2732.04 740,2740 740,2740C740,2740 728,2732.04 728,2724.5C728,2720.91 730.91,2718 734.5,2718C736.816,2718 738.849,2719.21 740,2721.03C741.151,2719.21 743.184,2718 745.5,2718C749.09,2718 752,2720.91 752,2724.5Z" style="fill:rgb(255,107,107);fill-rule:nonzero;"/>
            </g>
            <g id="Heart-Icon2" serif:id="Heart Icon" transform="matrix(0.180826,0,0,0.224421,6076.18,1409.86)">
                <path d="M752,2724.5C752,2732.04 740,2740 740,2740C740,2740 728,2732.04 728,2724.5C728,2720.91 730.91,2718 734.5,2718C736.816,2718 738.849,2719.21 740,2721.03C741.151,2719.21 743.184,2718 745.5,2718C749.09,2718 752,2720.91 752,2724.5Z" style="fill:rgb(255,107,107);fill-rule:nonzero;"/>
            </g>
            <g id="Heart-Icon3" serif:id="Heart Icon" transform="matrix(0.180826,0,0,0.224421,6082.16,1409.86)">
                <path d="M752,2724.5C752,2732.04 740,2740 740,2740C740,2740 728,2732.04 728,2724.5C728,2720.91 730.91,2718 734.5,2718C736.816,2718 738.849,2719.21 740,2721.03C741.151,2719.21 743.184,2718 745.5,2718C749.09,2718 752,2720.91 752,2724.5Z" style="fill:rgb(24,100,171);fill-rule:nonzero;"/>
            </g>
            <g id="Heart-Icon4" serif:id="Heart Icon" transform="matrix(0.180826,0,0,0.224421,6088.29,1409.86)">
                <path d="M752,2724.5C752,2732.04 740,2740 740,2740C740,2740 728,2732.04 728,2724.5C728,2720.91 730.91,2718 734.5,2718C736.816,2718 738.849,2719.21 740,2721.03C741.151,2719.21 743.184,2718 745.5,2718C749.09,2718 752,2720.91 752,2724.5Z" style="fill:rgb(24,100,171);fill-rule:nonzero;"/>
            </g>
        </g>
    </g>
</svg>
