<?xml version="1.0" encoding="UTF-8" standalone="no"?>
<!DOCTYPE svg PUBLIC "-//W3C//DTD SVG 1.1//EN" "http://www.w3.org/Graphics/SVG/1.1/DTD/svg11.dtd">
<svg width="100%" height="100%" viewBox="0 0 128 128" version="1.1" xmlns="http://www.w3.org/2000/svg" xmlns:xlink="http://www.w3.org/1999/xlink" xml:space="preserve" xmlns:serif="http://www.serif.com/" style="fill-rule:evenodd;clip-rule:evenodd;stroke-linejoin:round;stroke-miterlimit:2;">
    <g transform="matrix(1,0,0,1,-64,-64)">
        <g id="Face-Painting---Star" serif:id="Face Painting - Star" transform="matrix(1.26951,0,0,1.0229,-7730.02,-1707.57)">
            <g transform="matrix(1.13495,0,0,1.40857,4686.06,821.389)">
                <path d="M1323.08,665.276C1323.2,664.333 1324,663.627 1324.95,663.627C1325.9,663.627 1326.7,664.333 1326.82,665.276L1327.65,671.956L1334.27,670.688C1335.2,670.51 1336.12,671.053 1336.41,671.956C1336.71,672.859 1336.28,673.84 1335.42,674.243L1329.33,677.104L1332.58,683.001C1333.04,683.833 1332.8,684.876 1332.03,685.434C1331.27,685.992 1330.2,685.891 1329.55,685.198L1324.95,680.286L1320.34,685.198C1319.69,685.891 1318.63,685.992 1317.86,685.434C1317.1,684.876 1316.86,683.833 1317.32,683.001L1320.57,677.104L1314.48,674.243C1313.62,673.84 1313.19,672.859 1313.48,671.956C1313.78,671.053 1314.7,670.51 1315.63,670.688L1322.24,671.956L1323.08,665.276Z" style="fill:white;"/>
            </g>
            <g transform="matrix(1,0,0,1,-0.00423276,0)">
                <g transform="matrix(0.390447,0.129842,-0.10462,0.484578,5699.43,1319.8)">
                    <path d="M1323.08,665.276C1323.2,664.333 1324,663.627 1324.95,663.627C1325.9,663.627 1326.7,664.333 1326.82,665.276L1327.65,671.956L1334.27,670.688C1335.2,670.51 1336.12,671.053 1336.41,671.956C1336.71,672.859 1336.28,673.84 1335.42,674.243L1329.33,677.104L1332.58,683.001C1333.04,683.833 1332.8,684.876 1332.03,685.434C1331.27,685.992 1330.2,685.891 1329.55,685.198L1324.95,680.286L1320.34,685.198C1319.69,685.891 1318.63,685.992 1317.86,685.434C1317.1,684.876 1316.86,683.833 1317.32,683.001L1320.57,677.104L1314.48,674.243C1313.62,673.84 1313.19,672.859 1313.48,671.956C1313.78,671.053 1314.7,670.51 1315.63,670.688L1322.24,671.956L1323.08,665.276Z" style="fill:white;"/>
                </g>
                <g transform="matrix(-0.390447,0.129842,0.10462,0.484578,6681.76,1319.8)">
                    <path d="M1323.08,665.276C1323.2,664.333 1324,663.627 1324.95,663.627C1325.9,663.627 1326.7,664.333 1326.82,665.276L1327.65,671.956L1334.27,670.688C1335.2,670.51 1336.12,671.053 1336.41,671.956C1336.71,672.859 1336.28,673.84 1335.42,674.243L1329.33,677.104L1332.58,683.001C1333.04,683.833 1332.8,684.876 1332.03,685.434C1331.27,685.992 1330.2,685.891 1329.55,685.198L1324.95,680.286L1320.34,685.198C1319.69,685.891 1318.63,685.992 1317.86,685.434C1317.1,684.876 1316.86,683.833 1317.32,683.001L1320.57,677.104L1314.48,674.243C1313.62,673.84 1313.19,672.859 1313.48,671.956C1313.78,671.053 1314.7,670.51 1315.63,670.688L1322.24,671.956L1323.08,665.276Z" style="fill:white;"/>
                </g>
            </g>
        </g>
    </g>
</svg>
