<?xml version="1.0" encoding="UTF-8" standalone="no"?>
<!DOCTYPE svg PUBLIC "-//W3C//DTD SVG 1.1//EN" "http://www.w3.org/Graphics/SVG/1.1/DTD/svg11.dtd">
<svg width="100%" height="100%" viewBox="0 0 128 128" version="1.1" xmlns="http://www.w3.org/2000/svg" xmlns:xlink="http://www.w3.org/1999/xlink" xml:space="preserve" xmlns:serif="http://www.serif.com/" style="fill-rule:evenodd;clip-rule:evenodd;stroke-linejoin:round;stroke-miterlimit:2;">
    <g transform="matrix(1,0,0,1,-64,-64)">
        <g id="Face-Painting---Stripes" serif:id="Face Painting - Stripes" transform="matrix(1.26951,0,0,1.0229,-7730.16,-1713.21)">
            <g transform="matrix(0.866025,0.620542,-0.402873,0.866025,1563.37,-3556.04)">
                <g transform="matrix(0.787706,0,-1.38778e-16,0.97761,5060.6,1104.07)">
                    <path d="M1391.32,724.474C1391.32,722.333 1389.58,720.595 1387.44,720.595L1366.11,720.595C1363.97,720.595 1362.23,722.333 1362.23,724.474C1362.23,726.616 1363.97,728.354 1366.11,728.354L1387.44,728.354C1389.58,728.354 1391.32,726.616 1391.32,724.474Z" style="fill:rgb(240,62,62);"/>
                </g>
                <g transform="matrix(0.787706,0,-1.38778e-16,0.97761,5060.6,1115.77)">
                    <path d="M1391.32,724.474C1391.32,722.333 1389.58,720.595 1387.44,720.595L1366.11,720.595C1363.97,720.595 1362.23,722.333 1362.23,724.474C1362.23,726.616 1363.97,728.354 1366.11,728.354L1387.44,728.354C1389.58,728.354 1391.32,726.616 1391.32,724.474Z" style="fill:rgb(240,62,62);"/>
                </g>
            </g>
            <g transform="matrix(1.66533e-16,1.24108,-0.805747,1.11022e-16,7653.71,-5858.3)">
                <g transform="matrix(0.787706,0,-1.38778e-16,0.97761,5060.6,1104.07)">
                    <path d="M1391.32,724.474C1391.32,722.333 1389.58,720.595 1387.44,720.595L1366.11,720.595C1363.97,720.595 1362.23,722.333 1362.23,724.474C1362.23,726.616 1363.97,728.354 1366.11,728.354L1387.44,728.354C1389.58,728.354 1391.32,726.616 1391.32,724.474Z" style="fill:rgb(77,171,247);"/>
                </g>
                <g transform="matrix(0.787706,0,-1.38778e-16,0.97761,5060.6,1115.77)">
                    <path d="M1391.32,724.474C1391.32,722.333 1389.58,720.595 1387.44,720.595L1366.11,720.595C1363.97,720.595 1362.23,722.333 1362.23,724.474C1362.23,726.616 1363.97,728.354 1366.11,728.354L1387.44,728.354C1389.58,728.354 1391.32,726.616 1391.32,724.474Z" style="fill:rgb(77,171,247);"/>
                </g>
            </g>
            <g transform="matrix(-0.866025,0.620542,0.402873,0.866025,10816.5,-3556.04)">
                <g transform="matrix(0.787706,0,-1.38778e-16,0.97761,5060.6,1104.07)">
                    <path d="M1391.32,724.474C1391.32,722.333 1389.58,720.595 1387.44,720.595L1366.11,720.595C1363.97,720.595 1362.23,722.333 1362.23,724.474C1362.23,726.616 1363.97,728.354 1366.11,728.354L1387.44,728.354C1389.58,728.354 1391.32,726.616 1391.32,724.474Z" style="fill:rgb(240,62,62);"/>
                </g>
                <g transform="matrix(0.787706,0,-1.38778e-16,0.97761,5060.6,1115.77)">
                    <path d="M1391.32,724.474C1391.32,722.333 1389.58,720.595 1387.44,720.595L1366.11,720.595C1363.97,720.595 1362.23,722.333 1362.23,724.474C1362.23,726.616 1363.97,728.354 1366.11,728.354L1387.44,728.354C1389.58,728.354 1391.32,726.616 1391.32,724.474Z" style="fill:rgb(240,62,62);"/>
                </g>
            </g>
        </g>
    </g>
</svg>
