<?xml version="1.0" encoding="UTF-8" standalone="no"?>
<!DOCTYPE svg PUBLIC "-//W3C//DTD SVG 1.1//EN" "http://www.w3.org/Graphics/SVG/1.1/DTD/svg11.dtd">
<svg width="100%" height="100%" viewBox="0 0 256 256" version="1.1" xmlns="http://www.w3.org/2000/svg" xmlns:xlink="http://www.w3.org/1999/xlink" xml:space="preserve" xmlns:serif="http://www.serif.com/" style="fill-rule:evenodd;clip-rule:evenodd;stroke-linecap:round;stroke-linejoin:round;stroke-miterlimit:1.5;">
    <g id="Glasses---Heart-" serif:id="Glasses - Heart " transform="matrix(1.62726,0,0,1.31116,-9946.37,-2215.57)">
        <g transform="matrix(0.787706,0,0,0.97761,5144.02,1111.76)">
            <path d="M1313.53,691.123L1344.83,691.123" style="fill:none;stroke:white;stroke-width:8.92px;"/>
        </g>
        <g transform="matrix(0.787706,0,0,1.18484,5132.29,978.331)">
            <path d="M1291.55,664.202C1299.8,652.439 1316.31,652.439 1324.57,658.32C1332.82,664.202 1332.82,675.965 1324.57,687.728C1318.79,696.55 1303.93,705.372 1291.55,711.254C1279.17,705.372 1264.31,696.55 1258.53,687.728C1250.28,675.965 1250.28,664.202 1258.53,658.32C1266.78,652.439 1283.29,652.439 1291.55,664.202Z" style="fill:none;stroke:white;stroke-width:8.03px;"/>
        </g>
        <g transform="matrix(0.787706,0,0,1.18484,5215.03,978.331)">
            <path d="M1291.55,664.202C1299.8,652.439 1316.31,652.439 1324.57,658.32C1332.82,664.202 1332.82,675.965 1324.57,687.728C1318.79,696.55 1303.93,705.372 1291.55,711.254C1279.17,705.372 1264.31,696.55 1258.53,687.728C1250.28,675.965 1250.28,664.202 1258.53,658.32C1266.78,652.439 1283.29,652.439 1291.55,664.202Z" style="fill:none;stroke:white;stroke-width:8.03px;"/>
        </g>
    </g>
</svg>
