<?xml version="1.0" encoding="UTF-8" standalone="no"?>
<!DOCTYPE svg PUBLIC "-//W3C//DTD SVG 1.1//EN" "http://www.w3.org/Graphics/SVG/1.1/DTD/svg11.dtd">
<svg width="100%" height="100%" viewBox="0 0 256 256" version="1.1" xmlns="http://www.w3.org/2000/svg" xmlns:xlink="http://www.w3.org/1999/xlink" xml:space="preserve" xmlns:serif="http://www.serif.com/" style="fill-rule:evenodd;clip-rule:evenodd;stroke-linecap:round;stroke-linejoin:round;stroke-miterlimit:1.5;">
    <g id="Hat---Bunny" serif:id="Hat - Bunny" transform="matrix(1.28253,0,3.81897e-14,1.0334,-7810.04,-1609.69)">
        <g transform="matrix(3.21975,-2.89698e-16,4.15064e-16,7.10548,-2893.22,-6180.66)">
            <g>
                <g transform="matrix(0.38393,4.5947e-18,1.42705e-17,0.266432,1031.96,618.905)">
                    <path d="M4644.28,1803.47C4644.28,1797.11 4637.91,1791.95 4630.07,1791.95C4622.22,1791.95 4615.86,1797.11 4615.86,1803.47L4615.86,1828.94C4615.86,1835.29 4622.22,1840.45 4630.07,1840.45C4637.91,1840.45 4644.28,1835.29 4644.28,1828.94L4644.28,1803.47Z" style="fill:white;"/>
                </g>
                <g transform="matrix(0.133246,0,0,0.130886,2192.64,863.911)">
                    <path d="M4644.28,1800.09C4644.28,1795.6 4637.91,1791.95 4630.07,1791.95C4622.22,1791.95 4615.86,1795.6 4615.86,1800.09L4615.86,1832.32C4615.86,1836.81 4622.22,1840.45 4630.07,1840.45C4637.91,1840.45 4644.28,1836.81 4644.28,1832.32L4644.28,1800.09Z" style="fill:rgb(177,151,252);"/>
                </g>
            </g>
            <g transform="matrix(1,0,0,1,22.6284,4.54747e-13)">
                <g transform="matrix(0.38393,4.5947e-18,1.42705e-17,0.266432,1031.96,618.905)">
                    <path d="M4644.28,1803.47C4644.28,1797.11 4637.91,1791.95 4630.07,1791.95C4622.22,1791.95 4615.86,1797.11 4615.86,1803.47L4615.86,1828.94C4615.86,1835.29 4622.22,1840.45 4630.07,1840.45C4637.91,1840.45 4644.28,1835.29 4644.28,1828.94L4644.28,1803.47Z" style="fill:rgb(243,249,255);"/>
                </g>
                <g transform="matrix(0.133246,0,0,0.130886,2192.64,863.911)">
                    <path d="M4644.28,1800.09C4644.28,1795.6 4637.91,1791.95 4630.07,1791.95C4622.22,1791.95 4615.86,1795.6 4615.86,1800.09L4615.86,1832.32C4615.86,1836.81 4622.22,1840.45 4630.07,1840.45C4637.91,1840.45 4644.28,1836.81 4644.28,1832.32L4644.28,1800.09Z" style="fill:rgb(247,131,172);"/>
                </g>
            </g>
        </g>
        <g transform="matrix(0.779706,0,-2.88144e-14,0.967682,6089.54,1557.67)">
            <path d="M21.168,203.061C21.168,136.935 72.546,90.202 128,90.202C183.454,90.202 234.832,136.935 234.832,203.061C209.155,185.557 170.81,174.437 128,174.437C85.19,174.437 46.845,185.557 21.168,203.061Z" style="fill:white;"/>
            <clipPath id="_clip1">
                <path d="M21.168,203.061C21.168,136.935 72.546,90.202 128,90.202C183.454,90.202 234.832,136.935 234.832,203.061C209.155,185.557 170.81,174.437 128,174.437C85.19,174.437 46.845,185.557 21.168,203.061Z"/>
            </clipPath>
            <g clip-path="url(#_clip1)">
                <path d="M111.427,91.595C116.874,90.676 122.416,90.202 128,90.202C183.454,90.202 234.832,136.935 234.832,203.061C225.077,196.411 213.493,190.682 200.533,186.136C193.513,135.389 155.379,99.003 111.427,91.595Z" style="fill:rgb(243,249,255);"/>
            </g>
        </g>
        <g transform="matrix(1.01971,-9.1749e-17,7.4275e-17,1.27151,-4660.21,-1.86534)">
            <g transform="matrix(0.982525,-0.262031,0.184513,0.685379,-11.0497,3230.77)">
                <path d="M10687.3,1324.82C10687.3,1322.85 10686.1,1321.26 10684.8,1321.26L10660.6,1321.26C10659.2,1321.26 10658.1,1322.85 10658.1,1324.82C10658.1,1326.79 10659.2,1328.39 10660.6,1328.39L10684.8,1328.39C10686.1,1328.39 10687.3,1326.79 10687.3,1324.82Z" style="fill:rgb(52,58,64);"/>
            </g>
            <g transform="matrix(0.982525,0.262031,0.184513,-0.685379,-7.53786,-526.516)">
                <path d="M10687.3,1324.82C10687.3,1322.85 10686.1,1321.26 10684.8,1321.26L10660.6,1321.26C10659.2,1321.26 10658.1,1322.85 10658.1,1324.82C10658.1,1326.79 10659.2,1328.39 10660.6,1328.39L10684.8,1328.39C10686.1,1328.39 10687.3,1326.79 10687.3,1324.82Z" style="fill:rgb(52,58,64);"/>
            </g>
            <g transform="matrix(-0.982525,-0.262031,-0.184513,0.685379,21289.1,3230.77)">
                <path d="M10687.3,1324.82C10687.3,1322.85 10686.1,1321.26 10684.8,1321.26L10660.6,1321.26C10659.2,1321.26 10658.1,1322.85 10658.1,1324.82C10658.1,1326.79 10659.2,1328.39 10660.6,1328.39L10684.8,1328.39C10686.1,1328.39 10687.3,1326.79 10687.3,1324.82Z" style="fill:rgb(52,58,64);"/>
            </g>
            <g transform="matrix(-0.982525,0.262031,-0.184513,-0.685379,21287.2,-526.516)">
                <path d="M10687.3,1324.82C10687.3,1322.85 10686.1,1321.26 10684.8,1321.26L10660.6,1321.26C10659.2,1321.26 10658.1,1322.85 10658.1,1324.82C10658.1,1326.79 10659.2,1328.39 10660.6,1328.39L10684.8,1328.39C10686.1,1328.39 10687.3,1326.79 10687.3,1324.82Z" style="fill:rgb(52,58,64);"/>
            </g>
        </g>
        <g transform="matrix(1.07256,-9.65038e-17,7.77576e-17,1.33113,6029,1548.13)">
            <g>
                <g transform="matrix(1.33943,-0.358898,0.358898,1.33943,-1917.72,-1213.89)">
                    <ellipse cx="1170.52" cy="1294.25" rx="7.05" ry="4.893" style="fill:rgb(52,58,64);"/>
                </g>
                <g transform="matrix(-1.33943,-0.358898,-0.358898,1.33943,2216.7,-1213.89)">
                    <ellipse cx="1170.52" cy="1294.25" rx="7.05" ry="4.893" style="fill:none;stroke:rgb(52,58,64);stroke-width:1.77px;"/>
                </g>
            </g>
            <g transform="matrix(1.75208,0,6.47883e-32,1.75208,-982.894,-2032.47)">
                <g transform="matrix(0.202336,0.350456,-0.866025,0.5,1531.83,151.308)">
                    <path d="M1194.32,1296.31C1194.32,1295.91 1193.52,1295.59 1192.54,1295.59C1191.55,1295.59 1190.76,1295.91 1190.76,1296.31L1190.76,1305.97C1190.76,1306.37 1191.55,1306.69 1192.54,1306.69C1193.52,1306.69 1194.32,1306.37 1194.32,1305.97L1194.32,1296.31Z" style="fill:rgb(132,142,151);"/>
                </g>
                <g transform="matrix(-0.202336,0.350456,0.866025,0.5,-239.218,151.308)">
                    <path d="M1194.32,1296.31C1194.32,1295.91 1193.52,1295.59 1192.54,1295.59C1191.55,1295.59 1190.76,1295.91 1190.76,1296.31L1190.76,1305.97C1190.76,1306.37 1191.55,1306.69 1192.54,1306.69C1193.52,1306.69 1194.32,1306.37 1194.32,1305.97L1194.32,1296.31Z" style="fill:rgb(132,142,151);"/>
                </g>
            </g>
        </g>
        <g>
            <g transform="matrix(0.760865,-0.253024,0.203873,0.944298,5053.75,1453.96)">
                <ellipse cx="1272.11" cy="610.242" rx="14.276" ry="9.21" style="fill:rgb(250,162,193);"/>
            </g>
            <g transform="matrix(-0.760865,-0.253024,-0.203873,0.944298,7328.16,1453.96)">
                <ellipse cx="1272.11" cy="610.242" rx="14.276" ry="9.21" style="fill:rgb(208,191,255);"/>
            </g>
        </g>
    </g>
</svg>
