<?xml version="1.0" encoding="UTF-8" standalone="no"?>
<!DOCTYPE svg PUBLIC "-//W3C//DTD SVG 1.1//EN" "http://www.w3.org/Graphics/SVG/1.1/DTD/svg11.dtd">
<svg width="100%" height="100%" viewBox="0 0 256 256" version="1.1" xmlns="http://www.w3.org/2000/svg" xmlns:xlink="http://www.w3.org/1999/xlink" xml:space="preserve" xmlns:serif="http://www.serif.com/" style="fill-rule:evenodd;clip-rule:evenodd;stroke-linejoin:round;stroke-miterlimit:2;">
    <g id="Hat---Monster" serif:id="Hat - Monster" transform="matrix(1.01026,0,3.73346e-14,1.01026,-3331.77,-1248.49)">
        <g transform="matrix(4.0875,-2.96333e-16,5.26927e-16,7.26822,-8100.48,-6679.75)">
            <g transform="matrix(0.866025,-0.28119,0.889079,0.866025,-609.874,942.328)">
                <g transform="matrix(0.38393,4.5947e-18,1.42705e-17,0.266432,1031.96,618.905)">
                    <path d="M4644.28,1803.47C4644.28,1797.11 4637.91,1791.95 4630.07,1791.95C4622.22,1791.95 4615.86,1797.11 4615.86,1803.47L4615.86,1828.94C4615.86,1835.29 4622.22,1840.45 4630.07,1840.45C4637.91,1840.45 4644.28,1835.29 4644.28,1828.94L4644.28,1803.47Z" style="fill:rgb(252,196,25);"/>
                </g>
                <g transform="matrix(0.133246,0,0,0.130886,2192.64,863.911)">
                    <path d="M4644.28,1800.09C4644.28,1795.6 4637.91,1791.95 4630.07,1791.95C4622.22,1791.95 4615.86,1795.6 4615.86,1800.09L4615.86,1832.32C4615.86,1836.81 4622.22,1840.45 4630.07,1840.45C4637.91,1840.45 4644.28,1836.81 4644.28,1832.32L4644.28,1800.09Z" style="fill:rgb(118,63,51);"/>
                </g>
            </g>
            <g transform="matrix(0.866025,0.28119,-0.889079,0.866025,1382.88,-637.722)">
                <g transform="matrix(0.38393,4.5947e-18,1.42705e-17,0.266432,1031.96,618.905)">
                    <path d="M4644.28,1803.47C4644.28,1797.11 4637.91,1791.95 4630.07,1791.95C4622.22,1791.95 4615.86,1797.11 4615.86,1803.47L4615.86,1828.94C4615.86,1835.29 4622.22,1840.45 4630.07,1840.45C4637.91,1840.45 4644.28,1835.29 4644.28,1828.94L4644.28,1803.47Z" style="fill:rgb(245,159,0);"/>
                </g>
                <g transform="matrix(0.133246,0,0,0.130886,2192.64,863.911)">
                    <path d="M4644.28,1800.09C4644.28,1795.6 4637.91,1791.95 4630.07,1791.95C4622.22,1791.95 4615.86,1795.6 4615.86,1800.09L4615.86,1832.32C4615.86,1836.81 4622.22,1840.45 4630.07,1840.45C4637.91,1840.45 4644.28,1836.81 4644.28,1832.32L4644.28,1800.09Z" style="fill:rgb(118,63,51);"/>
                </g>
            </g>
        </g>
        <g transform="matrix(1,0,0,1,13.976,-402.439)">
            <g transform="matrix(1,0,0,1,-246.504,39.6928)">
                <path d="M3599.89,1645.74C3600.76,1643.93 3602.66,1642.85 3604.65,1643.03C3606.65,1643.22 3608.32,1644.62 3608.84,1646.56C3614.53,1667.67 3622.98,1684.7 3633.97,1697.95L3597.58,1712.36C3590.53,1688.33 3590.24,1665.88 3599.89,1645.74Z" style="fill:rgb(255,147,21);"/>
            </g>
            <g transform="matrix(-1,0,0,1,7068.39,39.6928)">
                <path d="M3599.89,1645.74C3600.76,1643.93 3602.66,1642.85 3604.65,1643.03C3606.65,1643.22 3608.32,1644.62 3608.84,1646.56C3614.53,1667.67 3622.98,1684.7 3633.97,1697.95L3597.58,1712.36C3590.53,1688.33 3590.24,1665.88 3599.89,1645.74Z" style="fill:rgb(239,103,3);"/>
            </g>
        </g>
        <g transform="matrix(0.989845,0,-3.65802e-14,0.989845,3297.94,1235.81)">
            <path d="M21.168,203.061C21.168,136.935 72.546,90.202 128,90.202C183.454,90.202 234.832,136.935 234.832,203.061C209.155,185.557 170.81,174.437 128,174.437C85.19,174.437 46.845,185.557 21.168,203.061Z" style="fill:rgb(253,191,54);"/>
            <clipPath id="_clip1">
                <path d="M21.168,203.061C21.168,136.935 72.546,90.202 128,90.202C183.454,90.202 234.832,136.935 234.832,203.061C209.155,185.557 170.81,174.437 128,174.437C85.19,174.437 46.845,185.557 21.168,203.061Z"/>
            </clipPath>
            <g clip-path="url(#_clip1)">
                <path d="M111.427,91.595C116.874,90.676 122.416,90.202 128,90.202C183.454,90.202 234.832,136.935 234.832,203.061C225.077,196.411 213.493,190.682 200.533,186.136C193.513,135.389 155.379,99.003 111.427,91.595Z" style="fill:rgb(250,176,5);"/>
            </g>
        </g>
        <g transform="matrix(1,0,0,1,-11.3135,16.105)">
            <path d="M3360.28,1359.61C3360.44,1358.87 3361.1,1358.35 3361.85,1358.35C3362.6,1358.35 3363.25,1358.87 3363.42,1359.61L3364.67,1365.19L3370.37,1364.65C3371.12,1364.58 3371.81,1365.04 3372.05,1365.76C3372.28,1366.48 3371.99,1367.26 3371.34,1367.64L3366.41,1370.56L3368.68,1375.81C3368.98,1376.5 3368.76,1377.31 3368.15,1377.75C3367.54,1378.19 3366.71,1378.15 3366.14,1377.65L3361.85,1373.87L3357.55,1377.65C3356.99,1378.15 3356.15,1378.19 3355.55,1377.75C3354.93,1377.31 3354.72,1376.5 3355.01,1375.81L3357.28,1370.56L3352.36,1367.64C3351.71,1367.26 3351.42,1366.48 3351.65,1365.76C3351.88,1365.04 3352.58,1364.58 3353.33,1364.65L3359.03,1365.19L3360.28,1359.61Z" style="fill:rgb(255,236,153);"/>
        </g>
        <g transform="matrix(1,0,0,1,137.593,12.2685)">
            <path d="M3360.28,1359.61C3360.44,1358.87 3361.1,1358.35 3361.85,1358.35C3362.6,1358.35 3363.25,1358.87 3363.42,1359.61L3364.67,1365.19L3370.37,1364.65C3371.12,1364.58 3371.81,1365.04 3372.05,1365.76C3372.28,1366.48 3371.99,1367.26 3371.34,1367.64L3366.41,1370.56L3368.68,1375.81C3368.98,1376.5 3368.76,1377.31 3368.15,1377.75C3367.54,1378.19 3366.71,1378.15 3366.14,1377.65L3361.85,1373.87L3357.55,1377.65C3356.99,1378.15 3356.15,1378.19 3355.55,1377.75C3354.93,1377.31 3354.72,1376.5 3355.01,1375.81L3357.28,1370.56L3352.36,1367.64C3351.71,1367.26 3351.42,1366.48 3351.65,1365.76C3351.88,1365.04 3352.58,1364.58 3353.33,1364.65L3359.03,1365.19L3360.28,1359.61Z" style="fill:rgb(240,140,0);"/>
        </g>
        <g transform="matrix(1,0,0,1,13.6954,-390.473)">
            <g transform="matrix(1.46072,0.276988,-0.276988,1.46072,-1077.79,-1757.06)">
                <path d="M3384.23,1756.2C3384.54,1755.48 3385.26,1755.02 3386.04,1755.02C3386.83,1755.02 3387.54,1755.48 3387.86,1756.2C3390.31,1761.83 3394.4,1771.19 3394.4,1771.19L3377.68,1771.19C3377.68,1771.19 3381.77,1761.83 3384.23,1756.2Z" style="fill:white;"/>
            </g>
            <g transform="matrix(-1.46072,0.276988,0.276988,1.46072,7901.35,-1758.52)">
                <path d="M3384.23,1756.2C3384.54,1755.48 3385.26,1755.02 3386.04,1755.02C3386.83,1755.02 3387.54,1755.48 3387.86,1756.2C3390.31,1761.83 3394.4,1771.19 3394.4,1771.19L3377.68,1771.19C3377.68,1771.19 3381.77,1761.83 3384.23,1756.2Z" style="fill:white;"/>
            </g>
            <g transform="matrix(4.26681,-1.21309e-16,2.19693e-16,1.1884,985.082,1332.09)">
                <path d="M557.04,365.843C558.777,368.438 561.228,370.067 563.933,370.894C565.418,371.349 566.98,371.561 568.542,371.568C569.706,371.574 570.869,371.488 572.001,371.252C575.158,370.595 578.067,368.826 580.045,365.843C580.439,365.214 580.616,363.555 580.441,362.14C580.266,360.726 579.804,360.088 579.41,360.717C577.585,363.796 574.87,365.891 571.91,366.846C570.81,367.201 569.676,367.413 568.542,367.418C567.021,367.425 565.499,367.102 564.057,366.491C561.535,365.421 559.266,363.424 557.675,360.717C557.281,360.088 556.819,360.726 556.644,362.14C556.469,363.555 556.646,365.214 557.04,365.843Z" style="fill:rgb(134,46,156);"/>
            </g>
        </g>
        <g transform="matrix(1,0,0,1.01757,13.4206,-429.925)">
            <path d="M3411.22,1743.4C3414.34,1738.95 3420.59,1738.95 3423.71,1741.17C3426.84,1743.4 3426.84,1747.85 3423.71,1752.3C3422.68,1753.88 3420.88,1755.46 3418.77,1756.92C3414.24,1760.1 3408.2,1760.1 3403.67,1756.92C3401.56,1755.46 3399.76,1753.88 3398.73,1752.3C3395.6,1747.85 3395.6,1743.4 3398.73,1741.17C3401.85,1738.95 3408.1,1738.95 3411.22,1743.4Z" style="fill:rgb(240,62,62);"/>
        </g>
        <g transform="matrix(1,0,0,1,-0.280608,0)">
            <g transform="matrix(1.12392,-0.301154,0.301154,1.12392,1674.08,244.784)">
                <ellipse cx="1170.52" cy="1294.25" rx="7.05" ry="4.893" style="fill:rgb(52,58,64);"/>
            </g>
            <g transform="matrix(-1.12392,-0.301154,-0.301154,1.12392,5175.76,244.784)">
                <ellipse cx="1170.52" cy="1294.25" rx="7.05" ry="4.893" style="fill:rgb(52,58,64);"/>
            </g>
        </g>
    </g>
</svg>
