<?xml version="1.0" encoding="UTF-8" standalone="no"?>
<!DOCTYPE svg PUBLIC "-//W3C//DTD SVG 1.1//EN" "http://www.w3.org/Graphics/SVG/1.1/DTD/svg11.dtd">
<svg width="100%" height="100%" viewBox="0 0 128 128" version="1.1" xmlns="http://www.w3.org/2000/svg" xmlns:xlink="http://www.w3.org/1999/xlink" xml:space="preserve" xmlns:serif="http://www.serif.com/" style="fill-rule:evenodd;clip-rule:evenodd;stroke-linejoin:round;stroke-miterlimit:2;">
    <g transform="matrix(1,0,0,1,-64,-64)">
        <g id="Shoes----Magic-Boots" serif:id="Shoes -  Magic Boots" transform="matrix(0.890333,0,0,0.890333,-4070.09,-688.624)">
            <g transform="matrix(1.02388,0,0,1,-185.823,0)">
                <g transform="matrix(1,0,0,1,73.301,-2.27374e-13)">
                    <path d="M4648.89,939.104C4649.58,931.915 4652.95,920.021 4652.95,909.685C4652.95,901.556 4651.19,885.788 4650.83,880.849C4650.8,880.459 4650.93,880.073 4651.2,879.786C4651.47,879.499 4651.84,879.336 4652.23,879.336C4659.86,879.336 4693.98,879.336 4701.81,879.336C4702.22,879.336 4702.6,879.511 4702.87,879.816C4703.14,880.121 4703.26,880.526 4703.21,880.928C4702.52,886.237 4699.31,903.351 4699.29,910.97C4699.28,917.213 4702.87,935.194 4703.21,941.835C4704.02,957.718 4674.4,958.093 4672.14,957.873C4668.6,957.53 4647.21,956.365 4648.89,939.104Z" style="fill:rgb(132,94,247);"/>
                    <clipPath id="_clip1">
                        <path d="M4648.89,939.104C4649.58,931.915 4652.95,920.021 4652.95,909.685C4652.95,901.556 4651.19,885.788 4650.83,880.849C4650.8,880.459 4650.93,880.073 4651.2,879.786C4651.47,879.499 4651.84,879.336 4652.23,879.336C4659.86,879.336 4693.98,879.336 4701.81,879.336C4702.22,879.336 4702.6,879.511 4702.87,879.816C4703.14,880.121 4703.26,880.526 4703.21,880.928C4702.52,886.237 4699.31,903.351 4699.29,910.97C4699.28,917.213 4702.87,935.194 4703.21,941.835C4704.02,957.718 4674.4,958.093 4672.14,957.873C4668.6,957.53 4647.21,956.365 4648.89,939.104Z"/>
                    </clipPath>
                    <g clip-path="url(#_clip1)">
                        <g transform="matrix(1.12318,0,0,1.12318,3224.74,-278.109)">
                            <path d="M1293.06,1026.48L1293.06,1067.09C1293.06,1078.34 1289.24,1100.63 1289.24,1100.63L1323.63,1098.02L1316.52,1061.61L1322.18,1026.48L1293.06,1026.48Z" style="fill:rgb(95,61,196);"/>
                        </g>
                    </g>
                </g>
                <g transform="matrix(1.32645,1.32645,-0.794205,0.794205,3883.19,-1627.07)">
                    <ellipse cx="1289.61" cy="1085.16" rx="3.794" ry="2.961" style="fill:rgb(151,117,250);"/>
                </g>
                <g transform="matrix(1.17878,0,0,1.12318,3226.15,-278.109)">
                    <path d="M1315.78,1036.82C1315.81,1036.6 1315.75,1036.38 1315.61,1036.22C1315.48,1036.05 1315.28,1035.96 1315.07,1035.96C1309.39,1035.96 1276.38,1035.96 1270.81,1035.96C1270.6,1035.96 1270.41,1036.05 1270.27,1036.21C1270.13,1036.37 1270.07,1036.58 1270.09,1036.79C1270.23,1038.2 1270.51,1041.04 1270.63,1042.34C1270.67,1042.73 1270.98,1043.02 1271.35,1043.02C1276.41,1043.02 1309.35,1043.02 1314.32,1043.02C1314.68,1043.02 1314.99,1042.74 1315.04,1042.37C1315.21,1041.09 1315.59,1038.25 1315.78,1036.82Z" style="fill:rgb(52,58,64);"/>
                </g>
                <g transform="matrix(-0.432174,0.249516,0.561588,0.972699,4721.79,-441.768)">
                    <path d="M1288.17,1040.97C1288.17,1040.15 1286.7,1039.49 1284.88,1039.49C1283.07,1039.49 1281.6,1040.15 1281.6,1040.97L1281.6,1057.52C1281.6,1058.34 1283.07,1059 1284.88,1059C1286.7,1059 1288.17,1058.34 1288.17,1057.52L1288.17,1040.97Z" style="fill:rgb(52,58,64);"/>
                </g>
                <g transform="matrix(0.432174,0.249516,-0.561588,0.972699,4778.89,-441.768)">
                    <path d="M1288.17,1040.97C1288.17,1040.15 1286.7,1039.49 1284.88,1039.49C1283.07,1039.49 1281.6,1040.15 1281.6,1040.97L1281.6,1057.52C1281.6,1058.34 1283.07,1059 1284.88,1059C1286.7,1059 1288.17,1058.34 1288.17,1057.52L1288.17,1040.97Z" style="fill:rgb(62,70,77);"/>
                </g>
                <g transform="matrix(1.12318,0,0,1.12318,3298.04,-278.109)">
                    <path d="M1293.02,1035.96L1316.16,1035.96C1316.38,1035.96 1316.59,1036.05 1316.73,1036.22C1316.87,1036.38 1316.94,1036.6 1316.91,1036.82C1316.7,1038.25 1316.31,1041.09 1316.12,1042.37C1316.07,1042.74 1315.75,1043.02 1315.37,1043.02L1293.02,1043.02L1293.02,1035.96Z" style="fill:rgb(52,58,64);"/>
                </g>
                <g transform="matrix(1.12318,0,0,1.12318,3298.04,-278.109)">
                    <path d="M1293.02,1035.96L1293.02,1043.02L1270.28,1043.02C1269.89,1043.02 1269.56,1042.73 1269.52,1042.34C1269.39,1041.04 1269.1,1038.2 1268.95,1036.79C1268.93,1036.58 1269,1036.37 1269.14,1036.21C1269.29,1036.05 1269.49,1035.96 1269.7,1035.96L1293.02,1035.96Z" style="fill:rgb(62,70,77);"/>
                </g>
            </g>
            <g transform="matrix(-1.02388,0,0,1,9616.21,0)">
                <g transform="matrix(1,0,0,1,73.301,-2.27374e-13)">
                    <path d="M4648.89,939.104C4649.58,931.915 4652.95,923.478 4652.95,909.685C4652.95,901.556 4651.19,885.788 4650.83,880.849C4650.8,880.459 4650.93,880.073 4651.2,879.786C4651.47,879.499 4651.84,879.336 4652.23,879.336C4659.86,879.336 4693.98,879.336 4701.81,879.336C4702.22,879.336 4702.6,879.511 4702.87,879.816C4703.14,880.121 4703.26,880.526 4703.21,880.928C4702.52,886.237 4699.29,903.351 4699.29,910.97C4699.29,922.143 4702.68,933.942 4703.21,941.835C4704.27,957.703 4674.4,958.093 4672.14,957.873C4668.6,957.53 4647.21,956.365 4648.89,939.104Z" style="fill:rgb(95,61,196);"/>
                    <clipPath id="_clip2">
                        <path d="M4648.89,939.104C4649.58,931.915 4652.95,923.478 4652.95,909.685C4652.95,901.556 4651.19,885.788 4650.83,880.849C4650.8,880.459 4650.93,880.073 4651.2,879.786C4651.47,879.499 4651.84,879.336 4652.23,879.336C4659.86,879.336 4693.98,879.336 4701.81,879.336C4702.22,879.336 4702.6,879.511 4702.87,879.816C4703.14,880.121 4703.26,880.526 4703.21,880.928C4702.52,886.237 4699.29,903.351 4699.29,910.97C4699.29,922.143 4702.68,933.942 4703.21,941.835C4704.27,957.703 4674.4,958.093 4672.14,957.873C4668.6,957.53 4647.21,956.365 4648.89,939.104Z"/>
                    </clipPath>
                    <g clip-path="url(#_clip2)">
                        <g transform="matrix(1.12318,0,0,1.12318,3224.74,-278.109)">
                            <path d="M1293.06,1026.48L1293.06,1067.09C1293.06,1078.34 1289.24,1100.63 1289.24,1100.63L1323.63,1098.02L1316.52,1061.61L1322.18,1026.48L1293.06,1026.48Z" style="fill:rgb(132,94,247);"/>
                        </g>
                    </g>
                </g>
                <g transform="matrix(-1.32645,1.32645,0.794205,0.794205,5615.33,-1627.07)">
                    <ellipse cx="1289.61" cy="1085.16" rx="3.794" ry="2.961" style="fill:rgb(151,117,250);"/>
                </g>
                <g transform="matrix(1.17878,0,0,1.12318,3226.15,-278.109)">
                    <path d="M1315.78,1036.82C1315.81,1036.6 1315.75,1036.38 1315.61,1036.22C1315.48,1036.05 1315.28,1035.96 1315.07,1035.96C1309.39,1035.96 1276.38,1035.96 1270.81,1035.96C1270.6,1035.96 1270.41,1036.05 1270.27,1036.21C1270.13,1036.37 1270.07,1036.58 1270.09,1036.79C1270.23,1038.2 1270.51,1041.04 1270.63,1042.34C1270.67,1042.73 1270.98,1043.02 1271.35,1043.02C1276.41,1043.02 1309.35,1043.02 1314.32,1043.02C1314.68,1043.02 1314.99,1042.74 1315.04,1042.37C1315.21,1041.09 1315.59,1038.25 1315.78,1036.82Z" style="fill:rgb(52,58,64);"/>
                </g>
                <g transform="matrix(-0.432174,0.249516,0.561588,0.972699,4721.79,-441.768)">
                    <path d="M1288.17,1040.97C1288.17,1040.15 1286.7,1039.49 1284.88,1039.49C1283.07,1039.49 1281.6,1040.15 1281.6,1040.97L1281.6,1057.52C1281.6,1058.34 1283.07,1059 1284.88,1059C1286.7,1059 1288.17,1058.34 1288.17,1057.52L1288.17,1040.97Z" style="fill:rgb(62,70,77);"/>
                </g>
                <g transform="matrix(0.432174,0.249516,-0.561588,0.972699,4778.89,-441.768)">
                    <path d="M1288.17,1040.97C1288.17,1040.15 1286.7,1039.49 1284.88,1039.49C1283.07,1039.49 1281.6,1040.15 1281.6,1040.97L1281.6,1057.52C1281.6,1058.34 1283.07,1059 1284.88,1059C1286.7,1059 1288.17,1058.34 1288.17,1057.52L1288.17,1040.97Z" style="fill:rgb(52,58,64);"/>
                </g>
                <g transform="matrix(1.12318,0,0,1.12318,3298.04,-278.109)">
                    <path d="M1293.02,1035.96L1316.16,1035.96C1316.38,1035.96 1316.59,1036.05 1316.73,1036.22C1316.87,1036.38 1316.94,1036.6 1316.91,1036.82C1316.7,1038.25 1316.31,1041.09 1316.12,1042.37C1316.07,1042.74 1315.75,1043.02 1315.37,1043.02L1293.02,1043.02L1293.02,1035.96Z" style="fill:rgb(62,70,77);"/>
                </g>
                <g transform="matrix(1.12318,0,0,1.12318,3298.04,-278.109)">
                    <path d="M1293.02,1035.96L1293.02,1043.02L1270.28,1043.02C1269.89,1043.02 1269.56,1042.73 1269.52,1042.34C1269.39,1041.04 1269.1,1038.2 1268.95,1036.79C1268.93,1036.58 1269,1036.37 1269.14,1036.21C1269.29,1036.05 1269.49,1035.96 1269.7,1035.96L1293.02,1035.96Z" style="fill:rgb(52,58,64);"/>
                </g>
            </g>
        </g>
    </g>
</svg>
