<?xml version="1.0" encoding="UTF-8" standalone="no"?>
<!DOCTYPE svg PUBLIC "-//W3C//DTD SVG 1.1//EN" "http://www.w3.org/Graphics/SVG/1.1/DTD/svg11.dtd">
<svg width="100%" height="100%" viewBox="0 0 128 128" version="1.1" xmlns="http://www.w3.org/2000/svg" xmlns:xlink="http://www.w3.org/1999/xlink" xml:space="preserve" xmlns:serif="http://www.serif.com/" style="fill-rule:evenodd;clip-rule:evenodd;stroke-linejoin:round;stroke-miterlimit:2;">
    <g transform="matrix(1,0,0,1,-64,-64)">
        <g id="Shoes---Red-Sneakers" serif:id="Shoes - Red Sneakers" transform="matrix(0.890333,0,0,0.890333,-4070.14,-687.337)">
            <g transform="matrix(1.04285,0,0,1,-275.692,0)">
                <g transform="matrix(1,0,0,1,73.301,-2.27374e-13)">
                    <path d="M4653.32,914.635L4653.32,914.651C4653.32,917.803 4663.52,920.361 4676.08,920.361C4688.64,920.361 4698.84,917.803 4698.84,914.651L4701.74,938.516C4702.06,939.949 4702.25,941.429 4702.28,942.943L4702.29,942.994L4702.28,942.994C4702.28,943.153 4702.29,943.312 4702.29,943.472C4702.29,960.418 4649.87,961.349 4649.87,943.472C4649.87,943.312 4649.87,943.153 4649.88,942.994L4649.87,942.994C4649.87,931.245 4652.24,926.621 4653.32,914.635L4653.32,914.635Z" style="fill:rgb(250,82,82);"/>
                </g>
                <g transform="matrix(1.33663,0,0,1.83743,-1501.76,-764.29)">
                    <path d="M4687.24,917.967C4687.24,915.039 4684.11,912.662 4680.25,912.662L4673.3,912.662C4669.44,912.662 4666.31,915.039 4666.31,917.967C4666.31,920.896 4669.44,923.273 4673.3,923.273L4680.25,923.273C4684.11,923.273 4687.24,920.896 4687.24,917.967Z" style="fill:rgb(250,82,82);"/>
                </g>
                <g transform="matrix(1,0,0,0.477459,71.849,498.108)">
                    <ellipse cx="4677.53" cy="940.345" rx="18.559" ry="14.014" style="fill:white;"/>
                </g>
                <g transform="matrix(1,-1.11022e-16,-2.77556e-16,0.531051,72.9132,441.212)">
                    <path d="M4685.45,928.106C4685.45,926.547 4684.81,925.282 4684.01,925.282L4668.92,925.282C4668.13,925.282 4667.48,926.547 4667.48,928.106C4667.48,929.665 4668.13,930.931 4668.92,930.931L4684.01,930.931C4684.81,930.931 4685.45,929.665 4685.45,928.106Z" style="fill:rgb(248,249,250);"/>
                </g>
                <g transform="matrix(1,1.11022e-16,2.22045e-16,0.531051,72.9132,435.161)">
                    <path d="M4685.45,928.106C4685.45,926.547 4684.81,925.282 4684.01,925.282L4668.92,925.282C4668.13,925.282 4667.48,926.547 4667.48,928.106C4667.48,929.665 4668.13,930.931 4668.92,930.931L4684.01,930.931C4684.81,930.931 4685.45,929.665 4685.45,928.106Z" style="fill:rgb(248,249,250);"/>
                </g>
            </g>
            <g transform="matrix(-1.04885,0,0,1,9734.91,0)">
                <g transform="matrix(1,0,0,1,73.301,-2.27374e-13)">
                    <path d="M4653.32,914.635L4653.32,914.651C4653.32,917.803 4663.52,920.361 4676.08,920.361C4688.64,920.361 4698.84,917.803 4698.84,914.651L4701.74,938.516C4702.06,939.949 4702.25,941.429 4702.28,942.943L4702.29,942.994L4702.28,942.994C4702.28,943.153 4702.29,943.312 4702.29,943.472C4702.29,960.418 4649.87,961.349 4649.87,943.472C4649.87,943.312 4649.87,943.153 4649.88,942.994L4649.87,942.994C4649.87,931.245 4652.24,926.621 4653.32,914.635L4653.32,914.635Z" style="fill:rgb(250,82,82);"/>
                </g>
                <g transform="matrix(1.33663,0,0,1.83743,-1501.76,-764.29)">
                    <path d="M4687.24,917.967C4687.24,915.039 4684.12,912.662 4680.29,912.662L4673.26,912.662C4669.42,912.662 4666.31,915.039 4666.31,917.967C4666.31,920.896 4669.42,923.273 4673.26,923.273L4680.29,923.273C4684.12,923.273 4687.24,920.896 4687.24,917.967Z" style="fill:rgb(250,82,82);"/>
                </g>
                <g transform="matrix(1,0,0,0.477459,71.849,498.108)">
                    <ellipse cx="4677.53" cy="940.345" rx="18.559" ry="14.014" style="fill:white;"/>
                </g>
                <g transform="matrix(1,2.22045e-16,-3.88578e-16,0.531051,72.9132,433.661)">
                    <path d="M4685.45,928.106C4685.45,926.547 4684.81,925.282 4684.02,925.282L4668.91,925.282C4668.12,925.282 4667.48,926.547 4667.48,928.106C4667.48,929.665 4668.12,930.931 4668.91,930.931L4684.02,930.931C4684.81,930.931 4685.45,929.665 4685.45,928.106Z" style="fill:rgb(248,249,250);"/>
                </g>
                <g transform="matrix(1,-5.55112e-16,4.996e-16,0.531051,72.9132,440.787)">
                    <path d="M4685.45,928.106C4685.45,926.547 4684.81,925.282 4684.02,925.282L4668.91,925.282C4668.12,925.282 4667.48,926.547 4667.48,928.106C4667.48,929.665 4668.12,930.931 4668.91,930.931L4684.02,930.931C4684.81,930.931 4685.45,929.665 4685.45,928.106Z" style="fill:rgb(248,249,250);"/>
                </g>
            </g>
        </g>
    </g>
</svg>
