<?xml version="1.0" encoding="UTF-8" standalone="no"?>
<!DOCTYPE svg PUBLIC "-//W3C//DTD SVG 1.1//EN" "http://www.w3.org/Graphics/SVG/1.1/DTD/svg11.dtd">
<svg width="100%" height="100%" viewBox="0 0 128 128" version="1.1" xmlns="http://www.w3.org/2000/svg" xmlns:xlink="http://www.w3.org/1999/xlink" xml:space="preserve" xmlns:serif="http://www.serif.com/" style="fill-rule:evenodd;clip-rule:evenodd;stroke-linejoin:round;stroke-miterlimit:2;">
    <g transform="matrix(1,0,0,1,-64,-64)">
        <g id="Socks---White" serif:id="Socks - White" transform="matrix(-0.890333,0,0,0.890333,4326.16,-688.624)">
            <g transform="matrix(1.14627,0,0,1.12318,4555.56,273.407)">
                <path d="M85.649,570.973C85.648,570.955 88.185,539.479 88.185,539.479C90.102,541.763 97.649,543.618 106.773,543.68C116.237,543.744 124.109,541.97 125.649,539.583C125.649,539.583 125.948,561.786 126.549,571.285C127.092,579.883 129.328,589.82 129.253,596.581C129.168,604.283 120.868,607.219 115.227,605.213C113.353,604.556 111.282,604.792 109.604,605.853C107.564,607.147 104.421,607.495 101.332,605.611C99.858,604.706 98.085,604.426 96.405,604.831C93.999,605.484 91.394,605.02 89.745,603.513C89.02,602.843 88.152,602.347 87.207,602.062C83.391,601.008 82.287,598.992 82.287,595.479C82.287,587.727 84.687,581.596 85.649,570.973Z" style="fill:white;"/>
                <clipPath id="_clip1">
                    <path d="M85.649,570.973C85.648,570.955 88.185,539.479 88.185,539.479C90.102,541.763 97.649,543.618 106.773,543.68C116.237,543.744 124.109,541.97 125.649,539.583C125.649,539.583 125.948,561.786 126.549,571.285C127.092,579.883 129.328,589.82 129.253,596.581C129.168,604.283 120.868,607.219 115.227,605.213C113.353,604.556 111.282,604.792 109.604,605.853C107.564,607.147 104.421,607.495 101.332,605.611C99.858,604.706 98.085,604.426 96.405,604.831C93.999,605.484 91.394,605.02 89.745,603.513C89.02,602.843 88.152,602.347 87.207,602.062C83.391,601.008 82.287,598.992 82.287,595.479C82.287,587.727 84.687,581.596 85.649,570.973Z"/>
                </clipPath>
                <g clip-path="url(#_clip1)">
                    <g transform="matrix(0.941627,0,0,0.941627,-4297.34,-290.261)">
                        <path d="M4655.14,889.73C4657.22,892.321 4666.12,894.272 4676.76,894.272C4687.4,894.272 4696.29,892.321 4698.38,889.73C4698.68,890.107 4698.84,890.498 4698.84,890.898C4698.84,894.05 4688.94,896.609 4676.76,896.609C4664.57,896.609 4654.67,894.05 4654.67,890.898C4654.67,890.498 4654.83,890.107 4655.14,889.73Z" style="fill:rgb(255,135,135);"/>
                    </g>
                    <g transform="matrix(0.941627,0,0,0.941627,-4297.34,-283.962)">
                        <path d="M4655.14,889.73C4657.22,892.321 4666.12,894.272 4676.76,894.272C4687.4,894.272 4696.29,892.321 4698.38,889.73C4698.68,890.107 4698.84,890.498 4698.84,890.898C4698.84,894.05 4688.94,896.609 4676.76,896.609C4664.57,896.609 4654.67,894.05 4654.67,890.898C4654.67,890.498 4654.83,890.107 4655.14,889.73Z" style="fill:rgb(77,171,247);"/>
                    </g>
                </g>
            </g>
            <g transform="matrix(-1.14627,0,0,1.12318,4874.97,273.407)">
                <path d="M85.649,570.973C85.648,570.955 88.185,539.479 88.185,539.479C90.102,541.763 97.649,543.618 106.773,543.68C116.237,543.744 124.109,541.97 125.649,539.583C125.649,539.583 125.948,561.786 126.549,571.285C127.092,579.883 129.328,589.82 129.253,596.581C129.168,604.283 120.868,607.219 115.227,605.213C113.353,604.556 111.282,604.792 109.604,605.853C107.564,607.147 104.421,607.495 101.332,605.611C99.858,604.706 98.085,604.426 96.405,604.831C93.999,605.484 91.394,605.02 89.745,603.513C89.02,602.843 88.152,602.347 87.207,602.062C83.391,601.008 82.287,598.992 82.287,595.479C82.287,587.727 84.687,581.596 85.649,570.973ZM119.942,597.068C124.267,595.479 128.448,600.328 122.783,603.029C119.966,604.371 116.795,604.456 115.987,601.442C115.987,601.442 115.447,598.719 119.942,597.068Z" style="fill:white;"/>
                <clipPath id="_clip2">
                    <path d="M85.649,570.973C85.648,570.955 88.185,539.479 88.185,539.479C90.102,541.763 97.649,543.618 106.773,543.68C116.237,543.744 124.109,541.97 125.649,539.583C125.649,539.583 125.948,561.786 126.549,571.285C127.092,579.883 129.328,589.82 129.253,596.581C129.168,604.283 120.868,607.219 115.227,605.213C113.353,604.556 111.282,604.792 109.604,605.853C107.564,607.147 104.421,607.495 101.332,605.611C99.858,604.706 98.085,604.426 96.405,604.831C93.999,605.484 91.394,605.02 89.745,603.513C89.02,602.843 88.152,602.347 87.207,602.062C83.391,601.008 82.287,598.992 82.287,595.479C82.287,587.727 84.687,581.596 85.649,570.973ZM119.942,597.068C124.267,595.479 128.448,600.328 122.783,603.029C119.966,604.371 116.795,604.456 115.987,601.442C115.987,601.442 115.447,598.719 119.942,597.068Z"/>
                </clipPath>
                <g clip-path="url(#_clip2)">
                    <g transform="matrix(0.941627,0,0,0.941627,-4297.34,-290.261)">
                        <path d="M4655.14,889.73C4657.22,892.321 4666.12,894.272 4676.76,894.272C4687.4,894.272 4696.29,892.321 4698.38,889.73C4698.68,890.107 4698.84,890.498 4698.84,890.898C4698.84,894.05 4688.94,896.609 4676.76,896.609C4664.57,896.609 4654.67,894.05 4654.67,890.898C4654.67,890.498 4654.83,890.107 4655.14,889.73Z" style="fill:rgb(255,135,135);"/>
                    </g>
                    <g transform="matrix(0.941627,0,0,0.941627,-4297.34,-283.962)">
                        <path d="M4655.14,889.73C4657.22,892.321 4666.12,894.272 4676.76,894.272C4687.4,894.272 4696.29,892.321 4698.38,889.73C4698.68,890.107 4698.84,890.498 4698.84,890.898C4698.84,894.05 4688.94,896.609 4676.76,896.609C4664.57,896.609 4654.67,894.05 4654.67,890.898C4654.67,890.498 4654.83,890.107 4655.14,889.73Z" style="fill:rgb(77,171,247);"/>
                    </g>
                </g>
            </g>
        </g>
    </g>
</svg>
