<?xml version="1.0" encoding="UTF-8" standalone="no"?>
<!DOCTYPE svg PUBLIC "-//W3C//DTD SVG 1.1//EN" "http://www.w3.org/Graphics/SVG/1.1/DTD/svg11.dtd">
<svg width="100%" height="100%" viewBox="0 0 256 256" version="1.1" xmlns="http://www.w3.org/2000/svg" xmlns:xlink="http://www.w3.org/1999/xlink" xml:space="preserve" xmlns:serif="http://www.serif.com/" style="fill-rule:evenodd;clip-rule:evenodd;stroke-linejoin:round;stroke-miterlimit:2;">
    <g id="Underwear---White" serif:id="Underwear - White" transform="matrix(0.890333,0,0,0.890333,-4069.53,-536.762)">
        <g transform="matrix(1,0,0,1.3598,2.7189,-288.459)">
            <rect x="4666.36" y="770.345" width="90.951" height="29.941" style="fill:white;"/>
        </g>
        <g transform="matrix(1,0,0,1,-0.0309322,0)">
            <g transform="matrix(1,0,0,1,0.885789,-0.60018)">
                <path d="M4657.95,813.445L4659.2,765.222L4699.85,763.839C4699.85,763.839 4698.16,813.026 4698.16,813.442C4698.16,816.754 4688.93,819.443 4677.56,819.443C4666.19,819.443 4657.95,816.756 4657.95,813.445Z" style="fill:white;"/>
                <clipPath id="_clip1">
                    <path d="M4657.95,813.445L4659.2,765.222L4699.85,763.839C4699.85,763.839 4698.16,813.026 4698.16,813.442C4698.16,816.754 4688.93,819.443 4677.56,819.443C4666.19,819.443 4657.95,816.756 4657.95,813.445Z"/>
                </clipPath>
                <g clip-path="url(#_clip1)">
                    <g transform="matrix(0.30432,0,0,0.128989,4275.29,693.764)">
                        <rect x="1326.26" y="826.452" width="79.164" height="175.367" style="fill:rgb(248,249,250);"/>
                    </g>
                </g>
            </g>
            <g transform="matrix(-1,0,0,1,9428.3,-0.60018)">
                <path d="M4657.95,813.445L4659.2,765.221L4699.85,763.839C4699.85,763.839 4698.16,813.026 4698.16,813.442C4698.16,816.754 4688.93,819.443 4677.56,819.443C4666.19,819.443 4657.95,816.756 4657.95,813.445Z" style="fill:white;"/>
                <clipPath id="_clip2">
                    <path d="M4657.95,813.445L4659.2,765.221L4699.85,763.839C4699.85,763.839 4698.16,813.026 4698.16,813.442C4698.16,816.754 4688.93,819.443 4677.56,819.443C4666.19,819.443 4657.95,816.756 4657.95,813.445Z"/>
                </clipPath>
                <g clip-path="url(#_clip2)">
                    <g transform="matrix(-0.312283,0,0,0.361151,5093.07,461.179)">
                        <rect x="1326.26" y="826.452" width="79.164" height="175.367" style="fill:rgb(248,249,250);"/>
                    </g>
                </g>
            </g>
        </g>
        <g transform="matrix(1.12318,0,0,1.12318,3224.94,-349.922)">
            <path d="M1307.44,848.309C1308.38,858.033 1316.58,865.646 1326.55,865.646C1336.5,865.646 1344.69,858.059 1345.64,848.361C1357.46,852.863 1366.16,863.889 1367.12,877.251C1370.51,924.309 1374.79,992.314 1374.79,992.314C1326.69,1000.3 1285.47,1004.8 1277.73,992.314C1277.73,992.314 1282.37,924.138 1285.93,877.097C1286.93,863.763 1295.64,852.785 1307.44,848.309Z" style="fill:white;"/>
            <clipPath id="_clip3">
                <path d="M1307.44,848.309C1308.38,858.033 1316.58,865.646 1326.55,865.646C1336.5,865.646 1344.69,858.059 1345.64,848.361C1357.46,852.863 1366.16,863.889 1367.12,877.251C1370.51,924.309 1374.79,992.314 1374.79,992.314C1326.69,1000.3 1285.47,1004.8 1277.73,992.314C1277.73,992.314 1282.37,924.138 1285.93,877.097C1286.93,863.763 1295.64,852.785 1307.44,848.309Z"/>
            </clipPath>
            <g clip-path="url(#_clip3)">
                <g transform="matrix(0.613036,0,0,0.885693,513.214,114.515)">
                    <rect x="1326.26" y="826.452" width="79.164" height="175.367" style="fill:rgb(248,249,250);"/>
                </g>
            </g>
        </g>
        <g transform="matrix(0.879306,0,0,0.20362,3513.57,595.776)">
            <path d="M1405.42,826.452L1366.87,826.452C1344.44,826.452 1326.26,904.966 1326.26,1001.82L1326.26,1001.82L1405.42,1001.82L1405.42,826.452Z" style="fill:rgb(248,249,250);"/>
        </g>
        <g transform="matrix(1,0,0,1,-1.57183,0)">
            <g transform="matrix(1,0,0,1,0.893299,-2.27374e-13)">
                <circle cx="4715.24" cy="640.704" r="5.511" style="fill:rgb(173,181,189);"/>
            </g>
            <g transform="matrix(1,0,0,1,0.893299,33.8285)">
                <circle cx="4715.24" cy="640.704" r="5.511" style="fill:rgb(173,181,189);"/>
            </g>
            <g transform="matrix(1,0,0,1,0.893299,67.657)">
                <circle cx="4715.24" cy="640.704" r="5.511" style="fill:rgb(173,181,189);"/>
            </g>
        </g>
    </g>
</svg>
