<?xml version="1.0" encoding="UTF-8" standalone="no"?>
<!DOCTYPE svg PUBLIC "-//W3C//DTD SVG 1.1//EN" "http://www.w3.org/Graphics/SVG/1.1/DTD/svg11.dtd">
<svg width="100%" height="100%" viewBox="0 0 256 256" version="1.1" xmlns="http://www.w3.org/2000/svg" xmlns:xlink="http://www.w3.org/1999/xlink" xml:space="preserve" xmlns:serif="http://www.serif.com/" style="fill-rule:evenodd;clip-rule:evenodd;stroke-linejoin:round;stroke-miterlimit:2;">
    <g id="Wand---Star" serif:id="Wand - Star" transform="matrix(2.96787,8.36556e-17,7.69117e-16,2.39135,-17991.7,-3810.66)">
        <g transform="matrix(0.787706,-7.3696e-17,2.51615e-17,1.04409,5205.74,1016.74)">
            <path d="M1147.88,584.17C1147.88,581.131 1145.25,578.663 1142,578.663C1138.76,578.663 1136.12,581.131 1136.12,584.17L1136.12,646.512C1136.12,649.552 1138.76,652.02 1142,652.02C1145.25,652.02 1147.88,649.552 1147.88,646.512L1147.88,584.17Z" style="fill:rgb(52,58,64);"/>
        </g>
        <g transform="matrix(0.387833,-1.35674e-17,-1.24736e-16,0.481333,6054.99,1593.06)">
            <path d="M124.48,10.58C125.462,8.588 127.489,7.327 129.71,7.327C131.931,7.327 133.959,8.588 134.941,10.58L153.125,47.479L193.838,53.371C196.036,53.69 197.862,55.228 198.548,57.341C199.235,59.453 198.662,61.771 197.071,63.32L167.597,92.018L174.574,132.558C174.95,134.747 174.051,136.959 172.255,138.265C170.458,139.57 168.076,139.742 166.111,138.707L129.71,119.544L93.31,138.707C91.345,139.742 88.962,139.57 87.166,138.265C85.369,136.959 84.47,134.747 84.847,132.558L91.824,92.018L62.35,63.32C60.759,61.771 60.186,59.453 60.872,57.341C61.558,55.228 63.385,53.69 65.582,53.371L106.295,47.479L124.48,10.58Z" style="fill:rgb(255,212,59);"/>
        </g>
    </g>
</svg>
