<?xml version="1.0" encoding="UTF-8" standalone="no"?>
<!DOCTYPE svg PUBLIC "-//W3C//DTD SVG 1.1//EN" "http://www.w3.org/Graphics/SVG/1.1/DTD/svg11.dtd">
<svg width="100%" height="100%" viewBox="0 0 256 256" version="1.1" xmlns="http://www.w3.org/2000/svg" xmlns:xlink="http://www.w3.org/1999/xlink" xml:space="preserve" xmlns:serif="http://www.serif.com/" style="fill-rule:evenodd;clip-rule:evenodd;stroke-linejoin:round;stroke-miterlimit:2;">
    <g id="Arrow-Basic-Up" serif:id="Arrow Basic Up" transform="matrix(1.26004,0,0,1.05172,-48.6995,-36.161)">
        <path d="M120.223,71.569C124.607,63.423 132.143,58.501 140.233,58.501C148.324,58.501 155.86,63.423 160.244,71.569C175.735,100.356 197.233,140.307 213.578,170.681C218.3,179.456 218.643,190.621 214.472,199.789C210.3,208.957 202.282,214.662 193.567,214.662L86.9,214.662C78.185,214.662 70.167,208.957 65.995,199.789C61.824,190.621 62.167,179.456 66.889,170.681C83.234,140.307 104.732,100.356 120.223,71.569Z" style="fill:white;"/>
    </g>
</svg>
