<?xml version="1.0" encoding="UTF-8" standalone="no"?>
<!DOCTYPE svg PUBLIC "-//W3C//DTD SVG 1.1//EN" "http://www.w3.org/Graphics/SVG/1.1/DTD/svg11.dtd">
<svg width="100%" height="100%" viewBox="0 0 256 256" version="1.1" xmlns="http://www.w3.org/2000/svg" xmlns:xlink="http://www.w3.org/1999/xlink" xml:space="preserve" xmlns:serif="http://www.serif.com/" style="fill-rule:evenodd;clip-rule:evenodd;stroke-linejoin:round;stroke-miterlimit:2;">
    <g id="Astronaut" transform="matrix(1.05142,1.3934e-16,-7.10633e-15,2.06625,-9881.49,515.524)">
        <g transform="matrix(0.914333,0.465264,-0.914333,0.465264,-3010.67,-7850.74)">
            <path d="M15022.1,1316.12C15042.7,1295.52 15076.2,1295.52 15096.8,1316.12C15117.4,1336.72 15117.4,1370.16 15096.8,1390.76C15076.2,1411.36 15042.7,1411.36 15022.1,1390.76C15001.6,1370.16 15001.6,1336.72 15022.1,1316.12ZM15033.3,1327.28C15047.7,1312.84 15071.2,1312.84 15085.6,1327.28C15100.1,1341.72 15100.1,1365.16 15085.6,1379.6C15071.2,1394.04 15047.7,1394.04 15033.3,1379.6C15018.9,1365.16 15018.9,1341.72 15033.3,1327.28Z" style="fill:white;"/>
        </g>
        <g transform="matrix(0.914333,0.465264,-0.914333,0.465264,-3010.67,-7850.74)">
            <path d="M15043.8,1355.88C15047.5,1352.24 15053.4,1352.24 15057,1355.88C15060.7,1359.53 15060.7,1365.44 15057,1369.08C15053.4,1372.72 15047.5,1372.72 15043.8,1369.08C15040.2,1365.44 15040.2,1359.53 15043.8,1355.88ZM15048.8,1360.9C15049.7,1360.03 15051.1,1360.03 15052,1360.9C15052.9,1361.77 15052.9,1363.19 15052,1364.07C15051.1,1364.94 15049.7,1364.94 15048.8,1364.07C15048,1363.19 15048,1361.77 15048.8,1360.9Z" style="fill:white;"/>
        </g>
        <g transform="matrix(0.914333,0.465264,-0.914333,0.465264,-3010.67,-7850.74)">
            <path d="M15060.4,1339.3C15064.1,1335.66 15070,1335.66 15073.6,1339.3C15077.3,1342.94 15077.3,1348.85 15073.6,1352.49C15070,1356.13 15064.1,1356.13 15060.4,1352.49C15056.8,1348.85 15056.8,1342.94 15060.4,1339.3ZM15065.4,1344.31C15066.3,1343.44 15067.7,1343.44 15068.6,1344.31C15069.5,1345.19 15069.5,1346.61 15068.6,1347.48C15067.7,1348.35 15066.3,1348.35 15065.4,1347.48C15064.6,1346.61 15064.6,1345.19 15065.4,1344.31Z" style="fill:white;"/>
        </g>
        <g transform="matrix(1.3243,0,5.19711e-16,0.290063,-19387.8,-867.651)">
            <circle cx="21828.9" cy="2288" r="8.219" style="fill:white;"/>
        </g>
        <g transform="matrix(1.11982,-0.328991,0.646531,0.569829,-16382.7,5667.4)">
            <path d="M21821.4,2252.85C21821.4,2251.57 21820.4,2250.54 21819.1,2250.54L21812,2250.54C21810.7,2250.54 21809.7,2251.57 21809.7,2252.85C21809.7,2254.12 21810.7,2255.16 21812,2255.16L21819.1,2255.16C21820.4,2255.16 21821.4,2254.12 21821.4,2252.85Z" style="fill:white;"/>
        </g>
        <g transform="matrix(-1.11982,-0.328991,-0.646531,0.569829,35419.2,5667.4)">
            <path d="M21821.4,2252.85C21821.4,2251.57 21820.4,2250.54 21819.1,2250.54L21812,2250.54C21810.7,2250.54 21809.7,2251.57 21809.7,2252.85C21809.7,2254.12 21810.7,2255.16 21812,2255.16L21819.1,2255.16C21820.4,2255.16 21821.4,2254.12 21821.4,2252.85Z" style="fill:white;"/>
        </g>
        <g>
            <g transform="matrix(-0.070851,-0.0186537,-0.0366581,0.0360529,9773.04,-238.149)">
                <path d="M1358.6,1840.59C1403.07,1973.21 1495,2189.42 1842.26,2288.72C1919.3,2310.75 1963.96,2391.18 1941.93,2468.22C1919.9,2545.26 1839.47,2589.92 1762.43,2567.89C1272.76,2427.88 1146,2119.9 1083.3,1932.9C1057.83,1856.93 1098.83,1774.57 1174.8,1749.1C1250.77,1723.62 1333.13,1764.62 1358.6,1840.59Z" style="fill:white;"/>
            </g>
            <g transform="matrix(0.070851,-0.0186537,0.0366581,0.0360529,9266.64,-238.149)">
                <path d="M1083.3,1932.9C1146,2119.9 1272.76,2427.88 1762.43,2567.89C1839.47,2589.92 1919.9,2545.26 1941.93,2468.22C1963.96,2391.18 1919.3,2310.75 1842.26,2288.72C1495,2189.42 1403.07,1973.21 1358.6,1840.59C1333.13,1764.62 1250.77,1723.62 1174.8,1749.1C1098.83,1774.57 1057.83,1856.93 1083.3,1932.9Z" style="fill:white;"/>
            </g>
        </g>
        <g transform="matrix(0.914333,0.465264,-0.914333,0.465264,-3010.67,-7850.74)">
            <path d="M15120.9,1370.26C15114.5,1363.9 15104.2,1363.9 15097.8,1370.26L15074.8,1393.29C15068.4,1399.65 15068.4,1409.98 15074.8,1416.33L15098.2,1439.76C15104.6,1446.12 15114.9,1446.12 15121.2,1439.76L15144.3,1416.72C15150.6,1410.36 15150.6,1400.04 15144.3,1393.68L15120.9,1370.26ZM15117.8,1393.25C15115.7,1391.18 15112.3,1391.18 15110.3,1393.25L15097.8,1405.72C15095.7,1407.79 15095.7,1411.15 15097.8,1413.23C15099.8,1415.3 15103.2,1415.3 15105.3,1413.23L15117.8,1400.75C15119.8,1398.68 15119.8,1395.32 15117.8,1393.25ZM15107.4,1382.93C15106.8,1382.31 15105.8,1382.31 15105.2,1382.93L15087.5,1400.65C15086.8,1401.28 15086.8,1402.29 15087.5,1402.91C15088.1,1403.53 15089.1,1403.53 15089.7,1402.91L15107.4,1385.19C15108.1,1384.56 15108.1,1383.55 15107.4,1382.93Z" style="fill:white;"/>
        </g>
        <g transform="matrix(1,0,0,1,3.00956,0)">
            <g transform="matrix(0.721113,0,0,0.366942,-6215.75,-1010.64)">
                <path d="M21814.1,2322.96C21814.1,2313.49 21806.5,2305.81 21797,2305.81C21787.5,2305.81 21779.8,2313.49 21779.8,2322.96L21779.8,2393.8C21779.8,2403.26 21787.5,2410.95 21797,2410.95C21806.5,2410.95 21814.1,2403.26 21814.1,2393.8L21814.1,2322.96Z" style="fill:white;"/>
            </g>
            <g transform="matrix(0.721113,0,0,0.366942,-6186.76,-1010.64)">
                <path d="M21814.1,2322.96C21814.1,2313.49 21806.5,2305.81 21797,2305.81C21787.5,2305.81 21779.8,2313.49 21779.8,2322.96L21779.8,2393.8C21779.8,2403.26 21787.5,2410.95 21797,2410.95C21806.5,2410.95 21814.1,2403.26 21814.1,2393.8L21814.1,2322.96Z" style="fill:white;"/>
            </g>
        </g>
    </g>
</svg>
