<?xml version="1.0" encoding="UTF-8" standalone="no"?>
<!DOCTYPE svg PUBLIC "-//W3C//DTD SVG 1.1//EN" "http://www.w3.org/Graphics/SVG/1.1/DTD/svg11.dtd">
<svg width="100%" height="100%" viewBox="0 0 256 256" version="1.1" xmlns="http://www.w3.org/2000/svg" xmlns:xlink="http://www.w3.org/1999/xlink" xml:space="preserve" xmlns:serif="http://www.serif.com/" style="fill-rule:evenodd;clip-rule:evenodd;stroke-linejoin:round;stroke-miterlimit:2;">
    <g id="Backward" transform="matrix(9.76797,0,0,9.76797,-3914.27,-32965.8)">
        <path d="M424.615,3392.28C424.615,3392.82 424.328,3393.32 423.859,3393.6C423.391,3393.88 422.811,3393.89 422.334,3393.62C419.112,3391.85 413.615,3388.83 413.615,3388.83L413.615,3392.18C413.615,3392.73 413.319,3393.24 412.838,3393.51C412.357,3393.79 411.767,3393.78 411.291,3393.5C409.237,3392.28 406.261,3390.52 404.235,3389.32C403.767,3389.04 403.481,3388.54 403.481,3387.99C403.481,3387.45 403.767,3386.95 404.235,3386.67C406.261,3385.47 409.237,3383.7 411.291,3382.48C411.767,3382.2 412.357,3382.2 412.838,3382.47C413.319,3382.74 413.615,3383.26 413.615,3383.81L413.615,3386.94C413.615,3386.94 419.135,3384.01 422.354,3382.31C422.832,3382.05 423.406,3382.07 423.869,3382.35C424.332,3382.62 424.615,3383.12 424.615,3383.66L424.615,3392.28Z" style="fill:white;"/>
    </g>
</svg>
