<?xml version="1.0" encoding="UTF-8" standalone="no"?>
<!DOCTYPE svg PUBLIC "-//W3C//DTD SVG 1.1//EN" "http://www.w3.org/Graphics/SVG/1.1/DTD/svg11.dtd">
<svg width="100%" height="100%" viewBox="0 0 256 256" version="1.1" xmlns="http://www.w3.org/2000/svg" xmlns:xlink="http://www.w3.org/1999/xlink" xml:space="preserve" xmlns:serif="http://www.serif.com/" style="fill-rule:evenodd;clip-rule:evenodd;stroke-linejoin:round;stroke-miterlimit:2;">
    <g id="Bolt" transform="matrix(1,0,0,1,-37.1914,-16.6788)">
        <path d="M122.461,32.385C123.618,27.993 127.589,24.933 132.13,24.933C151.669,24.933 203.482,24.933 230.133,24.933C233.614,24.933 236.845,26.744 238.662,29.713C240.48,32.683 240.622,36.384 239.037,39.484C224.947,67.056 195.752,124.183 195.752,124.183L227.577,124.183C231.282,124.183 234.683,126.231 236.415,129.505C238.148,132.78 237.929,136.744 235.845,139.807C217.584,166.652 179.771,222.239 154.373,259.576C151.734,263.454 146.755,264.977 142.398,263.239C138.042,261.501 135.479,256.968 136.235,252.338C141.713,218.82 148.275,178.666 148.275,178.666L96.886,178.666C93.784,178.666 90.858,177.226 88.965,174.769C87.072,172.313 86.426,169.116 87.216,166.117C95.323,135.355 115.995,56.919 122.461,32.385Z" style="fill:white;"/>
    </g>
</svg>
