<?xml version="1.0" encoding="UTF-8" standalone="no"?>
<!DOCTYPE svg PUBLIC "-//W3C//DTD SVG 1.1//EN" "http://www.w3.org/Graphics/SVG/1.1/DTD/svg11.dtd">
<svg width="100%" height="100%" viewBox="0 0 256 256" version="1.1" xmlns="http://www.w3.org/2000/svg" xmlns:xlink="http://www.w3.org/1999/xlink" xml:space="preserve" xmlns:serif="http://www.serif.com/" style="fill-rule:evenodd;clip-rule:evenodd;stroke-linejoin:round;stroke-miterlimit:2;">
    <g id="Clock" transform="matrix(0.545093,0,0,0.545093,-11.5438,-11.5438)">
        <g transform="matrix(0.989962,0,0,0.989962,8.85607,-7.37433)">
            <path d="M249.65,39.656C374.597,39.656 476.039,141.097 476.039,266.045C476.039,390.992 374.597,492.434 249.65,492.434C124.702,492.434 23.261,390.992 23.261,266.045C23.261,141.097 124.702,39.656 249.65,39.656ZM249.65,85.497C349.297,85.497 430.197,166.398 430.197,266.045C430.197,365.692 349.297,446.592 249.65,446.592C150.003,446.592 69.102,365.692 69.102,266.045C69.102,166.398 150.003,85.497 249.65,85.497Z" style="fill:white;"/>
        </g>
        <g>
            <g transform="matrix(0.896113,0,0,1,21.5749,8.63999)">
                <path d="M278.819,162.127C278.819,151.144 268.868,142.226 256.611,142.226C244.354,142.226 234.404,151.144 234.404,162.127L234.404,279.668C234.404,290.652 244.354,299.569 256.611,299.569C268.868,299.569 278.819,290.652 278.819,279.668L278.819,162.127Z" style="fill:white;"/>
            </g>
            <g transform="matrix(5.48711e-17,0.896113,-0.98714,6.04449e-17,527.343,58.3556)">
                <path d="M278.819,162.386C278.819,151.26 268.868,142.226 256.611,142.226C244.354,142.226 234.404,151.26 234.404,162.386L234.404,279.409C234.404,290.535 244.354,299.569 256.611,299.569C268.868,299.569 278.819,290.535 278.819,279.409L278.819,162.386Z" style="fill:white;"/>
            </g>
        </g>
    </g>
</svg>
