<?xml version="1.0" encoding="UTF-8" standalone="no"?>
<!DOCTYPE svg PUBLIC "-//W3C//DTD SVG 1.1//EN" "http://www.w3.org/Graphics/SVG/1.1/DTD/svg11.dtd">
<svg width="100%" height="100%" viewBox="0 0 256 256" version="1.1" xmlns="http://www.w3.org/2000/svg" xmlns:xlink="http://www.w3.org/1999/xlink" xml:space="preserve" xmlns:serif="http://www.serif.com/" style="fill-rule:evenodd;clip-rule:evenodd;stroke-linejoin:round;stroke-miterlimit:2;">
    <g id="Cup" transform="matrix(0.45836,0,0,0.45836,-9.50797,15.9563)">
        <g transform="matrix(1.14537,0,0,0.883427,-43.4018,24.1154)">
            <path d="M436.48,13.009L163.153,13.009C163.153,13.009 155.236,334.58 299.817,334.58C444.397,334.58 436.48,13.009 436.48,13.009Z" style="fill:white;"/>
        </g>
        <g transform="matrix(2.16609,0,0,2.16609,23.1101,-25.1928)">
            <path d="M207.708,14.793C207.708,10.776 204.446,7.514 200.429,7.514L55.23,7.514C51.213,7.514 47.951,10.776 47.951,14.793C47.951,18.81 51.213,22.072 55.23,22.072L200.429,22.072C204.446,22.072 207.708,18.81 207.708,14.793Z" style="fill:white;"/>
        </g>
        <g transform="matrix(1,0,0,1,-0.758703,0)">
            <g transform="matrix(2.16609,0,0,2.16609,19.0963,-35.3969)">
                <path d="M65.34,127.405C59.337,128.495 52.535,127.986 45.32,125.476C23.183,117.774 5.342,93.45 5.342,71.312C5.342,58.842 10.676,49.439 18.856,44.104C26.203,39.313 36.114,37.718 47.139,40.821C47.216,44.741 47.411,49.91 47.858,55.905C47.02,55.545 46.174,55.216 45.32,54.919C37.983,52.366 31.316,52.693 26.503,55.831C21.91,58.826 19.342,64.31 19.342,71.312C19.342,88.116 33.117,106.407 49.921,112.254C53.278,113.422 56.494,113.987 59.458,113.955C61.172,118.583 63.123,123.1 65.34,127.405Z" style="fill:white;"/>
            </g>
            <g transform="matrix(-2.16609,0,0,2.16609,582.421,-35.3969)">
                <path d="M65.34,127.405C59.337,128.495 52.535,127.986 45.32,125.476C23.183,117.774 5.342,93.45 5.342,71.312C5.342,58.842 10.676,49.439 18.856,44.104C26.203,39.313 36.114,37.718 47.139,40.821C47.216,44.741 47.411,49.91 47.858,55.905C47.02,55.545 46.174,55.216 45.32,54.919C37.983,52.366 31.316,52.693 26.503,55.831C21.91,58.826 19.342,64.31 19.342,71.312C19.342,88.116 33.117,106.407 49.921,112.254C53.278,113.422 56.494,113.987 59.458,113.955C61.172,118.583 63.123,123.1 65.34,127.405Z" style="fill:white;"/>
            </g>
        </g>
        <g transform="matrix(0.867398,0,0,0.987495,27.4778,-10.681)">
            <rect x="285.19" y="293.227" width="57.988" height="124.071" style="fill:white;"/>
        </g>
        <g transform="matrix(0.651654,0,0,0.53984,100.121,193.437)">
            <path d="M423.688,434.394C423.688,419.145 413.432,406.765 400.8,406.765L212.651,406.765C200.018,406.765 189.762,419.145 189.762,434.394C189.762,449.643 200.018,462.023 212.651,462.023L400.8,462.023C413.432,462.023 423.688,449.643 423.688,434.394Z" style="fill:white;"/>
        </g>
        <g transform="matrix(1.00976,0,0,0.809237,-4.55293,123.92)">
            <path d="M423.688,434.394C423.688,419.145 413.766,406.765 401.545,406.765L211.905,406.765C199.684,406.765 189.762,419.145 189.762,434.394C189.762,449.643 199.684,462.023 211.905,462.023L401.545,462.023C413.766,462.023 423.688,449.643 423.688,434.394Z" style="fill:white;"/>
        </g>
    </g>
</svg>
