<?xml version="1.0" encoding="UTF-8" standalone="no"?>
<!DOCTYPE svg PUBLIC "-//W3C//DTD SVG 1.1//EN" "http://www.w3.org/Graphics/SVG/1.1/DTD/svg11.dtd">
<svg width="100%" height="100%" viewBox="0 0 256 256" version="1.1" xmlns="http://www.w3.org/2000/svg" xmlns:xlink="http://www.w3.org/1999/xlink" xml:space="preserve" xmlns:serif="http://www.serif.com/" style="fill-rule:evenodd;clip-rule:evenodd;stroke-linejoin:round;stroke-miterlimit:2;">
    <g id="Dress" transform="matrix(5.14386,0,0,5.14386,-13919.6,-4567.81)">
        <g transform="matrix(1,0,0,1,10.0528,-10.1671)">
            <g transform="matrix(2.03862,0,0,1.27538,-2746.78,-264.363)">
                <path d="M2676.78,929.176L2687.28,929.176C2687.28,929.176 2689.79,935.51 2691.9,940.843C2692.47,942.294 2692.51,944.129 2691.99,945.633C2691.47,947.137 2690.48,948.071 2689.41,948.071C2685.07,948.071 2678.99,948.071 2674.66,948.071C2673.58,948.071 2672.59,947.137 2672.07,945.633C2671.55,944.129 2671.59,942.294 2672.16,940.843C2674.27,935.51 2676.78,929.176 2676.78,929.176Z" style="fill:white;"/>
            </g>
            <g transform="matrix(1,0,0,1,27.3055,0)">
                <circle cx="2679.45" cy="907.711" r="6.375" style="fill:white;"/>
            </g>
            <g transform="matrix(1,0,0,1,56.1528,0)">
                <circle cx="2679.45" cy="907.711" r="6.375" style="fill:white;"/>
            </g>
        </g>
        <g transform="matrix(1,0,0,1,27.3055,0)">
            <path d="M2714.33,892.674L2714.33,910.526C2707.19,914.702 2700.05,915.148 2692.92,910.526L2692.92,892.674L2696.55,892.674C2696.55,896.578 2699.72,899.748 2703.62,899.748C2707.53,899.748 2710.7,896.578 2710.7,892.674L2714.33,892.674ZM2703.62,903.25C2704.53,903.25 2705.27,903.987 2705.27,904.895C2705.27,905.802 2704.53,906.539 2703.62,906.539C2702.72,906.539 2701.98,905.802 2701.98,904.895C2701.98,903.987 2702.72,903.25 2703.62,903.25Z" style="fill:white;"/>
        </g>
    </g>
</svg>
