<?xml version="1.0" encoding="UTF-8" standalone="no"?>
<!DOCTYPE svg PUBLIC "-//W3C//DTD SVG 1.1//EN" "http://www.w3.org/Graphics/SVG/1.1/DTD/svg11.dtd">
<svg width="100%" height="100%" viewBox="0 0 256 256" version="1.1" xmlns="http://www.w3.org/2000/svg" xmlns:xlink="http://www.w3.org/1999/xlink" xml:space="preserve" xmlns:serif="http://www.serif.com/" style="fill-rule:evenodd;clip-rule:evenodd;stroke-linejoin:round;stroke-miterlimit:2;">
    <g id="Facebook" transform="matrix(0.519452,0,0,0.519452,46.4461,-1.86292)">
        <g id="Icon">
            <path id="Path" d="M190.924,467.728C192.22,432.695 190.924,262.36 190.924,262.36C190.924,262.36 244.537,261.534 261.086,262.36C292.582,263.93 306.611,183.819 271.591,182.324C252.842,181.521 190.924,182.324 190.924,182.324L190.924,131.221C190.924,108.048 197.471,92.259 231.295,92.259C231.295,92.259 259.915,93.71 274.432,92.238C308.769,88.757 302.304,19.398 271.298,18.169C261.76,17.793 241.362,17.5 211.574,17.5C149.378,17.5 103.834,54.799 103.834,123.298L103.834,182.324C103.834,182.324 54.836,182.763 36.463,182.324C9.846,181.684 9.846,260.726 36.463,262.36C56.418,263.584 103.834,262.36 103.834,262.36C103.834,262.36 104.691,437.687 104.001,463.67C103.31,489.653 190.228,486.543 190.924,467.728Z" style="fill:white;fill-rule:nonzero;"/>
        </g>
    </g>
</svg>
