<?xml version="1.0" encoding="UTF-8" standalone="no"?>
<!DOCTYPE svg PUBLIC "-//W3C//DTD SVG 1.1//EN" "http://www.w3.org/Graphics/SVG/1.1/DTD/svg11.dtd">
<svg width="100%" height="100%" viewBox="0 0 256 256" version="1.1" xmlns="http://www.w3.org/2000/svg" xmlns:xlink="http://www.w3.org/1999/xlink" xml:space="preserve" xmlns:serif="http://www.serif.com/" style="fill-rule:evenodd;clip-rule:evenodd;stroke-linejoin:round;stroke-miterlimit:2;">
    <g id="Friends">
        <path d="M186.532,144.869C199.38,141.311 211.023,134.836 220.7,126.204C242.192,143.13 256,169.381 256,198.831C256,215.613 235.985,226.873 209.121,232.611C210.681,227.869 211.462,222.9 211.462,217.753C211.462,190.308 202.161,165.017 186.532,144.869ZM138.619,5.235C146.264,1.869 154.717,0 163.602,0C197.897,0 225.74,27.843 225.74,62.137C225.74,94.216 201.378,120.65 170.166,123.931C177.198,111.223 181.202,96.605 181.202,81.06C181.202,48.976 164.151,20.844 138.619,5.235Z" style="fill:white;"/>
        <g transform="matrix(1,0,0,1,-2.0403,8.89918)">
            <path d="M151.536,136.227C173.028,153.154 186.836,179.404 186.836,208.854C186.836,259.85 2.04,259.85 2.04,208.854C2.04,179.404 15.848,153.154 37.34,136.227C52.516,149.764 72.523,157.995 94.438,157.995C116.353,157.995 136.36,149.764 151.536,136.227ZM94.438,10.023C128.732,10.023 156.575,37.866 156.575,72.161C156.575,106.455 128.732,134.298 94.438,134.298C60.143,134.298 32.301,106.455 32.301,72.161C32.301,37.866 60.143,10.023 94.438,10.023Z" style="fill:white;"/>
        </g>
    </g>
</svg>
