<?xml version="1.0" encoding="UTF-8" standalone="no"?>
<!DOCTYPE svg PUBLIC "-//W3C//DTD SVG 1.1//EN" "http://www.w3.org/Graphics/SVG/1.1/DTD/svg11.dtd">
<svg width="100%" height="100%" viewBox="0 0 256 256" version="1.1" xmlns="http://www.w3.org/2000/svg" xmlns:xlink="http://www.w3.org/1999/xlink" xml:space="preserve" xmlns:serif="http://www.serif.com/" style="fill-rule:evenodd;clip-rule:evenodd;stroke-linejoin:round;stroke-miterlimit:2;">
    <g id="Headphones" transform="matrix(1.13534,0,0,1.13534,-17.323,-22.7618)">
        <g transform="matrix(1,0,0,1,9.02719,33.2041)">
            <path d="M201.577,103.819L201.577,87.441C201.577,41.851 164.563,4.837 118.973,4.837C73.382,4.837 36.369,41.851 36.369,87.441C36.369,87.441 36.369,103.819 36.369,103.819C36.369,107.222 39.131,109.985 42.534,109.985C45.937,109.985 48.7,107.222 48.7,103.819L48.7,87.441C48.7,48.656 80.188,17.168 118.973,17.168C157.757,17.168 189.246,48.656 189.246,87.441L189.246,103.819C189.246,107.222 192.008,109.985 195.411,109.985C198.814,109.985 201.577,107.222 201.577,103.819Z" style="fill:white;"/>
        </g>
        <g transform="matrix(1,0,0,1,0.500919,2.64239)">
            <g transform="matrix(-1,0,0,1,236.899,-23.9325)">
                <g transform="matrix(0.543316,0,0,0.740954,-6.16893,95.0814)">
                    <path d="M79.666,103.052L74.833,103.052C50.825,103.052 31.334,117.344 31.334,134.948L31.334,160.052C31.334,177.655 50.825,191.947 74.833,191.947L79.666,191.947L79.666,103.052Z" style="fill:white;"/>
                </g>
                <g transform="matrix(0.518459,0,0,1.00023,24.1643,56.8382)">
                    <path d="M79.666,115.578C79.666,108.665 68.837,103.052 55.5,103.052C42.162,103.052 31.334,108.665 31.334,115.578L31.334,179.421C31.334,186.335 42.162,191.947 55.5,191.947C68.837,191.947 79.666,186.335 79.666,179.421L79.666,115.578Z" style="fill:white;"/>
                </g>
            </g>
            <g transform="matrix(1,0,0,1,18.0994,-23.9325)">
                <g transform="matrix(0.543316,0,0,0.740954,-6.16893,95.0814)">
                    <path d="M79.666,103.052L74.833,103.052C50.825,103.052 31.334,117.344 31.334,134.948L31.334,160.052C31.334,177.655 50.825,191.947 74.833,191.947L79.666,191.947L79.666,103.052Z" style="fill:white;"/>
                </g>
                <g transform="matrix(0.518459,0,0,1.00023,24.1643,56.8382)">
                    <path d="M79.666,115.578C79.666,108.665 68.837,103.052 55.5,103.052C42.162,103.052 31.334,108.665 31.334,115.578L31.334,179.421C31.334,186.335 42.162,191.947 55.5,191.947C68.837,191.947 79.666,186.335 79.666,179.421L79.666,115.578Z" style="fill:white;"/>
                </g>
            </g>
        </g>
    </g>
</svg>
