<?xml version="1.0" encoding="UTF-8" standalone="no"?>
<!DOCTYPE svg PUBLIC "-//W3C//DTD SVG 1.1//EN" "http://www.w3.org/Graphics/SVG/1.1/DTD/svg11.dtd">
<svg width="100%" height="100%" viewBox="0 0 256 256" version="1.1" xmlns="http://www.w3.org/2000/svg" xmlns:xlink="http://www.w3.org/1999/xlink" xml:space="preserve" xmlns:serif="http://www.serif.com/" style="fill-rule:evenodd;clip-rule:evenodd;stroke-linejoin:round;stroke-miterlimit:2;">
    <g id="Heart---Border" serif:id="Heart - Border" transform="matrix(8.74675,0,0,8.74675,-6344.59,-23731.1)">
        <path d="M740,2717.82C741.495,2716.59 743.411,2715.85 745.5,2715.85C750.278,2715.85 754.152,2719.72 754.152,2724.5L754.15,2724.74C754.053,2729.89 750.911,2734.22 747.311,2736.86C744.778,2738.71 742.027,2739.69 740,2739.69C737.973,2739.69 735.222,2738.71 732.689,2736.86C729.032,2734.18 725.848,2729.75 725.848,2724.5C725.848,2719.72 729.722,2715.85 734.5,2715.85C736.589,2715.85 738.506,2716.59 740,2717.82Z" style="fill:white;"/>
    </g>
</svg>
