<?xml version="1.0" encoding="UTF-8" standalone="no"?>
<!DOCTYPE svg PUBLIC "-//W3C//DTD SVG 1.1//EN" "http://www.w3.org/Graphics/SVG/1.1/DTD/svg11.dtd">
<svg width="100%" height="100%" viewBox="0 0 256 256" version="1.1" xmlns="http://www.w3.org/2000/svg" xmlns:xlink="http://www.w3.org/1999/xlink" xml:space="preserve" xmlns:serif="http://www.serif.com/" style="fill-rule:evenodd;clip-rule:evenodd;stroke-linejoin:round;stroke-miterlimit:2;">
    <g id="Home" transform="matrix(1,0,0,1,-47.1508,-38.1738)">
        <g transform="matrix(1,0,0,1,47.1508,40.1543)">
            <path d="M207.061,122.021L48.939,122.021L48.939,214.558C48.939,231.582 62.76,245.404 79.785,245.404L176.215,245.404C193.24,245.404 207.061,231.582 207.061,214.558L207.061,122.021ZM146.937,190.162C146.937,179.711 138.452,171.225 128,171.225C117.548,171.225 109.063,179.711 109.063,190.162L109.063,203.151C109.063,213.603 117.548,222.088 128,222.088C138.452,222.088 146.937,213.603 146.937,203.151L146.937,190.162Z" style="fill:white;"/>
        </g>
        <g transform="matrix(1.16814,0,0,1.10564,-29.4492,-16.576)">
            <path d="M159.176,76.254C163.235,71.44 169.048,68.687 175.151,68.687C181.254,68.687 187.066,71.44 191.126,76.254C208.58,96.951 236.989,130.637 259.014,156.754C264.623,163.404 266.012,172.913 262.563,181.041C259.114,189.168 251.469,194.398 243.039,194.398C203.303,194.398 146.998,194.398 107.262,194.398C98.832,194.398 91.187,189.168 87.738,181.041C84.289,172.913 85.679,163.404 91.287,156.754C113.312,130.637 141.721,96.951 159.176,76.254Z" style="fill:white;"/>
        </g>
        <g transform="matrix(1.27057,0,0,1,-44.8961,4.97071)">
            <path d="M235.345,84.836C235.345,75.081 229.112,67.161 221.434,67.161C213.756,67.161 207.523,75.081 207.523,84.836L207.523,136.856C207.523,146.61 213.756,154.53 221.434,154.53C229.112,154.53 235.345,146.61 235.345,136.856L235.345,84.836Z" style="fill:white;"/>
        </g>
    </g>
</svg>
