<?xml version="1.0" encoding="UTF-8" standalone="no"?>
<!DOCTYPE svg PUBLIC "-//W3C//DTD SVG 1.1//EN" "http://www.w3.org/Graphics/SVG/1.1/DTD/svg11.dtd">
<svg width="100%" height="100%" viewBox="0 0 256 256" version="1.1" xmlns="http://www.w3.org/2000/svg" xmlns:xlink="http://www.w3.org/1999/xlink" xml:space="preserve" xmlns:serif="http://www.serif.com/" style="fill-rule:evenodd;clip-rule:evenodd;stroke-linecap:round;stroke-linejoin:round;stroke-miterlimit:1.5;">
    <g id="Image" transform="matrix(1.3148,0,0,1.24414,-6672.68,-998.165)">
        <g transform="matrix(0.601935,0,0,0.636123,420.056,-63.8168)">
            <path d="M8043.38,1431.46C8043.38,1400.3 8018.08,1375 7986.92,1375L7803.29,1375C7772.13,1375 7746.83,1400.3 7746.83,1431.46L7746.83,1615.09C7746.83,1646.26 7772.13,1671.56 7803.29,1671.56L7986.92,1671.56C8018.08,1671.56 8043.38,1646.26 8043.38,1615.09L8043.38,1431.46Z" style="fill:none;stroke:white;stroke-width:19.24px;"/>
        </g>
        <g transform="matrix(0.620512,0,0,0.655755,261.776,-97.8196)">
            <circle cx="7962.81" cy="1477.42" r="45.855" style="fill:white;"/>
        </g>
        <g transform="matrix(0.620512,0,0,0.655755,286.478,-93.7219)">
            <path d="M7803.22,1621.73C7788.14,1621.73 7775.91,1609.5 7775.91,1594.41C7775.91,1572.36 7775.91,1540.91 7775.91,1515.3C7775.91,1507.9 7780.36,1501.23 7787.2,1498.4C7794.03,1495.57 7801.9,1497.13 7807.13,1502.36C7829.37,1524.57 7857.26,1552.42 7868.68,1563.82C7872.11,1567.24 7876.41,1569.64 7881.11,1570.77C7899.68,1575.2 7948.55,1586.88 7960.26,1589.68C7961.95,1590.08 7963.54,1590.79 7964.97,1591.77C7964.98,1591.77 7964.98,1591.78 7964.98,1591.78C7970.91,1595.84 7973.5,1603.3 7971.38,1610.17C7969.25,1617.04 7962.89,1621.73 7955.7,1621.73C7908.24,1621.73 7840.54,1621.73 7803.22,1621.73Z" style="fill:white;"/>
        </g>
    </g>
</svg>
