<?xml version="1.0" encoding="UTF-8" standalone="no"?>
<!DOCTYPE svg PUBLIC "-//W3C//DTD SVG 1.1//EN" "http://www.w3.org/Graphics/SVG/1.1/DTD/svg11.dtd">
<svg width="100%" height="100%" viewBox="0 0 256 256" version="1.1" xmlns="http://www.w3.org/2000/svg" xmlns:xlink="http://www.w3.org/1999/xlink" xml:space="preserve" xmlns:serif="http://www.serif.com/" style="fill-rule:evenodd;clip-rule:evenodd;stroke-linejoin:round;stroke-miterlimit:2;">
    <g id="Key" transform="matrix(9.18338,0,0,9.18338,-738.123,-987.4)">
        <path d="M88.852,113.323C93.342,113.323 96.987,116.968 96.987,121.459C96.987,125.949 93.342,129.594 88.852,129.594C84.361,129.594 80.716,125.949 80.716,121.459C80.716,116.968 84.361,113.323 88.852,113.323ZM85.585,119.176C86.845,119.176 87.868,120.199 87.868,121.459C87.868,122.718 86.845,123.741 85.585,123.741C84.326,123.741 83.303,122.718 83.303,121.459C83.303,120.199 84.326,119.176 85.585,119.176Z" style="fill:white;"/>
        <g transform="matrix(1,0,0,0.797683,-2.12101,23.9853)">
            <path d="M110.033,122.196C110.033,120.478 108.921,119.084 107.551,119.084L94.744,119.084C93.374,119.084 92.262,120.478 92.262,122.196C92.262,123.913 93.374,125.308 94.744,125.308L107.551,125.308C108.921,125.308 110.033,123.913 110.033,122.196Z" style="fill:white;"/>
        </g>
        <g transform="matrix(1,0,0,1,-2.67022,0)">
            <g transform="matrix(0.130174,0,0,1,92.8469,1.13759)">
                <path d="M110.033,120.24C110.033,119.602 106.052,119.084 101.148,119.084C96.243,119.084 92.262,119.602 92.262,120.24L92.262,124.151C92.262,124.789 96.243,125.308 101.148,125.308C106.052,125.308 110.033,124.789 110.033,124.151L110.033,120.24Z" style="fill:white;"/>
            </g>
            <g transform="matrix(0.130174,0,0,1,89.0624,1.13759)">
                <path d="M110.033,120.24C110.033,119.602 106.052,119.084 101.148,119.084C96.243,119.084 92.262,119.602 92.262,120.24L92.262,124.151C92.262,124.789 96.243,125.308 101.148,125.308C106.052,125.308 110.033,124.789 110.033,124.151L110.033,120.24Z" style="fill:white;"/>
            </g>
        </g>
    </g>
</svg>
