<?xml version="1.0" encoding="UTF-8" standalone="no"?>
<!DOCTYPE svg PUBLIC "-//W3C//DTD SVG 1.1//EN" "http://www.w3.org/Graphics/SVG/1.1/DTD/svg11.dtd">
<svg width="100%" height="100%" viewBox="0 0 256 256" version="1.1" xmlns="http://www.w3.org/2000/svg" xmlns:xlink="http://www.w3.org/1999/xlink" xml:space="preserve" xmlns:serif="http://www.serif.com/" style="fill-rule:evenodd;clip-rule:evenodd;stroke-linejoin:round;stroke-miterlimit:2;">
    <g id="Lens" transform="matrix(0.818233,0.818233,-0.818233,0.818233,128.189,-70.3687)">
        <path d="M126.66,18.055C170.832,18.055 206.694,53.917 206.694,98.09C206.694,142.262 170.832,178.125 126.66,178.125C82.487,178.125 46.625,142.262 46.625,98.09C46.625,53.917 82.487,18.055 126.66,18.055ZM126.66,51.488C152.38,51.488 173.261,72.37 173.261,98.09C173.261,123.81 152.38,144.692 126.66,144.692C100.939,144.692 80.058,123.81 80.058,98.09C80.058,72.37 100.939,51.488 126.66,51.488Z" style="fill:white;"/>
        <g transform="matrix(1.17619,0,0,1.11589,-20.5116,-17.0031)">
            <path d="M140.785,163.219C140.785,154.109 133.768,146.713 125.125,146.713C116.482,146.713 109.465,154.109 109.465,163.219L109.465,212.911C109.465,222.021 116.482,229.417 125.125,229.417C133.768,229.417 140.785,222.021 140.785,212.911L140.785,163.219Z" style="fill:white;"/>
        </g>
    </g>
</svg>
