<?xml version="1.0" encoding="UTF-8" standalone="no"?>
<!DOCTYPE svg PUBLIC "-//W3C//DTD SVG 1.1//EN" "http://www.w3.org/Graphics/SVG/1.1/DTD/svg11.dtd">
<svg width="100%" height="100%" viewBox="0 0 256 256" version="1.1" xmlns="http://www.w3.org/2000/svg" xmlns:xlink="http://www.w3.org/1999/xlink" xml:space="preserve" xmlns:serif="http://www.serif.com/" style="fill-rule:evenodd;clip-rule:evenodd;stroke-linejoin:round;stroke-miterlimit:2;">
    <g id="Level" transform="matrix(0.782216,0,0,0.782216,-8.8304,10.1633)">
        <g transform="matrix(1.54601,0,0,1.54601,-92.932,-83.3105)">
            <g transform="matrix(0.932829,0,0,0.761076,13.3669,22.9829)">
                <path d="M270.018,94.827C270.018,85.968 264.149,78.775 256.921,78.775L141.079,78.775C133.85,78.775 127.982,85.968 127.982,94.827C127.982,103.687 133.85,110.88 141.079,110.88L256.921,110.88C264.149,110.88 270.018,103.687 270.018,94.827Z" style="fill:white;"/>
            </g>
            <g transform="matrix(0.772737,0,0,0.772737,30.2886,21.3728)">
                <circle cx="85.383" cy="95.48" r="19.412" style="fill:white;"/>
            </g>
        </g>
        <g transform="matrix(1.54601,0,0,1.54601,-92.932,3.53555)">
            <g transform="matrix(0.932829,0,0,0.761076,13.3669,22.9829)">
                <path d="M270.018,94.827C270.018,85.968 264.149,78.775 256.921,78.775L141.079,78.775C133.85,78.775 127.982,85.968 127.982,94.827C127.982,103.687 133.85,110.88 141.079,110.88L256.921,110.88C264.149,110.88 270.018,103.687 270.018,94.827Z" style="fill:white;"/>
            </g>
            <g transform="matrix(0.772737,0,0,0.772737,30.2886,21.3728)">
                <circle cx="85.383" cy="95.48" r="19.412" style="fill:white;"/>
            </g>
        </g>
        <g transform="matrix(1.54601,0,0,1.54601,-92.932,90.3816)">
            <g transform="matrix(0.932829,0,0,0.761076,13.3669,22.9829)">
                <path d="M270.018,94.827C270.018,85.968 264.149,78.775 256.921,78.775L141.079,78.775C133.85,78.775 127.982,85.968 127.982,94.827C127.982,103.687 133.85,110.88 141.079,110.88L256.921,110.88C264.149,110.88 270.018,103.687 270.018,94.827Z" style="fill:white;"/>
            </g>
            <g transform="matrix(0.772737,0,0,0.772737,30.2886,21.3728)">
                <circle cx="85.383" cy="95.48" r="19.412" style="fill:white;"/>
            </g>
        </g>
    </g>
</svg>
