<?xml version="1.0" encoding="UTF-8" standalone="no"?>
<!DOCTYPE svg PUBLIC "-//W3C//DTD SVG 1.1//EN" "http://www.w3.org/Graphics/SVG/1.1/DTD/svg11.dtd">
<svg width="100%" height="100%" viewBox="0 0 256 256" version="1.1" xmlns="http://www.w3.org/2000/svg" xmlns:xlink="http://www.w3.org/1999/xlink" xml:space="preserve" xmlns:serif="http://www.serif.com/" style="fill-rule:evenodd;clip-rule:evenodd;stroke-linejoin:round;stroke-miterlimit:2;">
    <g id="Line" transform="matrix(1.79126,0,1.46187e-15,1.1842,-7435.21,-248.174)">
        <path d="M4189.77,320.477C4176.35,326.427 4167.9,339.289 4165.58,354.201C4162.46,374.245 4170.31,398.393 4192.42,414.944C4208.16,426.666 4222.79,424.922 4235.54,416.512C4258.57,401.317 4275.4,364.256 4281.53,346.85C4281.73,346.317 4281.59,345.651 4281.24,345.364C4280.89,345.077 4280.45,345.277 4280.26,345.81C4274.14,362.836 4257.44,399.051 4234.76,413.763C4222.49,421.717 4208.46,423.346 4193.38,411.996C4172.49,396.365 4164.74,373.891 4167.69,354.951C4169.85,341.028 4177.75,329.23 4190.21,323.64C4191.58,332.778 4193.55,341.038 4196.63,347.661C4201.07,357.206 4207.73,363.558 4218.18,364.402C4225.3,364.997 4231.87,359.387 4235.33,351.869C4238.09,345.863 4238.87,338.67 4236.56,332.343C4233.53,324.031 4224.82,316.965 4207.19,316.956C4201.72,316.95 4196.71,317.849 4192.21,319.491C4190.01,301.163 4190.08,279.688 4188.22,261.022C4185.93,237.962 4180.66,219.172 4166.09,213.689C4164.89,213.264 4163.69,214.392 4163.4,216.207C4163.12,218.022 4163.87,219.841 4165.07,220.267C4178.03,224.58 4182.51,241.55 4184.85,261.851C4187.01,280.552 4187.33,302.052 4189.77,320.477ZM4192.62,322.659C4193.83,331.381 4195.64,339.279 4198.53,345.664C4202.53,354.509 4208.7,360.261 4218.3,361.123C4224.64,361.674 4230.5,356.711 4233.58,350.027C4235.87,345.065 4236.61,339.128 4234.7,333.894C4231.88,326.146 4223.62,320.177 4207.19,320.172C4201.86,320.173 4196.99,321.053 4192.62,322.659Z" style="fill:white;"/>
    </g>
</svg>
