<?xml version="1.0" encoding="UTF-8" standalone="no"?>
<!DOCTYPE svg PUBLIC "-//W3C//DTD SVG 1.1//EN" "http://www.w3.org/Graphics/SVG/1.1/DTD/svg11.dtd">
<svg width="100%" height="100%" viewBox="0 0 256 256" version="1.1" xmlns="http://www.w3.org/2000/svg" xmlns:xlink="http://www.w3.org/1999/xlink" xml:space="preserve" xmlns:serif="http://www.serif.com/" style="fill-rule:evenodd;clip-rule:evenodd;stroke-linecap:round;stroke-linejoin:round;stroke-miterlimit:1.5;">
    <g id="Lock" transform="matrix(1.37975,0,0,1.37975,-48.6084,-51.3482)">
        <g transform="matrix(0.853583,0,0,1.39104,18.5093,-20.5318)">
            <path d="M175.939,77.93C175.939,61.787 154.58,48.681 128.272,48.681C101.964,48.681 80.605,61.787 80.605,77.93L80.605,129.262C80.605,145.406 101.964,158.512 128.272,158.512C154.58,158.512 175.939,145.406 175.939,129.262L175.939,77.93Z" style="fill:none;stroke:white;stroke-width:14.44px;"/>
        </g>
        <g transform="matrix(0.724767,0,0,0.724767,35.2298,37.2155)">
            <path d="M223.323,133.762C223.323,113.804 207.12,97.601 187.162,97.601L68.838,97.601C48.88,97.601 32.677,113.804 32.677,133.762L32.677,206.084C32.677,226.041 48.88,242.245 68.838,242.245L187.162,242.245C207.12,242.245 223.323,226.041 223.323,206.084L223.323,133.762ZM135.501,178.831C144.334,175.732 150.674,167.315 150.674,157.429C150.674,144.914 140.514,134.754 128,134.754C115.486,134.754 105.326,144.914 105.326,157.429C105.326,167.315 111.666,175.732 120.499,178.831L120.499,197.591C120.499,201.731 123.86,205.092 128,205.092C132.14,205.092 135.501,201.731 135.501,197.591L135.501,178.831Z" style="fill:white;"/>
        </g>
    </g>
</svg>
