<?xml version="1.0" encoding="UTF-8" standalone="no"?>
<!DOCTYPE svg PUBLIC "-//W3C//DTD SVG 1.1//EN" "http://www.w3.org/Graphics/SVG/1.1/DTD/svg11.dtd">
<svg width="100%" height="100%" viewBox="0 0 256 256" version="1.1" xmlns="http://www.w3.org/2000/svg" xmlns:xlink="http://www.w3.org/1999/xlink" xml:space="preserve" xmlns:serif="http://www.serif.com/" style="fill-rule:evenodd;clip-rule:evenodd;stroke-linejoin:round;stroke-miterlimit:2;">
    <g id="Menu" transform="matrix(1.73302,0,0,1.73302,-60.7993,-76.0303)">
        <g transform="matrix(0.881624,0,0,0.881624,5.168,-28.4457)">
            <g transform="matrix(0.622384,0,0,0.622384,27.4502,45.5174)">
                <circle cx="72.693" cy="120.539" r="24.101" style="fill:white;"/>
            </g>
            <g transform="matrix(0.622384,0,0,0.622384,72.4649,45.5174)">
                <circle cx="72.693" cy="120.539" r="24.101" style="fill:white;"/>
            </g>
            <g transform="matrix(0.622384,0,0,0.622384,117.48,45.5174)">
                <circle cx="72.693" cy="120.539" r="24.101" style="fill:white;"/>
            </g>
        </g>
        <g transform="matrix(0.881624,0,0,0.881624,5.168,11.4611)">
            <g transform="matrix(0.622384,0,0,0.622384,27.4502,45.5174)">
                <circle cx="72.693" cy="120.539" r="24.101" style="fill:white;"/>
            </g>
            <g transform="matrix(0.622384,0,0,0.622384,72.4649,45.5174)">
                <circle cx="72.693" cy="120.539" r="24.101" style="fill:white;"/>
            </g>
            <g transform="matrix(0.622384,0,0,0.622384,117.48,45.5174)">
                <circle cx="72.693" cy="120.539" r="24.101" style="fill:white;"/>
            </g>
        </g>
        <g transform="matrix(0.881624,0,0,0.881624,5.168,51.3678)">
            <g transform="matrix(0.622384,0,0,0.622384,27.4502,45.5174)">
                <circle cx="72.693" cy="120.539" r="24.101" style="fill:white;"/>
            </g>
            <g transform="matrix(0.622384,0,0,0.622384,72.4649,45.5174)">
                <circle cx="72.693" cy="120.539" r="24.101" style="fill:white;"/>
            </g>
            <g transform="matrix(0.622384,0,0,0.622384,117.48,45.5174)">
                <circle cx="72.693" cy="120.539" r="24.101" style="fill:white;"/>
            </g>
        </g>
    </g>
</svg>
