<?xml version="1.0" encoding="UTF-8" standalone="no"?>
<!DOCTYPE svg PUBLIC "-//W3C//DTD SVG 1.1//EN" "http://www.w3.org/Graphics/SVG/1.1/DTD/svg11.dtd">
<svg width="100%" height="100%" viewBox="0 0 256 256" version="1.1" xmlns="http://www.w3.org/2000/svg" xmlns:xlink="http://www.w3.org/1999/xlink" xml:space="preserve" xmlns:serif="http://www.serif.com/" style="fill-rule:evenodd;clip-rule:evenodd;stroke-linejoin:round;stroke-miterlimit:2;">
    <g id="Moon" transform="matrix(0.993565,0,0,0.993565,-22165,-1314.83)">
        <path d="M22351.2,1371.56C22372.8,1348.67 22403.5,1334.37 22437.4,1334.37C22439.1,1334.37 22440.8,1334.41 22442.5,1334.48C22446.1,1345.14 22456.2,1352.83 22468.1,1352.83C22475.4,1352.83 22482,1349.92 22486.9,1345.19C22509.9,1355.83 22529,1373.66 22541.2,1395.81C22532.9,1400.41 22527.3,1409.26 22527.3,1419.43C22527.3,1434.31 22539.4,1446.4 22554.2,1446.4C22554.7,1446.4 22555.2,1446.38 22555.7,1446.36C22555.8,1448.5 22555.9,1450.67 22555.9,1452.85C22555.9,1509.86 22515.5,1557.52 22461.8,1568.79C22456.9,1562.87 22449.4,1559.1 22441.1,1559.1C22432.3,1559.1 22424.4,1563.38 22419.5,1569.97C22362.6,1561.34 22318.9,1512.15 22318.9,1452.85C22318.9,1439.66 22321.1,1426.97 22325.1,1415.12C22326.8,1415.46 22328.6,1415.64 22330.4,1415.64C22345.3,1415.64 22357.4,1403.56 22357.4,1388.67C22357.4,1382.18 22355.1,1376.21 22351.2,1371.56ZM22451.4,1492.56C22459.4,1495.42 22463.5,1504.22 22460.6,1512.2C22457.8,1520.17 22449,1524.33 22441,1521.46C22433,1518.6 22428.9,1509.8 22431.7,1501.83C22434.6,1493.85 22443.4,1489.7 22451.4,1492.56ZM22391.1,1438.48C22403,1442.76 22409.2,1455.91 22404.9,1467.83C22400.6,1479.75 22387.5,1485.95 22375.6,1481.67C22363.7,1477.4 22357.5,1464.25 22361.7,1452.33C22366,1440.41 22379.2,1434.21 22391.1,1438.48ZM22483.1,1397.28C22501.2,1403.78 22510.6,1423.75 22504.1,1441.84C22497.6,1459.94 22477.6,1469.36 22459.5,1462.87C22441.4,1456.37 22432,1436.41 22438.5,1418.31C22445,1400.21 22465,1390.79 22483.1,1397.28Z" style="fill:white;"/>
    </g>
</svg>
