<?xml version="1.0" encoding="UTF-8" standalone="no"?>
<!DOCTYPE svg PUBLIC "-//W3C//DTD SVG 1.1//EN" "http://www.w3.org/Graphics/SVG/1.1/DTD/svg11.dtd">
<svg width="100%" height="100%" viewBox="0 0 256 256" version="1.1" xmlns="http://www.w3.org/2000/svg" xmlns:xlink="http://www.w3.org/1999/xlink" xml:space="preserve" xmlns:serif="http://www.serif.com/" style="fill-rule:evenodd;clip-rule:evenodd;stroke-linejoin:round;stroke-miterlimit:2;">
    <g id="Pants" transform="matrix(5.2942,0,0,5.2942,-13434.4,-4189.63)">
        <g transform="matrix(0.8441,0,0,1,448.854,-46.622)">
            <path d="M2523.7,844.055C2523.7,842.398 2522.11,841.052 2520.14,841.052L2486.13,841.052C2484.16,841.052 2482.57,842.398 2482.57,844.055L2482.57,847.057L2523.7,847.057L2523.7,844.055Z" style="fill:white;"/>
        </g>
        <g transform="matrix(1,0,0,1,33.0153,-46.622)">
            <g transform="matrix(1,0,0,1,27.3055,0)">
                <path d="M2499.73,852.676C2499.73,850.516 2497.97,848.762 2495.81,848.762L2487.99,848.762C2485.83,848.762 2484.07,850.516 2484.07,852.676L2484.07,879.36C2484.07,881.52 2485.83,883.274 2487.99,883.274L2495.81,883.274C2497.97,883.274 2499.73,881.52 2499.73,879.36L2499.73,852.676Z" style="fill:white;"/>
            </g>
            <g transform="matrix(1,0,0,1,46.3698,0)">
                <path d="M2499.73,852.676C2499.73,850.516 2497.97,848.762 2495.81,848.762L2487.99,848.762C2485.83,848.762 2484.07,850.516 2484.07,852.676L2484.07,879.36C2484.07,881.52 2485.83,883.274 2487.99,883.274L2495.81,883.274C2497.97,883.274 2499.73,881.52 2499.73,879.36L2499.73,852.676Z" style="fill:white;"/>
            </g>
        </g>
        <g transform="matrix(1,0,0,1,27.3055,0)">
            <path d="M2551.81,802.14L2517.09,802.14L2517.09,816.628L2551.81,816.628L2551.81,802.14ZM2534.45,805.762C2535.45,805.762 2536.26,806.574 2536.26,807.573C2536.26,808.573 2535.45,809.384 2534.45,809.384C2533.45,809.384 2532.64,808.573 2532.64,807.573C2532.64,806.574 2533.45,805.762 2534.45,805.762Z" style="fill:white;"/>
        </g>
    </g>
</svg>
