<?xml version="1.0" encoding="UTF-8" standalone="no"?>
<!DOCTYPE svg PUBLIC "-//W3C//DTD SVG 1.1//EN" "http://www.w3.org/Graphics/SVG/1.1/DTD/svg11.dtd">
<svg width="100%" height="100%" viewBox="0 0 256 256" version="1.1" xmlns="http://www.w3.org/2000/svg" xmlns:xlink="http://www.w3.org/1999/xlink" xml:space="preserve" xmlns:serif="http://www.serif.com/" style="fill-rule:evenodd;clip-rule:evenodd;stroke-linejoin:round;stroke-miterlimit:2;">
    <g id="Photo-Camera" serif:id="Photo Camera" transform="matrix(1.29188,0,0,1.29188,-35.0998,-39.4113)">
        <g transform="matrix(1.09051,0,0,0.979811,-13.5328,10.9278)">
            <path d="M181.97,69.476L77.603,69.476C77.603,69.476 89.93,53.721 97.638,43.87C101.486,38.952 107.058,36.129 112.918,36.129L146.655,36.129C152.515,36.129 158.087,38.952 161.935,43.87C169.643,53.721 181.97,69.476 181.97,69.476Z" style="fill:white;"/>
        </g>
        <g transform="matrix(0.774065,0,0,0.774065,27.1695,30.5069)">
            <path d="M128,89.808C156.869,89.808 180.308,113.247 180.308,142.116C180.308,170.985 156.869,194.424 128,194.424C99.131,194.424 75.692,170.985 75.692,142.116C75.692,113.247 99.131,89.808 128,89.808ZM105.432,112.663C111.124,112.663 115.745,117.284 115.745,122.976C115.745,128.669 111.124,133.29 105.432,133.29C99.74,133.29 95.118,128.669 95.118,122.976C95.118,117.284 99.74,112.663 105.432,112.663Z" style="fill:white;"/>
        </g>
        <g transform="matrix(0.774065,0,0,0.774065,27.1695,30.5069)">
            <path d="M251.053,95.393C251.053,69.606 230.117,48.67 204.33,48.67L51.67,48.67C25.883,48.67 4.947,69.606 4.947,95.393L4.947,188.839C4.947,214.626 25.883,235.562 51.67,235.562L204.33,235.562C230.117,235.562 251.053,214.626 251.053,188.839L251.053,95.393ZM128,69.467C168.096,69.467 200.649,102.02 200.649,142.116C200.649,182.212 168.096,214.765 128,214.765C87.904,214.765 55.351,182.212 55.351,142.116C55.351,102.02 87.904,69.467 128,69.467ZM42.521,73.373C47.618,73.373 51.757,77.511 51.757,82.609C51.757,87.706 47.618,91.844 42.521,91.844C37.423,91.844 33.285,87.706 33.285,82.609C33.285,77.511 37.423,73.373 42.521,73.373Z" style="fill:white;"/>
        </g>
    </g>
</svg>
