<?xml version="1.0" encoding="UTF-8" standalone="no"?>
<!DOCTYPE svg PUBLIC "-//W3C//DTD SVG 1.1//EN" "http://www.w3.org/Graphics/SVG/1.1/DTD/svg11.dtd">
<svg width="100%" height="100%" viewBox="0 0 256 256" version="1.1" xmlns="http://www.w3.org/2000/svg" xmlns:xlink="http://www.w3.org/1999/xlink" xml:space="preserve" xmlns:serif="http://www.serif.com/" style="fill-rule:evenodd;clip-rule:evenodd;stroke-linejoin:round;stroke-miterlimit:2;">
    <g id="Pinned-Sticker" serif:id="Pinned Sticker" transform="matrix(1.69338,0,0,1.69338,-11391.7,-2121.99)">
        <path d="M6846.76,1285.18C6846.76,1281.05 6844.64,1277.21 6841.14,1275.02C6832.95,1269.88 6817.79,1260.35 6809.19,1254.95C6805.28,1252.49 6800.32,1252.49 6796.42,1254.95C6787.82,1260.35 6772.65,1269.88 6764.47,1275.02C6760.97,1277.21 6758.85,1281.05 6758.85,1285.18C6758.85,1305.37 6758.85,1366.26 6758.85,1392.28C6758.85,1395.47 6760.11,1398.52 6762.36,1400.77C6764.61,1403.02 6767.67,1404.28 6770.85,1404.28C6787.64,1404.28 6817.97,1404.28 6834.76,1404.28C6837.94,1404.28 6840.99,1403.02 6843.24,1400.77C6845.49,1398.52 6846.76,1395.47 6846.76,1392.28C6846.76,1366.26 6846.76,1305.37 6846.76,1285.18ZM6802.8,1273.81C6805.42,1273.81 6807.54,1275.93 6807.54,1278.55C6807.54,1281.16 6805.42,1283.29 6802.8,1283.29C6800.19,1283.29 6798.07,1281.16 6798.07,1278.55C6798.07,1275.93 6800.19,1273.81 6802.8,1273.81Z" style="fill:white;"/>
    </g>
</svg>
