<?xml version="1.0" encoding="UTF-8" standalone="no"?>
<!DOCTYPE svg PUBLIC "-//W3C//DTD SVG 1.1//EN" "http://www.w3.org/Graphics/SVG/1.1/DTD/svg11.dtd">
<svg width="100%" height="100%" viewBox="0 0 256 256" version="1.1" xmlns="http://www.w3.org/2000/svg" xmlns:xlink="http://www.w3.org/1999/xlink" xml:space="preserve" xmlns:serif="http://www.serif.com/" style="fill-rule:evenodd;clip-rule:evenodd;stroke-linejoin:round;stroke-miterlimit:2;">
    <g id="Plus">
        <g transform="matrix(0.976034,0,0,1,3.43757,-5.61599)">
            <path d="M146.896,51.204C146.896,40.821 138.259,32.391 127.621,32.391C116.983,32.391 108.346,40.821 108.346,51.204L108.346,216.028C108.346,226.411 116.983,234.841 127.621,234.841C138.259,234.841 146.896,226.411 146.896,216.028L146.896,51.204Z" style="fill:white;"/>
        </g>
        <g transform="matrix(5.97649e-17,0.976034,-1,6.12323e-17,261.616,3.43757)">
            <path d="M146.896,51.204C146.896,40.821 138.259,32.391 127.621,32.391C116.983,32.391 108.346,40.821 108.346,51.204L108.346,216.028C108.346,226.411 116.983,234.841 127.621,234.841C138.259,234.841 146.896,226.411 146.896,216.028L146.896,51.204Z" style="fill:white;"/>
        </g>
    </g>
</svg>
