<?xml version="1.0" encoding="UTF-8" standalone="no"?>
<!DOCTYPE svg PUBLIC "-//W3C//DTD SVG 1.1//EN" "http://www.w3.org/Graphics/SVG/1.1/DTD/svg11.dtd">
<svg width="100%" height="100%" viewBox="0 0 256 256" version="1.1" xmlns="http://www.w3.org/2000/svg" xmlns:xlink="http://www.w3.org/1999/xlink" xml:space="preserve" xmlns:serif="http://www.serif.com/" style="fill-rule:evenodd;clip-rule:evenodd;stroke-linejoin:round;stroke-miterlimit:2;">
    <g id="Ranking-Numbers" serif:id="Ranking Numbers">
        <g id="Composite-Path" serif:id="Composite Path" transform="matrix(0.265166,0,0,0.265166,-0.130839,71.4611)">
            <path d="M201.709,238.536C204.504,245.151 206.103,252.153 206.103,259.543C206.103,264.989 204.902,270.046 203.309,274.714C201.31,279.38 198.912,284.049 195.717,287.94C192.521,291.828 188.926,295.718 184.929,299.218C180.937,302.719 176.54,305.83 172.552,308.554L204.103,308.554L201.709,349.008L108.231,345.897L108.231,310.5C111.432,309.333 115.427,307.777 119.42,306.221C123.415,304.664 127.01,303.109 131.007,300.774C134.595,298.442 138.195,296.108 141.392,293.384C144.589,291.05 147.783,287.94 150.171,284.826C152.577,281.714 154.97,278.212 156.571,274.323C158.169,270.822 158.963,266.932 158.963,262.265C158.963,259.931 158.169,257.986 157.37,256.043C156.571,254.096 155.375,252.542 153.769,251.375C152.179,250.206 150.171,249.43 148.181,248.651C145.78,247.875 143.786,247.484 141.392,247.484C139.389,247.484 137.396,247.875 135.394,248.261C133.004,248.651 131.007,249.04 129.006,249.819C127.01,250.597 125.011,251.762 123.415,252.93C121.818,254.096 120.22,255.264 119.019,256.432L110.232,218.312C112.627,215.976 115.427,214.033 118.621,212.476C121.818,210.918 125.011,209.754 128.606,208.587C131.802,207.808 135.394,207.031 139.389,206.252C142.987,205.863 146.585,205.475 150.171,205.475C158.169,205.475 165.355,207.031 172.146,209.754C178.941,212.864 184.929,216.755 189.727,221.423C194.519,226.09 198.515,231.924 201.709,238.536ZM103.253,157.063C67.25,157.063 38.06,185.481 38.06,220.546L12.5,417.209C12.5,452.276 41.687,480.695 77.686,480.695L219.202,480.695C255.208,480.695 284.395,452.276 284.395,417.209L293.717,220.546C293.717,185.481 264.527,157.063 228.522,157.063L103.253,157.063Z" style="fill:white;"/>
        </g>
        <g id="Composite-Path1" serif:id="Composite Path" transform="matrix(0.265166,0,0,0.265166,-0.130839,71.4611)">
            <path d="M456.828,64.368L502.366,66.313L496.372,204.79L452.839,202.845L455.229,110.657L439.255,121.548L424.474,88.095L456.828,64.368ZM410.036,13.5C374.033,13.5 344.845,41.922 344.845,76.979L326.205,423.016C326.205,458.077 355.39,486.5 391.393,486.5L563.261,486.5C599.26,486.5 628.452,458.077 628.452,423.016L600.492,76.979C600.492,41.922 571.308,13.5 535.303,13.5L410.036,13.5Z" style="fill:white;"/>
        </g>
        <g id="Composite-Path2" serif:id="Composite Path" transform="matrix(0.265166,0,0,0.265166,-0.130839,71.4611)">
            <path d="M843.764,362.119C844.163,364.841 844.565,367.564 844.565,370.286C844.565,378.846 842.965,386.627 840.166,392.848C836.973,399.071 832.974,404.52 828.184,408.407C822.988,412.688 817.002,415.798 810.211,417.74C803.021,419.688 795.424,420.854 787.041,420.854C783.048,420.854 779.451,420.466 775.456,419.688C771.462,418.909 767.471,418.134 763.475,416.963C759.475,415.798 755.487,414.24 751.886,412.688C748.294,411.129 745.097,409.187 741.905,406.851L745.498,367.949C747.897,369.509 750.693,371.065 753.885,372.621C757.081,374.175 760.277,375.735 763.475,376.901C766.672,378.068 770.266,378.846 773.859,379.623C777.06,380.4 780.654,380.787 783.85,380.787C785.446,380.787 787.442,380.787 789.435,380.4C791.437,380.4 793.433,379.623 795.035,378.846C796.625,378.068 797.826,377.287 799.027,375.735C799.822,374.175 800.617,372.233 800.617,369.898C800.617,368.342 799.822,367.177 798.622,366.008C797.027,364.841 795.424,363.674 793.834,362.895L787.838,360.562C785.844,360.172 784.244,359.785 783.048,359.785C781.847,359.785 780.654,360.172 779.451,360.172C777.856,360.172 776.654,360.562 775.456,360.562C773.859,360.951 772.661,361.342 771.462,361.342C770.266,361.729 769.467,362.119 769.066,362.508L769.467,334.89C770.266,334.89 771.462,335.279 772.661,335.279L775.855,335.279C778.254,335.279 780.654,335.279 783.445,334.89C785.844,334.499 788.637,333.722 791.035,332.554C793.433,331.39 795.424,329.834 797.027,327.889C798.622,326.332 799.425,323.608 799.425,320.497C799.425,318.551 798.622,316.996 797.431,315.44C796.229,314.272 794.631,313.107 793.035,312.328C791.035,311.552 789.04,311.161 787.041,310.775C785.041,310.775 783.445,310.384 781.847,310.384C776.259,310.384 770.662,311.552 765.47,313.107C760.277,315.054 755.884,317.775 751.886,321.275L743.502,285.876C749.496,281.21 756.279,277.32 764.27,274.597C772.261,272.262 780.25,270.707 788.241,270.707C795.424,270.707 802.219,271.875 809.01,273.818C815.407,276.153 821.395,279.264 826.586,283.156C831.383,287.045 835.379,292.102 838.569,297.937C841.372,303.772 842.965,310.384 842.965,317.775C842.965,320.109 842.565,322.439 841.77,324.775C840.967,327.11 840.166,329.055 839.368,331.39C838.17,333.722 836.973,335.667 835.379,337.222C833.778,339.169 832.176,340.721 830.578,341.891C832.974,343.449 835.379,345.001 837.374,346.949C838.969,349.282 840.569,351.617 841.77,353.952C842.565,356.673 843.364,359.395 843.764,362.119ZM721.475,231.746C685.47,231.746 656.28,260.167 656.28,295.228L670.264,417.209C670.264,452.276 699.449,480.695 735.455,480.695L872.309,480.695C908.31,480.695 937.5,452.276 937.5,417.209L911.942,295.228C911.942,260.167 882.747,231.746 846.746,231.746L721.475,231.746Z" style="fill:white;"/>
        </g>
    </g>
</svg>
