<?xml version="1.0" encoding="UTF-8" standalone="no"?>
<!DOCTYPE svg PUBLIC "-//W3C//DTD SVG 1.1//EN" "http://www.w3.org/Graphics/SVG/1.1/DTD/svg11.dtd">
<svg width="100%" height="100%" viewBox="0 0 256 256" version="1.1" xmlns="http://www.w3.org/2000/svg" xmlns:xlink="http://www.w3.org/1999/xlink" xml:space="preserve" xmlns:serif="http://www.serif.com/" style="fill-rule:evenodd;clip-rule:evenodd;stroke-linecap:round;stroke-linejoin:round;stroke-miterlimit:1.5;">
    <g id="Redo" transform="matrix(1,0,0,1,-4.53014,0)">
        <g id="Redo1" serif:id="Redo" transform="matrix(11.044,0,0,11.044,-9269.42,-38482.9)">
            <path d="M861,3493.62C861,3494.38 860.38,3495 859.616,3495L855.312,3495C854.752,3495 854.247,3494.66 854.033,3494.14C853.819,3493.63 853.939,3493.03 854.336,3492.64C855.664,3491.31 857.314,3489.67 858.639,3488.35C859.036,3487.96 859.63,3487.84 860.147,3488.05C860.663,3488.27 861,3488.77 861,3489.33L861,3493.62Z" style="fill:white;"/>
        </g>
        <g transform="matrix(1.02139,0,0,1.02139,-8.65436,2.97366)">
            <path d="M206.559,164.307C192.044,189.443 164.88,206.374 133.793,206.374C87.451,206.374 49.828,168.75 49.828,122.409C49.828,76.067 87.451,38.443 133.793,38.443C161.564,38.443 186.204,51.954 201.492,72.756" style="fill:none;stroke:white;stroke-width:29.37px;"/>
        </g>
    </g>
</svg>
