<?xml version="1.0" encoding="UTF-8" standalone="no"?>
<!DOCTYPE svg PUBLIC "-//W3C//DTD SVG 1.1//EN" "http://www.w3.org/Graphics/SVG/1.1/DTD/svg11.dtd">
<svg width="100%" height="100%" viewBox="0 0 256 256" version="1.1" xmlns="http://www.w3.org/2000/svg" xmlns:xlink="http://www.w3.org/1999/xlink" xml:space="preserve" xmlns:serif="http://www.serif.com/" style="fill-rule:evenodd;clip-rule:evenodd;stroke-linejoin:round;stroke-miterlimit:2;">
    <g id="Scissors-" serif:id="Scissors " transform="matrix(1.90072,0,0,1.90072,-111.181,-119.881)">
        <g transform="matrix(0.801142,0.598475,-0.598475,0.801142,-11226.4,-10598.3)">
            <path d="M15517.5,1824.78C15530.9,1824.78 15541.8,1835.71 15541.8,1849.17C15541.8,1862.64 15530.9,1873.57 15517.5,1873.57C15504,1873.57 15493.1,1862.64 15493.1,1849.17C15493.1,1835.71 15504,1824.78 15517.5,1824.78ZM15517.5,1836.59C15524.4,1836.59 15530,1842.23 15530,1849.17C15530,1856.12 15524.4,1861.76 15517.5,1861.76C15510.5,1861.76 15504.9,1856.12 15504.9,1849.17C15504.9,1842.23 15510.5,1836.59 15517.5,1836.59Z" style="fill:white;"/>
        </g>
        <g transform="matrix(-0.801142,0.598475,0.598475,0.801142,11478.1,-10598.3)">
            <path d="M15517.5,1824.78C15530.9,1824.78 15541.8,1835.71 15541.8,1849.17C15541.8,1862.64 15530.9,1873.57 15517.5,1873.57C15504,1873.57 15493.1,1862.64 15493.1,1849.17C15493.1,1835.71 15504,1824.78 15517.5,1824.78ZM15517.5,1836.59C15524.4,1836.59 15530,1842.23 15530,1849.17C15530,1856.12 15524.4,1861.76 15517.5,1861.76C15510.5,1861.76 15504.9,1856.12 15504.9,1849.17C15504.9,1842.23 15510.5,1836.59 15517.5,1836.59Z" style="fill:white;"/>
        </g>
        <g transform="matrix(1,0,-1.11022e-16,1,-15420.3,-1683.32)">
            <path d="M15532,1821.15L15542.8,1835.64L15536.4,1844.28C15534.9,1846.2 15532.2,1846.59 15530.3,1845.16L15523.4,1839.97C15521.4,1838.54 15521,1835.82 15522.5,1833.9L15532,1821.15ZM15549.4,1797.9L15585.3,1749.83C15593,1755.55 15594.5,1766.43 15588.8,1774.1L15560.2,1812.39L15549.4,1797.9Z" style="fill:white;"/>
        </g>
        <g transform="matrix(1,0,-1.11022e-16,1,-15420.3,-1683.32)">
            <path d="M15503.4,1774.1C15497.7,1766.43 15499.2,1755.55 15506.9,1749.83L15569.7,1833.9C15571.1,1835.82 15570.8,1838.54 15568.8,1839.97L15561.9,1845.16C15560,1846.59 15557.3,1846.2 15555.8,1844.28L15503.4,1774.1ZM15546.1,1812.39C15548.1,1812.39 15549.7,1814.02 15549.7,1816.02C15549.7,1818.02 15548.1,1819.64 15546.1,1819.64C15544.1,1819.64 15542.5,1818.02 15542.5,1816.02C15542.5,1814.02 15544.1,1812.39 15546.1,1812.39Z" style="fill:white;"/>
        </g>
    </g>
</svg>
