<?xml version="1.0" encoding="UTF-8" standalone="no"?>
<!DOCTYPE svg PUBLIC "-//W3C//DTD SVG 1.1//EN" "http://www.w3.org/Graphics/SVG/1.1/DTD/svg11.dtd">
<svg width="100%" height="100%" viewBox="0 0 256 256" version="1.1" xmlns="http://www.w3.org/2000/svg" xmlns:xlink="http://www.w3.org/1999/xlink" xml:space="preserve" xmlns:serif="http://www.serif.com/" style="fill-rule:evenodd;clip-rule:evenodd;stroke-linejoin:round;stroke-miterlimit:2;">
    <g id="Settings" transform="matrix(0.909016,0,0,0.909016,-17.821,-22.1363)">
        <path d="M179.843,39.868C179.619,37.001 177.394,34.695 174.537,34.368C165.15,33.364 155.683,33.364 146.297,34.377C143.444,34.703 141.222,37.005 140.998,39.868C140.238,49.465 138.637,69.918 138.637,69.918C127.951,72.362 117.752,76.586 108.468,82.414C108.468,82.414 92.874,69.084 85.556,62.829C83.37,60.96 80.166,60.903 77.915,62.693C70.567,68.62 63.873,75.314 57.952,82.667C56.165,84.915 56.222,88.115 58.088,90.298C64.337,97.621 77.667,113.215 77.667,113.215C71.839,122.499 67.614,132.698 65.171,143.384C65.171,143.384 44.718,144.985 35.12,145.736C32.253,145.961 29.947,148.186 29.621,151.043C28.617,160.43 28.617,169.897 29.63,179.283C29.956,182.136 32.258,184.358 35.121,184.582C44.718,185.342 65.171,186.943 65.171,186.943C67.614,197.629 71.839,207.828 77.667,217.112C77.667,217.112 64.337,232.706 58.082,240.024C56.213,242.21 56.156,245.414 57.945,247.665C63.873,255.013 70.567,261.707 77.92,267.627C80.168,269.415 83.367,269.358 85.55,267.492C92.874,261.243 108.468,247.913 108.468,247.913C117.752,253.741 127.951,257.965 138.637,260.409C138.637,260.409 140.238,280.862 140.989,290.459C141.213,293.326 143.439,295.632 146.296,295.959C155.683,296.963 165.15,296.963 174.536,295.95C177.389,295.624 179.611,293.322 179.835,290.459C180.595,280.862 182.196,260.409 182.196,260.409C192.882,257.965 203.081,253.741 212.365,247.913C212.365,247.913 227.959,261.243 235.277,267.498C237.463,269.367 240.667,269.424 242.918,267.634C250.265,261.707 256.96,255.013 262.88,247.66C264.667,245.412 264.61,242.212 262.744,240.029C256.496,232.706 243.165,217.112 243.165,217.112C248.994,207.828 253.218,197.629 255.662,186.943C255.662,186.943 276.114,185.342 285.712,184.591C288.579,184.366 290.885,182.141 291.211,179.284C292.216,169.897 292.216,160.43 291.203,151.044C290.877,148.191 288.574,145.969 285.711,145.745C276.114,144.985 255.662,143.384 255.662,143.384C253.218,132.698 248.994,122.499 243.165,113.215C243.165,113.215 256.496,97.621 262.751,90.303C264.62,88.117 264.677,84.913 262.887,82.662C256.96,75.314 250.265,68.62 242.912,62.7C240.664,60.912 237.465,60.969 235.282,62.835C227.959,69.084 212.365,82.414 212.365,82.414C203.081,76.586 192.882,72.362 182.196,69.918C182.196,69.918 180.595,49.465 179.843,39.868ZM160.416,112.704C189.369,112.704 212.875,136.211 212.875,165.164C212.875,194.117 189.369,217.623 160.416,217.623C131.463,217.623 107.957,194.117 107.957,165.164C107.957,136.211 131.463,112.704 160.416,112.704Z" style="fill:white;"/>
    </g>
</svg>
