<?xml version="1.0" encoding="UTF-8" standalone="no"?>
<!DOCTYPE svg PUBLIC "-//W3C//DTD SVG 1.1//EN" "http://www.w3.org/Graphics/SVG/1.1/DTD/svg11.dtd">
<svg width="100%" height="100%" viewBox="0 0 256 256" version="1.1" xmlns="http://www.w3.org/2000/svg" xmlns:xlink="http://www.w3.org/1999/xlink" xml:space="preserve" xmlns:serif="http://www.serif.com/" style="fill-rule:evenodd;clip-rule:evenodd;stroke-linejoin:round;stroke-miterlimit:2;">
    <g id="Shirt" transform="matrix(4.48404,0,0,4.48404,-11653.2,-3984.35)">
        <path d="M2634.41,897.179C2634.52,897.088 2634.66,897.034 2634.81,897.034C2634.81,897.026 2634.81,897.026 2634.81,897.026C2639.49,897.026 2644.09,898.258 2648.14,900.599C2650.43,901.92 2652.88,903.33 2654.56,904.303C2655.73,904.979 2656.13,906.478 2655.46,907.651C2654.46,909.381 2653.07,911.784 2652.18,913.334C2651.64,914.253 2650.58,914.727 2649.55,914.506C2646.85,913.934 2641.96,912.897 2641.96,912.897L2641.96,934.743C2641.96,935.393 2641.7,936.016 2641.24,936.476C2640.78,936.936 2640.16,937.194 2639.51,937.194C2634,937.194 2620.72,937.194 2615.22,937.194C2613.86,937.194 2612.76,936.096 2612.76,934.743C2612.76,928.575 2612.76,912.897 2612.76,912.897C2612.76,912.897 2607.88,913.934 2605.18,914.506C2604.14,914.727 2603.08,914.253 2602.54,913.334C2601.65,911.784 2600.26,909.381 2599.26,907.651C2598.59,906.478 2598.99,904.979 2600.16,904.303C2601.84,903.33 2604.29,901.919 2606.58,900.598C2610.63,898.258 2615.23,897.026 2619.91,897.026C2619.91,897.026 2619.91,897.026 2619.91,897.026C2620.06,897.026 2620.2,897.08 2620.32,897.17C2620.3,897.383 2620.29,897.597 2620.29,897.814C2620.29,901.719 2623.46,904.888 2627.36,904.888C2631.26,904.888 2634.43,901.719 2634.43,897.814C2634.43,897.6 2634.42,897.388 2634.41,897.179ZM2627.36,917.938C2628.17,917.938 2628.83,918.596 2628.83,919.406C2628.83,920.217 2628.17,920.875 2627.36,920.875C2626.55,920.875 2625.89,920.217 2625.89,919.406C2625.89,918.596 2626.55,917.938 2627.36,917.938ZM2627.36,912.897C2628.17,912.897 2628.83,913.555 2628.83,914.366C2628.83,915.176 2628.17,915.834 2627.36,915.834C2626.55,915.834 2625.89,915.176 2625.89,914.366C2625.89,913.555 2626.55,912.897 2627.36,912.897ZM2627.36,907.856C2628.17,907.856 2628.83,908.514 2628.83,909.325C2628.83,910.135 2628.17,910.793 2627.36,910.793C2626.55,910.793 2625.89,910.135 2625.89,909.325C2625.89,908.514 2626.55,907.856 2627.36,907.856Z" style="fill:white;"/>
    </g>
</svg>
