<?xml version="1.0" encoding="UTF-8" standalone="no"?>
<!DOCTYPE svg PUBLIC "-//W3C//DTD SVG 1.1//EN" "http://www.w3.org/Graphics/SVG/1.1/DTD/svg11.dtd">
<svg width="100%" height="100%" viewBox="0 0 256 256" version="1.1" xmlns="http://www.w3.org/2000/svg" xmlns:xlink="http://www.w3.org/1999/xlink" xml:space="preserve" xmlns:serif="http://www.serif.com/" style="fill-rule:evenodd;clip-rule:evenodd;stroke-linejoin:round;stroke-miterlimit:2;">
    <g id="Shopping-Bag" serif:id="Shopping Bag" transform="matrix(1,0,0,1,-1.98952e-13,5.8786)">
        <g transform="matrix(0.872896,0,0,0.872896,3.79987,21.8638)">
            <path d="M204.673,74.042L204.673,57.778C204.673,23.345 176.718,-4.609 142.285,-4.609C107.853,-4.609 79.898,23.345 79.898,57.778L79.898,74.042L94.898,74.042L94.898,57.778C94.898,31.624 116.131,10.391 142.285,10.391C168.439,10.391 189.673,31.624 189.673,57.778L189.673,74.042L204.673,74.042Z" style="fill:white;"/>
        </g>
        <path d="M182.458,86.809L199.298,86.809L201.298,197.923C201.298,213.641 188.537,226.403 172.818,226.403L83.182,226.403C67.463,226.403 54.702,213.641 54.702,197.923L56.702,86.809L73.542,86.809L73.542,116.161C73.542,119.774 76.476,122.707 80.089,122.707C83.702,122.707 86.636,119.774 86.636,116.161L86.636,86.809L169.364,86.809L169.364,116.161C169.364,119.774 172.298,122.707 175.911,122.707C179.524,122.707 182.458,119.774 182.458,116.161L182.458,86.809Z" style="fill:white;"/>
    </g>
</svg>
