<?xml version="1.0" encoding="UTF-8" standalone="no"?>
<!DOCTYPE svg PUBLIC "-//W3C//DTD SVG 1.1//EN" "http://www.w3.org/Graphics/SVG/1.1/DTD/svg11.dtd">
<svg width="100%" height="100%" viewBox="0 0 256 256" version="1.1" xmlns="http://www.w3.org/2000/svg" xmlns:xlink="http://www.w3.org/1999/xlink" xml:space="preserve" xmlns:serif="http://www.serif.com/" style="fill-rule:evenodd;clip-rule:evenodd;stroke-linejoin:round;stroke-miterlimit:2;">
    <g id="Skull" transform="matrix(3.30838,0,0,3.30838,1471.94,374.744)">
        <g transform="matrix(1,0,0,1,180.508,-90.2442)">
            <g transform="matrix(1,0,0,0.948906,-975.25,-712.556)">
                <path d="M383.768,788.08C383.768,785.195 381.546,782.854 378.809,782.854C376.072,782.854 373.85,785.195 373.85,788.08L373.85,800.339C373.85,803.223 376.072,805.565 378.809,805.565C381.546,805.565 383.768,803.223 383.768,800.339L383.768,788.08Z" style="fill:white;"/>
            </g>
            <g transform="matrix(1,0,0,0.948906,-965.539,-712.556)">
                <path d="M383.768,788.08C383.768,785.195 381.546,782.854 378.809,782.854C376.072,782.854 373.85,785.195 373.85,788.08L373.85,800.339C373.85,803.223 376.072,805.565 378.809,805.565C381.546,805.565 383.768,803.223 383.768,800.339L383.768,788.08Z" style="fill:white;"/>
            </g>
            <g transform="matrix(1,0,0,0.948906,-955.828,-712.556)">
                <path d="M383.768,788.08C383.768,785.195 381.546,782.854 378.809,782.854C376.072,782.854 373.85,785.195 373.85,788.08L373.85,800.339C373.85,803.223 376.072,805.565 378.809,805.565C381.546,805.565 383.768,803.223 383.768,800.339L383.768,788.08Z" style="fill:white;"/>
            </g>
        </g>
        <g transform="matrix(1,0,0,1,-975.25,-753.716)">
            <path d="M569.028,642.947C587.729,642.947 602.911,657.326 602.911,675.037C602.911,692.748 587.729,707.127 569.028,707.127C550.327,707.127 535.144,692.748 535.144,675.037C535.144,657.326 550.327,642.947 569.028,642.947ZM567.316,685.175C567.64,684.526 568.303,684.117 569.028,684.117C569.753,684.117 570.415,684.526 570.74,685.175C571.513,686.722 572.415,688.525 573.145,689.985C573.441,690.579 573.41,691.283 573.061,691.848C572.712,692.412 572.096,692.755 571.433,692.755C569.929,692.755 568.126,692.755 566.622,692.755C565.959,692.755 565.343,692.412 564.994,691.848C564.646,691.283 564.614,690.579 564.91,689.985C565.64,688.525 566.542,686.722 567.316,685.175ZM557.649,667.335C561.973,669.832 563.223,675.775 560.438,680.6C557.652,685.424 551.88,687.313 547.556,684.817C543.231,682.32 541.981,676.376 544.767,671.552C547.552,666.728 553.324,664.838 557.649,667.335ZM580.407,667.335C584.731,664.838 590.503,666.728 593.289,671.552C596.074,676.376 594.824,682.32 590.5,684.817C586.175,687.313 580.403,685.424 577.618,680.6C574.832,675.775 576.082,669.832 580.407,667.335Z" style="fill:white;"/>
        </g>
    </g>
</svg>
