<?xml version="1.0" encoding="UTF-8" standalone="no"?>
<!DOCTYPE svg PUBLIC "-//W3C//DTD SVG 1.1//EN" "http://www.w3.org/Graphics/SVG/1.1/DTD/svg11.dtd">
<svg width="100%" height="100%" viewBox="0 0 256 256" version="1.1" xmlns="http://www.w3.org/2000/svg" xmlns:xlink="http://www.w3.org/1999/xlink" xml:space="preserve" xmlns:serif="http://www.serif.com/" style="fill-rule:evenodd;clip-rule:evenodd;stroke-linejoin:round;stroke-miterlimit:2;">
    <g id="Snow-Star" serif:id="Snow Star" transform="matrix(3.77017,2.84894e-16,2.84894e-16,5.19841,-13247.3,-1471.36)">
        <g transform="matrix(0.93438,0,0,0.987263,-22977.3,-892.568)">
            <path d="M28395.1,1196.35C28395.1,1193.6 28391.8,1191.35 28387.8,1191.35C28383.8,1191.35 28380.5,1193.6 28380.5,1196.35L28380.5,1235.08C28380.5,1237.84 28383.8,1240.08 28387.8,1240.08C28391.8,1240.08 28395.1,1237.84 28395.1,1235.08L28395.1,1196.35Z" style="fill:white;"/>
        </g>
        <g transform="matrix(-0.46719,0.586874,-1.17889,-0.493632,18243.3,-15752.3)">
            <path d="M28395.1,1196.35C28395.1,1193.6 28391.8,1191.35 28387.8,1191.35C28383.8,1191.35 28380.5,1193.6 28380.5,1196.35L28380.5,1235.08C28380.5,1237.84 28383.8,1240.08 28387.8,1240.08C28391.8,1240.08 28395.1,1237.84 28395.1,1235.08L28395.1,1196.35Z" style="fill:white;"/>
        </g>
        <g transform="matrix(0.46719,0.586874,-1.17889,0.493632,-8281.65,-16952.5)">
            <path d="M28395.1,1196.35C28395.1,1193.6 28391.8,1191.35 28387.8,1191.35C28383.8,1191.35 28380.5,1193.6 28380.5,1196.35L28380.5,1235.08C28380.5,1237.84 28383.8,1240.08 28387.8,1240.08C28391.8,1240.08 28395.1,1237.84 28395.1,1235.08L28395.1,1196.35Z" style="fill:white;"/>
        </g>
    </g>
</svg>
