<?xml version="1.0" encoding="UTF-8" standalone="no"?>
<!DOCTYPE svg PUBLIC "-//W3C//DTD SVG 1.1//EN" "http://www.w3.org/Graphics/SVG/1.1/DTD/svg11.dtd">
<svg width="100%" height="100%" viewBox="0 0 256 256" version="1.1" xmlns="http://www.w3.org/2000/svg" xmlns:xlink="http://www.w3.org/1999/xlink" xml:space="preserve" xmlns:serif="http://www.serif.com/" style="fill-rule:evenodd;clip-rule:evenodd;stroke-linejoin:round;stroke-miterlimit:2;">
    <g id="Sound" transform="matrix(8.26976,0,0,8.26976,-891.472,-1680.26)">
        <g transform="matrix(1.29507,0,0,1,-32.0872,-2.60217)">
            <path d="M123.171,219.571C123.171,217.468 121.853,215.761 120.229,215.761L111.39,215.761C109.766,215.761 108.448,217.468 108.448,219.571L108.448,222.953C108.448,225.056 109.766,226.763 111.39,226.763L120.229,226.763C121.853,226.763 123.171,225.056 123.171,222.953L123.171,219.571Z" style="fill:white;"/>
        </g>
        <g transform="matrix(1.22247e-17,-0.199644,0.121979,7.46905e-18,102.239,250.15)">
            <path d="M157.73,70.201C157.73,70.201 191.716,131.755 214.869,173.689C218.561,180.375 219.5,189.994 217.265,198.231C215.03,206.468 210.04,211.777 204.534,211.777C177.323,211.777 138.137,211.777 110.926,211.777C105.42,211.777 100.43,206.468 98.195,198.231C95.959,189.994 96.898,180.375 100.591,173.689C123.744,131.755 157.73,70.201 157.73,70.201Z" style="fill:white;"/>
        </g>
    </g>
</svg>
