<?xml version="1.0" encoding="UTF-8" standalone="no"?>
<!DOCTYPE svg PUBLIC "-//W3C//DTD SVG 1.1//EN" "http://www.w3.org/Graphics/SVG/1.1/DTD/svg11.dtd">
<svg width="100%" height="100%" viewBox="0 0 256 256" version="1.1" xmlns="http://www.w3.org/2000/svg" xmlns:xlink="http://www.w3.org/1999/xlink" xml:space="preserve" xmlns:serif="http://www.serif.com/" style="fill-rule:evenodd;clip-rule:evenodd;stroke-linejoin:round;stroke-miterlimit:2;">
    <g id="Sound-On" serif:id="Sound On" transform="matrix(8.26976,0,0,8.26976,-891.472,-1680.26)">
        <g id="Sound-On1" serif:id="Sound On" transform="matrix(1,0,0,1,-398.807,-3279.33)">
            <path d="M533.716,3506.23C533.524,3506.43 533.263,3506.54 532.99,3506.54C532.717,3506.54 532.455,3506.43 532.262,3506.24C532.255,3506.24 532.255,3506.24 532.255,3506.24C531.874,3505.86 531.872,3505.24 532.25,3504.86C533.955,3503.08 535,3500.66 535,3498C535,3495.34 533.957,3492.93 532.263,3491.14C531.885,3490.76 531.888,3490.14 532.268,3489.76C532.261,3489.75 532.261,3489.75 532.261,3489.75C532.455,3489.56 532.717,3489.45 532.99,3489.45C533.263,3489.45 533.525,3489.56 533.716,3489.76C535.746,3491.91 537,3494.81 537,3498C537,3501.19 535.748,3504.08 533.716,3506.23ZM530.919,3503.38C530.726,3503.58 530.458,3503.7 530.178,3503.7C529.898,3503.7 529.628,3503.59 529.43,3503.4C529.419,3503.41 529.418,3503.41 529.418,3503.41C529.042,3503.03 529.037,3502.42 529.407,3502.04C530.4,3500.99 531,3499.56 531,3498C531,3496.44 530.399,3495.01 529.417,3493.95C529.055,3493.57 529.06,3492.98 529.427,3492.61C529.415,3492.6 529.415,3492.6 529.415,3492.6C529.617,3492.4 529.893,3492.28 530.179,3492.29C530.465,3492.29 530.737,3492.41 530.935,3492.62C532.213,3494.05 533,3495.93 533,3498C533,3500.07 532.211,3501.96 530.919,3503.38Z" style="fill:white;"/>
        </g>
        <g transform="matrix(1.29507,0,0,1,-32.0872,-2.60217)">
            <path d="M123.171,219.571C123.171,217.468 121.853,215.761 120.229,215.761L111.39,215.761C109.766,215.761 108.448,217.468 108.448,219.571L108.448,222.953C108.448,225.056 109.766,226.763 111.39,226.763L120.229,226.763C121.853,226.763 123.171,225.056 123.171,222.953L123.171,219.571Z" style="fill:white;"/>
        </g>
        <g transform="matrix(1.22247e-17,-0.199644,0.121979,7.46905e-18,102.239,250.15)">
            <path d="M157.73,70.201C157.73,70.201 191.716,131.755 214.869,173.689C218.561,180.375 219.5,189.994 217.265,198.231C215.03,206.468 210.04,211.777 204.534,211.777C177.323,211.777 138.137,211.777 110.926,211.777C105.42,211.777 100.43,206.468 98.195,198.231C95.959,189.994 96.898,180.375 100.591,173.689C123.744,131.755 157.73,70.201 157.73,70.201Z" style="fill:white;"/>
        </g>
    </g>
</svg>
