<?xml version="1.0" encoding="UTF-8" standalone="no"?>
<!DOCTYPE svg PUBLIC "-//W3C//DTD SVG 1.1//EN" "http://www.w3.org/Graphics/SVG/1.1/DTD/svg11.dtd">
<svg width="100%" height="100%" viewBox="0 0 256 256" version="1.1" xmlns="http://www.w3.org/2000/svg" xmlns:xlink="http://www.w3.org/1999/xlink" xml:space="preserve" xmlns:serif="http://www.serif.com/" style="fill-rule:evenodd;clip-rule:evenodd;stroke-linejoin:round;stroke-miterlimit:2;">
    <g id="Spiral" transform="matrix(-2.86515,-0.767713,1.00453,-2.80169,14448.3,10436.3)">
        <path d="M5702.83,2111.26C5702.91,2101.61 5707.09,2093.3 5713.52,2087.39C5720.03,2081.4 5728.87,2077.87 5738.22,2077.95C5747.22,2078.01 5755.36,2081.72 5761.22,2087.67C5767.02,2093.57 5770.54,2101.7 5770.47,2110.62L5770.47,2110.62C5770.44,2113.89 5769.69,2117.06 5768.34,2119.96C5767.01,2122.82 5765.07,2125.4 5762.63,2127.52C5760.21,2129.62 5757.4,2131.14 5754.41,2132.06C5751.4,2132.98 5748.18,2133.26 5744.99,2132.83C5744.98,2132.83 5744.98,2132.83 5744.97,2132.83C5737.98,2131.92 5732.92,2129.29 5729.42,2125.9C5724.68,2121.31 5722.9,2115.42 5722.94,2111.39C5722.97,2107.21 5724.74,2103.57 5727.51,2100.96C5730.29,2098.35 5734.12,2096.81 5738.33,2096.84C5742.19,2096.87 5745.68,2098.29 5748.08,2100.73C5750.35,2103.03 5751.48,2106.27 5751.02,2109.89C5750.68,2112.56 5748.3,2113.86 5746,2113.94C5744.12,2114 5742.15,2112.97 5741.81,2110.6C5741.34,2107.44 5738.41,2105.05 5735.27,2105.26C5732.13,2105.46 5729.97,2108.2 5730.44,2111.35C5731.95,2121.04 5739.73,2125.55 5747.4,2125.16C5754.38,2124.81 5761.09,2120.23 5761.99,2112.07C5762.82,2104.63 5760.14,2098.09 5755.42,2093.44C5750.94,2089.02 5744.55,2086.24 5737.46,2086.29C5730.65,2086.35 5724.48,2088.93 5720.04,2093.25C5715.56,2097.61 5712.79,2103.67 5712.84,2110.56C5712.89,2116.74 5715.62,2125.76 5722.97,2132.68C5727.88,2137.3 5734.87,2141.09 5744.59,2142.2C5749.1,2142.73 5753.63,2142.28 5757.86,2140.91C5761.92,2139.6 5765.73,2137.45 5768.98,2134.53C5772.23,2131.62 5774.79,2128.09 5776.53,2124.18C5778.31,2120.19 5779.26,2115.81 5779.22,2111.33C5779.22,2111.33 5779.22,2111.33 5779.22,2111.33C5779.13,2099.88 5774.42,2089.54 5766.87,2082.07C5759.33,2074.63 5748.98,2070.01 5737.57,2070.1C5726.41,2070.18 5715.88,2074.52 5708.22,2081.81C5700.63,2089.04 5695.81,2099.11 5695.9,2110.69C5695.9,2112.59 5697.45,2114.26 5699.37,2114.42C5701.28,2114.57 5702.83,2113.16 5702.83,2111.26Z" style="fill:white;"/>
    </g>
</svg>
