<?xml version="1.0" encoding="UTF-8" standalone="no"?>
<!DOCTYPE svg PUBLIC "-//W3C//DTD SVG 1.1//EN" "http://www.w3.org/Graphics/SVG/1.1/DTD/svg11.dtd">
<svg width="100%" height="100%" viewBox="0 0 256 256" version="1.1" xmlns="http://www.w3.org/2000/svg" xmlns:xlink="http://www.w3.org/1999/xlink" xml:space="preserve" xmlns:serif="http://www.serif.com/" style="fill-rule:evenodd;clip-rule:evenodd;stroke-linejoin:round;stroke-miterlimit:2;">
    <g id="Star" transform="matrix(0.776322,0,0,0.776322,8.31853,-7.06806)">
        <path d="M125.281,59.39C130.591,48.255 141.828,41.164 154.165,41.164C166.501,41.164 177.739,48.255 183.049,59.39L207.835,111.365L264.925,118.877C277.156,120.486 287.373,128.983 291.185,140.715C294.997,152.448 291.726,165.327 282.777,173.818L241.005,213.452L251.503,270.069C253.752,282.199 248.828,294.541 238.848,301.792C228.868,309.043 215.608,309.912 204.767,304.025L154.165,276.545L103.562,304.025C92.721,309.912 79.462,309.043 69.482,301.792C59.501,294.541 54.578,282.199 56.827,270.069L67.325,213.452L25.553,173.818C16.604,165.327 13.332,152.448 17.144,140.715C20.957,128.983 31.173,120.486 43.404,118.877L100.495,111.365L125.281,59.39Z" style="fill:white;"/>
    </g>
</svg>
