<?xml version="1.0" encoding="UTF-8" standalone="no"?>
<!DOCTYPE svg PUBLIC "-//W3C//DTD SVG 1.1//EN" "http://www.w3.org/Graphics/SVG/1.1/DTD/svg11.dtd">
<svg width="100%" height="100%" viewBox="0 0 256 256" version="1.1" xmlns="http://www.w3.org/2000/svg" xmlns:xlink="http://www.w3.org/1999/xlink" xml:space="preserve" xmlns:serif="http://www.serif.com/" style="fill-rule:evenodd;clip-rule:evenodd;stroke-linejoin:round;stroke-miterlimit:2;">
    <g id="Statistics" transform="matrix(2.57915,0,0,2.44054,-15168.8,-1784.38)">
        <g transform="matrix(0.620056,0,0,0.617389,1590.18,-39.5243)">
            <path d="M6961.46,1369.05C6961.46,1366.31 6959.36,1364.09 6956.78,1364.09L6947.43,1364.09C6944.84,1364.09 6942.75,1366.31 6942.75,1369.05L6942.75,1407.66C6942.75,1410.4 6944.84,1412.62 6947.43,1412.62L6956.78,1412.62C6959.36,1412.62 6961.46,1410.4 6961.46,1407.66L6961.46,1369.05Z" style="fill:white;"/>
        </g>
        <g transform="matrix(0.620512,0,0,0.873556,1606.2,-401.393)">
            <path d="M6961.46,1367.6C6961.46,1365.66 6959.36,1364.09 6956.78,1364.09L6947.43,1364.09C6944.84,1364.09 6942.75,1365.66 6942.75,1367.6L6942.75,1409.11C6942.75,1411.05 6944.84,1412.62 6947.43,1412.62L6956.78,1412.62C6959.36,1412.62 6961.46,1411.05 6961.46,1409.11L6961.46,1367.6Z" style="fill:white;"/>
        </g>
        <g transform="matrix(0.620512,0,0,1.07766,1625.39,-689.711)">
            <path d="M6961.46,1366.93C6961.46,1365.36 6959.36,1364.09 6956.78,1364.09L6947.43,1364.09C6944.84,1364.09 6942.75,1365.36 6942.75,1366.93L6942.75,1409.78C6942.75,1411.35 6944.84,1412.62 6947.43,1412.62L6956.78,1412.62C6959.36,1412.62 6961.46,1411.35 6961.46,1409.78L6961.46,1366.93Z" style="fill:white;"/>
        </g>
        <g transform="matrix(0.620512,0,0,0.873556,1644.57,-401.393)">
            <path d="M6961.46,1367.6C6961.46,1365.66 6959.36,1364.09 6956.78,1364.09L6947.43,1364.09C6944.84,1364.09 6942.75,1365.66 6942.75,1367.6L6942.75,1409.11C6942.75,1411.05 6944.84,1412.62 6947.43,1412.62L6956.78,1412.62C6959.36,1412.62 6961.46,1411.05 6961.46,1409.11L6961.46,1367.6Z" style="fill:white;"/>
        </g>
        <g transform="matrix(0.620512,0,0,0.655755,1587.01,-93.7219)">
            <path d="M7003.4,1302.14L7026.49,1279.05L7039.71,1292.27C7039.71,1292.27 7018.44,1313.54 7012.61,1319.37C7011.67,1320.31 7010.4,1320.84 7009.07,1320.84C7002.33,1320.84 6981.41,1320.84 6981.41,1320.84C6981.41,1320.84 6968.33,1333.92 6961.86,1340.39C6959.91,1342.34 6956.74,1342.34 6954.79,1340.39C6952.89,1338.48 6950.54,1336.14 6948.64,1334.24C6946.69,1332.28 6946.69,1329.12 6948.64,1327.16C6954.94,1320.86 6967.86,1307.95 6972.2,1303.6C6973.14,1302.66 6974.41,1302.14 6975.74,1302.14C6982.49,1302.14 7003.4,1302.14 7003.4,1302.14Z" style="fill:white;"/>
        </g>
        <g transform="matrix(0.956636,1.01097,-0.51356,0.542729,-83.5523,-7042.35)">
            <path d="M7006.69,1284.41C7006.95,1283.89 7007.32,1283.59 7007.7,1283.59C7008.08,1283.59 7008.45,1283.89 7008.71,1284.41C7010.68,1288.35 7015.07,1297.14 7017.73,1302.45C7018.1,1303.2 7018.2,1304.29 7017.98,1305.22C7017.77,1306.16 7017.27,1306.76 7016.72,1306.76L6998.68,1306.76C6998.13,1306.76 6997.64,1306.16 6997.42,1305.22C6997.2,1304.29 6997.3,1303.2 6997.67,1302.45C7000.33,1297.14 7004.73,1288.35 7006.69,1284.41Z" style="fill:white;"/>
        </g>
    </g>
</svg>
