<?xml version="1.0" encoding="UTF-8" standalone="no"?>
<!DOCTYPE svg PUBLIC "-//W3C//DTD SVG 1.1//EN" "http://www.w3.org/Graphics/SVG/1.1/DTD/svg11.dtd">
<svg width="100%" height="100%" viewBox="0 0 256 256" version="1.1" xmlns="http://www.w3.org/2000/svg" xmlns:xlink="http://www.w3.org/1999/xlink" xml:space="preserve" xmlns:serif="http://www.serif.com/" style="fill-rule:evenodd;clip-rule:evenodd;stroke-linejoin:round;stroke-miterlimit:2;">
    <path id="Tablet" d="M222.689,24.544C222.689,13.589 213.795,4.695 202.84,4.695L53.16,4.695C42.205,4.695 33.311,13.589 33.311,24.544L33.311,231.44C33.311,242.395 42.205,251.289 53.16,251.289L202.84,251.289C213.795,251.289 222.689,242.395 222.689,231.44L222.689,24.544ZM128,219.518C132.233,219.518 135.669,222.954 135.669,227.187C135.669,231.419 132.233,234.855 128,234.855C123.767,234.855 120.331,231.419 120.331,227.187C120.331,222.954 123.767,219.518 128,219.518ZM204.08,24.399L51.92,24.399L51.92,205.369L204.08,205.369L204.08,24.399Z" style="fill:white;"/>
</svg>
