<?xml version="1.0" encoding="UTF-8" standalone="no"?>
<!DOCTYPE svg PUBLIC "-//W3C//DTD SVG 1.1//EN" "http://www.w3.org/Graphics/SVG/1.1/DTD/svg11.dtd">
<svg width="100%" height="100%" viewBox="0 0 256 256" version="1.1" xmlns="http://www.w3.org/2000/svg" xmlns:xlink="http://www.w3.org/1999/xlink" xml:space="preserve" xmlns:serif="http://www.serif.com/" style="fill-rule:evenodd;clip-rule:evenodd;stroke-linejoin:round;stroke-miterlimit:2;">
    <g id="Tiles" transform="matrix(1,0,0,1,10.1476,1.87338)">
        <g>
            <g transform="matrix(1,0,0,1,-0.464063,0.925715)">
                <path d="M106.788,59.266C106.788,49.251 98.658,41.121 88.643,41.121L52.353,41.121C42.339,41.121 34.208,49.251 34.208,59.266L34.208,95.556C34.208,105.57 42.339,113.701 52.353,113.701L88.643,113.701C98.658,113.701 106.788,105.57 106.788,95.556L106.788,59.266Z" style="fill:white;"/>
            </g>
            <g transform="matrix(1,0,0,1,95.1726,0.925715)">
                <path d="M106.788,59.266C106.788,49.251 98.658,41.121 88.643,41.121L52.353,41.121C42.339,41.121 34.208,49.251 34.208,59.266L34.208,95.556C34.208,105.57 42.339,113.701 52.353,113.701L88.643,113.701C98.658,113.701 106.788,105.57 106.788,95.556L106.788,59.266Z" style="fill:white;"/>
            </g>
        </g>
        <g transform="matrix(1,0,0,1,0,95.58)">
            <g transform="matrix(1,0,0,1,-0.464063,0.925715)">
                <path d="M106.788,59.266C106.788,49.251 98.658,41.121 88.643,41.121L52.353,41.121C42.339,41.121 34.208,49.251 34.208,59.266L34.208,95.556C34.208,105.57 42.339,113.701 52.353,113.701L88.643,113.701C98.658,113.701 106.788,105.57 106.788,95.556L106.788,59.266Z" style="fill:white;"/>
            </g>
            <g transform="matrix(1,0,0,1,95.1726,0.925715)">
                <path d="M106.788,59.266C106.788,49.251 98.658,41.121 88.643,41.121L52.353,41.121C42.339,41.121 34.208,49.251 34.208,59.266L34.208,95.556C34.208,105.57 42.339,113.701 52.353,113.701L88.643,113.701C98.658,113.701 106.788,105.57 106.788,95.556L106.788,59.266Z" style="fill:white;"/>
            </g>
        </g>
    </g>
</svg>
