<?xml version="1.0" encoding="UTF-8" standalone="no"?>
<!DOCTYPE svg PUBLIC "-//W3C//DTD SVG 1.1//EN" "http://www.w3.org/Graphics/SVG/1.1/DTD/svg11.dtd">
<svg width="100%" height="100%" viewBox="0 0 256 256" version="1.1" xmlns="http://www.w3.org/2000/svg" xmlns:xlink="http://www.w3.org/1999/xlink" xml:space="preserve" xmlns:serif="http://www.serif.com/" style="fill-rule:evenodd;clip-rule:evenodd;stroke-linejoin:round;stroke-miterlimit:2;">
    <g id="Trash" transform="matrix(9.1267,0,0,9.1267,-10605,-28785.4)">
        <path d="M1185.5,3164L1184,3164L1184,3178.5C1184,3179.33 1183.33,3180 1182.5,3180L1169.5,3180C1168.67,3180 1168,3179.33 1168,3178.5L1168,3164L1166.5,3164C1165.67,3164 1165,3163.33 1165,3162.5C1165,3161.67 1165.67,3161 1166.5,3161L1171,3161C1171,3158.24 1173.24,3156 1176,3156C1178.76,3156 1181,3158.24 1181,3161L1185.5,3161C1186.33,3161 1187,3161.67 1187,3162.5C1187,3163.33 1186.33,3164 1185.5,3164ZM1175,3176C1175,3176.26 1175.11,3176.52 1175.29,3176.71C1175.48,3176.89 1175.74,3177 1176,3177L1176,3177C1176.27,3177 1176.52,3176.89 1176.71,3176.71C1176.89,3176.52 1177,3176.26 1177,3176L1177,3166C1177,3165.74 1176.89,3165.48 1176.71,3165.29C1176.52,3165.11 1176.27,3165 1176,3165L1176,3165C1175.74,3165 1175.48,3165.11 1175.29,3165.29C1175.11,3165.48 1175,3165.74 1175,3166L1175,3176ZM1171.67,3165C1171.12,3165 1170.67,3165.45 1170.67,3166L1170.67,3176C1170.67,3176.55 1171.12,3177 1171.67,3177L1171.67,3177C1172.22,3177 1172.67,3176.55 1172.67,3176L1172.67,3166C1172.67,3165.45 1172.22,3165 1171.67,3165L1171.67,3165ZM1176,3157.72C1174.34,3157.72 1173,3159.34 1173,3161L1179,3161C1179,3159.34 1177.66,3157.72 1176,3157.72ZM1181.33,3166C1181.33,3165.74 1181.22,3165.48 1181.04,3165.29C1180.85,3165.11 1180.59,3165 1180.33,3165L1180.33,3165C1180.06,3165 1179.81,3165.11 1179.62,3165.29C1179.43,3165.48 1179.33,3165.74 1179.33,3166L1179.33,3176C1179.33,3176.26 1179.43,3176.52 1179.62,3176.71C1179.81,3176.89 1180.06,3177 1180.33,3177L1180.33,3177C1180.59,3177 1180.85,3176.89 1181.04,3176.71C1181.22,3176.52 1181.33,3176.26 1181.33,3176L1181.33,3166Z" style="fill:white;"/>
    </g>
</svg>
