<?xml version="1.0" encoding="UTF-8" standalone="no"?>
<!DOCTYPE svg PUBLIC "-//W3C//DTD SVG 1.1//EN" "http://www.w3.org/Graphics/SVG/1.1/DTD/svg11.dtd">
<svg width="100%" height="100%" viewBox="0 0 256 256" version="1.1" xmlns="http://www.w3.org/2000/svg" xmlns:xlink="http://www.w3.org/1999/xlink" xml:space="preserve" xmlns:serif="http://www.serif.com/" style="fill-rule:evenodd;clip-rule:evenodd;stroke-linejoin:round;stroke-miterlimit:2;">
    <g id="Ufo-Alien" serif:id="Ufo Alien" transform="matrix(0.586351,-6.87647e-33,4.23138e-16,1.15229,-4616.95,301.813)">
        <g transform="matrix(0.87552,1.20089e-16,4.48127e-16,0.445513,-5377.83,-883.872)">
            <path d="M15465.7,1787.33C15450.8,1811.66 15423,1828.03 15391.3,1828.03C15361,1828.03 15334.3,1813.12 15319,1790.61C15339.8,1794.93 15362.1,1797.28 15385.3,1797.28C15413.9,1797.28 15441.1,1793.73 15465.7,1787.33Z" style="fill:white;"/>
        </g>
        <g transform="matrix(0.87552,1.20089e-16,4.48127e-16,0.445513,-5377.83,-883.872)">
            <path d="M15280.5,1601.09L15280.5,1554.61C15280.5,1496.77 15327.5,1449.81 15385.3,1449.81C15443.2,1449.81 15490.1,1496.77 15490.1,1554.61L15490.4,1601.09C15490.1,1636.03 15443,1664.11 15385.3,1664.11C15327.7,1664.11 15280.8,1636.03 15280.5,1601.09ZM15301.8,1593.24L15301.8,1555.09C15301.8,1508.99 15339.2,1471.56 15385.3,1471.56C15431.4,1471.56 15468.9,1508.99 15468.9,1555.09L15468.9,1593.24C15468.6,1621.09 15431.3,1642.37 15385.3,1642.37C15339.4,1642.37 15302,1621.09 15301.8,1593.24Z" style="fill:white;"/>
        </g>
        <g transform="matrix(0.87552,1.20089e-16,4.48127e-16,0.445513,-5377.83,-883.872)">
            <path d="M15513.9,1578.91C15552,1600.05 15575.8,1630.4 15575.8,1664.11C15575.8,1727.88 15490.5,1779.65 15385.3,1779.65C15280.2,1779.65 15194.8,1727.88 15194.8,1664.11C15194.8,1630.4 15218.7,1600.05 15256.7,1578.91C15249.8,1588.96 15245.9,1599.99 15245.9,1611.57C15245.9,1658.24 15308.4,1696.13 15385.3,1696.13C15462.3,1696.13 15524.7,1658.24 15524.7,1611.57C15524.7,1599.99 15520.9,1588.96 15513.9,1578.91ZM15385.3,1735.1C15390.6,1735.1 15395,1739.41 15395,1744.72C15395,1750.02 15390.6,1754.33 15385.3,1754.33C15380,1754.33 15375.7,1750.02 15375.7,1744.72C15375.7,1739.41 15380,1735.1 15385.3,1735.1ZM15242.9,1679.28C15248.3,1679.28 15252.6,1683.59 15252.6,1688.9C15252.6,1694.21 15248.3,1698.52 15242.9,1698.52C15237.6,1698.52 15233.3,1694.21 15233.3,1688.9C15233.3,1683.59 15237.6,1679.28 15242.9,1679.28ZM15527.7,1679.28C15533,1679.28 15537.3,1683.59 15537.3,1688.9C15537.3,1694.21 15533,1698.52 15527.7,1698.52C15522.4,1698.52 15518.1,1694.21 15518.1,1688.9C15518.1,1683.59 15522.4,1679.28 15527.7,1679.28Z" style="fill:white;"/>
        </g>
        <g transform="matrix(1.05146,0.308907,-1.19299,1.05146,-2267.62,-3107.87)">
            <g transform="matrix(0.209035,0,0,0.366942,5137.41,-1004.15)">
                <rect x="22154.2" y="2303.37" width="23.624" height="99.549" style="fill:white;"/>
            </g>
            <g transform="matrix(0.358763,0,0,0.182559,1820.06,-577.237)">
                <circle cx="22161.8" cy="2311.96" r="37.314" style="fill:white;"/>
            </g>
        </g>
        <g transform="matrix(0.746081,1.02335e-16,7.50458e-16,0.746081,828.973,-71.7239)">
            <g transform="matrix(0.487749,0,0,0.0978626,-1050.22,-257.573)">
                <path d="M22146.6,2839.85C22146.6,2824.33 22141.7,2811.73 22135.5,2811.73C22129.4,2811.73 22124.5,2824.33 22124.5,2839.85L22124.5,3029.01C22124.5,3044.53 22129.4,3057.13 22135.5,3057.13C22141.7,3057.13 22146.6,3044.53 22146.6,3029.01L22146.6,2839.85Z" style="fill:white;"/>
            </g>
            <g transform="matrix(0.422403,0.124097,-0.0961595,0.0847515,635.288,-2977)">
                <path d="M22146.6,2839.85C22146.6,2824.33 22141.7,2811.73 22135.5,2811.73C22129.4,2811.73 22124.5,2824.33 22124.5,2839.85L22124.5,3029.01C22124.5,3044.53 22129.4,3057.13 22135.5,3057.13C22141.7,3057.13 22146.6,3044.53 22146.6,3029.01L22146.6,2839.85Z" style="fill:white;"/>
            </g>
            <g transform="matrix(-0.422403,0.124097,0.0961595,0.0847515,18857.5,-2977)">
                <path d="M22146.6,2839.85C22146.6,2824.33 22141.7,2811.73 22135.5,2811.73C22129.4,2811.73 22124.5,2824.33 22124.5,2839.85L22124.5,3029.01C22124.5,3044.53 22129.4,3057.13 22135.5,3057.13C22141.7,3057.13 22146.6,3044.53 22146.6,3029.01L22146.6,2839.85Z" style="fill:white;"/>
            </g>
        </g>
        <g transform="matrix(0.721113,1.2326e-32,-4.93038e-32,0.366942,-6215.75,-1004.15)">
            <path d="M19841.7,2142.29C19878,2142.29 19907.5,2171.79 19907.5,2208.13C19907.5,2244.47 19878,2273.98 19841.7,2273.98C19805.3,2273.98 19775.8,2244.47 19775.8,2208.13C19775.8,2171.79 19805.3,2142.29 19841.7,2142.29ZM19830,2172.41C19836.6,2172.41 19842,2177.78 19842,2184.4C19842,2191.01 19836.6,2196.39 19830,2196.39C19823.4,2196.39 19818,2191.01 19818,2184.4C19818,2177.78 19823.4,2172.41 19830,2172.41Z" style="fill:white;"/>
        </g>
        <g transform="matrix(0.71432,-0.0502449,0.098741,0.363486,-7870.99,16.41)">
            <path d="M21998.8,2543.46L22001.1,2559.48C21996.4,2561.21 21990.6,2562 21985.1,2561.29L21988.9,2543.49C21992.7,2543.74 21996,2543.62 21998.8,2543.46ZM21977.5,2540.41C21979.6,2541.44 21982.1,2542.41 21985,2542.98L21981.2,2560.49C21980,2560.16 21978.9,2559.75 21977.8,2559.24C21974.9,2557.94 21971.9,2555.85 21969.4,2553.28L21977.5,2540.41ZM22002.8,2543.21C22008.6,2542.89 22011.3,2543.29 22011.5,2549.38C22011.6,2552.58 22008.9,2555.56 22004.9,2557.77L22002.8,2543.21ZM21966.8,2549.99C21964.5,2546.55 21963.4,2542.62 21964.9,2538.77C21966.6,2534.04 21969.3,2535.87 21974,2538.52L21966.8,2549.99Z" style="fill:white;"/>
            <clipPath id="_clip1">
                <path d="M21998.8,2543.46L22001.1,2559.48C21996.4,2561.21 21990.6,2562 21985.1,2561.29L21988.9,2543.49C21992.7,2543.74 21996,2543.62 21998.8,2543.46ZM21977.5,2540.41C21979.6,2541.44 21982.1,2542.41 21985,2542.98L21981.2,2560.49C21980,2560.16 21978.9,2559.75 21977.8,2559.24C21974.9,2557.94 21971.9,2555.85 21969.4,2553.28L21977.5,2540.41ZM22002.8,2543.21C22008.6,2542.89 22011.3,2543.29 22011.5,2549.38C22011.6,2552.58 22008.9,2555.56 22004.9,2557.77L22002.8,2543.21ZM21966.8,2549.99C21964.5,2546.55 21963.4,2542.62 21964.9,2538.77C21966.6,2534.04 21969.3,2535.87 21974,2538.52L21966.8,2549.99Z"/>
            </clipPath>
            <g clip-path="url(#_clip1)">
                <g transform="matrix(1.23471,-0.496239,0.33084,1.85199,16443.8,4265.04)">
                    <path d="M4398.35,263.475C4401.29,261.023 4405.32,262.023 4412.73,265.192C4420.15,268.362 4422.5,271.897 4421.21,276.468C4419.91,281.039 4394.57,266.627 4398.35,263.475Z" style="fill:rgb(131,51,89);"/>
                </g>
            </g>
        </g>
    </g>
</svg>
