<?xml version="1.0" encoding="UTF-8" standalone="no"?>
<!DOCTYPE svg PUBLIC "-//W3C//DTD SVG 1.1//EN" "http://www.w3.org/Graphics/SVG/1.1/DTD/svg11.dtd">
<svg width="100%" height="100%" viewBox="0 0 256 256" version="1.1" xmlns="http://www.w3.org/2000/svg" xmlns:xlink="http://www.w3.org/1999/xlink" xml:space="preserve" xmlns:serif="http://www.serif.com/" style="fill-rule:evenodd;clip-rule:evenodd;stroke-linejoin:round;stroke-miterlimit:2;">
    <g transform="matrix(0.250452,0,0,0.250452,150.358,112.436)">
        <g id="User-Plus" serif:id="User Plus">
            <g id="Plus">
                <g transform="matrix(5.08988,0,0,5.08988,-848.547,-607.456)">
                    <path d="M191.86,98.645C217.165,98.645 237.709,119.189 237.709,144.494C237.709,169.799 217.165,190.343 191.86,190.343C166.556,190.343 146.012,169.799 146.012,144.494C146.012,119.189 166.556,98.645 191.86,98.645ZM196.572,139.782L196.572,123.854C196.572,121.253 194.461,119.142 191.86,119.142C189.26,119.142 187.149,121.253 187.149,123.854L187.149,139.782L171.22,139.782C168.62,139.782 166.508,141.893 166.508,144.494C166.508,147.094 168.62,149.206 171.22,149.206L187.149,149.206L187.149,165.134C187.149,167.735 189.26,169.846 191.86,169.846C194.461,169.846 196.572,167.735 196.572,165.134L196.572,149.206L212.501,149.206C215.101,149.206 217.213,147.094 217.213,144.494C217.213,141.893 215.101,139.782 212.501,139.782L196.572,139.782Z" style="fill:white;"/>
                </g>
                <g transform="matrix(3.99277,0,0,3.99277,-625.496,-448.931)">
                    <path d="M198.534,224.793C163.568,258.516 21.436,253.015 21.436,208.292C21.436,178.842 35.244,152.592 56.736,135.665C70.749,148.165 88.882,156.14 108.833,157.289C114.972,195.862 148.423,225.384 188.715,225.384C192.037,225.384 195.312,225.184 198.534,224.793ZM108.565,133.515C76.735,130.84 51.696,104.12 51.696,71.599C51.696,37.304 79.539,9.461 113.834,9.461C145.786,9.461 172.138,33.631 175.588,64.666C140.738,70.362 113.344,98.363 108.565,133.515Z" style="fill:white;"/>
                </g>
            </g>
        </g>
    </g>
</svg>
