<?xml version="1.0" encoding="UTF-8" standalone="no"?>
<!DOCTYPE svg PUBLIC "-//W3C//DTD SVG 1.1//EN" "http://www.w3.org/Graphics/SVG/1.1/DTD/svg11.dtd">
<svg width="100%" height="100%" viewBox="0 0 256 256" version="1.1" xmlns="http://www.w3.org/2000/svg" xmlns:xlink="http://www.w3.org/1999/xlink" xml:space="preserve" xmlns:serif="http://www.serif.com/" style="fill-rule:evenodd;clip-rule:evenodd;stroke-linejoin:round;stroke-miterlimit:2;">
    <g id="X-Icon" serif:id="X Icon">
        <g transform="matrix(0.641982,0.641982,-0.879441,0.879441,163.577,-71.4377)">
            <path d="M146.896,46.462C146.896,38.696 138.259,32.391 127.621,32.391C116.983,32.391 108.346,38.696 108.346,46.462L108.346,220.77C108.346,228.536 116.983,234.841 127.621,234.841C138.259,234.841 146.896,228.536 146.896,220.77L146.896,46.462Z" style="fill:white;"/>
        </g>
        <g transform="matrix(-0.641982,0.641982,-0.879441,-0.879441,327.438,163.577)">
            <path d="M146.896,46.462C146.896,38.696 138.259,32.391 127.621,32.391C116.983,32.391 108.346,38.696 108.346,46.462L108.346,220.77C108.346,228.536 116.983,234.841 127.621,234.841C138.259,234.841 146.896,228.536 146.896,220.77L146.896,46.462Z" style="fill:white;"/>
        </g>
    </g>
</svg>
