<?xml version="1.0" encoding="UTF-8" standalone="no"?>
<!DOCTYPE svg PUBLIC "-//W3C//DTD SVG 1.1//EN" "http://www.w3.org/Graphics/SVG/1.1/DTD/svg11.dtd">
<svg width="100%" height="100%" viewBox="0 0 256 256" version="1.1" xmlns="http://www.w3.org/2000/svg" xmlns:xlink="http://www.w3.org/1999/xlink" xml:space="preserve" xmlns:serif="http://www.serif.com/" style="fill-rule:evenodd;clip-rule:evenodd;stroke-linejoin:round;stroke-miterlimit:2;">
    <g id="Aim-Arrow" serif:id="Aim Arrow" transform="matrix(2.0483,0,0,1.93822,-12130.8,-1317.85)">
        <g transform="matrix(0.717681,0,0,0.758443,900.598,-227.6)">
            <circle cx="7064.17" cy="1303.75" r="58.793" style="fill:rgb(249,63,76);"/>
        </g>
        <g transform="matrix(0.528133,0,0,0.558129,2239.59,33.5579)">
            <circle cx="7064.17" cy="1303.75" r="58.793" style="fill:white;"/>
        </g>
        <g transform="matrix(0.374565,0,0,0.395839,3324.42,245.143)">
            <circle cx="7064.17" cy="1303.75" r="58.793" style="fill:rgb(249,63,76);"/>
        </g>
        <g transform="matrix(0.180584,0,0,0.190841,4694.74,512.41)">
            <circle cx="7064.17" cy="1303.75" r="58.793" style="fill:white;"/>
        </g>
        <g transform="matrix(0.48821,0,0,0.515938,5922.35,679.931)">
            <path d="M98.447,71.126C146.147,71.126 184.874,109.853 184.874,157.553C184.874,205.253 146.147,243.98 98.447,243.98L98.447,71.126Z" style="fill:rgb(125,42,45);fill-opacity:0.49;"/>
        </g>
        <g transform="matrix(0.707107,0.747268,-0.669104,0.707107,2238.13,-4058.67)">
            <g transform="matrix(0.667068,-0.527847,4.80001e-18,0.385239,1266.11,3814.19)">
                <path d="M6915.48,950.322C6915.48,948.49 6914.91,946.042 6914.02,943.996C6913.12,941.95 6912.05,940.658 6911.25,940.658C6904.71,940.658 6892.88,940.658 6892.88,940.658L6892.88,1009.27C6892.88,1009.27 6904,1009.27 6910.64,1009.27C6913.68,1009.27 6915.48,1005.17 6915.48,998.199C6915.48,984.935 6915.48,962.928 6915.48,950.322Z" style="fill:rgb(225,141,59);"/>
            </g>
            <g transform="matrix(-0.667068,-0.527847,-5.91044e-17,0.385239,10462.1,3814.19)">
                <path d="M6915.48,950.322C6915.48,948.49 6914.91,946.042 6914.02,943.996C6913.12,941.95 6912.05,940.658 6911.25,940.658C6904.71,940.658 6892.88,940.658 6892.88,940.658L6892.88,1009.27C6892.88,1009.27 6904,1009.27 6910.64,1009.27C6913.68,1009.27 6915.48,1005.17 6915.48,998.199C6915.48,984.935 6915.48,962.928 6915.48,950.322Z" style="fill:rgb(255,224,73);"/>
            </g>
            <g transform="matrix(0.620512,0,0,1.06563,1473.94,-768.491)">
                <path d="M7079.47,1216.19C7079.47,1214.71 7077.51,1213.51 7075.11,1213.51C7072.7,1213.51 7070.75,1214.71 7070.75,1216.19L7070.75,1301.07C7070.75,1302.55 7072.7,1303.75 7075.11,1303.75C7077.51,1303.75 7079.47,1302.55 7079.47,1301.07L7079.47,1216.19Z" style="fill:rgb(50,58,65);"/>
            </g>
            <g transform="matrix(0.345216,-0.364823,0.345216,0.364823,5775.75,597.59)">
                <path d="M220.109,28.057L96.152,152.013C94.391,153.774 94.064,156.429 95.172,158.522C96.159,158.894 97.317,158.683 98.111,157.889L225.985,30.015C226.779,29.221 226.99,28.063 226.617,27.076C224.525,25.969 221.87,26.296 220.109,28.057Z" style="fill:rgb(71,80,88);"/>
            </g>
        </g>
    </g>
</svg>
