<?xml version="1.0" encoding="UTF-8" standalone="no"?>
<!DOCTYPE svg PUBLIC "-//W3C//DTD SVG 1.1//EN" "http://www.w3.org/Graphics/SVG/1.1/DTD/svg11.dtd">
<svg width="100%" height="100%" viewBox="0 0 256 256" version="1.1" xmlns="http://www.w3.org/2000/svg" xmlns:xlink="http://www.w3.org/1999/xlink" xml:space="preserve" xmlns:serif="http://www.serif.com/" style="fill-rule:evenodd;clip-rule:evenodd;stroke-linejoin:round;stroke-miterlimit:2;">
    <g id="Apple" transform="matrix(1.77262,0,0,1.67736,-7767.08,-494.823)">
        <g>
            <g transform="matrix(0.514232,0,0,0.655755,2078.75,-80.9834)">
                <path d="M4628.05,599.625C4628.05,595.405 4623.92,591.979 4618.83,591.979C4613.73,591.979 4609.6,595.405 4609.6,599.625L4609.6,665.875C4609.6,670.095 4613.73,673.521 4618.83,673.521C4623.92,673.521 4628.05,670.095 4628.05,665.875L4628.05,599.625Z" style="fill:rgb(164,98,78);"/>
            </g>
            <g transform="matrix(0.564136,0,0,0.596177,4381.69,295.002)">
                <path d="M127.854,20.479L127.854,110.167C127.903,110.168 127.951,110.168 128,110.168C132.642,110.168 136.41,106.4 136.41,101.758L136.41,28.888C136.41,24.246 132.642,20.478 128,20.478C127.951,20.478 127.903,20.478 127.854,20.479Z" style="fill:rgb(151,89,72);"/>
            </g>
        </g>
        <g transform="matrix(0.38979,0.411929,-0.438768,0.463689,2892.75,-1893.44)">
            <path d="M4699.78,571.059C4710.46,571.059 4720.07,608.962 4699.78,608.962C4679.49,608.962 4689.1,571.059 4699.78,571.059Z" style="fill:rgb(0,149,103);"/>
        </g>
        <g transform="matrix(0.620512,0,0,0.655755,1580.39,-18.9383)">
            <g transform="matrix(1,0,0,1,10.6694,-114.042)">
                <path d="M4598.55,641.452C4612.23,648.026 4628.15,648.026 4641.83,641.452C4653.75,635.71 4666.54,633.958 4678.86,637.26C4713.38,646.507 4731.24,691.904 4718.73,738.574C4706.23,785.243 4668.06,815.625 4633.55,806.378C4633.47,806.357 4633.4,806.336 4633.32,806.315C4624.72,803.976 4615.65,803.976 4607.06,806.315C4606.98,806.336 4606.9,806.357 4606.82,806.378C4572.32,815.625 4534.15,785.243 4521.64,738.574C4509.14,691.904 4527,646.507 4561.51,637.26C4573.83,633.958 4586.62,635.71 4598.55,641.452Z" style="fill:rgb(255,61,73);"/>
            </g>
            <g transform="matrix(0.909145,0,0,0.909145,4514.49,478.746)">
                <path d="M199.146,51.158C232.727,65.055 249.33,112.086 236.396,160.355C222.641,211.688 180.657,245.107 142.698,234.936C142.612,234.913 142.527,234.89 142.441,234.866C132.986,232.293 123.014,232.293 113.559,234.867C113.473,234.89 113.388,234.913 113.302,234.936C84.844,242.561 54.124,225.687 34.736,195.137C49.412,203.823 65.627,206.965 81.167,202.801C81.253,202.778 81.339,202.755 81.424,202.732C90.88,200.159 100.851,200.159 110.307,202.732C110.392,202.755 110.478,202.778 110.563,202.801C148.522,212.972 190.507,179.554 204.261,128.221C211.828,99.982 209.286,72.167 199.146,51.158Z" style="fill:rgb(255,30,50);"/>
            </g>
        </g>
        <g transform="matrix(0.620512,0,0,0.655755,1247.33,-129.122)">
            <circle cx="5110.79" cy="724.996" r="16.447" style="fill:rgb(255,163,166);"/>
        </g>
    </g>
</svg>
