<?xml version="1.0" encoding="UTF-8" standalone="no"?>
<!DOCTYPE svg PUBLIC "-//W3C//DTD SVG 1.1//EN" "http://www.w3.org/Graphics/SVG/1.1/DTD/svg11.dtd">
<svg width="100%" height="100%" viewBox="0 0 256 256" version="1.1" xmlns="http://www.w3.org/2000/svg" xmlns:xlink="http://www.w3.org/1999/xlink" xml:space="preserve" xmlns:serif="http://www.serif.com/" style="fill-rule:evenodd;clip-rule:evenodd;stroke-linejoin:round;stroke-miterlimit:2;">
    <g id="Arrow-Bag" serif:id="Arrow Bag" transform="matrix(4.84548,0,0,3.90423,-30375.2,-7546.34)">
        <g transform="matrix(-1.12059,-0.372649,0.590071,-2.73309,13783.4,4532.25)">
            <g transform="matrix(0.27609,-1.85164e-33,-9.3132e-18,0.182571,1727.88,-493.244)">
                <path d="M18012.4,2849.98C18012.4,2847.3 18009.6,2845.13 18006.1,2845.13C18002.6,2845.13 17999.8,2847.3 17999.8,2849.98L17999.8,2899.91C17999.8,2902.58 18002.6,2904.75 18006.1,2904.75C18009.6,2904.75 18012.4,2902.58 18012.4,2899.91L18012.4,2849.98Z" style="fill:rgb(250,176,5);"/>
            </g>
            <g transform="matrix(0.138045,-3.83152e-18,-2.89848e-17,0.160062,4214.35,-428.523)">
                <path d="M18012.4,2847.9C18012.4,2846.37 18009.6,2845.13 18006.1,2845.13C18002.6,2845.13 17999.8,2846.37 17999.8,2847.9L17999.8,2901.99C17999.8,2903.51 18002.6,2904.75 18006.1,2904.75C18009.6,2904.75 18012.4,2903.51 18012.4,2901.99L18012.4,2847.9Z" style="fill:rgb(255,212,59);"/>
            </g>
            <g transform="matrix(1,0,0,1,0.198308,1.90065)">
                <g transform="matrix(0.36232,-0.220213,0,0.518714,208.286,2510.51)">
                    <rect x="17902.4" y="2819.96" width="7.041" height="8.215" style="fill:rgb(227,75,3);"/>
                </g>
                <g transform="matrix(0.258162,-0.156907,-8.63832e-17,0.518714,2072.98,1377.18)">
                    <rect x="17902.4" y="2819.96" width="7.041" height="8.215" style="fill:rgb(227,86,3);"/>
                </g>
                <g transform="matrix(-0.36232,-0.220213,0,0.518714,13189.7,2510.51)">
                    <rect x="17902.4" y="2819.96" width="7.041" height="8.215" style="fill:rgb(243,110,0);"/>
                </g>
                <g transform="matrix(-0.234684,-0.142637,2.87944e-17,0.518714,10904.7,1121.72)">
                    <rect x="17902.4" y="2819.96" width="7.041" height="8.215" style="fill:rgb(243,119,0);"/>
                </g>
            </g>
        </g>
        <g transform="matrix(-1.12059,-0.372649,0.590071,-2.73309,13787.1,4539.37)">
            <g transform="matrix(0.27609,-1.44381e-33,1.86264e-17,0.142359,1727.88,-376.438)">
                <path d="M18012.4,2851.35C18012.4,2847.92 18009.6,2845.13 18006.1,2845.13C18002.6,2845.13 17999.8,2847.92 17999.8,2851.35L17999.8,2898.54C17999.8,2901.97 18002.6,2904.75 18006.1,2904.75C18009.6,2904.75 18012.4,2901.97 18012.4,2898.54L18012.4,2851.35Z" style="fill:rgb(250,176,5);"/>
            </g>
            <g transform="matrix(0.138045,-2.02556e-18,-2.28844e-17,0.118652,4214.35,-308.238)">
                <path d="M18012.4,2848.86C18012.4,2846.8 18009.6,2845.13 18006.1,2845.13C18002.6,2845.13 17999.8,2846.8 17999.8,2848.86L17999.8,2901.03C17999.8,2903.08 18002.6,2904.75 18006.1,2904.75C18009.6,2904.75 18012.4,2903.08 18012.4,2901.03L18012.4,2848.86Z" style="fill:rgb(255,212,59);"/>
            </g>
            <g transform="matrix(1,0,0,1,0.198308,1.90065)">
                <g transform="matrix(0.36232,-0.220213,0,0.518714,208.286,2510.51)">
                    <rect x="17902.4" y="2819.96" width="7.041" height="8.215" style="fill:rgb(227,75,3);"/>
                </g>
                <g transform="matrix(0.231792,-0.14088,2.87944e-17,0.518714,2545.06,1090.26)">
                    <rect x="17902.4" y="2819.96" width="7.041" height="8.215" style="fill:rgb(227,86,3);"/>
                </g>
                <g transform="matrix(-0.36232,-0.220213,0,0.518714,13189.7,2510.51)">
                    <rect x="17902.4" y="2819.96" width="7.041" height="8.215" style="fill:rgb(243,110,0);"/>
                </g>
                <g transform="matrix(-0.23253,-0.141328,-2.87944e-17,0.518714,10866.1,1098.28)">
                    <rect x="17902.4" y="2819.96" width="7.041" height="8.215" style="fill:rgb(243,119,0);"/>
                </g>
            </g>
        </g>
        <g>
            <g transform="matrix(0.22643,0,0,0.308889,4320.77,1.53948)">
                <path d="M8760.04,6338.83L8679.55,6338.83L8679.55,6428.14C8679.55,6448.35 8697.58,6464.75 8719.8,6464.75C8742.01,6464.75 8760.04,6448.35 8760.04,6428.14L8760.04,6338.83Z" style="fill:rgb(160,74,74);"/>
            </g>
            <g transform="matrix(0.252066,0,0,0.312835,4097.44,-23.2345)">
                <path d="M8755.13,6338.07L8755.13,6426.25C8755.13,6446.2 8738.93,6462.4 8718.98,6462.4C8715.27,6462.4 8711.68,6461.84 8708.31,6460.8C8723.07,6456.25 8733.8,6442.49 8733.8,6426.25L8733.8,6338.07L8755.13,6338.07Z" style="fill:rgb(139,56,51);"/>
            </g>
            <g transform="matrix(0.233552,0,0,0.236597,4258.35,459.967)">
                <path d="M8770.73,6350.98C8770.73,6343.86 8766,6338.07 8760.19,6338.07L8682.16,6338.07C8676.34,6338.07 8671.62,6343.86 8671.62,6350.98C8671.62,6358.11 8676.34,6363.89 8682.16,6363.89L8760.19,6363.89C8766,6363.89 8770.73,6358.11 8770.73,6350.98Z" style="fill:rgb(184,88,79);"/>
            </g>
            <g transform="matrix(0.177515,0,0,0.236597,4744.28,459.967)">
                <path d="M8770.73,6350.98C8770.73,6343.86 8764.51,6338.07 8756.86,6338.07L8685.49,6338.07C8677.83,6338.07 8671.62,6343.86 8671.62,6350.98C8671.62,6358.11 8677.83,6363.89 8685.49,6363.89L8756.86,6363.89C8764.51,6363.89 8770.73,6358.11 8770.73,6350.98Z" style="fill:rgb(209,111,91);"/>
            </g>
        </g>
    </g>
</svg>
