<?xml version="1.0" encoding="UTF-8" standalone="no"?>
<!DOCTYPE svg PUBLIC "-//W3C//DTD SVG 1.1//EN" "http://www.w3.org/Graphics/SVG/1.1/DTD/svg11.dtd">
<svg width="100%" height="100%" viewBox="0 0 256 256" version="1.1" xmlns="http://www.w3.org/2000/svg" xmlns:xlink="http://www.w3.org/1999/xlink" xml:space="preserve" xmlns:serif="http://www.serif.com/" style="fill-rule:evenodd;clip-rule:evenodd;stroke-linecap:round;stroke-linejoin:round;stroke-miterlimit:1.5;">
    <g id="Astronaut" transform="matrix(1.55988,-9.63173e-17,-3.92093e-16,3.06547,-11208.8,-3447.96)">
        <g>
            <g transform="matrix(0.627757,-7.7377e-33,0,0.319438,-4471.22,-724.688)">
                <path d="M18757.2,5940.14C18790.9,5984.01 18736.8,6014.15 18701.9,5960.31" style="fill:none;stroke:rgb(206,212,218);stroke-width:10px;"/>
            </g>
            <g transform="matrix(0.702983,0.0817631,-0.120312,0.267847,-5469.57,-2072.18)">
                <path d="M19149.7,6272.29C19107.7,6327.75 19174.8,6370.84 19118.3,6405.78" style="fill:none;stroke:rgb(133,142,152);stroke-width:3.33px;"/>
            </g>
            <g transform="matrix(0.686482,-8.46155e-33,0,0.258898,-5565.97,-363.127)">
                <path d="M18763.3,5850.99C18763.3,5831.24 18751.4,5815.2 18736.7,5815.2L18658.8,5815.2C18644.2,5815.2 18632.3,5831.24 18632.3,5850.99L18632.3,5922.57C18632.3,5942.33 18644.2,5958.36 18658.8,5958.36L18736.7,5958.36C18751.4,5958.36 18763.3,5942.33 18763.3,5922.57L18763.3,5850.99Z" style="fill:rgb(134,142,164);"/>
            </g>
            <g transform="matrix(0.567635,4.16334e-17,3.16414e-15,0.567635,1817.02,1029.09)">
                <g transform="matrix(-0.0749803,-0.0197409,-0.0387946,0.0381542,9873.97,181.792)">
                    <path d="M1220.95,1886.75C1274.54,2046.56 1383.88,2308.65 1802.34,2428.3" style="fill:none;stroke:rgb(226,233,239);stroke-width:422.75px;"/>
                </g>
                <g transform="matrix(0.0749803,-0.0197409,0.0387946,0.0381542,9338.06,181.792)">
                    <path d="M1220.95,1886.75C1274.54,2046.56 1383.88,2308.65 1802.34,2428.3" style="fill:none;stroke:white;stroke-width:422.75px;"/>
                </g>
            </g>
            <g transform="matrix(0.526733,3.00223e-17,9.4382e-16,0.131578,-4297.86,718.098)">
                <path d="M22010.1,3425.72C22010.1,3398.43 21999.2,3376.26 21985.8,3376.26L21936.2,3376.26C21922.8,3376.26 21911.9,3398.43 21911.9,3425.72L21911.9,3524.64C21911.9,3551.93 21922.8,3574.09 21936.2,3574.09L21985.8,3574.09C21999.2,3574.09 22010.1,3551.93 22010.1,3524.64L22010.1,3425.72Z" style="fill:white;"/>
            </g>
            <g transform="matrix(0.263367,3.00223e-17,4.7191e-16,0.131578,1498.86,718.098)">
                <path d="M22010.1,3401.25C22010.1,3387.46 21999.1,3376.26 21985.5,3376.26L21911.9,3376.26L21911.9,3574.09L21985.5,3574.09C21999.1,3574.09 22010.1,3562.9 22010.1,3549.11L22010.1,3401.25Z" style="fill:rgb(226,233,239);"/>
            </g>
            <g transform="matrix(0.229874,1.25851e-17,1.22937e-15,0.164623,2236.04,619.545)">
                <path d="M22010.1,3411.13C22010.1,3391.89 21988.1,3376.26 21961,3376.26C21933.9,3376.26 21911.9,3391.89 21911.9,3411.13L21911.9,3539.23C21911.9,3558.47 21933.9,3574.09 21961,3574.09C21988.1,3574.09 22010.1,3558.47 22010.1,3539.23L22010.1,3411.13Z" style="fill:rgb(226,233,239);"/>
            </g>
            <g transform="matrix(0.477984,1.32667e-17,-8.10101e-17,0.243225,-1896.55,-345.422)">
                <path d="M19217.3,6327.17C19217.3,6325.32 19215.8,6323.82 19214,6323.82L19200.9,6323.82C19199.1,6323.82 19197.6,6325.32 19197.6,6327.17C19197.6,6329.01 19199.1,6330.51 19200.9,6330.51L19214,6330.51C19215.8,6330.51 19217.3,6329.01 19217.3,6327.17Z" style="fill:white;"/>
            </g>
            <g transform="matrix(0.477984,1.32667e-17,-8.10101e-17,0.243225,-1896.55,-342.757)">
                <path d="M19217.3,6327.17C19217.3,6325.32 19215.8,6323.82 19214,6323.82L19200.9,6323.82C19199.1,6323.82 19197.6,6325.32 19197.6,6327.17C19197.6,6329.01 19199.1,6330.51 19200.9,6330.51L19214,6330.51C19215.8,6330.51 19217.3,6329.01 19217.3,6327.17Z" style="fill:white;"/>
            </g>
            <g transform="matrix(0.123711,0.234937,-0.461697,0.0629512,7857.81,-3747.28)">
                <path d="M19217.3,6327.17C19217.3,6325.32 19215.8,6323.82 19214,6323.82L19200.9,6323.82C19199.1,6323.82 19197.6,6325.32 19197.6,6327.17C19197.6,6329.01 19199.1,6330.51 19200.9,6330.51L19214,6330.51C19215.8,6330.51 19217.3,6329.01 19217.3,6327.17Z" style="fill:white;"/>
            </g>
            <g transform="matrix(-1.38778e-17,0.243225,-0.477984,6.93889e-18,10331.6,-3507.76)">
                <path d="M19217.3,6327.17C19217.3,6325.32 19215.8,6323.82 19214,6323.82L19200.9,6323.82C19199.1,6323.82 19197.6,6325.32 19197.6,6327.17C19197.6,6329.01 19199.1,6330.51 19200.9,6330.51L19214,6330.51C19215.8,6330.51 19217.3,6329.01 19217.3,6327.17Z" style="fill:white;"/>
            </g>
            <g transform="matrix(-0.123711,0.234937,0.461697,0.0629512,6681.81,-3747.28)">
                <path d="M19217.3,6327.17C19217.3,6325.32 19215.8,6323.82 19214,6323.82L19200.9,6323.82C19199.1,6323.82 19197.6,6325.32 19197.6,6327.17C19197.6,6329.01 19199.1,6330.51 19200.9,6330.51L19214,6330.51C19215.8,6330.51 19217.3,6329.01 19217.3,6327.17Z" style="fill:rgb(226,233,239);"/>
            </g>
            <g transform="matrix(-1.48142e-16,0.243225,0.477984,3.34723e-17,4207.99,-3507.76)">
                <path d="M19217.3,6327.17C19217.3,6325.32 19215.8,6323.82 19214,6323.82L19200.9,6323.82C19199.1,6323.82 19197.6,6325.32 19197.6,6327.17C19197.6,6329.01 19199.1,6330.51 19200.9,6330.51L19214,6330.51C19215.8,6330.51 19217.3,6329.01 19217.3,6327.17Z" style="fill:rgb(226,233,239);"/>
            </g>
            <g transform="matrix(1,-1.2326e-32,0,1,-9.09495e-12,7.70331)">
                <g transform="matrix(0.229874,1.25851e-17,1.22937e-15,0.164623,2206.91,611.841)">
                    <path d="M22010.1,3411.13C22010.1,3391.89 21988.1,3376.26 21961,3376.26C21933.9,3376.26 21911.9,3391.89 21911.9,3411.13L21911.9,3539.23C21911.9,3558.47 21933.9,3574.09 21961,3574.09C21988.1,3574.09 22010.1,3558.47 22010.1,3539.23L22010.1,3411.13Z" style="fill:white;"/>
                </g>
                <g transform="matrix(0.477984,1.32667e-17,-8.10101e-17,0.243225,-1925.68,-353.126)">
                    <path d="M19217.3,6327.17C19217.3,6325.32 19215.8,6323.82 19214,6323.82L19200.9,6323.82C19199.1,6323.82 19197.6,6325.32 19197.6,6327.17C19197.6,6329.01 19199.1,6330.51 19200.9,6330.51L19214,6330.51C19215.8,6330.51 19217.3,6329.01 19217.3,6327.17Z" style="fill:rgb(226,233,239);"/>
                </g>
                <g transform="matrix(0.477984,1.32667e-17,-8.10101e-17,0.243225,-1925.68,-350.46)">
                    <path d="M19217.3,6327.17C19217.3,6325.32 19215.8,6323.82 19214,6323.82L19200.9,6323.82C19199.1,6323.82 19197.6,6325.32 19197.6,6327.17C19197.6,6329.01 19199.1,6330.51 19200.9,6330.51L19214,6330.51C19215.8,6330.51 19217.3,6329.01 19217.3,6327.17Z" style="fill:rgb(226,233,239);"/>
                </g>
            </g>
            <g transform="matrix(1.16339,1.84766e-17,2.05823e-16,0.462013,-14477.4,-1569.66)">
                <path d="M18690.1,6008.01C18690.1,6005.85 18688.8,6004.09 18687.1,6004.09L18673.8,6004.09C18672.1,6004.09 18670.7,6005.85 18670.7,6008.01C18670.7,6010.17 18672.1,6011.92 18673.8,6011.92L18687.1,6011.92C18688.8,6011.92 18690.1,6010.17 18690.1,6008.01Z" style="fill:rgb(226,233,239);"/>
            </g>
            <g transform="matrix(1.16339,1.84766e-17,2.05823e-16,0.462013,-14448.3,-1569.66)">
                <path d="M18690.1,6008.01C18690.1,6005.85 18688.8,6004.09 18687.1,6004.09L18673.8,6004.09C18672.1,6004.09 18670.7,6005.85 18670.7,6008.01C18670.7,6010.17 18672.1,6011.92 18673.8,6011.92L18687.1,6011.92C18688.8,6011.92 18690.1,6010.17 18690.1,6008.01Z" style="fill:rgb(199,209,220);"/>
            </g>
            <g transform="matrix(0.509904,0.259467,-0.930215,0.473345,3392.98,-6531.7)">
                <path d="M18690.1,6008.01C18690.1,6005.85 18686.9,6004.09 18683,6004.09L18677.9,6004.09C18673.9,6004.09 18670.7,6005.85 18670.7,6008.01C18670.7,6010.17 18673.9,6011.92 18677.9,6011.92L18683,6011.92C18686.9,6011.92 18690.1,6010.17 18690.1,6008.01Z" style="fill:rgb(199,209,220);"/>
            </g>
            <g transform="matrix(-0.509904,0.259467,0.930215,0.473345,11147.1,-6531.7)">
                <path d="M18690.1,6008.01C18690.1,6005.85 18686.9,6004.09 18683,6004.09L18677.9,6004.09C18673.9,6004.09 18670.7,6005.85 18670.7,6008.01C18670.7,6010.17 18673.9,6011.92 18677.9,6011.92L18683,6011.92C18686.9,6011.92 18690.1,6010.17 18690.1,6008.01Z" style="fill:rgb(226,233,239);"/>
            </g>
            <g transform="matrix(0.439337,1.3804e-17,5.6194e-17,0.223559,-1150.95,-237.349)">
                <path d="M19167.9,6303.91L19183.1,6334.4L19152.6,6334.4L19167.9,6303.91Z" style="fill:none;stroke:rgb(173,181,189);stroke-width:3.33px;"/>
            </g>
        </g>
        <g transform="matrix(0.567635,4.16334e-17,3.16414e-15,0.567635,1817.02,1026.72)">
            <g transform="matrix(0.322362,-2.08003e-17,5.08155e-16,0.012462,2598,165.09)">
                <path d="M22010.1,3475.18C22010.1,3420.59 22006.7,3376.26 22002.5,3376.26L21919.5,3376.26C21915.3,3376.26 21911.9,3420.59 21911.9,3475.18C21911.9,3529.77 21915.3,3574.09 21919.5,3574.09L22002.5,3574.09C22006.7,3574.09 22010.1,3529.77 22010.1,3475.18Z" style="fill:rgb(206,212,218);"/>
            </g>
            <g transform="matrix(0.322362,-2.08003e-17,5.08155e-16,0.012462,2598,169.644)">
                <path d="M22010.1,3475.18C22010.1,3420.59 22006.7,3376.26 22002.5,3376.26L21919.5,3376.26C21915.3,3376.26 21911.9,3420.59 21911.9,3475.18C21911.9,3529.77 21915.3,3574.09 21919.5,3574.09L22002.5,3574.09C22006.7,3574.09 22010.1,3529.77 22010.1,3475.18Z" style="fill:rgb(206,212,218);"/>
            </g>
            <g transform="matrix(0.961026,-5.04206e-17,1.23178e-15,0.0879437,-11465.6,-94.7573)">
                <path d="M22010.1,3425.72C22010.1,3398.43 22006.1,3376.26 22001.2,3376.26L21920.8,3376.26C21915.9,3376.26 21911.9,3398.43 21911.9,3425.72L21911.9,3524.64C21911.9,3551.93 21915.9,3574.09 21920.8,3574.09L22001.2,3574.09C22006.1,3574.09 22010.1,3551.93 22010.1,3524.64L22010.1,3425.72Z" style="fill:rgb(220,226,232);"/>
            </g>
            <g transform="matrix(0.801057,0,0,0.407622,-7969.85,-1138.71)">
                <circle cx="21941.6" cy="3307.81" r="88.916" style="fill:white;"/>
            </g>
            <g transform="matrix(0.200064,-1.18303e-17,2.89017e-16,0.012462,5135.02,165.09)">
                <path d="M22010.1,3475.18C22010.1,3420.59 22004.6,3376.26 21998,3376.26L21924,3376.26C21917.4,3376.26 21911.9,3420.59 21911.9,3475.18C21911.9,3529.77 21917.4,3574.09 21924,3574.09L21998,3574.09C22004.6,3574.09 22010.1,3529.77 22010.1,3475.18Z" style="fill:rgb(222,226,230);"/>
            </g>
            <g transform="matrix(0.200064,-1.18303e-17,2.89017e-16,0.012462,5135.02,169.644)">
                <path d="M22010.1,3475.18C22010.1,3420.59 22004.6,3376.26 21998,3376.26L21924,3376.26C21917.4,3376.26 21911.9,3420.59 21911.9,3475.18C21911.9,3529.77 21917.4,3574.09 21924,3574.09L21998,3574.09C22004.6,3574.09 22010.1,3529.77 22010.1,3475.18Z" style="fill:rgb(222,226,230);"/>
            </g>
            <g transform="matrix(0.681366,-2.99088e-17,7.30677e-16,0.0879437,-5404.62,-94.7573)">
                <path d="M22010.1,3425.72C22010.1,3398.43 22004.4,3376.26 21997.5,3376.26L21924.5,3376.26C21917.6,3376.26 21911.9,3398.43 21911.9,3425.72L21911.9,3524.64C21911.9,3551.93 21917.6,3574.09 21924.5,3574.09L21997.5,3574.09C22004.4,3574.09 22010.1,3551.93 22010.1,3524.64L22010.1,3425.72Z" style="fill:white;"/>
            </g>
            <g transform="matrix(1.40757,-2.80618e-17,-3.7559e-15,0.702099,-16719.5,-3903.85)">
                <path d="M18693.2,5809.03C18695.9,5808.6 18698.6,5808.37 18701.4,5808.37C18729.3,5808.37 18751.9,5830.99 18751.9,5858.84C18751.9,5886.7 18729.3,5909.32 18701.4,5909.32C18698.6,5909.32 18695.9,5909.09 18693.2,5908.65C18717.2,5904.74 18735.5,5883.92 18735.5,5858.84C18735.5,5833.77 18717.2,5812.94 18693.2,5809.03Z" style="fill:rgb(226,233,239);"/>
            </g>
            <g transform="matrix(1,-1.2326e-32,0,1,0,-5.80354)">
                <g transform="matrix(0.524305,-3.47486e-18,1.09814e-16,0.246552,-1897.48,-605.11)">
                    <circle cx="21941.6" cy="3307.81" r="88.916" style="fill:rgb(252,196,105);"/>
                </g>
                <g transform="matrix(0.164533,-2.30817e-18,8.92639e-17,0.0677099,5977.19,-21.7812)">
                    <path d="M21837.8,3307.81C21854.2,3253.91 21889.7,3219.8 21927.9,3207.52" style="fill:none;stroke:rgb(255,230,179);stroke-width:33.33px;"/>
                </g>
                <g transform="matrix(1.10344,-8.21049e-17,-3.58437e-15,0.641609,-11029.4,-3548.65)">
                    <path d="M18725,5833.88C18734.3,5839.62 18740.3,5848.67 18740.3,5858.84C18740.3,5876.19 18722.9,5890.27 18701.4,5890.27C18685.9,5890.27 18672.5,5882.9 18666.3,5872.26C18672.8,5876.31 18681,5878.72 18689.9,5878.72C18711.3,5878.72 18728.7,5864.64 18728.7,5847.29C18728.7,5842.5 18727.4,5837.95 18725,5833.88Z" style="fill:rgb(245,159,66);"/>
                </g>
                <g transform="matrix(1.28572,-9.64332e-17,1.80812e-16,0.306096,-18459.2,-480.356)">
                    <path d="M21828.9,2282.33C21833.4,2282.33 21837.1,2283.47 21837.1,2288C21837.1,2292.54 21833.4,2294.16 21828.9,2294.16C21824.4,2294.16 21820.7,2292.54 21820.7,2288C21820.7,2283.47 21824.4,2282.33 21828.9,2282.33Z" style="fill:rgb(158,85,85);"/>
                </g>
                <g transform="matrix(0.868593,-2.83853e-32,-7.88861e-31,0.868593,1264.49,28.4116)">
                    <g transform="matrix(0.974938,-0.286425,0.562881,0.496103,-12945.6,5327.9)">
                        <path d="M21821.4,2252.85C21821.4,2251.57 21820.4,2250.54 21819.1,2250.54L21812,2250.54C21810.7,2250.54 21809.7,2251.57 21809.7,2252.85C21809.7,2254.12 21810.7,2255.16 21812,2255.16L21819.1,2255.16C21820.4,2255.16 21821.4,2254.12 21821.4,2252.85Z" style="fill:rgb(193,115,89);"/>
                    </g>
                    <g transform="matrix(-0.974938,-0.286425,-0.562881,0.496103,32154,5327.9)">
                        <path d="M21821.4,2252.85C21821.4,2251.57 21820.4,2250.54 21819.1,2250.54L21812,2250.54C21810.7,2250.54 21809.7,2251.57 21809.7,2252.85C21809.7,2254.12 21810.7,2255.16 21812,2255.16L21819.1,2255.16C21820.4,2255.16 21821.4,2254.12 21821.4,2252.85Z" style="fill:rgb(193,115,89);"/>
                    </g>
                </g>
                <g transform="matrix(0.868593,-3.37384e-32,-7.88861e-31,0.868593,1264.02,30.3997)">
                    <g transform="matrix(1,0,0,1,-19.4191,-2.62258)">
                        <g transform="matrix(0.142896,0,5.03475e-32,0.0727136,6471.25,-30.8927)">
                            <circle cx="21941.6" cy="3307.81" r="88.916" style="fill:rgb(255,249,219);"/>
                        </g>
                        <g transform="matrix(0.0309135,0,0,0.0157305,8928.33,157.597)">
                            <circle cx="21941.6" cy="3307.81" r="88.916" style="fill:rgb(33,37,41);"/>
                        </g>
                    </g>
                    <g transform="matrix(1.1393,1.2326e-32,-7.88861e-31,1.1393,-1322.54,-31.8238)">
                        <g transform="matrix(0.125425,0,0,0.0638231,6854.6,-1.48466)">
                            <circle cx="21941.6" cy="3307.81" r="88.916" style="fill:rgb(255,249,219);"/>
                        </g>
                        <g transform="matrix(0.0309135,0,0,0.0157305,8928.33,157.597)">
                            <circle cx="21941.6" cy="3307.81" r="88.916" style="fill:rgb(33,37,41);"/>
                        </g>
                    </g>
                </g>
            </g>
        </g>
    </g>
</svg>
