<?xml version="1.0" encoding="UTF-8" standalone="no"?>
<!DOCTYPE svg PUBLIC "-//W3C//DTD SVG 1.1//EN" "http://www.w3.org/Graphics/SVG/1.1/DTD/svg11.dtd">
<svg width="100%" height="100%" viewBox="0 0 256 256" version="1.1" xmlns="http://www.w3.org/2000/svg" xmlns:xlink="http://www.w3.org/1999/xlink" xml:space="preserve" xmlns:serif="http://www.serif.com/" style="fill-rule:evenodd;clip-rule:evenodd;stroke-linejoin:round;stroke-miterlimit:2;">
    <g id="Axe" transform="matrix(2.50122,2.80828e-16,0,3.81425,-13421.3,-4024.24)">
        <g transform="matrix(0.640075,0,0,1.07534,2017.29,-870.599)">
            <path d="M5297.81,1800.85C5297.81,1799.78 5295.58,1798.9 5292.83,1798.9L5282.87,1798.9C5280.12,1798.9 5277.89,1799.78 5277.89,1800.85L5277.89,1845.35C5277.89,1846.42 5280.12,1847.3 5282.87,1847.3L5292.83,1847.3C5295.58,1847.3 5297.81,1846.42 5297.81,1845.35L5297.81,1800.85Z" style="fill:rgb(207,110,83);"/>
        </g>
        <g transform="matrix(0.530125,-6.2427e-18,0,0.985253,2602.81,-666.218)">
            <rect x="5280.08" y="1755.94" width="12.026" height="48.622" style="fill:rgb(181,87,72);"/>
        </g>
        <g transform="matrix(1,0,0,1,91.1012,-112.745)">
            <g transform="matrix(0.76728,0,0,0.503148,1233.78,214.038)">
                <circle cx="5301.15" cy="2012.2" r="3.704" style="fill:rgb(115,46,49);"/>
            </g>
            <g transform="matrix(0.76728,0,0,0.503148,1252.92,214.038)">
                <circle cx="5301.15" cy="2012.2" r="3.704" style="fill:rgb(115,46,49);"/>
            </g>
        </g>
        <g transform="matrix(0.965332,0,0,0.286404,297.382,591.318)">
            <path d="M5297.81,1809.91C5297.81,1803.84 5295.58,1798.9 5292.83,1798.9L5282.87,1798.9C5280.12,1798.9 5277.89,1803.84 5277.89,1809.91L5277.89,1836.29C5277.89,1842.36 5280.12,1847.3 5282.87,1847.3L5292.83,1847.3C5295.58,1847.3 5297.81,1842.36 5297.81,1836.29L5297.81,1809.91Z" style="fill:rgb(162,66,69);"/>
        </g>
        <g transform="matrix(0.529696,4.59587e-20,0,0.178068,2605.07,753.122)">
            <rect x="5280.08" y="1755.94" width="12.026" height="48.622" style="fill:rgb(147,60,62);"/>
        </g>
        <g transform="matrix(-5.15638,-3.2852e-16,1.02394e-14,4.10634,6848.36,-12580.3)">
            <g transform="matrix(0.206568,0,0,0.148224,-705.053,2113.74)">
                <path d="M4731.01,8180.99C4731.9,8150.18 4742.18,8141.23 4747.45,8146.01C4753.16,8151.19 4747.87,8173.59 4765.6,8167.42C4767.24,8171.54 4767.24,8190.69 4765.6,8194.81C4747.87,8188.64 4753.16,8211.04 4747.45,8216.22C4742.18,8221 4731.9,8212.05 4731.01,8181.24L4731,8181.24L4731,8181.11L4731,8180.99L4731.01,8180.99Z" style="fill:rgb(205,212,219);"/>
            </g>
            <g transform="matrix(0.206568,0,0,0.148224,-705.053,2113.74)">
                <path d="M4736.85,8180.99C4736.9,8163.18 4741.94,8148.75 4748.15,8148.75C4752.67,8148.75 4747.87,8173.59 4765.6,8167.42C4767.24,8171.54 4767.24,8190.69 4765.6,8194.81C4747.87,8188.64 4752.67,8213.48 4748.15,8213.48C4741.94,8213.48 4736.9,8199.05 4736.85,8181.24L4736.85,8181.24L4736.85,8181.2L4736.85,8181.11L4736.85,8181.02L4736.85,8180.99L4736.85,8180.99Z" style="fill:rgb(171,181,190);"/>
            </g>
            <g transform="matrix(-0.0775361,-1.33716e-17,1.26784e-16,0.0638463,287.498,3320.56)">
                <path d="M120.925,120.714L120.925,61.474C116.517,61.85 111.224,61.23 104.831,59.292C100.475,68.867 100.475,113.321 104.831,122.895C111.224,120.958 116.517,120.338 120.925,120.714Z" style="fill:rgb(132,142,151);"/>
            </g>
        </g>
        <g transform="matrix(0.903509,0,0,0.446517,624.292,264.89)">
            <path d="M5297.81,1805.51C5297.81,1801.87 5295.58,1798.9 5292.83,1798.9L5282.87,1798.9C5280.12,1798.9 5277.89,1801.87 5277.89,1805.51L5277.89,1840.69C5277.89,1844.33 5280.12,1847.3 5282.87,1847.3L5292.83,1847.3C5295.58,1847.3 5297.81,1844.33 5297.81,1840.69L5297.81,1805.51Z" style="fill:rgb(0,173,194);"/>
        </g>
        <g transform="matrix(0.399805,-2.94361e-17,0,0.262175,5365.92,1055.05)">
            <path d="M90.027,49.886L90.027,132.302L101.282,132.302C107.494,132.302 112.537,127.259 112.537,121.047L112.537,61.141C112.537,54.929 107.494,49.886 101.282,49.886L90.027,49.886Z" style="fill:rgb(0,155,176);"/>
        </g>
        <g transform="matrix(0.965926,0.169722,-0.258819,0.633411,741.864,-979.949)">
            <path d="M5326.64,1830.74C5326.64,1829.7 5325.79,1828.86 5324.76,1828.86L5305.21,1828.86C5304.17,1828.86 5303.33,1829.7 5303.33,1830.74C5303.33,1831.78 5304.17,1832.62 5305.21,1832.62L5324.76,1832.62C5325.79,1832.62 5326.64,1831.78 5326.64,1830.74Z" style="fill:rgb(0,135,156);"/>
            <clipPath id="_clip1">
                <path d="M5326.64,1830.74C5326.64,1829.7 5325.79,1828.86 5324.76,1828.86L5305.21,1828.86C5304.17,1828.86 5303.33,1829.7 5303.33,1830.74C5303.33,1831.78 5304.17,1832.62 5305.21,1832.62L5324.76,1832.62C5325.79,1832.62 5326.64,1831.78 5326.64,1830.74Z"/>
            </clipPath>
            <g clip-path="url(#_clip1)">
                <g transform="matrix(0.903767,-0.242164,0.0534342,0.199419,448.235,2755.65)">
                    <rect x="5280.08" y="1755.94" width="12.026" height="48.622" style="fill:rgb(0,116,136);"/>
                </g>
            </g>
        </g>
        <g transform="matrix(0.965926,0.169722,-0.258819,0.633411,741.864,-986.349)">
            <path d="M5326.64,1830.74C5326.64,1829.7 5325.79,1828.86 5324.76,1828.86L5305.21,1828.86C5304.17,1828.86 5303.33,1829.7 5303.33,1830.74C5303.33,1831.78 5304.17,1832.62 5305.21,1832.62L5324.76,1832.62C5325.79,1832.62 5326.64,1831.78 5326.64,1830.74Z" style="fill:rgb(0,135,156);"/>
            <clipPath id="_clip2">
                <path d="M5326.64,1830.74C5326.64,1829.7 5325.79,1828.86 5324.76,1828.86L5305.21,1828.86C5304.17,1828.86 5303.33,1829.7 5303.33,1830.74C5303.33,1831.78 5304.17,1832.62 5305.21,1832.62L5324.76,1832.62C5325.79,1832.62 5326.64,1831.78 5326.64,1830.74Z"/>
            </clipPath>
            <g clip-path="url(#_clip2)">
                <g transform="matrix(0.903767,-0.242164,0.0534342,0.199419,448.128,2755.25)">
                    <rect x="5280.08" y="1755.94" width="12.026" height="48.622" style="fill:rgb(0,116,136);"/>
                </g>
            </g>
        </g>
        <g transform="matrix(0.901342,0,0,0.59106,612.048,27.4096)">
            <path d="M5312.63,1745.98C5313,1745.51 5313.56,1745.24 5314.15,1745.24C5314.74,1745.24 5315.3,1745.51 5315.66,1745.98C5317.9,1748.86 5322.03,1754.16 5323.8,1756.42C5323.95,1756.62 5323.98,1756.89 5323.87,1757.12C5323.76,1757.34 5323.53,1757.49 5323.28,1757.49C5319.49,1757.49 5308.81,1757.49 5305.02,1757.49C5304.76,1757.49 5304.53,1757.34 5304.42,1757.12C5304.31,1756.89 5304.34,1756.62 5304.49,1756.42C5306.26,1754.16 5310.39,1748.86 5312.63,1745.98Z" style="fill:rgb(255,236,140);"/>
        </g>
        <g transform="matrix(0.399805,-2.94361e-17,0,0.262175,5365.92,1055.05)">
            <path d="M90.027,14.867C91.36,14.867 92.618,15.481 93.437,16.533C98.494,23.021 107.811,34.977 111.785,40.077C112.135,40.526 112.198,41.135 111.948,41.647C111.698,42.159 111.179,42.484 110.609,42.484L90.027,42.484L90.027,14.867Z" style="fill:rgb(230,192,67);"/>
        </g>
        <g transform="matrix(0.76728,0,0,0.503148,1334.45,101.293)">
            <circle cx="5301.15" cy="2012.2" r="3.704" style="fill:rgb(115,46,49);"/>
        </g>
    </g>
</svg>
