<?xml version="1.0" encoding="UTF-8" standalone="no"?>
<!DOCTYPE svg PUBLIC "-//W3C//DTD SVG 1.1//EN" "http://www.w3.org/Graphics/SVG/1.1/DTD/svg11.dtd">
<svg width="100%" height="100%" viewBox="0 0 256 256" version="1.1" xmlns="http://www.w3.org/2000/svg" xmlns:xlink="http://www.w3.org/1999/xlink" xml:space="preserve" xmlns:serif="http://www.serif.com/" style="fill-rule:evenodd;clip-rule:evenodd;stroke-linejoin:round;stroke-miterlimit:2;">
    <g id="Balloons" transform="matrix(2.50942,0,0,2.37455,-11341.1,-3093.17)">
        <g transform="matrix(0.926634,-0.397319,0.355759,0.926634,-140.135,2009.92)">
            <g transform="matrix(0.620512,0,-3.64017e-17,1.13378,1589.3,-1105.33)">
                <path d="M4823.22,2086.57C4823.22,2086.29 4822.82,2086.06 4822.34,2086.06C4821.85,2086.06 4821.45,2086.29 4821.45,2086.57L4821.45,2128.65C4821.45,2128.93 4821.85,2129.16 4822.34,2129.16C4822.82,2129.16 4823.22,2128.93 4823.22,2128.65L4823.22,2086.57Z" style="fill:white;"/>
            </g>
            <g transform="matrix(0.620512,0,0,0.655755,1709.59,-113.302)">
                <path d="M4624.83,2111.12C4607.3,2109.29 4593.61,2094.45 4593.61,2076.44C4593.61,2057.19 4609.23,2041.57 4628.48,2041.57C4647.72,2041.57 4663.35,2057.19 4663.35,2076.44C4663.35,2094.45 4649.66,2109.29 4632.12,2111.12L4635.36,2116.84C4635.4,2116.92 4635.44,2117.01 4635.46,2117.11C4635.68,2118.36 4634.91,2119.6 4633.66,2119.94C4632.58,2120.23 4631.47,2119.75 4630.92,2118.84C4630.77,2120.05 4629.73,2120.99 4628.47,2120.99C4627.22,2120.99 4626.18,2120.05 4626.03,2118.84C4625.48,2119.75 4624.37,2120.23 4623.29,2119.94C4622.04,2119.6 4621.27,2118.36 4621.5,2117.11C4621.52,2117.02 4621.55,2116.93 4621.6,2116.84C4621.92,2116.26 4623.89,2112.79 4624.83,2111.12Z" style="fill:rgb(255,93,101);"/>
            </g>
            <g transform="matrix(0.226879,0.0972804,-0.0920521,0.239765,4561.43,1212.85)">
                <path d="M177.266,21.762C200.952,37.658 216.556,64.692 216.556,95.342C216.556,144.218 176.876,183.899 128,183.899C97.35,183.899 70.316,168.294 54.42,144.608C68.513,154.066 85.46,159.584 103.685,159.584C152.561,159.584 192.242,119.903 192.242,71.028C192.242,52.802 186.724,35.855 177.266,21.762Z" style="fill:rgb(255,61,73);"/>
            </g>
            <g transform="matrix(0.14769,0,0,0.156078,3858.15,918.886)">
                <circle cx="4843.47" cy="2046.48" r="29.937" style="fill:white;"/>
            </g>
            <g transform="matrix(0.601918,0,0,0.396019,1617.75,444.156)">
                <path d="M4929.62,2089.39C4929.62,2088.32 4929.08,2087.45 4928.41,2087.45L4919.66,2087.45C4918.99,2087.45 4918.45,2088.32 4918.45,2089.39C4918.45,2090.46 4918.99,2091.33 4919.66,2091.33L4928.41,2091.33C4929.08,2091.33 4929.62,2090.46 4929.62,2089.39Z" style="fill:white;"/>
            </g>
        </g>
        <g transform="matrix(1,6.93889e-18,1.38778e-17,1,-10.8279,77.1683)">
            <g transform="matrix(0.620512,7.74008e-17,1.43162e-16,1.69115,1589.3,-2268.05)">
                <path d="M4823.22,2086.4C4823.22,2086.21 4822.82,2086.06 4822.34,2086.06C4821.85,2086.06 4821.45,2086.21 4821.45,2086.4L4821.45,2128.82C4821.45,2129.01 4821.85,2129.16 4822.34,2129.16C4822.82,2129.16 4823.22,2129.01 4823.22,2128.82L4823.22,2086.4Z" style="fill:white;"/>
            </g>
            <g transform="matrix(0.620512,0,0,0.655755,1709.59,-113.302)">
                <path d="M4624.83,2111.12C4607.3,2109.29 4593.61,2094.45 4593.61,2076.44C4593.61,2057.19 4609.23,2041.57 4628.48,2041.57C4647.72,2041.57 4663.35,2057.19 4663.35,2076.44C4663.35,2094.45 4649.66,2109.29 4632.12,2111.12L4635.36,2116.84C4635.4,2116.92 4635.44,2117.01 4635.46,2117.11C4635.68,2118.36 4634.91,2119.6 4633.66,2119.94C4632.58,2120.23 4631.47,2119.75 4630.92,2118.84C4630.77,2120.05 4629.73,2120.99 4628.47,2120.99C4627.22,2120.99 4626.18,2120.05 4626.03,2118.84C4625.48,2119.75 4624.37,2120.23 4623.29,2119.94C4622.04,2119.6 4621.27,2118.36 4621.5,2117.11C4621.52,2117.02 4621.55,2116.93 4621.6,2116.84C4621.92,2116.26 4623.89,2112.79 4624.83,2111.12Z" style="fill:rgb(85,194,255);"/>
            </g>
            <g transform="matrix(0.244842,-1.69893e-18,-3.59085e-18,0.258748,4550.43,1223.81)">
                <path d="M177.266,21.762C200.952,37.658 216.556,64.692 216.556,95.342C216.556,144.218 176.876,183.899 128,183.899C97.35,183.899 70.316,168.294 54.42,144.608C68.513,154.066 85.46,159.584 103.685,159.584C152.561,159.584 192.242,119.903 192.242,71.028C192.242,52.802 186.724,35.855 177.266,21.762Z" style="fill:rgb(0,172,254);"/>
            </g>
            <g transform="matrix(0.14769,0,0,0.156078,3858.15,918.886)">
                <circle cx="4843.47" cy="2046.48" r="29.937" style="fill:white;"/>
            </g>
            <g transform="matrix(0.601918,0,0,0.396019,1617.75,444.156)">
                <path d="M4929.62,2089.39C4929.62,2088.32 4929.08,2087.45 4928.41,2087.45L4919.66,2087.45C4918.99,2087.45 4918.45,2088.32 4918.45,2089.39C4918.45,2090.46 4918.99,2091.33 4919.66,2091.33L4928.41,2091.33C4929.08,2091.33 4929.62,2090.46 4929.62,2089.39Z" style="fill:white;"/>
            </g>
        </g>
        <g transform="matrix(0.897862,0.465284,-0.416616,0.897862,997.603,-1894.65)">
            <g transform="matrix(0.620512,0,0,0.877895,1589.3,-571.544)">
                <path d="M4823.22,2086.72C4823.22,2086.36 4822.82,2086.06 4822.34,2086.06C4821.85,2086.06 4821.45,2086.36 4821.45,2086.72L4821.45,2128.5C4821.45,2128.87 4821.85,2129.16 4822.34,2129.16C4822.82,2129.16 4823.22,2128.87 4823.22,2128.5L4823.22,2086.72Z" style="fill:white;"/>
            </g>
            <g transform="matrix(0.620512,0,0,0.655755,1709.59,-113.302)">
                <path d="M4624.83,2111.12C4607.3,2109.29 4593.61,2094.45 4593.61,2076.44C4593.61,2057.19 4609.23,2041.57 4628.48,2041.57C4647.72,2041.57 4663.35,2057.19 4663.35,2076.44C4663.35,2094.45 4649.66,2109.29 4632.12,2111.12L4635.36,2116.84C4635.4,2116.92 4635.44,2117.01 4635.46,2117.11C4635.68,2118.36 4634.91,2119.6 4633.66,2119.94C4632.58,2120.23 4631.47,2119.75 4630.92,2118.84C4630.77,2120.05 4629.73,2120.99 4628.47,2120.99C4627.22,2120.99 4626.18,2120.05 4626.03,2118.84C4625.48,2119.75 4624.37,2120.23 4623.29,2119.94C4622.04,2119.6 4621.27,2118.36 4621.5,2117.11C4621.52,2117.02 4621.55,2116.93 4621.6,2116.84C4621.92,2116.26 4623.89,2112.79 4624.83,2111.12Z" style="fill:rgb(255,224,73);"/>
            </g>
            <g transform="matrix(0.219834,-0.113921,0.107799,0.23232,4543.45,1240.86)">
                <path d="M177.266,21.762C200.952,37.658 216.556,64.692 216.556,95.342C216.556,144.218 176.876,183.899 128,183.899C97.35,183.899 70.316,168.294 54.42,144.608C68.513,154.066 85.46,159.584 103.685,159.584C152.561,159.584 192.242,119.903 192.242,71.028C192.242,52.802 186.724,35.855 177.266,21.762Z" style="fill:rgb(255,203,0);"/>
            </g>
            <g transform="matrix(0.14769,0,0,0.156078,3858.15,918.886)">
                <circle cx="4843.47" cy="2046.48" r="29.937" style="fill:white;"/>
            </g>
            <g transform="matrix(0.601918,0,0,0.396019,1617.75,444.156)">
                <path d="M4929.62,2089.39C4929.62,2088.32 4929.08,2087.45 4928.41,2087.45L4919.66,2087.45C4918.99,2087.45 4918.45,2088.32 4918.45,2089.39C4918.45,2090.46 4918.99,2091.33 4919.66,2091.33L4928.41,2091.33C4929.08,2091.33 4929.62,2090.46 4929.62,2089.39Z" style="fill:white;"/>
            </g>
        </g>
    </g>
</svg>
