<?xml version="1.0" encoding="UTF-8" standalone="no"?>
<!DOCTYPE svg PUBLIC "-//W3C//DTD SVG 1.1//EN" "http://www.w3.org/Graphics/SVG/1.1/DTD/svg11.dtd">
<svg width="100%" height="100%" viewBox="0 0 256 256" version="1.1" xmlns="http://www.w3.org/2000/svg" xmlns:xlink="http://www.w3.org/1999/xlink" xml:space="preserve" xmlns:serif="http://www.serif.com/" style="fill-rule:evenodd;clip-rule:evenodd;stroke-linejoin:round;stroke-miterlimit:2;">
    <g id="Banana" transform="matrix(1.0606,0.0872944,-0.13312,1.61738,-6408.5,-1012.77)">
        <g>
            <g transform="matrix(0.717694,-0.271719,0.5,0.567901,2495.08,1228.89)">
                <path d="M4628.05,599.625C4628.05,595.405 4623.92,591.979 4618.83,591.979C4613.73,591.979 4609.6,595.405 4609.6,599.625L4609.6,665.875C4609.6,670.095 4613.73,673.521 4618.83,673.521C4623.92,673.521 4628.05,670.095 4628.05,665.875L4628.05,599.625Z" style="fill:rgb(164,98,78);"/>
            </g>
            <g transform="matrix(0.936515,-0.0505464,0.0770811,0.614125,6079.73,298.041)">
                <path d="M26.11,21.779L63.187,100.233C63.229,100.214 63.272,100.194 63.314,100.174C67.375,98.255 69.113,93.401 67.194,89.341L37.071,25.598C35.152,21.538 30.298,19.799 26.237,21.718C26.195,21.738 26.152,21.759 26.11,21.779Z" style="fill:rgb(151,89,72);"/>
            </g>
        </g>
        <g transform="matrix(0.866025,0.327878,-0.762479,0.866025,1129.84,-1966.06)">
            <g transform="matrix(5.55112e-17,-0.655755,1,0,5483.02,4240.38)">
                <path d="M5941.84,607.717C5944.66,601.121 5943.24,593.478 5938.25,588.324C5933.26,583.171 5925.67,581.513 5918.99,584.117C5876.81,600.643 5845.77,642.215 5833.32,688.675C5818.48,744.026 5873.22,824.676 5936.57,811.056C5942.05,809.907 5946.68,806.242 5949.05,801.165C5951.42,796.088 5951.26,790.19 5948.62,785.247C5935,759.652 5925.15,725.666 5925.15,689.399C5925.15,659.478 5931.86,631.11 5941.84,607.717Z" style="fill:rgb(255,194,0);"/>
            </g>
            <g transform="matrix(0.772505,-0.350837,0.535012,0.506575,6013.06,337.807)">
                <path d="M37.565,48.523C39.277,47.647 41.14,47.025 43.103,46.7C50.635,45.457 58.178,48.852 62.241,55.314C76.659,78.22 97.416,101.272 123.593,119.402C155.322,141.376 191.02,153.353 221.667,156.943C226.538,157.507 230.957,159.931 234.043,163.638C219.775,197.362 137.899,189.549 98.044,160.679C60.285,133.327 38.805,91.693 37.565,48.523Z" style="fill:rgb(255,224,73);"/>
            </g>
        </g>
        <g transform="matrix(0.562741,0.36902,-0.394252,0.258533,6247.26,261.146)">
            <ellipse cx="228.594" cy="174.28" rx="15.871" ry="16.962" style="fill:rgb(176,104,84);"/>
        </g>
    </g>
</svg>
