<?xml version="1.0" encoding="UTF-8" standalone="no"?>
<!DOCTYPE svg PUBLIC "-//W3C//DTD SVG 1.1//EN" "http://www.w3.org/Graphics/SVG/1.1/DTD/svg11.dtd">
<svg width="100%" height="100%" viewBox="0 0 256 256" version="1.1" xmlns="http://www.w3.org/2000/svg" xmlns:xlink="http://www.w3.org/1999/xlink" xml:space="preserve" xmlns:serif="http://www.serif.com/" style="fill-rule:evenodd;clip-rule:evenodd;stroke-linejoin:round;stroke-miterlimit:2;">
    <g id="Barrel" transform="matrix(2.3565,0,0,2.22986,-13558.9,-1764.51)">
        <g transform="matrix(0.422327,0,0,0.446313,2934.21,207.281)">
            <path d="M6731.36,1558.98C6721.89,1558.98 6713.44,1553.02 6710.27,1544.09C6686.51,1476.51 6682.47,1409 6710.27,1330.24C6713.44,1321.33 6721.87,1315.38 6731.32,1315.38C6731.32,1315.38 6838.24,1315.38 6879.94,1315.38C6889.6,1315.38 6898.13,1321.67 6900.99,1330.9C6923.5,1404.88 6921.81,1480.94 6899.59,1544.08C6896.42,1553 6887.98,1558.95 6878.52,1558.95C6844.79,1558.98 6765.09,1558.98 6731.36,1558.98Z" style="fill:rgb(186,100,88);"/>
        </g>
        <g transform="matrix(0.424357,0,0,0.44846,5753.8,791.31)">
            <path d="M104.45,6.786L104.45,249.213L97.656,249.213L97.656,6.786L104.45,6.786ZM158.344,6.786L158.344,249.206L151.55,249.207L151.55,6.786L158.344,6.786ZM50.556,7.181L50.556,248.813C48.146,248.349 45.855,247.494 43.762,246.304L43.762,9.68C45.855,8.493 48.146,7.641 50.556,7.181ZM205.444,6.965C207.837,7.272 210.127,7.968 212.238,8.996L212.238,246.275C210.147,247.466 207.855,248.323 205.444,248.787L205.444,6.965Z" style="fill:rgb(155,79,68);"/>
        </g>
        <g transform="matrix(0.424357,0,0,0.44846,5753.8,791.31)">
            <path d="M127.882,6.786L202.641,6.786C212.253,6.786 220.746,13.045 223.592,22.227C245.993,95.859 244.311,171.552 222.193,234.391C219.041,243.262 210.645,249.188 201.231,249.189C184.423,249.201 156.144,249.208 127.882,249.211L127.882,6.786Z" style="fill:rgb(87,37,29);fill-opacity:0.31;"/>
        </g>
        <g>
            <g transform="matrix(0.620512,0,0,0.502196,1584.13,153.546)">
                <path d="M6886.68,1370.58C6886.68,1368.22 6885.22,1366.31 6883.41,1366.31C6862.85,1366.31 6751.68,1366.31 6731.12,1366.31C6729.31,1366.31 6727.85,1368.22 6727.85,1370.58C6727.85,1376.02 6727.85,1385.36 6727.85,1390.8C6727.85,1393.16 6729.31,1395.07 6731.12,1395.07C6751.68,1395.07 6862.85,1395.07 6883.41,1395.07C6885.22,1395.07 6886.68,1393.16 6886.68,1390.8C6886.68,1385.36 6886.68,1376.02 6886.68,1370.58Z" style="fill:rgb(205,212,219);"/>
            </g>
            <g transform="matrix(0.424357,0,0,0.44846,5753.8,791.31)">
                <path d="M127.882,107.908L127.882,140.111L239.344,140.111C241.985,140.111 244.127,137.969 244.127,135.328C244.127,129.239 244.127,118.78 244.127,112.691C244.127,110.049 241.985,107.908 239.344,107.908L127.882,107.908Z" style="fill:rgb(132,142,151);"/>
            </g>
            <g transform="matrix(0.573829,0,0,0.502196,1901.91,115.863)">
                <path d="M6880.7,1369.42C6880.27,1367.58 6878.88,1366.31 6877.29,1366.31C6859.2,1366.31 6754.99,1366.31 6736.69,1366.31C6735.07,1366.31 6733.66,1367.63 6733.26,1369.52C6732.22,1374.42 6730.23,1383.81 6728.98,1389.74C6728.7,1391.02 6728.94,1392.37 6729.61,1393.42C6730.28,1394.46 6731.31,1395.07 6732.4,1395.07C6755.42,1395.07 6858.73,1395.07 6882.01,1395.07C6883.12,1395.07 6884.16,1394.44 6884.83,1393.38C6885.5,1392.31 6885.71,1390.93 6885.41,1389.64C6884.02,1383.66 6881.83,1374.27 6880.7,1369.42Z" style="fill:rgb(205,212,219);"/>
            </g>
            <g transform="matrix(0.424357,0,0,0.44846,5753.8,791.31)">
                <path d="M128,23.88L128,56.082L229.074,56.082C230.571,56.082 231.983,55.381 232.887,54.187C233.791,52.993 234.084,51.444 233.678,50.002C231.793,43.311 228.829,32.788 227.301,27.366C226.721,25.304 224.84,23.88 222.698,23.88L128,23.88Z" style="fill:rgb(132,142,151);"/>
            </g>
            <g transform="matrix(0.602354,0,0,0.502196,1707.73,191.229)">
                <path d="M6882.53,1371.63C6882.79,1370.35 6882.56,1369 6881.92,1367.96C6881.28,1366.92 6880.3,1366.31 6879.26,1366.31C6857.14,1366.31 6756.83,1366.31 6735.1,1366.31C6734.08,1366.31 6733.12,1366.89 6732.48,1367.89C6731.84,1368.89 6731.59,1370.21 6731.8,1371.47C6732.78,1377.32 6734.35,1386.69 6735.18,1391.68C6735.52,1393.66 6736.89,1395.07 6738.48,1395.07C6756.45,1395.07 6857.6,1395.07 6875.24,1395.07C6876.78,1395.07 6878.13,1393.74 6878.51,1391.84C6879.48,1386.94 6881.35,1377.55 6882.53,1371.63Z" style="fill:rgb(205,212,219);"/>
            </g>
            <g transform="matrix(0.424357,0,0,0.44846,5753.8,791.31)">
                <path d="M127.882,191.937L127.882,224.139L224.489,224.139C226.68,224.139 228.591,222.651 229.127,220.527C230.513,215.034 233.166,204.523 234.839,197.89C235.2,196.46 234.881,194.944 233.975,193.78C233.069,192.617 231.677,191.937 230.202,191.937L127.882,191.937Z" style="fill:rgb(132,142,151);"/>
            </g>
        </g>
        <g transform="matrix(0.80851,0,0,1.30297,1680.26,-201.198)">
            <g transform="matrix(0.636755,0,0,0.417556,-735.292,128.295)">
                <circle cx="9112.66" cy="1549.96" r="6.001" style="fill:rgb(132,142,151);"/>
            </g>
            <g transform="matrix(0.636755,0,0,0.417556,-658.754,128.295)">
                <circle cx="9112.66" cy="1549.96" r="6.001" style="fill:rgb(71,80,88);"/>
            </g>
        </g>
        <g transform="matrix(0.80851,0,0,1.30297,1680.26,-125.431)">
            <g transform="matrix(0.636755,0,0,0.417556,-735.292,128.295)">
                <circle cx="9112.66" cy="1549.96" r="6.001" style="fill:rgb(132,142,151);"/>
            </g>
            <g transform="matrix(0.636755,0,0,0.417556,-658.754,128.295)">
                <circle cx="9112.66" cy="1549.96" r="6.001" style="fill:rgb(71,80,88);"/>
            </g>
        </g>
        <g transform="matrix(0.80851,0,0,1.30297,1680.26,-163.515)">
            <g transform="matrix(0.636755,0,0,0.417556,-735.292,128.295)">
                <circle cx="9112.66" cy="1549.96" r="6.001" style="fill:rgb(132,142,151);"/>
            </g>
            <g transform="matrix(0.636755,0,0,0.417556,-658.754,128.295)">
                <circle cx="9112.66" cy="1549.96" r="6.001" style="fill:rgb(71,80,88);"/>
            </g>
        </g>
    </g>
</svg>
