<?xml version="1.0" encoding="UTF-8" standalone="no"?>
<!DOCTYPE svg PUBLIC "-//W3C//DTD SVG 1.1//EN" "http://www.w3.org/Graphics/SVG/1.1/DTD/svg11.dtd">
<svg width="100%" height="100%" viewBox="0 0 256 256" version="1.1" xmlns="http://www.w3.org/2000/svg" xmlns:xlink="http://www.w3.org/1999/xlink" xml:space="preserve" xmlns:serif="http://www.serif.com/" style="fill-rule:evenodd;clip-rule:evenodd;stroke-linejoin:round;stroke-miterlimit:2;">
    <g id="Baseball-Bat" serif:id="Baseball Bat" transform="matrix(2.22922,2.22922,-1.88085,1.88085,-12068.6,-13068.7)">
        <g transform="matrix(0.620512,0,0,0.655755,1587.01,-93.7219)">
            <path d="M6617.57,585.845C6617.57,584.882 6617.53,583.919 6617.44,582.96C6614.24,547.357 6610.13,496.267 6610.13,468.081C6610.13,461.978 6615.08,457.023 6621.19,457.023C6627.29,457.023 6632.24,461.978 6632.24,468.081C6632.24,496.267 6628.14,547.357 6624.93,582.96C6624.84,583.919 6624.8,584.882 6624.8,585.845C6624.8,593.04 6624.8,625.05 6624.8,635.902C6624.8,637.897 6623.18,639.514 6621.19,639.514C6621.19,639.514 6621.19,639.514 6621.18,639.514C6619.19,639.514 6617.57,637.897 6617.57,635.902C6617.57,625.05 6617.57,593.04 6617.57,585.845Z" style="fill:rgb(222,179,115);"/>
            <clipPath id="_clip1">
                <path d="M6617.57,585.845C6617.57,584.882 6617.53,583.919 6617.44,582.96C6614.24,547.357 6610.13,496.267 6610.13,468.081C6610.13,461.978 6615.08,457.023 6621.19,457.023C6627.29,457.023 6632.24,461.978 6632.24,468.081C6632.24,496.267 6628.14,547.357 6624.93,582.96C6624.84,583.919 6624.8,584.882 6624.8,585.845C6624.8,593.04 6624.8,625.05 6624.8,635.902C6624.8,637.897 6623.18,639.514 6621.19,639.514C6621.19,639.514 6621.19,639.514 6621.18,639.514C6619.19,639.514 6617.57,637.897 6617.57,635.902C6617.57,625.05 6617.57,593.04 6617.57,585.845Z"/>
            </clipPath>
            <g clip-path="url(#_clip1)">
                <g transform="matrix(0.361465,-0.405391,0.361465,0.405391,6528.7,548.346)">
                    <path d="M240.801,15.534C249.021,23.98 249.68,36.772 242.223,44.229C209.684,76.768 147.419,129.079 99.931,168.015L94.125,162.21L240.801,15.534Z" style="fill:rgb(197,142,75);"/>
                </g>
                <g transform="matrix(0.361465,-0.405391,0.361465,0.405391,6528.7,548.346)">
                    <path d="M108.058,131.423L124.438,147.804C121.356,150.361 118.3,152.89 115.282,155.383L100.479,140.579C102.971,137.561 105.5,134.505 108.058,131.423Z" style="fill:rgb(50,58,65);"/>
                </g>
                <g transform="matrix(0.361465,-0.405391,0.361465,0.405391,6528.7,548.346)">
                    <path d="M108.058,131.423L116.484,139.85L108.117,148.217L100.478,140.579C102.971,137.56 105.5,134.505 108.058,131.423Z" style="fill:rgb(69,80,89);"/>
                </g>
                <g transform="matrix(0.361465,-0.405391,0.361465,0.405391,6528.7,548.346)">
                    <path d="M93.058,149.583L106.278,162.803C100.804,167.305 95.497,171.651 90.416,175.8C89.114,176.863 87.866,177.991 86.678,179.179C77.804,188.053 38.324,227.533 24.939,240.918C22.479,243.378 18.247,243.136 15.488,240.376C15.487,240.375 15.486,240.374 15.485,240.373C12.726,237.614 12.483,233.383 14.944,230.922C28.328,217.537 67.808,178.058 76.682,169.184C77.871,167.995 78.998,166.747 80.061,165.445C84.21,160.364 88.556,155.058 93.058,149.583Z" style="fill:rgb(69,80,89);"/>
                </g>
                <g transform="matrix(0.361465,-0.405391,0.361465,0.405391,6528.7,548.346)">
                    <path d="M106.278,162.803C100.804,167.305 95.497,171.651 90.416,175.8C89.114,176.863 87.866,177.991 86.678,179.179C77.804,188.053 38.324,227.533 24.939,240.918C22.479,243.378 18.247,243.136 15.488,240.376L15.486,240.375L99.668,156.193L106.278,162.803Z" style="fill:rgb(50,58,65);"/>
                </g>
            </g>
        </g>
        <g transform="matrix(0.620512,0,0,0.655755,1586.96,-93.7219)">
            <path d="M6626.94,634.076C6626.94,633.075 6626.22,632.263 6625.33,632.263L6617.19,632.263C6616.3,632.263 6615.58,633.075 6615.58,634.076L6615.58,637.701C6615.58,638.701 6616.3,639.514 6617.19,639.514L6625.33,639.514C6626.22,639.514 6626.94,638.701 6626.94,637.701L6626.94,634.076Z" style="fill:rgb(208,168,108);"/>
        </g>
        <g transform="matrix(0.310256,0,0,0.655755,3643.01,-93.7219)">
            <path d="M6626.94,633.856C6626.94,632.977 6625.67,632.263 6624.1,632.263L6615.58,632.263L6615.58,639.514L6624.1,639.514C6625.67,639.514 6626.94,638.8 6626.94,637.92L6626.94,633.856Z" style="fill:rgb(197,142,75);"/>
        </g>
    </g>
</svg>
