<?xml version="1.0" encoding="UTF-8" standalone="no"?>
<!DOCTYPE svg PUBLIC "-//W3C//DTD SVG 1.1//EN" "http://www.w3.org/Graphics/SVG/1.1/DTD/svg11.dtd">
<svg width="100%" height="100%" viewBox="0 0 256 256" version="1.1" xmlns="http://www.w3.org/2000/svg" xmlns:xlink="http://www.w3.org/1999/xlink" xml:space="preserve" xmlns:serif="http://www.serif.com/" style="fill-rule:evenodd;clip-rule:evenodd;stroke-linejoin:round;stroke-miterlimit:2;">
    <g id="Bear" transform="matrix(1.46381,0,0,2.23225,-8551.05,-302.394)">
        <g transform="matrix(1,0,0,1,0,5.26626)">
            <g transform="matrix(1.03799,-0.392985,0.913887,1.03799,-362.934,2383.52)">
                <g transform="matrix(0.632998,0,-9.69114e-17,0.51955,2163.2,-841.287)">
                    <circle cx="5949.28" cy="1811.62" r="36.333" style="fill:rgb(178,98,72);"/>
                </g>
                <g transform="matrix(0.33753,0,-3.55342e-16,0.324027,3921.02,-487.073)">
                    <circle cx="5949.28" cy="1811.62" r="36.333" style="fill:rgb(115,59,50);"/>
                </g>
            </g>
            <g transform="matrix(-1.03799,-0.392985,-0.913887,1.03799,12221.1,2383.52)">
                <g transform="matrix(0.632998,0,-9.69114e-17,0.51955,2163.2,-841.287)">
                    <circle cx="5949.28" cy="1811.62" r="36.333" style="fill:rgb(178,98,72);"/>
                </g>
                <g transform="matrix(0.33753,0,-3.55342e-16,0.324027,3921.02,-487.073)">
                    <circle cx="5949.28" cy="1811.62" r="36.333" style="fill:rgb(115,59,50);"/>
                </g>
            </g>
        </g>
        <g transform="matrix(1.06429,-3.29671e-18,5.28466e-18,-0.761934,5803.27,332.123)">
            <path d="M118.212,110.053C160.16,110.053 194.216,133.15 194.216,173.055C194.216,212.961 160.16,236.058 118.212,236.058C76.264,236.058 42.207,212.961 42.207,173.055C42.207,133.15 76.264,110.053 118.212,110.053Z" style="fill:rgb(178,98,72);"/>
        </g>
        <g transform="matrix(2.74462,0,0,1.38649,-10395.5,-2334.79)">
            <ellipse cx="5947.82" cy="1834.5" rx="11.029" ry="13.641" style="fill:rgb(238,160,123);"/>
        </g>
        <g transform="matrix(0.525935,0,0,0.344885,5860.51,132.264)">
            <g transform="matrix(1.06117,0,0,1.06117,-5080.85,-363.352)">
                <path d="M4908.44,540.098C4908.44,540.92 4908.1,541.888 4907.6,542.933C4906.68,544.872 4905.16,546.979 4903.43,548.865C4901.71,550.735 4899.77,552.392 4897.94,553.407C4897.01,553.928 4896.13,554.296 4895.35,554.296C4894.04,554.296 4892.97,555.366 4892.97,556.685C4892.97,558.003 4894.04,559.074 4895.35,559.074C4896.81,559.074 4898.51,558.56 4900.27,557.583C4902.48,556.35 4904.86,554.369 4906.94,552.1C4910.58,548.147 4913.22,543.292 4913.22,540.098C4913.22,538.779 4912.15,537.709 4910.83,537.709C4909.51,537.709 4908.44,538.779 4908.44,540.098Z" style="fill:rgb(50,58,65);"/>
            </g>
            <g transform="matrix(1.06117,0,0,1.06117,-5059.39,-363.352)">
                <path d="M4906.11,554.296C4905.33,554.296 4904.45,553.928 4903.52,553.407C4901.69,552.392 4899.75,550.735 4898.03,548.865C4896.3,546.979 4894.78,544.872 4893.86,542.933C4893.36,541.888 4893.02,540.92 4893.02,540.098C4893.02,538.779 4891.94,537.709 4890.63,537.709C4889.31,537.709 4888.24,538.779 4888.24,540.098C4888.24,543.292 4890.88,548.147 4894.52,552.1C4896.6,554.369 4898.98,556.35 4901.19,557.583C4902.95,558.56 4904.65,559.074 4906.11,559.074C4907.42,559.074 4908.49,558.003 4908.49,556.685C4908.49,555.366 4907.42,554.296 4906.11,554.296Z" style="fill:rgb(50,58,65);"/>
            </g>
            <g transform="matrix(2.18575,0,0,2.18575,-10600.6,-954.506)">
                <path d="M4910.67,532.672L4910.67,523.209C4910.67,522.569 4910.15,522.049 4909.51,522.049C4908.87,522.049 4908.35,522.569 4908.35,523.209L4908.35,532.672C4908.35,533.312 4908.87,533.832 4909.51,533.832C4910.15,533.832 4910.67,533.312 4910.67,532.672Z" style="fill:rgb(50,58,65);"/>
            </g>
        </g>
        <g transform="matrix(0.881168,0,0,0.488559,5852.42,110.311)">
            <circle cx="86.998" cy="174.87" r="10.068" style="fill:rgb(105,54,46);"/>
        </g>
        <g transform="matrix(1.06429,0,0,0.697916,5805.19,64.9764)">
            <g transform="matrix(0.661858,0,0,0.661858,38.8714,55.7478)">
                <circle cx="86.998" cy="174.87" r="10.068" style="fill:rgb(55,44,56);"/>
            </g>
            <g transform="matrix(0.661858,0,0,0.661858,78.7829,55.7478)">
                <circle cx="86.998" cy="174.87" r="10.068" style="fill:rgb(55,44,56);"/>
            </g>
        </g>
        <g transform="matrix(0.683148,0,0,0.447978,5841.63,135.466)">
            <circle cx="90.633" cy="69.103" r="9.688" style="fill:rgb(255,226,226);"/>
        </g>
        <g transform="matrix(1.06429,0,0,0.697916,5801.15,62.5537)">
            <g transform="matrix(0.965926,0.258819,-0.207128,0.773012,113.49,34.1811)">
                <circle cx="86.998" cy="174.87" r="10.068" style="fill:rgb(181,73,70);"/>
            </g>
            <g transform="matrix(0.965926,-0.258819,0.207128,0.773012,-41.1658,79.2144)">
                <circle cx="86.998" cy="174.87" r="10.068" style="fill:rgb(181,73,70);"/>
            </g>
        </g>
    </g>
</svg>
