<?xml version="1.0" encoding="UTF-8" standalone="no"?>
<!DOCTYPE svg PUBLIC "-//W3C//DTD SVG 1.1//EN" "http://www.w3.org/Graphics/SVG/1.1/DTD/svg11.dtd">
<svg width="100%" height="100%" viewBox="0 0 256 256" version="1.1" xmlns="http://www.w3.org/2000/svg" xmlns:xlink="http://www.w3.org/1999/xlink" xml:space="preserve" xmlns:serif="http://www.serif.com/" style="fill-rule:evenodd;clip-rule:evenodd;stroke-linecap:round;stroke-linejoin:round;stroke-miterlimit:1.5;">
    <g id="Bee" transform="matrix(0.997456,0,0,1.96019,-8744.96,-3652.46)">
        <g transform="matrix(0.267794,0,0,0.16347,5080.09,-164.534)">
            <circle cx="14247.9" cy="12958.1" r="244.299" style="fill:rgb(168,92,77);"/>
        </g>
        <g transform="matrix(1,0,0,1,3.84623,12.4977)">
            <g transform="matrix(0.46837,0.109471,0,0.238333,1715.79,-2783.24)">
                <circle cx="15151.3" cy="12790.6" r="66.656" style="fill:white;"/>
            </g>
            <g transform="matrix(-0.46837,0.109471,0,0.238333,16067.7,-2783.24)">
                <circle cx="15151.3" cy="12790.6" r="66.656" style="fill:white;"/>
            </g>
        </g>
        <g transform="matrix(0.281654,0,0,0.156251,4882.62,-74.9322)">
            <circle cx="14247.9" cy="12958.1" r="244.299" style="fill:rgb(255,224,73);"/>
        </g>
        <g transform="matrix(0.308941,0,0,0.16347,4493.84,-178.484)">
            <circle cx="14247.9" cy="12958.1" r="244.299" style="fill:rgb(168,92,77);"/>
        </g>
        <g transform="matrix(1,0,0,1,3.64533,0)">
            <g transform="matrix(1,0,0,1,8.23162,17.6759)">
                <g transform="matrix(0.721113,0,0,0.366942,-2119.33,-2783.77)">
                    <path d="M15244.4,12747.3C15241.9,12709.7 15232.2,12673.8 15207,12641.9" style="fill:none;stroke:rgb(168,92,77);stroke-width:9.33px;"/>
                </g>
                <g transform="matrix(0.423628,-0.124457,0.244582,0.215566,-687.714,1021.61)">
                    <circle cx="15203.5" cy="12638.6" r="32.14" style="fill:rgb(255,224,73);"/>
                </g>
            </g>
            <g transform="matrix(-1,0,0,1,17775.7,17.6759)">
                <g transform="matrix(0.721113,0,0,0.366942,-2119.33,-2783.77)">
                    <path d="M15244.4,12747.3C15241.9,12709.7 15232.2,12673.8 15207,12641.9" style="fill:none;stroke:rgb(168,92,77);stroke-width:9.33px;"/>
                </g>
                <g transform="matrix(0.423628,-0.124457,0.244582,0.215566,-687.714,1021.61)">
                    <circle cx="15203.5" cy="12638.6" r="32.14" style="fill:rgb(255,224,73);"/>
                </g>
            </g>
        </g>
        <g transform="matrix(0.321251,0,0,0.16347,4318.45,-186.272)">
            <circle cx="14247.9" cy="12958.1" r="244.299" style="fill:rgb(255,224,73);"/>
        </g>
        <g transform="matrix(0.392778,-6.93889e-18,4.71845e-16,0.199867,7329.94,1607.12)">
            <path d="M3964.53,1621.73C3964.53,1645.46 4007.69,1645.46 4007.69,1621.73" style="fill:none;stroke:rgb(190,88,105);stroke-width:8.67px;"/>
        </g>
        <g transform="matrix(0.912234,0,0,0.464196,8785.95,1846.25)">
            <g transform="matrix(0.965926,0.258819,-0.207128,0.773012,113.49,34.1811)">
                <circle cx="86.998" cy="174.87" r="10.068" style="fill:rgb(254,135,130);"/>
            </g>
            <g transform="matrix(0.965926,-0.258819,0.207128,0.773012,-41.1658,79.2144)">
                <circle cx="86.998" cy="174.87" r="10.068" style="fill:rgb(254,135,130);"/>
            </g>
        </g>
        <g transform="matrix(0.912234,0,0,0.464196,8786.78,1846.13)">
            <g transform="matrix(0.661858,0,0,0.661858,32.2669,55.7478)">
                <circle cx="86.998" cy="174.87" r="10.068" style="fill:rgb(60,69,77);"/>
            </g>
            <g transform="matrix(0.661858,0,0,0.661858,91.1449,55.7478)">
                <circle cx="86.998" cy="174.87" r="10.068" style="fill:rgb(60,69,77);"/>
            </g>
        </g>
        <g transform="matrix(1,0,0,1,0.424616,0)">
            <g transform="matrix(0.696541,-0.0949717,0.186638,0.354439,-4133.95,-1177.18)">
                <path d="M15241.5,12799.5C15241.5,12797.1 15239.6,12795.2 15237.2,12795.2L15225.7,12795.2C15223.3,12795.2 15221.3,12797.1 15221.3,12799.5C15221.3,12801.9 15223.3,12803.9 15225.7,12803.9L15237.2,12803.9C15239.6,12803.9 15241.5,12801.9 15241.5,12799.5Z" style="fill:rgb(190,88,105);"/>
            </g>
            <g transform="matrix(-0.696541,-0.0949717,-0.186638,0.354439,21924.3,-1177.18)">
                <path d="M15241.5,12799.5C15241.5,12797.1 15239.6,12795.2 15237.2,12795.2L15225.7,12795.2C15223.3,12795.2 15221.3,12797.1 15221.3,12799.5C15221.3,12801.9 15223.3,12803.9 15225.7,12803.9L15237.2,12803.9C15239.6,12803.9 15241.5,12801.9 15241.5,12799.5Z" style="fill:rgb(190,88,105);"/>
            </g>
        </g>
    </g>
</svg>
