<?xml version="1.0" encoding="UTF-8" standalone="no"?>
<!DOCTYPE svg PUBLIC "-//W3C//DTD SVG 1.1//EN" "http://www.w3.org/Graphics/SVG/1.1/DTD/svg11.dtd">
<svg width="100%" height="100%" viewBox="0 0 256 256" version="1.1" xmlns="http://www.w3.org/2000/svg" xmlns:xlink="http://www.w3.org/1999/xlink" xml:space="preserve" xmlns:serif="http://www.serif.com/" style="fill-rule:evenodd;clip-rule:evenodd;stroke-linejoin:round;stroke-miterlimit:2;">
    <g id="Bell" transform="matrix(8.3235,0,0,7.87616,-44844.2,-6828.12)">
        <g transform="matrix(0.363057,0,0,0.383677,3171.61,312.942)">
            <circle cx="6146.23" cy="1516.71" r="9.669" style="fill:rgb(251,143,65);"/>
        </g>
        <g transform="matrix(0.120142,0,0,0.126965,5387.66,866.936)">
            <path d="M153.844,206.358C155.999,210.431 157.219,215.072 157.219,219.995C157.219,236.122 144.126,249.214 128,249.214C128,249.214 128,206.358 128,206.358L153.844,206.358Z" style="fill:rgb(249,117,61);"/>
        </g>
        <g transform="matrix(0.620512,0,0,0.655755,1585.86,-93.7219)">
            <path d="M6151.65,1466.28C6155.02,1466.28 6157.75,1469.01 6157.75,1472.37C6157.75,1475.73 6155.02,1478.46 6151.65,1478.46C6148.29,1478.46 6145.56,1475.73 6145.56,1472.37C6145.56,1469.01 6148.29,1466.28 6151.65,1466.28ZM6151.65,1469.32C6153.34,1469.32 6154.7,1470.69 6154.7,1472.37C6154.7,1474.05 6153.34,1475.42 6151.65,1475.42C6149.97,1475.42 6148.61,1474.05 6148.61,1472.37C6148.61,1470.69 6149.97,1469.32 6151.65,1469.32Z" style="fill:rgb(254,216,81);"/>
        </g>
        <g transform="matrix(0.120142,0,0,0.126965,5387.66,866.936)">
            <path d="M128,6.786C145.368,6.786 159.468,20.886 159.468,38.254C159.468,51.245 151.579,62.408 140.333,67.209L128,67.209L128,53.988C136.684,53.988 143.734,46.938 143.734,38.254C143.734,29.57 136.684,22.52 128,22.52L128,6.786Z" style="fill:rgb(255,180,58);"/>
        </g>
        <g transform="matrix(0.590016,0,0,0.532864,1774.2,88.4448)">
            <path d="M6128.2,1510.13C6128.2,1510.13 6128.2,1510.13 6128.2,1510.13C6140.14,1498.34 6129.81,1472.46 6150.42,1472.46C6171.02,1472.46 6160.69,1498.34 6172.63,1510.13C6172.63,1510.13 6172.63,1510.13 6172.63,1510.13L6128.2,1510.13Z" style="fill:rgb(254,216,81);"/>
        </g>
        <g transform="matrix(0.120142,0,0,0.126965,5387.66,866.936)">
            <path d="M128,48.262L128.004,48.262C229.211,48.262 178.475,156.894 237.079,206.356C237.081,206.358 237.082,206.358 237.082,206.358L128,206.358L128,48.262Z" style="fill:rgb(255,180,58);"/>
        </g>
        <g transform="matrix(0.582949,0,0,1.06892,1818.02,-721.061)">
            <path d="M6172.28,1510.13C6172.28,1509.23 6171.02,1508.51 6169.47,1508.51L6130.13,1508.51C6128.58,1508.51 6127.32,1509.23 6127.32,1510.13C6127.32,1511.02 6128.58,1511.75 6130.13,1511.75L6169.47,1511.75C6171.02,1511.75 6172.28,1511.02 6172.28,1510.13Z" style="fill:rgb(255,188,1);"/>
            <clipPath id="_clip1">
                <path d="M6172.28,1510.13C6172.28,1509.23 6171.02,1508.51 6169.47,1508.51L6130.13,1508.51C6128.58,1508.51 6127.32,1509.23 6127.32,1510.13C6127.32,1511.02 6128.58,1511.75 6130.13,1511.75L6169.47,1511.75C6171.02,1511.75 6172.28,1511.02 6172.28,1510.13Z"/>
            </clipPath>
            <g clip-path="url(#_clip1)">
                <g transform="matrix(1.06444,0,0,0.0684891,-396.272,1407.98)">
                    <rect x="6149.8" y="1467.77" width="28.099" height="47.3" style="fill:rgb(252,151,47);"/>
                </g>
            </g>
        </g>
    </g>
</svg>
