<?xml version="1.0" encoding="UTF-8" standalone="no"?>
<!DOCTYPE svg PUBLIC "-//W3C//DTD SVG 1.1//EN" "http://www.w3.org/Graphics/SVG/1.1/DTD/svg11.dtd">
<svg width="100%" height="100%" viewBox="0 0 256 256" version="1.1" xmlns="http://www.w3.org/2000/svg" xmlns:xlink="http://www.w3.org/1999/xlink" xml:space="preserve" xmlns:serif="http://www.serif.com/" style="fill-rule:evenodd;clip-rule:evenodd;stroke-linejoin:round;stroke-miterlimit:2;">
    <g id="Bolt">
        <g transform="matrix(1,0,0,1,-1.64411,0)">
            <path d="M85.721,16.714C87.019,11.589 91.631,8 96.918,8C116.403,8 162.868,8 188.888,8C192.868,8 196.568,10.049 198.679,13.423C200.79,16.797 201.016,21.02 199.276,24.599C185.504,52.931 158.933,107.591 158.933,107.591C158.933,107.591 174.22,107.315 188.113,107.064C192.419,106.986 196.41,109.31 198.468,113.093C200.526,116.876 200.308,121.489 197.903,125.062C179.451,152.473 144.218,204.814 119.027,242.236C116.003,246.727 110.266,248.516 105.226,246.538C100.186,244.56 97.197,239.347 98.035,233.998C103.361,200.01 109.368,161.68 109.368,161.68L63.84,161.68C60.277,161.68 56.914,160.035 54.726,157.224C52.537,154.412 51.769,150.748 52.644,147.294C60.595,115.904 79.302,42.054 85.721,16.714Z" style="fill:rgb(0,172,254);"/>
        </g>
        <path d="M145.377,8L187.244,8C191.224,8 194.924,10.049 197.035,13.423C199.146,16.797 199.372,21.02 197.632,24.599C183.86,52.931 157.289,107.591 157.289,107.591C157.289,107.591 172.576,107.315 186.469,107.064C190.775,106.986 194.766,109.31 196.824,113.093C198.882,116.876 198.664,121.489 196.259,125.062L145.377,200.649L145.377,8Z" style="fill:rgb(0,155,247);"/>
        <g transform="matrix(0.273357,-1.02018,0.598957,0.16049,-1934.68,5647.7)">
            <path d="M5633.43,828.715C5633.43,821.181 5629.83,815.064 5625.41,815.064L5534.41,815.064C5529.99,815.064 5526.4,821.181 5526.4,828.715C5526.4,836.25 5529.99,842.367 5534.41,842.367L5625.41,842.367C5629.83,842.367 5633.43,836.25 5633.43,828.715Z" style="fill:rgb(85,194,255);"/>
        </g>
        <g transform="matrix(0.0808242,-0.501893,0.380389,0.0612574,-654.151,2952.51)">
            <path d="M5633.43,828.715C5633.43,821.181 5628.79,815.064 5623.08,815.064L5536.75,815.064C5531.04,815.064 5526.4,821.181 5526.4,828.715C5526.4,836.25 5531.04,842.367 5536.75,842.367L5623.08,842.367C5628.79,842.367 5633.43,836.25 5633.43,828.715Z" style="fill:rgb(85,194,255);"/>
        </g>
    </g>
</svg>
