<?xml version="1.0" encoding="UTF-8" standalone="no"?>
<!DOCTYPE svg PUBLIC "-//W3C//DTD SVG 1.1//EN" "http://www.w3.org/Graphics/SVG/1.1/DTD/svg11.dtd">
<svg width="100%" height="100%" viewBox="0 0 256 256" version="1.1" xmlns="http://www.w3.org/2000/svg" xmlns:xlink="http://www.w3.org/1999/xlink" xml:space="preserve" xmlns:serif="http://www.serif.com/" style="fill-rule:evenodd;clip-rule:evenodd;stroke-linejoin:round;stroke-miterlimit:2;">
    <g id="Bomb" transform="matrix(0.252417,-2.77556e-17,2.77556e-17,0.252417,38.7771,-2.13116)">
        <g>
            <g transform="matrix(3.9617,4.35625e-16,-4.35625e-16,3.9617,-164.956,8.12922)">
                <circle cx="151.654" cy="10.568" r="10.488" style="fill:rgb(255,212,59);"/>
            </g>
            <g transform="matrix(3.9617,6.66134e-16,-6.66134e-16,3.9617,-138.445,22.1512)">
                <path d="M143.843,3.487C143.843,3.487 121.496,4.566 121.496,26.441L121.496,65.281C121.496,66.936 122.84,68.281 124.496,68.281C126.151,68.281 127.496,66.936 127.496,65.281L127.496,26.441C127.496,10.223 144.124,9.48 144.124,9.48C145.778,9.403 147.058,7.997 146.98,6.343C146.903,4.689 145.497,3.409 143.843,3.487Z" style="fill:rgb(158,171,184);"/>
            </g>
            <g transform="matrix(0.606031,3.21218e-32,-8.88178e-16,8.20332,274.358,-289.814)">
                <path d="M178.628,57.556C178.628,55.626 157.419,54.059 131.295,54.059C105.171,54.059 83.962,55.626 83.962,57.556L83.962,64.228C83.962,66.158 105.171,67.725 131.295,67.725C157.419,67.725 178.628,66.158 178.628,64.228L178.628,57.556Z" style="fill:rgb(73,80,87);"/>
            </g>
        </g>
        <g transform="matrix(0.919152,1.5307e-16,-1.5307e-16,0.919152,97.133,62.7203)">
            <g transform="matrix(3.9617,0,0,3.9617,-180.849,47.7057)">
                <circle cx="116.046" cy="158.372" r="93.199" style="fill:rgb(87,99,111);"/>
            </g>
            <g transform="matrix(4.31017,-2.43844e-16,2.43844e-16,4.31017,-272.812,-59.0514)">
                <path d="M133.905,84.874C178.436,87.912 213.664,125.043 213.664,170.336C213.664,215.63 178.436,252.76 133.905,255.799C127.579,255.367 121.443,254.248 115.571,252.515C151.062,242.045 176.991,209.195 176.991,170.336C176.991,131.478 151.062,98.627 115.571,88.157C121.443,86.425 127.579,85.305 133.905,84.874Z" style="fill:rgb(74,86,99);"/>
            </g>
            <g transform="matrix(2.17025,0,0,2.17025,-133.085,269.793)">
                <circle cx="88.235" cy="129.893" r="26.065" style="fill:rgb(109,120,130);"/>
            </g>
            <g transform="matrix(0.928479,0,0,0.928479,47.1523,335.347)">
                <circle cx="88.235" cy="129.893" r="26.065" style="fill:rgb(109,120,130);"/>
            </g>
            <g transform="matrix(3.9617,0,0,3.11279,-247.325,86.3909)">
                <rect x="93.363" y="45.57" width="78.925" height="36.211" style="fill:rgb(87,99,111);"/>
            </g>
            <g transform="matrix(4.31017,6.93948e-18,-6.93948e-18,4.31017,-261.834,-26.2189)">
                <path d="M111.55,74.994C111.55,72.773 109.746,70.969 107.524,70.969L98.286,70.969C96.064,70.969 94.26,72.773 94.26,74.994C94.26,77.216 96.064,79.02 98.286,79.02L107.524,79.02C109.746,79.02 111.55,77.216 111.55,74.994Z" style="fill:rgb(109,120,130);"/>
            </g>
            <g transform="matrix(4.31017,-2.43844e-16,2.43844e-16,4.31017,-272.812,-59.0514)">
                <rect x="128" y="66.655" width="36.272" height="26.151" style="fill:rgb(74,86,99);"/>
            </g>
        </g>
        <g>
            <g transform="matrix(3.9617,7.6102e-16,-8.45455e-16,5.59249,-166.225,-81.0208)">
                <path d="M178.628,60.892C178.628,57.121 174.306,54.059 168.983,54.059L93.607,54.059C88.284,54.059 83.962,57.121 83.962,60.892C83.962,64.663 88.284,67.725 93.607,67.725L168.983,67.725C174.306,67.725 178.628,64.663 178.628,60.892Z" style="fill:rgb(109,120,130);"/>
            </g>
            <g transform="matrix(7.55446,1.06119e-15,-8.75176e-16,3.9617,-510.322,-39.5579)">
                <path d="M111.55,74.994C111.55,72.773 110.604,70.969 109.439,70.969L96.371,70.969C95.206,70.969 94.26,72.773 94.26,74.994C94.26,77.216 95.206,79.02 96.371,79.02L109.439,79.02C110.604,79.02 111.55,77.216 111.55,74.994Z" style="fill:rgb(120,131,142);"/>
            </g>
        </g>
    </g>
</svg>
