<?xml version="1.0" encoding="UTF-8" standalone="no"?>
<!DOCTYPE svg PUBLIC "-//W3C//DTD SVG 1.1//EN" "http://www.w3.org/Graphics/SVG/1.1/DTD/svg11.dtd">
<svg width="100%" height="100%" viewBox="0 0 256 256" version="1.1" xmlns="http://www.w3.org/2000/svg" xmlns:xlink="http://www.w3.org/1999/xlink" xml:space="preserve" xmlns:serif="http://www.serif.com/" style="fill-rule:evenodd;clip-rule:evenodd;stroke-linejoin:round;stroke-miterlimit:2;">
    <g id="Book---Purple--Magic-" serif:id="Book - Purple (Magic)" transform="matrix(3.14286,0,0,4.79273,-17127.9,-5368.27)">
        <g transform="matrix(0.206685,0,0,0.136462,4351.24,890.814)">
            <rect x="5646.82" y="1935.29" width="23.089" height="32.045" style="fill:rgb(221,226,230);"/>
        </g>
        <g transform="matrix(1.46145,0,0,1.38322,-2090.23,-1441.83)">
            <path d="M5209.44,1855.42C5209.44,1854.83 5209.1,1854.25 5208.49,1853.83C5207.88,1853.4 5207.05,1853.17 5206.18,1853.17L5178.53,1853.17L5178.53,1880.48L5206.18,1880.48C5207.98,1880.48 5209.44,1879.47 5209.44,1878.22L5209.44,1855.42Z" style="fill:rgb(130,73,251);"/>
        </g>
        <g transform="matrix(0.351402,0,0,0.351402,3510.61,751.766)">
            <g transform="matrix(-1.02507,-6.68586e-17,2.00576e-16,-0.672195,11543.9,2521.36)">
                <path d="M5702.32,2110.97C5702.38,2101.24 5706.57,2092.84 5713.05,2086.86C5719.6,2080.84 5728.5,2077.3 5737.89,2077.36C5747.14,2077.42 5755.49,2081.24 5761.52,2087.35C5767.51,2093.42 5771.18,2101.78 5771.12,2110.97L5771.12,2110.97C5771.1,2114.27 5770.36,2117.48 5769.02,2120.41C5767.68,2123.33 5765.72,2125.96 5763.24,2128.12C5760.77,2130.27 5757.89,2131.83 5754.83,2132.76C5751.77,2133.68 5748.52,2133.95 5745.28,2133.52C5745.28,2133.52 5745.28,2133.52 5745.27,2133.52C5737.99,2132.58 5732.73,2129.82 5729.08,2126.3C5724.06,2121.45 5722.16,2115.24 5722.19,2110.97C5722.21,2106.69 5723.99,2102.94 5726.83,2100.27C5729.67,2097.6 5733.59,2096.04 5737.89,2096.07C5742.08,2096.1 5745.86,2097.68 5748.48,2100.31C5751,2102.85 5752.35,2106.41 5751.84,2110.42C5751.47,2113.37 5748.8,2114.76 5746.27,2114.76C5743.84,2114.76 5741.4,2113.32 5740.97,2110.25C5740.57,2107.58 5738.07,2105.74 5735.4,2106.13C5732.73,2106.53 5730.89,2109.02 5731.28,2111.69C5732.63,2120.35 5739.47,2124.46 5746.34,2124.36C5753.36,2124.26 5760.25,2119.73 5761.18,2111.53C5761.97,2104.45 5759.47,2098.21 5754.96,2093.79C5750.7,2089.6 5744.63,2087.02 5737.89,2087.07C5731.19,2087.11 5725.14,2089.68 5720.76,2093.91C5716.32,2098.2 5713.55,2104.18 5713.59,2110.97C5713.63,2116.93 5716.25,2125.65 5723.35,2132.32C5728.11,2136.8 5734.88,2140.42 5744.3,2141.51C5748.66,2142.02 5753.05,2141.6 5757.15,2140.3C5761.26,2139.01 5765.09,2136.86 5768.36,2133.93C5771.63,2131 5774.2,2127.46 5775.94,2123.53C5777.68,2119.62 5778.6,2115.35 5778.57,2110.97C5778.57,2110.97 5778.57,2110.97 5778.57,2110.97C5778.5,2099.78 5773.91,2089.65 5766.52,2082.35C5759.16,2075.09 5749.04,2070.61 5737.89,2070.68C5726.82,2070.75 5716.38,2075.06 5708.76,2082.26C5701.17,2089.43 5696.34,2099.45 5696.42,2110.97C5696.42,2112.6 5697.74,2113.93 5699.37,2113.93C5700.99,2113.93 5702.32,2112.6 5702.32,2110.97Z" style="fill:rgb(255,236,140);"/>
            </g>
            <g transform="matrix(0.527699,-0.199787,0.304667,0.346042,2165.71,1518.5)">
                <path d="M5487.3,1867.1L5490.35,1877.6L5500.85,1880.66L5490.35,1883.71L5487.3,1894.21L5484.24,1883.71L5473.74,1880.66L5484.24,1877.6L5487.3,1867.1Z" style="fill:rgb(255,236,140);"/>
            </g>
            <g transform="matrix(0.320981,0.0563993,-0.0860066,0.210485,4092.9,381.923)">
                <path d="M5487.3,1867.1L5490.35,1877.6L5500.85,1880.66L5490.35,1883.71L5487.3,1894.21L5484.24,1883.71L5473.74,1880.66L5484.24,1877.6L5487.3,1867.1Z" style="fill:rgb(255,236,140);"/>
            </g>
            <g transform="matrix(0.662806,0.116461,-0.177598,0.434638,2401.02,-326.905)">
                <path d="M5487.3,1867.1L5490.35,1877.6L5500.85,1880.66L5490.35,1883.71L5487.3,1894.21L5484.24,1883.71L5473.74,1880.66L5484.24,1877.6L5487.3,1867.1Z" style="fill:rgb(255,236,140);"/>
            </g>
            <g transform="matrix(0.399201,-0.261778,0.399201,0.261778,2683.11,2072.13)">
                <path d="M5487.3,1867.1L5490.35,1877.6L5500.85,1880.66L5490.35,1883.71L5487.3,1894.21L5484.24,1883.71L5473.74,1880.66L5484.24,1877.6L5487.3,1867.1Z" style="fill:rgb(255,236,140);"/>
            </g>
        </g>
        <g transform="matrix(0.195411,0,0,1.38322,4460.75,-1441.83)">
            <rect x="5178.53" y="1853.17" width="30.909" height="27.313" style="fill:rgb(102,55,204);"/>
        </g>
        <g transform="matrix(-0.504371,0,0,1.54373,8085.43,-1739.28)">
            <path d="M5209.44,1856.48C5209.44,1854.65 5202.52,1853.17 5193.99,1853.17L5178.53,1853.17L5178.53,1880.48L5209.44,1880.48L5209.44,1856.48Z" style="fill:rgb(130,73,251);"/>
        </g>
        <g transform="matrix(1,0,0,0.655755,217.876,-90.8464)">
            <path d="M5255.65,1860.39L5247.29,1860.39C5243.32,1860.39 5240.09,1863.6 5240.06,1867.57L5240.06,1867.61L5240.06,1860.39C5240.06,1856.4 5243.3,1853.17 5247.29,1853.17L5255.65,1853.17L5255.65,1860.39Z" style="fill:rgb(255,211,0);"/>
        </g>
        <g transform="matrix(1,0,0,0.655755,217.876,-63.9968)">
            <path d="M5255.65,1860.39L5247.29,1860.39C5243.32,1860.39 5240.09,1863.6 5240.06,1867.57L5240.06,1867.61L5240.06,1860.39C5240.06,1856.4 5243.3,1853.17 5247.29,1853.17L5255.65,1853.17L5255.65,1860.39Z" style="fill:rgb(255,211,0);"/>
        </g>
        <g transform="matrix(1.02872,0,0,0.655755,141.502,-93.7219)">
            <path d="M5231.38,1910.78L5174.49,1910.78C5170.91,1910.78 5167.99,1913.77 5167.99,1917.46C5167.99,1921.15 5170.91,1924.15 5174.49,1924.15L5226.74,1924.15C5227.97,1924.15 5229.15,1923.65 5230.02,1922.75C5230.89,1921.86 5231.38,1920.64 5231.38,1919.38C5231.38,1915.54 5231.38,1910.78 5231.38,1910.78Z" style="fill:white;"/>
        </g>
        <g transform="matrix(1,0,0,0.655755,217.876,-93.7219)">
            <path d="M5305.25,1912.67C5305.25,1913.94 5304.75,1915.15 5303.85,1916.05C5302.96,1916.94 5301.74,1917.45 5300.48,1917.45L5246.75,1917.45C5244.27,1917.45 5242.1,1918.8 5240.95,1920.81C5240.38,1919.83 5240.05,1918.68 5240.05,1917.46C5240.05,1913.77 5243.04,1910.78 5246.73,1910.78L5305.25,1910.78L5305.25,1912.67Z" style="fill:rgb(221,226,230);"/>
        </g>
        <g transform="matrix(1,0,0,0.655755,9.08952,-93.7219)">
            <path d="M5514.04,1857.93C5514.04,1855.3 5511.9,1853.17 5509.28,1853.17L5502.43,1853.17L5514.04,1864.77L5514.04,1857.93Z" style="fill:rgb(255,211,0);"/>
        </g>
        <g transform="matrix(1,0,0,-0.655755,9.08952,2374.5)">
            <path d="M5514.04,1857.94C5514.04,1855.3 5511.9,1853.17 5509.27,1853.17L5502.43,1853.17L5514.04,1864.77L5514.04,1857.94Z" style="fill:rgb(255,211,0);"/>
        </g>
        <g transform="matrix(1,0,0,0.655755,3.50154,-93.7219)">
            <path d="M5484.04,1917.46L5472.64,1917.46L5472.64,1930.3L5478.36,1927.36L5484.04,1930.3L5484.04,1917.46Z" style="fill:rgb(222,80,239);"/>
        </g>
        <g transform="matrix(0.318182,0,0,0.208649,5449.8,1120.09)">
            <path d="M100.689,208.863L100.689,240.016L100.768,239.975L118.633,249.214L118.633,208.863L100.689,208.863Z" style="fill:rgb(208,59,226);"/>
        </g>
        <g transform="matrix(1,0,0,0.655755,3.54721,-93.7219)">
            <path d="M5486.63,1918.02C5486.63,1917.71 5486.38,1917.46 5486.07,1917.46L5470.53,1917.46C5470.22,1917.46 5469.97,1917.71 5469.97,1918.02C5469.97,1918.33 5470.22,1918.58 5470.53,1918.58L5486.07,1918.58C5486.38,1918.58 5486.63,1918.33 5486.63,1918.02Z" style="fill:rgb(132,142,151);"/>
        </g>
    </g>
</svg>
