<?xml version="1.0" encoding="UTF-8" standalone="no"?>
<!DOCTYPE svg PUBLIC "-//W3C//DTD SVG 1.1//EN" "http://www.w3.org/Graphics/SVG/1.1/DTD/svg11.dtd">
<svg width="100%" height="100%" viewBox="0 0 256 256" version="1.1" xmlns="http://www.w3.org/2000/svg" xmlns:xlink="http://www.w3.org/1999/xlink" xml:space="preserve" xmlns:serif="http://www.serif.com/" style="fill-rule:evenodd;clip-rule:evenodd;stroke-linejoin:round;stroke-miterlimit:2;">
    <g id="Book---Brown" serif:id="Book - Brown" transform="matrix(3.14286,0,0,4.79273,-17127.9,-5368.27)">
        <g transform="matrix(0.206685,0,0,0.136462,4351.24,890.814)">
            <rect x="5646.82" y="1935.29" width="23.089" height="32.045" style="fill:rgb(221,226,230);"/>
        </g>
        <g transform="matrix(1.43628,0,0,1.38322,-1959.1,-1441.83)">
            <path d="M5209.44,1855.42C5209.44,1854.18 5207.96,1853.17 5206.13,1853.17L5178.53,1853.17L5178.53,1880.48L5206.12,1880.48C5207.95,1880.48 5209.44,1879.47 5209.44,1878.22L5209.44,1855.42Z" style="fill:rgb(207,110,83);"/>
        </g>
        <g transform="matrix(0.351402,0,0,0.351402,3404.92,752.943)">
            <g transform="matrix(0.900176,0,0,0.428789,606.361,314.933)">
                <path d="M5997.35,1800.51C5997.35,1795.65 5994.48,1791.7 5990.94,1791.7L5914.15,1791.7C5910.62,1791.7 5907.75,1795.65 5907.75,1800.51C5907.75,1805.38 5910.62,1809.32 5914.15,1809.32L5990.94,1809.32C5994.48,1809.32 5997.35,1805.38 5997.35,1800.51Z" style="fill:rgb(181,87,72);"/>
            </g>
            <g transform="matrix(0.448957,0,0,0.428789,3292.26,330.539)">
                <path d="M5997.35,1800.51C5997.35,1795.65 5991.6,1791.7 5984.51,1791.7L5920.58,1791.7C5913.5,1791.7 5907.75,1795.65 5907.75,1800.51C5907.75,1805.38 5913.5,1809.32 5920.58,1809.32L5984.51,1809.32C5991.6,1809.32 5997.35,1805.38 5997.35,1800.51Z" style="fill:rgb(181,87,72);"/>
            </g>
            <g transform="matrix(0.715792,0,0,0.428789,1703.91,346.144)">
                <path d="M5997.35,1800.51C5997.35,1795.65 5993.74,1791.7 5989.3,1791.7L5915.8,1791.7C5911.36,1791.7 5907.75,1795.65 5907.75,1800.51C5907.75,1805.38 5911.36,1809.32 5915.8,1809.32L5989.3,1809.32C5993.74,1809.32 5997.35,1805.38 5997.35,1800.51Z" style="fill:rgb(181,87,72);"/>
            </g>
        </g>
        <g transform="matrix(0.197027,0,0,1.38322,4452.33,-1441.83)">
            <rect x="5178.53" y="1853.17" width="30.909" height="27.313" style="fill:rgb(181,87,72);"/>
        </g>
        <g transform="matrix(-0.504371,0,0,1.54373,8085.43,-1739.28)">
            <path d="M5209.44,1856.48C5209.44,1854.65 5202.52,1853.17 5193.99,1853.17L5178.53,1853.17L5178.53,1880.48L5209.44,1880.48L5209.44,1856.48Z" style="fill:rgb(207,110,83);"/>
        </g>
        <g transform="matrix(1,0,0,0.655755,217.876,-90.8464)">
            <path d="M5255.65,1860.39L5247.29,1860.39C5243.32,1860.39 5240.09,1863.6 5240.06,1867.57L5240.06,1867.61L5240.06,1860.39C5240.06,1856.4 5243.3,1853.17 5247.29,1853.17L5255.65,1853.17L5255.65,1860.39Z" style="fill:rgb(238,160,123);"/>
        </g>
        <g transform="matrix(1,0,0,0.655755,217.876,-63.9968)">
            <path d="M5255.65,1860.39L5247.29,1860.39C5243.32,1860.39 5240.09,1863.6 5240.06,1867.57L5240.06,1867.61L5240.06,1860.39C5240.06,1856.4 5243.3,1853.17 5247.29,1853.17L5255.65,1853.17L5255.65,1860.39Z" style="fill:rgb(238,160,123);"/>
        </g>
        <g transform="matrix(1.02872,0,0,0.655755,141.502,-93.7219)">
            <path d="M5231.38,1910.78L5174.49,1910.78C5170.91,1910.78 5167.99,1913.77 5167.99,1917.46C5167.99,1921.15 5170.91,1924.15 5174.49,1924.15L5226.74,1924.15C5227.97,1924.15 5229.15,1923.65 5230.02,1922.75C5230.89,1921.86 5231.38,1920.64 5231.38,1919.38C5231.38,1915.54 5231.38,1910.78 5231.38,1910.78Z" style="fill:white;"/>
        </g>
        <g transform="matrix(1,0,0,0.655755,217.876,-93.7219)">
            <path d="M5305.25,1912.67C5305.25,1913.94 5304.75,1915.15 5303.85,1916.05C5302.96,1916.94 5301.74,1917.45 5300.48,1917.45L5246.75,1917.45C5244.27,1917.45 5242.1,1918.8 5240.95,1920.81C5240.38,1919.83 5240.05,1918.68 5240.05,1917.46C5240.05,1913.77 5243.04,1910.78 5246.73,1910.78L5305.25,1910.78L5305.25,1912.67Z" style="fill:rgb(221,226,230);"/>
        </g>
        <g transform="matrix(1,0,0,0.655755,3.50154,-93.7219)">
            <path d="M5484.04,1917.46L5472.64,1917.46L5472.64,1930.3L5478.36,1927.36L5484.04,1930.3L5484.04,1917.46Z" style="fill:rgb(85,194,255);"/>
        </g>
        <g transform="matrix(0.318182,0,0,0.208649,5449.8,1120.09)">
            <path d="M100.689,208.863L100.689,240.016L100.768,239.975L118.633,249.214L118.633,208.863L100.689,208.863Z" style="fill:rgb(0,172,254);"/>
        </g>
        <g transform="matrix(1,0,0,0.655755,3.54721,-93.7219)">
            <path d="M5486.63,1918.02C5486.63,1917.71 5486.38,1917.46 5486.07,1917.46L5470.53,1917.46C5470.22,1917.46 5469.97,1917.71 5469.97,1918.02C5469.97,1918.33 5470.22,1918.58 5470.53,1918.58L5486.07,1918.58C5486.38,1918.58 5486.63,1918.33 5486.63,1918.02Z" style="fill:rgb(132,142,151);"/>
        </g>
    </g>
</svg>
