<?xml version="1.0" encoding="UTF-8" standalone="no"?>
<!DOCTYPE svg PUBLIC "-//W3C//DTD SVG 1.1//EN" "http://www.w3.org/Graphics/SVG/1.1/DTD/svg11.dtd">
<svg width="100%" height="100%" viewBox="0 0 256 256" version="1.1" xmlns="http://www.w3.org/2000/svg" xmlns:xlink="http://www.w3.org/1999/xlink" xml:space="preserve" xmlns:serif="http://www.serif.com/" style="fill-rule:evenodd;clip-rule:evenodd;stroke-linejoin:round;stroke-miterlimit:2;">
    <g id="Bow-And-Arrow-" serif:id="Bow And Arrow " transform="matrix(3.97488,3.97488,-7.81142,7.81142,-26275.9,-26725.1)">
        <g transform="matrix(0.721113,0,0,0.309798,-6215.21,-843.204)">
            <rect x="17883.2" y="2814.24" width="51.658" height="2.369" style="fill:white;"/>
        </g>
        <g>
            <g transform="matrix(1,0,0,1,0.44104,0)">
                <g transform="matrix(0.361472,0,0,0.183937,214.08,-479.271)">
                    <path d="M17888.9,2759.85C17890.9,2754.44 17894.5,2749.89 17899.2,2746.71C17903.6,2743.68 17909.1,2742.04 17914.9,2742.2C17918.6,2742.31 17922,2743.25 17925.2,2744.73C17928.4,2746.26 17932.5,2749.78 17934.8,2752.42C17937,2754.85 17944.5,2745.41 17942.3,2742.98C17938.7,2739.35 17934.5,2736.39 17929.7,2734.46C17925.1,2732.62 17920.1,2731.59 17914.9,2731.75C17906.9,2731.98 17899.6,2734.66 17893.7,2739.18C17887.8,2743.74 17883.3,2750.03 17881.2,2757.32C17880.5,2759.46 17881.7,2761.76 17883.8,2762.46C17885.9,2763.16 17888.2,2761.99 17888.9,2759.85Z" style="fill:rgb(184,88,79);"/>
                </g>
                <g transform="matrix(0.261615,0.0356706,-0.0700996,0.133124,2196.18,-978.568)">
                    <path d="M17914.8,2729.08C17906.2,2729.33 17898.4,2732.21 17892.1,2737.07C17885.8,2741.96 17880.9,2748.72 17878.6,2756.56C17878.2,2757.98 17879,2759.47 17880.4,2759.88C17881.8,2760.3 17883.3,2759.49 17883.7,2758.08C17885.7,2751.33 17889.9,2745.51 17895.4,2741.3C17900.8,2737.11 17907.6,2734.64 17914.9,2734.42C17916.4,2734.38 17917.6,2733.14 17917.5,2731.67C17917.5,2730.19 17916.3,2729.03 17914.8,2729.08Z" style="fill:rgb(209,111,91);"/>
                </g>
                <g transform="matrix(0.197494,0.0418098,-0.0821643,0.100496,3382.78,-1012.38)">
                    <circle cx="17900.5" cy="2915.23" r="13.886" style="fill:rgb(161,72,69);"/>
                </g>
            </g>
            <g transform="matrix(1,0,0,1,-0.812556,0)">
                <g transform="matrix(-0.361472,0,0,0.183937,13184.7,-479.271)">
                    <path d="M17888.9,2759.85C17890.9,2754.44 17894.5,2749.89 17899.2,2746.71C17903.6,2743.68 17909.1,2742.04 17914.9,2742.2C17918.6,2742.31 17922,2743.25 17925.2,2744.73C17928.4,2746.26 17933,2750.31 17935.3,2752.95C17937.6,2755.38 17944.5,2745.41 17942.3,2742.98C17938.7,2739.35 17934.5,2736.39 17929.7,2734.46C17925.1,2732.62 17920.1,2731.59 17914.9,2731.75C17906.9,2731.98 17899.6,2734.66 17893.7,2739.18C17887.8,2743.74 17883.3,2750.03 17881.2,2757.32C17880.5,2759.46 17881.7,2761.76 17883.8,2762.46C17885.9,2763.16 17888.2,2761.99 17888.9,2759.85Z" style="fill:rgb(157,71,63);"/>
                </g>
                <g transform="matrix(-0.197494,0.0418098,0.0821643,0.100496,10016,-1012.38)">
                    <circle cx="17900.5" cy="2915.23" r="13.886" style="fill:rgb(132,60,53);"/>
                </g>
            </g>
        </g>
        <g>
            <g transform="matrix(0.27609,0,0,0.319704,1727.88,-891.581)">
                <path d="M18012.4,2847.9C18012.4,2846.37 18009.6,2845.13 18006.1,2845.13C18002.6,2845.13 17999.8,2846.37 17999.8,2847.9L17999.8,2901.99C17999.8,2903.51 18002.6,2904.75 18006.1,2904.75C18009.6,2904.75 18012.4,2903.51 18012.4,2901.99L18012.4,2847.9Z" style="fill:rgb(250,176,5);"/>
            </g>
            <g transform="matrix(0.138045,0,0,0.304547,4212.66,-848.456)">
                <path d="M18012.4,2846.59C18012.4,2845.78 18009.6,2845.13 18006.1,2845.13C18002.6,2845.13 17999.8,2845.78 17999.8,2846.59L17999.8,2903.3C17999.8,2904.1 18002.6,2904.75 18006.1,2904.75C18009.6,2904.75 18012.4,2904.1 18012.4,2903.3L18012.4,2846.59Z" style="fill:rgb(255,212,59);"/>
            </g>
            <g transform="matrix(1,0,0,1,0.198308,1.90065)">
                <g transform="matrix(0.36232,-0.220213,0,0.518714,208.286,2510.51)">
                    <rect x="17902.4" y="2819.96" width="7.041" height="8.215" style="fill:rgb(242,109,0);"/>
                </g>
                <g transform="matrix(0.247855,-0.150643,0,0.518714,2257.49,1265.04)">
                    <rect x="17902.4" y="2819.96" width="7.041" height="8.215" style="fill:rgb(242,125,0);"/>
                </g>
                <g transform="matrix(-0.36232,-0.220213,0,0.518714,13189.7,2510.51)">
                    <rect x="17902.4" y="2819.96" width="7.041" height="8.215" style="fill:rgb(226,74,3);"/>
                </g>
                <g transform="matrix(-0.247855,-0.150643,0,0.518714,11140.5,1265.04)">
                    <rect x="17902.4" y="2819.96" width="7.041" height="8.215" style="fill:rgb(226,93,3);"/>
                </g>
            </g>
            <g transform="matrix(0.266228,0,0,0.115926,1905.89,-312.289)">
                <path d="M18000.4,2839.16C18001.3,2837.5 18002.8,2836.47 18004.5,2836.47C18006.1,2836.47 18007.6,2837.5 18008.5,2839.16C18012,2846.3 18017.2,2856.69 18020.8,2863.87C18021.7,2865.55 18021.7,2867.62 18020.8,2869.31C18020,2871 18018.5,2872.04 18016.8,2872.04C18009.7,2872.04 17999.3,2872.04 17992.1,2872.04C17990.4,2872.04 17988.9,2871 17988.1,2869.31C17987.3,2867.62 17987.3,2865.55 17988.1,2863.87C17991.7,2856.69 17996.9,2846.3 18000.4,2839.16Z" style="fill:rgb(222,226,230);"/>
            </g>
            <g transform="matrix(0.266228,0,0,0.115926,1905.89,-312.289)">
                <path d="M18004.5,2872.04L18004.5,2836.47C18006.1,2836.47 18007.6,2837.5 18008.5,2839.16C18012,2846.3 18017.2,2856.69 18020.8,2863.87C18021.7,2865.55 18021.7,2867.62 18020.8,2869.31C18020,2871 18018.5,2872.04 18016.8,2872.04C18013.2,2872.04 18008.8,2872.04 18004.5,2872.04Z" style="fill:rgb(173,181,189);"/>
            </g>
        </g>
    </g>
</svg>
