<?xml version="1.0" encoding="UTF-8" standalone="no"?>
<!DOCTYPE svg PUBLIC "-//W3C//DTD SVG 1.1//EN" "http://www.w3.org/Graphics/SVG/1.1/DTD/svg11.dtd">
<svg width="100%" height="100%" viewBox="0 0 256 256" version="1.1" xmlns="http://www.w3.org/2000/svg" xmlns:xlink="http://www.w3.org/1999/xlink" xml:space="preserve" xmlns:serif="http://www.serif.com/" style="fill-rule:evenodd;clip-rule:evenodd;stroke-linejoin:round;stroke-miterlimit:2;">
    <g id="Bow---Pink" serif:id="Bow - Pink" transform="matrix(5.56139,0,0,5.56139,-7607.05,-1347.82)">
        <g transform="matrix(0.782783,0,0,0.782783,302.12,58.7777)">
            <g transform="matrix(0.35169,0.203048,-0.203048,0.35169,1212.87,146.042)">
                <g transform="matrix(1.18057,7.25509e-17,-7.25509e-17,1.18057,-88.6269,-8.85227)">
                    <path d="M521.794,49.025C521.794,40.254 514.673,33.134 505.903,33.134L475.745,33.134C466.975,33.134 459.855,40.254 459.855,49.025C459.855,57.795 466.975,64.915 475.745,64.915L505.903,64.915C514.673,64.915 521.794,57.795 521.794,49.025Z" style="fill:rgb(250,162,193);"/>
                </g>
                <g transform="matrix(0.857864,9.5242e-17,-2.52786e-17,0.515375,69.7639,31.433)">
                    <path d="M521.794,49.025C521.794,40.254 517.516,33.134 512.247,33.134L469.401,33.134C464.132,33.134 459.855,40.254 459.855,49.025C459.855,57.795 464.132,64.915 469.401,64.915L512.247,64.915C517.516,64.915 521.794,57.795 521.794,49.025Z" style="fill:rgb(240,101,149);"/>
                </g>
            </g>
            <g transform="matrix(-0.35169,0.203048,0.203048,0.35169,1568.81,146.042)">
                <g transform="matrix(1.18057,7.25509e-17,-7.25509e-17,1.18057,-88.6269,-8.85227)">
                    <path d="M521.794,49.025C521.794,40.254 514.673,33.134 505.903,33.134L475.745,33.134C466.975,33.134 459.855,40.254 459.855,49.025C459.855,57.795 466.975,64.915 475.745,64.915L505.903,64.915C514.673,64.915 521.794,57.795 521.794,49.025Z" style="fill:rgb(250,162,193);"/>
                </g>
                <g transform="matrix(0.857864,9.5242e-17,-2.52786e-17,0.515375,69.7639,31.433)">
                    <path d="M521.794,49.025C521.794,40.254 517.516,33.134 512.247,33.134L469.401,33.134C464.132,33.134 459.855,40.254 459.855,49.025C459.855,57.795 464.132,64.915 469.401,64.915L512.247,64.915C517.516,64.915 521.794,57.795 521.794,49.025Z" style="fill:rgb(240,101,149);"/>
                </g>
            </g>
        </g>
        <g transform="matrix(0.170736,-1.90852e-17,-9.34149e-18,0.305659,1307.05,255.121)">
            <path d="M521.794,49.025C521.794,40.254 509.047,33.134 493.346,33.134L488.303,33.134C472.602,33.134 459.855,40.254 459.855,49.025C459.855,57.795 472.602,64.915 488.303,64.915L493.346,64.915C509.047,64.915 521.794,57.795 521.794,49.025Z" style="fill:rgb(240,101,149);"/>
        </g>
    </g>
</svg>
