<?xml version="1.0" encoding="UTF-8" standalone="no"?>
<!DOCTYPE svg PUBLIC "-//W3C//DTD SVG 1.1//EN" "http://www.w3.org/Graphics/SVG/1.1/DTD/svg11.dtd">
<svg width="100%" height="100%" viewBox="0 0 256 256" version="1.1" xmlns="http://www.w3.org/2000/svg" xmlns:xlink="http://www.w3.org/1999/xlink" xml:space="preserve" xmlns:serif="http://www.serif.com/" style="fill-rule:evenodd;clip-rule:evenodd;stroke-linejoin:round;stroke-miterlimit:2;">
    <g id="Box">
        <path d="M120.138,14.47C126.326,10.898 133.949,10.898 140.137,14.469C159.697,25.76 202.816,50.65 222.378,61.942C228.567,65.514 232.379,72.117 232.379,79.263C232.379,101.85 232.379,151.633 232.379,174.219C232.379,181.364 228.567,187.967 222.379,191.539C202.077,203.261 156.236,229.727 135.94,241.445C129.756,245.016 122.137,245.018 115.951,241.452C96.381,230.17 53.217,205.287 33.634,193.997C27.438,190.425 23.621,183.818 23.622,176.667C23.626,154.078 23.632,104.31 23.636,81.73C23.637,74.586 27.448,67.985 33.636,64.413C53.947,52.686 99.827,26.197 120.138,14.47Z" style="fill:none;"/>
        <clipPath id="_clip1">
            <path d="M120.138,14.47C126.326,10.898 133.949,10.898 140.137,14.469C159.697,25.76 202.816,50.65 222.378,61.942C228.567,65.514 232.379,72.117 232.379,79.263C232.379,101.85 232.379,151.633 232.379,174.219C232.379,181.364 228.567,187.967 222.379,191.539C202.077,203.261 156.236,229.727 135.94,241.445C129.756,245.016 122.137,245.018 115.951,241.452C96.381,230.17 53.217,205.287 33.634,193.997C27.438,190.425 23.621,183.818 23.622,176.667C23.626,154.078 23.632,104.31 23.636,81.73C23.637,74.586 27.448,67.985 33.636,64.413C53.947,52.686 99.827,26.197 120.138,14.47Z"/>
        </clipPath>
        <g clip-path="url(#_clip1)">
            <g transform="matrix(0.784842,0.453129,-5.67495e-17,0.905435,-40.7144,-52.8159)">
                <rect x="81.972" y="94.814" width="130.378" height="130.378" style="fill:rgb(224,159,103);"/>
            </g>
            <rect x="102.499" y="106.835" width="23.369" height="46.498" style="fill:rgb(224,159,103);"/>
            <g transform="matrix(1,0,0,1,23.3688,0)">
                <rect x="102.499" y="106.835" width="23.369" height="46.498" style="fill:rgb(189,115,66);"/>
            </g>
            <g transform="matrix(0.189237,0.109256,-2.27836e-17,0.407614,46.9355,44.989)">
                <rect x="81.972" y="94.814" width="130.378" height="130.378" style="fill:rgb(207,100,111);"/>
            </g>
            <g transform="matrix(0.253877,0.146576,-9.48917e-18,0.108423,37.423,140.189)">
                <path d="M212.35,127.408C212.35,109.419 207.672,94.814 201.91,94.814L92.412,94.814C86.65,94.814 81.972,109.419 81.972,127.408L81.972,192.597C81.972,210.587 86.65,225.192 92.412,225.192L201.91,225.192C207.672,225.192 212.35,210.587 212.35,192.597L212.35,127.408Z" style="fill:rgb(128,77,43);"/>
            </g>
            <g transform="matrix(-0.816941,0.471661,5.55112e-17,0.905446,299.346,-56.7965)">
                <rect x="81.972" y="94.814" width="130.378" height="130.378" style="fill:rgb(189,115,66);"/>
            </g>
            <g transform="matrix(0.816941,-0.471661,0.78414,0.452723,-117.687,65.9302)">
                <path d="M212.35,94.814L81.972,94.814L81.972,212.439C81.972,220.331 86.638,225.192 94.213,225.192L212.35,225.192L212.35,94.814Z" style="fill:rgb(229,184,128);"/>
            </g>
            <g transform="matrix(0.816941,-0.471661,0.189476,0.109394,-22.5395,120.864)">
                <rect x="81.972" y="94.814" width="130.378" height="130.378" style="fill:rgb(241,116,130);"/>
            </g>
        </g>
    </g>
</svg>
