<?xml version="1.0" encoding="UTF-8" standalone="no"?>
<!DOCTYPE svg PUBLIC "-//W3C//DTD SVG 1.1//EN" "http://www.w3.org/Graphics/SVG/1.1/DTD/svg11.dtd">
<svg width="100%" height="100%" viewBox="0 0 256 256" version="1.1" xmlns="http://www.w3.org/2000/svg" xmlns:xlink="http://www.w3.org/1999/xlink" xml:space="preserve" xmlns:serif="http://www.serif.com/" style="fill-rule:evenodd;clip-rule:evenodd;stroke-linejoin:round;stroke-miterlimit:2;">
    <g id="Boxing-Glove" serif:id="Boxing Glove" transform="matrix(2.37792,-5.20256e-16,1.29454e-16,2.25012,-13697.1,-1255)">
        <g transform="matrix(0.413615,-0.252364,0.238801,0.437107,3137.21,2066.45)">
            <path d="M6281.65,390.408C6281.65,390.408 6306.72,408.715 6316.37,431.971C6316.87,433.161 6318.23,433.725 6319.42,433.231C6320.61,432.737 6321.18,431.371 6320.68,430.182C6310.58,405.847 6284.41,386.643 6284.41,386.643C6283.37,385.882 6281.91,386.108 6281.15,387.147C6280.39,388.186 6280.61,389.647 6281.65,390.408Z" style="fill:rgb(62,71,79);"/>
        </g>
        <g transform="matrix(0.413615,-0.252364,0.238801,0.437107,3136.77,2061.24)">
            <path d="M6281.12,389.868C6281.12,389.868 6298.32,414.388 6293.09,447.481C6292.89,448.753 6293.76,449.949 6295.03,450.15C6296.3,450.351 6297.5,449.481 6297.7,448.209C6303.24,413.147 6284.94,387.183 6284.94,387.183C6284.2,386.13 6282.74,385.876 6281.69,386.617C6280.64,387.357 6280.38,388.814 6281.12,389.868Z" style="fill:rgb(62,71,79);"/>
        </g>
        <g transform="matrix(0.571297,0,0,0.777173,1922.67,-223.932)">
            <path d="M6858.7,1091.64L6789.22,1091.64L6789.22,1127.4C6789.22,1130.78 6792.75,1133.53 6797.11,1133.53L6850.58,1133.53C6855.06,1133.53 6858.7,1130.7 6858.7,1127.21L6858.7,1091.64Z" style="fill:rgb(254,61,71);"/>
        </g>
        <g transform="matrix(0.420535,9.72328e-17,-2.41941e-17,0.44442,5760.1,557.747)">
            <path d="M192.455,212.324L192.455,150.116L145.26,150.116L145.26,223.362L181.417,223.362C187.509,223.362 192.455,218.416 192.455,212.324Z" style="fill:rgb(229,47,57);"/>
        </g>
        <g transform="matrix(0.819462,0,0,0.655755,693.006,399.317)">
            <path d="M6276.59,366.708C6276.59,364.786 6275.41,363.226 6273.96,363.226L6242.58,363.226C6241.12,363.226 6239.94,364.786 6239.94,366.708L6239.94,373.671C6239.94,375.593 6241.12,377.153 6242.58,377.153L6273.96,377.153C6275.41,377.153 6276.59,375.593 6276.59,373.671L6276.59,366.708Z" style="fill:rgb(255,198,200);"/>
        </g>
        <g transform="matrix(0.420535,9.72328e-17,-2.41941e-17,0.44442,5760.1,557.747)">
            <path d="M145.082,179.463L145.082,200.013L176.391,200.013C179.227,200.013 181.529,197.711 181.529,194.875L181.529,184.601C181.529,181.765 179.227,179.463 176.391,179.463L145.082,179.463Z" style="fill:rgb(255,163,166);"/>
        </g>
        <g transform="matrix(0.537379,-0.327878,0.360806,0.660428,1785.99,2113.52)">
            <path d="M6758.37,1042.5C6758.37,1034.67 6750.99,1028.33 6741.9,1028.33C6732.8,1028.33 6725.42,1034.67 6725.42,1042.5L6725.42,1080.09C6725.42,1087.9 6732.8,1094.25 6741.9,1094.25C6750.99,1094.25 6758.37,1087.9 6758.37,1080.09L6758.37,1042.5Z" style="fill:rgb(255,81,88);"/>
            <clipPath id="_clip1">
                <path d="M6758.37,1042.5C6758.37,1034.67 6750.99,1028.33 6741.9,1028.33C6732.8,1028.33 6725.42,1034.67 6725.42,1042.5L6725.42,1080.09C6725.42,1087.9 6732.8,1094.25 6741.9,1094.25C6750.99,1094.25 6758.37,1087.9 6758.37,1080.09L6758.37,1042.5Z"/>
            </clipPath>
            <g clip-path="url(#_clip1)">
                <g transform="matrix(0.865032,0.429456,0.341099,-0.508029,517.827,-1343.26)">
                    <path d="M6798.31,1011.96L6803.83,1063.86L6772.32,1063.86L6798.31,1011.96Z" style="fill:rgb(238,61,69);"/>
                </g>
            </g>
        </g>
        <g transform="matrix(0.668989,0,0,0.664061,1257.13,-103.566)">
            <path d="M6868.95,1049.1C6872.78,1022.36 6851.25,1000.03 6822.32,1000.03C6789.12,1000.03 6771.64,1023.83 6774.78,1048.55C6776,1058.1 6779.58,1080.54 6781.18,1093.05C6781.71,1097.23 6785.06,1100.34 6789.01,1100.34C6803.45,1100.34 6836.77,1100.34 6852.75,1100.34C6857.85,1100.34 6862.18,1096.38 6862.94,1091.02C6864.77,1078.25 6867.12,1061.87 6868.95,1049.1Z" style="fill:rgb(255,81,88);"/>
        </g>
        <g transform="matrix(0.420535,9.72328e-17,-2.41941e-17,0.44442,5760.1,557.747)">
            <path d="M145.26,6.221L145.26,156.115L193.672,156.115C201.775,156.115 208.664,150.197 209.886,142.186C212.796,123.103 216.529,98.631 219.437,79.548C225.526,39.596 191.28,6.221 145.26,6.221Z" style="fill:rgb(238,61,69);"/>
        </g>
        <g transform="matrix(0.338853,-1.2326e-32,3.08149e-33,0.336357,3502.69,231.91)">
            <path d="M6814.16,994.178C6789.34,994.178 6769.19,1015.63 6769.19,1042.06C6769.19,1045.29 6771.65,1047.91 6774.68,1047.91C6777.72,1047.91 6780.18,1045.29 6780.18,1042.06C6780.18,1022.09 6795.41,1005.88 6814.16,1005.88C6817.2,1005.88 6819.66,1003.25 6819.66,1000.03C6819.66,996.799 6817.2,994.178 6814.16,994.178Z" style="fill:rgb(255,163,166);"/>
        </g>
    </g>
</svg>
