<?xml version="1.0" encoding="UTF-8" standalone="no"?>
<!DOCTYPE svg PUBLIC "-//W3C//DTD SVG 1.1//EN" "http://www.w3.org/Graphics/SVG/1.1/DTD/svg11.dtd">
<svg width="100%" height="100%" viewBox="0 0 256 256" version="1.1" xmlns="http://www.w3.org/2000/svg" xmlns:xlink="http://www.w3.org/1999/xlink" xml:space="preserve" xmlns:serif="http://www.serif.com/" style="fill-rule:evenodd;clip-rule:evenodd;stroke-linejoin:round;stroke-miterlimit:2;">
    <g id="Boy-Green" serif:id="Boy Green" transform="matrix(2.14471,0,0,2.14471,-10586.3,-1838.92)">
        <g transform="matrix(4.12738,0,0,4.72673,-15576.5,-3923.52)">
            <path d="M4991.74,1036.37C4991.74,1032.79 4988.41,1029.88 4984.3,1029.88C4980.2,1029.88 4976.87,1032.79 4976.87,1036.37L4976.87,1041.74C4976.87,1045.32 4980.2,1048.23 4984.3,1048.23C4988.41,1048.23 4991.74,1045.32 4991.74,1041.74L4991.74,1036.37Z" style="fill:rgb(92,181,143);"/>
        </g>
        <g transform="matrix(0.466262,0,0,0.466262,4935.98,857.42)">
            <path d="M127.533,186.655L127.533,372.697C127.698,372.699 127.857,372.699 128.017,372.699C164.33,372.699 193.811,343.218 193.811,306.905L193.811,252.447C193.811,216.135 164.33,186.653 128.017,186.653C127.857,186.653 127.698,186.654 127.533,186.655Z" style="fill:rgb(78,166,129);"/>
        </g>
        <g>
            <g transform="matrix(1,0,0,1.46443,11.3849,-579.971)">
                <path d="M4991.74,1034.95C4991.74,1032.15 4988.41,1029.88 4984.3,1029.88C4980.2,1029.88 4976.87,1032.15 4976.87,1034.95L4976.87,1043.16C4976.87,1045.96 4980.2,1048.23 4984.3,1048.23C4988.41,1048.23 4991.74,1045.96 4991.74,1043.16L4991.74,1034.95Z" style="fill:rgb(227,146,108);"/>
            </g>
            <g transform="matrix(1.14006,0,0,1.14006,-685.258,-241.294)">
                <circle cx="4983.01" cy="1006.88" r="33.112" style="fill:rgb(239,160,122);"/>
            </g>
            <g transform="matrix(0.680411,0,0,0.668065,1407.13,23.1823)">
                <path d="M5218.64,1320.27L5218.55,1320.27L5218.55,1265.71C5218.55,1262.13 5219.97,1258.71 5222.5,1256.18C5225.02,1253.66 5228.45,1252.24 5232.02,1252.24C5239.86,1252.24 5248.22,1252.24 5248.22,1252.24L5255.66,1268.35L5255.1,1252.24L5293,1252.24L5292.44,1268.35L5299.88,1252.24L5316.07,1252.24C5319.65,1252.24 5323.07,1253.66 5325.6,1256.18C5328.12,1258.71 5329.54,1262.13 5329.54,1265.71L5329.54,1320.27L5329.46,1320.27C5329.11,1317.25 5327.76,1314.43 5325.6,1312.26C5323.07,1309.74 5319.65,1308.32 5316.07,1308.32C5308.23,1308.32 5239.86,1308.32 5232.02,1308.32C5228.45,1308.32 5225.02,1309.74 5222.5,1312.26C5220.33,1314.43 5218.98,1317.25 5218.64,1320.27Z" style="fill:rgb(51,58,65);"/>
            </g>
            <g transform="matrix(1,0,0,1,-0.362554,-0.643275)">
                <g transform="matrix(1,0,0,1,6.68065,0)">
                    <g transform="matrix(1,0,0,1,10.6694,-93.7219)">
                        <circle cx="4965.19" cy="1006.27" r="3.19" style="fill:rgb(50,58,65);"/>
                    </g>
                    <g transform="matrix(1.69245,0.453492,-0.353675,1.31993,-3074.28,-2657.34)">
                        <circle cx="4965.19" cy="1006.27" r="3.19" style="fill:rgb(242,131,125);"/>
                    </g>
                </g>
                <g transform="matrix(1,0,0,1,33.6972,0)">
                    <g transform="matrix(1,0,0,1,10.6694,-93.7219)">
                        <circle cx="4965.19" cy="1006.27" r="3.19" style="fill:rgb(50,58,65);"/>
                    </g>
                    <g transform="matrix(1.69245,-0.453492,0.353675,1.31993,-3780.72,1846)">
                        <circle cx="4965.19" cy="1006.27" r="3.19" style="fill:rgb(242,131,125);"/>
                    </g>
                </g>
                <g transform="matrix(1,0,0,1,10.451,-91.3117)">
                    <path d="M4978.61,1011.3C4982.28,1014.96 4988.91,1014.96 4992.57,1011.3C4992.92,1010.95 4992.92,1010.39 4992.57,1010.04C4992.23,1009.69 4991.66,1009.69 4991.31,1010.04C4988.31,1013.04 4982.87,1013.04 4979.87,1010.04C4979.52,1009.69 4978.96,1009.69 4978.61,1010.04C4978.26,1010.39 4978.26,1010.95 4978.61,1011.3Z" style="fill:rgb(170,102,91);"/>
                </g>
            </g>
        </g>
    </g>
</svg>
