<?xml version="1.0" encoding="UTF-8" standalone="no"?>
<!DOCTYPE svg PUBLIC "-//W3C//DTD SVG 1.1//EN" "http://www.w3.org/Graphics/SVG/1.1/DTD/svg11.dtd">
<svg width="100%" height="100%" viewBox="0 0 256 256" version="1.1" xmlns="http://www.w3.org/2000/svg" xmlns:xlink="http://www.w3.org/1999/xlink" xml:space="preserve" xmlns:serif="http://www.serif.com/" style="fill-rule:evenodd;clip-rule:evenodd;stroke-linejoin:round;stroke-miterlimit:2;">
    <g id="Boy-Blue" serif:id="Boy Blue" transform="matrix(2.14582,0,0,2.14582,-10591.8,-1842.41)">
        <g transform="matrix(4.12525,0,0,4.7243,-15565.8,-3919.87)">
            <path d="M4991.74,1036.37C4991.74,1032.79 4988.41,1029.88 4984.3,1029.88C4980.2,1029.88 4976.87,1032.79 4976.87,1036.37L4976.87,1041.74C4976.87,1045.32 4980.2,1048.23 4984.3,1048.23C4988.41,1048.23 4991.74,1045.32 4991.74,1041.74L4991.74,1036.37Z" style="fill:rgb(85,194,255);"/>
        </g>
        <g transform="matrix(0.466022,0,0,0.466022,4936.03,858.603)">
            <path d="M127.533,186.655L127.533,372.697C127.698,372.699 127.857,372.699 128.017,372.699C164.33,372.699 193.811,343.218 193.811,306.905L193.811,252.447C193.811,216.135 164.33,186.653 128.017,186.653C127.857,186.653 127.698,186.654 127.533,186.655Z" style="fill:rgb(0,172,254);"/>
        </g>
        <g>
            <g transform="matrix(1,0,0,1.46443,11.3849,-579.971)">
                <path d="M4991.74,1034.95C4991.74,1032.15 4988.41,1029.88 4984.3,1029.88C4980.2,1029.88 4976.87,1032.15 4976.87,1034.95L4976.87,1043.16C4976.87,1045.96 4980.2,1048.23 4984.3,1048.23C4988.41,1048.23 4991.74,1045.96 4991.74,1043.16L4991.74,1034.95Z" style="fill:rgb(242,173,141);"/>
            </g>
            <g transform="matrix(1.14006,0,0,1.14006,-685.258,-241.294)">
                <circle cx="4983.01" cy="1006.88" r="33.112" style="fill:rgb(244,185,157);"/>
            </g>
            <g transform="matrix(0.466022,0,0,0.466022,4936.03,858.603)">
                <path d="M47.748,91.944C53.16,52.466 87.052,22.017 128,22.017C167.803,22.017 200.94,50.787 207.73,88.646L139.225,102.933C136.709,103.458 134.165,102.169 133.1,99.829C132.035,97.49 132.733,94.725 134.781,93.172L136.953,91.525L85.285,102.301C82.769,102.826 80.225,101.537 79.16,99.197C78.095,96.858 78.793,94.093 80.841,92.54L94.48,82.197L47.748,91.944Z" style="fill:rgb(115,82,77);"/>
            </g>
            <g transform="matrix(1,0,0,1,-0.362554,-0.643275)">
                <g transform="matrix(1,0,0,1,6.68065,0)">
                    <g transform="matrix(1,0,0,1,10.6694,-93.7219)">
                        <circle cx="4965.19" cy="1006.27" r="3.19" style="fill:rgb(50,58,65);"/>
                    </g>
                    <g transform="matrix(1.69245,0.453492,-0.353675,1.31993,-3074.28,-2657.34)">
                        <circle cx="4965.19" cy="1006.27" r="3.19" style="fill:rgb(242,131,125);"/>
                    </g>
                </g>
                <g transform="matrix(1,0,0,1,33.6972,0)">
                    <g transform="matrix(1,0,0,1,10.6694,-93.7219)">
                        <circle cx="4965.19" cy="1006.27" r="3.19" style="fill:rgb(50,58,65);"/>
                    </g>
                    <g transform="matrix(1.69245,-0.453492,0.353675,1.31993,-3780.72,1846)">
                        <circle cx="4965.19" cy="1006.27" r="3.19" style="fill:rgb(242,131,125);"/>
                    </g>
                </g>
                <g transform="matrix(1,0,0,1,10.451,-91.3117)">
                    <path d="M4978.54,1011.37C4982.24,1015.07 4988.94,1015.07 4992.65,1011.37C4993.03,1010.98 4993.03,1010.36 4992.65,1009.97C4992.26,1009.58 4991.63,1009.58 4991.24,1009.97C4988.28,1012.94 4982.91,1012.94 4979.94,1009.97C4979.55,1009.58 4978.93,1009.58 4978.54,1009.97C4978.15,1010.36 4978.15,1010.98 4978.54,1011.37Z" style="fill:rgb(170,102,91);"/>
                </g>
            </g>
        </g>
    </g>
</svg>
