<?xml version="1.0" encoding="UTF-8" standalone="no"?>
<!DOCTYPE svg PUBLIC "-//W3C//DTD SVG 1.1//EN" "http://www.w3.org/Graphics/SVG/1.1/DTD/svg11.dtd">
<svg width="100%" height="100%" viewBox="0 0 256 256" version="1.1" xmlns="http://www.w3.org/2000/svg" xmlns:xlink="http://www.w3.org/1999/xlink" xml:space="preserve" xmlns:serif="http://www.serif.com/" style="fill-rule:evenodd;clip-rule:evenodd;stroke-linecap:round;stroke-linejoin:round;stroke-miterlimit:1.5;">
    <g transform="matrix(0.312264,6.67281e-18,-2.60338e-15,0.613659,-2831.05,-921.417)">
        <g id="Bunny-Body-" serif:id="Bunny Body ">
            <g>
                <g transform="matrix(0.258819,-0.491517,1.89823,0.258819,3605.92,5885.12)">
                    <g transform="matrix(0,0.366942,-0.721113,1.11022e-16,18247,-4086.18)">
                        <path d="M16056.1,12360.3C16056.1,12336.4 16036.7,12317.1 16012.8,12317.1L15776.9,12317.1C15753,12317.1 15733.7,12336.4 15733.7,12360.3C15733.7,12384.1 15753,12403.5 15776.9,12403.5L16012.8,12403.5C16036.7,12403.5 16056.1,12384.1 16056.1,12360.3Z" style="fill:white;"/>
                    </g>
                    <g transform="matrix(0.828847,1.57404,-3.0933,0.421763,9734.32,1549.26)">
                        <path d="M61.308,155.977L66.345,137.18L61.29,135.826C56.103,134.436 50.763,137.519 49.373,142.706C47.984,147.893 51.066,153.232 56.253,154.622L61.308,155.977Z" style="fill:rgb(253,198,185);"/>
                    </g>
                </g>
                <g transform="matrix(-0.258819,-0.491517,-1.89823,0.258819,15445.9,5885.12)">
                    <g transform="matrix(0,0.366942,-0.721113,1.11022e-16,18247,-4086.18)">
                        <path d="M16056.1,12360.3C16056.1,12336.4 16036.7,12317.1 16012.8,12317.1L15776.9,12317.1C15753,12317.1 15733.7,12336.4 15733.7,12360.3C15733.7,12384.1 15753,12403.5 15776.9,12403.5L16012.8,12403.5C16036.7,12403.5 16056.1,12384.1 16056.1,12360.3Z" style="fill:rgb(248,249,250);"/>
                    </g>
                    <g transform="matrix(-0.828847,-1.57404,-3.0933,0.421763,9972.28,2001.16)">
                        <path d="M220.753,137.18L225.808,135.826C230.995,134.436 236.334,137.519 237.724,142.706C239.114,147.893 236.031,153.232 230.844,154.622L225.789,155.977L220.753,137.18Z" style="fill:rgb(253,198,185);"/>
                    </g>
                </g>
                <g transform="matrix(0.25803,-0.227418,0.738236,0.216885,-3231.94,2344.96)">
                    <path d="M15008.2,11876.5C15008.2,11834 14951.2,11799.5 14881.1,11799.5C14810.9,11799.5 14754,11834 14754,11876.5L14754,12184.7C14754,12227.1 14810.9,12261.6 14881.1,12261.6C14951.2,12261.6 15008.2,12227.1 15008.2,12184.7L15008.2,11876.5Z" style="fill:white;"/>
                </g>
                <g transform="matrix(0.120267,-0.105999,0.310418,0.091197,3878.01,2040.44)">
                    <path d="M15008.2,11884.8C15008.2,11837.7 14951.2,11799.5 14881.1,11799.5C14810.9,11799.5 14754,11837.7 14754,11884.8L14754,12176.3C14754,12223.4 14810.9,12261.6 14881.1,12261.6C14951.2,12261.6 15008.2,12223.4 15008.2,12176.3L15008.2,11884.8Z" style="fill:rgb(165,216,255);"/>
                </g>
                <g transform="matrix(1.11022e-16,-0.2626,0.783512,5.27356e-16,-121.398,5521.25)">
                    <path d="M15008.2,11883.2C15008.2,11837 14951.2,11799.5 14881.1,11799.5C14810.9,11799.5 14754,11837 14754,11883.2L14754,12177.9C14754,12224.1 14810.9,12261.6 14881.1,12261.6C14951.2,12261.6 15008.2,12224.1 15008.2,12177.9L15008.2,11883.2Z" style="fill:white;"/>
                </g>
                <g transform="matrix(-3.52114e-16,-0.122397,0.546324,4.41015e-16,2703.39,3446.2)">
                    <path d="M15008.2,11855.5C15008.2,11824.6 14951.2,11799.5 14881.1,11799.5C14810.9,11799.5 14754,11824.6 14754,11855.5L14754,12205.7C14754,12236.5 14810.9,12261.6 14881.1,12261.6C14951.2,12261.6 15008.2,12236.5 15008.2,12205.7L15008.2,11855.5Z" style="fill:rgb(208,191,255);"/>
                </g>
                <g transform="matrix(0.886134,0,0,0.354224,-4801.54,-2639.41)">
                    <rect x="16035.3" y="12322.4" width="265.603" height="355.64" style="fill:rgb(248,249,250);"/>
                </g>
                <g transform="matrix(0.473144,1.86058e-17,4.31375e-16,0.354224,1820.89,-2639.41)">
                    <rect x="16035.3" y="12322.4" width="265.603" height="355.64" style="fill:white;"/>
                </g>
                <g transform="matrix(0.896229,-7.34389e-17,1.25663e-15,0.456051,9303.75,1562.42)">
                    <g transform="matrix(0.689755,0,0,0.689755,80.7451,135.874)">
                        <circle cx="254.7" cy="436.585" r="11.731" style="fill:rgb(52,58,64);"/>
                    </g>
                    <g transform="matrix(0.689755,0,0,0.689755,80.7451,173.734)">
                        <circle cx="254.7" cy="436.585" r="11.731" style="fill:rgb(52,58,64);"/>
                    </g>
                </g>
                <g transform="matrix(0.772272,-2.30479e-18,-6.80228e-17,0.366942,-2146.87,-2859.19)">
                    <circle cx="15114.4" cy="12294.9" r="254.115" style="fill:white;"/>
                </g>
                <g transform="matrix(1.88369,-1.54354e-16,2.65363e-15,0.963048,-10543.1,390.13)">
                    <g transform="matrix(0.982525,-0.262031,0.184513,0.685379,17.6877,3229.84)">
                        <path d="M10687.3,1324.82C10687.3,1322.85 10686.1,1321.26 10684.8,1321.26L10660.6,1321.26C10659.2,1321.26 10658.1,1322.85 10658.1,1324.82C10658.1,1326.79 10659.2,1328.39 10660.6,1328.39L10684.8,1328.39C10686.1,1328.39 10687.3,1326.79 10687.3,1324.82Z" style="fill:rgb(52,58,64);"/>
                    </g>
                    <g transform="matrix(0.982525,0.262031,0.184513,-0.685379,17.6877,-526.516)">
                        <path d="M10687.3,1324.82C10687.3,1322.85 10686.1,1321.26 10684.8,1321.26L10660.6,1321.26C10659.2,1321.26 10658.1,1322.85 10658.1,1324.82C10658.1,1326.79 10659.2,1328.39 10660.6,1328.39L10684.8,1328.39C10686.1,1328.39 10687.3,1326.79 10687.3,1324.82Z" style="fill:rgb(52,58,64);"/>
                    </g>
                    <g transform="matrix(-0.982525,-0.262031,-0.184513,0.685379,21287.2,3229.84)">
                        <path d="M10687.3,1324.82C10687.3,1322.85 10686.1,1321.26 10684.8,1321.26L10660.6,1321.26C10659.2,1321.26 10658.1,1322.85 10658.1,1324.82C10658.1,1326.79 10659.2,1328.39 10660.6,1328.39L10684.8,1328.39C10686.1,1328.39 10687.3,1326.79 10687.3,1324.82Z" style="fill:rgb(52,58,64);"/>
                    </g>
                    <g transform="matrix(-0.982525,0.262031,-0.184513,-0.685379,21287.2,-526.516)">
                        <path d="M10687.3,1324.82C10687.3,1322.85 10686.1,1321.26 10684.8,1321.26L10660.6,1321.26C10659.2,1321.26 10658.1,1322.85 10658.1,1324.82C10658.1,1326.79 10659.2,1328.39 10660.6,1328.39L10684.8,1328.39C10686.1,1328.39 10687.3,1326.79 10687.3,1324.82Z" style="fill:rgb(52,58,64);"/>
                    </g>
                </g>
                <g transform="matrix(0.587625,2.80013e-17,1.62116e-16,0.289741,643.963,-1902.13)">
                    <circle cx="15114.4" cy="12294.9" r="254.115" style="fill:rgb(255,206,173);"/>
                </g>
                <g transform="matrix(3.20242,-3.48224e-17,1.35859e-14,1.62957,9066.2,1501.51)">
                    <path d="M103.718,73.719C111.932,60.813 126.655,52.204 143.437,52.204C160.218,52.204 174.941,60.813 183.155,73.719C173.15,64.032 159.049,57.995 143.437,57.995C127.824,57.995 113.723,64.032 103.718,73.719Z" style="fill:rgb(243,169,131);"/>
                </g>
                <g transform="matrix(5.28361,2.44249e-15,1.77636e-14,2.68859,-16816,-1088.5)">
                    <path d="M4979.24,1010.67C4982.57,1014 4988.61,1014 4991.94,1010.67" style="fill:none;stroke:rgb(202,109,119);stroke-width:1.78px;"/>
                </g>
                <g id="Face" transform="matrix(1,0,0,1,0.924341,-30.2295)">
                    <g transform="matrix(1,1.2326e-32,-1.97215e-31,1,-2.80058,8.033)">
                        <g transform="matrix(0.604183,7.44713e-33,6.06322e-32,0.307442,-241.458,-2066.53)">
                            <circle cx="16059.9" cy="12054.4" r="23.744" style="fill:rgb(104,40,57);"/>
                        </g>
                        <g transform="matrix(0.604183,7.44713e-33,6.06322e-32,0.307442,-108.082,-2066.53)">
                            <circle cx="16059.9" cy="12054.4" r="23.744" style="fill:rgb(104,40,57);"/>
                        </g>
                    </g>
                    <g transform="matrix(0.587625,-4.0391e-18,-1.19208e-16,0.253394,637.867,-1437.99)">
                        <g transform="matrix(2.89536,-0.850497,0.651702,2.66633,13784.3,12212.4)">
                            <path d="M392.314,90.96C398.403,87.967 403.53,87.637 408.457,87.86" style="fill:none;stroke:rgb(185,77,104);stroke-width:5.26px;"/>
                        </g>
                        <g transform="matrix(-2.89536,-0.850497,-0.651702,2.66633,16465.2,12212.4)">
                            <path d="M392.314,90.96C398.403,87.967 403.53,87.637 408.457,87.86" style="fill:none;stroke:rgb(185,77,104);stroke-width:5.26px;"/>
                        </g>
                    </g>
                    <g transform="matrix(0.604183,4.36564e-33,4.34103e-32,0.220116,-177.57,-1004.27)">
                        <circle cx="16059.9" cy="12054.4" r="23.744" style="fill:rgb(247,131,172);"/>
                    </g>
                    <g transform="matrix(1,1.2326e-32,-1.97215e-31,1,-0.111457,8.033)">
                        <g transform="matrix(1.26113,1.55446e-32,1.34099e-31,0.679963,-10806.6,-6529.13)">
                            <circle cx="16059.9" cy="12054.4" r="23.744" style="fill:rgb(254,143,141);"/>
                        </g>
                        <g transform="matrix(1.26113,1.55446e-32,1.34099e-31,0.679963,-10649.2,-6529.13)">
                            <circle cx="16059.9" cy="12054.4" r="23.744" style="fill:rgb(254,143,141);"/>
                        </g>
                    </g>
                    <g transform="matrix(3.90721,-3.20166e-16,-8.55139e-14,2.04885,7231.1,1105.37)">
                        <g transform="matrix(0.965926,0.258819,-0.258819,0.965926,529.97,-22.8302)">
                            <g transform="matrix(1,0,0,1,-195.777,-81.1275)">
                                <circle cx="298.947" cy="358.162" r="1.115" style="fill:rgb(228,106,119);"/>
                            </g>
                            <g transform="matrix(1,0,0,1,-187.452,-81.1275)">
                                <circle cx="298.947" cy="358.162" r="1.115" style="fill:rgb(228,106,119);"/>
                            </g>
                            <g transform="matrix(1,0,0,1,-191.614,-76.989)">
                                <circle cx="298.947" cy="358.162" r="1.115" style="fill:rgb(228,106,119);"/>
                            </g>
                        </g>
                        <g transform="matrix(-0.965926,0.258819,0.258819,0.965926,644.496,-22.8302)">
                            <g transform="matrix(1,0,0,1,-195.777,-81.1275)">
                                <circle cx="298.947" cy="358.162" r="1.115" style="fill:rgb(228,106,119);"/>
                            </g>
                            <g transform="matrix(1,0,0,1,-187.452,-81.1275)">
                                <circle cx="298.947" cy="358.162" r="1.115" style="fill:rgb(228,106,119);"/>
                            </g>
                            <g transform="matrix(1,0,0,1,-191.614,-76.989)">
                                <circle cx="298.947" cy="358.162" r="1.115" style="fill:rgb(228,106,119);"/>
                            </g>
                        </g>
                    </g>
                    <g transform="matrix(1.62315,-7.31252e-17,4.24126e-15,1.62315,-3003.51,-1431.67)">
                        <g transform="matrix(0.721113,0,0,0.366942,-2125.16,-2783.67)">
                            <circle cx="13621.3" cy="12740" r="2.494" style="fill:rgb(168,92,77);"/>
                        </g>
                        <g transform="matrix(0.721113,0,0,0.366942,-2110.75,-2781.69)">
                            <circle cx="13621.3" cy="12740" r="2.494" style="fill:rgb(168,92,77);"/>
                        </g>
                        <g transform="matrix(0.721113,0,0,0.366942,-2096.34,-2783.67)">
                            <circle cx="13621.3" cy="12740" r="2.494" style="fill:rgb(168,92,77);"/>
                        </g>
                        <g transform="matrix(0.721113,0,0,0.366942,-2081.93,-2781.69)">
                            <circle cx="13621.3" cy="12740" r="2.494" style="fill:rgb(168,92,77);"/>
                        </g>
                    </g>
                </g>
                <g id="Leg" transform="matrix(0.721113,8.32002e-17,4.60768e-16,0.417601,-2142.28,-3410.48)">
                    <path d="M16133.9,12524.8C16133.9,12496.5 16107.7,12473.4 16075.5,12473.4C16043.2,12473.4 16017,12496.5 16017,12524.8L16017,12706C16017,12734.4 16043.2,12757.4 16075.5,12757.4C16107.7,12757.4 16133.9,12734.4 16133.9,12706L16133.9,12524.8Z" style="fill:white;"/>
                </g>
                <g id="Leg1" serif:id="Leg" transform="matrix(3.20242,-3.48224e-17,1.35859e-14,1.62957,9066.2,1501.51)">
                    <path d="M132.99,231.751L106.668,231.751L106.668,241.815C106.668,249.079 112.565,254.976 119.829,254.976C127.092,254.976 132.99,249.079 132.99,241.815L132.99,231.751Z" style="fill:rgb(178,243,234);"/>
                </g>
                <g id="Leg2" serif:id="Leg" transform="matrix(0.721113,7.14357e-17,4.40839e-16,0.41731,-1990.36,-3406.84)">
                    <path d="M16133.9,12524.8C16133.9,12496.5 16107.7,12473.4 16075.5,12473.4C16043.2,12473.4 16017,12496.5 16017,12524.8L16017,12706C16017,12734.3 16043.2,12757.4 16075.5,12757.4C16107.7,12757.4 16133.9,12734.3 16133.9,12706L16133.9,12524.8Z" style="fill:rgb(248,249,250);"/>
                </g>
                <g id="Leg3" serif:id="Leg" transform="matrix(3.20242,-3.48224e-17,1.35859e-14,1.62957,9066.2,1501.51)">
                    <path d="M180.43,231.716L154.108,231.716L154.108,241.764C154.108,249.028 160.005,254.925 167.269,254.925C174.533,254.925 180.43,249.028 180.43,241.764L180.43,231.716Z" style="fill:rgb(178,243,234);"/>
                </g>
                <g id="Heart" transform="matrix(2.50604,-0.736244,1.44686,1.27521,3683.8,-1133.3)">
                    <path d="M752,2724.5C752,2732.04 744.205,2737.54 740,2737.54C735.795,2737.54 728,2732.04 728,2724.5C728,2720.91 730.91,2718 734.5,2718C736.816,2718 738.849,2719.21 740,2721.03C741.151,2719.21 743.184,2718 745.5,2718C749.09,2718 752,2720.91 752,2724.5Z" style="fill:rgb(255,87,110);fill-rule:nonzero;"/>
                </g>
                <g id="Star" transform="matrix(0.163545,0.0330115,-0.064874,0.0832206,9587.74,1740.84)">
                    <path d="M125.281,59.39C130.591,48.255 141.828,41.164 154.165,41.164C166.501,41.164 177.739,48.255 183.049,59.39L207.835,111.365L264.925,118.877C277.156,120.486 287.373,128.983 291.185,140.715C294.997,152.448 291.726,165.327 282.777,173.818L241.005,213.452L251.503,270.069C253.752,282.199 248.828,294.541 238.848,301.792C228.868,309.043 215.608,309.912 204.767,304.025L154.165,276.545L103.562,304.025C92.721,309.912 79.462,309.043 69.482,301.792C59.501,294.541 54.578,282.199 56.827,270.069L67.325,213.452L25.553,173.818C16.604,165.327 13.332,152.448 17.144,140.715C20.957,128.983 31.173,120.486 43.404,118.877L100.495,111.365L125.281,59.39Z" style="fill:rgb(165,216,255);"/>
                </g>
                <g id="Star1" serif:id="Star" transform="matrix(0.163545,0.0330115,-0.064874,0.0832206,9540.55,1796.83)">
                    <path d="M125.281,59.39C130.591,48.255 141.828,41.164 154.165,41.164C166.501,41.164 177.739,48.255 183.049,59.39L207.835,111.365L264.925,118.877C277.156,120.486 287.373,128.983 291.185,140.715C294.997,152.448 291.726,165.327 282.777,173.818L241.005,213.452L251.503,270.069C253.752,282.199 248.828,294.541 238.848,301.792C228.868,309.043 215.608,309.912 204.767,304.025L154.165,276.545L103.562,304.025C92.721,309.912 79.462,309.043 69.482,301.792C59.501,294.541 54.578,282.199 56.827,270.069L67.325,213.452L25.553,173.818C16.604,165.327 13.332,152.448 17.144,140.715C20.957,128.983 31.173,120.486 43.404,118.877L100.495,111.365L125.281,59.39Z" style="fill:rgb(165,216,255);"/>
                </g>
                <g id="Star2" serif:id="Star" transform="matrix(0.163545,0.0330115,-0.064874,0.0832206,9452.62,1741.2)">
                    <path d="M125.281,59.39C130.591,48.255 141.828,41.164 154.165,41.164C166.501,41.164 177.739,48.255 183.049,59.39L207.835,111.365L264.925,118.877C277.156,120.486 287.373,128.983 291.185,140.715C294.997,152.448 291.726,165.327 282.777,173.818L241.005,213.452L251.503,270.069C253.752,282.199 248.828,294.541 238.848,301.792C228.868,309.043 215.608,309.912 204.767,304.025L154.165,276.545L103.562,304.025C92.721,309.912 79.462,309.043 69.482,301.792C59.501,294.541 54.578,282.199 56.827,270.069L67.325,213.452L25.553,173.818C16.604,165.327 13.332,152.448 17.144,140.715C20.957,128.983 31.173,120.486 43.404,118.877L100.495,111.365L125.281,59.39Z" style="fill:rgb(165,216,255);"/>
                </g>
            </g>
        </g>
    </g>
</svg>
