<?xml version="1.0" encoding="UTF-8" standalone="no"?>
<!DOCTYPE svg PUBLIC "-//W3C//DTD SVG 1.1//EN" "http://www.w3.org/Graphics/SVG/1.1/DTD/svg11.dtd">
<svg width="100%" height="100%" viewBox="0 0 256 256" version="1.1" xmlns="http://www.w3.org/2000/svg" xmlns:xlink="http://www.w3.org/1999/xlink" xml:space="preserve" xmlns:serif="http://www.serif.com/" style="fill-rule:evenodd;clip-rule:evenodd;stroke-linejoin:round;stroke-miterlimit:2;">
    <g id="Burger" transform="matrix(1.76789,0,0,1.67288,-10091.2,-87.985)">
        <g transform="matrix(0.821153,0,0,0.930838,1033.7,10.4599)">
            <g transform="matrix(0.780664,0,0,0.62639,-1179.49,-62.7)">
                <path d="M9000.25,369.166L8830.92,369.166C8830.92,391.289 8846.37,409.25 8865.42,409.25L8965.75,409.25C8984.79,409.25 9000.25,391.289 9000.25,369.166Z" style="fill:rgb(249,173,68);"/>
            </g>
            <g transform="matrix(0.656447,0,0,0.642186,5696.4,43.9799)">
                <path d="M228.94,193.966C228.94,215.544 211.421,233.063 189.842,233.063L143.377,233.063C164.956,233.063 182.475,215.544 182.475,193.966L228.94,193.966Z" style="fill:rgb(240,152,62);"/>
            </g>
            <g transform="matrix(0.409722,0,0,0.313195,2112.35,57.1113)">
                <path d="M9000.25,389.208C9000.25,378.147 8992.88,369.166 8983.81,369.166L8847.35,369.166C8838.28,369.166 8830.92,378.147 8830.92,389.208C8830.92,400.27 8838.28,409.25 8847.35,409.25L8983.81,409.25C8992.88,409.25 9000.25,400.27 9000.25,389.208Z" style="fill:rgb(255,197,93);"/>
            </g>
        </g>
        <g transform="matrix(0.785672,0,0,0.365807,-1224.56,-13.8467)">
            <path d="M9000.25,389.208C9000.25,378.147 8996.29,369.166 8991.42,369.166L8839.75,369.166C8834.87,369.166 8830.92,378.147 8830.92,389.208C8830.92,400.27 8834.87,409.25 8839.75,409.25L8991.42,409.25C8996.29,409.25 9000.25,400.27 9000.25,389.208Z" style="fill:rgb(255,71,82);"/>
        </g>
        <g transform="matrix(0.498652,0,0,0.159863,1315,62.1809)">
            <path d="M9000.25,389.208C9000.25,378.147 8997.52,369.166 8994.17,369.166L8837,369.166C8833.64,369.166 8830.92,378.147 8830.92,389.208C8830.92,400.27 8833.64,409.25 8837,409.25L8994.17,409.25C8997.52,409.25 9000.25,400.27 9000.25,389.208Z" style="fill:rgb(255,126,131);"/>
        </g>
        <g transform="matrix(0.819254,0,0,0.815351,-1523.68,-165.14)">
            <path d="M9000.25,389.208C9000.25,378.147 8991.79,369.166 8981.37,369.166L8849.79,369.166C8839.37,369.166 8830.92,378.147 8830.92,389.208C8830.92,400.27 8839.37,409.25 8849.79,409.25L8981.37,409.25C8991.79,409.25 9000.25,400.27 9000.25,389.208Z" style="fill:rgb(127,59,47);"/>
        </g>
        <g transform="matrix(0.442726,0,0,0.412276,1807.79,-11.7429)">
            <path d="M9000.25,389.208C9000.25,378.147 8992.33,369.166 8982.59,369.166L8848.58,369.166C8838.83,369.166 8830.92,378.147 8830.92,389.208C8830.92,400.27 8838.83,409.25 8848.58,409.25L8982.59,409.25C8992.33,409.25 9000.25,400.27 9000.25,389.208Z" style="fill:rgb(158,73,59);"/>
        </g>
        <g transform="matrix(0.592725,0,0,0.62639,510.272,-99.3407)">
            <path d="M8872.65,358.538C8869.91,354.497 8865.34,352.077 8860.46,352.077L8787.9,352.077C8783.63,352.077 8780.16,348.609 8780.16,344.337C8780.16,340.066 8783.63,336.598 8787.9,336.598L8995.44,336.598C8999.71,336.598 9003.18,340.066 9003.18,344.337C9003.18,348.609 8999.71,352.077 8995.44,352.077L8978.31,352.077C8971.45,352.077 8965.49,356.817 8963.95,363.506C8962.2,371.149 8959.72,381.914 8957.04,393.576C8955.47,400.397 8949.32,405.172 8942.32,405.001C8935.33,404.83 8929.42,399.76 8928.18,392.87C8927.09,386.75 8926.01,380.69 8924.97,374.905C8923.99,369.425 8919.5,365.255 8913.97,364.677C8908.43,364.098 8903.18,367.251 8901.09,372.409C8901.09,372.411 8901.08,372.414 8901.08,372.416C8899.68,375.875 8896.49,378.281 8892.77,378.673C8889.06,379.066 8885.43,377.382 8883.34,374.292C8879.59,368.773 8875.59,362.871 8872.65,358.538Z" style="fill:rgb(255,211,0);"/>
        </g>
        <g transform="matrix(1,0,0,1,-1.69281,0)">
            <g transform="matrix(0.622746,0,0,1.08384,228.442,-332.06)">
                <path d="M9000.25,409.25C9000.25,387.127 8970.67,369.166 8934.23,369.166L8896.93,369.166C8860.5,369.166 8830.92,387.127 8830.92,409.25L9000.25,409.25Z" style="fill:rgb(249,173,68);"/>
            </g>
            <g transform="matrix(0.54956,0,0,0.580773,5709.46,53.6851)">
                <circle cx="88.491" cy="64.132" r="20.111" style="fill:rgb(255,197,93);"/>
            </g>
            <g transform="matrix(0.510737,0,0,0.539745,1242.38,-59.1548)">
                <path d="M8864.02,235.835C8865.65,235.737 8867.28,235.687 8868.93,235.687L8914.41,235.687C8958.84,235.687 8994.91,271.754 8994.91,316.178L8939.6,316.178C8939.6,273.402 8906.17,238.375 8864.02,235.835Z" style="fill:rgb(240,152,62);"/>
            </g>
            <g transform="matrix(0.861676,0,0,0.861676,801.466,12.4827)">
                <g transform="matrix(0.452624,0,0,0.478331,1744.59,-43.1264)">
                    <circle cx="8823.59" cy="288.186" r="9.001" style="fill:rgb(249,232,142);"/>
                </g>
                <g transform="matrix(0.452624,0,0,0.478331,1771.31,-55.7718)">
                    <circle cx="8823.59" cy="288.186" r="9.001" style="fill:rgb(249,232,142);"/>
                </g>
                <g transform="matrix(0.452624,0,0,0.478331,1798.03,-39.4408)">
                    <circle cx="8823.59" cy="288.186" r="9.001" style="fill:rgb(249,232,142);"/>
                </g>
                <g transform="matrix(0.452624,0,0,0.478331,1824.75,-53.1759)">
                    <circle cx="8823.59" cy="288.186" r="9.001" style="fill:rgb(249,232,142);"/>
                </g>
            </g>
        </g>
    </g>
</svg>
