<?xml version="1.0" encoding="UTF-8" standalone="no"?>
<!DOCTYPE svg PUBLIC "-//W3C//DTD SVG 1.1//EN" "http://www.w3.org/Graphics/SVG/1.1/DTD/svg11.dtd">
<svg width="100%" height="100%" viewBox="0 0 256 256" version="1.1" xmlns="http://www.w3.org/2000/svg" xmlns:xlink="http://www.w3.org/1999/xlink" xml:space="preserve" xmlns:serif="http://www.serif.com/" style="fill-rule:evenodd;clip-rule:evenodd;stroke-linejoin:round;stroke-miterlimit:2;">
    <g id="Cake---Pink" serif:id="Cake - Pink" transform="matrix(1.29112,0,0,1.29721,-14738.7,-1170.44)">
        <g transform="matrix(1.38185,0,0,1.38185,-4396.84,-315.089)">
            <g transform="matrix(4.25006,0,2.20207e-15,3.34498,-13089.4,-2537.31)">
                <ellipse cx="5789.08" cy="1056.08" rx="14.768" ry="7.595" style="fill:rgb(83,171,222);"/>
            </g>
            <g transform="matrix(4.25006,-4.9123e-17,2.848e-15,1.57641,-13089.4,-679.564)">
                <rect x="5774.31" y="1054.84" width="29.536" height="8.616" style="fill:rgb(83,171,222);"/>
            </g>
            <g transform="matrix(4.25006,0,2.20207e-15,3.34498,-13089.4,-2549.26)">
                <ellipse cx="5789.08" cy="1056.08" rx="14.768" ry="7.595" style="fill:rgb(149,217,255);"/>
            </g>
        </g>
        <g transform="matrix(1.01718,0,0,1.01241,-139.636,0)">
            <path d="M11528.4,1024.47C11528.4,1040.43 11496.6,1053.39 11457.3,1053.39C11418.1,1053.39 11386.2,1040.43 11386.2,1024.47C11386.2,1024.47 11386.2,970.338 11386.2,970.338L11528.4,970.338L11528.4,1024.47Z" style="fill:rgb(255,156,194);"/>
            <clipPath id="_clip1">
                <path d="M11528.4,1024.47C11528.4,1040.43 11496.6,1053.39 11457.3,1053.39C11418.1,1053.39 11386.2,1040.43 11386.2,1024.47C11386.2,1024.47 11386.2,970.338 11386.2,970.338L11528.4,970.338L11528.4,1024.47Z"/>
            </clipPath>
            <g clip-path="url(#_clip1)">
                <g transform="matrix(0.104008,0,0,1.83096,10243.9,-953.038)">
                    <rect x="11076.4" y="1055.29" width="161.333" height="41.055" style="fill:rgb(255,122,173);"/>
                </g>
                <g transform="matrix(0.104008,0,0,1.83096,10279.2,-953.038)">
                    <rect x="11076.4" y="1055.29" width="161.333" height="41.055" style="fill:rgb(255,122,173);"/>
                </g>
                <g transform="matrix(0.104008,0,0,1.83096,10314.6,-953.038)">
                    <rect x="11076.4" y="1055.29" width="161.333" height="41.055" style="fill:rgb(255,122,173);"/>
                </g>
                <g transform="matrix(0.104008,0,0,1.83096,10349.9,-953.038)">
                    <rect x="11076.4" y="1055.29" width="161.333" height="41.055" style="fill:rgb(255,122,173);"/>
                </g>
            </g>
        </g>
        <g transform="matrix(1.06792,0,0,1.06792,-782.038,-124.963)">
            <g transform="matrix(4.89713,0,2.53733e-15,3.85425,-16835.3,-3033.19)">
                <ellipse cx="5789.08" cy="1056.08" rx="14.768" ry="7.595" style="fill:rgb(255,165,48);"/>
            </g>
            <g transform="matrix(4.89713,-5.48634e-17,3.28161e-15,1.76062,-16835.3,-835.155)">
                <rect x="5774.31" y="1054.84" width="29.536" height="8.616" style="fill:rgb(255,165,48);"/>
            </g>
            <g transform="matrix(4.89713,0,2.53733e-15,3.85425,-16835.3,-3048.54)">
                <ellipse cx="5789.08" cy="1056.08" rx="14.768" ry="7.595" style="fill:rgb(255,224,73);"/>
            </g>
        </g>
        <g transform="matrix(1.15896,0,0,1.69042,-1764.59,-662.997)">
            <ellipse cx="11457.9" cy="959.556" rx="34.523" ry="13.227" style="fill:white;"/>
        </g>
        <g transform="matrix(0.721738,0,0,1.31468,3245.01,-325.966)">
            <ellipse cx="11457.9" cy="959.556" rx="34.523" ry="13.227" style="fill:white;"/>
        </g>
        <g transform="matrix(1.11955,0,0,1.11955,-1335.81,-130.134)">
            <g transform="matrix(1.14719,0,0,1.1418,-1624.45,-120.135)">
                <circle cx="11421.5" cy="928.459" r="12.22" style="fill:rgb(255,61,73);"/>
            </g>
            <g transform="matrix(0.406381,0,0,0.404474,6833.59,560.284)">
                <circle cx="11421.5" cy="928.459" r="12.22" style="fill:rgb(255,163,166);"/>
            </g>
        </g>
    </g>
</svg>
