<?xml version="1.0" encoding="UTF-8" standalone="no"?>
<!DOCTYPE svg PUBLIC "-//W3C//DTD SVG 1.1//EN" "http://www.w3.org/Graphics/SVG/1.1/DTD/svg11.dtd">
<svg width="100%" height="100%" viewBox="0 0 256 256" version="1.1" xmlns="http://www.w3.org/2000/svg" xmlns:xlink="http://www.w3.org/1999/xlink" xml:space="preserve" xmlns:serif="http://www.serif.com/" style="fill-rule:evenodd;clip-rule:evenodd;stroke-linejoin:round;stroke-miterlimit:2;">
    <g id="Calendar" transform="matrix(3.43213,0,0,5.23386,-19055.6,-5111.64)">
        <g transform="matrix(1,0,0,0.655755,514.367,-71.0013)">
            <path d="M5106.36,1623.63C5106.36,1618.97 5102.58,1615.19 5097.93,1615.19L5052.17,1615.19C5047.51,1615.19 5043.73,1618.97 5043.73,1623.63L5043.73,1661.97C5043.73,1666.62 5047.51,1670.4 5052.17,1670.4L5097.93,1670.4C5102.58,1670.4 5106.36,1666.62 5106.36,1661.97L5106.36,1623.63Z" style="fill:rgb(232,236,239);"/>
        </g>
        <g transform="matrix(1,0,0,0.692806,514.367,-135.71)">
            <path d="M5106.36,1623.2C5106.36,1618.78 5102.57,1615.19 5097.9,1615.19L5052.19,1615.19C5047.52,1615.19 5043.73,1618.78 5043.73,1623.2L5043.73,1662.39C5043.73,1666.81 5047.52,1670.4 5052.19,1670.4L5097.9,1670.4C5102.57,1670.4 5106.36,1666.81 5106.36,1662.39L5106.36,1623.2Z" style="fill:white;"/>
        </g>
        <g transform="matrix(1,0,0,0.324866,10.6694,455.67)">
            <rect x="5547.43" y="1652.57" width="62.624" height="13.181" style="fill:rgb(243,8,45);"/>
        </g>
        <g transform="matrix(1,0,0,0.106857,10.6694,820.225)">
            <rect x="5547.43" y="1652.57" width="62.624" height="13.181" style="fill:rgb(205,212,219);"/>
        </g>
        <g transform="matrix(1,0,0,0.19367,514.367,670.49)">
            <path d="M5106.36,1642.8C5106.36,1627.56 5102.71,1615.19 5098.21,1615.19L5051.89,1615.19C5047.39,1615.19 5043.73,1627.56 5043.73,1642.8L5043.73,1670.4L5106.36,1670.4L5106.36,1642.8Z" style="fill:rgb(255,60,75);"/>
        </g>
        <g transform="matrix(1,0,0,1,-0.698831,0.929642)">
            <g transform="matrix(1,0,0,0.655755,10.6694,-95.058)">
                <circle cx="5563.95" cy="1649.67" r="5.208" style="fill:rgb(243,8,45);"/>
            </g>
            <g transform="matrix(1,0,0,0.655755,41.6659,-95.058)">
                <circle cx="5563.95" cy="1649.67" r="5.208" style="fill:rgb(243,8,45);"/>
            </g>
            <g transform="matrix(1,0,0,0.655755,10.3259,-93.7219)">
                <path d="M5567.73,1636.1C5567.73,1634.2 5566.19,1632.66 5564.29,1632.66C5562.39,1632.66 5560.85,1634.2 5560.85,1636.1L5560.85,1647.41C5560.85,1649.3 5562.39,1650.84 5564.29,1650.84C5566.19,1650.84 5567.73,1649.3 5567.73,1647.41L5567.73,1636.1Z" style="fill:rgb(190,203,214);"/>
            </g>
            <g transform="matrix(1,0,0,0.655755,41.3224,-93.7219)">
                <path d="M5567.73,1636.1C5567.73,1634.2 5566.19,1632.66 5564.29,1632.66C5562.39,1632.66 5560.85,1634.2 5560.85,1636.1L5560.85,1647.41C5560.85,1649.3 5562.39,1650.84 5564.29,1650.84C5566.19,1650.84 5567.73,1649.3 5567.73,1647.41L5567.73,1636.1Z" style="fill:rgb(190,203,214);"/>
            </g>
        </g>
        <g transform="matrix(1.47175,0,0,1.47175,-2628.42,-474.348)">
            <g transform="matrix(0.511894,0,0,0.335677,2722.29,442.514)">
                <path d="M5567.73,1673.13C5567.73,1671.42 5566.33,1670.03 5564.62,1670.03L5558.4,1670.03C5556.68,1670.03 5555.29,1671.42 5555.29,1673.13L5555.29,1679.36C5555.29,1681.07 5556.68,1682.47 5558.4,1682.47L5564.62,1682.47C5566.33,1682.47 5567.73,1681.07 5567.73,1679.36L5567.73,1673.13Z" style="fill:rgb(201,236,255);"/>
            </g>
            <g transform="matrix(0.511894,0,0,0.335677,2731.97,442.514)">
                <path d="M5567.73,1673.13C5567.73,1671.42 5566.33,1670.03 5564.62,1670.03L5558.4,1670.03C5556.68,1670.03 5555.29,1671.42 5555.29,1673.13L5555.29,1679.36C5555.29,1681.07 5556.68,1682.47 5558.4,1682.47L5564.62,1682.47C5566.33,1682.47 5567.73,1681.07 5567.73,1679.36L5567.73,1673.13Z" style="fill:rgb(201,236,255);"/>
            </g>
            <g transform="matrix(0.511894,0,0,0.335677,2741.66,442.514)">
                <path d="M5567.73,1673.13C5567.73,1671.42 5566.33,1670.03 5564.62,1670.03L5558.4,1670.03C5556.68,1670.03 5555.29,1671.42 5555.29,1673.13L5555.29,1679.36C5555.29,1681.07 5556.68,1682.47 5558.4,1682.47L5564.62,1682.47C5566.33,1682.47 5567.73,1681.07 5567.73,1679.36L5567.73,1673.13Z" style="fill:rgb(201,236,255);"/>
            </g>
            <g transform="matrix(0.511894,0,0,0.335677,2751.34,442.514)">
                <path d="M5567.73,1673.13C5567.73,1671.42 5566.33,1670.03 5564.62,1670.03L5558.4,1670.03C5556.68,1670.03 5555.29,1671.42 5555.29,1673.13L5555.29,1679.36C5555.29,1681.07 5556.68,1682.47 5558.4,1682.47L5564.62,1682.47C5566.33,1682.47 5567.73,1681.07 5567.73,1679.36L5567.73,1673.13Z" style="fill:rgb(201,236,255);"/>
            </g>
        </g>
        <g transform="matrix(1.47175,0,0,1.47175,-2628.42,-464.462)">
            <g transform="matrix(0.511894,0,0,0.335677,2722.29,442.514)">
                <path d="M5567.73,1673.13C5567.73,1671.42 5566.33,1670.03 5564.62,1670.03L5558.4,1670.03C5556.68,1670.03 5555.29,1671.42 5555.29,1673.13L5555.29,1679.36C5555.29,1681.07 5556.68,1682.47 5558.4,1682.47L5564.62,1682.47C5566.33,1682.47 5567.73,1681.07 5567.73,1679.36L5567.73,1673.13Z" style="fill:rgb(201,236,255);"/>
            </g>
            <g transform="matrix(0.511894,0,0,0.335677,2731.97,442.514)">
                <path d="M5567.73,1673.13C5567.73,1671.42 5566.33,1670.03 5564.62,1670.03L5558.4,1670.03C5556.68,1670.03 5555.29,1671.42 5555.29,1673.13L5555.29,1679.36C5555.29,1681.07 5556.68,1682.47 5558.4,1682.47L5564.62,1682.47C5566.33,1682.47 5567.73,1681.07 5567.73,1679.36L5567.73,1673.13Z" style="fill:rgb(201,236,255);"/>
            </g>
            <g transform="matrix(0.511894,0,0,0.335677,2741.66,442.514)">
                <path d="M5567.73,1673.13C5567.73,1671.42 5566.33,1670.03 5564.62,1670.03L5558.4,1670.03C5556.68,1670.03 5555.29,1671.42 5555.29,1673.13L5555.29,1679.36C5555.29,1681.07 5556.68,1682.47 5558.4,1682.47L5564.62,1682.47C5566.33,1682.47 5567.73,1681.07 5567.73,1679.36L5567.73,1673.13Z" style="fill:rgb(201,236,255);"/>
            </g>
            <g transform="matrix(0.511894,0,0,0.335677,2751.34,442.514)">
                <path d="M5567.73,1673.13C5567.73,1671.42 5566.33,1670.03 5564.62,1670.03L5558.4,1670.03C5556.68,1670.03 5555.29,1671.42 5555.29,1673.13L5555.29,1679.36C5555.29,1681.07 5556.68,1682.47 5558.4,1682.47L5564.62,1682.47C5566.33,1682.47 5567.73,1681.07 5567.73,1679.36L5567.73,1673.13Z" style="fill:rgb(201,236,255);"/>
            </g>
        </g>
    </g>
</svg>
