<?xml version="1.0" encoding="UTF-8" standalone="no"?>
<!DOCTYPE svg PUBLIC "-//W3C//DTD SVG 1.1//EN" "http://www.w3.org/Graphics/SVG/1.1/DTD/svg11.dtd">
<svg width="100%" height="100%" viewBox="0 0 256 256" version="1.1" xmlns="http://www.w3.org/2000/svg" xmlns:xlink="http://www.w3.org/1999/xlink" xml:space="preserve" xmlns:serif="http://www.serif.com/" style="fill-rule:evenodd;clip-rule:evenodd;stroke-linejoin:round;stroke-miterlimit:2;">
    <g id="Carrot" transform="matrix(1.56472,1.56472,-1.48062,1.48062,-6955.57,-8025.62)">
        <g transform="matrix(0.610029,-4.38678e-17,8.77356e-17,0.647716,-1974.88,-116.837)">
            <g transform="matrix(0.494188,0.145701,0.170163,-0.423147,5439.48,-719.476)">
                <path d="M11470.6,631.549C11470.6,631.549 11453.1,703.691 11453.1,734.609C11453.1,745.579 11460.9,754.485 11470.6,754.485C11480.3,754.485 11488.2,745.579 11488.2,734.609C11488.2,703.691 11470.6,631.549 11470.6,631.549Z" style="fill:rgb(130,175,54);"/>
            </g>
            <g transform="matrix(0.494188,-0.145701,-0.170163,-0.423147,5654.41,2623.1)">
                <path d="M11470.6,631.549C11470.6,631.549 11453.1,703.691 11453.1,734.609C11453.1,745.579 11460.9,754.485 11470.6,754.485C11480.3,754.485 11488.2,745.579 11488.2,734.609C11488.2,703.691 11470.6,631.549 11470.6,631.549Z" style="fill:rgb(130,175,54);"/>
            </g>
            <g transform="matrix(0.522663,0,-5.54176e-48,-0.520211,5220.32,1013.11)">
                <path d="M11470.6,631.549C11470.6,631.549 11453.1,705.296 11453.1,736.901C11453.1,746.606 11460.9,754.485 11470.6,754.485C11480.3,754.485 11488.2,746.606 11488.2,736.901C11488.2,705.296 11470.6,631.549 11470.6,631.549Z" style="fill:rgb(143,199,65);"/>
            </g>
        </g>
        <g transform="matrix(0.620512,-4.46216e-17,8.88245e-17,0.655755,-2240.02,-168.184)">
            <ellipse cx="11453.4" cy="752.025" rx="6.543" ry="9.961" style="fill:rgb(119,123,43);"/>
        </g>
        <g transform="matrix(0.620512,0,0,-0.655755,1737.27,997.06)">
            <path d="M5057.46,876.403C5055.1,870.841 5049.64,867.231 5043.59,867.231C5037.55,867.231 5032.09,870.841 5029.72,876.403C5016.28,908.122 4997.91,956.239 4997.91,982.312C4997.91,1007.52 5018.38,1028 5043.59,1028C5068.81,1028 5089.28,1007.52 5089.28,982.312C5089.28,956.239 5070.9,908.122 5057.46,876.403Z" style="fill:rgb(255,125,70);"/>
            <clipPath id="_clip1">
                <path d="M5057.46,876.403C5055.1,870.841 5049.64,867.231 5043.59,867.231C5037.55,867.231 5032.09,870.841 5029.72,876.403C5016.28,908.122 4997.91,956.239 4997.91,982.312C4997.91,1007.52 5018.38,1028 5043.59,1028C5068.81,1028 5089.28,1007.52 5089.28,982.312C5089.28,956.239 5070.9,908.122 5057.46,876.403Z"/>
            </clipPath>
            <g clip-path="url(#_clip1)">
                <g transform="matrix(1.2684,0,-1.97215e-31,-1,-1670.08,1673.97)">
                    <path d="M5343.9,702.255C5343.9,698.712 5341.63,695.836 5338.84,695.836L5287.4,695.836C5284.61,695.836 5282.34,698.712 5282.34,702.255C5282.34,705.798 5284.61,708.674 5287.4,708.674L5338.84,708.674C5341.63,708.674 5343.9,705.798 5343.9,702.255Z" style="fill:rgb(254,98,43);"/>
                </g>
                <g transform="matrix(1.2684,0,-1.47911e-31,-1,-1680.58,1643.41)">
                    <path d="M5343.9,702.255C5343.9,698.712 5341.63,695.836 5338.84,695.836L5287.4,695.836C5284.61,695.836 5282.34,698.712 5282.34,702.255C5282.34,705.798 5284.61,708.674 5287.4,708.674L5338.84,708.674C5341.63,708.674 5343.9,705.798 5343.9,702.255Z" style="fill:rgb(254,98,43);"/>
                </g>
                <g transform="matrix(1.2684,0,-1.72563e-31,-1,-1670.08,1612.84)">
                    <path d="M5343.9,702.255C5343.9,698.712 5341.63,695.836 5338.84,695.836L5287.4,695.836C5284.61,695.836 5282.34,698.712 5282.34,702.255C5282.34,705.798 5284.61,708.674 5287.4,708.674L5338.84,708.674C5341.63,708.674 5343.9,705.798 5343.9,702.255Z" style="fill:rgb(254,98,43);"/>
                </g>
            </g>
        </g>
        <g transform="matrix(0.319546,-0.337695,0.319546,0.337695,4787.18,361.351)">
            <path d="M170.793,59.2C174.614,61.624 178.231,64.504 181.565,67.838C206.046,92.319 206.046,132.069 181.565,156.55C156.251,181.865 91.697,210.746 47.848,228.492C40.15,231.594 31.343,229.798 25.475,223.929C21.824,220.279 19.75,215.492 19.45,210.543C22.459,210.726 25.527,210.253 28.437,209.081C72.286,191.335 136.84,162.453 162.154,137.139C183.301,115.992 186.181,83.453 170.793,59.2Z" style="fill:rgb(254,98,43);"/>
        </g>
        <g transform="matrix(0.36799,0.224526,-0.258473,0.473115,3161.14,-1147.8)">
            <circle cx="5110.79" cy="724.996" r="16.447" style="fill:rgb(255,189,106);"/>
        </g>
    </g>
</svg>
