<?xml version="1.0" encoding="UTF-8" standalone="no"?>
<!DOCTYPE svg PUBLIC "-//W3C//DTD SVG 1.1//EN" "http://www.w3.org/Graphics/SVG/1.1/DTD/svg11.dtd">
<svg width="100%" height="100%" viewBox="0 0 256 256" version="1.1" xmlns="http://www.w3.org/2000/svg" xmlns:xlink="http://www.w3.org/1999/xlink" xml:space="preserve" xmlns:serif="http://www.serif.com/" style="fill-rule:evenodd;clip-rule:evenodd;stroke-linejoin:round;stroke-miterlimit:2;">
    <g id="Cat--Gray-Tiger-" serif:id="Cat (Gray Tiger)" transform="matrix(1.46381,0,0,1.46381,-6941.71,-462.286)">
        <g transform="matrix(1,0,0,1,-2.12638,-0.0101417)">
            <g transform="matrix(-0.679323,-0.392207,-0.431536,0.747442,5819.25,207.31)">
                <g transform="matrix(1,0,0,1,-546.23,-81.3293)">
                    <path d="M1495.46,735.055C1517.23,735.055 1534.9,763.521 1534.9,785.29C1534.9,807.059 1517.23,824.733 1495.46,824.733C1473.69,824.733 1456.02,807.059 1456.02,785.29C1456.02,763.521 1473.69,735.055 1495.46,735.055Z" style="fill:rgb(205,212,219);"/>
                </g>
                <g transform="matrix(0.566334,0,0,0.566334,102.3,260.707)">
                    <path d="M1495.46,723.867C1517.23,723.867 1534.9,763.521 1534.9,785.29C1534.9,807.059 1517.23,824.733 1495.46,824.733C1473.69,824.733 1456.02,807.059 1456.02,785.29C1456.02,763.521 1473.69,723.867 1495.46,723.867Z" style="fill:rgb(254,137,156);"/>
                </g>
            </g>
            <g transform="matrix(0.679323,-0.392207,0.431536,0.747442,3844.32,207.31)">
                <g transform="matrix(1,0,0,1,-546.23,-81.3293)">
                    <path d="M1495.46,735.055C1517.23,735.055 1534.9,763.521 1534.9,785.29C1534.9,807.059 1517.23,824.733 1495.46,824.733C1473.69,824.733 1456.02,807.059 1456.02,785.29C1456.02,763.521 1473.69,735.055 1495.46,735.055Z" style="fill:rgb(205,212,219);"/>
                </g>
                <g transform="matrix(0.566334,0,0,0.566334,102.3,260.707)">
                    <path d="M1495.46,723.867C1517.23,723.867 1534.9,763.521 1534.9,785.29C1534.9,807.059 1517.23,824.733 1495.46,824.733C1473.69,824.733 1456.02,807.059 1456.02,785.29C1456.02,763.521 1473.69,723.867 1495.46,723.867Z" style="fill:rgb(254,137,156);"/>
                </g>
            </g>
        </g>
        <g>
            <g transform="matrix(1.06429,0,0,1.14853,4703.85,218.055)">
                <path d="M118.212,110.053C160.16,110.053 194.216,133.15 194.216,173.055C194.216,212.961 160.16,236.058 118.212,236.058C76.264,236.058 42.207,212.961 42.207,173.055C42.207,133.15 76.264,110.053 118.212,110.053Z" style="fill:rgb(205,212,219);"/>
                <clipPath id="_clip1">
                    <path d="M118.212,110.053C160.16,110.053 194.216,133.15 194.216,173.055C194.216,212.961 160.16,236.058 118.212,236.058C76.264,236.058 42.207,212.961 42.207,173.055C42.207,133.15 76.264,110.053 118.212,110.053Z"/>
                </clipPath>
                <g clip-path="url(#_clip1)">
                    <g transform="matrix(0.64188,0,0,0.594804,36.0513,85.113)">
                        <path d="M233.065,200.524L219.159,195.373C215.062,193.855 212.923,189.281 214.385,185.165C215.847,181.048 220.359,178.938 224.456,180.456L239.817,186.147C237.934,191.201 235.673,195.995 233.065,200.524ZM243.03,175.846L208.964,166.476C204.75,165.316 202.224,160.942 203.328,156.712C204.432,152.483 208.75,149.991 212.964,151.15L245.789,160.179C245.231,165.617 244.303,170.842 243.03,175.846ZM246.399,149.424L233.224,147.001C228.918,146.209 226.022,142.063 226.761,137.748C227.5,133.432 231.596,130.572 235.902,131.364L245.518,133.132C246.106,137.869 246.409,142.779 246.409,147.851C246.409,148.374 246.406,148.896 246.399,149.424Z" style="fill:rgb(132,142,151);"/>
                    </g>
                    <g transform="matrix(0.64188,0,0,0.594804,36.0513,85.113)">
                        <path d="M121.441,42.062C123.609,41.974 125.798,41.93 128,41.93C130.993,41.93 133.96,42.011 136.896,42.173L136.896,100.865C136.896,105.13 133.433,108.593 129.168,108.593C124.903,108.593 121.441,105.13 121.441,100.865L121.441,42.062ZM149.19,43.342C154.412,44.054 159.515,45.032 164.469,46.267L161.416,83.252C161.065,87.506 157.329,90.648 153.077,90.264C148.826,89.88 145.659,86.114 146.01,81.86L149.19,43.342ZM109.123,43.046L112.326,81.86C112.677,86.114 109.511,89.88 105.259,90.264C101.008,90.648 97.271,87.506 96.92,83.252L93.822,45.717C98.793,44.567 103.901,43.674 109.123,43.046Z" style="fill:rgb(132,142,151);"/>
                    </g>
                    <g transform="matrix(0.64188,0,0,0.594804,36.0513,85.113)">
                        <path d="M15.56,184.426L26.275,180.456C30.372,178.938 34.884,181.048 36.346,185.165C37.808,189.281 35.669,193.855 31.572,195.373L22.026,198.909C19.513,194.342 17.347,189.511 15.56,184.426ZM10.075,158.763L37.778,151.143C41.995,149.983 46.315,152.477 47.419,156.708C48.524,160.939 45.997,165.316 41.78,166.476L12.636,174.493C11.429,169.466 10.567,164.22 10.075,158.763ZM10.61,132.14L14.829,131.364C19.135,130.572 23.231,133.432 23.97,137.748C24.709,142.063 21.813,146.209 17.507,147.001L9.593,148.456L9.591,147.851C9.591,142.43 9.937,137.194 10.61,132.14Z" style="fill:rgb(132,142,151);"/>
                    </g>
                </g>
            </g>
            <g transform="matrix(1.06429,0,0,1.06429,4702.7,220.916)">
                <g transform="matrix(0.661858,0,0,0.661858,32.2669,55.7478)">
                    <circle cx="86.998" cy="174.87" r="10.068" style="fill:rgb(60,69,77);"/>
                </g>
                <g transform="matrix(0.661858,0,0,0.661858,91.1449,55.7478)">
                    <circle cx="86.998" cy="174.87" r="10.068" style="fill:rgb(60,69,77);"/>
                </g>
            </g>
            <g transform="matrix(0.617495,0,0,0.617495,4749.16,294.578)">
                <g transform="matrix(1.47684,0,0,1.47684,-7122.17,-589.958)">
                    <path d="M4909.37,533.445L4909.37,540.098C4909.37,544.867 4905.5,548.739 4900.73,548.739C4897.36,548.739 4894.45,546.811 4893.02,544.002C4892.65,543.283 4891.77,542.995 4891.05,543.361C4890.34,543.726 4890.05,544.607 4890.41,545.327C4892.32,549.086 4896.23,551.663 4900.73,551.663C4907.11,551.663 4912.3,546.481 4912.3,540.098L4912.3,533.445C4912.3,532.638 4911.64,531.983 4910.83,531.983C4910.03,531.983 4909.37,532.638 4909.37,533.445Z" style="fill:rgb(50,58,65);"/>
                </g>
                <g transform="matrix(1.47684,0,0,1.47684,-7092.31,-589.958)">
                    <path d="M4908.44,544.002C4907.01,546.811 4904.09,548.739 4900.73,548.739C4895.96,548.739 4892.09,544.867 4892.09,540.098C4892.09,539.291 4891.43,538.636 4890.63,538.636C4889.82,538.636 4889.16,539.291 4889.16,540.098C4889.16,546.481 4894.35,551.663 4900.73,551.663C4905.23,551.663 4909.14,549.086 4911.05,545.327C4911.41,544.607 4911.12,543.726 4910.4,543.361C4909.69,542.995 4908.81,543.283 4908.44,544.002Z" style="fill:rgb(50,58,65);"/>
                </g>
            </g>
            <g transform="matrix(0.836707,0,0,0.707441,4756.87,287.361)">
                <circle cx="86.998" cy="174.87" r="10.068" style="fill:rgb(254,137,157);"/>
            </g>
            <g transform="matrix(0.683148,0,0,0.683148,4729.26,320.629)">
                <circle cx="90.633" cy="69.103" r="9.688" style="fill:rgb(248,249,250);"/>
            </g>
            <g transform="matrix(1.03957,0,0,1.03957,4705.14,235.747)">
                <g transform="matrix(0.965926,0.258819,-0.207128,0.773012,109.079,34.1811)">
                    <circle cx="86.998" cy="174.87" r="10.068" style="fill:rgb(255,185,203);"/>
                </g>
                <g transform="matrix(0.965926,-0.258819,0.207128,0.773012,-37.5801,79.2144)">
                    <circle cx="86.998" cy="174.87" r="10.068" style="fill:rgb(255,185,203);"/>
                </g>
            </g>
        </g>
    </g>
</svg>
