<?xml version="1.0" encoding="UTF-8" standalone="no"?>
<!DOCTYPE svg PUBLIC "-//W3C//DTD SVG 1.1//EN" "http://www.w3.org/Graphics/SVG/1.1/DTD/svg11.dtd">
<svg width="100%" height="100%" viewBox="0 0 256 256" version="1.1" xmlns="http://www.w3.org/2000/svg" xmlns:xlink="http://www.w3.org/1999/xlink" xml:space="preserve" xmlns:serif="http://www.serif.com/" style="fill-rule:evenodd;clip-rule:evenodd;stroke-linejoin:round;stroke-miterlimit:2;">
    <g id="Cat--Calico-" serif:id="Cat (Calico)" transform="matrix(1.46381,0,0,2.23225,-8551.05,-308.176)">
        <g transform="matrix(1,0,0,0.655755,1097.29,-70.7963)">
            <g transform="matrix(-0.679323,-0.392207,-0.431536,0.747442,5819.25,207.31)">
                <g transform="matrix(1,0,0,1,-546.23,-81.3293)">
                    <path d="M1495.46,735.055C1517.23,735.055 1534.9,763.521 1534.9,785.29C1534.9,807.059 1517.23,824.733 1495.46,824.733C1473.69,824.733 1456.02,807.059 1456.02,785.29C1456.02,763.521 1473.69,735.055 1495.46,735.055Z" style="fill:rgb(167,105,15);"/>
                </g>
                <g transform="matrix(0.566334,0,0,0.566334,102.3,260.707)">
                    <path d="M1495.46,723.867C1517.23,723.867 1534.9,763.521 1534.9,785.29C1534.9,807.059 1517.23,824.733 1495.46,824.733C1473.69,824.733 1456.02,807.059 1456.02,785.29C1456.02,763.521 1473.69,723.867 1495.46,723.867Z" style="fill:rgb(254,137,156);"/>
                </g>
            </g>
            <g transform="matrix(0.679323,-0.392207,0.431536,0.747442,3844.32,207.31)">
                <g transform="matrix(1,0,0,1,-546.23,-81.3293)">
                    <path d="M1495.46,735.055C1517.23,735.055 1534.9,763.521 1534.9,785.29C1534.9,807.059 1517.23,824.733 1495.46,824.733C1473.69,824.733 1456.02,807.059 1456.02,785.29C1456.02,763.521 1473.69,735.055 1495.46,735.055Z" style="fill:rgb(245,192,63);"/>
                </g>
                <g transform="matrix(0.566334,0,0,0.566334,102.3,260.707)">
                    <path d="M1495.46,723.867C1517.23,723.867 1534.9,763.521 1534.9,785.29C1534.9,807.059 1517.23,824.733 1495.46,824.733C1473.69,824.733 1456.02,807.059 1456.02,785.29C1456.02,763.521 1473.69,723.867 1495.46,723.867Z" style="fill:rgb(252,111,135);"/>
                </g>
            </g>
        </g>
        <g transform="matrix(1,0,0,1,0,2.82536)">
            <g transform="matrix(1.06429,-3.23904e-18,5.19221e-18,-0.761439,5803.27,332.006)">
                <path d="M118.212,110.053C160.16,110.053 194.216,133.15 194.216,173.055C194.216,212.961 160.16,236.058 118.212,236.058C76.264,236.058 42.207,212.961 42.207,173.055C42.207,133.15 76.264,110.053 118.212,110.053Z" style="fill:white;"/>
                <clipPath id="_clip1">
                    <path d="M118.212,110.053C160.16,110.053 194.216,133.15 194.216,173.055C194.216,212.961 160.16,236.058 118.212,236.058C76.264,236.058 42.207,212.961 42.207,173.055C42.207,133.15 76.264,110.053 118.212,110.053Z"/>
                </clipPath>
                <g clip-path="url(#_clip1)">
                    <g transform="matrix(0.64188,-2.73045e-18,2.8702e-18,-0.588331,36.0513,258.426)">
                        <path d="M109.958,39.048C117.594,51.377 122.023,66.041 122.023,81.771C122.023,125.464 87.845,160.937 45.748,160.937C32.735,160.937 20.48,157.548 9.755,151.573C9.646,149.445 9.591,147.291 9.591,145.106C9.591,83.647 53.152,45.644 109.958,39.048Z" style="fill:rgb(245,192,63);"/>
                    </g>
                    <g transform="matrix(0.64188,-2.73045e-18,2.8702e-18,-0.588331,36.0513,258.426)">
                        <path d="M146.214,39.069C202.935,45.72 246.409,83.708 246.409,145.106C246.409,147.012 246.367,148.896 246.284,150.766C235.788,156.416 223.871,159.609 211.242,159.609C169.144,159.609 134.967,124.136 134.967,80.443C134.967,65.281 139.082,51.11 146.214,39.069Z" style="fill:rgb(167,105,15);"/>
                    </g>
                </g>
            </g>
            <g transform="matrix(0.886907,0,0,0.584336,-3501.35,-586.947)">
                <g transform="matrix(0.982525,-0.262031,0.184513,0.685379,-14.1705,3229.84)">
                    <path d="M10687.3,1324.82C10687.3,1322.85 10686.1,1321.26 10684.8,1321.26L10660.6,1321.26C10659.2,1321.26 10658.1,1322.85 10658.1,1324.82C10658.1,1326.79 10659.2,1328.39 10660.6,1328.39L10684.8,1328.39C10686.1,1328.39 10687.3,1326.79 10687.3,1324.82Z" style="fill:rgb(81,57,6);"/>
                </g>
                <g transform="matrix(0.982525,0.262031,0.184513,-0.685379,-14.1705,-526.516)">
                    <path d="M10687.3,1324.82C10687.3,1322.85 10686.1,1321.26 10684.8,1321.26L10660.6,1321.26C10659.2,1321.26 10658.1,1322.85 10658.1,1324.82C10658.1,1326.79 10659.2,1328.39 10660.6,1328.39L10684.8,1328.39C10686.1,1328.39 10687.3,1326.79 10687.3,1324.82Z" style="fill:rgb(81,57,6);"/>
                </g>
                <g transform="matrix(-0.982525,-0.262031,-0.184513,0.685379,21280,3229.84)">
                    <path d="M10687.3,1324.82C10687.3,1322.85 10686.1,1321.26 10684.8,1321.26L10660.6,1321.26C10659.2,1321.26 10658.1,1322.85 10658.1,1324.82C10658.1,1326.79 10659.2,1328.39 10660.6,1328.39L10684.8,1328.39C10686.1,1328.39 10687.3,1326.79 10687.3,1324.82Z" style="fill:rgb(81,57,6);"/>
                </g>
                <g transform="matrix(-0.982525,0.262031,-0.184513,-0.685379,21280,-526.516)">
                    <path d="M10687.3,1324.82C10687.3,1322.85 10686.1,1321.26 10684.8,1321.26L10660.6,1321.26C10659.2,1321.26 10658.1,1322.85 10658.1,1324.82C10658.1,1326.79 10659.2,1328.39 10660.6,1328.39L10684.8,1328.39C10686.1,1328.39 10687.3,1326.79 10687.3,1324.82Z" style="fill:rgb(81,57,6);"/>
                </g>
            </g>
            <g transform="matrix(0.983106,0,0,0.647716,-4526.38,-672.615)">
                <g>
                    <g transform="matrix(0.148885,-0.256666,0.428713,0.246356,8514.61,3724.43)">
                        <path d="M10687.3,1324.82C10687.3,1322.85 10684.6,1321.26 10681.3,1321.26L10664,1321.26C10660.8,1321.26 10658.1,1322.85 10658.1,1324.82C10658.1,1326.79 10660.8,1328.39 10664,1328.39L10681.3,1328.39C10684.6,1328.39 10687.3,1326.79 10687.3,1324.82Z" style="fill:rgb(89,55,11);"/>
                    </g>
                    <g transform="matrix(-0.0501512,-0.292138,-0.487964,0.082984,11840.7,4318.23)">
                        <path d="M10687.3,1324.82C10687.3,1322.85 10684.6,1321.26 10681.3,1321.26L10664,1321.26C10660.8,1321.26 10658.1,1322.85 10658.1,1324.82C10658.1,1326.79 10660.8,1328.39 10664,1328.39L10681.3,1328.39C10684.6,1328.39 10687.3,1326.79 10687.3,1324.82Z" style="fill:rgb(89,55,11);"/>
                    </g>
                </g>
                <g transform="matrix(-1,0,0,1,21270.3,0)">
                    <g transform="matrix(0.148885,-0.256666,0.428713,0.246356,8514.61,3724.43)">
                        <path d="M10687.3,1324.82C10687.3,1322.85 10684.6,1321.26 10681.3,1321.26L10664,1321.26C10660.8,1321.26 10658.1,1322.85 10658.1,1324.82C10658.1,1326.79 10660.8,1328.39 10664,1328.39L10681.3,1328.39C10684.6,1328.39 10687.3,1326.79 10687.3,1324.82Z" style="fill:rgb(89,55,11);"/>
                    </g>
                    <g transform="matrix(-0.0501512,-0.292138,-0.487964,0.082984,11840.7,4318.23)">
                        <path d="M10687.3,1324.82C10687.3,1322.85 10684.6,1321.26 10681.3,1321.26L10664,1321.26C10660.8,1321.26 10658.1,1322.85 10658.1,1324.82C10658.1,1326.79 10660.8,1328.39 10664,1328.39L10681.3,1328.39C10684.6,1328.39 10687.3,1326.79 10687.3,1324.82Z" style="fill:rgb(89,55,11);"/>
                    </g>
                </g>
            </g>
            <g>
                <g transform="matrix(1,0,0,1.07774,-4670.66,-1220.63)">
                    <path d="M10565.8,1308.23C10567.8,1306.85 10569.8,1306.08 10571.8,1306.08C10573.8,1306.08 10575.8,1306.85 10577.8,1308.23C10578.5,1308.73 10579.8,1308.78 10580.6,1308.33C10581.5,1307.88 10581.5,1307.11 10580.8,1306.61C10577.8,1304.58 10574.8,1303.64 10571.8,1303.64C10568.8,1303.64 10565.8,1304.58 10562.8,1306.61C10562.1,1307.11 10562.1,1307.88 10563,1308.33C10563.8,1308.78 10565,1308.73 10565.8,1308.23Z" style="fill:rgb(73,50,12);"/>
                </g>
                <g transform="matrix(1,0,0,1.07774,-4613.87,-1220.63)">
                    <path d="M10565.8,1308.23C10567.8,1306.85 10569.8,1306.08 10571.8,1306.08C10573.8,1306.08 10575.8,1306.85 10577.8,1308.23C10578.5,1308.73 10579.8,1308.78 10580.6,1308.33C10581.5,1307.88 10581.5,1307.11 10580.8,1306.61C10577.8,1304.58 10574.8,1303.64 10571.8,1303.64C10568.8,1303.64 10565.8,1304.58 10562.8,1306.61C10562.1,1307.11 10562.1,1307.88 10563,1308.33C10563.8,1308.78 10565,1308.73 10565.8,1308.23Z" style="fill:rgb(73,50,12);"/>
                </g>
            </g>
            <g transform="matrix(0.617495,0,0,0.404926,5848.57,117.168)">
                <g transform="matrix(1.47684,0,0,1.47684,-7122.17,-589.958)">
                    <path d="M4909.37,533.445L4909.37,540.098C4909.37,544.867 4905.5,548.739 4900.73,548.739C4897.36,548.739 4894.45,546.811 4893.02,544.002C4892.65,543.283 4891.77,542.995 4891.05,543.361C4890.34,543.726 4890.05,544.607 4890.41,545.327C4892.32,549.086 4896.23,551.663 4900.73,551.663C4907.11,551.663 4912.3,546.481 4912.3,540.098L4912.3,533.445C4912.3,532.638 4911.64,531.983 4910.83,531.983C4910.03,531.983 4909.37,532.638 4909.37,533.445Z" style="fill:rgb(88,63,9);"/>
                </g>
                <g transform="matrix(1.47684,0,0,1.47684,-7092.31,-589.958)">
                    <path d="M4908.44,544.002C4907.01,546.811 4904.09,548.739 4900.73,548.739C4895.96,548.739 4892.09,544.867 4892.09,540.098C4892.09,539.291 4891.43,538.636 4890.63,538.636C4889.82,538.636 4889.16,539.291 4889.16,540.098C4889.16,546.481 4894.35,551.663 4900.73,551.663C4905.23,551.663 4909.14,549.086 4911.05,545.327C4911.41,544.607 4911.12,543.726 4910.4,543.361C4909.69,542.995 4908.81,543.283 4908.44,544.002Z" style="fill:rgb(88,63,9);"/>
                </g>
            </g>
            <g transform="matrix(0.881168,0,0,0.488559,5852.42,110.311)">
                <circle cx="86.998" cy="174.87" r="10.068" style="fill:rgb(253,130,163);"/>
            </g>
            <g transform="matrix(0.683148,0,0,0.447978,5841.63,134.18)">
                <circle cx="90.633" cy="69.103" r="9.688" style="fill:rgb(255,222,135);"/>
            </g>
        </g>
    </g>
</svg>
