<?xml version="1.0" encoding="UTF-8" standalone="no"?>
<!DOCTYPE svg PUBLIC "-//W3C//DTD SVG 1.1//EN" "http://www.w3.org/Graphics/SVG/1.1/DTD/svg11.dtd">
<svg width="100%" height="100%" viewBox="0 0 256 256" version="1.1" xmlns="http://www.w3.org/2000/svg" xmlns:xlink="http://www.w3.org/1999/xlink" xml:space="preserve" xmlns:serif="http://www.serif.com/" style="fill-rule:evenodd;clip-rule:evenodd;stroke-linejoin:round;stroke-miterlimit:2;">
    <g id="Cat-Hat" serif:id="Cat Hat" transform="matrix(1.61157,0,0,1.52496,-7426.04,-45.4235)">
        <g transform="matrix(0.908313,0,0,0.959902,298.601,-275.934)">
            <g transform="matrix(-0.679323,-0.392207,-0.431536,0.747442,5819.25,207.31)">
                <g transform="matrix(1,0,0,1,-546.23,-81.3293)">
                    <path d="M1495.46,735.055C1517.23,735.055 1534.9,763.521 1534.9,785.29C1534.9,807.059 1517.23,824.733 1495.46,824.733C1473.69,824.733 1456.02,807.059 1456.02,785.29C1456.02,763.521 1473.69,735.055 1495.46,735.055Z" style="fill:rgb(244,183,28);"/>
                </g>
                <g transform="matrix(0.566334,0,0,0.566334,102.3,260.707)">
                    <path d="M1495.46,723.867C1517.23,723.867 1534.9,763.521 1534.9,785.29C1534.9,807.059 1517.23,824.733 1495.46,824.733C1473.69,824.733 1456.02,807.059 1456.02,785.29C1456.02,763.521 1473.69,723.867 1495.46,723.867Z" style="fill:rgb(255,96,131);"/>
                </g>
            </g>
            <g transform="matrix(0.679323,-0.392207,0.431536,0.747442,3844.32,207.31)">
                <g transform="matrix(1,0,0,1,-546.23,-81.3293)">
                    <path d="M1495.46,735.055C1517.23,735.055 1534.9,763.521 1534.9,785.29C1534.9,807.059 1517.23,824.733 1495.46,824.733C1473.69,824.733 1456.02,807.059 1456.02,785.29C1456.02,763.521 1473.69,735.055 1495.46,735.055Z" style="fill:white;"/>
                </g>
                <g transform="matrix(0.566334,0,0,0.566334,102.3,260.707)">
                    <path d="M1495.46,723.867C1517.23,723.867 1534.9,763.521 1534.9,785.29C1534.9,807.059 1517.23,824.733 1495.46,824.733C1473.69,824.733 1456.02,807.059 1456.02,785.29C1456.02,763.521 1473.69,723.867 1495.46,723.867Z" style="fill:rgb(255,96,131);"/>
                </g>
            </g>
        </g>
        <g transform="matrix(0.966711,-4.74134e-18,4.71615e-18,-1.1146,4573.1,317.829)">
            <path d="M118.212,110.053C160.16,110.053 194.216,133.15 194.216,173.055C194.216,212.961 160.16,236.058 118.212,236.058C76.264,236.058 42.207,212.961 42.207,173.055C42.207,133.15 76.264,110.053 118.212,110.053Z" style="fill:white;"/>
            <clipPath id="_clip1">
                <path d="M118.212,110.053C160.16,110.053 194.216,133.15 194.216,173.055C194.216,212.961 160.16,236.058 118.212,236.058C76.264,236.058 42.207,212.961 42.207,173.055C42.207,133.15 76.264,110.053 118.212,110.053Z"/>
            </clipPath>
            <g clip-path="url(#_clip1)">
                <g transform="matrix(0.64188,-2.73045e-18,2.8702e-18,-0.588331,36.0513,258.426)">
                    <path d="M141.208,38.566C177.907,41.637 209.567,57.586 228.311,84.346C222.825,85.65 217.11,86.34 211.242,86.34C179.888,86.34 152.927,66.662 141.208,38.566Z" style="fill:rgb(244,183,28);"/>
                </g>
                <g transform="matrix(0.160355,-5.84612e-34,-6.73666e-34,-0.152548,-1519.13,389.207)">
                    <circle cx="10540.7" cy="1285.71" r="52.107" style="fill:rgb(244,183,28);"/>
                </g>
                <g transform="matrix(0.64188,-2.73045e-18,2.8702e-18,-0.588331,36.0513,258.426)">
                    <path d="M26.264,86.439C32.415,88.708 36.825,94.807 36.825,101.966C36.825,111.058 29.713,118.44 20.953,118.44C18.098,118.44 15.418,117.656 13.102,116.284C15.936,105.254 20.413,95.282 26.264,86.439Z" style="fill:rgb(244,183,28);"/>
                </g>
            </g>
        </g>
        <g transform="matrix(1,0,0,1,-87.4966,-189.123)">
            <g transform="matrix(0.506566,0,0,0.425202,374.923,73.5385)">
                <ellipse cx="8685.84" cy="617.58" rx="100.454" ry="94.287" style="fill:rgb(192,108,60);"/>
                <clipPath id="_clip2">
                    <ellipse cx="8685.84" cy="617.58" rx="100.454" ry="94.287"/>
                </clipPath>
                <g clip-path="url(#_clip2)">
                    <g transform="matrix(1.8609,0,0,1.66663,-3871.31,-1124.15)">
                        <ellipse cx="6747.9" cy="1069.31" rx="30.373" ry="29.731" style="fill:rgb(238,160,123);"/>
                    </g>
                </g>
            </g>
            <g transform="matrix(0.966711,0,0,1.02162,4661.79,149.885)">
                <g transform="matrix(0.661858,0,0,0.661858,42.8089,55.7478)">
                    <circle cx="86.998" cy="174.87" r="10.068" style="fill:rgb(50,58,65);"/>
                </g>
                <g transform="matrix(0.661858,0,0,0.661858,75.973,55.7478)">
                    <circle cx="86.998" cy="174.87" r="10.068" style="fill:rgb(50,58,65);"/>
                </g>
            </g>
            <g transform="matrix(0.704825,0,0,0.605621,4713.96,236.543)">
                <circle cx="86.998" cy="174.87" r="10.068" style="fill:rgb(127,59,47);"/>
            </g>
            <g transform="matrix(0.966711,0,0,1.02162,4657.17,148.84)">
                <g transform="matrix(0.802429,0.21501,-0.171231,0.639042,115.547,51.1737)">
                    <circle cx="86.998" cy="174.87" r="10.068" style="fill:rgb(195,78,64);"/>
                </g>
                <g transform="matrix(0.802429,-0.21501,0.171231,0.639042,-11.6498,88.5845)">
                    <circle cx="86.998" cy="174.87" r="10.068" style="fill:rgb(195,78,64);"/>
                </g>
            </g>
        </g>
        <g transform="matrix(1,0,0,1,-88.4393,-191.5)">
            <g transform="matrix(0.620512,0,0,0.655755,268.951,-93.7219)">
                <circle cx="7240.97" cy="589.914" r="24.886" style="fill:white;"/>
            </g>
            <g transform="matrix(0.620512,0,0,0.655755,296.456,-93.7219)">
                <circle cx="7240.97" cy="589.914" r="24.886" style="fill:white;"/>
            </g>
        </g>
        <g transform="matrix(1,0,0,1,-89.2461,-190.508)">
            <g transform="matrix(0.309161,0,0,0.326721,2524.24,103.502)">
                <circle cx="7240.97" cy="589.914" r="24.886" style="fill:rgb(255,220,236);"/>
            </g>
            <g transform="matrix(0.309161,0,0,0.326721,2551.75,103.502)">
                <circle cx="7240.97" cy="589.914" r="24.886" style="fill:rgb(255,220,236);"/>
            </g>
        </g>
        <g transform="matrix(0.805589,0,0,0.855358,-3883.96,-1027.34)">
            <g transform="matrix(0.982525,-0.262031,0.184513,0.685379,-7.53786,3229.84)">
                <path d="M10687.3,1324.82C10687.3,1322.85 10686.1,1321.26 10684.8,1321.26L10660.6,1321.26C10659.2,1321.26 10658.1,1322.85 10658.1,1324.82C10658.1,1326.79 10659.2,1328.39 10660.6,1328.39L10684.8,1328.39C10686.1,1328.39 10687.3,1326.79 10687.3,1324.82Z" style="fill:rgb(134,71,13);"/>
            </g>
            <g transform="matrix(0.982525,0.262031,0.184513,-0.685379,-7.53786,-526.516)">
                <path d="M10687.3,1324.82C10687.3,1322.85 10686.1,1321.26 10684.8,1321.26L10660.6,1321.26C10659.2,1321.26 10658.1,1322.85 10658.1,1324.82C10658.1,1326.79 10659.2,1328.39 10660.6,1328.39L10684.8,1328.39C10686.1,1328.39 10687.3,1326.79 10687.3,1324.82Z" style="fill:rgb(134,71,13);"/>
            </g>
            <g transform="matrix(-0.982525,-0.262031,-0.184513,0.685379,21287.2,3229.84)">
                <path d="M10687.3,1324.82C10687.3,1322.85 10686.1,1321.26 10684.8,1321.26L10660.6,1321.26C10659.2,1321.26 10658.1,1322.85 10658.1,1324.82C10658.1,1326.79 10659.2,1328.39 10660.6,1328.39L10684.8,1328.39C10686.1,1328.39 10687.3,1326.79 10687.3,1324.82Z" style="fill:rgb(134,71,13);"/>
            </g>
            <g transform="matrix(-0.982525,0.262031,-0.184513,-0.685379,21287.2,-526.516)">
                <path d="M10687.3,1324.82C10687.3,1322.85 10686.1,1321.26 10684.8,1321.26L10660.6,1321.26C10659.2,1321.26 10658.1,1322.85 10658.1,1324.82C10658.1,1326.79 10659.2,1328.39 10660.6,1328.39L10684.8,1328.39C10686.1,1328.39 10687.3,1326.79 10687.3,1324.82Z" style="fill:rgb(134,71,13);"/>
            </g>
        </g>
        <g transform="matrix(0.892968,0,0,0.948135,-4809.46,-1167.07)">
            <g>
                <g transform="matrix(0.148885,-0.256666,0.428713,0.246356,8514.61,3724.43)">
                    <path d="M10687.3,1324.82C10687.3,1322.85 10684.6,1321.26 10681.3,1321.26L10664,1321.26C10660.8,1321.26 10658.1,1322.85 10658.1,1324.82C10658.1,1326.79 10660.8,1328.39 10664,1328.39L10681.3,1328.39C10684.6,1328.39 10687.3,1326.79 10687.3,1324.82Z" style="fill:rgb(134,71,13);"/>
                </g>
                <g transform="matrix(-0.0501512,-0.292138,-0.487964,0.082984,11840.7,4318.23)">
                    <path d="M10687.3,1324.82C10687.3,1322.85 10684.6,1321.26 10681.3,1321.26L10664,1321.26C10660.8,1321.26 10658.1,1322.85 10658.1,1324.82C10658.1,1326.79 10660.8,1328.39 10664,1328.39L10681.3,1328.39C10684.6,1328.39 10687.3,1326.79 10687.3,1324.82Z" style="fill:rgb(134,71,13);"/>
                </g>
            </g>
            <g transform="matrix(-1,0,0,1,21270.3,0)">
                <g transform="matrix(0.148885,-0.256666,0.428713,0.246356,8514.61,3724.43)">
                    <path d="M10687.3,1324.82C10687.3,1322.85 10684.6,1321.26 10681.3,1321.26L10664,1321.26C10660.8,1321.26 10658.1,1322.85 10658.1,1324.82C10658.1,1326.79 10660.8,1328.39 10664,1328.39L10681.3,1328.39C10684.6,1328.39 10687.3,1326.79 10687.3,1324.82Z" style="fill:rgb(134,71,13);"/>
                </g>
                <g transform="matrix(-0.0501512,-0.292138,-0.487964,0.082984,11840.7,4318.23)">
                    <path d="M10687.3,1324.82C10687.3,1322.85 10684.6,1321.26 10681.3,1321.26L10664,1321.26C10660.8,1321.26 10658.1,1322.85 10658.1,1324.82C10658.1,1326.79 10660.8,1328.39 10664,1328.39L10681.3,1328.39C10684.6,1328.39 10687.3,1326.79 10687.3,1324.82Z" style="fill:rgb(134,71,13);"/>
                </g>
            </g>
        </g>
        <g transform="matrix(0.908313,0,0,1.46381,-697.365,-186.542)">
            <g transform="matrix(0.995028,-0.0653117,0.163689,1.07238,-4775.21,-523.166)">
                <path d="M10565.3,1308.48C10569.6,1306.97 10573.9,1306.85 10578.3,1308.46C10579.2,1308.81 10580.4,1308.63 10581,1308.06C10581.6,1307.48 10581.3,1306.73 10580.3,1306.38C10574.6,1304.27 10569,1304.38 10563.3,1306.37C10562.3,1306.7 10562,1307.44 10562.6,1308.03C10563.1,1308.61 10564.3,1308.81 10565.3,1308.48Z" style="fill:rgb(73,50,12);"/>
            </g>
            <g transform="matrix(-0.995028,-0.0653117,-0.163689,1.07238,16631.8,-523.166)">
                <path d="M10563.3,1306.37C10569,1304.38 10574.6,1304.27 10580.3,1306.38C10581.3,1306.73 10581.6,1307.48 10581,1308.06C10580.4,1308.63 10579.2,1308.81 10578.3,1308.46C10573.9,1306.85 10569.6,1306.97 10565.3,1308.48C10564.3,1308.81 10563.1,1308.61 10562.6,1308.03C10562,1307.44 10562.3,1306.7 10563.3,1306.37Z" style="fill:rgb(73,50,12);"/>
            </g>
        </g>
        <g transform="matrix(0.377183,0,0,0.398606,1951.09,-143.586)">
            <path d="M7254.52,595.676C7258.52,588.685 7266.53,588.685 7270.53,592.18C7274.53,595.676 7274.53,602.666 7270.53,609.657C7270.2,610.277 7269.81,610.896 7269.36,611.513C7265.99,616.378 7260.44,619.279 7254.52,619.279C7248.59,619.279 7243.05,616.378 7239.67,611.514C7239.22,610.896 7238.83,610.277 7238.5,609.657C7234.5,602.666 7234.5,595.676 7238.5,592.18C7242.5,588.685 7250.51,588.685 7254.52,595.676Z" style="fill:rgb(255,90,123);"/>
        </g>
        <g transform="matrix(0.517871,0,0,0.547284,1198.54,-442.928)">
            <circle cx="6738.16" cy="935.085" r="5.946" style="fill:rgb(255,93,101);"/>
        </g>
    </g>
</svg>
