<?xml version="1.0" encoding="UTF-8" standalone="no"?>
<!DOCTYPE svg PUBLIC "-//W3C//DTD SVG 1.1//EN" "http://www.w3.org/Graphics/SVG/1.1/DTD/svg11.dtd">
<svg width="100%" height="100%" viewBox="0 0 256 256" version="1.1" xmlns="http://www.w3.org/2000/svg" xmlns:xlink="http://www.w3.org/1999/xlink" xml:space="preserve" xmlns:serif="http://www.serif.com/" style="fill-rule:evenodd;clip-rule:evenodd;stroke-linejoin:round;stroke-miterlimit:2;">
    <g id="Cat" transform="matrix(0.887062,0,0,0.887062,-4156.21,-209.771)">
        <g transform="matrix(9.98005,0,0,11.4311,-44913.9,-11325.8)">
            <path d="M4991.74,1036.37C4991.74,1032.79 4988.41,1029.88 4984.3,1029.88C4980.2,1029.88 4976.87,1032.79 4976.87,1036.37L4976.87,1041.74C4976.87,1045.32 4980.2,1048.23 4984.3,1048.23C4988.41,1048.23 4991.74,1045.32 4991.74,1041.74L4991.74,1036.37Z" style="fill:rgb(154,173,192);"/>
        </g>
        <g transform="matrix(1.12732,0,0,1.12732,4685.36,236.479)">
            <path d="M127.516,186.608L127.516,372.697C127.681,372.699 127.84,372.699 128,372.699C164.316,372.699 193.801,343.215 193.801,306.899L193.801,252.407C193.801,216.091 164.316,186.606 128,186.606C127.84,186.606 127.681,186.607 127.516,186.608Z" style="fill:rgb(131,156,178);"/>
        </g>
        <g>
            <g transform="matrix(-0.679323,-0.392207,-0.431536,0.747442,6223.29,360.757)">
                <path d="M1495.46,735.055C1517.23,735.055 1534.9,763.521 1534.9,785.29C1534.9,807.059 1517.23,824.733 1495.46,824.733C1473.69,824.733 1456.02,807.059 1456.02,785.29C1456.02,763.521 1473.69,735.055 1495.46,735.055Z" style="fill:rgb(138,161,182);"/>
            </g>
            <g transform="matrix(0.679323,-0.392207,0.431536,0.747442,3436.03,360.757)">
                <path d="M1495.46,735.055C1517.23,735.055 1534.9,763.521 1534.9,785.29C1534.9,807.059 1517.23,824.733 1495.46,824.733C1473.69,824.733 1456.02,807.059 1456.02,785.29C1456.02,763.521 1473.69,735.055 1495.46,735.055Z" style="fill:rgb(138,161,182);"/>
            </g>
            <g transform="matrix(1.06429,0,0,1.11877,4703.85,221.33)">
                <ellipse cx="118.212" cy="173.055" rx="76.004" ry="63.002" style="fill:rgb(154,173,192);"/>
            </g>
            <g transform="matrix(1.12732,0,0,1.12732,4685.36,236.479)">
                <path d="M122.387,95.97C124.239,95.845 126.111,95.781 128,95.781C129.889,95.781 131.761,95.845 133.613,95.97L133.613,129.93C133.613,133.028 131.098,135.543 128,135.543C124.902,135.543 122.387,133.028 122.387,129.93L122.387,95.97ZM114.106,96.955L115.76,116.483C116.022,119.57 113.728,122.297 110.642,122.569C107.555,122.841 104.837,120.555 104.576,117.467L103.067,99.665C106.623,98.515 110.311,97.604 114.106,96.955ZM141.894,96.955C145.688,97.604 149.375,98.515 152.933,99.665L151.424,117.467C151.163,120.555 148.445,122.841 145.358,122.569C142.272,122.297 139.978,119.57 140.24,116.483L141.894,96.955Z" style="fill:rgb(111,140,165);"/>
            </g>
            <g transform="matrix(1.2374,0,0,1.2374,4682.05,190.688)">
                <g transform="matrix(0.73364,0,0,0.73364,26.0221,43.1953)">
                    <circle cx="86.998" cy="174.87" r="10.068" style="fill:rgb(50,58,65);"/>
                </g>
                <g transform="matrix(0.73364,0,0,0.73364,84.9,43.1953)">
                    <circle cx="86.998" cy="174.87" r="10.068" style="fill:rgb(50,58,65);"/>
                </g>
            </g>
            <g transform="matrix(0.719356,0,0,0.719356,4735.88,262.61)">
                <g transform="matrix(1.06117,0,0,1.06117,-5080.85,-363.352)">
                    <path d="M4907.69,540.098C4907.69,543.939 4904.57,547.058 4900.73,547.058C4896.89,547.058 4893.77,543.939 4893.77,540.098C4893.77,538.363 4892.36,536.955 4890.63,536.955C4888.89,536.955 4887.48,538.363 4887.48,540.098C4887.48,547.409 4893.42,553.344 4900.73,553.344C4908.04,553.344 4913.98,547.409 4913.98,540.098C4913.98,538.363 4912.57,536.955 4910.83,536.955C4909.1,536.955 4907.69,538.363 4907.69,540.098Z" style="fill:rgb(50,58,65);"/>
                </g>
                <g transform="matrix(1.06117,0,0,1.06117,-5059.39,-363.352)">
                    <path d="M4907.69,540.098C4907.69,543.939 4904.57,547.058 4900.73,547.058C4896.89,547.058 4893.77,543.939 4893.77,540.098C4893.77,538.363 4892.36,536.955 4890.63,536.955C4888.89,536.955 4887.48,538.363 4887.48,540.098C4887.48,547.409 4893.42,553.344 4900.73,553.344C4908.04,553.344 4913.98,547.409 4913.98,540.098C4913.98,538.363 4912.57,536.955 4910.83,536.955C4909.1,536.955 4907.69,538.363 4907.69,540.098Z" style="fill:rgb(50,58,65);"/>
                </g>
            </g>
        </g>
    </g>
</svg>
