<?xml version="1.0" encoding="UTF-8" standalone="no"?>
<!DOCTYPE svg PUBLIC "-//W3C//DTD SVG 1.1//EN" "http://www.w3.org/Graphics/SVG/1.1/DTD/svg11.dtd">
<svg width="100%" height="100%" viewBox="0 0 256 256" version="1.1" xmlns="http://www.w3.org/2000/svg" xmlns:xlink="http://www.w3.org/1999/xlink" xml:space="preserve" xmlns:serif="http://www.serif.com/" style="fill-rule:evenodd;clip-rule:evenodd;stroke-linecap:round;stroke-linejoin:round;stroke-miterlimit:1.5;">
    <g id="Cherry" transform="matrix(1.04961,0,0,1.04961,-5709.57,-506.915)">
        <g transform="matrix(0.95231,0,0,1.54782,267.455,-473.544)">
            <path d="M5492.51,729.9C5492.51,729.9 5522.4,683.691 5542.2,653.079C5545,648.76 5551.79,645.926 5559.34,645.926C5566.9,645.926 5573.69,648.76 5576.48,653.079C5596.28,683.691 5626.17,729.9 5626.17,729.9" style="fill:none;stroke:rgb(0,165,111);stroke-width:12.85px;"/>
        </g>
        <g>
            <g transform="matrix(1.0738,0,0,1.0738,-404.187,-32.6332)">
                <g transform="matrix(1,0,0,1,10.6694,-90.0272)">
                    <circle cx="5487.51" cy="741.984" r="42.924" style="fill:rgb(255,93,101);"/>
                </g>
                <g transform="matrix(0.88726,0,0,0.88726,5442.29,480.156)">
                    <path d="M71.746,146.044C94.273,150.171 111.367,169.92 111.367,193.631C111.367,220.332 89.689,242.009 62.988,242.009C50.586,242.009 39.267,237.332 30.7,229.645C33.539,230.166 36.467,230.438 39.457,230.438C66.158,230.438 87.836,208.76 87.836,182.059C87.836,167.761 81.619,154.903 71.746,146.044Z" style="fill:rgb(255,61,73);"/>
                </g>
                <g transform="matrix(0.54574,0,0,0.54574,2693.95,234.235)">
                    <circle cx="5110.79" cy="724.996" r="16.447" style="fill:rgb(255,163,166);"/>
                </g>
            </g>
            <g transform="matrix(1.0738,0,0,1.0738,-280.309,-32.6332)">
                <g transform="matrix(1,0,0,1,10.6694,-90.0272)">
                    <circle cx="5487.51" cy="741.984" r="42.924" style="fill:rgb(255,93,101);"/>
                </g>
                <g transform="matrix(0.88726,0,0,0.88726,5442.29,480.156)">
                    <path d="M71.746,146.044C94.273,150.171 111.367,169.92 111.367,193.631C111.367,220.332 89.689,242.009 62.988,242.009C50.586,242.009 39.267,237.332 30.7,229.645C33.539,230.166 36.467,230.438 39.457,230.438C66.158,230.438 87.836,208.76 87.836,182.059C87.836,167.761 81.619,154.903 71.746,146.044Z" style="fill:rgb(255,61,73);"/>
                </g>
                <g transform="matrix(0.54574,0,0,0.54574,2693.95,234.235)">
                    <circle cx="5110.79" cy="724.996" r="16.447" style="fill:rgb(255,163,166);"/>
                </g>
            </g>
        </g>
    </g>
</svg>
