<?xml version="1.0" encoding="UTF-8" standalone="no"?>
<!DOCTYPE svg PUBLIC "-//W3C//DTD SVG 1.1//EN" "http://www.w3.org/Graphics/SVG/1.1/DTD/svg11.dtd">
<svg width="100%" height="100%" viewBox="0 0 256 256" version="1.1" xmlns="http://www.w3.org/2000/svg" xmlns:xlink="http://www.w3.org/1999/xlink" xml:space="preserve" xmlns:serif="http://www.serif.com/" style="fill-rule:evenodd;clip-rule:evenodd;stroke-linejoin:round;stroke-miterlimit:2;">
    <g id="Clock" transform="matrix(1.09919,0,0,1.09919,-53.3665,-53.3665)">
        <g transform="matrix(1,0,0,1,11.4109,-5.89246)">
            <circle cx="153.589" cy="170.892" r="94.193" style="fill:rgb(248,249,250);"/>
        </g>
        <g transform="matrix(0.941571,0,0,0.941571,10.1662,3.55932)">
            <path d="M164.442,69.035C221.214,69.035 267.306,115.127 267.306,171.899C267.306,228.671 221.214,274.763 164.442,274.763C107.67,274.763 61.578,228.671 61.578,171.899C61.578,115.127 107.67,69.035 164.442,69.035ZM164.442,92.682C208.163,92.682 243.659,128.178 243.659,171.899C243.659,215.62 208.163,251.117 164.442,251.117C120.721,251.117 85.225,215.62 85.225,171.899C85.225,128.178 120.721,92.682 164.442,92.682Z" style="fill:rgb(222,226,230);"/>
        </g>
        <g id="Shine" transform="matrix(0.196859,0,0,0.196859,60.3101,49.4241)">
            <path d="M215.964,559.751C215.964,420.22 328.89,307.11 468.188,307.11C607.486,307.11 720.407,420.22 720.407,559.751C720.407,699.283 607.486,812.394 468.188,812.394C328.89,812.394 215.964,699.283 215.964,559.751Z" style="fill:white;fill-rule:nonzero;"/>
        </g>
        <g transform="matrix(1.02172,0,0,1.02172,-3.01398,-10.6332)">
            <path d="M164.442,69.035C221.214,69.035 267.306,115.127 267.306,171.899C267.306,228.671 221.214,274.763 164.442,274.763C107.67,274.763 61.578,228.671 61.578,171.899C61.578,115.127 107.67,69.035 164.442,69.035ZM164.442,92.682C208.163,92.682 243.659,128.178 243.659,171.899C243.659,215.62 208.163,251.117 164.442,251.117C120.721,251.117 85.225,215.62 85.225,171.899C85.225,128.178 120.721,92.682 164.442,92.682Z" style="fill:rgb(255,82,94);"/>
        </g>
        <g transform="matrix(0.90976,0,0,0.90976,48.5507,48.5507)">
            <path d="M128,12.477C191.759,12.477 243.523,64.241 243.523,128C243.523,191.759 191.759,243.523 128,243.523L128,216.966C177.102,216.966 216.966,177.102 216.966,128C216.966,78.898 177.102,39.034 128,39.034L128,12.477Z" style="fill:rgb(228,76,83);"/>
        </g>
        <g transform="matrix(-0.376561,-0.217408,-1.11446,1.9303,387.938,-83.0773)">
            <path d="M165.693,121.491C165.693,120.745 162.586,120.139 158.76,120.139C154.933,120.139 151.827,120.745 151.827,121.491L151.827,171.306C151.827,172.052 154.933,172.658 158.76,172.658C162.586,172.658 165.693,172.052 165.693,171.306L165.693,121.491Z" style="fill:rgb(250,82,93);"/>
        </g>
        <g transform="matrix(1,0,0,1,-1.92193,3.65582)">
            <circle cx="166.922" cy="161.344" r="13.181" style="fill:rgb(52,58,64);"/>
        </g>
        <g transform="matrix(0.591351,-0.591351,0.689279,0.689279,-48.0112,139.075)">
            <path d="M165.693,126.087C165.693,122.804 162.586,120.139 158.76,120.139C154.933,120.139 151.827,122.804 151.827,126.087L151.827,166.71C151.827,169.993 154.933,172.658 158.76,172.658C162.586,172.658 165.693,169.993 165.693,166.71L165.693,126.087Z" style="fill:rgb(52,58,64);"/>
        </g>
        <g transform="matrix(6.24222e-16,-0.836297,-1.17984,-6.9888e-16,371.181,298.185)">
            <path d="M165.693,125.053C165.693,122.341 162.586,120.139 158.76,120.139C154.933,120.139 151.827,122.341 151.827,125.053L151.827,167.744C151.827,170.456 154.933,172.658 158.76,172.658C162.586,172.658 165.693,170.456 165.693,167.744L165.693,125.053Z" style="fill:rgb(52,58,64);"/>
        </g>
    </g>
</svg>
