<?xml version="1.0" encoding="UTF-8" standalone="no"?>
<!DOCTYPE svg PUBLIC "-//W3C//DTD SVG 1.1//EN" "http://www.w3.org/Graphics/SVG/1.1/DTD/svg11.dtd">
<svg width="100%" height="100%" viewBox="0 0 256 256" version="1.1" xmlns="http://www.w3.org/2000/svg" xmlns:xlink="http://www.w3.org/1999/xlink" xml:space="preserve" xmlns:serif="http://www.serif.com/" style="fill-rule:evenodd;clip-rule:evenodd;stroke-linecap:round;stroke-linejoin:round;stroke-miterlimit:1.5;">
    <g id="Cloud---Rain---Sad" serif:id="Cloud - Rain - Sad" transform="matrix(1.20442,0,0,1.2101,-12686.6,-441.028)">
        <g id="Cloud-Icon" serif:id="Cloud Icon" transform="matrix(8.25918,0,0,8.22043,2727.31,-24688.9)">
            <path d="M970,3061.5C970,3064.54 967.538,3067 964.5,3067C964.499,3067 964.498,3067 964.497,3067L964.497,3067L952.497,3067L952.497,3067C948.908,3067 946,3064.09 946,3060.5C946,3057.24 948.415,3054.56 951.552,3054.1C952.715,3051.12 955.607,3049 959,3049C963.289,3049 966.779,3052.38 966.981,3056.62C968.765,3057.53 970,3059.36 970,3061.5Z" style="fill:white;"/>
        </g>
        <g transform="matrix(2.10909,0,0,2.0992,102.478,-1478.24)">
            <g transform="matrix(1,0,0,1,6.68065,0)">
                <g transform="matrix(1,0,0,1,10.6694,-93.7219)">
                    <circle cx="4965.19" cy="1006.27" r="3.19" style="fill:rgb(50,58,65);"/>
                </g>
                <g transform="matrix(1.69245,0.453492,-0.353675,1.31993,-3074.28,-2657.34)">
                    <circle cx="4965.19" cy="1006.27" r="3.19" style="fill:rgb(255,191,216);"/>
                </g>
            </g>
            <g transform="matrix(1,0,0,1,33.6972,0)">
                <g transform="matrix(1,0,0,1,10.6694,-93.7219)">
                    <circle cx="4965.19" cy="1006.27" r="3.19" style="fill:rgb(50,58,65);"/>
                </g>
                <g transform="matrix(1.69245,-0.453492,0.353675,1.31993,-3780.72,1846)">
                    <circle cx="4965.19" cy="1006.27" r="3.19" style="fill:rgb(255,191,216);"/>
                </g>
            </g>
            <g transform="matrix(1,0,0,-1,10.451,1932.53)">
                <path d="M4979.24,1010.67C4982.57,1014 4988.61,1014 4991.94,1010.67" style="fill:none;stroke:rgb(202,109,119);stroke-width:1.78px;"/>
            </g>
        </g>
        <g transform="matrix(1,0,0,1,4.2884,-28.8796)">
            <g transform="matrix(0.690532,0,0,0.687292,3303.13,183.4)">
                <path d="M10570.5,559.47C10569.7,557.063 10567.4,555.442 10564.9,555.442C10562.4,555.441 10560.1,557.062 10559.3,559.47C10555.9,567.975 10552.1,578.652 10552.1,584.857C10552.1,591.901 10557.9,597.62 10564.9,597.62C10572,597.62 10577.7,591.901 10577.7,584.857C10577.7,578.652 10573.9,567.975 10570.5,559.47Z" style="fill:rgb(248,249,250);"/>
            </g>
            <g transform="matrix(0.690532,0,0,0.687292,3339.9,183.4)">
                <path d="M10570.5,559.47C10569.7,557.063 10567.4,555.442 10564.9,555.442C10562.4,555.441 10560.1,557.062 10559.3,559.47C10555.9,567.975 10552.1,578.652 10552.1,584.857C10552.1,591.901 10557.9,597.62 10564.9,597.62C10572,597.62 10577.7,591.901 10577.7,584.857C10577.7,578.652 10573.9,567.975 10570.5,559.47Z" style="fill:rgb(248,249,250);"/>
            </g>
            <g transform="matrix(0.690532,0,0,0.687292,3376.68,183.4)">
                <path d="M10570.5,559.47C10569.7,557.063 10567.4,555.442 10564.9,555.442C10562.4,555.441 10560.1,557.062 10559.3,559.47C10555.9,567.975 10552.1,578.652 10552.1,584.857C10552.1,591.901 10557.9,597.62 10564.9,597.62C10572,597.62 10577.7,591.901 10577.7,584.857C10577.7,578.652 10573.9,567.975 10570.5,559.47Z" style="fill:rgb(248,249,250);"/>
            </g>
        </g>
    </g>
</svg>
