<?xml version="1.0" encoding="UTF-8" standalone="no"?>
<!DOCTYPE svg PUBLIC "-//W3C//DTD SVG 1.1//EN" "http://www.w3.org/Graphics/SVG/1.1/DTD/svg11.dtd">
<svg width="100%" height="100%" viewBox="0 0 256 256" version="1.1" xmlns="http://www.w3.org/2000/svg" xmlns:xlink="http://www.w3.org/1999/xlink" xml:space="preserve" xmlns:serif="http://www.serif.com/" style="fill-rule:evenodd;clip-rule:evenodd;stroke-linecap:round;stroke-linejoin:round;stroke-miterlimit:1.5;">
    <g id="Coin-x6" serif:id="Coin x6" transform="matrix(0.914939,0,0,0.914939,5.5827,15.005)">
        <g>
            <g>
                <g>
                    <g>
                        <path d="M5.761,157.807C5.761,157.807 5.186,187.345 6.376,192.673C7.565,198 22.244,225.247 84.882,225.247C150.538,225.247 164.627,198.177 165.007,192.994C165.25,189.676 165.181,158.098 165.181,158.098L5.761,157.807Z" style="fill:rgb(242,184,0);fill-rule:nonzero;"/>
                        <g id="Ellipse" transform="matrix(0.995358,0,0,1,0.765572,0)">
                            <path d="M5.026,157.62C5.026,138.066 40.82,122.214 84.976,122.214C129.131,122.214 164.924,138.066 164.924,157.62C164.924,177.175 129.131,193.027 84.976,193.027C40.82,193.027 5.026,177.175 5.026,157.62Z" style="fill:rgb(255,214,6);fill-rule:nonzero;"/>
                        </g>
                        <g>
                            <path d="M104.083,165.377C107.53,164.941 110.218,164.427 112.217,163.843C114.216,163.259 115.561,162.625 116.319,161.942C117.077,161.259 117.457,160.596 117.457,159.953C117.457,158.626 116.319,157.538 114.044,156.697C111.769,155.865 108.943,155.182 105.496,154.657C102.049,154.143 98.294,153.737 94.295,153.44C90.263,153.143 86.54,152.866 83.093,152.599C79.647,152.332 76.786,152.025 74.511,151.689C72.237,151.352 71.133,150.887 71.133,150.293C71.133,149.125 76.442,148.541 87.057,148.541C93.847,148.541 101.981,149.175 111.494,150.442L113.045,146.008C110.908,145.592 107.771,145.196 103.635,144.82C99.5,144.444 95.226,144.206 90.883,144.107L93.192,139.673L77.751,139.673L80.06,144.107C75.408,144.246 71.409,144.503 68.066,144.889C64.723,145.285 61.966,145.77 59.795,146.354C57.589,146.938 56.003,147.591 55.003,148.313C53.969,149.036 53.487,149.768 53.487,150.511C53.487,151.639 54.625,152.559 56.934,153.272C59.243,153.995 62.103,154.588 65.55,155.054C68.963,155.529 72.65,155.925 76.648,156.241C80.612,156.558 84.3,156.875 87.746,157.192C91.158,157.508 94.019,157.864 96.329,158.261C98.638,158.656 99.81,159.181 99.81,159.834C99.81,161.18 94.915,161.844 85.162,161.844C73.547,161.844 64.55,161.002 58.14,159.309L55.693,164.377C60.863,165.456 68.997,166.089 80.06,166.278L77.751,170.711L93.192,170.711L90.883,166.238C96.26,166.109 100.637,165.822 104.083,165.377Z" style="fill:rgb(242,184,0);fill-rule:nonzero;"/>
                        </g>
                    </g>
                    <g>
                        <path d="M8.273,118.039C8.273,118.039 7.699,147.577 8.888,152.904C10.078,158.232 24.757,185.478 87.394,185.478C153.052,185.478 167.14,158.409 167.52,153.225C167.763,149.908 167.694,118.33 167.694,118.33L8.273,118.039Z" style="fill:rgb(242,184,0);fill-rule:nonzero;"/>
                        <g id="Ellipse2" transform="matrix(0.99883,0,0,1,0.195902,0)">
                            <path d="M7.539,117.852C7.539,98.298 43.333,82.445 87.489,82.445C131.644,82.445 167.437,98.298 167.437,117.852C167.437,137.407 131.644,153.259 87.489,153.259C43.333,153.259 7.539,137.407 7.539,117.852Z" style="fill:rgb(255,214,6);fill-rule:nonzero;"/>
                        </g>
                        <g>
                            <path d="M106.596,125.609C110.043,125.173 112.731,124.659 114.73,124.074C116.729,123.491 118.074,122.857 118.832,122.174C119.59,121.491 119.969,120.828 119.969,120.185C119.969,118.859 118.832,117.77 116.557,116.929C114.282,116.097 111.456,115.414 108.009,114.889C104.563,114.375 100.806,113.97 96.808,113.672C92.775,113.375 89.053,113.098 85.606,112.831C82.16,112.564 79.3,112.257 77.024,111.921C74.749,111.584 73.647,111.119 73.647,110.525C73.647,109.357 78.955,108.773 89.57,108.773C96.36,108.773 104.494,109.406 114.007,110.673L115.558,106.239C113.421,105.824 110.285,105.428 106.149,105.052C102.013,104.675 97.739,104.438 93.396,104.339L95.705,99.905L80.264,99.905L82.574,104.339C77.92,104.477 73.922,104.735 70.579,105.121C67.236,105.516 64.479,106.002 62.308,106.585C60.102,107.169 58.516,107.823 57.516,108.545C56.483,109.268 56,110.001 56,110.743C56,111.871 57.137,112.791 59.446,113.504C61.756,114.226 64.617,114.82 68.064,115.286C71.476,115.76 75.164,116.157 79.161,116.473C83.125,116.79 86.813,117.106 90.26,117.423C93.671,117.74 96.533,118.097 98.842,118.492C101.151,118.888 102.322,119.413 102.322,120.066C102.322,121.412 97.428,122.075 87.674,122.075C76.06,122.075 67.064,121.234 60.653,119.541L58.206,124.609C63.376,125.688 71.51,126.321 82.574,126.51L80.264,130.944L95.705,130.944L93.396,126.47C98.772,126.341 103.15,126.054 106.596,125.609Z" style="fill:rgb(242,184,0);fill-rule:nonzero;"/>
                        </g>
                    </g>
                    <g>
                        <path d="M0.735,76.332C0.735,76.332 0.161,105.869 1.35,111.196C2.539,116.524 17.218,143.771 79.856,143.771C145.513,143.771 159.601,116.701 159.982,111.517C160.224,108.2 160.155,76.622 160.155,76.622L0.735,76.332Z" style="fill:rgb(242,184,0);fill-rule:nonzero;"/>
                        <g id="Ellipse3" transform="matrix(0.995413,0,0,1,0.733412,0)">
                            <path d="M0,76.144C0,56.59 35.794,40.737 79.949,40.737C124.104,40.737 159.899,56.59 159.899,76.144C159.899,95.699 124.104,111.551 79.949,111.551C35.794,111.551 0,95.699 0,76.144Z" style="fill:rgb(255,214,6);fill-rule:nonzero;"/>
                        </g>
                        <g>
                            <path d="M99.057,83.901C102.504,83.465 105.192,82.95 107.191,82.367C109.19,81.783 110.534,81.149 111.293,80.466C112.052,79.783 112.43,79.12 112.43,78.477C112.43,77.151 111.293,76.062 109.018,75.221C106.744,74.389 103.917,73.706 100.471,73.182C97.024,72.667 93.267,72.261 89.269,71.964C85.236,71.667 81.514,71.39 78.068,71.123C74.621,70.855 71.76,70.548 69.485,70.212C67.211,69.876 66.108,69.411 66.108,68.817C66.108,67.649 71.416,67.065 82.031,67.065C88.821,67.065 96.955,67.698 106.468,68.965L108.018,64.531C105.881,64.115 102.745,63.72 98.609,63.344C94.473,62.968 90.2,62.73 85.857,62.631L88.166,58.197L72.725,58.197L75.034,62.631C70.381,62.77 66.383,63.027 63.04,63.413C59.697,63.809 56.94,64.293 54.769,64.878C52.563,65.462 50.977,66.115 49.977,66.837C48.944,67.56 48.461,68.292 48.461,69.034C48.461,70.163 49.599,71.083 51.908,71.796C54.217,72.519 57.078,73.112 60.525,73.578C63.937,74.052 67.624,74.449 71.622,74.765C75.586,75.082 79.274,75.399 82.721,75.716C86.132,76.032 88.993,76.388 91.302,76.784C93.612,77.18 94.784,77.705 94.784,78.358C94.784,79.704 89.889,80.367 80.135,80.367C68.52,80.367 59.525,79.526 53.114,77.834L50.667,82.901C55.837,83.98 63.97,84.613 75.034,84.801L72.725,89.235L88.166,89.235L85.857,84.761C91.234,84.633 95.61,84.346 99.057,83.901Z" style="fill:rgb(242,184,0);fill-rule:nonzero;"/>
                        </g>
                    </g>
                    <g>
                        <path d="M8.273,35.593C8.273,35.593 7.699,65.131 8.888,70.458C10.078,75.786 24.757,103.033 87.394,103.033C153.052,103.033 167.14,75.963 167.52,70.779C167.763,67.462 167.694,35.884 167.694,35.884L8.273,35.593Z" style="fill:rgb(242,184,0);fill-rule:nonzero;"/>
                        <g id="Ellipse4" transform="matrix(0.997013,0,0,1,0.760522,0)">
                            <path d="M7.539,35.406C7.539,15.852 43.333,0 87.489,0C131.644,0 167.437,15.852 167.437,35.406C167.437,54.961 131.644,70.812 87.489,70.812C43.333,70.812 7.539,54.961 7.539,35.406Z" style="fill:rgb(255,240,85);fill-rule:nonzero;"/>
                        </g>
                        <g id="Ellipse21" serif:id="Ellipse2" transform="matrix(0.209084,0,0,0.209621,21.679,9.13063)">
                            <path d="M0.149,90.667C0.149,40.886 91.314,0.529 203.774,0.529" style="fill:none;fill-rule:nonzero;stroke:rgb(255,255,153);stroke-width:15.66px;"/>
                        </g>
                    </g>
                </g>
                <g>
                    <g>
                        <path d="M107.57,179.561C107.57,179.561 106.996,209.099 108.185,214.426C109.375,219.753 124.054,247 186.692,247C252.349,247 266.437,219.931 266.818,214.747C267.06,211.43 266.991,179.851 266.991,179.851L107.57,179.561Z" style="fill:rgb(242,184,0);fill-rule:nonzero;"/>
                        <g id="Ellipse5" transform="matrix(1.00166,0,0,1,-0.177673,0)">
                            <path d="M106.836,179.373C106.836,159.82 142.63,143.967 186.786,143.967C230.941,143.967 266.735,159.82 266.735,179.373C266.735,198.928 230.941,214.78 186.786,214.78C142.63,214.78 106.836,198.928 106.836,179.373Z" style="fill:rgb(255,214,6);fill-rule:nonzero;"/>
                        </g>
                        <g>
                            <path d="M205.894,187.13C209.34,186.695 212.028,186.18 214.027,185.596C216.026,185.012 217.371,184.379 218.129,183.696C218.887,183.013 219.266,182.349 219.266,181.706C219.266,180.38 218.129,179.291 215.854,178.45C213.58,177.619 210.753,176.936 207.306,176.411C203.86,175.897 200.103,175.491 196.105,175.194C192.072,174.897 188.351,174.62 184.904,174.353C181.457,174.085 178.596,173.778 176.322,173.442C174.047,173.105 172.944,172.64 172.944,172.047C172.944,170.878 178.251,170.294 188.867,170.294C195.657,170.294 203.791,170.928 213.304,172.195L214.855,167.761C212.718,167.345 209.582,166.949 205.445,166.573C201.309,166.197 197.035,165.959 192.693,165.86L195.002,161.426L179.562,161.426L181.871,165.86C177.218,165.999 173.22,166.256 169.877,166.642C166.533,167.038 163.776,167.523 161.604,168.107C159.399,168.691 157.813,169.344 156.814,170.067C155.78,170.789 155.297,171.521 155.297,172.264C155.297,173.392 156.435,174.313 158.744,175.025C161.053,175.748 163.914,176.342 167.361,176.807C170.772,177.282 174.461,177.678 178.458,177.995C182.422,178.312 186.11,178.628 189.557,178.945C192.968,179.261 195.829,179.618 198.139,180.014C200.448,180.41 201.619,180.934 201.619,181.588C201.619,182.934 196.725,183.597 186.972,183.597C175.357,183.597 166.361,182.756 159.95,181.063L157.503,186.13C162.673,187.209 170.807,187.843 181.871,188.031L179.562,192.465L195.002,192.465L192.693,187.991C198.069,187.862 202.447,187.576 205.894,187.13Z" style="fill:rgb(242,184,0);fill-rule:nonzero;"/>
                        </g>
                    </g>
                    <g>
                        <path d="M95.006,139.793C95.006,139.793 94.431,169.331 95.62,174.658C96.81,179.986 111.489,207.232 174.126,207.232C239.784,207.232 253.872,180.162 254.252,174.979C254.495,171.661 254.426,140.083 254.426,140.083L95.006,139.793Z" style="fill:rgb(242,184,0);fill-rule:nonzero;"/>
                        <g id="Ellipse6" transform="matrix(1.00163,0,0,1,-0.153406,0)">
                            <path d="M94.271,139.605C94.271,120.051 130.065,104.199 174.22,104.199C218.376,104.199 254.17,120.051 254.17,139.605C254.17,159.161 218.376,175.012 174.22,175.012C130.065,175.012 94.271,159.161 94.271,139.605Z" style="fill:rgb(255,240,85);fill-rule:nonzero;"/>
                        </g>
                        <g id="Ellipse22" serif:id="Ellipse2" transform="matrix(0.209084,0,0,0.209621,112.079,113.184)">
                            <path d="M0.149,90.667C0.149,40.886 91.314,0.529 203.774,0.529" style="fill:none;fill-rule:nonzero;stroke:rgb(255,255,153);stroke-width:15.66px;"/>
                        </g>
                    </g>
                </g>
            </g>
            <g transform="matrix(1.15975,-4.10936e-17,8.43608e-17,0.564933,-1081.42,-10.5179)">
                <path d="M997.353,42.848C998.482,37.932 1002.86,34.447 1007.9,34.447C1012.95,34.447 1017.32,37.932 1018.45,42.848L1021.71,57.011L1036.18,55.729C1041.2,55.283 1045.87,58.368 1047.43,63.166C1048.99,67.963 1047.03,73.202 1042.7,75.795L1030.24,83.266L1035.93,96.636C1037.9,101.277 1036.41,106.668 1032.33,109.633C1028.25,112.598 1022.66,112.351 1018.86,109.038L1007.9,99.492L996.946,109.038C993.142,112.351 987.554,112.598 983.473,109.633C979.392,106.668 977.9,101.277 979.876,96.636L985.569,83.266L973.105,75.795C968.778,73.202 966.816,67.963 968.375,63.166C969.934,58.368 974.6,55.283 979.625,55.729L994.099,57.011L997.353,42.848Z" style="fill:rgb(242,184,0);"/>
            </g>
            <g transform="matrix(1.15975,-4.10936e-17,8.43608e-17,0.564933,-994.691,94.0642)">
                <path d="M997.353,42.848C998.482,37.932 1002.86,34.447 1007.9,34.447C1012.95,34.447 1017.32,37.932 1018.45,42.848L1021.71,57.011L1036.18,55.729C1041.2,55.283 1045.87,58.368 1047.43,63.166C1048.99,67.963 1047.03,73.202 1042.7,75.795L1030.24,83.266L1035.93,96.636C1037.9,101.277 1036.41,106.668 1032.33,109.633C1028.25,112.598 1022.66,112.351 1018.86,109.038L1007.9,99.492L996.946,109.038C993.142,112.351 987.554,112.598 983.473,109.633C979.392,106.668 977.9,101.277 979.876,96.636L985.569,83.266L973.105,75.795C968.778,73.202 966.816,67.963 968.375,63.166C969.934,58.368 974.6,55.283 979.625,55.729L994.099,57.011L997.353,42.848Z" style="fill:rgb(242,184,0);"/>
            </g>
        </g>
    </g>
</svg>
