<?xml version="1.0" encoding="UTF-8" standalone="no"?>
<!DOCTYPE svg PUBLIC "-//W3C//DTD SVG 1.1//EN" "http://www.w3.org/Graphics/SVG/1.1/DTD/svg11.dtd">
<svg width="100%" height="100%" viewBox="0 0 256 256" version="1.1" xmlns="http://www.w3.org/2000/svg" xmlns:xlink="http://www.w3.org/1999/xlink" xml:space="preserve" xmlns:serif="http://www.serif.com/" style="fill-rule:evenodd;clip-rule:evenodd;stroke-linecap:round;stroke-linejoin:round;stroke-miterlimit:1.5;">
    <g id="Coin-x2" serif:id="Coin x2" transform="matrix(1.24325,0,0,1.24325,19.4639,38.4859)">
        <g>
            <g>
                <g>
                    <path d="M13.397,75.994C13.397,75.994 12.819,105.78 14.017,111.152C15.215,116.524 30.002,144 93.1,144C159.241,144 173.433,116.703 173.817,111.476C174.06,108.131 173.991,76.287 173.991,76.287L13.397,75.994Z" style="fill:rgb(242,184,0);fill-rule:nonzero;"/>
                    <g id="Ellipse" transform="matrix(1.00164,0,0,1,-0.0208096,-1.06581e-14)">
                        <path d="M12.657,75.805C12.657,56.087 48.715,40.102 93.196,40.102C137.676,40.102 173.733,56.087 173.733,75.805C173.733,95.525 137.676,111.51 93.196,111.51C48.715,111.51 12.657,95.525 12.657,75.805Z" style="fill:rgb(255,214,6);fill-rule:nonzero;"/>
                    </g>
                    <g>
                        <path d="M112.444,83.628C115.916,83.189 118.624,82.669 120.637,82.08C122.651,81.491 124.006,80.853 124.77,80.164C125.533,79.475 125.915,78.807 125.915,78.158C125.915,76.821 124.77,75.723 122.478,74.875C120.186,74.036 117.339,73.347 113.867,72.818C110.395,72.3 106.611,71.89 102.583,71.591C98.52,71.291 94.772,71.012 91.299,70.743C87.828,70.473 84.946,70.164 82.654,69.824C80.363,69.485 79.252,69.016 79.252,68.417C79.252,67.239 84.598,66.65 95.293,66.65C102.132,66.65 110.326,67.289 119.909,68.566L121.471,64.096C119.318,63.676 116.159,63.277 111.992,62.898C107.826,62.518 103.52,62.279 99.146,62.179L101.472,57.708L85.918,57.708L88.244,62.179C83.557,62.319 79.529,62.579 76.162,62.968C72.794,63.366 70.016,63.856 67.829,64.445C65.607,65.034 64.01,65.692 63.003,66.421C61.961,67.149 61.475,67.888 61.475,68.636C61.475,69.774 62.621,70.702 64.947,71.421C67.273,72.15 70.156,72.749 73.627,73.218C77.064,73.697 80.78,74.096 84.807,74.416C88.8,74.735 92.515,75.054 95.987,75.373C99.424,75.693 102.306,76.052 104.632,76.451C106.959,76.85 108.138,77.379 108.138,78.038C108.138,79.396 103.208,80.065 93.383,80.065C81.682,80.065 72.62,79.216 66.162,77.509L63.697,82.619C68.905,83.707 77.099,84.346 88.244,84.536L85.918,89.007L101.472,89.007L99.146,84.496C104.562,84.366 108.972,84.077 112.444,83.628Z" style="fill:rgb(242,184,0);fill-rule:nonzero;"/>
                    </g>
                </g>
                <g>
                    <path d="M0.74,35.893C0.74,35.893 0.161,65.678 1.359,71.05C2.557,76.423 17.345,103.898 80.443,103.898C146.584,103.898 160.776,76.601 161.159,71.374C161.403,68.029 161.333,36.185 161.333,36.185L0.74,35.893Z" style="fill:rgb(242,184,0);fill-rule:nonzero;"/>
                    <g id="Ellipse2" transform="matrix(0.995606,0,0,1,0.7078,0)">
                        <path d="M0,35.704C0,15.985 36.057,0 80.538,0C125.018,0 161.075,15.985 161.075,35.704C161.075,55.423 125.018,71.408 80.538,71.408C36.057,71.408 0,55.423 0,35.704Z" style="fill:rgb(255,240,85);fill-rule:nonzero;"/>
                    </g>
                    <g id="Ellipse21" serif:id="Ellipse2" transform="matrix(0.227703,0,0,0.228288,17.1104,9.51682)">
                        <path d="M0.149,90.667C0.149,40.886 91.314,0.529 203.774,0.529" style="fill:none;fill-rule:nonzero;stroke:rgb(255,255,153);stroke-width:14.11px;"/>
                    </g>
                </g>
            </g>
            <g transform="matrix(1.07359,-3.80409e-17,7.80939e-17,0.522966,-1001.54,-5.59548)">
                <path d="M997.353,42.848C998.482,37.932 1002.86,34.447 1007.9,34.447C1012.95,34.447 1017.32,37.932 1018.45,42.848L1021.71,57.011L1036.18,55.729C1041.2,55.283 1045.87,58.368 1047.43,63.166C1048.99,67.963 1047.03,73.202 1042.7,75.795L1030.24,83.266L1035.93,96.636C1037.9,101.277 1036.41,106.668 1032.33,109.633C1028.25,112.598 1022.66,112.351 1018.86,109.038L1007.9,99.492L996.946,109.038C993.142,112.351 987.554,112.598 983.473,109.633C979.392,106.668 977.9,101.277 979.876,96.636L985.569,83.266L973.105,75.795C968.778,73.202 966.816,67.963 968.375,63.166C969.934,58.368 974.6,55.283 979.625,55.729L994.099,57.011L997.353,42.848Z" style="fill:rgb(242,184,0);"/>
            </g>
        </g>
    </g>
</svg>
