<?xml version="1.0" encoding="UTF-8" standalone="no"?>
<!DOCTYPE svg PUBLIC "-//W3C//DTD SVG 1.1//EN" "http://www.w3.org/Graphics/SVG/1.1/DTD/svg11.dtd">
<svg width="100%" height="100%" viewBox="0 0 256 256" version="1.1" xmlns="http://www.w3.org/2000/svg" xmlns:xlink="http://www.w3.org/1999/xlink" xml:space="preserve" xmlns:serif="http://www.serif.com/" style="fill-rule:evenodd;clip-rule:evenodd;stroke-linecap:round;stroke-linejoin:round;stroke-miterlimit:1.5;">
    <g id="Coin-Chest-Closed---Gold" serif:id="Coin Chest Closed - Gold" transform="matrix(5.1773,0,0,4.1716,-27439.7,-6193.69)">
        <g transform="matrix(0.242665,0,0,0.194607,4144.47,565.472)">
            <path d="M4947.84,4839.12L4779.6,4839.12L4779.6,4965.31C4779.6,4988.52 4791.77,5007.37 4806.78,5007.37L4920.66,5007.37C4935.66,5007.37 4947.84,4988.52 4947.84,4965.31L4947.84,4839.12Z" style="fill:rgb(142,77,65);"/>
        </g>
        <g transform="matrix(0.221458,0,0,0.108803,4245.83,991.082)">
            <path d="M4947.84,4839.12L4779.6,4839.12L4779.6,4965.31C4779.6,4988.52 4787.06,5007.37 4796.25,5007.37L4931.19,5007.37C4940.38,5007.37 4947.84,4988.52 4947.84,4965.31L4947.84,4839.12Z" style="fill:rgb(168,92,77);"/>
        </g>
        <g transform="matrix(0.063399,0,0,0.634662,5018.08,-1593.13)">
            <path d="M4959.01,4893.4C4959.01,4890.31 4938.82,4887.81 4913.95,4887.81L4823.83,4887.81C4798.96,4887.81 4778.77,4890.31 4778.77,4893.4L4778.77,4907.83C4778.77,4910.91 4798.96,4913.41 4823.83,4913.41L4913.95,4913.41C4938.82,4913.41 4959.01,4910.91 4959.01,4907.83L4959.01,4893.4Z" style="fill:rgb(142,77,65);"/>
        </g>
        <g transform="matrix(1,0,0,1,-0.391944,0)">
            <g transform="matrix(0.190186,0,0,0.236037,4394.52,359.628)">
                <path d="M4832.32,4977.11C4832.32,4970.73 4829.78,4964.62 4825.27,4960.1C4820.76,4955.59 4814.64,4953.06 4808.26,4953.06L4784.09,4953.06L4784.09,4986.05C4784.09,4990.09 4785.7,4993.96 4788.56,4996.82C4791.41,4999.68 4795.29,5001.28 4799.33,5001.28L4832.32,5001.28L4832.32,4977.11Z" style="fill:rgb(245,159,0);"/>
                <clipPath id="_clip1">
                    <path d="M4832.32,4977.11C4832.32,4970.73 4829.78,4964.62 4825.27,4960.1C4820.76,4955.59 4814.64,4953.06 4808.26,4953.06L4784.09,4953.06L4784.09,4986.05C4784.09,4990.09 4785.7,4993.96 4788.56,4996.82C4791.41,4999.68 4795.29,5001.28 4799.33,5001.28L4832.32,5001.28L4832.32,4977.11Z"/>
                </clipPath>
                <g clip-path="url(#_clip1)">
                    <g transform="matrix(0.715381,0,0,0.46096,1366.5,2675.24)">
                        <path d="M4947.84,4839.12L4779.6,4839.12L4779.6,4965.31C4779.6,4988.52 4791.74,5007.37 4806.7,5007.37L4920.74,5007.37C4935.7,5007.37 4947.84,4988.52 4947.84,4965.31L4947.84,4839.12Z" style="fill:rgb(250,176,5);"/>
                    </g>
                </g>
            </g>
            <g transform="matrix(-0.190186,0,0,0.236037,6255.7,359.628)">
                <path d="M4832.32,4977.11C4832.32,4970.73 4829.78,4964.62 4825.27,4960.1C4820.76,4955.59 4814.64,4953.06 4808.26,4953.06L4784.09,4953.06L4784.09,4986.05C4784.09,4990.09 4785.7,4993.96 4788.56,4996.82C4791.41,4999.68 4795.29,5001.28 4799.33,5001.28L4832.32,5001.28L4832.32,4977.11Z" style="fill:rgb(245,159,0);"/>
                <clipPath id="_clip2">
                    <path d="M4832.32,4977.11C4832.32,4970.73 4829.78,4964.62 4825.27,4960.1C4820.76,4955.59 4814.64,4953.06 4808.26,4953.06L4784.09,4953.06L4784.09,4986.05C4784.09,4990.09 4785.7,4993.96 4788.56,4996.82C4791.41,4999.68 4795.29,5001.28 4799.33,5001.28L4832.32,5001.28L4832.32,4977.11Z"/>
                </clipPath>
                <g clip-path="url(#_clip2)">
                    <g transform="matrix(-0.673395,0,0,0.46096,8136.34,2675.24)">
                        <path d="M4947.84,4839.12L4779.6,4839.12L4779.6,4965.31C4779.6,4988.52 4792.5,5007.37 4808.39,5007.37L4919.05,5007.37C4934.94,5007.37 4947.84,4988.52 4947.84,4965.31L4947.84,4839.12Z" style="fill:rgb(250,176,5);"/>
                    </g>
                </g>
            </g>
        </g>
        <g transform="matrix(0.262788,0,0,0.142614,4046.6,800.586)">
            <path d="M4947.84,4973.72C4947.84,4899.44 4921.47,4839.12 4888.98,4839.12L4835.65,4839.12C4804.71,4839.12 4779.6,4896.56 4779.6,4967.31L4779.6,5007.37L4947.84,5007.37L4947.84,4973.72Z" style="fill:rgb(142,77,65);"/>
        </g>
        <g transform="matrix(0.23294,0,0,0.142614,4189.26,800.586)">
            <path d="M4947.84,4973.72C4947.84,4899.44 4918.09,4839.12 4881.44,4839.12L4842.83,4839.12C4807.93,4839.12 4779.6,4896.56 4779.6,4967.31L4779.6,5007.37L4947.84,5007.37L4947.84,4973.72Z" style="fill:rgb(168,92,77);"/>
        </g>
        <g transform="matrix(0.139568,0,0,0.0704151,4640.01,1155.11)">
            <path d="M4831.71,4839.12C4802.94,4839.12 4779.6,4896.56 4779.6,4967.31" style="fill:none;stroke:rgb(193,115,89);stroke-width:18px;"/>
        </g>
        <g transform="matrix(0.252066,0,0,0.236748,4097.44,352.014)">
            <path d="M4959.01,4894.21C4959.01,4890.68 4956.84,4887.81 4954.17,4887.81L4783.62,4887.81C4780.94,4887.81 4778.77,4890.68 4778.77,4894.21L4778.77,4907.01C4778.77,4910.55 4780.94,4913.41 4783.62,4913.41L4954.17,4913.41C4956.84,4913.41 4959.01,4910.55 4959.01,4907.01L4959.01,4894.21Z" style="fill:rgb(245,159,0);"/>
        </g>
        <g transform="matrix(0.218754,0,0,0.171049,4257,673.979)">
            <path d="M4959.01,4894.21C4959.01,4890.68 4957.21,4887.81 4954.98,4887.81L4782.8,4887.81C4780.58,4887.81 4778.77,4890.68 4778.77,4894.21L4778.77,4907.01C4778.77,4910.55 4780.58,4913.41 4782.8,4913.41L4954.98,4913.41C4957.21,4913.41 4959.01,4910.55 4959.01,4907.01L4959.01,4894.21Z" style="fill:rgb(250,176,5);"/>
        </g>
        <g transform="matrix(0.0111481,0,0,0.171049,5249.1,673.979)">
            <path d="M4959.01,4895.1C4959.01,4891.07 4918.63,4887.81 4868.89,4887.81C4819.15,4887.81 4778.77,4891.07 4778.77,4895.1L4778.77,4906.12C4778.77,4910.15 4819.15,4913.41 4868.89,4913.41C4918.63,4913.41 4959.01,4910.15 4959.01,4906.12L4959.01,4895.1Z" style="fill:rgb(255,212,59);"/>
        </g>
        <g transform="matrix(0.063399,0,0,0.634662,5016.04,-1595.5)">
            <path d="M4959.01,4893.4C4959.01,4890.31 4938.82,4887.81 4913.95,4887.81L4823.83,4887.81C4798.96,4887.81 4778.77,4890.31 4778.77,4893.4L4778.77,4907.83C4778.77,4910.91 4798.96,4913.41 4823.83,4913.41L4913.95,4913.41C4938.82,4913.41 4959.01,4910.91 4959.01,4907.83L4959.01,4893.4Z" style="fill:rgb(250,176,5);"/>
        </g>
        <g transform="matrix(0.0534078,0,0,0.541997,5064.68,-1141.39)">
            <path d="M4959.01,4892.3C4959.01,4889.82 4942.55,4887.81 4922.26,4887.81L4815.52,4887.81C4795.24,4887.81 4778.77,4889.82 4778.77,4892.3L4778.77,4908.92C4778.77,4911.4 4795.24,4913.41 4815.52,4913.41L4922.26,4913.41C4942.55,4913.41 4959.01,4911.4 4959.01,4908.92L4959.01,4892.3Z" style="fill:rgb(250,193,5);"/>
        </g>
        <g transform="matrix(1,0,0,1,2.72848e-12,-0.667903)">
            <g transform="matrix(0.28283,0,0,0.351016,3947.06,-210.59)">
                <circle cx="4870.98" cy="4912.5" r="8.099" style="fill:rgb(118,63,51);"/>
            </g>
            <g transform="matrix(0.252066,0,0,0.312835,4097.01,-23.4567)">
                <path d="M4874.91,4915.62C4874.91,4913.25 4872.98,4911.32 4870.61,4911.32C4868.23,4911.32 4866.31,4913.25 4866.31,4915.62L4866.31,4929.02C4866.31,4931.4 4868.23,4933.32 4870.61,4933.32C4872.98,4933.32 4874.91,4931.4 4874.91,4929.02L4874.91,4915.62Z" style="fill:rgb(118,63,51);"/>
            </g>
        </g>
    </g>
</svg>
