<?xml version="1.0" encoding="UTF-8" standalone="no"?>
<!DOCTYPE svg PUBLIC "-//W3C//DTD SVG 1.1//EN" "http://www.w3.org/Graphics/SVG/1.1/DTD/svg11.dtd">
<svg width="100%" height="100%" viewBox="0 0 256 256" version="1.1" xmlns="http://www.w3.org/2000/svg" xmlns:xlink="http://www.w3.org/1999/xlink" xml:space="preserve" xmlns:serif="http://www.serif.com/" style="fill-rule:evenodd;clip-rule:evenodd;stroke-linejoin:round;stroke-miterlimit:2;">
    <g id="Coin-Chest---Gold" serif:id="Coin Chest - Gold" transform="matrix(5.1773,0,0,4.1716,-27442.4,-6149.21)">
        <g>
            <g transform="matrix(0.242665,0,0,0.182762,4144.98,619.592)">
                <path d="M4947.84,4839.12L4779.6,4839.12L4779.6,4965.31C4779.6,4988.52 4791.03,5007.37 4805.12,5007.37L4922.32,5007.37C4936.4,5007.37 4947.84,4988.52 4947.84,4965.31L4947.84,4839.12Z" style="fill:rgb(142,77,65);"/>
            </g>
            <g transform="matrix(0.221458,0,0,0.108803,4246.34,985.888)">
                <path d="M4947.84,4839.12L4779.6,4839.12L4779.6,4965.31C4779.6,4988.52 4787.06,5007.37 4796.25,5007.37L4931.19,5007.37C4940.38,5007.37 4947.84,4988.52 4947.84,4965.31L4947.84,4839.12Z" style="fill:rgb(168,92,77);"/>
            </g>
        </g>
        <g transform="matrix(0.063399,0,0,0.634662,5018.39,-1598.32)">
            <path d="M4959.01,4893.4C4959.01,4890.31 4938.82,4887.81 4913.95,4887.81L4823.83,4887.81C4798.96,4887.81 4778.77,4890.31 4778.77,4893.4L4778.77,4907.83C4778.77,4910.91 4798.96,4913.41 4823.83,4913.41L4913.95,4913.41C4938.82,4913.41 4959.01,4910.91 4959.01,4907.83L4959.01,4893.4Z" style="fill:rgb(142,77,65);"/>
        </g>
        <g transform="matrix(1,0,0,1,0.123037,-5.1937)">
            <g transform="matrix(0.190186,0,0,0.236037,4394.52,359.628)">
                <path d="M4832.32,4977.11C4832.32,4970.73 4829.78,4964.62 4825.27,4960.1C4820.76,4955.59 4814.64,4953.06 4808.26,4953.06L4784.09,4953.06L4784.09,4986.05C4784.09,4990.09 4785.7,4993.96 4788.56,4996.82C4791.41,4999.68 4795.29,5001.28 4799.33,5001.28L4832.32,5001.28L4832.32,4977.11Z" style="fill:rgb(245,159,0);"/>
                <clipPath id="_clip1">
                    <path d="M4832.32,4977.11C4832.32,4970.73 4829.78,4964.62 4825.27,4960.1C4820.76,4955.59 4814.64,4953.06 4808.26,4953.06L4784.09,4953.06L4784.09,4986.05C4784.09,4990.09 4785.7,4993.96 4788.56,4996.82C4791.41,4999.68 4795.29,5001.28 4799.33,5001.28L4832.32,5001.28L4832.32,4977.11Z"/>
                </clipPath>
                <g clip-path="url(#_clip1)">
                    <g transform="matrix(0.715381,0,0,0.46096,1366.5,2675.24)">
                        <path d="M4947.84,4839.12L4779.6,4839.12L4779.6,4965.31C4779.6,4988.52 4791.74,5007.37 4806.7,5007.37L4920.74,5007.37C4935.7,5007.37 4947.84,4988.52 4947.84,4965.31L4947.84,4839.12Z" style="fill:rgb(250,176,5);"/>
                    </g>
                </g>
            </g>
            <g transform="matrix(-0.190186,0,0,0.236037,6255.7,359.628)">
                <path d="M4832.32,4977.11C4832.32,4970.73 4829.78,4964.62 4825.27,4960.1C4820.76,4955.59 4814.64,4953.06 4808.26,4953.06L4784.09,4953.06L4784.09,4986.05C4784.09,4990.09 4785.7,4993.96 4788.56,4996.82C4791.41,4999.68 4795.29,5001.28 4799.33,5001.28L4832.32,5001.28L4832.32,4977.11Z" style="fill:rgb(245,159,0);"/>
                <clipPath id="_clip2">
                    <path d="M4832.32,4977.11C4832.32,4970.73 4829.78,4964.62 4825.27,4960.1C4820.76,4955.59 4814.64,4953.06 4808.26,4953.06L4784.09,4953.06L4784.09,4986.05C4784.09,4990.09 4785.7,4993.96 4788.56,4996.82C4791.41,4999.68 4795.29,5001.28 4799.33,5001.28L4832.32,5001.28L4832.32,4977.11Z"/>
                </clipPath>
                <g clip-path="url(#_clip2)">
                    <g transform="matrix(-0.673395,0,0,0.46096,8136.34,2675.24)">
                        <path d="M4947.84,4839.12L4779.6,4839.12L4779.6,4965.31C4779.6,4988.52 4792.5,5007.37 4808.39,5007.37L4919.05,5007.37C4934.94,5007.37 4947.84,4988.52 4947.84,4965.31L4947.84,4839.12Z" style="fill:rgb(250,176,5);"/>
                    </g>
                </g>
            </g>
        </g>
        <g transform="matrix(1,0,0,1,1.81899e-12,-3.3426)">
            <g transform="matrix(0.262788,0,0,0.0970616,4047.11,1020.23)">
                <path d="M4947.84,4839.12L4779.6,4839.12L4798.7,5007.37L4927.59,5007.37L4947.84,4839.12Z" style="fill:rgb(114,62,52);"/>
            </g>
            <g transform="matrix(0.19952,0,0,0.111064,4354.83,950.114)">
                <rect x="4779.6" y="4839.12" width="168.246" height="168.246" style="fill:rgb(91,48,41);"/>
            </g>
            <g transform="matrix(0.252066,0,0,0.312835,4097.44,-31.0537)">
                <path d="M4958.64,4854.23C4958.64,4837.3 4944.89,4823.56 4927.96,4823.56L4813.91,4823.56C4796.98,4823.56 4783.23,4837.3 4783.23,4854.23L4783.23,4861.9L4958.64,4861.9L4958.64,4854.23Z" style="fill:rgb(142,77,65);"/>
            </g>
            <g transform="matrix(0.222074,0,0,0.312835,4240.9,-31.0537)">
                <path d="M4958.64,4854.23C4958.64,4837.3 4943.03,4823.56 4923.81,4823.56L4818.06,4823.56C4798.84,4823.56 4783.23,4837.3 4783.23,4854.23L4783.23,4861.9L4958.64,4861.9L4958.64,4854.23Z" style="fill:rgb(168,92,77);"/>
            </g>
            <g transform="matrix(0.0291977,0,0,0.400379,5183.08,-473.053)">
                <path d="M4959.01,4891.89C4959.01,4889.64 4938.82,4887.81 4913.95,4887.81L4823.83,4887.81C4798.96,4887.81 4778.77,4889.64 4778.77,4891.89L4778.77,4909.34C4778.77,4911.59 4798.96,4913.41 4823.83,4913.41L4913.95,4913.41C4938.82,4913.41 4959.01,4911.59 4959.01,4909.34L4959.01,4891.89Z" style="fill:rgb(250,176,5);"/>
            </g>
            <g transform="matrix(0.0519143,0,0,0.348594,5072.47,-222.743)">
                <path d="M4959.01,4894.21C4959.01,4890.68 4943.49,4887.81 4924.38,4887.81L4813.4,4887.81C4794.29,4887.81 4778.77,4890.68 4778.77,4894.21L4778.77,4907.01C4778.77,4910.55 4794.29,4913.41 4813.4,4913.41L4924.38,4913.41C4943.49,4913.41 4959.01,4910.55 4959.01,4907.01L4959.01,4894.21Z" style="fill:rgb(250,176,5);"/>
            </g>
            <g transform="matrix(0.0444109,0,0,0.283189,5109,97.7834)">
                <path d="M4959.01,4892.57C4959.01,4889.94 4948.04,4887.81 4934.52,4887.81L4803.26,4887.81C4789.74,4887.81 4778.77,4889.94 4778.77,4892.57L4778.77,4908.65C4778.77,4911.28 4789.74,4913.41 4803.26,4913.41L4934.52,4913.41C4948.04,4913.41 4959.01,4911.28 4959.01,4908.65L4959.01,4892.57Z" style="fill:rgb(250,193,5);"/>
            </g>
            <g transform="matrix(0.100021,0,0,0.0504629,4827.79,1236.9)">
                <path d="M4831.71,4822.23C4799.15,4822.23 4772.73,4887.24 4772.73,4967.31C4772.73,4976.64 4775.81,4984.21 4779.6,4984.21C4783.39,4984.21 4786.46,4976.64 4786.46,4967.31C4786.46,4905.89 4806.74,4856.02 4831.71,4856.02C4835.5,4856.02 4838.57,4848.45 4838.57,4839.12C4838.57,4829.8 4835.5,4822.23 4831.71,4822.23Z" style="fill:rgb(193,115,89);"/>
            </g>
        </g>
        <g transform="matrix(1,0,0,1,-0.117389,0)">
            <g transform="matrix(0.96548,0,0,0.96548,182.4,52.1079)">
                <g transform="matrix(0.252066,0,0,0.223344,4098.59,421.741)">
                    <path d="M4828.5,4834.36C4828.5,4827.74 4824.66,4822.36 4819.93,4822.36L4792.86,4822.36C4788.13,4822.36 4784.29,4827.74 4784.29,4834.36L4784.29,4858.38C4784.29,4865.01 4788.13,4870.39 4792.86,4870.39L4819.93,4870.39C4824.66,4870.39 4828.5,4865.01 4828.5,4858.38L4828.5,4834.36Z" style="fill:rgb(255,231,59);"/>
                </g>
                <g transform="matrix(0.174044,0,0,0.223344,4475.32,421.741)">
                    <path d="M4828.5,4833.05C4828.5,4827.15 4823.55,4822.36 4817.45,4822.36L4795.34,4822.36C4789.24,4822.36 4784.29,4827.15 4784.29,4833.05L4784.29,4859.7C4784.29,4865.6 4789.24,4870.39 4795.34,4870.39L4817.45,4870.39C4823.55,4870.39 4828.5,4865.6 4828.5,4859.7L4828.5,4833.05Z" style="fill:rgb(255,255,104);"/>
                </g>
            </g>
            <g transform="matrix(0.96548,0,0,0.96548,203.92,50.2599)">
                <g transform="matrix(0.252066,0,0,0.223344,4098.59,421.741)">
                    <path d="M4828.5,4834.36C4828.5,4827.74 4824.66,4822.36 4819.93,4822.36L4792.86,4822.36C4788.13,4822.36 4784.29,4827.74 4784.29,4834.36L4784.29,4858.38C4784.29,4865.01 4788.13,4870.39 4792.86,4870.39L4819.93,4870.39C4824.66,4870.39 4828.5,4865.01 4828.5,4858.38L4828.5,4834.36Z" style="fill:rgb(255,231,59);"/>
                </g>
                <g transform="matrix(0.174044,0,0,0.223344,4475.32,421.741)">
                    <path d="M4828.5,4833.05C4828.5,4827.15 4823.55,4822.36 4817.45,4822.36L4795.34,4822.36C4789.24,4822.36 4784.29,4827.15 4784.29,4833.05L4784.29,4859.7C4784.29,4865.6 4789.24,4870.39 4795.34,4870.39L4817.45,4870.39C4823.55,4870.39 4828.5,4865.6 4828.5,4859.7L4828.5,4833.05Z" style="fill:rgb(255,255,104);"/>
                </g>
            </g>
            <g transform="matrix(0.96548,0,0,0.96548,214.68,52.1079)">
                <g transform="matrix(0.252066,0,0,0.223344,4098.59,421.741)">
                    <path d="M4828.5,4834.36C4828.5,4827.74 4824.66,4822.36 4819.93,4822.36L4792.86,4822.36C4788.13,4822.36 4784.29,4827.74 4784.29,4834.36L4784.29,4858.38C4784.29,4865.01 4788.13,4870.39 4792.86,4870.39L4819.93,4870.39C4824.66,4870.39 4828.5,4865.01 4828.5,4858.38L4828.5,4834.36Z" style="fill:rgb(255,231,59);"/>
                </g>
                <g transform="matrix(0.174044,0,0,0.223344,4475.32,421.741)">
                    <path d="M4828.5,4833.05C4828.5,4827.15 4823.55,4822.36 4817.45,4822.36L4795.34,4822.36C4789.24,4822.36 4784.29,4827.15 4784.29,4833.05L4784.29,4859.7C4784.29,4865.6 4789.24,4870.39 4795.34,4870.39L4817.45,4870.39C4823.55,4870.39 4828.5,4865.6 4828.5,4859.7L4828.5,4833.05Z" style="fill:rgb(255,255,104);"/>
                </g>
            </g>
            <g transform="matrix(0.96548,0,0,1.30958,193.16,-469.219)">
                <g transform="matrix(0.252066,0,0,0.223344,4098.59,421.741)">
                    <path d="M4828.5,4833.77C4828.5,4827.47 4823.55,4822.36 4817.45,4822.36L4795.34,4822.36C4789.24,4822.36 4784.29,4827.47 4784.29,4833.77L4784.29,4858.98C4784.29,4865.28 4789.24,4870.39 4795.34,4870.39L4817.45,4870.39C4823.55,4870.39 4828.5,4865.28 4828.5,4858.98L4828.5,4833.77Z" style="fill:rgb(255,231,59);"/>
                </g>
                <g transform="matrix(0.174044,0,0,0.223344,4475.32,421.741)">
                    <path d="M4828.5,4830.24C4828.5,4825.89 4823.55,4822.36 4817.45,4822.36L4795.34,4822.36C4789.24,4822.36 4784.29,4825.89 4784.29,4830.24L4784.29,4862.51C4784.29,4866.86 4789.24,4870.39 4795.34,4870.39L4817.45,4870.39C4823.55,4870.39 4828.5,4866.86 4828.5,4862.51L4828.5,4830.24Z" style="fill:rgb(255,255,104);"/>
                </g>
            </g>
        </g>
        <g>
            <g transform="matrix(0.252066,0,0,0.236748,4097.96,346.82)">
                <path d="M4959.01,4894.21C4959.01,4890.68 4956.84,4887.81 4954.17,4887.81L4783.62,4887.81C4780.94,4887.81 4778.77,4890.68 4778.77,4894.21L4778.77,4907.01C4778.77,4910.55 4780.94,4913.41 4783.62,4913.41L4954.17,4913.41C4956.84,4913.41 4959.01,4910.55 4959.01,4907.01L4959.01,4894.21Z" style="fill:rgb(245,159,0);"/>
            </g>
            <g transform="matrix(0.217745,0,0,0.176795,4262.52,640.629)">
                <path d="M4959.01,4894.21C4959.01,4890.68 4957.14,4887.81 4954.83,4887.81L4782.96,4887.81C4780.65,4887.81 4778.77,4890.68 4778.77,4894.21L4778.77,4907.01C4778.77,4910.55 4780.65,4913.41 4782.96,4913.41L4954.83,4913.41C4957.14,4913.41 4959.01,4910.55 4959.01,4907.01L4959.01,4894.21Z" style="fill:rgb(250,176,5);"/>
            </g>
            <g transform="matrix(0.0111481,0,0,0.177671,5249.79,636.336)">
                <path d="M4959.01,4894.83C4959.01,4890.95 4918.63,4887.81 4868.89,4887.81C4819.15,4887.81 4778.77,4890.95 4778.77,4894.83L4778.77,4906.4C4778.77,4910.27 4819.15,4913.41 4868.89,4913.41C4918.63,4913.41 4959.01,4910.27 4959.01,4906.4L4959.01,4894.83Z" style="fill:rgb(255,212,59);"/>
            </g>
        </g>
        <g>
            <g transform="matrix(0.063399,0,0,0.634662,5016.55,-1600.69)">
                <path d="M4959.01,4893.4C4959.01,4890.31 4938.82,4887.81 4913.95,4887.81L4823.83,4887.81C4798.96,4887.81 4778.77,4890.31 4778.77,4893.4L4778.77,4907.83C4778.77,4910.91 4798.96,4913.41 4823.83,4913.41L4913.95,4913.41C4938.82,4913.41 4959.01,4910.91 4959.01,4907.83L4959.01,4893.4Z" style="fill:rgb(250,176,5);"/>
            </g>
            <g transform="matrix(0.0534078,0,0,0.541997,5065.2,-1146.58)">
                <path d="M4959.01,4892.3C4959.01,4889.82 4942.55,4887.81 4922.26,4887.81L4815.52,4887.81C4795.24,4887.81 4778.77,4889.82 4778.77,4892.3L4778.77,4908.92C4778.77,4911.4 4795.24,4913.41 4815.52,4913.41L4922.26,4913.41C4942.55,4913.41 4959.01,4911.4 4959.01,4908.92L4959.01,4892.3Z" style="fill:rgb(250,193,5);"/>
            </g>
            <g transform="matrix(1,0,0,1,0.514981,-5.8616)">
                <g transform="matrix(0.28283,0,0,0.351016,3947.06,-210.59)">
                    <circle cx="4870.98" cy="4912.5" r="8.099" style="fill:rgb(118,63,51);"/>
                </g>
                <g transform="matrix(0.252066,0,0,0.312835,4097.01,-23.4567)">
                    <path d="M4874.91,4915.62C4874.91,4913.25 4872.98,4911.32 4870.61,4911.32C4868.23,4911.32 4866.31,4913.25 4866.31,4915.62L4866.31,4929.02C4866.31,4931.4 4868.23,4933.32 4870.61,4933.32C4872.98,4933.32 4874.91,4931.4 4874.91,4929.02L4874.91,4915.62Z" style="fill:rgb(118,63,51);"/>
                </g>
            </g>
        </g>
    </g>
</svg>
