<?xml version="1.0" encoding="UTF-8" standalone="no"?>
<!DOCTYPE svg PUBLIC "-//W3C//DTD SVG 1.1//EN" "http://www.w3.org/Graphics/SVG/1.1/DTD/svg11.dtd">
<svg width="100%" height="100%" viewBox="0 0 256 256" version="1.1" xmlns="http://www.w3.org/2000/svg" xmlns:xlink="http://www.w3.org/1999/xlink" xml:space="preserve" xmlns:serif="http://www.serif.com/" style="fill-rule:evenodd;clip-rule:evenodd;stroke-linecap:round;stroke-linejoin:round;stroke-miterlimit:1.5;">
    <g transform="matrix(2.67475,0,0,2.15517,-14900.9,-3226.09)">
        <g id="Coin-Bag" serif:id="Coin Bag">
            <g id="Coin-Bag1" serif:id="Coin Bag">
                <g transform="matrix(0.297692,0,0,0.347181,3825.12,-210.763)">
                    <path d="M6025.39,4999.46C6095.39,4999.46 6152.23,5066.95 6152.23,5136.95C6152.23,5206.96 6095.39,5253.14 6025.39,5253.14C5955.38,5253.14 5898.55,5206.96 5898.55,5136.95C5898.55,5066.95 5955.38,4999.46 6025.39,4999.46Z" style="fill:rgb(206,212,218);"/>
                </g>
                <g transform="matrix(0.252066,0,0,0.312835,4097.44,-23.4567)">
                    <path d="M6058.01,5229.86C6050.73,5230.7 6043.28,5231.13 6035.69,5231.13C5953.02,5231.13 5885.9,5179.88 5885.9,5102.19C5885.9,5024.5 5953.02,4949.6 6035.69,4949.6C6043.28,4949.6 6050.73,4950.23 6058.01,4951.44C5985.91,4963.36 5930.53,5031.62 5930.53,5102.19C5930.53,5172.76 5985.91,5221.51 6058.01,5229.86Z" style="fill:rgb(233,236,239);"/>
                </g>
                <g transform="matrix(0.252066,0,0,0.312835,4097.44,-23.4567)">
                    <path d="M6011.36,4951.79C6019.28,4950.36 6027.41,4949.6 6035.69,4949.6C6118.37,4949.6 6185.49,5024.5 6185.49,5102.19C6185.49,5179.88 6118.37,5231.13 6035.69,5231.13C6027.41,5231.13 6019.28,5230.62 6011.36,5229.61C6082.48,5220.6 6136.82,5172.1 6136.82,5102.19C6136.82,5032.28 6082.48,4964.64 6011.36,4951.79Z" style="fill:rgb(173,181,189);"/>
                </g>
                <g transform="matrix(0.452038,0,0,0.561017,2903.56,-1264.39)">
                    <circle cx="5959.16" cy="5014.04" r="11.067" style="fill:white;"/>
                </g>
                <g transform="matrix(0.219489,0,0,0.272405,4284.35,193.603)">
                    <circle cx="5959.16" cy="5014.04" r="11.067" style="fill:white;"/>
                </g>
                <g transform="matrix(1.63889,0,0,1.63889,-3591.45,-1018.67)">
                    <g id="Ellipse2" transform="matrix(0.0529881,0,0,0.0657627,5603.65,1541.49)">
                        <path d="M143.635,597.204C143.635,492.588 228.714,407.78 333.671,407.78C438.63,407.78 523.707,492.588 523.707,597.204C523.707,701.822 438.63,786.629 333.671,786.629C228.714,786.629 143.635,701.822 143.635,597.204Z" style="fill:rgb(173,181,189);fill-rule:nonzero;"/>
                    </g>
                    <g id="Ellipse21" serif:id="Ellipse2" transform="matrix(0.0529881,0,0,0.0657627,5602.16,1539.64)">
                        <path d="M143.635,597.204C143.635,492.588 228.714,407.78 333.671,407.78C438.63,407.78 523.707,492.588 523.707,597.204C523.707,701.822 438.63,786.629 333.671,786.629C228.714,786.629 143.635,701.822 143.635,597.204Z" style="fill:rgb(255,240,85);fill-rule:nonzero;"/>
                    </g>
                    <g transform="matrix(0.0654938,0,0,0.0812834,5611.57,1568.99)">
                        <path d="M0.356,128.315C0.356,57.551 57.808,0.099 128.571,0.099" style="fill:none;stroke:rgb(255,255,153);stroke-width:18.79px;"/>
                    </g>
                    <g transform="matrix(0.127642,0,0,0.158306,5491.19,1567.34)">
                        <path d="M997.38,42.734C998.552,37.873 1002.9,34.447 1007.9,34.447C1012.9,34.447 1017.25,37.873 1018.43,42.734L1021.83,56.843L1036.3,55.719C1041.28,55.331 1045.88,58.41 1047.43,63.166C1048.97,67.922 1047.06,73.117 1042.8,75.734L1030.43,83.33L1035.97,96.744C1037.88,101.366 1036.38,106.694 1032.33,109.633C1028.29,112.573 1022.75,112.358 1018.95,109.114L1007.9,99.699L996.857,109.114C993.051,112.358 987.519,112.573 983.473,109.633C979.427,106.694 977.922,101.366 979.831,96.744L985.372,83.33L973.004,75.734C968.743,73.117 966.829,67.922 968.375,63.166C969.92,58.41 974.522,55.331 979.508,55.719L993.978,56.843L997.38,42.734Z" style="fill:rgb(242,184,0);"/>
                    </g>
                </g>
                <g transform="matrix(0.33979,1.46427e-17,-1.64385e-17,0.381462,3569.33,-356.079)">
                    <path d="M5984.31,4878.67C5983.31,4875.41 5983.8,4871.83 5985.61,4869.04C5987.42,4866.24 5990.34,4864.59 5993.44,4864.59C6013.33,4864.59 6050.06,4864.59 6069.89,4864.59C6072.98,4864.59 6075.88,4866.23 6077.7,4869C6079.51,4871.77 6080.01,4875.33 6079.05,4878.58C6072.72,4899.82 6061.43,4937.77 6061.43,4937.77L6002.39,4937.77C6002.39,4937.77 5990.81,4899.93 5984.31,4878.67Z" style="fill:rgb(222,226,230);"/>
                    <clipPath id="_clip1">
                        <path d="M5984.31,4878.67C5983.31,4875.41 5983.8,4871.83 5985.61,4869.04C5987.42,4866.24 5990.34,4864.59 5993.44,4864.59C6013.33,4864.59 6050.06,4864.59 6069.89,4864.59C6072.98,4864.59 6075.88,4866.23 6077.7,4869C6079.51,4871.77 6080.01,4875.33 6079.05,4878.58C6072.72,4899.82 6061.43,4937.77 6061.43,4937.77L6002.39,4937.77C6002.39,4937.77 5990.81,4899.93 5984.31,4878.67Z"/>
                    </clipPath>
                    <g clip-path="url(#_clip1)">
                        <g transform="matrix(0.732513,6.16298e-33,-6.16298e-33,0.809796,1610.38,925.47)">
                            <path d="M6016.3,4954.7L5995.81,4954.7L5965.24,4864.33C5972.05,4864.33 5989.97,4864.48 5990.56,4864.33L6016.3,4954.7Z" style="fill:rgb(233,236,239);"/>
                        </g>
                        <g transform="matrix(0.732513,6.16298e-33,-6.16298e-33,0.809796,1610.38,925.47)">
                            <path d="M6049.51,4925.88C6062.08,4922.16 6070.32,4911.44 6073.9,4898.83C6077.93,4884.66 6077.93,4864.33 6077.93,4864.33L6106.14,4864.33L6076.41,4954.7L6052.44,4954.7L6057.65,4938.88L6005.51,4938.88C6005.51,4938.88 6030.63,4931.46 6049.51,4925.88Z" style="fill:rgb(173,181,189);"/>
                        </g>
                    </g>
                </g>
                <g transform="matrix(0.239491,0,0,0.301944,4173.34,31.4417)">
                    <path d="M6120.74,4956.45C6120.74,4949.25 6114.81,4943.41 6107.5,4943.41L5963.86,4943.41C5956.55,4943.41 5950.62,4949.25 5950.62,4956.45C5950.62,4963.64 5956.55,4969.48 5963.86,4969.48L6107.5,4969.48C6114.81,4969.48 6120.74,4963.64 6120.74,4956.45Z" style="fill:rgb(156,90,65);"/>
                </g>
                <g transform="matrix(0.33081,-0.11001,0.0886402,0.410563,5577.22,1513.11)">
                    <path d="M160.623,82.899C172.298,84.284 181.851,89.847 190.289,97.604C192.219,99.378 195.226,99.251 197.001,97.321C198.775,95.391 198.648,92.384 196.718,90.61C186.792,81.485 175.477,75.095 161.743,73.466C159.139,73.157 156.775,75.02 156.466,77.623C156.157,80.226 158.02,82.591 160.623,82.899Z" style="fill:rgb(156,90,65);"/>
                </g>
                <g transform="matrix(0.33081,-0.11001,0.0886402,0.410563,5577.22,1513.11)">
                    <path d="M151.593,83.954C165.255,93.362 174.824,107.406 180.397,126.04C181.148,128.552 183.797,129.981 186.308,129.23C188.82,128.479 190.249,125.83 189.498,123.318C183.237,102.379 172.333,86.702 156.982,76.13C154.822,74.643 151.862,75.188 150.375,77.348C148.888,79.507 149.434,82.467 151.593,83.954Z" style="fill:rgb(156,90,65);"/>
                </g>
                <g transform="matrix(0.143399,0,0,0.227187,4745.15,402.945)">
                    <path d="M6120.74,4956.45C6120.74,4949.25 6113.28,4943.41 6104.1,4943.41L5967.26,4943.41C5958.08,4943.41 5950.62,4949.25 5950.62,4956.45C5950.62,4963.64 5958.08,4969.48 5967.26,4969.48L6104.1,4969.48C6113.28,4969.48 6120.74,4963.64 6120.74,4956.45Z" style="fill:rgb(182,109,79);"/>
                </g>
                <g transform="matrix(0.194333,0,0,0.216987,4445.9,446.115)">
                    <path d="M6120.74,4956.45C6120.74,4949.25 6115.49,4943.41 6109.01,4943.41L5962.35,4943.41C5955.88,4943.41 5950.62,4949.25 5950.62,4956.45C5950.62,4963.64 5955.88,4969.48 5962.35,4969.48L6109.01,4969.48C6115.49,4969.48 6120.74,4963.64 6120.74,4956.45Z" style="fill:rgb(156,90,65);"/>
                </g>
                <g transform="matrix(0.12082,0,0,0.166063,4883.35,697.85)">
                    <path d="M6120.74,4956.45C6120.74,4949.25 6114.27,4943.41 6106.31,4943.41L5965.06,4943.41C5957.09,4943.41 5950.62,4949.25 5950.62,4956.45C5950.62,4963.64 5957.09,4969.48 5965.06,4969.48L6106.31,4969.48C6114.27,4969.48 6120.74,4963.64 6120.74,4956.45Z" style="fill:rgb(182,109,79);"/>
                </g>
            </g>
        </g>
    </g>
</svg>
