<?xml version="1.0" encoding="UTF-8" standalone="no"?>
<!DOCTYPE svg PUBLIC "-//W3C//DTD SVG 1.1//EN" "http://www.w3.org/Graphics/SVG/1.1/DTD/svg11.dtd">
<svg width="100%" height="100%" viewBox="0 0 256 256" version="1.1" xmlns="http://www.w3.org/2000/svg" xmlns:xlink="http://www.w3.org/1999/xlink" xml:space="preserve" xmlns:serif="http://www.serif.com/" style="fill-rule:evenodd;clip-rule:evenodd;stroke-linecap:round;stroke-linejoin:round;stroke-miterlimit:1.5;">
    <g id="Coin-x4" serif:id="Coin x4" transform="matrix(1.05977,0,0,1.05977,38.6612,8.24624)">
        <g>
            <g>
                <g>
                    <path d="M5.771,158.335C5.771,158.335 5.195,187.972 6.387,193.317C7.578,198.662 22.283,226 85.032,226C150.805,226 164.918,198.84 165.299,193.639C165.543,190.31 165.473,158.627 165.473,158.627L5.771,158.335Z" style="fill:rgb(242,184,0);fill-rule:nonzero;"/>
                    <g id="Ellipse" transform="matrix(0.995421,0,0,1,0.756442,0)">
                        <path d="M5.035,158.147C5.035,138.528 40.892,122.622 85.126,122.622C129.359,122.622 165.216,138.528 165.216,158.147C165.216,177.768 129.359,193.672 85.126,193.672C40.892,193.672 5.035,177.768 5.035,158.147Z" style="fill:rgb(255,214,6);fill-rule:nonzero;"/>
                    </g>
                    <g>
                        <path d="M104.267,165.93C107.721,165.493 110.413,164.977 112.415,164.391C114.418,163.805 115.765,163.169 116.525,162.484C117.284,161.799 117.665,161.133 117.665,160.488C117.665,159.157 116.525,158.065 114.246,157.221C111.967,156.387 109.136,155.701 105.683,155.175C102.23,154.659 98.468,154.251 94.462,153.954C90.422,153.656 86.694,153.378 83.24,153.11C79.787,152.841 76.922,152.533 74.643,152.196C72.364,151.858 71.259,151.391 71.259,150.796C71.259,149.624 76.577,149.038 87.211,149.038C94.013,149.038 102.161,149.674 111.691,150.945L113.245,146.496C111.104,146.079 107.962,145.682 103.819,145.304C99.676,144.927 95.394,144.688 91.044,144.589L93.357,140.14L77.889,140.14L80.202,144.589C75.541,144.728 71.535,144.986 68.187,145.374C64.837,145.771 62.075,146.257 59.901,146.843C57.691,147.429 56.102,148.085 55.1,148.809C54.065,149.534 53.582,150.269 53.582,151.014C53.582,152.146 54.721,153.07 57.034,153.785C59.347,154.51 62.213,155.105 65.666,155.572C69.085,156.049 72.779,156.446 76.784,156.763C80.754,157.082 84.449,157.4 87.902,157.717C91.319,158.035 94.186,158.392 96.499,158.79C98.812,159.187 99.987,159.714 99.987,160.369C99.987,161.719 95.084,162.385 85.312,162.385C73.677,162.385 64.665,161.541 58.243,159.842L55.792,164.927C60.971,166.009 69.119,166.645 80.202,166.834L77.889,171.282L93.357,171.282L91.044,166.794C96.43,166.665 100.815,166.377 104.267,165.93Z" style="fill:rgb(242,184,0);fill-rule:nonzero;"/>
                    </g>
                </g>
                <g>
                    <path d="M8.288,118.434C8.288,118.434 7.713,148.071 8.904,153.416C10.096,158.761 24.801,186.099 87.549,186.099C153.323,186.099 167.436,158.939 167.817,153.737C168.06,150.409 167.991,118.725 167.991,118.725L8.288,118.434Z" style="fill:rgb(242,184,0);fill-rule:nonzero;"/>
                    <g id="Ellipse2" transform="matrix(0.998518,0,0,1,0.248628,0)">
                        <path d="M7.552,118.246C7.552,98.627 43.409,82.721 87.643,82.721C131.877,82.721 167.734,98.627 167.734,118.246C167.734,137.867 131.877,153.771 87.643,153.771C43.409,153.771 7.552,137.867 7.552,118.246Z" style="fill:rgb(255,214,6);fill-rule:nonzero;"/>
                    </g>
                    <g>
                        <path d="M106.785,126.029C110.238,125.592 112.931,125.076 114.933,124.489C116.935,123.904 118.283,123.268 119.042,122.583C119.802,121.898 120.182,121.232 120.182,120.587C120.182,119.256 119.042,118.164 116.763,117.32C114.485,116.485 111.653,115.8 108.201,115.274C104.748,114.758 100.984,114.351 96.98,114.052C92.94,113.754 89.211,113.476 85.758,113.209C82.305,112.94 79.44,112.632 77.16,112.295C74.882,111.957 73.777,111.49 73.777,110.894C73.777,109.723 79.094,109.137 89.729,109.137C96.53,109.137 104.679,109.772 114.209,111.043L115.762,106.595C113.621,106.178 110.48,105.78 106.337,105.403C102.193,105.025 97.912,104.787 93.561,104.688L95.874,100.239L80.406,100.239L82.72,104.688C78.058,104.827 74.053,105.085 70.704,105.472C67.355,105.869 64.593,106.356 62.418,106.942C60.208,107.528 58.62,108.184 57.618,108.908C56.583,109.634 56.099,110.369 56.099,111.113C56.099,112.245 57.238,113.168 59.552,113.884C61.865,114.608 64.731,115.204 68.184,115.671C71.602,116.147 75.296,116.545 79.301,116.863C83.272,117.181 86.967,117.498 90.419,117.816C93.837,118.134 96.704,118.492 99.017,118.888C101.33,119.286 102.503,119.812 102.503,120.467C102.503,121.818 97.6,122.484 87.829,122.484C76.195,122.484 67.182,121.639 60.76,119.941L58.309,125.025C63.488,126.108 71.637,126.744 82.72,126.933L80.406,131.381L95.874,131.381L93.561,126.893C98.947,126.764 103.332,126.476 106.785,126.029Z" style="fill:rgb(242,184,0);fill-rule:nonzero;"/>
                    </g>
                </g>
                <g>
                    <path d="M0.736,76.587C0.736,76.587 0.161,106.223 1.352,111.568C2.544,116.914 17.248,144.252 79.997,144.252C145.77,144.252 159.884,117.091 160.265,111.89C160.508,108.562 160.439,76.878 160.439,76.878L0.736,76.587Z" style="fill:rgb(242,184,0);fill-rule:nonzero;"/>
                    <g id="Ellipse3" transform="matrix(0.995472,0,0,1,0.725278,0)">
                        <path d="M0,76.399C0,56.779 35.857,40.874 80.091,40.874C124.324,40.874 160.182,56.779 160.182,76.399C160.182,96.019 124.324,111.924 80.091,111.924C35.857,111.924 0,96.019 0,76.399Z" style="fill:rgb(255,214,6);fill-rule:nonzero;"/>
                    </g>
                    <g>
                        <path d="M99.233,84.181C102.686,83.744 105.379,83.228 107.381,82.642C109.384,82.056 110.73,81.421 111.49,80.735C112.25,80.05 112.629,79.384 112.629,78.739C112.629,77.409 111.49,76.316 109.211,75.472C106.933,74.638 104.101,73.953 100.649,73.427C97.195,72.91 93.432,72.503 89.427,72.205C85.387,71.907 81.658,71.629 78.206,71.361C74.753,71.092 71.887,70.784 69.608,70.447C67.33,70.11 66.225,69.643 66.225,69.047C66.225,67.875 71.542,67.289 82.176,67.289C88.978,67.289 97.126,67.925 106.656,69.196L108.209,64.747C106.068,64.33 102.927,63.933 98.783,63.556C94.64,63.178 90.36,62.94 86.009,62.841L88.322,58.392L72.854,58.392L75.167,62.841C70.505,62.979 66.501,63.237 63.152,63.625C59.803,64.022 57.041,64.508 54.865,65.094C52.656,65.68 51.067,66.336 50.066,67.061C49.03,67.786 48.547,68.521 48.547,69.265C48.547,70.397 49.687,71.321 52,72.036C54.312,72.761 57.179,73.357 60.632,73.824C64.05,74.3 67.744,74.698 71.749,75.015C75.72,75.333 79.414,75.651 82.867,75.969C86.284,76.286 89.15,76.644 91.464,77.041C93.777,77.438 94.951,77.965 94.951,78.62C94.951,79.97 90.049,80.636 80.277,80.636C68.642,80.636 59.631,79.792 53.208,78.094L50.757,83.178C55.936,84.26 64.084,84.896 75.167,85.085L72.854,89.534L88.322,89.534L86.009,85.045C91.395,84.916 95.78,84.628 99.233,84.181Z" style="fill:rgb(242,184,0);fill-rule:nonzero;"/>
                    </g>
                </g>
                <g>
                    <path d="M8.288,35.712C8.288,35.712 7.713,65.349 8.904,70.694C10.096,76.04 24.801,103.377 87.549,103.377C153.323,103.377 167.436,76.217 167.817,71.016C168.06,67.688 167.991,36.004 167.991,36.004L8.288,35.712Z" style="fill:rgb(242,184,0);fill-rule:nonzero;"/>
                    <g id="Ellipse4" transform="matrix(0.997108,0,0,1,0.754879,0)">
                        <path d="M7.552,35.524C7.552,15.905 43.409,0 87.643,0C131.877,0 167.734,15.905 167.734,35.524C167.734,55.145 131.877,71.049 87.643,71.049C43.409,71.049 7.552,55.145 7.552,35.524Z" style="fill:rgb(255,240,85);fill-rule:nonzero;"/>
                    </g>
                    <g id="Ellipse21" serif:id="Ellipse2" transform="matrix(0.250922,0,0,0.251567,22.7248,7.78625)">
                        <path d="M0.149,90.667C0.149,40.886 91.314,0.529 203.774,0.529" style="fill:none;fill-rule:nonzero;stroke:rgb(255,255,153);stroke-width:11.27px;"/>
                    </g>
                </g>
            </g>
            <g transform="matrix(1.00149,-3.54862e-17,7.28493e-17,0.487845,-921.764,-5.51961)">
                <g id="icon-star">
                    <g>
                        <path d="M997.353,42.848C998.482,37.932 1002.86,34.447 1007.9,34.447C1012.95,34.447 1017.32,37.932 1018.45,42.848L1021.71,57.011L1036.18,55.729C1041.2,55.283 1045.87,58.368 1047.43,63.166C1048.99,67.963 1047.03,73.202 1042.7,75.795L1030.24,83.266L1035.93,96.636C1037.9,101.277 1036.41,106.668 1032.33,109.633C1028.25,112.598 1022.66,112.351 1018.86,109.038L1007.9,99.492L996.946,109.038C993.142,112.351 987.554,112.598 983.473,109.633C979.392,106.668 977.9,101.277 979.876,96.636L985.569,83.266L973.105,75.795C968.778,73.202 966.816,67.963 968.375,63.166C969.934,58.368 974.6,55.283 979.625,55.729L994.099,57.011L997.353,42.848Z" style="fill:rgb(242,184,0);"/>
                    </g>
                </g>
            </g>
        </g>
    </g>
</svg>
