<?xml version="1.0" encoding="UTF-8" standalone="no"?>
<!DOCTYPE svg PUBLIC "-//W3C//DTD SVG 1.1//EN" "http://www.w3.org/Graphics/SVG/1.1/DTD/svg11.dtd">
<svg width="100%" height="100%" viewBox="0 0 256 256" version="1.1" xmlns="http://www.w3.org/2000/svg" xmlns:xlink="http://www.w3.org/1999/xlink" xml:space="preserve" xmlns:serif="http://www.serif.com/" style="fill-rule:evenodd;clip-rule:evenodd;stroke-linecap:round;stroke-linejoin:round;stroke-miterlimit:1.5;">
    <g id="Coin-x3" serif:id="Coin x3" transform="matrix(1.18226,0,0,1.18226,28.344,21.5964)">
        <g>
            <g>
                <g>
                    <path d="M12.935,114.209C12.935,114.209 12.377,143.025 13.534,148.222C14.691,153.419 28.967,180 89.89,180C153.749,180 167.453,153.592 167.823,148.535C168.059,145.299 167.991,114.492 167.991,114.492L12.935,114.209Z" style="fill:rgb(242,184,0);fill-rule:nonzero;"/>
                    <g id="Ellipse" transform="matrix(1.00169,0,0,1,-0.0207045,0)">
                        <path d="M12.221,114.026C12.221,94.95 47.035,79.485 89.982,79.485C132.929,79.485 167.742,94.95 167.742,114.026C167.742,133.103 132.929,148.567 89.982,148.567C47.035,148.567 12.221,133.103 12.221,114.026Z" style="fill:rgb(255,214,6);fill-rule:nonzero;"/>
                    </g>
                    <g>
                        <path d="M108.567,121.593C111.919,121.168 114.533,120.666 116.478,120.096C118.422,119.527 119.729,118.909 120.467,118.242C121.204,117.576 121.573,116.929 121.573,116.302C121.573,115.008 120.467,113.946 118.254,113.125C116.042,112.314 113.293,111.648 109.941,111.136C106.589,110.634 102.935,110.238 99.046,109.949C95.124,109.659 91.504,109.388 88.152,109.128C84.799,108.867 82.017,108.567 79.804,108.24C77.592,107.911 76.519,107.457 76.519,106.878C76.519,105.739 81.681,105.169 92.006,105.169C98.61,105.169 106.521,105.787 115.774,107.022L117.283,102.697C115.204,102.291 112.153,101.905 108.13,101.538C104.108,101.171 99.951,100.94 95.728,100.843L97.973,96.517L82.956,96.517L85.201,100.843C80.675,100.978 76.787,101.23 73.535,101.606C70.284,101.992 67.603,102.465 65.49,103.035C63.344,103.605 61.803,104.242 60.83,104.947C59.825,105.652 59.356,106.366 59.356,107.09C59.356,108.191 60.462,109.089 62.708,109.784C64.954,110.489 67.736,111.069 71.089,111.523C74.407,111.986 77.994,112.372 81.883,112.681C85.738,112.99 89.325,113.299 92.677,113.608C95.995,113.917 98.778,114.265 101.024,114.651C103.269,115.037 104.41,115.549 104.41,116.186C104.41,117.499 99.649,118.146 90.162,118.146C78.865,118.146 70.117,117.325 63.881,115.674L61.501,120.618C66.529,121.67 74.44,122.288 85.201,122.472L82.956,126.798L97.973,126.798L95.728,122.433C100.956,122.308 105.214,122.028 108.567,121.593Z" style="fill:rgb(242,184,0);fill-rule:nonzero;"/>
                    </g>
                </g>
                <g>
                    <path d="M0.715,75.412C0.715,75.412 0.155,104.229 1.312,109.426C2.469,114.623 16.746,141.203 77.669,141.203C141.528,141.203 155.231,114.795 155.602,109.739C155.838,106.502 155.77,75.696 155.77,75.696L0.715,75.412Z" style="fill:rgb(242,184,0);fill-rule:nonzero;"/>
                    <g id="Ellipse2" transform="matrix(0.995641,0,0,1,0.677955,0)">
                        <path d="M0,75.23C0,56.154 34.814,40.689 77.761,40.689C120.707,40.689 155.521,56.154 155.521,75.23C155.521,94.307 120.707,109.771 77.761,109.771C34.814,109.771 0,94.307 0,75.23Z" style="fill:rgb(255,214,6);fill-rule:nonzero;"/>
                    </g>
                    <g>
                        <path d="M96.346,82.797C99.698,82.372 102.312,81.87 104.256,81.3C106.2,80.731 107.508,80.113 108.245,79.446C108.983,78.78 109.353,78.133 109.353,77.505C109.353,76.211 108.245,75.15 106.032,74.329C103.821,73.518 101.072,72.851 97.72,72.34C94.367,71.838 90.714,71.442 86.825,71.153C82.903,70.863 79.282,70.592 75.931,70.331C72.578,70.071 69.796,69.771 67.583,69.443C65.371,69.115 64.298,68.661 64.298,68.082C64.298,66.942 69.46,66.372 79.785,66.372C86.389,66.372 94.3,66.991 103.553,68.227L105.061,63.901C102.983,63.495 99.932,63.109 95.909,62.742C91.887,62.375 87.729,62.143 83.506,62.047L85.752,57.721L70.734,57.721L72.98,62.047C68.454,62.182 64.566,62.433 61.314,62.81C58.063,63.196 55.381,63.669 53.269,64.239C51.124,64.808 49.581,65.446 48.61,66.151C47.603,66.856 47.134,67.57 47.134,68.294C47.134,69.394 48.24,70.293 50.487,70.988C52.733,71.693 55.515,72.272 58.868,72.726C62.186,73.19 65.772,73.576 69.661,73.884C73.516,74.194 77.104,74.503 80.456,74.812C83.774,75.121 86.557,75.468 88.803,75.854C91.049,76.241 92.189,76.752 92.189,77.39C92.189,78.703 87.428,79.35 77.941,79.35C66.644,79.35 57.896,78.529 51.66,76.878L49.279,81.821C54.308,82.874 62.219,83.492 72.98,83.676L70.734,88.001L85.752,88.001L83.506,83.637C88.735,83.512 92.993,83.232 96.346,82.797Z" style="fill:rgb(242,184,0);fill-rule:nonzero;"/>
                    </g>
                </g>
                <g>
                    <path d="M12.935,34.724C12.935,34.724 12.377,63.54 13.534,68.737C14.691,73.934 28.967,100.515 89.89,100.515C153.749,100.515 167.453,74.107 167.823,69.05C168.059,65.813 167.991,35.007 167.991,35.007L12.935,34.724Z" style="fill:rgb(242,184,0);fill-rule:nonzero;"/>
                    <g id="Ellipse3" transform="matrix(0.997155,0,0,1,0.722392,0)">
                        <path d="M12.221,34.541C12.221,15.464 47.035,0 89.982,0C132.929,0 167.742,15.464 167.742,34.541C167.742,53.618 132.929,69.082 89.982,69.082C47.035,69.082 12.221,53.618 12.221,34.541Z" style="fill:rgb(255,240,85);fill-rule:nonzero;"/>
                    </g>
                    <g id="Ellipse21" serif:id="Ellipse2" transform="matrix(0.225107,0,0,0.225685,29.0665,8.36763)">
                        <path d="M0.149,90.667C0.149,40.886 91.314,0.529 203.774,0.529" style="fill:none;fill-rule:nonzero;stroke:rgb(255,255,153);stroke-width:15.01px;"/>
                    </g>
                </g>
            </g>
            <g transform="matrix(0.956383,-3.38878e-17,6.9568e-17,0.465871,-873.959,-4.13226)">
                <path d="M997.353,42.848C998.482,37.932 1002.86,34.447 1007.9,34.447C1012.95,34.447 1017.32,37.932 1018.45,42.848L1021.71,57.011L1036.18,55.729C1041.2,55.283 1045.87,58.368 1047.43,63.166C1048.99,67.963 1047.03,73.202 1042.7,75.795L1030.24,83.266L1035.93,96.636C1037.9,101.277 1036.41,106.668 1032.33,109.633C1028.25,112.598 1022.66,112.351 1018.86,109.038L1007.9,99.492L996.946,109.038C993.142,112.351 987.554,112.598 983.473,109.633C979.392,106.668 977.9,101.277 979.876,96.636L985.569,83.266L973.105,75.795C968.778,73.202 966.816,67.963 968.375,63.166C969.934,58.368 974.6,55.283 979.625,55.729L994.099,57.011L997.353,42.848Z" style="fill:rgb(242,184,0);"/>
            </g>
        </g>
    </g>
</svg>
