<?xml version="1.0" encoding="UTF-8" standalone="no"?>
<!DOCTYPE svg PUBLIC "-//W3C//DTD SVG 1.1//EN" "http://www.w3.org/Graphics/SVG/1.1/DTD/svg11.dtd">
<svg width="100%" height="100%" viewBox="0 0 256 256" version="1.1" xmlns="http://www.w3.org/2000/svg" xmlns:xlink="http://www.w3.org/1999/xlink" xml:space="preserve" xmlns:serif="http://www.serif.com/" style="fill-rule:evenodd;clip-rule:evenodd;stroke-linecap:round;stroke-linejoin:round;stroke-miterlimit:1.5;">
    <g id="Coin-x1" serif:id="Coin x1" transform="matrix(1.21867,0,0,1.21867,25.2511,62.1919)">
        <g id="_-Layer-" serif:id="(Layer)">
            <g>
                <path d="M0.77,37.31C0.77,37.31 0.168,68.272 1.415,73.856C2.663,79.44 18.06,108 83.762,108C152.632,108 167.41,79.625 167.809,74.192C168.064,70.715 167.99,37.614 167.99,37.614L0.77,37.31Z" style="fill:rgb(242,184,0);fill-rule:nonzero;"/>
                <g id="Ellipse" transform="matrix(0.997102,0,0,1,0.764222,-7.10543e-15)">
                    <path d="M0,37.113C0,16.617 37.545,0 83.861,0C130.177,0 167.722,16.617 167.722,37.113C167.722,57.611 130.177,74.227 83.861,74.227C37.545,74.227 0,57.611 0,37.113Z" style="fill:rgb(255,240,85);fill-rule:nonzero;"/>
                </g>
                <g id="Ellipse2" transform="matrix(0.266814,0,0,0.2675,17.6351,7.08704)">
                    <path d="M0.149,90.667C0.149,40.886 91.314,0.529 203.774,0.529" style="fill:none;fill-rule:nonzero;stroke:rgb(255,255,153);stroke-width:15.36px;"/>
                </g>
                <g transform="matrix(1.08443,-3.84249e-17,7.88821e-17,0.528245,-1009.14,-4.76051)">
                    <path d="M997.353,42.848C998.482,37.932 1002.86,34.447 1007.9,34.447C1012.95,34.447 1017.32,37.932 1018.45,42.848L1021.71,57.011L1036.18,55.729C1041.2,55.283 1045.87,58.368 1047.43,63.166C1048.99,67.963 1047.03,73.202 1042.7,75.795L1030.24,83.266L1035.93,96.636C1037.9,101.277 1036.41,106.668 1032.33,109.633C1028.25,112.598 1022.66,112.351 1018.86,109.038L1007.9,99.492L996.946,109.038C993.142,112.351 987.554,112.598 983.473,109.633C979.392,106.668 977.9,101.277 979.876,96.636L985.569,83.266L973.105,75.795C968.778,73.202 966.816,67.963 968.375,63.166C969.934,58.368 974.6,55.283 979.625,55.729L994.099,57.011L997.353,42.848Z" style="fill:rgb(242,184,0);"/>
                </g>
            </g>
        </g>
    </g>
</svg>
