<?xml version="1.0" encoding="UTF-8" standalone="no"?>
<!DOCTYPE svg PUBLIC "-//W3C//DTD SVG 1.1//EN" "http://www.w3.org/Graphics/SVG/1.1/DTD/svg11.dtd">
<svg width="100%" height="100%" viewBox="0 0 256 256" version="1.1" xmlns="http://www.w3.org/2000/svg" xmlns:xlink="http://www.w3.org/1999/xlink" xml:space="preserve" xmlns:serif="http://www.serif.com/" style="fill-rule:evenodd;clip-rule:evenodd;stroke-linecap:round;stroke-linejoin:round;stroke-miterlimit:1.5;">
    <g id="Coin-x7-Bag" serif:id="Coin x7 Bag" transform="matrix(0.713776,0,0,0.713776,28.7852,3.80299)">
        <g>
            <g>
                <path id="Ellipse" d="M44.823,175.513C57.967,114.935 117.314,76.125 177.38,88.827C237.446,101.528 275.483,160.932 262.339,221.51C249.196,282.089 189.849,320.899 129.782,308.198C69.716,295.496 31.679,236.092 44.823,175.513Z" style="fill:rgb(241,243,245);fill-rule:nonzero;"/>
                <clipPath id="_clip1">
                    <path id="Ellipse1" serif:id="Ellipse" d="M44.823,175.513C57.967,114.935 117.314,76.125 177.38,88.827C237.446,101.528 275.483,160.932 262.339,221.51C249.196,282.089 189.849,320.899 129.782,308.198C69.716,295.496 31.679,236.092 44.823,175.513Z" clip-rule="nonzero"/>
                </clipPath>
                <g clip-path="url(#_clip1)">
                    <g transform="matrix(1.401,0,0,0.853001,-43.188,50.663)">
                        <path d="M136.824,85.44C160.383,85.44 179.511,100.864 179.511,119.861C179.511,138.859 182.318,188.537 179.511,193.123C172.543,204.504 141.691,232.598 124.898,232.598C101.339,232.598 94.137,138.859 94.137,119.861C94.137,100.864 113.264,85.44 136.824,85.44Z" style="fill:rgb(222,226,230);"/>
                    </g>
                    <g transform="matrix(1.6777,0.425448,-0.325404,1.28319,-25.1928,-35.4036)">
                        <ellipse cx="186.662" cy="149.868" rx="39.479" ry="34.004" style="fill:rgb(222,226,230);"/>
                    </g>
                </g>
                <g>
                    <path d="M160.52,3.707C160.52,3.707 149.594,42.694 156.087,43.669C162.58,44.645 188.03,6.575 188.03,6.575L160.52,3.707Z" style="fill:rgb(206,212,218);fill-rule:nonzero;"/>
                    <path d="M137.954,82.588C137.954,82.588 112.601,22.065 117.979,8.245C120.802,0.99 138.215,-0.77 162.43,0.278C165.385,0.406 153.515,43.782 156.534,43.992C158.8,44.15 185.296,2.446 187.57,2.646C204.756,4.161 216.22,5.385 228.266,8.41C261.448,16.743 279.674,36.234 277.879,48.373C276.082,60.512 216.932,100.124 216.932,100.124L137.954,82.588Z" style="fill:rgb(241,243,245);fill-rule:nonzero;"/>
                </g>
                <g transform="matrix(1.05852,0.23897,-0.137829,0.610517,5.15656,-5.32981)">
                    <path d="M224.949,91.396C224.949,82.649 220.854,75.548 215.809,75.548L140.194,75.548C135.15,75.548 131.054,82.649 131.054,91.396C131.054,100.142 135.15,107.243 140.194,107.243L215.809,107.243C220.854,107.243 224.949,100.142 224.949,91.396Z" style="fill:rgb(193,115,89);"/>
                    <clipPath id="_clip2">
                        <path d="M224.949,91.396C224.949,82.649 220.854,75.548 215.809,75.548L140.194,75.548C135.15,75.548 131.054,82.649 131.054,91.396C131.054,100.142 135.15,107.243 140.194,107.243L215.809,107.243C220.854,107.243 224.949,100.142 224.949,91.396Z"/>
                    </clipPath>
                    <g clip-path="url(#_clip2)">
                        <g transform="matrix(0.848033,0.625232,-0.575631,2.34705,85.8202,-122.331)">
                            <g transform="matrix(1.401,0,0,1.401,-66.7502,0.349854)">
                                <rect x="87.961" y="23.834" width="7.566" height="25.849" style="fill:rgb(219,139,109);"/>
                            </g>
                            <g transform="matrix(1.401,0,0,1.401,-44.0525,0.349854)">
                                <rect x="87.961" y="23.834" width="7.566" height="25.849" style="fill:rgb(219,139,109);"/>
                            </g>
                            <g transform="matrix(1.401,0,0,1.401,-21.3548,0.349854)">
                                <rect x="87.961" y="23.834" width="7.566" height="25.849" style="fill:rgb(219,139,109);"/>
                            </g>
                            <g transform="matrix(1.401,0,0,1.401,1.34291,0.349854)">
                                <rect x="87.961" y="23.834" width="7.566" height="25.849" style="fill:rgb(219,139,109);"/>
                            </g>
                            <g transform="matrix(1.401,0,0,1.401,24.0406,0.349854)">
                                <rect x="87.961" y="23.834" width="7.566" height="25.849" style="fill:rgb(219,139,109);"/>
                            </g>
                            <g transform="matrix(1.401,0,0,1.401,46.7383,0.349854)">
                                <rect x="87.961" y="23.834" width="7.566" height="25.849" style="fill:rgb(219,139,109);"/>
                            </g>
                            <g transform="matrix(1.401,0,0,1.401,69.436,0.349854)">
                                <rect x="87.961" y="23.834" width="7.566" height="25.849" style="fill:rgb(219,139,109);"/>
                            </g>
                            <g transform="matrix(1.401,0,0,1.401,92.1337,0.349854)">
                                <rect x="87.961" y="23.834" width="7.566" height="25.849" style="fill:rgb(219,139,109);"/>
                            </g>
                        </g>
                    </g>
                </g>
                <g transform="matrix(0.367678,0,0,0.367678,59.2709,0.983817)">
                    <g transform="matrix(3.8104,0,0,3.8104,-147.062,-20.3551)">
                        <path d="M160.623,82.899C172.298,84.284 181.851,89.847 190.289,97.604C192.219,99.378 195.226,99.251 197.001,97.321C198.775,95.391 198.648,92.384 196.718,90.61C186.792,81.485 175.477,75.095 161.743,73.466C159.139,73.157 156.775,75.02 156.466,77.623C156.157,80.226 158.02,82.591 160.623,82.899Z" style="fill:rgb(193,115,89);"/>
                    </g>
                    <g transform="matrix(3.8104,0,0,3.8104,-137.312,-20.6975)">
                        <path d="M151.593,83.954C165.255,93.362 174.824,107.406 180.397,126.04C181.148,128.552 183.797,129.981 186.308,129.23C188.82,128.479 190.249,125.83 189.498,123.318C183.237,102.379 172.333,86.702 156.982,76.13C154.822,74.643 151.862,75.188 150.375,77.348C148.888,79.507 149.434,82.467 151.593,83.954Z" style="fill:rgb(193,115,89);"/>
                    </g>
                </g>
            </g>
            <g>
                <g>
                    <g>
                        <path d="M5.866,240.2C5.866,240.2 5.282,270.18 6.493,275.587C7.704,280.995 22.651,308.649 86.435,308.649C153.294,308.649 167.641,281.175 168.028,275.913C168.275,272.546 168.205,240.494 168.205,240.494L5.866,240.2Z" style="fill:rgb(242,184,0);fill-rule:nonzero;"/>
                        <g id="Ellipse2" transform="matrix(0.995701,0,0,1,0.721949,9.76996e-15)">
                            <path d="M5.118,240.01C5.118,220.163 41.567,204.073 86.531,204.073C131.494,204.073 167.943,220.163 167.943,240.01C167.943,259.858 131.494,275.946 86.531,275.946C41.567,275.946 5.118,259.858 5.118,240.01Z" style="fill:rgb(255,212,59);fill-rule:nonzero;"/>
                        </g>
                        <g>
                            <path d="M105.989,247.882C109.499,247.44 112.236,246.918 114.271,246.325C116.307,245.733 117.676,245.089 118.448,244.397C119.22,243.703 119.606,243.03 119.606,242.377C119.606,241.031 118.448,239.927 116.131,239.072C113.815,238.229 110.938,237.535 107.427,237.003C103.918,236.481 100.093,236.068 96.021,235.767C91.915,235.466 88.124,235.184 84.614,234.914C81.104,234.642 78.191,234.331 75.876,233.989C73.559,233.647 72.435,233.176 72.435,232.572C72.435,231.387 77.841,230.794 88.65,230.794C95.565,230.794 103.848,231.438 113.534,232.723L115.114,228.223C112.938,227.801 109.744,227.399 105.533,227.017C101.321,226.636 96.969,226.394 92.546,226.294L94.898,221.793L79.175,221.793L81.526,226.294C76.788,226.435 72.716,226.696 69.312,227.087C65.908,227.489 63.101,227.981 60.889,228.574C58.643,229.167 57.029,229.83 56.01,230.564C54.958,231.297 54.466,232.04 54.466,232.794C54.466,233.939 55.624,234.873 57.976,235.597C60.327,236.33 63.241,236.933 66.75,237.405C70.225,237.887 73.981,238.289 78.051,238.61C82.088,238.932 85.843,239.253 89.353,239.575C92.827,239.896 95.741,240.258 98.092,240.66C100.443,241.061 101.636,241.594 101.636,242.257C101.636,243.623 96.652,244.296 86.72,244.296C74.893,244.296 65.733,243.442 59.204,241.724L56.713,246.868C61.977,247.962 70.26,248.606 81.526,248.797L79.175,253.297L94.898,253.297L92.546,248.756C98.022,248.626 102.48,248.334 105.989,247.882Z" style="fill:rgb(242,184,0);fill-rule:nonzero;"/>
                        </g>
                    </g>
                    <g>
                        <path d="M8.425,199.836C8.425,199.836 7.84,229.816 9.052,235.223C10.263,240.631 25.21,268.285 88.994,268.285C155.853,268.285 170.2,240.81 170.587,235.549C170.834,232.182 170.763,200.13 170.763,200.13L8.425,199.836Z" style="fill:rgb(242,184,0);fill-rule:nonzero;"/>
                        <g id="Ellipse3" transform="matrix(0.998804,0,0,1,0.20398,9.76996e-15)">
                            <path d="M7.677,199.646C7.677,179.799 44.126,163.708 89.09,163.708C134.053,163.708 170.503,179.799 170.503,199.646C170.503,219.493 134.053,235.583 89.09,235.583C44.126,235.583 7.677,219.493 7.677,199.646Z" style="fill:rgb(255,212,59);fill-rule:nonzero;"/>
                        </g>
                        <g>
                            <path d="M108.548,207.518C112.058,207.076 114.795,206.554 116.83,205.961C118.866,205.368 120.235,204.726 121.007,204.032C121.779,203.339 122.165,202.666 122.165,202.014C122.165,200.667 121.007,199.562 118.69,198.708C116.374,197.864 113.496,197.171 109.987,196.639C106.477,196.117 102.651,195.705 98.58,195.403C94.474,195.101 90.684,194.821 87.173,194.549C83.664,194.278 80.751,193.966 78.434,193.625C76.118,193.284 74.995,192.811 74.995,192.208C74.995,191.023 80.4,190.43 91.21,190.43C98.124,190.43 106.407,191.073 116.093,192.359L117.673,187.859C115.497,187.437 112.303,187.035 108.092,186.653C103.88,186.271 99.528,186.03 95.106,185.93L97.457,181.43L81.734,181.43L84.085,185.93C79.347,186.071 75.275,186.332 71.871,186.724C68.467,187.125 65.659,187.618 63.448,188.21C61.202,188.803 59.588,189.466 58.569,190.199C57.517,190.933 57.025,191.676 57.025,192.429C57.025,193.574 58.183,194.509 60.535,195.233C62.886,195.965 65.8,196.568 69.31,197.041C72.784,197.523 76.539,197.925 80.611,198.246C84.647,198.568 88.402,198.889 91.912,199.211C95.386,199.532 98.3,199.894 100.651,200.295C103.002,200.697 104.195,201.23 104.195,201.892C104.195,203.259 99.211,203.932 89.279,203.932C77.452,203.932 68.292,203.078 61.763,201.36L59.272,206.504C64.536,207.598 72.818,208.242 84.085,208.433L81.734,212.933L97.457,212.933L95.106,208.392C100.581,208.262 105.038,207.97 108.548,207.518Z" style="fill:rgb(242,184,0);fill-rule:nonzero;"/>
                        </g>
                    </g>
                    <g>
                        <path d="M0.748,157.503C0.748,157.503 0.164,187.483 1.374,192.89C2.586,198.297 17.533,225.952 81.317,225.952C148.176,225.952 162.523,198.477 162.91,193.215C163.157,189.848 163.087,157.797 163.087,157.797L0.748,157.503Z" style="fill:rgb(242,184,0);fill-rule:nonzero;"/>
                        <path id="Ellipse4" d="M0,157.312C0,137.465 36.449,121.375 81.413,121.375C126.376,121.375 162.825,137.465 162.825,157.312C162.825,177.16 126.376,193.249 81.413,193.249C36.449,193.249 0,177.16 0,157.312Z" style="fill:rgb(255,212,59);fill-rule:nonzero;"/>
                        <g>
                            <path d="M100.87,165.185C104.38,164.743 107.118,164.22 109.153,163.629C111.189,163.036 112.558,162.393 113.33,161.699C114.102,161.006 114.489,160.333 114.489,159.68C114.489,158.334 113.33,157.23 111.014,156.375C108.697,155.531 105.819,154.838 102.31,154.306C98.8,153.783 94.975,153.371 90.903,153.07C86.796,152.769 83.007,152.487 79.496,152.216C75.987,151.945 73.074,151.633 70.757,151.292C68.441,150.95 67.318,150.478 67.318,149.875C67.318,148.69 72.723,148.097 83.533,148.097C90.447,148.097 98.729,148.74 108.417,150.026L109.996,145.526C107.82,145.104 104.626,144.702 100.415,144.321C96.203,143.939 91.851,143.697 87.429,143.597L89.78,139.097L74.057,139.097L76.408,143.597C71.67,143.738 67.598,143.999 64.194,144.391C60.79,144.792 57.982,145.284 55.771,145.877C53.525,146.47 51.911,147.133 50.892,147.867C49.839,148.6 49.348,149.343 49.348,150.096C49.348,151.242 50.506,152.176 52.858,152.9C55.21,153.633 58.123,154.235 61.632,154.708C65.107,155.19 68.863,155.591 72.933,155.913C76.969,156.234 80.725,156.556 84.235,156.878C87.709,157.199 90.622,157.561 92.974,157.963C95.325,158.364 96.519,158.897 96.519,159.56C96.519,160.926 91.534,161.599 81.602,161.599C69.775,161.599 60.615,160.745 54.087,159.028L51.595,164.171C56.859,165.266 65.141,165.909 76.408,166.099L74.057,170.6L89.78,170.6L87.429,166.059C92.904,165.929 97.361,165.637 100.87,165.185Z" style="fill:rgb(242,184,0);fill-rule:nonzero;"/>
                        </g>
                    </g>
                    <g>
                        <g transform="matrix(1,0,0,1,-0.303574,0)">
                            <path d="M8.425,116.154C8.425,116.154 7.84,146.134 9.052,151.542C10.263,156.949 25.21,184.604 88.994,184.604C155.853,184.604 170.2,157.129 170.587,151.867C170.834,148.5 170.763,116.449 170.763,116.449L8.425,116.154Z" style="fill:rgb(242,184,0);fill-rule:nonzero;"/>
                        </g>
                        <g id="Ellipse5" transform="matrix(0.997572,0,0,1,0.39146,-9.76996e-15)">
                            <path d="M7.677,115.964C7.677,96.117 44.126,80.027 89.09,80.027C134.053,80.027 170.503,96.117 170.503,115.964C170.503,135.812 134.053,151.901 89.09,151.901C44.126,151.901 7.677,135.812 7.677,115.964Z" style="fill:rgb(255,240,85);fill-rule:nonzero;"/>
                        </g>
                        <g id="Ellipse21" serif:id="Ellipse2" transform="matrix(0.26801,0,0,0.268698,21.7075,88.3217)">
                            <path d="M0.149,90.667C0.149,40.886 91.314,0.529 203.774,0.529" style="fill:none;fill-rule:nonzero;stroke:rgb(255,255,153);stroke-width:15.66px;"/>
                        </g>
                        <g transform="matrix(1.13438,-4.01949e-17,8.25158e-17,0.552578,-1054.26,72.082)">
                            <path d="M997.353,42.848C998.482,37.932 1002.86,34.447 1007.9,34.447C1012.95,34.447 1017.32,37.932 1018.45,42.848L1021.71,57.011L1036.18,55.729C1041.2,55.283 1045.87,58.368 1047.43,63.166C1048.99,67.963 1047.03,73.202 1042.7,75.795L1030.24,83.266L1035.93,96.636C1037.9,101.277 1036.41,106.668 1032.33,109.633C1028.25,112.598 1022.66,112.351 1018.86,109.038L1007.9,99.492L996.946,109.038C993.142,112.351 987.554,112.598 983.473,109.633C979.392,106.668 977.9,101.277 979.876,96.636L985.569,83.266L973.105,75.795C968.778,73.202 966.816,67.963 968.375,63.166C969.934,58.368 974.6,55.283 979.625,55.729L994.099,57.011L997.353,42.848Z" style="fill:rgb(242,184,0);"/>
                        </g>
                    </g>
                </g>
                <g>
                    <g>
                        <path d="M109.54,252.057C109.54,252.057 108.955,282.038 110.166,287.445C111.377,292.852 126.325,320.507 190.109,320.507C256.968,320.507 271.314,293.032 271.701,287.77C271.949,284.404 271.878,252.352 271.878,252.352L109.54,252.057Z" style="fill:rgb(242,184,0);fill-rule:nonzero;"/>
                        <g id="Ellipse6" transform="matrix(1.00161,0,0,1,-0.175356,9.76996e-15)">
                            <path d="M108.792,251.867C108.792,232.02 145.241,215.931 190.205,215.931C235.168,215.931 271.617,232.02 271.617,251.867C271.617,271.716 235.168,287.805 190.205,287.805C145.241,287.805 108.792,271.716 108.792,251.867Z" style="fill:rgb(255,212,59);fill-rule:nonzero;"/>
                        </g>
                        <g>
                            <path d="M209.662,259.74C213.172,259.298 215.909,258.776 217.945,258.183C219.98,257.59 221.349,256.948 222.122,256.254C222.893,255.561 223.28,254.888 223.28,254.235C223.28,252.889 222.122,251.784 219.805,250.93C217.489,250.086 214.611,249.393 211.101,248.861C207.591,248.338 203.766,247.926 199.695,247.625C195.588,247.324 191.798,247.042 188.288,246.771C184.779,246.5 181.866,246.188 179.549,245.847C177.233,245.505 176.11,245.033 176.11,244.431C176.11,243.245 181.514,242.653 192.324,242.653C199.239,242.653 207.521,243.295 217.208,244.581L218.787,240.081C216.611,239.659 213.418,239.257 209.206,238.875C204.994,238.493 200.642,238.252 196.22,238.152L198.571,233.651L182.848,233.651L185.199,238.152C180.461,238.292 176.39,238.554 172.986,238.945C169.582,239.347 166.774,239.839 164.562,240.432C162.317,241.025 160.702,241.688 159.684,242.421C158.631,243.155 158.14,243.898 158.14,244.652C158.14,245.796 159.298,246.731 161.65,247.454C164.002,248.187 166.914,248.79 170.424,249.263C173.898,249.745 177.654,250.147 181.725,250.468C185.761,250.789 189.517,251.111 193.026,251.432C196.501,251.754 199.414,252.115 201.765,252.517C204.117,252.919 205.31,253.452 205.31,254.115C205.31,255.481 200.326,256.154 190.394,256.154C178.567,256.154 169.406,255.3 162.878,253.582L160.387,258.726C165.65,259.82 173.933,260.463 185.199,260.654L182.848,265.155L198.571,265.155L196.22,260.614C201.695,260.483 206.153,260.192 209.662,259.74Z" style="fill:rgb(242,184,0);fill-rule:nonzero;"/>
                        </g>
                    </g>
                    <g>
                        <path d="M96.745,211.694C96.745,211.694 96.16,241.674 97.371,247.081C98.582,252.489 113.53,280.143 177.314,280.143C244.173,280.143 258.519,252.668 258.906,247.406C259.153,244.04 259.082,211.988 259.082,211.988L96.745,211.694Z" style="fill:rgb(242,184,0);fill-rule:nonzero;"/>
                        <g id="Ellipse7" transform="matrix(1,0,0,1,0.319728,-0.312644)">
                            <path d="M95.997,211.503C95.997,191.656 132.445,175.567 177.409,175.567C222.373,175.567 258.822,191.656 258.822,211.503C258.822,231.352 222.373,247.441 177.409,247.441C132.445,247.441 95.997,231.352 95.997,211.503Z" style="fill:rgb(255,240,85);fill-rule:nonzero;"/>
                        </g>
                        <g transform="matrix(1.13438,-4.01949e-17,8.25158e-17,0.552578,-965.938,168.766)">
                            <path d="M997.353,42.848C998.482,37.932 1002.86,34.447 1007.9,34.447C1012.95,34.447 1017.32,37.932 1018.45,42.848L1021.71,57.011L1036.18,55.729C1041.2,55.283 1045.87,58.368 1047.43,63.166C1048.99,67.963 1047.03,73.202 1042.7,75.795L1030.24,83.266L1035.93,96.636C1037.9,101.277 1036.41,106.668 1032.33,109.633C1028.25,112.598 1022.66,112.351 1018.86,109.038L1007.9,99.492L996.946,109.038C993.142,112.351 987.554,112.598 983.473,109.633C979.392,106.668 977.9,101.277 979.876,96.636L985.569,83.266L973.105,75.795C968.778,73.202 966.816,67.963 968.375,63.166C969.934,58.368 974.6,55.283 979.625,55.729L994.099,57.011L997.353,42.848Z" style="fill:rgb(242,184,0);"/>
                        </g>
                        <g id="Ellipse22" serif:id="Ellipse2" transform="matrix(0.26801,0,0,0.268698,110.13,182.803)">
                            <path d="M0.149,90.667C0.149,40.886 91.314,0.529 203.774,0.529" style="fill:none;fill-rule:nonzero;stroke:rgb(255,255,153);stroke-width:15.66px;"/>
                        </g>
                    </g>
                </g>
                <g>
                    <path id="Ellipse8" d="M14.5,287.393C7.517,250.627 38.437,210.347 74.954,203.184C111.471,196.021 148.707,229.93 157.559,267.303C166.182,303.708 139.553,339.771 103.036,346.934C66.52,354.097 21.483,324.159 14.5,287.393Z" style="fill:rgb(242,184,0);fill-rule:nonzero;"/>
                    <g>
                        <g>
                            <path id="Ellipse9" d="M11.431,280.218C4.449,243.452 28.39,207.841 64.907,200.679C101.423,193.516 136.686,217.513 143.669,254.28C150.651,291.046 126.71,326.656 90.194,333.819C53.676,340.982 18.415,316.984 11.431,280.218Z" style="fill:rgb(255,240,85);fill-rule:nonzero;"/>
                            <g transform="matrix(0.923786,9.16856e-17,9.04111e-17,0.923786,-853.536,196.266)">
                                <path d="M997.353,42.848C998.482,37.932 1002.86,34.447 1007.9,34.447C1012.95,34.447 1017.32,37.932 1018.45,42.848L1021.71,57.011L1036.18,55.729C1041.2,55.283 1045.87,58.368 1047.43,63.166C1048.99,67.963 1047.03,73.202 1042.7,75.795L1030.24,83.266L1035.93,96.636C1037.9,101.277 1036.41,106.668 1032.33,109.633C1028.25,112.598 1022.66,112.351 1018.86,109.038L1007.9,99.492L996.946,109.038C993.142,112.351 987.554,112.598 983.473,109.633C979.392,106.668 977.9,101.277 979.876,96.636L985.569,83.266L973.105,75.795C968.778,73.202 966.816,67.963 968.375,63.166C969.934,58.368 974.6,55.283 979.625,55.729L994.099,57.011L997.353,42.848Z" style="fill:rgb(242,184,0);"/>
                            </g>
                            <g id="Ellipse91" serif:id="Ellipse9" transform="matrix(0.831548,0,0,0.831548,13.0635,45.0187)">
                                <path d="M11.431,280.218C4.449,243.452 28.39,207.841 64.907,200.679" style="fill:none;fill-rule:nonzero;stroke:rgb(255,255,153);stroke-width:5.05px;"/>
                            </g>
                        </g>
                    </g>
                </g>
            </g>
        </g>
    </g>
</svg>
