<?xml version="1.0" encoding="UTF-8" standalone="no"?>
<!DOCTYPE svg PUBLIC "-//W3C//DTD SVG 1.1//EN" "http://www.w3.org/Graphics/SVG/1.1/DTD/svg11.dtd">
<svg width="100%" height="100%" viewBox="0 0 256 256" version="1.1" xmlns="http://www.w3.org/2000/svg" xmlns:xlink="http://www.w3.org/1999/xlink" xml:space="preserve" xmlns:serif="http://www.serif.com/" style="fill-rule:evenodd;clip-rule:evenodd;stroke-linecap:round;stroke-linejoin:round;stroke-miterlimit:1.5;">
    <g id="Coin-Chest-ed" serif:id="Coin Chest ed" transform="matrix(0.723389,0,0,0.723389,-17.2215,14.4098)">
        <g>
            <g id="Chest" transform="matrix(2.30663,0,0,4.53297,-19583.4,-2803.71)">
                <g transform="matrix(0.72699,0.109869,-0.199509,0.333825,-1094.64,-2500.39)">
                    <path d="M14609.3,4542.34C14609.3,4538.07 14606.2,4534.6 14602.3,4534.6L14585.3,4534.6C14581.5,4534.6 14578.3,4538.07 14578.3,4542.34L14578.3,4550.08C14578.3,4558.62 14584.6,4565.56 14592.3,4565.56L14595.3,4565.56C14603,4565.56 14609.3,4558.62 14609.3,4550.08L14609.3,4542.34Z" style="fill:rgb(250,176,5);"/>
                </g>
                <g transform="matrix(0.621889,0.0970035,-0.109941,0.182504,8498.81,596.781)">
                    <path d="M193.349,20.27C193.349,18.181 192.37,16.485 191.165,16.485L170.877,16.485C169.673,16.485 168.694,18.181 168.694,20.27C168.694,22.36 169.673,24.056 170.877,24.056L191.165,24.056C192.37,24.056 193.349,22.36 193.349,20.27Z" style="fill:rgb(255,212,59);"/>
                </g>
                <g id="Chest1" serif:id="Chest" transform="matrix(0.721113,0,0,0.366942,-1976.09,-1004.15)">
                    <path d="M14725.7,4443.08C14730.6,4444.52 14734.1,4448.64 14734.7,4453.62C14735.6,4460.17 14736.7,4468.29 14736.7,4468.29C14739.6,4490.1 14728.7,4511.42 14709.3,4521.85L14709.3,4521.85C14709.3,4521.85 14709.2,4521.93 14709.2,4521.93C14709.2,4521.93 14702.2,4568.79 14699.8,4585.03C14699.3,4588.52 14697.3,4591.64 14694.4,4593.65C14685.5,4599.79 14665.9,4613.35 14656.6,4619.75C14653.4,4621.94 14649.4,4622.57 14645.7,4621.47C14627.3,4615.99 14570.8,4599.13 14550.1,4592.96C14545.3,4591.55 14541.9,4587.57 14541.1,4582.73C14539.1,4570.18 14535.3,4545.9 14533.3,4533.32C14532.6,4528.44 14534.7,4523.56 14538.8,4520.79C14554,4510.49 14589.8,4486.24 14589.8,4486.24C14589.8,4486.24 14603.5,4443.22 14610.4,4421.74C14612.5,4415.12 14619.5,4411.41 14626.2,4413.4C14650.5,4420.66 14705.3,4436.98 14725.7,4443.08Z" style="fill:none;"/>
                    <clipPath id="_clip1">
                        <path d="M14725.7,4443.08C14730.6,4444.52 14734.1,4448.64 14734.7,4453.62C14735.6,4460.17 14736.7,4468.29 14736.7,4468.29C14739.6,4490.1 14728.7,4511.42 14709.3,4521.85L14709.3,4521.85C14709.3,4521.85 14709.2,4521.93 14709.2,4521.93C14709.2,4521.93 14702.2,4568.79 14699.8,4585.03C14699.3,4588.52 14697.3,4591.64 14694.4,4593.65C14685.5,4599.79 14665.9,4613.35 14656.6,4619.75C14653.4,4621.94 14649.4,4622.57 14645.7,4621.47C14627.3,4615.99 14570.8,4599.13 14550.1,4592.96C14545.3,4591.55 14541.9,4587.57 14541.1,4582.73C14539.1,4570.18 14535.3,4545.9 14533.3,4533.32C14532.6,4528.44 14534.7,4523.56 14538.8,4520.79C14554,4510.49 14589.8,4486.24 14589.8,4486.24C14589.8,4486.24 14603.5,4443.22 14610.4,4421.74C14612.5,4415.12 14619.5,4411.41 14626.2,4413.4C14650.5,4420.66 14705.3,4436.98 14725.7,4443.08Z"/>
                    </clipPath>
                    <g clip-path="url(#_clip1)">
                        <g transform="matrix(1.18644,0.353646,9.55184e-19,1.06434,-2905.77,-5479.54)">
                            <path d="M14798.4,4510.22L14697.7,4516.49L14706.3,4575L14798.4,4575L14798.4,4510.22Z" style="fill:rgb(250,176,5);"/>
                        </g>
                        <g transform="matrix(1.18644,0.353646,-0.416053,1.30597,-944.59,-6686.35)">
                            <rect x="14697.7" y="4516.49" width="100.706" height="58.51" style="fill:rgb(255,211,58);"/>
                        </g>
                        <g transform="matrix(-0.188874,-0.237955,-0.416053,1.30597,19407.8,2068.39)">
                            <path d="M14798.4,4516.49C14798.4,4516.49 14780.3,4521.32 14759.4,4526.89C14722.2,4536.82 14737.8,4555.97 14798.4,4575C14798.4,4575 14798.4,4575 14798.4,4575L14798.4,4516.49Z" style="fill:rgb(180,88,57);"/>
                        </g>
                        <g transform="matrix(0.905734,0.269976,-0.27711,0.869835,2563.64,-3469.82)">
                            <path d="M14798.4,4520.99C14798.4,4519.8 14797.9,4518.66 14797.1,4517.81C14796.3,4516.97 14795.2,4516.49 14794,4516.49C14777.4,4516.49 14718.2,4516.49 14701.8,4516.49C14699.5,4516.49 14697.7,4518.42 14697.7,4520.82C14697.7,4531.6 14697.7,4559.55 14697.7,4570.5C14697.7,4571.69 14698.1,4572.83 14698.9,4573.68C14699.8,4574.52 14700.9,4575 14702,4575C14718.6,4575 14777.9,4575 14794.2,4575C14796.5,4575 14798.4,4573.07 14798.4,4570.67C14798.4,4559.89 14798.4,4531.94 14798.4,4520.99Z" style="fill:rgb(245,159,0);"/>
                        </g>
                        <g transform="matrix(-0.573335,0.395568,-4.61584e-19,1.06434,23136,-6099.91)">
                            <path d="M14798.4,4508.55L14697.7,4516.49L14715.7,4575L14798.4,4575L14798.4,4508.55Z" style="fill:rgb(209,121,43);"/>
                        </g>
                        <g transform="matrix(-0.368242,0.254066,-2.96467e-19,0.683607,20111.3,-2282.31)">
                            <path d="M14798.4,4519.58C14798.4,4517.65 14796.6,4516.49 14793.6,4516.49L14706.4,4516.49C14704.8,4516.49 14702.8,4517.2 14701.3,4518.31C14699.7,4519.42 14698.8,4520.71 14699.1,4521.6C14702.5,4533.76 14711,4564.04 14713.5,4572.67C14713.9,4574.15 14715.6,4575 14718.1,4575C14732,4575 14778.7,4575 14793.7,4575C14794.6,4575 14795.8,4574.6 14796.8,4573.96C14797.8,4573.32 14798.4,4572.54 14798.4,4571.95C14798.4,4561.87 14798.4,4529.72 14798.4,4519.58Z" style="fill:rgb(180,88,57);"/>
                        </g>
                        <g transform="matrix(0.982562,0.292876,0,0.693992,100.577,-2898.03)">
                            <path d="M14798.4,4520.82C14798.4,4518.25 14797.2,4516.49 14795.4,4516.49C14780.7,4516.49 14715.1,4516.49 14700.5,4516.49C14699.9,4516.49 14699.2,4516.98 14698.7,4517.79C14698.3,4518.6 14698,4519.61 14698.1,4520.48C14699.4,4531.35 14702.9,4561.36 14704.1,4571.56C14704.4,4573.66 14705.5,4575 14707,4575C14719.5,4575 14775.5,4575 14793.1,4575C14794.3,4575 14795.7,4574.1 14796.7,4572.56C14797.8,4571.03 14798.4,4569.05 14798.4,4567.21C14798.4,4554.73 14798.4,4530.64 14798.4,4520.82Z" style="fill:rgb(217,118,29);"/>
                        </g>
                        <g transform="matrix(1.18644,0.353646,0.986807,-0.668108,-7362.68,2345.05)">
                            <path d="M14798.4,4522.8C14798.4,4518.81 14796.1,4516.49 14792.3,4516.49C14770.5,4516.49 14697.7,4516.49 14697.7,4516.49L14697.7,4575L14798.4,4575L14798.4,4522.8Z" style="fill:rgb(255,212,59);"/>
                        </g>
                        <g transform="matrix(1.00214,0.298711,0.69032,-0.467374,-3296.83,2242.76)">
                            <path d="M14798.4,4525.51C14798.4,4519.8 14795.7,4516.49 14791.2,4516.49C14768.1,4516.49 14697.7,4516.49 14697.7,4516.49L14697.7,4575L14798.4,4575L14798.4,4525.51Z" style="fill:rgb(230,137,0);"/>
                        </g>
                    </g>
                </g>
                <g transform="matrix(0.721113,0.119702,0,0.366942,-1975.67,-2745.59)">
                    <path d="M14609.3,4542.34C14609.3,4538.07 14606.2,4534.6 14602.3,4534.6L14585.3,4534.6C14581.5,4534.6 14578.3,4538.07 14578.3,4542.34L14578.3,4550.08C14578.3,4558.62 14584.6,4565.56 14592.3,4565.56L14595.3,4565.56C14603,4565.56 14609.3,4558.62 14609.3,4550.08L14609.3,4542.34Z" style="fill:rgb(80,40,32);fill-opacity:0.16;"/>
                </g>
                <g>
                    <g transform="matrix(0.650451,0,0,0.330985,8489.63,611.998)">
                        <path d="M70.734,146.568C72.157,145.127 74.308,144.615 76.713,145.399L95.521,151.535C99.801,152.931 103.275,157.908 103.275,162.643L103.275,171.222C103.275,175.543 101.828,179.021 99.442,181.26L93.566,187.123L94.33,183.852C92.337,184.234 90.113,184.086 87.768,183.321L84.467,182.244C75.908,179.452 68.959,169.497 68.959,160.028L68.959,153.261L65.172,152.191L70.734,146.567L70.734,146.568Z" style="fill:rgb(255,212,59);"/>
                        <clipPath id="_clip2">
                            <path d="M70.734,146.568C72.157,145.127 74.308,144.615 76.713,145.399L95.521,151.535C99.801,152.931 103.275,157.908 103.275,162.643L103.275,171.222C103.275,175.543 101.828,179.021 99.442,181.26L93.566,187.123L94.33,183.852C92.337,184.234 90.113,184.086 87.768,183.321L84.467,182.244C75.908,179.452 68.959,169.497 68.959,160.028L68.959,153.261L65.172,152.191L70.734,146.567L70.734,146.568Z"/>
                        </clipPath>
                        <g clip-path="url(#_clip2)">
                            <g transform="matrix(0.251303,-0.280509,1.62677,0.497949,-184.197,102.165)">
                                <rect x="63.609" y="140.797" width="40.098" height="19.385" style="fill:rgb(255,224,102);"/>
                            </g>
                        </g>
                    </g>
                    <g transform="matrix(0.721113,0.119702,0,0.366942,-1981.95,-2747.77)">
                        <path d="M14609.3,4542.34C14609.3,4538.07 14606.2,4534.6 14602.3,4534.6L14585.3,4534.6C14581.5,4534.6 14578.3,4538.07 14578.3,4542.34L14578.3,4550.08C14578.3,4558.62 14584.6,4565.56 14592.3,4565.56L14595.3,4565.56C14603,4565.56 14609.3,4558.62 14609.3,4550.08L14609.3,4542.34Z" style="fill:rgb(245,159,0);"/>
                    </g>
                    <g transform="matrix(1,0,0,1,0.499343,3.41061e-13)">
                        <g transform="matrix(0.721113,0.109482,0,0.366942,-1977.77,-2601.42)">
                            <circle cx="14587.3" cy="4554.41" r="4.74" style="fill:rgb(173,89,0);"/>
                        </g>
                        <g transform="matrix(0.468397,0.0839672,0,0.366942,1708.22,-2229.43)">
                            <path d="M14591.7,4556.88C14591.7,4555.52 14590.2,4554.41 14588.3,4554.41C14586.4,4554.41 14584.9,4555.52 14584.9,4556.88L14584.9,4565.61C14584.9,4566.98 14586.4,4568.08 14588.3,4568.08C14590.2,4568.08 14591.7,4566.98 14591.7,4565.61L14591.7,4556.88Z" style="fill:rgb(173,89,0);"/>
                        </g>
                    </g>
                </g>
                <g transform="matrix(0.593254,0.0973832,4.05384e-13,0.272641,-115.825,-1988.02)">
                    <path d="M14566.6,4589.44C14566.6,4575.3 14558.4,4565.71 14546.2,4565.71C14541.6,4565.71 14537.4,4565.71 14535.3,4565.71C14534.9,4565.71 14534.6,4565.92 14534.3,4566.26C14534.1,4566.6 14533.9,4567.02 14534,4567.38C14534.6,4571.31 14536.1,4581.29 14537.1,4587.93C14537.7,4591.81 14540.3,4594.26 14543.9,4594.26C14552.2,4594.26 14566.6,4594.26 14566.6,4594.26C14566.6,4594.26 14566.6,4592.32 14566.6,4589.44Z" style="fill:rgb(255,224,102);"/>
                </g>
                <g transform="matrix(0.721113,0,0,0.366942,-1976.09,-1004.15)">
                    <path d="M14651.6,4601.91C14654.7,4599.77 14658.8,4599.54 14662.2,4601.32C14665.6,4603.11 14667.7,4606.61 14667.7,4610.43C14667.7,4611.57 14667.7,4612.27 14667.7,4612.27C14667.7,4612.27 14660.9,4616.85 14656.2,4620.09C14653.3,4622.07 14649.6,4622.64 14646.2,4621.64C14639.3,4619.6 14628.2,4616.3 14628.2,4616.3C14628.2,4616.3 14628.2,4616.3 14628.2,4616.3C14628.2,4611.28 14630.6,4606.55 14634.6,4603.55C14638.6,4600.54 14643.8,4599.61 14648.6,4601.04C14650.4,4601.57 14651.6,4601.91 14651.6,4601.91L14651.6,4601.91Z" style="fill:rgb(255,224,102);"/>
                    <clipPath id="_clip3">
                        <path d="M14651.6,4601.91C14654.7,4599.77 14658.8,4599.54 14662.2,4601.32C14665.6,4603.11 14667.7,4606.61 14667.7,4610.43C14667.7,4611.57 14667.7,4612.27 14667.7,4612.27C14667.7,4612.27 14660.9,4616.85 14656.2,4620.09C14653.3,4622.07 14649.6,4622.64 14646.2,4621.64C14639.3,4619.6 14628.2,4616.3 14628.2,4616.3C14628.2,4616.3 14628.2,4616.3 14628.2,4616.3C14628.2,4611.28 14630.6,4606.55 14634.6,4603.55C14638.6,4600.54 14643.8,4599.61 14648.6,4601.04C14650.4,4601.57 14651.6,4601.91 14651.6,4601.91L14651.6,4601.91Z"/>
                    </clipPath>
                    <g clip-path="url(#_clip3)">
                        <g transform="matrix(1,0,0,0.662623,4.54747e-13,1560.87)">
                            <rect x="14651.6" y="4583.71" width="24.538" height="42.773" style="fill:rgb(255,212,59);"/>
                        </g>
                    </g>
                </g>
                <g transform="matrix(-0.4065,0.140663,4.5106e-14,0.273819,14534.6,-2623.08)">
                    <path d="M14566.6,4589.44C14566.6,4574.6 14556.9,4565.71 14540.6,4565.71L14536,4565.71C14535.4,4565.71 14534.6,4566.09 14534,4566.66C14533.5,4567.24 14533.1,4567.93 14533.2,4568.4C14534.1,4573.08 14535.9,4582.81 14537.1,4588.91C14537.7,4592.31 14540.4,4594.26 14544.5,4594.26C14553,4594.26 14566.6,4594.26 14566.6,4594.26L14566.6,4589.44Z" style="fill:rgb(255,224,102);"/>
                </g>
            </g>
            <g transform="matrix(1,0,0,1,4.18954,-12.3287)">
                <g>
                    <path d="M147.268,170.378C147.268,170.378 147.005,183.289 147.549,185.618C148.094,187.947 154.811,199.857 183.476,199.857C213.523,199.857 219.97,188.024 220.145,185.758C220.255,184.308 220.224,170.505 220.224,170.505L147.268,170.378Z" style="fill:rgb(242,184,0);fill-rule:nonzero;"/>
                    <path id="Ellipse3" d="M146.931,170.296C146.931,161.748 163.312,154.819 183.518,154.819C203.726,154.819 220.107,161.748 220.107,170.296C220.107,178.844 203.726,185.773 183.518,185.773C163.312,185.773 146.931,178.844 146.931,170.296Z" style="fill:rgb(247,228,85);fill-rule:nonzero;"/>
                </g>
                <g>
                    <path d="M206.991,162.871C206.991,162.871 206.728,175.783 207.272,178.112C207.816,180.441 214.534,192.351 243.199,192.351C273.245,192.351 279.693,180.518 279.867,178.252C279.978,176.802 279.946,162.998 279.946,162.998L206.991,162.871Z" style="fill:rgb(245,159,0);fill-rule:nonzero;"/>
                    <path id="Ellipse4" d="M206.654,162.789C206.654,154.242 223.034,147.313 243.242,147.313C263.449,147.313 279.829,154.242 279.829,162.789C279.829,171.338 263.449,178.267 243.242,178.267C223.034,178.267 206.654,171.338 206.654,162.789Z" style="fill:rgb(240,140,0);fill-rule:nonzero;"/>
                </g>
                <g>
                    <path d="M143.536,144.105C143.536,144.105 143.273,157.017 143.817,159.346C144.361,161.675 151.078,173.585 179.743,173.585C209.79,173.585 216.237,161.752 216.411,159.486C216.522,158.036 216.491,144.232 216.491,144.232L143.536,144.105Z" style="fill:rgb(242,184,0);fill-rule:nonzero;"/>
                    <path id="Ellipse5" d="M143.199,144.024C143.199,135.476 159.579,128.547 179.786,128.547C199.993,128.547 216.374,135.476 216.374,144.024C216.374,152.572 199.993,159.501 179.786,159.501C159.579,159.501 143.199,152.572 143.199,144.024Z" style="fill:rgb(247,228,85);fill-rule:nonzero;"/>
                </g>
                <g>
                    <path d="M83.812,129.093C83.812,129.093 83.549,142.004 84.094,144.333C84.638,146.662 91.356,158.572 120.021,158.572C150.067,158.572 156.515,146.739 156.689,144.473C156.8,143.023 156.768,129.22 156.768,129.22L83.812,129.093Z" style="fill:rgb(242,184,0);fill-rule:nonzero;"/>
                    <path id="Ellipse6" d="M83.476,129.011C83.476,120.463 99.856,113.534 120.064,113.534C140.271,113.534 156.651,120.463 156.651,129.011C156.651,137.559 140.271,144.488 120.064,144.488C99.856,144.488 83.476,137.559 83.476,129.011Z" style="fill:rgb(247,228,85);fill-rule:nonzero;"/>
                </g>
                <g>
                    <path d="M173.397,166.625C173.397,166.625 173.134,179.536 173.678,181.865C174.222,184.194 180.94,196.104 209.604,196.104C239.652,196.104 246.099,184.271 246.273,182.005C246.384,180.555 246.352,166.751 246.352,166.751L173.397,166.625Z" style="fill:rgb(242,184,0);fill-rule:nonzero;"/>
                    <path id="Ellipse7" d="M173.06,166.542C173.06,157.995 189.441,151.066 209.648,151.066C229.854,151.066 246.235,157.995 246.235,166.542C246.235,175.091 229.854,182.02 209.648,182.02C189.441,182.02 173.06,175.091 173.06,166.542Z" style="fill:rgb(247,228,85);fill-rule:nonzero;"/>
                </g>
                <g>
                    <path d="M93.992,154.427C93.992,154.427 93.73,167.339 94.274,169.667C94.818,171.996 101.536,183.906 130.201,183.906C160.248,183.906 166.695,172.073 166.869,169.807C166.98,168.357 166.948,154.554 166.948,154.554L93.992,154.427Z" style="fill:rgb(242,184,0);fill-rule:nonzero;"/>
                    <path id="Ellipse8" d="M93.656,154.345C93.656,145.797 110.036,138.868 130.244,138.868C150.451,138.868 166.831,145.797 166.831,154.345C166.831,162.893 150.451,169.822 130.244,169.822C110.036,169.822 93.656,162.893 93.656,154.345Z" style="fill:rgb(247,228,85);fill-rule:nonzero;"/>
                </g>
                <g>
                    <g transform="matrix(1,0,0,1,10.0124,1.95315)">
                        <path d="M56.327,156.303C56.327,156.303 56.063,169.215 56.607,171.544C57.152,173.872 63.87,185.783 92.534,185.783C122.581,185.783 129.029,173.95 129.203,171.684C129.314,170.234 129.282,156.43 129.282,156.43L56.327,156.303Z" style="fill:rgb(245,159,0);fill-rule:nonzero;"/>
                    </g>
                    <g id="Ellipse9" transform="matrix(1,0,0,1,10.0124,1.95315)">
                        <path d="M55.99,156.221C55.99,147.673 72.371,140.744 92.578,140.744C112.784,140.744 129.165,147.673 129.165,156.221C129.165,164.769 112.784,171.699 92.578,171.699C72.371,171.699 55.99,164.769 55.99,156.221Z" style="fill:rgb(255,231,59);fill-rule:nonzero;"/>
                    </g>
                    <g id="Ellipse2" transform="matrix(0.130457,0,0,0.130793,71.5907,148.705)">
                        <path d="M0.149,90.667C0.149,40.886 91.314,0.529 203.774,0.529" style="fill:none;fill-rule:nonzero;stroke:rgb(255,255,153);stroke-width:31.75px;"/>
                    </g>
                </g>
                <g>
                    <path d="M125.55,184.452C125.55,184.452 125.287,197.364 125.832,199.693C126.376,202.021 133.094,213.932 161.759,213.932C191.805,213.932 198.253,202.099 198.426,199.833C198.538,198.383 198.506,184.579 198.506,184.579L125.55,184.452Z" style="fill:rgb(250,176,5);fill-rule:nonzero;"/>
                    <path id="Ellipse10" d="M125.214,184.37C125.214,175.822 141.595,168.893 161.802,168.893C182.009,168.893 198.389,175.822 198.389,184.37C198.389,192.918 182.009,199.848 161.802,199.848C141.595,199.848 125.214,192.918 125.214,184.37Z" style="fill:rgb(250,212,5);fill-rule:nonzero;"/>
                </g>
                <g>
                    <path d="M173.736,185.39C173.736,185.39 173.473,198.302 174.017,200.631C174.562,202.96 181.279,214.87 209.944,214.87C239.991,214.87 246.438,203.037 246.612,200.771C246.723,199.321 246.692,185.517 246.692,185.517L173.736,185.39Z" style="fill:rgb(245,159,0);fill-rule:nonzero;"/>
                    <path id="Ellipse11" d="M173.4,185.309C173.4,176.761 189.78,169.832 209.987,169.832C230.194,169.832 246.574,176.761 246.574,185.309C246.574,193.857 230.194,200.786 209.987,200.786C189.78,200.786 173.4,193.857 173.4,185.309Z" style="fill:rgb(240,140,0);fill-rule:nonzero;"/>
                </g>
                <g>
                    <path d="M136.41,155.365C136.41,155.365 136.146,168.277 136.691,170.606C137.235,172.934 143.952,184.844 172.618,184.844C202.664,184.844 209.111,173.012 209.286,170.745C209.397,169.296 209.365,155.492 209.365,155.492L136.41,155.365Z" style="fill:rgb(242,184,0);fill-rule:nonzero;"/>
                    <path id="Ellipse12" d="M136.073,155.283C136.073,146.735 152.453,139.806 172.66,139.806C192.867,139.806 209.248,146.735 209.248,155.283C209.248,163.831 192.867,170.76 172.66,170.76C152.453,170.76 136.073,163.831 136.073,155.283Z" style="fill:rgb(247,228,85);fill-rule:nonzero;"/>
                </g>
                <g>
                    <g>
                        <path d="M86.794,141.164C86.794,141.164 86.499,156.359 87.11,159.099C87.722,161.84 95.272,175.856 127.487,175.856C161.255,175.856 168.501,161.931 168.697,159.264C168.822,157.558 168.786,141.314 168.786,141.314L86.794,141.164Z" style="fill:rgb(242,184,0);fill-rule:nonzero;"/>
                        <path id="Ellipse17" d="M86.416,141.068C86.416,131.009 104.825,122.854 127.535,122.854C150.245,122.854 168.654,131.009 168.654,141.068C168.654,151.127 150.245,159.282 127.535,159.282C104.825,159.282 86.416,151.127 86.416,141.068Z" style="fill:rgb(247,228,85);fill-rule:nonzero;"/>
                    </g>
                    <g>
                        <path d="M80.331,120.707C80.331,120.707 80.036,135.902 80.648,138.642C81.259,141.383 88.809,155.399 121.025,155.399C154.793,155.399 162.039,141.474 162.235,138.807C162.359,137.101 162.324,120.857 162.324,120.857L80.331,120.707Z" style="fill:rgb(242,184,0);fill-rule:nonzero;"/>
                        <path id="Ellipse18" d="M79.953,120.611C79.953,110.552 98.363,102.397 121.073,102.397C143.782,102.397 162.192,110.552 162.192,120.611C162.192,130.67 143.782,138.825 121.073,138.825C98.363,138.825 79.953,130.67 79.953,120.611Z" style="fill:rgb(255,231,59);fill-rule:nonzero;"/>
                        <g transform="matrix(0.585574,-2.07488e-17,4.25951e-17,0.285243,-469.129,97.1491)">
                            <path d="M997.353,42.848C998.482,37.932 1002.86,34.447 1007.9,34.447C1012.95,34.447 1017.32,37.932 1018.45,42.848L1021.71,57.011L1036.18,55.729C1041.2,55.283 1045.87,58.368 1047.43,63.166C1048.99,67.963 1047.03,73.202 1042.7,75.795L1030.24,83.266L1035.93,96.636C1037.9,101.277 1036.41,106.668 1032.33,109.633C1028.25,112.598 1022.66,112.351 1018.86,109.038L1007.9,99.492L996.946,109.038C993.142,112.351 987.554,112.598 983.473,109.633C979.392,106.668 977.9,101.277 979.876,96.636L985.569,83.266L973.105,75.795C968.778,73.202 966.816,67.963 968.375,63.166C969.934,58.368 974.6,55.283 979.625,55.729L994.099,57.011L997.353,42.848Z" style="fill:rgb(255,210,0);"/>
                        </g>
                    </g>
                </g>
                <g>
                    <g>
                        <path d="M186.736,152.294C186.736,152.294 186.44,167.489 187.052,170.23C187.664,172.97 195.213,186.986 227.429,186.986C261.197,186.986 268.443,173.061 268.639,170.395C268.764,168.688 268.728,152.444 268.728,152.444L186.736,152.294Z" style="fill:rgb(250,176,5);fill-rule:nonzero;"/>
                        <path id="Ellipse19" d="M186.358,152.198C186.358,142.139 204.767,133.985 227.477,133.985C250.187,133.985 268.596,142.139 268.596,152.198C268.596,162.258 250.187,170.412 227.477,170.412C204.767,170.412 186.358,162.258 186.358,152.198Z" style="fill:rgb(252,196,25);fill-rule:nonzero;"/>
                    </g>
                    <g>
                        <path d="M180.273,131.837C180.273,131.837 179.978,147.032 180.59,149.772C181.201,152.513 188.751,166.529 220.966,166.529C254.735,166.529 261.981,152.604 262.176,149.937C262.301,148.231 262.266,131.987 262.266,131.987L180.273,131.837Z" style="fill:rgb(245,159,0);fill-rule:nonzero;"/>
                        <path id="Ellipse20" d="M179.895,131.741C179.895,121.682 198.305,113.527 221.015,113.527C243.725,113.527 262.134,121.682 262.134,131.741C262.134,141.8 243.725,149.955 221.015,149.955C198.305,149.955 179.895,141.8 179.895,131.741Z" style="fill:rgb(247,228,85);fill-rule:nonzero;"/>
                    </g>
                </g>
                <g>
                    <g>
                        <path d="M175.631,87.74C175.631,87.74 175.336,102.934 175.947,105.675C176.559,108.415 184.109,122.431 216.324,122.431C250.092,122.431 257.338,108.507 257.534,105.84C257.659,104.133 257.623,87.889 257.623,87.889L175.631,87.74Z" style="fill:rgb(242,184,0);fill-rule:nonzero;"/>
                        <path id="Ellipse21" d="M175.253,87.643C175.253,77.584 193.663,69.43 216.372,69.43C239.082,69.43 257.491,77.584 257.491,87.643C257.491,97.703 239.082,105.857 216.372,105.857C193.663,105.857 175.253,97.703 175.253,87.643Z" style="fill:rgb(247,228,85);fill-rule:nonzero;"/>
                        <g>
                            <path d="M226.2,91.634C227.972,91.409 229.355,91.145 230.384,90.844C231.412,90.544 232.103,90.218 232.493,89.867C232.883,89.515 233.078,89.174 233.078,88.844C233.078,88.161 232.493,87.601 231.323,87.168C230.153,86.741 228.699,86.389 226.926,86.12C225.154,85.855 223.222,85.646 221.166,85.493C219.092,85.341 217.177,85.198 215.405,85.061C213.632,84.923 212.161,84.765 210.991,84.592C209.821,84.419 209.253,84.18 209.253,83.874C209.253,83.273 211.984,82.973 217.443,82.973C220.935,82.973 225.118,83.299 230.011,83.951L230.809,81.67C229.71,81.456 228.097,81.252 225.97,81.059C223.842,80.865 221.644,80.743 219.411,80.692L220.598,78.411L212.657,78.411L213.844,80.692C211.451,80.763 209.395,80.896 207.676,81.094C205.956,81.298 204.538,81.548 203.422,81.848C202.287,82.148 201.472,82.484 200.958,82.856C200.426,83.228 200.178,83.604 200.178,83.986C200.178,84.567 200.762,85.04 201.95,85.407C203.138,85.778 204.609,86.084 206.382,86.323C208.136,86.568 210.034,86.771 212.09,86.934C214.129,87.097 216.025,87.26 217.798,87.423C219.552,87.586 221.024,87.769 222.212,87.973C223.399,88.176 224.002,88.446 224.002,88.782C224.002,89.475 221.485,89.816 216.468,89.816C210.494,89.816 205.868,89.383 202.571,88.512L201.312,91.119C203.971,91.674 208.155,92 213.844,92.097L212.657,94.378L220.598,94.378L219.411,92.076C222.176,92.01 224.428,91.863 226.2,91.634Z" style="fill:rgb(242,184,0);fill-rule:nonzero;"/>
                        </g>
                    </g>
                    <g>
                        <path d="M169.169,67.283C169.169,67.283 168.873,82.477 169.485,85.218C170.097,87.958 177.646,101.974 209.862,101.974C243.63,101.974 250.876,88.049 251.072,85.382C251.197,83.676 251.161,67.432 251.161,67.432L169.169,67.283Z" style="fill:rgb(242,163,0);fill-rule:nonzero;"/>
                        <path id="Ellipse22" d="M168.791,67.186C168.791,57.127 187.2,48.973 209.91,48.973C232.62,48.973 251.029,57.127 251.029,67.186C251.029,77.245 232.62,85.4 209.91,85.4C187.2,85.4 168.791,77.245 168.791,67.186Z" style="fill:rgb(255,231,59);fill-rule:nonzero;"/>
                        <g transform="matrix(0.585574,-2.07488e-17,4.25951e-17,0.285243,-380.291,43.1556)">
                            <path d="M997.353,42.848C998.482,37.932 1002.86,34.447 1007.9,34.447C1012.95,34.447 1017.32,37.932 1018.45,42.848L1021.71,57.011L1036.18,55.729C1041.2,55.283 1045.87,58.368 1047.43,63.166C1048.99,67.963 1047.03,73.202 1042.7,75.795L1030.24,83.266L1035.93,96.636C1037.9,101.277 1036.41,106.668 1032.33,109.633C1028.25,112.598 1022.66,112.351 1018.86,109.038L1007.9,99.492L996.946,109.038C993.142,112.351 987.554,112.598 983.473,109.633C979.392,106.668 977.9,101.277 979.876,96.636L985.569,83.266L973.105,75.795C968.778,73.202 966.816,67.963 968.375,63.166C969.934,58.368 974.6,55.283 979.625,55.729L994.099,57.011L997.353,42.848Z" style="fill:rgb(255,210,0);"/>
                        </g>
                    </g>
                </g>
                <g>
                    <g>
                        <path d="M211.166,125.582C211.166,125.582 210.871,140.777 211.482,143.517C212.094,146.258 219.644,160.274 251.859,160.274C285.628,160.274 292.873,146.349 293.069,143.682C293.194,141.976 293.158,125.731 293.158,125.731L211.166,125.582Z" style="fill:rgb(250,176,5);fill-rule:nonzero;"/>
                        <path id="Ellipse23" d="M210.788,125.486C210.788,115.427 229.197,107.272 251.907,107.272C274.617,107.272 293.026,115.427 293.026,125.486C293.026,135.545 274.617,143.7 251.907,143.7C229.197,143.7 210.788,135.545 210.788,125.486Z" style="fill:rgb(255,201,0);fill-rule:nonzero;"/>
                    </g>
                    <g>
                        <path d="M204.704,105.125C204.704,105.125 204.408,120.32 205.02,123.06C205.631,125.801 213.182,139.816 245.397,139.816C279.165,139.816 286.411,125.891 286.606,123.225C286.731,121.519 286.696,105.274 286.696,105.274L204.704,105.125Z" style="fill:rgb(242,184,0);fill-rule:nonzero;"/>
                        <path id="Ellipse24" d="M204.326,105.028C204.326,94.97 222.735,86.815 245.445,86.815C268.155,86.815 286.565,94.97 286.565,105.028C286.565,115.088 268.155,123.242 245.445,123.242C222.735,123.242 204.326,115.088 204.326,105.028Z" style="fill:rgb(255,231,59);fill-rule:nonzero;"/>
                        <clipPath id="_clip4">
                            <path id="Ellipse241" serif:id="Ellipse24" d="M204.326,105.028C204.326,94.97 222.735,86.815 245.445,86.815C268.155,86.815 286.565,94.97 286.565,105.028C286.565,115.088 268.155,123.242 245.445,123.242C222.735,123.242 204.326,115.088 204.326,105.028Z" clip-rule="nonzero"/>
                        </clipPath>
                        <g clip-path="url(#_clip4)">
                            <g transform="matrix(0.585574,-2.07488e-17,4.25951e-17,0.285243,-344.91,81.1005)">
                                <path d="M997.353,42.848C998.482,37.932 1002.86,34.447 1007.9,34.447C1012.95,34.447 1017.32,37.932 1018.45,42.848L1021.71,57.011L1036.18,55.729C1041.2,55.283 1045.87,58.368 1047.43,63.166C1048.99,67.963 1047.03,73.202 1042.7,75.795L1030.24,83.266L1035.93,96.636C1037.9,101.277 1036.41,106.668 1032.33,109.633C1028.25,112.598 1022.66,112.351 1018.86,109.038L1007.9,99.492L996.946,109.038C993.142,112.351 987.554,112.598 983.473,109.633C979.392,106.668 977.9,101.277 979.876,96.636L985.569,83.266L973.105,75.795C968.778,73.202 966.816,67.963 968.375,63.166C969.934,58.368 974.6,55.283 979.625,55.729L994.099,57.011L997.353,42.848Z" style="fill:rgb(252,196,25);"/>
                            </g>
                            <g id="Ellipse26" transform="matrix(0.82192,0,0,0.976334,64.8829,-38.1889)">
                                <path d="M133.256,142.871C133.256,132.812 151.665,124.658 174.375,124.658C197.085,124.658 215.494,132.812 215.494,142.871C215.494,152.93 197.085,161.085 174.375,161.085C151.665,161.085 133.256,152.93 133.256,142.871Z" style="fill:rgb(230,119,0);fill-opacity:0.47;fill-rule:nonzero;"/>
                            </g>
                        </g>
                    </g>
                </g>
                <g>
                    <g>
                        <path d="M140.096,163.425C140.096,163.425 139.801,178.619 140.412,181.36C141.024,184.1 148.574,198.116 180.789,198.116C214.558,198.116 221.804,184.191 221.999,181.525C222.124,179.818 222.089,163.574 222.089,163.574L140.096,163.425Z" style="fill:rgb(250,176,5);fill-rule:nonzero;"/>
                        <path id="Ellipse25" d="M139.718,163.328C139.718,153.269 158.128,145.115 180.838,145.115C203.548,145.115 221.957,153.269 221.957,163.328C221.957,173.388 203.548,181.542 180.838,181.542C158.128,181.542 139.718,173.388 139.718,163.328Z" style="fill:rgb(245,159,0);fill-rule:nonzero;"/>
                    </g>
                    <g>
                        <path d="M133.634,142.967C133.634,142.967 133.338,158.162 133.95,160.903C134.561,163.643 142.112,177.659 174.327,177.659C208.095,177.659 215.341,163.734 215.537,161.067C215.661,159.361 215.626,143.117 215.626,143.117L133.634,142.967Z" style="fill:rgb(250,176,5);fill-rule:nonzero;"/>
                        <path id="Ellipse261" serif:id="Ellipse26" d="M133.256,142.871C133.256,132.812 151.665,124.658 174.375,124.658C197.085,124.658 215.494,132.812 215.494,142.871C215.494,152.93 197.085,161.085 174.375,161.085C151.665,161.085 133.256,152.93 133.256,142.871Z" style="fill:rgb(250,212,5);fill-rule:nonzero;"/>
                        <clipPath id="_clip5">
                            <path id="Ellipse262" serif:id="Ellipse26" d="M133.256,142.871C133.256,132.812 151.665,124.658 174.375,124.658C197.085,124.658 215.494,132.812 215.494,142.871C215.494,152.93 197.085,161.085 174.375,161.085C151.665,161.085 133.256,152.93 133.256,142.871Z" clip-rule="nonzero"/>
                        </clipPath>
                        <g clip-path="url(#_clip5)">
                            <g id="Ellipse263" serif:id="Ellipse26" transform="matrix(1.21121,0,0,1,-21.2695,-7.75751)">
                                <path d="M133.256,142.871C133.256,132.812 151.665,124.658 174.375,124.658C197.085,124.658 215.494,132.812 215.494,142.871C215.494,152.93 197.085,161.085 174.375,161.085C151.665,161.085 133.256,152.93 133.256,142.871Z" style="fill:rgb(245,159,0);fill-rule:nonzero;"/>
                            </g>
                        </g>
                    </g>
                </g>
                <g>
                    <g>
                        <path d="M135.654,112.226C135.654,112.226 135.359,127.421 135.97,130.161C136.582,132.902 144.132,146.918 176.348,146.918C210.116,146.918 217.362,132.993 217.558,130.326C217.682,128.62 217.647,112.375 217.647,112.375L135.654,112.226Z" style="fill:rgb(250,176,5);fill-rule:nonzero;"/>
                        <path id="Ellipse27" d="M135.276,112.129C135.276,102.071 153.686,93.916 176.395,93.916C199.105,93.916 217.515,102.071 217.515,112.129C217.515,122.189 199.105,130.343 176.395,130.343C153.686,130.343 135.276,122.189 135.276,112.129Z" style="fill:rgb(245,159,0);fill-rule:nonzero;"/>
                        <g>
                            <path d="M186.223,116.12C187.996,115.896 189.379,115.631 190.407,115.33C191.435,115.03 192.126,114.704 192.516,114.353C192.906,114.002 193.101,113.661 193.101,113.33C193.101,112.647 192.516,112.087 191.346,111.655C190.176,111.227 188.723,110.876 186.95,110.606C185.177,110.341 183.245,110.132 181.189,109.98C179.115,109.827 177.201,109.684 175.428,109.547C173.655,109.409 172.184,109.251 171.014,109.079C169.844,108.905 169.277,108.666 169.277,108.361C169.277,107.76 172.007,107.459 177.466,107.459C180.958,107.459 185.142,107.785 190.035,108.437L190.832,106.156C189.733,105.942 188.12,105.738 185.993,105.545C183.866,105.352 181.667,105.229 179.434,105.178L180.621,102.897L172.681,102.897L173.868,105.178C171.475,105.25 169.418,105.382 167.699,105.581C165.979,105.784 164.562,106.034 163.445,106.334C162.31,106.635 161.495,106.971 160.981,107.342C160.449,107.714 160.201,108.091 160.201,108.473C160.201,109.053 160.786,109.526 161.973,109.893C163.161,110.265 164.632,110.57 166.405,110.81C168.16,111.054 170.057,111.257 172.113,111.421C174.151,111.583 176.048,111.746 177.821,111.909C179.575,112.072 181.047,112.256 182.235,112.459C183.423,112.663 184.025,112.933 184.025,113.269C184.025,113.961 181.508,114.302 176.491,114.302C170.518,114.302 165.891,113.869 162.594,112.999L161.335,115.606C163.994,116.16 168.178,116.487 173.868,116.583L172.681,118.864L180.621,118.864L179.434,116.563C182.199,116.497 184.451,116.349 186.223,116.12Z" style="fill:rgb(242,184,0);fill-rule:nonzero;"/>
                        </g>
                    </g>
                    <g>
                        <path d="M129.192,91.769C129.192,91.769 128.897,106.964 129.508,109.704C130.12,112.444 137.67,126.46 169.885,126.46C203.653,126.46 210.899,112.535 211.095,109.869C211.22,108.162 211.184,91.918 211.184,91.918L129.192,91.769Z" style="fill:rgb(242,184,0);fill-rule:nonzero;"/>
                        <path id="Ellipse28" d="M128.814,91.672C128.814,81.613 147.223,73.459 169.934,73.459C192.643,73.459 211.053,81.613 211.053,91.672C211.053,101.732 192.643,109.886 169.934,109.886C147.223,109.886 128.814,101.732 128.814,91.672Z" style="fill:rgb(255,231,59);fill-rule:nonzero;"/>
                        <g id="Ellipse29" serif:id="Ellipse2" transform="matrix(0.130457,0,0,0.130793,134.998,78.2395)">
                            <path d="M0.149,90.667C0.149,53.355 51.363,21.338 124.371,7.639" style="fill:none;fill-rule:nonzero;stroke:rgb(255,255,153);stroke-width:31.75px;"/>
                        </g>
                        <g id="Ellipse210" serif:id="Ellipse2" transform="matrix(0.130457,0,0,0.130793,175.288,53.8263)">
                            <path d="M0.149,90.667C0.149,52.357 54.139,19.629 130.276,6.579" style="fill:none;fill-rule:nonzero;stroke:rgb(255,255,153);stroke-width:31.75px;"/>
                        </g>
                        <g id="Ellipse211" serif:id="Ellipse2" transform="matrix(0.130457,0,0,0.130793,87.9206,107.3)">
                            <path d="M0.149,90.667C0.149,40.886 91.314,0.529 203.774,0.529" style="fill:none;fill-rule:nonzero;stroke:rgb(255,255,153);stroke-width:31.75px;"/>
                        </g>
                        <g transform="matrix(0.585574,-2.07488e-17,4.25951e-17,0.285243,-420.268,70.0825)">
                            <path d="M997.353,42.848C998.482,37.932 1002.86,34.447 1007.9,34.447C1012.95,34.447 1017.32,37.932 1018.45,42.848L1021.71,57.011L1036.18,55.729C1041.2,55.283 1045.87,58.368 1047.43,63.166C1048.99,67.963 1047.03,73.202 1042.7,75.795L1030.24,83.266L1035.93,96.636C1037.9,101.277 1036.41,106.668 1032.33,109.633C1028.25,112.598 1022.66,112.351 1018.86,109.038L1007.9,99.492L996.946,109.038C993.142,112.351 987.554,112.598 983.473,109.633C979.392,106.668 977.9,101.277 979.876,96.636L985.569,83.266L973.105,75.795C968.778,73.202 966.816,67.963 968.375,63.166C969.934,58.368 974.6,55.283 979.625,55.729L994.099,57.011L997.353,42.848Z" style="fill:rgb(255,210,0);"/>
                        </g>
                    </g>
                </g>
            </g>
            <g id="Stars">
                <g transform="matrix(0.392463,-0.102954,0.102954,0.392463,55.7194,15.4343)">
                    <path d="M120.596,10.222C121.582,7.031 124.531,4.855 127.871,4.855C131.21,4.855 134.16,7.031 135.145,10.222L140.775,28.45L159.003,34.08C162.194,35.065 164.37,38.015 164.37,41.355C164.37,44.694 162.194,47.644 159.003,48.629L140.775,54.259L135.145,72.487C134.16,75.678 131.21,77.854 127.871,77.854C124.531,77.854 121.582,75.678 120.596,72.487L114.966,54.259L96.738,48.629C93.547,47.644 91.371,44.694 91.371,41.355C91.371,38.015 93.547,35.065 96.738,34.08L114.966,28.45L120.596,10.222Z" style="fill:rgb(255,255,104);"/>
                </g>
                <g transform="matrix(0.135473,0.135473,-0.135473,0.135473,103.982,49.2381)">
                    <path d="M120.596,10.222C121.582,7.031 124.531,4.855 127.871,4.855C131.21,4.855 134.16,7.031 135.145,10.222L140.775,28.45L159.003,34.08C162.194,35.065 164.37,38.015 164.37,41.355C164.37,44.694 162.194,47.644 159.003,48.629L140.775,54.259L135.145,72.487C134.16,75.678 131.21,77.854 127.871,77.854C124.531,77.854 121.582,75.678 120.596,72.487L114.966,54.259L96.738,48.629C93.547,47.644 91.371,44.694 91.371,41.355C91.371,38.015 93.547,35.065 96.738,34.08L114.966,28.45L120.596,10.222Z" style="fill:rgb(255,255,104);"/>
                </g>
                <g transform="matrix(0.217241,0.217241,-0.217241,0.217241,38.0479,56.5322)">
                    <path d="M120.596,10.222C121.582,7.031 124.531,4.855 127.871,4.855C131.21,4.855 134.16,7.031 135.145,10.222L140.775,28.45L159.003,34.08C162.194,35.065 164.37,38.015 164.37,41.355C164.37,44.694 162.194,47.644 159.003,48.629L140.775,54.259L135.145,72.487C134.16,75.678 131.21,77.854 127.871,77.854C124.531,77.854 121.582,75.678 120.596,72.487L114.966,54.259L96.738,48.629C93.547,47.644 91.371,44.694 91.371,41.355C91.371,38.015 93.547,35.065 96.738,34.08L114.966,28.45L120.596,10.222Z" style="fill:rgb(255,255,104);"/>
                </g>
            </g>
        </g>
    </g>
</svg>
