<?xml version="1.0" encoding="UTF-8" standalone="no"?>
<!DOCTYPE svg PUBLIC "-//W3C//DTD SVG 1.1//EN" "http://www.w3.org/Graphics/SVG/1.1/DTD/svg11.dtd">
<svg width="100%" height="100%" viewBox="0 0 256 256" version="1.1" xmlns="http://www.w3.org/2000/svg" xmlns:xlink="http://www.w3.org/1999/xlink" xml:space="preserve" xmlns:serif="http://www.serif.com/" style="fill-rule:evenodd;clip-rule:evenodd;stroke-linecap:round;stroke-linejoin:round;stroke-miterlimit:1.5;">
    <g id="Compass" transform="matrix(2.45798,0,0,2.32587,-15415.3,-1407.9)">
        <g transform="matrix(0.608787,0,0,0.643365,1673.44,-81.6904)">
            <path d="M7638.41,1072.38C7650.19,1072.38 7659.76,1081.94 7659.76,1093.73C7659.76,1105.51 7650.19,1115.08 7638.41,1115.08C7626.62,1115.08 7617.06,1105.51 7617.06,1093.73C7617.06,1081.94 7626.62,1072.38 7638.41,1072.38ZM7638.41,1083.05C7644.3,1083.05 7649.09,1087.84 7649.09,1093.73C7649.09,1099.62 7644.3,1104.4 7638.41,1104.4C7632.52,1104.4 7627.73,1099.62 7627.73,1093.73C7627.73,1087.84 7632.52,1083.05 7638.41,1083.05Z" style="fill:rgb(233,134,102);"/>
        </g>
        <g transform="matrix(0.406839,0,0,0.429946,6271.53,605.32)">
            <path d="M128,6.786C145.634,6.786 159.951,21.103 159.951,38.737C159.951,56.372 145.634,70.688 128,70.688C128,70.688 128,54.713 128,54.713C136.817,54.713 143.976,47.554 143.976,38.737C143.976,29.92 136.817,22.762 128,22.762L128,6.786Z" style="fill:rgb(192,97,84);"/>
        </g>
        <g transform="matrix(0.476098,0,0,0.655755,2687,-97.0098)">
            <path d="M7648.48,1104.18C7648.48,1099.9 7643.95,1096.42 7638.37,1096.42C7632.79,1096.42 7628.26,1099.9 7628.26,1104.18L7628.26,1147.94C7628.26,1152.22 7632.79,1155.7 7638.37,1155.7C7643.95,1155.7 7648.48,1152.22 7648.48,1147.94L7648.48,1104.18Z" style="fill:rgb(233,134,102);"/>
        </g>
        <g transform="matrix(0.406839,0,0,0.429946,6271.53,605.32)">
            <path d="M128,38.737L128,77.257L139.832,77.257L139.832,50.569C139.832,44.039 134.53,38.737 128,38.737Z" style="fill:rgb(192,97,84);"/>
        </g>
        <g transform="matrix(0.620512,0,0,0.655755,1587.01,-93.7219)">
            <circle cx="7633.37" cy="1169.23" r="60.176" style="fill:rgb(233,134,102);"/>
        </g>
        <g transform="matrix(0.406839,0,0,0.429946,6271.53,605.32)">
            <path d="M128,65.652C178.655,65.652 219.781,106.778 219.781,157.433C219.781,208.088 178.655,249.214 128,249.214L128,65.652Z" style="fill:rgb(192,97,84);"/>
        </g>
        <g transform="matrix(0.4813,0,0,0.508637,2649.67,78.2938)">
            <circle cx="7633.37" cy="1169.23" r="60.176" style="fill:white;"/>
        </g>
        <g transform="matrix(0.367281,0,0,0.388142,3520.02,219.18)">
            <circle cx="7633.37" cy="1169.23" r="60.176" style="fill:none;stroke:rgb(221,226,230);stroke-width:4.51px;"/>
        </g>
        <g transform="matrix(0.797585,0,0,0.842886,232.718,-316.439)">
            <path d="M7635.5,1142.96C7635.62,1142.41 7636.11,1142.03 7636.66,1142.03C7637.22,1142.03 7637.71,1142.41 7637.83,1142.96C7639.78,1151.29 7643.46,1167.09 7643.46,1167.09C7643.46,1167.09 7659.26,1170.77 7667.59,1172.71C7668.13,1172.84 7668.51,1173.32 7668.51,1173.88C7668.51,1174.44 7668.13,1174.92 7667.59,1175.05C7659.26,1176.99 7643.46,1180.67 7643.46,1180.67C7643.46,1180.67 7639.78,1196.47 7637.83,1204.8C7637.71,1205.35 7637.22,1205.73 7636.66,1205.73C7636.11,1205.73 7635.62,1205.35 7635.5,1204.8C7633.56,1196.47 7629.87,1180.67 7629.87,1180.67C7629.87,1180.67 7614.07,1176.99 7605.74,1175.05C7605.2,1174.92 7604.82,1174.44 7604.82,1173.88C7604.82,1173.32 7605.2,1172.84 7605.74,1172.71C7614.07,1170.77 7629.87,1167.09 7629.87,1167.09C7629.87,1167.09 7633.56,1151.29 7635.5,1142.96Z" style="fill:rgb(221,226,230);"/>
        </g>
        <g transform="matrix(1,0,0,1,-4.54747e-13,-0.843624)">
            <g transform="matrix(0.460813,0.281161,-0.266051,0.486986,3122.25,-2042.98)">
                <path d="M7624.57,1133.26C7624.77,1132.57 7625.4,1132.1 7626.11,1132.1C7626.83,1132.1 7627.45,1132.57 7627.65,1133.26C7631.28,1145.73 7640.06,1175.93 7640.06,1175.93L7612.16,1175.93C7612.16,1175.93 7620.95,1145.73 7624.57,1133.26Z" style="fill:rgb(237,99,104);"/>
            </g>
            <g transform="matrix(0.460813,0.281161,0.266051,-0.486986,2496.54,-897.657)">
                <path d="M7624.57,1133.26C7624.77,1132.57 7625.4,1132.1 7626.11,1132.1C7626.83,1132.1 7627.45,1132.57 7627.65,1133.26C7631.28,1145.73 7640.06,1175.93 7640.06,1175.93L7612.16,1175.93C7612.16,1175.93 7620.95,1145.73 7624.57,1133.26Z" style="fill:rgb(75,166,218);"/>
            </g>
        </g>
        <g transform="matrix(0.620512,0,0,0.655755,1586.26,-94.9432)">
            <circle cx="7634.58" cy="1171.09" r="6.696" style="fill:rgb(255,211,0);"/>
        </g>
    </g>
</svg>
