<?xml version="1.0" encoding="UTF-8" standalone="no"?>
<!DOCTYPE svg PUBLIC "-//W3C//DTD SVG 1.1//EN" "http://www.w3.org/Graphics/SVG/1.1/DTD/svg11.dtd">
<svg width="100%" height="100%" viewBox="0 0 256 256" version="1.1" xmlns="http://www.w3.org/2000/svg" xmlns:xlink="http://www.w3.org/1999/xlink" xml:space="preserve" xmlns:serif="http://www.serif.com/" style="fill-rule:evenodd;clip-rule:evenodd;stroke-linecap:round;stroke-linejoin:round;stroke-miterlimit:1.5;">
    <g id="Corgi" transform="matrix(1.46381,0,0,1.46381,-6942.15,-459.299)">
        <g transform="matrix(-0.794448,-0.458675,-0.504668,0.874111,5984.77,181.809)">
            <g transform="matrix(1,0,0,1,-546.23,-81.3293)">
                <path d="M1495.46,735.055C1517.23,735.055 1534.9,763.521 1534.9,785.29C1534.9,807.059 1517.23,824.733 1495.46,824.733C1473.69,824.733 1456.02,807.059 1456.02,785.29C1456.02,763.521 1473.69,735.055 1495.46,735.055Z" style="fill:rgb(240,151,56);"/>
            </g>
            <g transform="matrix(0.566334,0,0,0.566334,102.3,260.707)">
                <path d="M1495.46,723.867C1517.23,723.867 1534.9,763.521 1534.9,785.29C1534.9,807.059 1517.23,824.733 1495.46,824.733C1473.69,824.733 1456.02,807.059 1456.02,785.29C1456.02,763.521 1473.69,723.867 1495.46,723.867Z" style="fill:rgb(255,209,103);"/>
            </g>
        </g>
        <g transform="matrix(-1.89565,0,0,1.89565,13985.3,-319.758)">
            <g transform="matrix(-0.419091,-0.241962,-0.266225,0.461115,5689.44,359.253)">
                <path d="M1495.46,735.055C1517.23,735.055 1534.9,763.521 1534.9,785.29C1534.9,807.059 1517.23,824.733 1495.46,824.733C1473.69,824.733 1456.02,807.059 1456.02,785.29C1456.02,763.521 1473.69,735.055 1495.46,735.055Z" style="fill:rgb(240,151,56);"/>
            </g>
            <g transform="matrix(-0.237345,-0.137031,-0.150772,0.261145,5326.59,360.052)">
                <path d="M1495.46,723.867C1517.23,723.867 1534.9,763.521 1534.9,785.29C1534.9,807.059 1517.23,824.733 1495.46,824.733C1473.69,824.733 1456.02,807.059 1456.02,785.29C1456.02,763.521 1473.69,723.867 1495.46,723.867Z" style="fill:rgb(255,209,103);"/>
            </g>
        </g>
        <g transform="matrix(1.06429,0,0,1.11877,4703.85,221.33)">
            <path d="M118.212,110.053C160.16,110.053 194.216,133.15 194.216,173.055C194.216,212.961 160.16,236.058 118.212,236.058C76.264,236.058 42.207,212.961 42.207,173.055C42.207,133.15 76.264,110.053 118.212,110.053Z" style="fill:rgb(240,151,56);"/>
            <clipPath id="_clip1">
                <path d="M118.212,110.053C160.16,110.053 194.216,133.15 194.216,173.055C194.216,212.961 160.16,236.058 118.212,236.058C76.264,236.058 42.207,212.961 42.207,173.055C42.207,133.15 76.264,110.053 118.212,110.053Z"/>
            </clipPath>
            <g clip-path="url(#_clip1)">
                <g transform="matrix(0.64188,0,0,0.610626,36.3342,82.6258)">
                    <path d="M23.181,200.544C21.258,149.369 109.324,147.266 114.576,115.299C119.119,87.653 100.914,54.926 127.559,54.926C154.204,54.926 137.013,87.653 141.556,115.299C146.807,147.262 233.971,149.369 231.951,200.522C211.971,233.225 172.698,251.27 127.559,251.27C82.427,251.27 43.159,233.23 23.181,200.544Z" style="fill:rgb(255,243,184);"/>
                </g>
            </g>
        </g>
        <g transform="matrix(1.06429,0,0,1.06429,4701.73,198.65)">
            <g transform="matrix(0.965926,0.258819,-0.214214,0.799456,127.451,29.8324)">
                <circle cx="86.998" cy="174.87" r="10.068" style="fill:rgb(254,108,88);"/>
            </g>
            <g transform="matrix(0.965926,-0.258819,0.214214,0.799456,-55.1166,74.8657)">
                <circle cx="86.998" cy="174.87" r="10.068" style="fill:rgb(254,108,88);"/>
            </g>
        </g>
        <g transform="matrix(1.06429,0,0,1.06429,4702.7,212.145)">
            <g transform="matrix(0.661858,0,0,0.661858,32.2669,55.7478)">
                <circle cx="86.998" cy="174.87" r="10.068" style="fill:rgb(60,69,77);"/>
            </g>
            <g transform="matrix(0.661858,0,0,0.661858,91.1449,55.7478)">
                <circle cx="86.998" cy="174.87" r="10.068" style="fill:rgb(60,69,77);"/>
            </g>
        </g>
        <g transform="matrix(0.781865,0,0,0.781865,4727.73,250.153)">
            <g transform="matrix(0.847216,0,0,0.847216,-4302.3,-159.242)">
                <path d="M5242.07,448.734C5238.1,448.734 5233.44,445.403 5231.73,439.323C5229.97,445.478 5226.1,448.734 5221.39,448.734L5221.39,456.036C5221.39,461.741 5226.03,466.373 5231.73,466.373C5237.44,466.373 5242.07,461.741 5242.07,456.036L5242.07,448.734Z" style="fill:rgb(218,78,83);"/>
            </g>
            <g transform="matrix(1.06117,0,0,1.06117,-5080.85,-363.352)">
                <path d="M4909.23,540.098C4909.23,544.787 4905.42,548.594 4900.73,548.594C4896.04,548.594 4892.23,544.787 4892.23,540.098C4892.23,539.211 4891.51,538.491 4890.63,538.491C4889.74,538.491 4889.02,539.211 4889.02,540.098C4889.02,546.561 4894.27,551.808 4900.73,551.808C4907.19,551.808 4912.44,546.561 4912.44,540.098C4912.44,539.211 4911.72,538.491 4910.83,538.491C4909.95,538.491 4909.23,539.211 4909.23,540.098Z" style="fill:rgb(50,58,65);"/>
            </g>
            <g transform="matrix(1.06117,0,0,1.06117,-5059.39,-363.352)">
                <path d="M4909.23,540.098C4909.23,544.787 4905.42,548.594 4900.73,548.594C4896.04,548.594 4892.23,544.787 4892.23,540.098C4892.23,539.211 4891.51,538.491 4890.63,538.491C4889.74,538.491 4889.02,539.211 4889.02,540.098C4889.02,546.561 4894.27,551.808 4900.73,551.808C4907.19,551.808 4912.44,546.561 4912.44,540.098C4912.44,539.211 4911.72,538.491 4910.83,538.491C4909.95,538.491 4909.23,539.211 4909.23,540.098Z" style="fill:rgb(50,58,65);"/>
            </g>
            <g transform="matrix(2.18575,0,0,2.18575,-10600.6,-954.506)">
                <path d="M4909.51,532.672L4909.51,523.209" style="fill:none;stroke:rgb(38,50,56);stroke-width:0.8px;"/>
            </g>
        </g>
        <g transform="matrix(1.06598,0,0,0.901295,4736.92,247.314)">
            <circle cx="86.998" cy="174.87" r="10.068" style="fill:rgb(101,50,46);"/>
        </g>
        <g transform="matrix(0.683148,0,0,0.683148,4742.52,313.769)">
            <circle cx="90.633" cy="69.103" r="9.688" style="fill:rgb(255,176,88);"/>
        </g>
    </g>
</svg>
