<?xml version="1.0" encoding="UTF-8" standalone="no"?>
<!DOCTYPE svg PUBLIC "-//W3C//DTD SVG 1.1//EN" "http://www.w3.org/Graphics/SVG/1.1/DTD/svg11.dtd">
<svg width="100%" height="100%" viewBox="0 0 256 256" version="1.1" xmlns="http://www.w3.org/2000/svg" xmlns:xlink="http://www.w3.org/1999/xlink" xml:space="preserve" xmlns:serif="http://www.serif.com/" style="fill-rule:evenodd;clip-rule:evenodd;stroke-linejoin:round;stroke-miterlimit:2;">
    <g id="Crown---Red-Gem" serif:id="Crown - Red Gem" transform="matrix(1.97923,0,0,1.87286,-8363.94,-1571.78)">
        <g transform="matrix(7.15591,0,0,7.15591,-36398.7,-4675.37)">
            <g transform="matrix(0.0867132,0,0,0.0916382,5308.3,640.261)">
                <path d="M4355.51,1487.98L4358.21,1487.98L4401.98,1544.71L4448.66,1514.31C4448.66,1514.31 4431.05,1584.72 4424.83,1608.25C4423.47,1613.38 4418.83,1616.95 4413.52,1616.95C4389.52,1616.95 4324.2,1616.95 4300.2,1616.95C4294.89,1616.95 4290.25,1613.38 4288.9,1608.25C4282.67,1584.72 4265.15,1514.31 4265.15,1514.31L4311.74,1544.71L4355.51,1487.98Z" style="fill:rgb(255,255,104);"/>
            </g>
            <g transform="matrix(0.0706054,0,0,0.0746156,5677.06,770.637)">
                <path d="M127.636,80.137L129.612,80.137L183.372,149.817L240.696,112.473C240.696,112.473 219.069,198.957 211.426,227.845C209.76,234.144 204.061,238.531 197.545,238.531L127.636,238.531L127.636,80.137Z" style="fill:rgb(255,224,73);"/>
            </g>
            <g transform="matrix(0.0649899,0,0,0.0924245,5677.51,770.146)">
                <path d="M121.582,30.037C124.042,27.578 127.923,26.128 132.046,26.128C136.17,26.128 140.051,27.578 142.51,30.037C147.812,35.338 154.046,41.573 158.477,46.004C161.907,49.434 161.907,54.13 158.477,57.56C154.046,61.991 147.812,68.225 142.51,73.526C140.051,75.986 136.17,77.436 132.046,77.436C127.923,77.436 124.042,75.986 121.582,73.526C116.281,68.225 110.047,61.991 105.616,57.56C102.186,54.13 102.186,49.434 105.616,46.004C110.047,41.573 116.281,35.338 121.582,30.037Z" style="fill:rgb(255,255,104);"/>
            </g>
            <g transform="matrix(0.0706054,0,0,0.0746156,5677.06,770.637)">
                <path d="M127.761,25.785C127.841,25.783 127.92,25.782 128,25.782C131.796,25.782 135.368,27.578 137.632,30.625C142.511,37.191 148.25,44.913 152.328,50.402C155.486,54.651 155.486,60.467 152.328,64.717C148.25,70.205 142.511,77.927 137.632,84.494C135.368,87.54 131.796,89.336 128,89.336C127.92,89.336 127.841,89.335 127.761,89.334L127.761,25.785Z" style="fill:rgb(255,224,73);"/>
            </g>
            <g transform="matrix(0.0379495,0,0,0.0539693,5680.86,772.112)">
                <path d="M115.231,36.389C116.192,35.428 117.874,35.033 119.403,35.409C120.933,35.785 121.966,36.848 121.966,38.045C121.966,45.922 121.966,57.642 121.966,65.519C121.966,66.716 120.933,67.779 119.403,68.155C117.874,68.531 116.192,68.136 115.231,67.175C111.715,63.659 107.507,59.451 104.38,56.324C101.684,53.628 101.684,49.936 104.38,47.239C107.507,44.112 111.715,39.905 115.231,36.389Z" style="fill:white;"/>
            </g>
            <g transform="matrix(1,0,0,1,-0.00420667,0)">
                <g transform="matrix(0.0681996,-0.0193119,0.018274,0.0720731,5667.89,775.886)">
                    <path d="M129.164,39.895C129.164,37.766 130.512,35.871 132.522,35.172C134.533,34.473 136.765,35.123 138.086,36.793C142.818,42.777 148.501,49.963 152.677,55.243C156.124,59.601 156.124,65.756 152.677,70.113C148.501,75.394 142.818,82.58 138.086,88.564C136.765,90.233 134.533,90.884 132.522,90.185C130.512,89.486 129.164,87.591 129.164,85.462C129.164,72.332 129.164,53.025 129.164,39.895Z" style="fill:rgb(255,255,104);"/>
                </g>
                <g transform="matrix(0.0258477,-0.00731924,0.00692587,0.0273158,5674.31,776.787)">
                    <path d="M129.164,41.129C129.164,38.818 130.627,36.76 132.81,36.001C134.993,35.242 137.418,35.948 138.851,37.761C140.202,39.469 141.617,41.259 143.043,43.061C152.136,54.559 152.136,70.798 143.043,82.296C141.617,84.098 140.202,85.887 138.851,87.596C137.418,89.408 134.993,90.115 132.81,89.356C130.627,88.597 129.164,86.539 129.164,84.228C129.164,71.562 129.164,53.795 129.164,41.129Z" style="fill:white;"/>
                </g>
                <g transform="matrix(-0.0681996,-0.0193119,-0.018274,0.0720731,5704.31,775.886)">
                    <path d="M129.164,39.895C129.164,37.766 130.512,35.871 132.522,35.172C134.533,34.473 136.765,35.123 138.086,36.793C142.818,42.777 148.501,49.963 152.677,55.243C156.124,59.601 156.124,65.756 152.677,70.113C148.501,75.394 142.818,82.58 138.086,88.564C136.765,90.233 134.533,90.884 132.522,90.185C130.512,89.486 129.164,87.591 129.164,85.462C129.164,72.332 129.164,53.025 129.164,39.895Z" style="fill:rgb(255,224,73);"/>
                </g>
            </g>
            <g>
                <g transform="matrix(0.0911849,0,0,0.0697045,5674.41,771.58)">
                    <ellipse cx="127.938" cy="173.385" rx="26.632" ry="36.818" style="fill:rgb(255,255,104);"/>
                </g>
                <g transform="matrix(0.0615466,0,0,0.0470481,5678.2,775.509)">
                    <ellipse cx="127.938" cy="173.385" rx="26.632" ry="36.818" style="fill:rgb(255,77,86);"/>
                </g>
                <g transform="matrix(0.0209627,0,0,0.0160245,5682.84,780.298)">
                    <ellipse cx="127.938" cy="173.385" rx="26.632" ry="36.818" style="fill:rgb(255,198,200);"/>
                </g>
            </g>
        </g>
        <g transform="matrix(-0.200456,-0.727327,-0.407479,0.125423,5751.44,3884.89)">
            <path d="M4343.05,1557.34C4343.05,1552.73 4340.83,1548.99 4338.1,1548.99L4297.25,1548.99C4294.52,1548.99 4292.3,1552.73 4292.3,1557.34C4292.3,1561.96 4294.52,1565.7 4297.25,1565.7L4338.1,1565.7C4340.83,1565.7 4343.05,1561.96 4343.05,1557.34Z" style="fill:white;"/>
        </g>
    </g>
</svg>
