<?xml version="1.0" encoding="UTF-8" standalone="no"?>
<!DOCTYPE svg PUBLIC "-//W3C//DTD SVG 1.1//EN" "http://www.w3.org/Graphics/SVG/1.1/DTD/svg11.dtd">
<svg width="100%" height="100%" viewBox="0 0 256 256" version="1.1" xmlns="http://www.w3.org/2000/svg" xmlns:xlink="http://www.w3.org/1999/xlink" xml:space="preserve" xmlns:serif="http://www.serif.com/" style="fill-rule:evenodd;clip-rule:evenodd;stroke-linejoin:round;stroke-miterlimit:2;">
    <g id="Crown" transform="matrix(0.283043,0,0,0.283043,10.428,31.5745)">
        <g>
            <g id="Ellipse" transform="matrix(1.13,0,0,1.13,-70.2403,7.36167)">
                <path d="M693.271,438.532C693.271,400.759 723.871,370.14 761.618,370.14C799.365,370.14 829.962,400.759 829.962,438.532C829.962,476.304 799.365,506.922 761.618,506.922C723.871,506.922 693.271,476.304 693.271,438.532Z" style="fill:rgb(51,154,240);fill-rule:nonzero;"/>
            </g>
            <g id="Ellipse3" transform="matrix(1.13,0,0,1.13,-37.7577,14.3397)">
                <path d="M0.81,432.355C0.81,394.583 31.409,363.963 69.155,363.963C106.9,363.963 137.5,394.583 137.5,432.355C137.5,470.128 106.9,500.747 69.155,500.747C31.409,500.747 0.81,470.128 0.81,432.355Z" style="fill:rgb(51,154,240);fill-rule:nonzero;"/>
            </g>
        </g>
        <g>
            <g transform="matrix(4.77505,0,0,3.53303,-197.37,-125.874)">
                <path d="M128.324,26.515L195.416,167.149L61.232,167.149L128.324,26.515Z" style="fill:rgb(218,151,51);"/>
            </g>
            <g transform="matrix(1,0,0,1,0.0263,-31.5746)">
                <path d="M40.197,14.405L419.893,407.865L419.893,652.73L40.197,652.73L40.197,14.405Z" style="fill:rgb(255,255,104);fill-rule:nonzero;"/>
            </g>
            <g transform="matrix(1,0,0,1,2.55795e-13,-31.5746)">
                <path d="M799.587,14.405L419.893,407.865L419.893,652.73L799.587,652.73L799.587,14.405Z" style="fill:rgb(252,196,25);fill-rule:nonzero;"/>
            </g>
            <g transform="matrix(1,0,0,0.500123,5.68434e-14,356.684)">
                <path d="M799.613,515.968L40.223,515.968C40.223,625.013 84.5,713.545 139.036,713.545L700.8,713.545C755.337,713.545 799.613,625.013 799.613,515.968Z" style="fill:rgb(255,255,104);"/>
            </g>
            <path d="M419.893,713.52L700.866,713.52C755.387,713.52 799.587,669.291 799.587,614.734C799.587,560.173 755.387,515.943 700.866,515.943L419.893,515.943L419.893,713.52Z" style="fill:rgb(252,196,25);fill-rule:nonzero;"/>
        </g>
        <g transform="matrix(4.56281,0,0,3.30049,-163.837,-30.572)">
            <ellipse cx="127.938" cy="173.385" rx="26.632" ry="36.818" style="fill:rgb(255,255,104);"/>
        </g>
        <g transform="matrix(3.07974,0,0,2.22772,25.904,155.431)">
            <ellipse cx="127.938" cy="173.385" rx="26.632" ry="36.818" style="fill:rgb(51,154,240);"/>
        </g>
        <g transform="matrix(1.04896,0,0,0.758759,257.782,382.19)">
            <ellipse cx="127.938" cy="173.385" rx="26.632" ry="36.818" style="fill:white;"/>
        </g>
        <g transform="matrix(3.53303,0,0,3.53303,-36.8425,-98.4385)">
            <path d="M49.346,77.149C49.346,72.42 45.507,68.581 40.779,68.581C36.05,68.581 32.211,72.42 32.211,77.149L32.211,111.125C32.211,115.853 36.05,119.692 40.779,119.692C45.507,119.692 49.346,115.853 49.346,111.125L49.346,77.149Z" style="fill:white;"/>
        </g>
        <g transform="matrix(3.53303,0,0,1.82318,-36.8425,441.73)">
            <path d="M49.346,85.184C49.346,76.021 45.507,68.581 40.779,68.581C36.05,68.581 32.211,76.021 32.211,85.184L32.211,103.089C32.211,112.253 36.05,119.692 40.779,119.692C45.507,119.692 49.346,112.253 49.346,103.089L49.346,85.184Z" style="fill:white;"/>
        </g>
    </g>
</svg>
