<?xml version="1.0" encoding="UTF-8" standalone="no"?>
<!DOCTYPE svg PUBLIC "-//W3C//DTD SVG 1.1//EN" "http://www.w3.org/Graphics/SVG/1.1/DTD/svg11.dtd">
<svg width="100%" height="100%" viewBox="0 0 256 256" version="1.1" xmlns="http://www.w3.org/2000/svg" xmlns:xlink="http://www.w3.org/1999/xlink" xml:space="preserve" xmlns:serif="http://www.serif.com/" style="fill-rule:evenodd;clip-rule:evenodd;stroke-linejoin:round;stroke-miterlimit:2;">
    <g id="Cup-Silver" serif:id="Cup Silver" transform="matrix(1.78,0,0,1.68433,-10676.9,-874.85)">
        <g transform="matrix(1,0,0,1,0.181573,11.615)">
            <g transform="matrix(-0.453297,-0.11968,0,0.479043,6056.88,535.356)">
                <path d="M55.189,8.862C73.327,8.862 89.695,16.589 101.593,28.487C113.673,40.567 121.455,57.185 121.455,75.602C121.455,108.937 94.532,136.149 61.197,136.149C43.058,136.149 26.69,128.422 14.793,116.524C2.712,104.444 -5.07,87.826 -5.07,69.409C-5.07,36.074 21.853,8.862 55.189,8.862L55.189,8.862ZM61.197,34.411C38.381,34.411 19.717,52.786 19.717,75.602C19.717,85.262 23.331,94.076 29.667,100.412C36.186,106.931 45.25,110.6 55.189,110.6C78.004,110.6 96.668,92.225 96.668,69.409C96.668,59.749 93.054,50.935 86.718,44.599C80.199,38.08 71.135,34.411 61.197,34.411L61.197,34.411Z" style="fill:rgb(221,226,230);"/>
            </g>
            <g transform="matrix(0.453297,-0.11968,0,0.479043,6083.14,535.356)">
                <path d="M55.189,8.862C21.853,8.862 -5.07,36.074 -5.07,69.409C-5.07,87.826 2.712,104.444 14.793,116.524C26.69,128.422 43.058,136.149 61.197,136.149C94.532,136.149 121.455,108.937 121.455,75.602C121.455,57.185 113.673,40.567 101.593,28.487C89.695,16.589 73.327,8.862 55.189,8.862L55.189,8.862ZM61.197,34.411C71.135,34.411 80.199,38.08 86.718,44.599C93.054,50.935 96.668,59.749 96.668,69.409C96.668,92.225 78.004,110.6 55.189,110.6C45.25,110.6 36.186,106.931 29.667,100.412C23.331,94.076 19.717,85.262 19.717,75.602C19.717,52.786 38.381,34.411 61.197,34.411Z" style="fill:rgb(171,181,190);"/>
            </g>
        </g>
        <g>
            <g transform="matrix(0.602303,0,0,0.500404,5998.23,543.083)">
                <path d="M119.475,193.018C136.863,193.018 151.692,204.064 157.321,219.515C158.419,222.513 158.237,226.016 156.839,228.805C155.442,231.594 153.022,233.282 150.422,233.282C134.924,233.284 104.026,233.284 88.528,233.284C85.927,233.284 83.506,231.596 82.108,228.806C80.71,226.017 80.529,222.513 81.627,219.514C87.258,204.064 102.087,193.018 119.475,193.018Z" style="fill:rgb(221,226,230);"/>
            </g>
            <g transform="matrix(0.561798,0,0,0.593706,5998.28,519.404)">
                <path d="M118.503,203.394C121.559,202.854 124.738,202.568 128,202.568C146.642,202.568 162.539,211.878 168.575,224.901C169.751,227.428 169.557,230.381 168.058,232.731C166.56,235.082 163.966,236.505 161.178,236.505C144.563,236.506 111.437,236.506 94.822,236.506L94.792,236.506C111.186,236.506 130.657,236.506 142.183,236.505C144.971,236.505 147.565,235.082 149.064,232.731C150.562,230.381 150.757,227.428 149.58,224.901C144.601,214.157 132.909,205.941 118.503,203.394Z" style="fill:rgb(171,181,190);"/>
            </g>
        </g>
        <g transform="matrix(1,0,0,1,0,2.71229)">
            <g transform="matrix(0.498617,0,0,0.491922,2561.3,118.933)">
                <rect x="7021.96" y="971.3" width="30.554" height="94.147" style="fill:rgb(221,226,230);"/>
            </g>
            <g transform="matrix(0.105645,0,0,0.257915,5306.91,364.27)">
                <rect x="7224.97" y="914.37" width="72.08" height="166.529" style="fill:rgb(171,181,190);"/>
            </g>
        </g>
        <g transform="matrix(1,0,0,1,0,2.71229)">
            <g transform="matrix(0.556688,0,0,0.655755,2152.67,-45.4308)">
                <path d="M7104.98,883.964C7104.98,882.638 7104.4,881.366 7103.35,880.429C7102.31,879.491 7100.89,878.964 7099.41,878.964C7077.44,878.964 6996.96,878.964 6974.99,878.964C6973.51,878.964 6972.1,879.491 6971.05,880.429C6970.01,881.366 6969.42,882.638 6969.42,883.964C6969.42,900.702 6969.42,946.447 6969.42,946.447C6969.42,980.009 6999.79,1007.26 7037.2,1007.26C7074.61,1007.26 7104.98,980.009 7104.98,946.447C7104.98,946.447 7104.98,900.702 7104.98,883.964Z" style="fill:rgb(221,226,230);"/>
            </g>
            <g transform="matrix(0.561798,0,0,0.593706,5998.28,519.404)">
                <path d="M154.107,19.455L189.644,19.455C191.108,19.455 192.513,20.037 193.549,21.073C194.585,22.109 195.166,23.513 195.166,24.978L195.166,93.991C195.166,131.06 165.071,161.156 128.001,161.156C121.851,161.156 115.893,160.328 110.232,158.776C138.691,150.978 159.629,124.911 159.629,93.991L159.629,24.978C159.629,23.513 159.048,22.109 158.012,21.073C156.976,20.037 155.571,19.455 154.107,19.455Z" style="fill:rgb(171,181,190);"/>
            </g>
        </g>
        <g id="Light" transform="matrix(1,0,0,1,0,2.71229)">
            <g transform="matrix(0.385528,0,0,0.283091,3352.16,346.078)">
                <path d="M7032.94,1040.45C7016.61,1040.45 7002.73,1055.71 6997.84,1076.87C6996.82,1081.26 6998.48,1086.01 7001.53,1087.48C7004.58,1088.94 7007.88,1086.56 7008.9,1082.17C7012.25,1067.68 7021.76,1057.22 7032.94,1057.22C7036.16,1057.22 7038.77,1053.46 7038.77,1048.84C7038.77,1044.2 7036.16,1040.45 7032.94,1040.45Z" style="fill:white;"/>
            </g>
            <g transform="matrix(0.264832,0.279873,-0.264832,0.279873,6023.14,498.641)">
                <path d="M107.423,22.137C107.633,20.358 109.141,19.017 110.933,19.017C112.724,19.017 114.232,20.358 114.442,22.137L115.54,31.47L124.873,32.569C126.652,32.778 127.993,34.286 127.993,36.078C127.993,37.869 126.652,39.377 124.873,39.587L115.54,40.686L114.442,50.018C114.232,51.797 112.724,53.138 110.933,53.138C109.141,53.138 107.633,51.797 107.423,50.018L106.325,40.686L96.992,39.587C95.213,39.377 93.872,37.869 93.872,36.078C93.872,34.286 95.213,32.778 96.992,32.569L106.325,31.47L107.423,22.137Z" style="fill:white;"/>
            </g>
            <g transform="matrix(0.451724,0,0,0.532113,2893.96,69.3713)">
                <path d="M6962.55,910.631C6962.55,910.631 6962.55,946.447 6962.55,946.447C6962.55,965.36 6971.3,982.453 6985.38,994.636C6988.11,996.999 6992.46,996.929 6995.09,994.481C6997.72,992.033 6997.65,988.128 6994.92,985.766C6983.44,975.825 6976.29,961.879 6976.29,946.447C6976.29,946.447 6976.29,910.631 6976.29,910.631C6976.29,907.229 6973.21,904.467 6969.42,904.467C6965.63,904.467 6962.55,907.229 6962.55,910.631Z" style="fill:white;"/>
            </g>
        </g>
        <g transform="matrix(0.561798,0,0,0.593706,5998.28,522.563)">
            <g transform="matrix(4.64845e-17,0.75915,-0.75915,4.64845e-17,223.572,151.767)">
                <path d="M35.571,124.423C35.571,124.423 50.015,153.312 60.96,175.201C63.54,180.363 63.265,186.492 60.231,191.401C57.197,196.31 51.838,199.298 46.067,199.298L25.074,199.298C19.303,199.298 13.944,196.31 10.911,191.401C7.877,186.492 7.601,180.363 10.182,175.201C21.126,153.312 35.571,124.423 35.571,124.423Z" style="fill:rgb(0,140,237);"/>
            </g>
            <g transform="matrix(-4.64845e-17,0.75915,0.75915,4.64845e-17,36.1812,151.767)">
                <path d="M35.571,124.423C35.571,124.423 50.015,153.312 60.96,175.201C63.54,180.363 63.265,186.492 60.231,191.401C57.197,196.31 51.838,199.298 46.067,199.298L25.074,199.298C19.303,199.298 13.944,196.31 10.911,191.401C7.877,186.492 7.601,180.363 10.182,175.201C21.126,153.312 35.571,124.423 35.571,124.423Z" style="fill:rgb(0,140,237);"/>
            </g>
            <g transform="matrix(2.08339,0,0,1,-79.1322,1.0711)">
                <ellipse cx="99.467" cy="177.429" rx="22.093" ry="8.51" style="fill:rgb(0,114,200);"/>
            </g>
            <g transform="matrix(1.3047,0,0,1,-39.0162,0)">
                <path d="M145.147,170.555C145.147,166.366 142.54,162.966 139.33,162.966L116.764,162.966C113.554,162.966 110.948,166.366 110.948,170.555L110.948,185.732C110.948,189.921 113.554,193.321 116.764,193.321L139.33,193.321C142.54,193.321 145.147,189.921 145.147,185.732L145.147,170.555Z" style="fill:rgb(0,140,237);"/>
            </g>
            <g transform="matrix(0.575974,0,0,0.824877,44.4783,31.4527)">
                <path d="M145.147,168.936C145.147,165.641 141.316,162.966 136.597,162.966L119.497,162.966C114.779,162.966 110.948,165.641 110.948,168.936L110.948,187.351C110.948,190.646 114.779,193.321 119.497,193.321L136.597,193.321C141.316,193.321 145.147,190.646 145.147,187.351L145.147,168.936Z" style="fill:rgb(0,172,254);"/>
            </g>
            <g transform="matrix(0.424236,0,0,0.289453,63.4554,120.126)">
                <path d="M145.147,178.144C145.147,169.767 140.506,162.966 134.791,162.966L121.303,162.966C115.588,162.966 110.948,169.767 110.948,178.144C110.948,186.52 115.588,193.321 121.303,193.321L134.791,193.321C140.506,193.321 145.147,186.52 145.147,178.144Z" style="fill:rgb(201,236,255);"/>
            </g>
        </g>
    </g>
</svg>
