<?xml version="1.0" encoding="UTF-8" standalone="no"?>
<!DOCTYPE svg PUBLIC "-//W3C//DTD SVG 1.1//EN" "http://www.w3.org/Graphics/SVG/1.1/DTD/svg11.dtd">
<svg width="100%" height="100%" viewBox="0 0 256 256" version="1.1" xmlns="http://www.w3.org/2000/svg" xmlns:xlink="http://www.w3.org/1999/xlink" xml:space="preserve" xmlns:serif="http://www.serif.com/" style="fill-rule:evenodd;clip-rule:evenodd;stroke-linejoin:round;stroke-miterlimit:2;">
    <g id="Cupcake-3d" serif:id="Cupcake 3d" transform="matrix(1.5519,0,0,1.4685,-9122.29,-793.514)">
        <g transform="matrix(0.620512,1.31723e-17,-1.24643e-17,-0.548196,1800.65,1315.8)">
            <path d="M6796.97,1238.4L6611.16,1238.4C6611.16,1238.4 6633.36,1173.29 6647.07,1133.1C6653.44,1114.4 6668.65,1102.17 6685.53,1102.17C6697.26,1102.17 6710.87,1102.17 6722.6,1102.17C6739.48,1102.17 6754.68,1114.4 6761.06,1133.1C6774.77,1173.29 6796.97,1238.4 6796.97,1238.4Z" style="fill:rgb(254,206,108);"/>
        </g>
        <g transform="matrix(0.64437,0,0,0.680968,5878.13,540.357)">
            <path d="M197.151,141.795C201.193,147.614 203.447,154.082 203.447,160.895C203.447,186.286 172.138,206.901 133.574,206.901C102.167,206.901 75.573,193.229 66.782,174.437C63.028,176.574 58.628,178.221 53.804,179.229L38.535,141.795L197.151,141.795Z" style="fill:rgb(228,165,93);"/>
        </g>
        <g transform="matrix(0.64437,0,0,0.680968,5878.13,540.357)">
            <path d="M122.184,251.462L145.849,251.462C162.106,251.462 176.746,241.622 182.886,226.569L213.292,152.025L213.292,141.795L122.184,141.795L122.184,251.462Z" style="fill:rgb(228,165,93);"/>
        </g>
        <g transform="matrix(1,0,0,1,223.419,0)">
            <g transform="matrix(0.911806,0,0,0.713292,-343.942,-147.693)">
                <circle cx="6655.35" cy="1048.98" r="48.445" style="fill:white;"/>
            </g>
            <g transform="matrix(0.911806,0,0,0.713292,-312.953,-138.974)">
                <circle cx="6655.35" cy="1048.98" r="48.445" style="fill:white;"/>
            </g>
            <g transform="matrix(0.249954,-0.0707789,0.0986712,0.389161,4165.78,296.857)">
                <path d="M5551.82,1668.34C5551.82,1650.18 5530.11,1635.44 5503.36,1635.44C5476.61,1635.44 5454.9,1650.18 5454.9,1668.34L5454.9,1802.71C5454.9,1820.87 5476.61,1835.6 5503.36,1835.6C5530.11,1835.6 5551.82,1820.87 5551.82,1802.71L5551.82,1668.34Z" style="fill:rgb(235,167,110);"/>
                <clipPath id="_clip1">
                    <path d="M5551.82,1668.34C5551.82,1650.18 5530.11,1635.44 5503.36,1635.44C5476.61,1635.44 5454.9,1650.18 5454.9,1668.34L5454.9,1802.71C5454.9,1820.87 5476.61,1835.6 5503.36,1835.6C5530.11,1835.6 5551.82,1820.87 5551.82,1802.71L5551.82,1668.34Z"/>
                </clipPath>
                <g clip-path="url(#_clip1)">
                    <g transform="matrix(0.537513,-3.52892e-17,5.81548e-17,0.811413,2541.95,432.286)">
                        <rect x="5509.46" y="1453.15" width="150.231" height="286.011" style="fill:rgb(220,151,96);"/>
                    </g>
                </g>
            </g>
            <g transform="matrix(0.674957,0,0,0.713292,1219.33,-154.071)">
                <circle cx="6612.12" cy="1092.8" r="35.439" style="fill:white;"/>
            </g>
            <g transform="matrix(0.674957,0,0,0.713292,1329.25,-154.071)">
                <circle cx="6612.12" cy="1092.8" r="35.439" style="fill:white;"/>
            </g>
            <g transform="matrix(0.13688,0,0,0.144654,5675.42,540.342)">
                <path d="M671.897,250.426C671.897,250.426 717.276,143.484 805.574,104.746C873.861,74.785 947.355,83.713 977.155,89.297C980.754,90.092 983.888,92.287 985.865,95.397C987.841,98.508 988.497,102.278 987.687,105.873C987.799,105.898 987.799,105.898 987.799,105.898C986.097,113.448 978.674,118.254 971.089,116.718C939.142,110.68 857.416,101.345 796.927,147.127C720.146,205.235 698.104,265.546 698.104,265.546L671.897,250.426Z" style="fill:rgb(127,59,47);fill-rule:nonzero;"/>
            </g>
            <g transform="matrix(0.631015,0,0,0.666854,1288.56,-101.98)">
                <ellipse cx="7102.56" cy="995.338" rx="11.89" ry="18.346" style="fill:rgb(0,211,87);"/>
            </g>
            <g transform="matrix(0.620512,0,0,0.655755,1659.76,-124.545)">
                <circle cx="6612.12" cy="1092.8" r="35.439" style="fill:rgb(255,78,98);"/>
            </g>
            <g transform="matrix(0.674957,0,0,0.713292,979.851,-155.865)">
                <circle cx="7082.94" cy="1027.79" r="7.829" style="fill:white;"/>
            </g>
            <g transform="matrix(0.856915,0,0,0.781564,21.5215,-234.839)">
                <circle cx="6674.24" cy="1106.8" r="52.542" style="fill:white;"/>
            </g>
        </g>
    </g>
</svg>
