<?xml version="1.0" encoding="UTF-8" standalone="no"?>
<!DOCTYPE svg PUBLIC "-//W3C//DTD SVG 1.1//EN" "http://www.w3.org/Graphics/SVG/1.1/DTD/svg11.dtd">
<svg width="100%" height="100%" viewBox="0 0 256 256" version="1.1" xmlns="http://www.w3.org/2000/svg" xmlns:xlink="http://www.w3.org/1999/xlink" xml:space="preserve" xmlns:serif="http://www.serif.com/" style="fill-rule:evenodd;clip-rule:evenodd;stroke-linejoin:round;stroke-miterlimit:2;">
    <g id="Cupcake---Strawberry" serif:id="Cupcake - Strawberry" transform="matrix(2.02274,0,0,1.91403,-12396.8,-587.369)">
        <g transform="matrix(0.272252,-0.287715,0.272252,0.287715,4009.35,2282.05)">
            <ellipse cx="7376.24" cy="594.47" rx="13.307" ry="22.556" style="fill:rgb(0,211,87);"/>
        </g>
        <g transform="matrix(0.583114,0,0,0.268198,1971.3,167.757)">
            <path d="M7293.77,730.567C7293.77,713.52 7287.75,699.68 7280.33,699.68L7196.12,699.68C7188.7,699.68 7182.68,713.52 7182.68,730.567C7182.68,747.614 7188.7,761.454 7196.12,761.454L7280.33,761.454C7287.75,761.454 7293.77,747.614 7293.77,730.567Z" style="fill:white;"/>
        </g>
        <g transform="matrix(0.878339,0,0,0.878339,790.539,72.0254)">
            <g transform="matrix(0.775284,0,0,0.819317,397.09,-216.809)">
                <path d="M7410.15,613.47C7412,609.766 7415.78,607.426 7419.93,607.426C7424.07,607.426 7427.85,609.766 7429.71,613.47C7431.56,617.184 7433.49,621.026 7435.28,624.606C7436.97,627.996 7436.79,632.021 7434.8,635.244C7432.8,638.468 7429.28,640.43 7425.49,640.43C7421.85,640.43 7418.01,640.43 7414.36,640.43C7410.57,640.43 7407.05,638.468 7405.06,635.244C7403.07,632.021 7402.89,627.996 7404.58,624.606C7406.37,621.026 7408.29,617.184 7410.15,613.47Z" style="fill:rgb(227,19,81);"/>
            </g>
            <g transform="matrix(0.587579,0,0,0.620952,1789.84,-93.1365)">
                <path d="M7410.52,612.72C7412.3,609.158 7415.94,606.908 7419.93,606.908C7423.91,606.908 7427.55,609.158 7429.33,612.72C7431.41,616.873 7433.58,621.223 7435.58,625.213C7437.21,628.473 7437.03,632.343 7435.12,635.443C7433.2,638.543 7429.82,640.43 7426.17,640.43C7422.1,640.43 7417.75,640.43 7413.68,640.43C7410.04,640.43 7406.65,638.543 7404.74,635.443C7402.82,632.343 7402.65,628.473 7404.28,625.213C7406.27,621.223 7408.45,616.873 7410.52,612.72Z" style="fill:rgb(255,109,163);"/>
            </g>
            <g transform="matrix(0.372954,0,0,0.394137,3382.35,48.9888)">
                <path d="M7411.82,610.133C7413.35,607.061 7416.49,605.12 7419.93,605.12C7423.36,605.12 7426.5,607.061 7428.04,610.133C7430.85,615.749 7433.96,621.97 7436.62,627.306C7438.03,630.117 7437.88,633.456 7436.23,636.129C7434.57,638.803 7431.66,640.43 7428.51,640.43C7423.04,640.43 7416.82,640.43 7411.34,640.43C7408.2,640.43 7405.28,638.803 7403.63,636.129C7401.97,633.456 7401.82,630.117 7403.23,627.306C7405.9,621.97 7409.01,615.749 7411.82,610.133Z" style="fill:rgb(255,171,201);"/>
            </g>
        </g>
        <g transform="matrix(0.445652,0,0,0.250995,2966.28,169.457)">
            <path d="M7293.77,730.567C7293.77,713.52 7286.39,699.68 7277.31,699.68L7199.14,699.68C7190.05,699.68 7182.68,713.52 7182.68,730.567C7182.68,747.614 7190.05,761.454 7199.14,761.454L7277.31,761.454C7286.39,761.454 7293.77,747.614 7293.77,730.567Z" style="fill:white;"/>
        </g>
        <g transform="matrix(0.274889,0,0,0.240285,4202.3,166.927)">
            <path d="M7293.77,730.567C7293.77,713.52 7282.32,699.68 7268.22,699.68L7208.22,699.68C7194.12,699.68 7182.68,713.52 7182.68,730.567C7182.68,747.614 7194.12,761.454 7208.22,761.454L7268.22,761.454C7282.32,761.454 7293.77,747.614 7293.77,730.567Z" style="fill:white;"/>
        </g>
        <g transform="matrix(0.780111,0,0,0.449262,545.39,51.4069)">
            <path d="M7293.77,730.567C7293.77,713.52 7286.23,699.68 7276.94,699.68L7199.51,699.68C7190.22,699.68 7182.68,713.52 7182.68,730.567C7182.68,747.614 7190.22,761.454 7199.51,761.454L7276.94,761.454C7286.23,761.454 7293.77,747.614 7293.77,730.567Z" style="fill:rgb(255,122,173);"/>
        </g>
        <g transform="matrix(0.620512,0,0,0.655755,1700.6,-93.0725)">
            <path d="M7238.23,736.955C7239.25,732.261 7243.43,728.738 7248.42,728.738C7253.41,728.738 7257.59,732.261 7258.61,736.955L7258.64,736.955C7259.65,732.261 7263.83,728.738 7268.83,728.738C7273.82,728.738 7278,732.261 7279.01,736.955L7279.05,736.955C7280.06,732.261 7284.24,728.738 7289.23,728.738C7294.98,728.738 7299.65,733.407 7299.65,739.158C7299.65,744.909 7278.62,799.845 7278.62,799.845C7275.68,808.093 7273.42,810.637 7265.29,810.637L7210.16,810.637C7202.02,810.637 7198.54,805.106 7196.76,799.845C7196.76,799.845 7176.78,744.909 7176.78,739.158C7176.78,733.407 7181.45,728.738 7187.2,728.738C7192.2,728.738 7196.38,732.261 7197.39,736.955L7197.42,736.955C7198.43,732.261 7202.61,728.738 7207.61,728.738C7212.6,728.738 7216.78,732.261 7217.79,736.955L7217.83,736.955C7218.84,732.261 7223.02,728.738 7228.01,728.738C7233.01,728.738 7237.19,732.261 7238.2,736.955L7238.23,736.955Z" style="fill:rgb(254,206,108);"/>
            <clipPath id="_clip1">
                <path d="M7238.23,736.955C7239.25,732.261 7243.43,728.738 7248.42,728.738C7253.41,728.738 7257.59,732.261 7258.61,736.955L7258.64,736.955C7259.65,732.261 7263.83,728.738 7268.83,728.738C7273.82,728.738 7278,732.261 7279.01,736.955L7279.05,736.955C7280.06,732.261 7284.24,728.738 7289.23,728.738C7294.98,728.738 7299.65,733.407 7299.65,739.158C7299.65,744.909 7278.62,799.845 7278.62,799.845C7275.68,808.093 7273.42,810.637 7265.29,810.637L7210.16,810.637C7202.02,810.637 7198.54,805.106 7196.76,799.845C7196.76,799.845 7176.78,744.909 7176.78,739.158C7176.78,733.407 7181.45,728.738 7187.2,728.738C7192.2,728.738 7196.38,732.261 7197.39,736.955L7197.42,736.955C7198.43,732.261 7202.61,728.738 7207.61,728.738C7212.6,728.738 7216.78,732.261 7217.79,736.955L7217.83,736.955C7218.84,732.261 7223.02,728.738 7228.01,728.738C7233.01,728.738 7237.19,732.261 7238.2,736.955L7238.23,736.955Z"/>
            </clipPath>
            <g clip-path="url(#_clip1)">
                <g transform="matrix(0.961863,-0.27353,0.210004,0.738477,101.215,2170.73)">
                    <path d="M7213.72,751.271C7213.72,748.982 7212.29,747.124 7210.53,747.124C7208.78,747.124 7207.35,748.982 7207.35,751.271L7207.35,816.099C7207.35,818.388 7208.78,820.246 7210.53,820.246C7212.29,820.246 7213.72,818.388 7213.72,816.099L7213.72,751.271Z" style="fill:rgb(228,165,93);"/>
                </g>
                <g transform="matrix(0.99248,-0.122407,0.0946644,0.767541,-7.72132,1057.8)">
                    <path d="M7213.72,751.241C7213.72,748.969 7212.29,747.124 7210.53,747.124C7208.78,747.124 7207.35,748.969 7207.35,751.241L7207.35,816.129C7207.35,818.401 7208.78,820.246 7210.53,820.246C7212.29,820.246 7213.72,818.401 7213.72,816.129L7213.72,751.241Z" style="fill:rgb(228,165,93);"/>
                </g>
            </g>
        </g>
        <g transform="matrix(0.49438,0,0,0.522459,6128.72,306.876)">
            <path d="M128,159.464L128.014,159.464C129.284,153.572 134.529,149.151 140.799,149.151C147.069,149.151 152.314,153.572 153.584,159.464L153.626,159.464C154.896,153.572 160.141,149.151 166.411,149.151C172.681,149.151 177.926,153.572 179.196,159.464L179.238,159.464C180.508,153.572 185.753,149.151 192.023,149.151C199.241,149.151 205.102,155.011 205.102,162.229C205.102,169.447 178.705,238.399 178.705,238.399C175.017,248.752 172.181,251.946 161.972,251.946L128,251.946L128,159.464Z" style="fill:rgb(228,165,93);"/>
        </g>
        <g>
            <g transform="matrix(0.351737,0,0,0.371714,3561.59,112.247)">
                <path d="M7378.56,713.271C7379.34,711.723 7380.92,710.746 7382.65,710.746C7384.38,710.746 7385.96,711.723 7386.74,713.271C7387.61,715.023 7388.53,716.853 7389.37,718.537C7390.08,719.953 7390,721.635 7389.17,722.982C7388.34,724.329 7386.87,725.149 7385.28,725.149C7383.57,725.149 7381.74,725.149 7380.02,725.149C7378.43,725.149 7376.96,724.329 7376.13,722.982C7375.3,721.635 7375.22,719.953 7375.93,718.537C7376.77,716.853 7377.69,715.023 7378.56,713.271Z" style="fill:rgb(247,59,132);"/>
            </g>
            <g transform="matrix(0.351737,0,0,0.371714,3577.86,104.246)">
                <path d="M7378.56,713.271C7379.34,711.723 7380.92,710.746 7382.65,710.746C7384.38,710.746 7385.96,711.723 7386.74,713.271C7387.61,715.023 7388.53,716.853 7389.37,718.537C7390.08,719.953 7390,721.635 7389.17,722.982C7388.34,724.329 7386.87,725.149 7385.28,725.149C7383.57,725.149 7381.74,725.149 7380.02,725.149C7378.43,725.149 7376.96,724.329 7376.13,722.982C7375.3,721.635 7375.22,719.953 7375.93,718.537C7376.77,716.853 7377.69,715.023 7378.56,713.271Z" style="fill:rgb(247,59,132);"/>
            </g>
            <g transform="matrix(0.351737,0,0,0.371714,3610.4,104.005)">
                <path d="M7378.56,713.271C7379.34,711.723 7380.92,710.746 7382.65,710.746C7384.38,710.746 7385.96,711.723 7386.74,713.271C7387.61,715.023 7388.53,716.853 7389.37,718.537C7390.08,719.953 7390,721.635 7389.17,722.982C7388.34,724.329 7386.87,725.149 7385.28,725.149C7383.57,725.149 7381.74,725.149 7380.02,725.149C7378.43,725.149 7376.96,724.329 7376.13,722.982C7375.3,721.635 7375.22,719.953 7375.93,718.537C7376.77,716.853 7377.69,715.023 7378.56,713.271Z" style="fill:rgb(247,59,132);"/>
            </g>
            <g transform="matrix(0.351737,6.29329e-17,0,0.371714,3626.68,112.247)">
                <path d="M7378.56,713.271C7379.34,711.723 7380.92,710.746 7382.65,710.746C7384.38,710.746 7385.96,711.723 7386.74,713.271C7387.61,715.023 7388.53,716.853 7389.37,718.537C7390.08,719.953 7390,721.635 7389.17,722.982C7388.34,724.329 7386.87,725.149 7385.28,725.149C7383.57,725.149 7381.74,725.149 7380.02,725.149C7378.43,725.149 7376.96,724.329 7376.13,722.982C7375.3,721.635 7375.22,719.953 7375.93,718.537C7376.77,716.853 7377.69,715.023 7378.56,713.271Z" style="fill:rgb(247,59,132);"/>
            </g>
            <g transform="matrix(0.351737,6.29329e-17,0,0.371714,3594.13,112.247)">
                <path d="M7378.56,713.271C7379.34,711.723 7380.92,710.746 7382.65,710.746C7384.38,710.746 7385.96,711.723 7386.74,713.271C7387.61,715.023 7388.53,716.853 7389.37,718.537C7390.08,719.953 7390,721.635 7389.17,722.982C7388.34,724.329 7386.87,725.149 7385.28,725.149C7383.57,725.149 7381.74,725.149 7380.02,725.149C7378.43,725.149 7376.96,724.329 7376.13,722.982C7375.3,721.635 7375.22,719.953 7375.93,718.537C7376.77,716.853 7377.69,715.023 7378.56,713.271Z" style="fill:rgb(247,59,132);"/>
            </g>
        </g>
    </g>
</svg>
