<?xml version="1.0" encoding="UTF-8" standalone="no"?>
<!DOCTYPE svg PUBLIC "-//W3C//DTD SVG 1.1//EN" "http://www.w3.org/Graphics/SVG/1.1/DTD/svg11.dtd">
<svg width="100%" height="100%" viewBox="0 0 256 256" version="1.1" xmlns="http://www.w3.org/2000/svg" xmlns:xlink="http://www.w3.org/1999/xlink" xml:space="preserve" xmlns:serif="http://www.serif.com/" style="fill-rule:evenodd;clip-rule:evenodd;stroke-linecap:round;stroke-linejoin:round;stroke-miterlimit:1.5;">
    <g id="Cupcake---Choco" serif:id="Cupcake - Choco" transform="matrix(2.02274,0,0,1.91403,-12167,-589.383)">
        <g transform="matrix(0.333783,-0.203655,0.19271,0.352741,3513.59,1414.04)">
            <ellipse cx="7102.56" cy="995.338" rx="11.89" ry="18.346" style="fill:rgb(0,211,87);"/>
        </g>
        <g transform="matrix(0.620512,0,0,0.655755,1587.01,-91.1548)">
            <path d="M7270.44,615.731C7250.81,613.232 7239.79,619.337 7239.66,636.345" style="fill:none;stroke:rgb(127,59,47);stroke-width:4px;"/>
        </g>
        <g transform="matrix(0.921812,0,0,0.974168,-367.81,-512.547)">
            <circle cx="6993.96" cy="868.361" r="11.333" style="fill:rgb(255,78,86);"/>
        </g>
        <g transform="matrix(0.219124,0,0,0.23157,4545.87,126.331)">
            <circle cx="6993.96" cy="868.361" r="11.333" style="fill:rgb(255,198,200);"/>
        </g>
        <g transform="matrix(0.583114,0,0,0.268198,1857.71,167.107)">
            <path d="M7293.77,730.567C7293.77,713.52 7287.75,699.68 7280.33,699.68L7196.12,699.68C7188.7,699.68 7182.68,713.52 7182.68,730.567C7182.68,747.614 7188.7,761.454 7196.12,761.454L7280.33,761.454C7287.75,761.454 7293.77,747.614 7293.77,730.567Z" style="fill:white;"/>
        </g>
        <g transform="matrix(0.445652,0,0,0.250995,2852.69,168.808)">
            <path d="M7293.77,730.567C7293.77,713.52 7286.39,699.68 7277.31,699.68L7199.14,699.68C7190.05,699.68 7182.68,713.52 7182.68,730.567C7182.68,747.614 7190.05,761.454 7199.14,761.454L7277.31,761.454C7286.39,761.454 7293.77,747.614 7293.77,730.567Z" style="fill:white;"/>
        </g>
        <g transform="matrix(0.274889,0,0,0.240285,4088.71,166.278)">
            <path d="M7293.77,730.567C7293.77,713.52 7282.32,699.68 7268.22,699.68L7208.22,699.68C7194.12,699.68 7182.68,713.52 7182.68,730.567C7182.68,747.614 7194.12,761.454 7208.22,761.454L7268.22,761.454C7282.32,761.454 7293.77,747.614 7293.77,730.567Z" style="fill:white;"/>
        </g>
        <g transform="matrix(0.780111,0,0,0.449262,431.804,50.7575)">
            <path d="M7293.77,730.567C7293.77,713.52 7286.23,699.68 7276.94,699.68L7199.51,699.68C7190.22,699.68 7182.68,713.52 7182.68,730.567C7182.68,747.614 7190.22,761.454 7199.51,761.454L7276.94,761.454C7286.23,761.454 7293.77,747.614 7293.77,730.567Z" style="fill:rgb(168,94,75);"/>
        </g>
        <g transform="matrix(0.620512,0,0,0.655755,1587.01,-93.7219)">
            <path d="M7238.23,736.955C7239.25,732.261 7243.43,728.738 7248.42,728.738C7253.41,728.738 7257.59,732.261 7258.61,736.955L7258.64,736.955C7259.65,732.261 7263.83,728.738 7268.83,728.738C7273.82,728.738 7278,732.261 7279.01,736.955L7279.05,736.955C7280.06,732.261 7284.24,728.738 7289.23,728.738C7294.98,728.738 7299.65,733.407 7299.65,739.158C7299.65,744.909 7278.62,799.845 7278.62,799.845C7275.68,808.093 7273.42,810.637 7265.29,810.637L7210.16,810.637C7202.02,810.637 7198.54,805.106 7196.76,799.845C7196.76,799.845 7176.78,744.909 7176.78,739.158C7176.78,733.407 7181.45,728.738 7187.2,728.738C7192.2,728.738 7196.38,732.261 7197.39,736.955L7197.42,736.955C7198.43,732.261 7202.61,728.738 7207.61,728.738C7212.6,728.738 7216.78,732.261 7217.79,736.955L7217.83,736.955C7218.84,732.261 7223.02,728.738 7228.01,728.738C7233.01,728.738 7237.19,732.261 7238.2,736.955L7238.23,736.955Z" style="fill:rgb(254,206,108);"/>
            <clipPath id="_clip1">
                <path d="M7238.23,736.955C7239.25,732.261 7243.43,728.738 7248.42,728.738C7253.41,728.738 7257.59,732.261 7258.61,736.955L7258.64,736.955C7259.65,732.261 7263.83,728.738 7268.83,728.738C7273.82,728.738 7278,732.261 7279.01,736.955L7279.05,736.955C7280.06,732.261 7284.24,728.738 7289.23,728.738C7294.98,728.738 7299.65,733.407 7299.65,739.158C7299.65,744.909 7278.62,799.845 7278.62,799.845C7275.68,808.093 7273.42,810.637 7265.29,810.637L7210.16,810.637C7202.02,810.637 7198.54,805.106 7196.76,799.845C7196.76,799.845 7176.78,744.909 7176.78,739.158C7176.78,733.407 7181.45,728.738 7187.2,728.738C7192.2,728.738 7196.38,732.261 7197.39,736.955L7197.42,736.955C7198.43,732.261 7202.61,728.738 7207.61,728.738C7212.6,728.738 7216.78,732.261 7217.79,736.955L7217.83,736.955C7218.84,732.261 7223.02,728.738 7228.01,728.738C7233.01,728.738 7237.19,732.261 7238.2,736.955L7238.23,736.955Z"/>
            </clipPath>
            <g clip-path="url(#_clip1)">
                <g transform="matrix(0.961863,-0.27353,0.210004,0.738477,101.215,2170.73)">
                    <path d="M7213.72,751.271C7213.72,748.982 7212.29,747.124 7210.53,747.124C7208.78,747.124 7207.35,748.982 7207.35,751.271L7207.35,816.099C7207.35,818.388 7208.78,820.246 7210.53,820.246C7212.29,820.246 7213.72,818.388 7213.72,816.099L7213.72,751.271Z" style="fill:rgb(228,165,93);"/>
                </g>
                <g transform="matrix(0.99248,-0.122407,0.0946644,0.767541,-7.72132,1057.8)">
                    <path d="M7213.72,751.241C7213.72,748.969 7212.29,747.124 7210.53,747.124C7208.78,747.124 7207.35,748.969 7207.35,751.241L7207.35,816.129C7207.35,818.401 7208.78,820.246 7210.53,820.246C7212.29,820.246 7213.72,818.401 7213.72,816.129L7213.72,751.241Z" style="fill:rgb(228,165,93);"/>
                </g>
            </g>
        </g>
        <g transform="matrix(0.49438,0,0,0.522459,6015.14,307.928)">
            <path d="M128,156.207L128.014,156.207C129.284,150.315 134.529,145.894 140.799,145.894C147.069,145.894 152.314,150.315 153.584,156.207L153.626,156.207C154.896,150.315 160.141,145.894 166.411,145.894C172.681,145.894 177.926,150.315 179.196,156.207L179.238,156.207C180.508,150.315 185.753,145.894 192.023,145.894C199.241,145.894 205.102,151.754 205.102,158.972C205.102,166.19 178.705,235.142 178.705,235.142C175.017,245.495 172.181,248.689 161.972,248.689L128,248.689L128,156.207Z" style="fill:rgb(228,165,93);"/>
        </g>
        <g>
            <g transform="matrix(0.411355,0,0,0.434719,3088.07,63.1015)">
                <circle cx="7189.19" cy="711.23" r="4.512" style="fill:rgb(127,59,47);"/>
            </g>
            <g transform="matrix(0.411355,0,0,0.434719,3110.23,62.213)">
                <circle cx="7189.19" cy="711.23" r="4.512" style="fill:rgb(127,59,47);"/>
            </g>
            <g transform="matrix(0.411355,0,0,0.434719,3099.15,69.3693)">
                <circle cx="7189.19" cy="711.23" r="4.512" style="fill:rgb(127,59,47);"/>
            </g>
            <g transform="matrix(0.411355,0,0,0.434719,3121.31,68.7213)">
                <circle cx="7189.19" cy="711.23" r="4.512" style="fill:rgb(127,59,47);"/>
            </g>
            <g transform="matrix(0.411355,0,0,0.434719,3143.46,68.7173)">
                <circle cx="7189.19" cy="711.23" r="4.512" style="fill:rgb(127,59,47);"/>
            </g>
            <g transform="matrix(0.411355,0,0,0.434719,3132.38,62.213)">
                <circle cx="7189.19" cy="711.23" r="4.512" style="fill:rgb(127,59,47);"/>
            </g>
            <g transform="matrix(0.411355,0,0,0.434719,3154.54,62.213)">
                <circle cx="7189.19" cy="711.23" r="4.512" style="fill:rgb(127,59,47);"/>
            </g>
        </g>
    </g>
</svg>
