<?xml version="1.0" encoding="UTF-8" standalone="no"?>
<!DOCTYPE svg PUBLIC "-//W3C//DTD SVG 1.1//EN" "http://www.w3.org/Graphics/SVG/1.1/DTD/svg11.dtd">
<svg width="100%" height="100%" viewBox="0 0 256 256" version="1.1" xmlns="http://www.w3.org/2000/svg" xmlns:xlink="http://www.w3.org/1999/xlink" xml:space="preserve" xmlns:serif="http://www.serif.com/" style="fill-rule:evenodd;clip-rule:evenodd;stroke-linejoin:round;stroke-miterlimit:2;">
    <g id="Dice" transform="matrix(3.68402,0,0,3.68402,-416.647,-412.587)">
        <g transform="matrix(1.24806,0,0,1.24806,-36.6732,-36.3998)">
            <path d="M173.843,133.737C173.843,126.562 168.017,120.736 160.842,120.736L134.839,120.736C127.664,120.736 121.838,126.562 121.838,133.737L121.838,159.739C121.838,166.915 127.664,172.741 134.839,172.741L160.842,172.741C168.017,172.741 173.843,166.915 173.843,159.739L173.843,133.737Z" style="fill:white;"/>
        </g>
        <g transform="matrix(0.271443,0,0,0.271443,113.096,111.994)">
            <path d="M128,8.445L128,247.555L187.778,247.555C220.77,247.555 247.555,220.77 247.555,187.778L247.555,68.222C247.555,35.23 220.77,8.445 187.778,8.445L128,8.445Z" style="fill:rgb(221,226,230);"/>
        </g>
        <g transform="matrix(1,1.66533e-16,5.55112e-17,1,-0.485573,-0.0124167)">
            <circle cx="134.133" cy="132.558" r="6.309" style="fill:rgb(70,78,86);"/>
        </g>
        <g transform="matrix(0.271443,0,0,0.271443,113.096,111.994)">
            <path d="M75.714,52.473C88.541,52.473 98.955,62.887 98.955,75.714C98.955,88.541 88.541,98.955 75.714,98.955L75.714,52.473Z" style="fill:rgb(50,58,65);"/>
        </g>
        <g transform="matrix(1,1.66533e-16,5.55112e-17,1,13.7071,14.1803)">
            <circle cx="134.133" cy="132.558" r="6.309" style="fill:rgb(70,78,86);"/>
        </g>
        <g transform="matrix(0.271443,0,0,0.271443,113.096,111.994)">
            <path d="M128,104.759C140.827,104.759 151.241,115.173 151.241,128C151.241,140.827 140.827,151.241 128,151.241C128,151.241 128,104.759 128,104.759Z" style="fill:rgb(50,58,65);"/>
        </g>
        <g transform="matrix(1,1.66533e-16,5.55112e-17,1,27.8999,28.373)">
            <circle cx="134.133" cy="132.558" r="6.309" style="fill:rgb(70,78,86);"/>
        </g>
        <g transform="matrix(0.271443,0,0,0.271443,113.096,111.994)">
            <path d="M180.286,157.045C193.113,157.045 203.527,167.459 203.527,180.286C203.527,193.113 193.113,203.527 180.286,203.527L180.286,157.045Z" style="fill:rgb(50,58,65);"/>
        </g>
    </g>
</svg>
