<?xml version="1.0" encoding="UTF-8" standalone="no"?>
<!DOCTYPE svg PUBLIC "-//W3C//DTD SVG 1.1//EN" "http://www.w3.org/Graphics/SVG/1.1/DTD/svg11.dtd">
<svg width="100%" height="100%" viewBox="0 0 256 256" version="1.1" xmlns="http://www.w3.org/2000/svg" xmlns:xlink="http://www.w3.org/1999/xlink" xml:space="preserve" xmlns:serif="http://www.serif.com/" style="fill-rule:evenodd;clip-rule:evenodd;stroke-linejoin:round;stroke-miterlimit:2;">
    <g id="Doble-Axe" serif:id="Doble Axe" transform="matrix(2.50122,2.80828e-16,0,3.81425,-13383.5,-4024.24)">
        <g transform="matrix(0.640075,0,0,1.07534,2017.29,-870.599)">
            <path d="M5297.81,1800.85C5297.81,1799.78 5295.58,1798.9 5292.83,1798.9L5282.87,1798.9C5280.12,1798.9 5277.89,1799.78 5277.89,1800.85L5277.89,1845.35C5277.89,1846.42 5280.12,1847.3 5282.87,1847.3L5292.83,1847.3C5295.58,1847.3 5297.81,1846.42 5297.81,1845.35L5297.81,1800.85Z" style="fill:rgb(207,110,83);"/>
            <clipPath id="_clip1">
                <path d="M5297.81,1800.85C5297.81,1799.78 5295.58,1798.9 5292.83,1798.9L5282.87,1798.9C5280.12,1798.9 5277.89,1799.78 5277.89,1800.85L5277.89,1845.35C5277.89,1846.42 5280.12,1847.3 5282.87,1847.3L5292.83,1847.3C5295.58,1847.3 5297.81,1846.42 5297.81,1845.35L5297.81,1800.85Z"/>
            </clipPath>
            <g clip-path="url(#_clip1)">
                <g transform="matrix(0.828224,-8.18671e-18,0,0.844669,914.76,317.657)">
                    <rect x="5280.08" y="1755.94" width="12.026" height="48.622" style="fill:rgb(181,87,72);"/>
                </g>
            </g>
        </g>
        <g transform="matrix(1,0,0,1,91.1012,-112.745)">
            <g transform="matrix(0.76728,0,0,0.503148,1233.78,214.038)">
                <circle cx="5301.15" cy="2012.2" r="3.704" style="fill:rgb(115,46,49);"/>
            </g>
            <g transform="matrix(0.76728,0,0,0.503148,1252.92,214.038)">
                <circle cx="5301.15" cy="2012.2" r="3.704" style="fill:rgb(115,46,49);"/>
            </g>
        </g>
        <g transform="matrix(0.965332,0,0,0.286404,297.382,591.318)">
            <path d="M5297.81,1809.91C5297.81,1803.84 5295.58,1798.9 5292.83,1798.9L5282.87,1798.9C5280.12,1798.9 5277.89,1803.84 5277.89,1809.91L5277.89,1836.29C5277.89,1842.36 5280.12,1847.3 5282.87,1847.3L5292.83,1847.3C5295.58,1847.3 5297.81,1842.36 5297.81,1836.29L5297.81,1809.91Z" style="fill:rgb(162,66,69);"/>
        </g>
        <g transform="matrix(0.399805,-2.94361e-17,0,0.262175,5350.78,1055.05)">
            <path d="M127.899,196.351L127.899,249.214L139.924,249.214C146.561,249.214 151.949,243.826 151.949,237.189L151.949,208.376C151.949,201.739 146.561,196.351 139.924,196.351L127.899,196.351Z" style="fill:rgb(147,60,62);"/>
        </g>
        <g transform="matrix(-5.15638,-3.2852e-16,1.02394e-14,4.10634,6849.36,-12580.3)">
            <g transform="matrix(0.206568,0,0,0.148224,-705.053,2113.74)">
                <path d="M4731.01,8180.99C4731.9,8150.18 4742.18,8141.23 4747.45,8146.01C4753.16,8151.19 4747.87,8173.59 4765.6,8167.42C4767.24,8171.54 4767.24,8190.69 4765.6,8194.81C4747.87,8188.64 4753.16,8211.04 4747.45,8216.22C4742.18,8221 4731.9,8212.05 4731.01,8181.24L4731,8181.24L4731,8181.11L4731,8180.99L4731.01,8180.99Z" style="fill:rgb(205,212,219);"/>
            </g>
            <g transform="matrix(0.206568,0,0,0.148224,-705.053,2113.74)">
                <path d="M4736.85,8180.99C4736.9,8163.18 4741.94,8148.75 4748.15,8148.75C4752.67,8148.75 4747.87,8173.59 4765.6,8167.42C4767.24,8171.54 4767.24,8190.69 4765.6,8194.81C4747.87,8188.64 4752.67,8213.48 4748.15,8213.48C4741.94,8213.48 4736.9,8199.05 4736.85,8181.24L4736.85,8181.24L4736.85,8181.2L4736.85,8181.11L4736.85,8181.02L4736.85,8180.99L4736.85,8180.99Z" style="fill:rgb(171,181,190);"/>
            </g>
            <g transform="matrix(-0.0775361,-1.33716e-17,1.26784e-16,0.0638463,290.627,3320.56)">
                <path d="M161.284,120.714L161.284,61.474C156.876,61.85 151.582,61.23 145.19,59.292C140.833,68.867 140.833,113.321 145.19,122.895C151.582,120.958 156.876,120.338 161.284,120.714Z" style="fill:rgb(132,142,151);"/>
            </g>
        </g>
        <g transform="matrix(5.15638,-1.08781e-15,-1.02394e-14,4.10634,3954.55,-12580.3)">
            <g transform="matrix(0.206568,0,0,0.148224,-705.053,2113.74)">
                <path d="M4731.01,8180.99C4731.9,8150.18 4742.18,8141.23 4747.45,8146.01C4753.16,8151.19 4747.87,8173.59 4765.6,8167.42C4767.24,8171.54 4767.24,8190.69 4765.6,8194.81C4747.87,8188.64 4753.16,8211.04 4747.45,8216.22C4742.18,8221 4731.9,8212.05 4731.01,8181.24L4731,8181.24L4731,8181.11L4731,8180.99L4731.01,8180.99Z" style="fill:rgb(205,212,219);"/>
            </g>
            <g transform="matrix(0.206568,0,0,0.148224,-705.053,2113.74)">
                <path d="M4736.85,8180.99C4736.9,8163.18 4741.94,8148.75 4748.15,8148.75C4752.67,8148.75 4747.87,8173.59 4765.6,8167.42C4767.24,8171.54 4767.24,8190.69 4765.6,8194.81C4747.87,8188.64 4752.67,8213.48 4748.15,8213.48C4741.94,8213.48 4736.9,8199.05 4736.85,8181.24L4736.85,8181.24L4736.85,8181.2L4736.85,8181.11L4736.85,8181.02L4736.85,8180.99L4736.85,8180.99Z" style="fill:rgb(171,181,190);"/>
            </g>
            <g transform="matrix(0.0775361,1.33716e-17,1.26784e-16,0.0638463,270.778,3320.56)">
                <path d="M94.716,61.474C99.124,61.85 104.418,61.23 110.81,59.292C115.167,68.867 115.167,113.321 110.81,122.895C104.418,120.958 99.124,120.338 94.716,120.714L94.716,61.474Z" style="fill:rgb(132,142,151);"/>
            </g>
        </g>
        <g transform="matrix(0.903509,0,0,0.446517,624.292,264.89)">
            <path d="M5297.81,1805.51C5297.81,1801.87 5295.58,1798.9 5292.83,1798.9L5282.87,1798.9C5280.12,1798.9 5277.89,1801.87 5277.89,1805.51L5277.89,1840.69C5277.89,1844.33 5280.12,1847.3 5282.87,1847.3L5292.83,1847.3C5295.58,1847.3 5297.81,1844.33 5297.81,1840.69L5297.81,1805.51Z" style="fill:rgb(0,173,194);"/>
            <clipPath id="_clip2">
                <path d="M5297.81,1805.51C5297.81,1801.87 5295.58,1798.9 5292.83,1798.9L5282.87,1798.9C5280.12,1798.9 5277.89,1801.87 5277.89,1805.51L5277.89,1840.69C5277.89,1844.33 5280.12,1847.3 5282.87,1847.3L5292.83,1847.3C5295.58,1847.3 5297.81,1844.33 5297.81,1840.69L5297.81,1805.51Z"/>
            </clipPath>
            <g clip-path="url(#_clip2)">
                <g transform="matrix(1.03557,0,0,1.11225,-180.054,-155.457)">
                    <rect x="5280.08" y="1755.94" width="12.026" height="48.622" style="fill:rgb(0,155,176);"/>
                </g>
            </g>
        </g>
        <g transform="matrix(0.965926,0.169722,-0.258819,0.633411,741.864,-979.949)">
            <path d="M5326.64,1830.74C5326.64,1829.7 5325.79,1828.86 5324.76,1828.86L5305.21,1828.86C5304.17,1828.86 5303.33,1829.7 5303.33,1830.74C5303.33,1831.78 5304.17,1832.62 5305.21,1832.62L5324.76,1832.62C5325.79,1832.62 5326.64,1831.78 5326.64,1830.74Z" style="fill:rgb(0,135,156);"/>
            <clipPath id="_clip3">
                <path d="M5326.64,1830.74C5326.64,1829.7 5325.79,1828.86 5324.76,1828.86L5305.21,1828.86C5304.17,1828.86 5303.33,1829.7 5303.33,1830.74C5303.33,1831.78 5304.17,1832.62 5305.21,1832.62L5324.76,1832.62C5325.79,1832.62 5326.64,1831.78 5326.64,1830.74Z"/>
            </clipPath>
            <g clip-path="url(#_clip3)">
                <g transform="matrix(0.903767,-0.242164,0.0534342,0.199419,448.235,2755.65)">
                    <rect x="5280.08" y="1755.94" width="12.026" height="48.622" style="fill:rgb(0,116,136);"/>
                </g>
            </g>
        </g>
        <g transform="matrix(0.965926,0.169722,-0.258819,0.633411,741.864,-986.349)">
            <path d="M5326.64,1830.74C5326.64,1829.7 5325.79,1828.86 5324.76,1828.86L5305.21,1828.86C5304.17,1828.86 5303.33,1829.7 5303.33,1830.74C5303.33,1831.78 5304.17,1832.62 5305.21,1832.62L5324.76,1832.62C5325.79,1832.62 5326.64,1831.78 5326.64,1830.74Z" style="fill:rgb(0,135,156);"/>
            <clipPath id="_clip4">
                <path d="M5326.64,1830.74C5326.64,1829.7 5325.79,1828.86 5324.76,1828.86L5305.21,1828.86C5304.17,1828.86 5303.33,1829.7 5303.33,1830.74C5303.33,1831.78 5304.17,1832.62 5305.21,1832.62L5324.76,1832.62C5325.79,1832.62 5326.64,1831.78 5326.64,1830.74Z"/>
            </clipPath>
            <g clip-path="url(#_clip4)">
                <g transform="matrix(0.903767,-0.242164,0.0534342,0.199419,448.128,2755.25)">
                    <rect x="5280.08" y="1755.94" width="12.026" height="48.622" style="fill:rgb(0,116,136);"/>
                </g>
            </g>
        </g>
        <g transform="matrix(0.901342,0,0,0.59106,612.048,27.4096)">
            <path d="M5312.63,1745.98C5313,1745.51 5313.56,1745.24 5314.15,1745.24C5314.74,1745.24 5315.3,1745.51 5315.66,1745.98C5317.9,1748.86 5322.03,1754.16 5323.8,1756.42C5323.95,1756.62 5323.98,1756.89 5323.87,1757.12C5323.76,1757.34 5323.53,1757.49 5323.28,1757.49C5319.49,1757.49 5308.81,1757.49 5305.02,1757.49C5304.76,1757.49 5304.53,1757.34 5304.42,1757.12C5304.31,1756.89 5304.34,1756.62 5304.49,1756.42C5306.26,1754.16 5310.39,1748.86 5312.63,1745.98Z" style="fill:rgb(255,236,140);"/>
        </g>
        <g transform="matrix(0.399805,-2.94361e-17,0,0.262175,5350.78,1055.05)">
            <path d="M127.899,14.867C129.232,14.867 130.49,15.481 131.309,16.533C136.366,23.021 145.683,34.977 149.657,40.077C150.007,40.526 150.071,41.135 149.821,41.647C149.571,42.159 149.051,42.484 148.481,42.484L127.899,42.484L127.899,14.867Z" style="fill:rgb(230,192,67);"/>
        </g>
        <g transform="matrix(0.76728,0,0,0.503148,1334.45,101.293)">
            <circle cx="5301.15" cy="2012.2" r="3.704" style="fill:rgb(115,46,49);"/>
        </g>
    </g>
</svg>
