<?xml version="1.0" encoding="UTF-8" standalone="no"?>
<!DOCTYPE svg PUBLIC "-//W3C//DTD SVG 1.1//EN" "http://www.w3.org/Graphics/SVG/1.1/DTD/svg11.dtd">
<svg width="100%" height="100%" viewBox="0 0 256 256" version="1.1" xmlns="http://www.w3.org/2000/svg" xmlns:xlink="http://www.w3.org/1999/xlink" xml:space="preserve" xmlns:serif="http://www.serif.com/" style="fill-rule:evenodd;clip-rule:evenodd;stroke-linejoin:round;stroke-miterlimit:2;">
    <g id="Earth" transform="matrix(2.13171,0,0,2.13171,-15314.2,-2570.19)">
        <circle cx="7244.05" cy="1265.74" r="56.862" style="fill:rgb(0,155,247);"/>
        <clipPath id="_clip1">
            <circle cx="7244.05" cy="1265.74" r="56.862"/>
        </clipPath>
        <g clip-path="url(#_clip1)">
            <g transform="matrix(0.469108,0,0,0.469108,7184,1205.7)">
                <path d="M128,6.786C194.9,6.786 249.214,61.1 249.214,128C249.214,194.9 194.9,249.214 128,249.214L128,6.786Z" style="fill:rgb(32,117,171);"/>
            </g>
            <g transform="matrix(0.469108,0,0,0.469108,7184,1205.7)">
                <path d="M175.013,16.255C218.589,34.626 249.214,77.765 249.214,128C249.214,129.077 249.2,130.151 249.172,131.221C238.027,139.09 224.426,143.716 209.754,143.716C171.967,143.716 141.289,113.037 141.289,75.251C141.289,50.141 154.835,28.171 175.013,16.255Z" style="fill:rgb(128,172,61);"/>
            </g>
            <g transform="matrix(1,0,0,1,-14.0947,-4.54258)">
                <circle cx="7258.14" cy="1240.53" r="16.945" style="fill:rgb(176,223,77);"/>
            </g>
            <g transform="matrix(0.469108,0,0,0.469108,7184,1205.7)">
                <path d="M128,28.438C147.936,28.438 164.122,44.623 164.122,64.559C164.122,84.496 147.936,100.681 128,100.681L128,28.438Z" style="fill:rgb(128,172,61);"/>
            </g>
            <g transform="matrix(0.469108,0,0,0.469108,7184,1205.7)">
                <path d="M8.733,149.731C19.857,136.45 36.557,128 55.215,128C88.665,128 115.822,155.157 115.822,188.607C115.822,211.219 103.412,230.956 85.041,241.369C45.868,226.497 16.38,191.9 8.733,149.731Z" style="fill:rgb(176,223,77);"/>
            </g>
            <g transform="matrix(1.05652,0,0,1.05652,-411.962,-71.5469)">
                <circle cx="7247.2" cy="1297.08" r="10.941" style="fill:rgb(176,223,77);"/>
            </g>
            <g transform="matrix(0.469108,0,0,0.469108,7184,1205.7)">
                <path d="M128,173.957C128.549,173.921 129.102,173.902 129.66,173.902C143.259,173.902 154.301,184.943 154.301,198.543C154.301,212.143 143.259,223.184 129.66,223.184C129.102,223.184 128.549,223.166 128,223.129L128,173.957Z" style="fill:rgb(128,172,61);"/>
            </g>
            <g transform="matrix(0.50924,0,0,0.50924,3565.29,614.417)">
                <circle cx="7247.2" cy="1297.08" r="10.941" style="fill:rgb(128,172,61);"/>
            </g>
            <g transform="matrix(0.469108,0,0,0.469108,7184,1205.7)">
                <path d="M238.607,177.626C231.125,194.263 219.997,208.912 206.237,220.557C205.822,218.362 205.605,216.098 205.605,213.784C205.605,194.86 220.115,179.298 238.607,177.626Z" style="fill:rgb(128,172,61);"/>
            </g>
            <g transform="matrix(1,0,0,1,-2.37513,1.75941)">
                <circle cx="7213.26" cy="1245.2" r="5.965" style="fill:rgb(176,223,77);"/>
            </g>
        </g>
    </g>
</svg>
