<?xml version="1.0" encoding="UTF-8" standalone="no"?>
<!DOCTYPE svg PUBLIC "-//W3C//DTD SVG 1.1//EN" "http://www.w3.org/Graphics/SVG/1.1/DTD/svg11.dtd">
<svg width="100%" height="100%" viewBox="0 0 256 256" version="1.1" xmlns="http://www.w3.org/2000/svg" xmlns:xlink="http://www.w3.org/1999/xlink" xml:space="preserve" xmlns:serif="http://www.serif.com/" style="fill-rule:evenodd;clip-rule:evenodd;stroke-linecap:round;stroke-linejoin:round;stroke-miterlimit:1.5;">
    <g id="Emoji---Neutral" serif:id="Emoji - Neutral" transform="matrix(1.29117,0,0,1.29117,-37.27,-37.27)">
        <g transform="matrix(1.57425,0,0,1.57425,-7945.93,-2214.41)">
            <circle cx="5128.76" cy="1487.95" r="61.734" style="fill:rgb(255,216,0);"/>
        </g>
        <g>
            <g transform="matrix(5.63448,0,5.35528e-16,4.39429,-27900.3,-4284.01)">
                <circle cx="4965.19" cy="1006.27" r="3.19" style="fill:rgb(255,158,6);"/>
            </g>
            <g transform="matrix(5.63448,0,-5.35528e-16,4.39429,-27796.2,-4284.01)">
                <circle cx="4965.19" cy="1006.27" r="3.19" style="fill:rgb(255,158,6);"/>
            </g>
        </g>
        <g>
            <g transform="matrix(3.21574,0,0,3.21574,-15882.2,-3127.59)">
                <circle cx="4965.19" cy="1006.27" r="3.19" style="fill:rgb(41,47,52);"/>
            </g>
            <g transform="matrix(3.21574,0,0,3.21574,-15795.3,-3126.41)">
                <circle cx="4965.19" cy="1006.27" r="3.19" style="fill:rgb(41,47,52);"/>
            </g>
        </g>
        <g transform="matrix(3.39508,0,0,-3.39508,-16798.5,3560.67)">
            <path d="M4979.24,1010.67L4991.94,1010.67" style="fill:none;stroke:rgb(118,35,0);stroke-width:2.13px;"/>
        </g>
    </g>
</svg>
