<?xml version="1.0" encoding="UTF-8" standalone="no"?>
<!DOCTYPE svg PUBLIC "-//W3C//DTD SVG 1.1//EN" "http://www.w3.org/Graphics/SVG/1.1/DTD/svg11.dtd">
<svg width="100%" height="100%" viewBox="0 0 256 256" version="1.1" xmlns="http://www.w3.org/2000/svg" xmlns:xlink="http://www.w3.org/1999/xlink" xml:space="preserve" xmlns:serif="http://www.serif.com/" style="fill-rule:evenodd;clip-rule:evenodd;stroke-linejoin:round;stroke-miterlimit:2;">
    <g id="Emoji---Crying" serif:id="Emoji - Crying" transform="matrix(1.29117,0,0,1.29117,-37.27,-37.27)">
        <g transform="matrix(1.57425,0,0,1.57425,-7945.93,-2214.41)">
            <circle cx="5128.76" cy="1487.95" r="61.734" style="fill:rgb(255,216,0);"/>
        </g>
        <g transform="matrix(3.21574,0,0,3.21574,-15937.8,-2825.02)">
            <g transform="matrix(1,0,0,1,20.3927,-93.7219)">
                <circle cx="4965.19" cy="1006.27" r="3.19" style="fill:rgb(41,47,52);"/>
            </g>
            <g transform="matrix(1,0,0,1,41.229,-93.7219)">
                <circle cx="4965.19" cy="1006.27" r="3.19" style="fill:rgb(41,47,52);"/>
            </g>
        </g>
        <g transform="matrix(1,0,0,1,-0.754159,0)">
            <g transform="matrix(0.781791,-0.20948,0.20948,0.781791,-6140.83,887.849)">
                <rect x="7667.07" y="1034.17" width="51.46" height="23.248" style="fill:rgb(255,211,0);"/>
            </g>
            <g transform="matrix(-0.781791,-0.20948,-0.20948,0.781791,6398.33,887.849)">
                <rect x="7667.07" y="1034.17" width="51.46" height="23.248" style="fill:rgb(255,211,0);"/>
            </g>
        </g>
        <g transform="matrix(1,0,0,1,-3.72526,-10.1826)">
            <g transform="matrix(0.581801,0.335903,-0.269236,0.46633,-4231.82,-3063.33)">
                <path d="M7961.77,1129.59C7959.97,1125.64 7956.61,1123.2 7952.98,1123.2C7949.34,1123.2 7945.98,1125.64 7944.18,1129.59C7937.13,1145.14 7928.41,1166.82 7928.41,1178.9C7928.41,1195.81 7939.42,1209.54 7952.98,1209.54C7966.53,1209.54 7977.54,1195.81 7977.54,1178.9C7977.54,1166.82 7968.82,1145.14 7961.77,1129.59Z" style="fill:rgb(0,172,254);"/>
            </g>
            <g transform="matrix(-0.581801,0.335903,0.269236,0.46633,4495.28,-3063.33)">
                <path d="M7961.77,1129.59C7959.97,1125.64 7956.61,1123.2 7952.98,1123.2C7949.34,1123.2 7945.98,1125.64 7944.18,1129.59C7937.13,1145.14 7928.41,1166.82 7928.41,1178.9C7928.41,1195.81 7939.42,1209.54 7952.98,1209.54C7966.53,1209.54 7977.54,1195.81 7977.54,1178.9C7977.54,1166.82 7968.82,1145.14 7961.77,1129.59Z" style="fill:rgb(0,172,254);"/>
            </g>
        </g>
        <g transform="matrix(5.7729e-17,0.942786,-0.80937,4.95596e-17,1046.46,-7165.47)">
            <path d="M7756.22,1112.44C7756.89,1111.11 7756.81,1109.43 7756.02,1108.19C7755.23,1106.94 7753.88,1106.36 7752.59,1106.71C7740.16,1110 7730.99,1121.33 7730.99,1134.79C7730.99,1148.25 7740.16,1159.58 7752.59,1162.89C7753.89,1163.24 7755.24,1162.65 7756.04,1161.4C7756.83,1160.15 7756.91,1158.47 7756.24,1157.12C7753.33,1150.88 7751.34,1143.06 7751.34,1134.79C7751.34,1126.52 7753.33,1118.7 7756.22,1112.44Z" style="fill:rgb(118,35,0);"/>
            <clipPath id="_clip1">
                <path d="M7756.22,1112.44C7756.89,1111.11 7756.81,1109.43 7756.02,1108.19C7755.23,1106.94 7753.88,1106.36 7752.59,1106.71C7740.16,1110 7730.99,1121.33 7730.99,1134.79C7730.99,1148.25 7740.16,1159.58 7752.59,1162.89C7753.89,1163.24 7755.24,1162.65 7756.04,1161.4C7756.83,1160.15 7756.91,1158.47 7756.24,1157.12C7753.33,1150.88 7751.34,1143.06 7751.34,1134.79C7751.34,1126.52 7753.33,1118.7 7756.22,1112.44Z"/>
            </clipPath>
            <g clip-path="url(#_clip1)">
                <g transform="matrix(4.39345e-17,-0.835779,0.792389,5.65179e-17,7117.47,7182.81)">
                    <circle cx="7236.38" cy="818.842" r="25.228" style="fill:rgb(236,33,0);"/>
                </g>
            </g>
        </g>
    </g>
</svg>
