<?xml version="1.0" encoding="UTF-8" standalone="no"?>
<!DOCTYPE svg PUBLIC "-//W3C//DTD SVG 1.1//EN" "http://www.w3.org/Graphics/SVG/1.1/DTD/svg11.dtd">
<svg width="100%" height="100%" viewBox="0 0 256 256" version="1.1" xmlns="http://www.w3.org/2000/svg" xmlns:xlink="http://www.w3.org/1999/xlink" xml:space="preserve" xmlns:serif="http://www.serif.com/" style="fill-rule:evenodd;clip-rule:evenodd;stroke-linecap:round;stroke-linejoin:round;stroke-miterlimit:1.5;">
    <g id="Emoji---Sleeping" serif:id="Emoji - Sleeping" transform="matrix(1.29117,0,0,1.29117,-37.27,-37.27)">
        <g transform="matrix(1.57425,0,0,1.57425,-7945.93,-2214.41)">
            <circle cx="5128.76" cy="1487.95" r="61.734" style="fill:rgb(255,216,0);"/>
        </g>
        <g transform="matrix(1,0,0,1,-1.99589,0)">
            <g transform="matrix(5.44249,-1.45831,1.13733,4.24456,-28081,3110.91)">
                <circle cx="4965.19" cy="1006.27" r="3.19" style="fill:rgb(255,158,6);"/>
            </g>
            <g transform="matrix(5.44249,1.45831,-1.13733,4.24456,-25705,-11370.7)">
                <circle cx="4965.19" cy="1006.27" r="3.19" style="fill:rgb(255,158,6);"/>
            </g>
        </g>
        <g transform="matrix(0.607742,0,0,0.607742,-4768.94,-361.501)">
            <ellipse cx="8057.6" cy="809.06" rx="16.065" ry="19.106" style="fill:rgb(182,11,0);"/>
            <clipPath id="_clip1">
                <ellipse cx="8057.6" cy="809.06" rx="16.065" ry="19.106"/>
            </clipPath>
            <g clip-path="url(#_clip1)">
                <g transform="matrix(1,0,0,1,821.22,24.1506)">
                    <circle cx="7236.38" cy="818.842" r="25.228" style="fill:rgb(236,33,0);"/>
                </g>
            </g>
        </g>
        <g>
            <g transform="matrix(1.25783,0,0,1.25783,-9935.89,-1218.28)">
                <path d="M8024.22,1049.7C8024.22,1066.53 8045.2,1067.67 8045.2,1049.7" style="fill:none;stroke:rgb(41,47,51);stroke-width:5.75px;"/>
            </g>
            <g transform="matrix(1.25783,0,0,1.25783,-10023.7,-1218.28)">
                <path d="M8024.22,1049.7C8024.22,1066.53 8045.2,1067.67 8045.2,1049.7" style="fill:none;stroke:rgb(41,47,51);stroke-width:5.75px;"/>
            </g>
        </g>
    </g>
</svg>
