<?xml version="1.0" encoding="UTF-8" standalone="no"?>
<!DOCTYPE svg PUBLIC "-//W3C//DTD SVG 1.1//EN" "http://www.w3.org/Graphics/SVG/1.1/DTD/svg11.dtd">
<svg width="100%" height="100%" viewBox="0 0 256 256" version="1.1" xmlns="http://www.w3.org/2000/svg" xmlns:xlink="http://www.w3.org/1999/xlink" xml:space="preserve" xmlns:serif="http://www.serif.com/" style="fill-rule:evenodd;clip-rule:evenodd;stroke-linecap:round;stroke-linejoin:round;stroke-miterlimit:1.5;">
    <g id="Emoji---Love" serif:id="Emoji - Love" transform="matrix(1.29117,0,0,1.29117,-37.27,-37.27)">
        <g transform="matrix(1.57425,0,0,1.57425,-7945.93,-2214.41)">
            <circle cx="5128.76" cy="1487.95" r="61.734" style="fill:rgb(255,216,0);"/>
        </g>
        <g transform="matrix(1,0,0,1,-1.99589,0)">
            <g transform="matrix(5.44249,-1.45831,1.13733,4.24456,-28081,3110.91)">
                <circle cx="4965.19" cy="1006.27" r="3.19" style="fill:rgb(255,158,6);"/>
            </g>
            <g transform="matrix(5.44249,1.45831,-1.13733,4.24456,-25705,-11370.7)">
                <circle cx="4965.19" cy="1006.27" r="3.19" style="fill:rgb(255,158,6);"/>
            </g>
        </g>
        <g transform="matrix(0.978013,0,0,0.978013,-7256.75,-1719.68)">
            <path d="M7548.57,1882.68C7558.61,1876.72 7568.11,1888.58 7554.54,1895.1C7571.79,1896.26 7563.16,1917.24 7547.06,1904.66" style="fill:none;stroke:rgb(41,47,51);stroke-width:7.39px;"/>
        </g>
        <g transform="matrix(1.16795,0,0,1.16795,-21.8994,-17.6757)">
            <g transform="matrix(0.673159,0.180373,-0.180373,0.673159,-5076.97,-2092.73)">
                <path d="M8082.18,1081.65C8088.41,1070.36 8100.86,1070.36 8107.09,1076.01C8113.31,1081.65 8113.31,1092.94 8107.09,1104.23C8104.6,1109.07 8099.88,1113.9 8094.54,1118.21C8087.33,1124.03 8077.03,1124.03 8069.82,1118.21C8064.49,1113.9 8059.77,1109.07 8057.28,1104.23C8051.05,1092.94 8051.05,1081.65 8057.28,1076.01C8063.51,1070.36 8075.96,1070.36 8082.18,1081.65Z" style="fill:rgb(235,17,43);"/>
            </g>
            <g transform="matrix(0.673159,-0.180373,0.180373,0.673159,-5543.44,822.874)">
                <path d="M8082.18,1081.65C8088.41,1070.36 8100.86,1070.36 8107.09,1076.01C8113.31,1081.65 8113.31,1092.94 8107.09,1104.23C8104.6,1109.07 8099.88,1113.9 8094.54,1118.21C8087.33,1124.03 8077.03,1124.03 8069.82,1118.21C8064.49,1113.9 8059.77,1109.07 8057.28,1104.23C8051.05,1092.94 8051.05,1081.65 8057.28,1076.01C8063.51,1070.36 8075.96,1070.36 8082.18,1081.65Z" style="fill:rgb(235,17,43);"/>
            </g>
        </g>
    </g>
</svg>
