<?xml version="1.0" encoding="UTF-8" standalone="no"?>
<!DOCTYPE svg PUBLIC "-//W3C//DTD SVG 1.1//EN" "http://www.w3.org/Graphics/SVG/1.1/DTD/svg11.dtd">
<svg width="100%" height="100%" viewBox="0 0 256 256" version="1.1" xmlns="http://www.w3.org/2000/svg" xmlns:xlink="http://www.w3.org/1999/xlink" xml:space="preserve" xmlns:serif="http://www.serif.com/" style="fill-rule:evenodd;clip-rule:evenodd;stroke-linecap:round;stroke-linejoin:round;stroke-miterlimit:1.5;">
    <g id="Emoji---Cool" serif:id="Emoji - Cool" transform="matrix(1.29117,0,0,1.29117,-37.27,-37.27)">
        <g transform="matrix(1.57425,0,0,1.57425,-7945.93,-2214.41)">
            <circle cx="5128.76" cy="1487.95" r="61.734" style="fill:rgb(255,216,0);"/>
        </g>
        <g transform="matrix(1.30436,0,0,1.23426,-6713.06,-648.106)">
            <g transform="matrix(0.620512,0,0,0.638402,327.931,-74.4409)">
                <path d="M8010.7,1063.01L7935.52,1063.01L7935.52,1099.09C7935.52,1105.72 7940.77,1111.11 7947.23,1111.11L7998.99,1111.11C8005.45,1111.11 8010.7,1105.72 8010.7,1099.09L8010.7,1063.01Z" style="fill:rgb(50,58,65);"/>
            </g>
            <g transform="matrix(0.620512,0,0,0.638402,266.786,-74.4409)">
                <path d="M8010.7,1063.01L7935.52,1063.01L7935.52,1099.09C7935.52,1105.72 7940.77,1111.11 7947.23,1111.11L7998.99,1111.11C8005.45,1111.11 8010.7,1105.72 8010.7,1099.09L8010.7,1063.01Z" style="fill:rgb(50,58,65);"/>
            </g>
            <g transform="matrix(0.620512,0,-0.33018,0.663872,623.5,-97.6767)">
                <rect x="7963.74" y="1066.29" width="23.557" height="37.19" style="fill:rgb(132,142,151);"/>
            </g>
            <g transform="matrix(0.620512,0,-0.33018,0.663872,684.645,-97.6767)">
                <rect x="7963.74" y="1066.29" width="23.557" height="37.19" style="fill:rgb(132,142,151);"/>
            </g>
            <g transform="matrix(0.703297,0,0,0.415551,-393.404,162.259)">
                <path d="M8093.41,1059.54C8093.41,1056.15 8091.88,1053.4 8089.98,1053.4L7924.78,1053.4C7922.89,1053.4 7921.35,1056.15 7921.35,1059.54L7921.35,1071.82C7921.35,1075.21 7922.89,1077.96 7924.78,1077.96L8089.98,1077.96C8091.88,1077.96 8093.41,1075.21 8093.41,1071.82L8093.41,1059.54Z" style="fill:rgb(50,58,65);"/>
            </g>
        </g>
        <g transform="matrix(1,0,0,1,-2.0146,9.59236)">
            <g transform="matrix(5.44249,1.45831,-1.13733,4.24456,-25802.5,-11366.3)">
                <circle cx="4965.19" cy="1006.27" r="3.19" style="fill:rgb(255,158,6);"/>
            </g>
            <g transform="matrix(5.44249,-1.45831,1.13733,4.24456,-27987.4,3115.25)">
                <circle cx="4965.19" cy="1006.27" r="3.19" style="fill:rgb(255,158,6);"/>
            </g>
        </g>
        <g transform="matrix(3.39508,0,0,3.39508,-16798.5,-3284.56)">
            <path d="M4979.24,1010.67C4982.57,1014 4988.61,1014 4991.94,1010.67" style="fill:none;stroke:rgb(118,35,0);stroke-width:1.59px;"/>
        </g>
    </g>
</svg>
