<?xml version="1.0" encoding="UTF-8" standalone="no"?>
<!DOCTYPE svg PUBLIC "-//W3C//DTD SVG 1.1//EN" "http://www.w3.org/Graphics/SVG/1.1/DTD/svg11.dtd">
<svg width="100%" height="100%" viewBox="0 0 256 256" version="1.1" xmlns="http://www.w3.org/2000/svg" xmlns:xlink="http://www.w3.org/1999/xlink" xml:space="preserve" xmlns:serif="http://www.serif.com/" style="fill-rule:evenodd;clip-rule:evenodd;stroke-linejoin:round;stroke-miterlimit:2;">
    <g id="Health---First-Aid" serif:id="Health - First Aid" transform="matrix(3.47116,0,0,3.28461,-21815.8,-3243.27)">
        <g transform="matrix(0.241966,0,0,0.255709,6288.44,992.398)">
            <path d="M202.856,50.214C202.856,28.928 185.575,11.647 164.289,11.647C164.289,11.647 110.968,11.647 110.968,11.647C89.683,11.647 72.402,28.928 72.402,50.214C72.402,50.214 72.402,127.831 72.402,127.831C72.402,149.116 89.683,166.398 110.968,166.398C110.968,166.398 164.289,166.398 164.289,166.398C185.575,166.398 202.856,149.116 202.856,127.831L202.856,50.214ZM179.044,50.214L179.044,127.831C179.044,135.974 172.433,142.585 164.289,142.585L110.968,142.585C102.825,142.585 96.214,135.974 96.214,127.831L96.214,50.214C96.214,42.07 102.825,35.459 110.968,35.459L164.289,35.459C172.433,35.459 179.044,42.07 179.044,50.214Z" style="fill:rgb(221,226,230);"/>
        </g>
        <g transform="matrix(0.288088,0,0,0.304451,6284.86,987.415)">
            <path d="M93.216,83.625L73.216,83.625L73.216,59.749L93.216,59.749L93.216,83.625ZM182.784,83.625L162.784,83.625L162.784,59.749L182.784,59.749L182.784,83.625Z" style="fill:rgb(171,181,190);"/>
        </g>
        <g transform="matrix(0.624731,0,0,0.357971,1631.13,571.816)">
            <path d="M7554.64,1255.31C7554.64,1236.69 7546.44,1221.58 7536.35,1221.58L7480.03,1221.58C7469.93,1221.58 7461.74,1236.69 7461.74,1255.31L7461.74,1322.75C7461.74,1341.36 7469.93,1356.48 7480.03,1356.48L7536.35,1356.48C7546.44,1356.48 7554.64,1341.36 7554.64,1322.75L7554.64,1255.31Z" style="fill:white;"/>
        </g>
        <g transform="matrix(0.547549,0,0,0.302096,2210.64,643.84)">
            <path d="M7554.64,1249.2C7554.64,1233.96 7548.18,1221.58 7540.22,1221.58L7476.16,1221.58C7468.2,1221.58 7461.74,1233.96 7461.74,1249.2L7461.74,1328.86C7461.74,1344.1 7468.2,1356.48 7476.16,1356.48L7540.22,1356.48C7548.18,1356.48 7554.64,1344.1 7554.64,1328.86L7554.64,1249.2Z" style="fill:rgb(241,243,245);"/>
        </g>
        <g transform="matrix(0.237781,0,0,0.251287,6291.25,993.642)">
            <circle cx="128.233" cy="157.622" r="52.259" style="fill:rgb(255,75,84);"/>
        </g>
        <g transform="matrix(0.599601,0,0,0.599601,2576.79,577.737)">
            <g transform="matrix(0.339919,0,0,0.490619,3693.67,122.391)">
                <path d="M7515.78,1279.45C7515.78,1276.24 7512.23,1273.64 7507.86,1273.64C7503.48,1273.64 7499.93,1276.24 7499.93,1279.45L7499.93,1318.51C7499.93,1321.71 7503.48,1324.31 7507.86,1324.31C7512.23,1324.31 7515.78,1321.71 7515.78,1318.51L7515.78,1279.45Z" style="fill:white;"/>
            </g>
            <g transform="matrix(2.0814e-17,0.359225,-0.464251,3.00417e-17,6848.78,-1937.31)">
                <path d="M7515.78,1279.45C7515.78,1276.24 7512.23,1273.64 7507.86,1273.64C7503.48,1273.64 7499.93,1276.24 7499.93,1279.45L7499.93,1318.51C7499.93,1321.71 7503.48,1324.31 7507.86,1324.31C7512.23,1324.31 7515.78,1321.71 7515.78,1318.51L7515.78,1279.45Z" style="fill:white;"/>
            </g>
        </g>
    </g>
</svg>
