<?xml version="1.0" encoding="UTF-8" standalone="no"?>
<!DOCTYPE svg PUBLIC "-//W3C//DTD SVG 1.1//EN" "http://www.w3.org/Graphics/SVG/1.1/DTD/svg11.dtd">
<svg width="100%" height="100%" viewBox="0 0 256 256" version="1.1" xmlns="http://www.w3.org/2000/svg" xmlns:xlink="http://www.w3.org/1999/xlink" xml:space="preserve" xmlns:serif="http://www.serif.com/" style="fill-rule:evenodd;clip-rule:evenodd;stroke-linecap:round;stroke-linejoin:round;stroke-miterlimit:1.5;">
    <g id="Flower-White" serif:id="Flower White" transform="matrix(2.00602,0,0,2.01548,-22502.1,-902.115)">
        <g transform="matrix(0.783863,0,0,0.979617,2337.94,-128.377)">
            <path d="M11416,657.949C11416,654.905 11412.9,652.434 11409.1,652.434C11405.2,652.434 11402.1,654.905 11402.1,657.949L11402.1,709.255C11402.1,712.299 11405.2,714.77 11409.1,714.77C11412.9,714.77 11416,712.299 11416,709.255L11416,657.949Z" style="fill:rgb(0,188,119);"/>
        </g>
        <g transform="matrix(0.498499,0,0,0.49616,11217.3,447.593)">
            <path d="M127.92,127.309L127.92,250.385C127.946,250.385 127.973,250.385 128,250.385C134.01,250.385 138.89,245.506 138.89,239.496L138.89,138.198C138.89,132.188 134.01,127.308 128,127.308C127.973,127.308 127.946,127.308 127.92,127.309Z" style="fill:rgb(0,163,100);"/>
        </g>
        <g transform="matrix(0.967608,0,0,0.967608,365.981,16.7185)">
            <g transform="matrix(0.508592,-0.876774,0.880908,0.506206,4889.7,10152.3)">
                <ellipse cx="11345.9" cy="680.688" rx="11.165" ry="17.001" style="fill:rgb(0,188,119);"/>
            </g>
            <g transform="matrix(-0.508592,-0.876774,-0.880908,0.506206,17671.3,10152.3)">
                <ellipse cx="11345.9" cy="680.688" rx="11.165" ry="17.001" style="fill:rgb(0,163,100);"/>
            </g>
        </g>
        <g>
            <g transform="matrix(1.18338,1.8475e-17,-1.85621e-17,-1.02697,-2002.11,948.699)">
                <path d="M11224.8,444.523C11224.8,444.523 11214.6,464.85 11214.6,473.561C11214.6,480.004 11219.2,485.234 11224.8,485.234C11230.4,485.234 11235,480.004 11235,473.561C11235,464.85 11224.8,444.523 11224.8,444.523Z" style="fill:rgb(248,249,250);"/>
            </g>
            <g transform="matrix(0.836776,0.83285,0.7296,-0.726176,1564.12,-8533.56)">
                <path d="M11224.8,444.523C11224.8,444.523 11214.6,464.85 11214.6,473.561C11214.6,480.004 11219.2,485.234 11224.8,485.234C11230.4,485.234 11235,480.004 11235,473.561C11235,464.85 11224.8,444.523 11224.8,444.523Z" style="fill:white;"/>
            </g>
            <g transform="matrix(1.11022e-16,1.17783,1.03181,-1.94289e-16,10822.4,-12728.7)">
                <path d="M11224.8,444.523C11224.8,444.523 11214.6,464.85 11214.6,473.561C11214.6,480.004 11219.2,485.234 11224.8,485.234C11230.4,485.234 11235,480.004 11235,473.561C11235,464.85 11224.8,444.523 11224.8,444.523Z" style="fill:rgb(248,249,250);"/>
            </g>
            <g transform="matrix(-0.836776,0.83285,0.7296,0.726176,20349.4,-9179.17)">
                <path d="M11224.8,444.523C11224.8,444.523 11214.6,464.85 11214.6,473.561C11214.6,480.004 11219.2,485.234 11224.8,485.234C11230.4,485.234 11235,480.004 11235,473.561C11235,464.85 11224.8,444.523 11224.8,444.523Z" style="fill:white;"/>
            </g>
            <g transform="matrix(-1.18338,0,1.66533e-16,1.02697,24564.3,35.6764)">
                <path d="M11224.8,444.523C11224.8,444.523 11214.6,464.85 11214.6,473.561C11214.6,480.004 11219.2,485.234 11224.8,485.234C11230.4,485.234 11235,480.004 11235,473.561C11235,464.85 11224.8,444.523 11224.8,444.523Z" style="fill:rgb(248,249,250);"/>
            </g>
            <g transform="matrix(-0.836776,-0.83285,-0.7296,0.726176,20998,9517.94)">
                <path d="M11224.8,444.523C11224.8,444.523 11214.6,464.85 11214.6,473.561C11214.6,480.004 11219.2,485.234 11224.8,485.234C11230.4,485.234 11235,480.004 11235,473.561C11235,464.85 11224.8,444.523 11224.8,444.523Z" style="fill:white;"/>
            </g>
            <g transform="matrix(0,-1.17783,-1.03181,3.33067e-16,11739.7,13713)">
                <path d="M11224.8,444.523C11224.8,444.523 11214.6,464.85 11214.6,473.561C11214.6,480.004 11219.2,485.234 11224.8,485.234C11230.4,485.234 11235,480.004 11235,473.561C11235,464.85 11224.8,444.523 11224.8,444.523Z" style="fill:rgb(248,249,250);"/>
            </g>
            <g transform="matrix(0.836776,-0.83285,-0.7296,-0.726176,2212.77,10163.5)">
                <path d="M11224.8,444.523C11224.8,444.523 11214.6,464.85 11214.6,473.561C11214.6,480.004 11219.2,485.234 11224.8,485.234C11230.4,485.234 11235,480.004 11235,473.561C11235,464.85 11224.8,444.523 11224.8,444.523Z" style="fill:white;"/>
            </g>
        </g>
        <g transform="matrix(0.362606,0,0,0.360904,7334.1,331.384)">
            <circle cx="10885" cy="445.558" r="60.515" style="fill:rgb(255,224,73);"/>
        </g>
        <g transform="matrix(0.756449,0,0,0.752899,7501.82,-199.106)">
            <g transform="matrix(1,0,0,1,6.68065,0)">
                <g transform="matrix(1,0,0,1,10.6694,-93.7219)">
                    <circle cx="4965.19" cy="1006.27" r="3.19" style="fill:rgb(50,58,65);"/>
                </g>
                <g transform="matrix(1.69245,0.453492,-0.353675,1.31993,-3074.28,-2657.34)">
                    <circle cx="4965.19" cy="1006.27" r="3.19" style="fill:rgb(255,171,180);"/>
                </g>
            </g>
            <g transform="matrix(1,0,0,1,33.6972,0)">
                <g transform="matrix(1,0,0,1,10.6694,-93.7219)">
                    <circle cx="4965.19" cy="1006.27" r="3.19" style="fill:rgb(50,58,65);"/>
                </g>
                <g transform="matrix(1.69245,-0.453492,0.353675,1.31993,-3780.72,1846)">
                    <circle cx="4965.19" cy="1006.27" r="3.19" style="fill:rgb(255,171,180);"/>
                </g>
            </g>
            <g transform="matrix(1,0,0,1,10.451,-91.3117)">
                <path d="M4979.24,1010.67C4982.57,1014 4988.61,1014 4991.94,1010.67" style="fill:none;stroke:rgb(202,109,119);stroke-width:1.78px;"/>
            </g>
        </g>
    </g>
</svg>
