<?xml version="1.0" encoding="UTF-8" standalone="no"?>
<!DOCTYPE svg PUBLIC "-//W3C//DTD SVG 1.1//EN" "http://www.w3.org/Graphics/SVG/1.1/DTD/svg11.dtd">
<svg width="100%" height="100%" viewBox="0 0 256 256" version="1.1" xmlns="http://www.w3.org/2000/svg" xmlns:xlink="http://www.w3.org/1999/xlink" xml:space="preserve" xmlns:serif="http://www.serif.com/" style="fill-rule:evenodd;clip-rule:evenodd;stroke-linejoin:round;stroke-miterlimit:2;">
    <g id="Football--American-" serif:id="Football (American)" transform="matrix(1.24569,-1.24569,1.17874,1.17874,-8158.5,7366.09)">
        <g transform="matrix(0.624451,0,0,0.799484,1558.38,-13.6731)">
            <ellipse cx="7483.27" cy="573.352" rx="110.187" ry="58.874" style="fill:rgb(160,100,49);"/>
            <clipPath id="_clip1">
                <ellipse cx="7483.27" cy="573.352" rx="110.187" ry="58.874"/>
            </clipPath>
            <g clip-path="url(#_clip1)">
                <g transform="matrix(0.642778,0.530568,-0.642778,0.530568,7483.27,437.527)">
                    <path d="M213.711,42.289C244.333,72.91 230.787,136.176 183.482,183.482C136.176,230.787 72.91,244.333 42.289,213.711L213.711,42.289Z" style="fill:rgb(127,80,43);"/>
                </g>
                <g transform="matrix(0.642778,0.530568,-0.642778,0.530568,7483.27,437.527)">
                    <path d="M30.156,141.5L114.5,225.844C107.09,227.973 99.799,229.316 92.772,229.842L26.158,163.228C26.685,156.199 28.028,148.908 30.156,141.5Z" style="fill:rgb(248,249,250);"/>
                </g>
                <g transform="matrix(0.642778,0.530568,-0.642778,0.530568,7483.27,437.527)">
                    <path d="M114.5,225.844C107.09,227.973 99.799,229.316 92.772,229.842L59.465,196.535L72.328,183.672L114.5,225.844Z" style="fill:rgb(171,181,190);"/>
                </g>
                <g transform="matrix(0.642778,0.530568,-0.642778,0.530568,7483.27,437.527)">
                    <path d="M164.137,26.095L229.905,91.863C229.445,98.933 228.152,106.276 226.059,113.742L142.258,29.941C149.727,27.847 157.071,26.554 164.137,26.095Z" style="fill:rgb(248,249,250);"/>
                </g>
                <g transform="matrix(0.642778,0.530568,-0.642778,0.530568,7483.27,437.527)">
                    <path d="M229.905,91.863C229.445,98.933 228.152,106.276 226.059,113.742L184.158,71.842L197.021,58.979L229.905,91.863Z" style="fill:rgb(171,181,190);"/>
                </g>
            </g>
        </g>
        <g transform="matrix(1.78491e-16,0.655755,-2.01544,-3.6764e-17,7864.42,-4446.4)">
            <path d="M7464.29,795.45C7464.29,794.509 7461.81,793.744 7458.75,793.744C7455.69,793.744 7453.21,794.509 7453.21,795.45L7453.21,825.148C7453.21,826.089 7455.69,826.854 7458.75,826.854C7461.81,826.854 7464.29,826.089 7464.29,825.148L7464.29,795.45Z" style="fill:rgb(171,181,190);"/>
        </g>
        <g transform="matrix(1,0,0,1,-4.50715,2.42195)">
            <g transform="matrix(0.620512,0,0,0.738381,1585.95,-156.019)">
                <path d="M7464.29,798.664C7464.29,795.949 7461.81,793.744 7458.75,793.744C7455.69,793.744 7453.21,795.949 7453.21,798.664L7453.21,821.934C7453.21,824.649 7455.69,826.854 7458.75,826.854C7461.81,826.854 7464.29,824.649 7464.29,821.934L7464.29,798.664Z" style="fill:rgb(248,249,250);"/>
            </g>
            <g transform="matrix(0.620512,0,0,0.738381,1600.37,-156.019)">
                <path d="M7464.29,798.664C7464.29,795.949 7461.81,793.744 7458.75,793.744C7455.69,793.744 7453.21,795.949 7453.21,798.664L7453.21,821.934C7453.21,824.649 7455.69,826.854 7458.75,826.854C7461.81,826.854 7464.29,824.649 7464.29,821.934L7464.29,798.664Z" style="fill:rgb(248,249,250);"/>
            </g>
            <g transform="matrix(0.620512,0,0,0.738381,1614.78,-156.019)">
                <path d="M7464.29,798.664C7464.29,795.949 7461.81,793.744 7458.75,793.744C7455.69,793.744 7453.21,795.949 7453.21,798.664L7453.21,821.934C7453.21,824.649 7455.69,826.854 7458.75,826.854C7461.81,826.854 7464.29,824.649 7464.29,821.934L7464.29,798.664Z" style="fill:rgb(248,249,250);"/>
            </g>
            <g transform="matrix(0.620512,0,0,0.738381,1629.19,-156.019)">
                <path d="M7464.29,798.664C7464.29,795.949 7461.81,793.744 7458.75,793.744C7455.69,793.744 7453.21,795.949 7453.21,798.664L7453.21,821.934C7453.21,824.649 7455.69,826.854 7458.75,826.854C7461.81,826.854 7464.29,824.649 7464.29,821.934L7464.29,798.664Z" style="fill:rgb(248,249,250);"/>
            </g>
        </g>
        <g transform="matrix(0.333253,0.0943665,-0.097246,0.38354,3838.28,-584.936)">
            <ellipse cx="7476.42" cy="768.004" rx="24.893" ry="13.65" style="fill:rgb(212,161,115);"/>
        </g>
    </g>
</svg>
