<?xml version="1.0" encoding="UTF-8" standalone="no"?>
<!DOCTYPE svg PUBLIC "-//W3C//DTD SVG 1.1//EN" "http://www.w3.org/Graphics/SVG/1.1/DTD/svg11.dtd">
<svg width="100%" height="100%" viewBox="0 0 256 256" version="1.1" xmlns="http://www.w3.org/2000/svg" xmlns:xlink="http://www.w3.org/1999/xlink" xml:space="preserve" xmlns:serif="http://www.serif.com/" style="fill-rule:evenodd;clip-rule:evenodd;stroke-linejoin:round;stroke-miterlimit:2;">
    <g id="Friends---Girl-Boy" serif:id="Friends - Girl Boy" transform="matrix(1.74887,0,0,1.74887,-8486.24,-1482.01)">
        <g transform="matrix(1,0,0,1,-38.3202,0.643275)">
            <g transform="matrix(0.645301,0.172908,-0.158335,0.590914,1764.12,-790.806)">
                <rect x="5256.74" y="1372.55" width="89.704" height="33.523" style="fill:rgb(255,101,104);"/>
            </g>
            <g transform="matrix(4.12525,0,0,2.18034,-15565.8,-1305.36)">
                <path d="M4991.74,1043.94C4991.74,1036.18 4988.41,1029.88 4984.3,1029.88C4980.2,1029.88 4976.87,1036.18 4976.87,1043.94L4976.87,1044.72C4976.87,1046.66 4977.7,1048.23 4978.73,1048.23L4989.88,1048.23C4990.9,1048.23 4991.74,1046.66 4991.74,1044.72L4991.74,1043.94Z" style="fill:rgb(255,101,104);"/>
            </g>
            <g transform="matrix(0.571797,0,0,0.571797,4890.73,846.764)">
                <path d="M183.566,163.293C183.566,163.293 183.566,233.273 183.566,233.273L223.783,233.273C231.182,233.273 237.189,227.266 237.189,219.867L237.189,216.916C237.189,187.321 213.161,163.293 183.566,163.293Z" style="fill:rgb(248,87,88);"/>
            </g>
            <g transform="matrix(1,0,0,1,51.2181,-93.7219)">
                <circle cx="4964.37" cy="1037.37" r="9.682" style="fill:rgb(255,206,177);"/>
            </g>
        </g>
        <g transform="matrix(1,0,0,1,-101.849,0.643275)">
            <g transform="matrix(0.654362,0,0,0.834506,1724.35,-207.918)">
                <path d="M5056.96,1336.55C5056.96,1327 5047.07,1319.24 5034.88,1319.24L4963.65,1319.24C4951.47,1319.24 4941.58,1327 4941.58,1336.55L4941.58,1371.17C4941.58,1380.73 4951.47,1388.48 4963.65,1388.48L5034.88,1388.48C5047.07,1388.48 5056.96,1380.73 5056.96,1371.17L5056.96,1336.55Z" style="fill:rgb(52,60,66);"/>
            </g>
            <g transform="matrix(4.12525,0,0,2.18034,-15565.8,-1305.36)">
                <path d="M4991.74,1043.94C4991.74,1036.18 4988.41,1029.88 4984.3,1029.88C4980.2,1029.88 4976.87,1036.18 4976.87,1043.94L4976.87,1044.72C4976.87,1046.66 4977.7,1048.23 4978.73,1048.23L4989.88,1048.23C4990.9,1048.23 4991.74,1046.66 4991.74,1044.72L4991.74,1043.94Z" style="fill:rgb(255,135,183);"/>
            </g>
            <g transform="matrix(0.571797,0,0,0.571797,4954.26,846.764)">
                <path d="M72.068,163.294L72.068,233.273L112.679,233.273C120.078,233.273 126.085,227.266 126.085,219.867L126.085,216.916C126.085,187.321 102.057,163.293 72.462,163.293C72.332,163.293 72.201,163.293 72.068,163.294Z" style="fill:rgb(255,108,165);"/>
            </g>
            <g transform="matrix(1,0,0,1,10.6694,-93.7219)">
                <circle cx="4964.37" cy="1037.37" r="9.682" style="fill:rgb(255,187,151);"/>
            </g>
            <g transform="matrix(1,0,0,1.46443,11.3849,-579.971)">
                <path d="M4991.74,1034.95C4991.74,1032.15 4988.41,1029.88 4984.3,1029.88C4980.2,1029.88 4976.87,1032.15 4976.87,1034.95L4976.87,1043.16C4976.87,1045.96 4980.2,1048.23 4984.3,1048.23C4988.41,1048.23 4991.74,1045.96 4991.74,1043.16L4991.74,1034.95Z" style="fill:rgb(255,184,142);"/>
            </g>
            <g transform="matrix(1.14006,0,0,1.14006,-685.258,-241.294)">
                <circle cx="4983.01" cy="1006.88" r="33.112" style="fill:rgb(255,206,177);"/>
            </g>
            <g transform="matrix(0.571797,0,0,0.571797,4954.26,846.764)">
                <path d="M6.587,100.064C8.955,65.77 37.559,38.649 72.448,38.649C107.337,38.649 135.941,65.77 138.309,100.064C126.209,102.573 111.493,100.132 97.966,92.322C85.818,85.309 76.94,75.299 72.448,64.833C67.956,75.299 59.078,85.309 46.93,92.322C33.403,100.132 18.687,102.573 6.587,100.064Z" style="fill:rgb(52,60,66);"/>
            </g>
            <g transform="matrix(1,0,0,1,-0.362554,-0.643275)">
                <g transform="matrix(1,0,0,1,6.68065,0)">
                    <g transform="matrix(1,0,0,1,10.6694,-93.7219)">
                        <circle cx="4965.19" cy="1006.27" r="3.19" style="fill:rgb(50,58,65);"/>
                    </g>
                    <g transform="matrix(1.69245,0.453492,-0.353675,1.31993,-3074.28,-2657.34)">
                        <circle cx="4965.19" cy="1006.27" r="3.19" style="fill:rgb(255,149,177);"/>
                    </g>
                </g>
                <g transform="matrix(1,0,0,1,33.6972,0)">
                    <g transform="matrix(1,0,0,1,10.6694,-93.7219)">
                        <circle cx="4965.19" cy="1006.27" r="3.19" style="fill:rgb(50,58,65);"/>
                    </g>
                    <g transform="matrix(1.69245,-0.453492,0.353675,1.31993,-3780.72,1846)">
                        <circle cx="4965.19" cy="1006.27" r="3.19" style="fill:rgb(255,149,177);"/>
                    </g>
                </g>
                <g transform="matrix(1,0,0,1,10.451,-91.3117)">
                    <path d="M4978.61,1011.3C4982.28,1014.96 4988.91,1014.96 4992.57,1011.3C4992.92,1010.95 4992.92,1010.39 4992.57,1010.04C4992.23,1009.69 4991.66,1009.69 4991.31,1010.04C4988.31,1013.04 4982.87,1013.04 4979.87,1010.04C4979.52,1009.69 4978.96,1009.69 4978.61,1010.04C4978.26,1010.39 4978.26,1010.95 4978.61,1011.3Z" style="fill:rgb(202,109,119);"/>
                </g>
            </g>
        </g>
        <g transform="matrix(0.301499,0,0,0.301499,3441.51,789.117)">
            <g transform="matrix(1,0,0,1,-9.40202,-95.4369)">
                <path d="M5042.87,337.634C5042.87,334.455 5040.29,331.874 5037.11,331.874C5033.94,331.874 5031.35,334.455 5031.35,337.634L5031.35,372.622C5031.35,375.801 5033.94,378.382 5037.11,378.382C5040.29,378.382 5042.87,375.801 5042.87,372.622L5042.87,337.634Z" style="fill:rgb(255,236,140);"/>
            </g>
            <g transform="matrix(0.866025,0.5,-0.5,0.866025,854.499,-2553.98)">
                <path d="M5042.87,337.634C5042.87,334.455 5040.29,331.874 5037.11,331.874C5033.94,331.874 5031.35,334.455 5031.35,337.634L5031.35,372.622C5031.35,375.801 5033.94,378.382 5037.11,378.382C5040.29,378.382 5042.87,375.801 5042.87,372.622L5042.87,337.634Z" style="fill:rgb(255,236,140);"/>
            </g>
            <g transform="matrix(-0.866025,0.5,0.5,0.866025,9200.92,-2553.98)">
                <path d="M5042.87,337.634C5042.87,334.455 5040.29,331.874 5037.11,331.874C5033.94,331.874 5031.35,334.455 5031.35,337.634L5031.35,372.622C5031.35,375.801 5033.94,378.382 5037.11,378.382C5040.29,378.382 5042.87,375.801 5042.87,372.622L5042.87,337.634Z" style="fill:rgb(255,236,140);"/>
            </g>
        </g>
        <g transform="matrix(1,0,0,1,-38.3202,0.643275)">
            <g transform="matrix(1,0,0,1.46443,11.3849,-579.971)">
                <path d="M4991.74,1034.95C4991.74,1032.15 4988.41,1029.88 4984.3,1029.88C4980.2,1029.88 4976.87,1032.15 4976.87,1034.95L4976.87,1043.16C4976.87,1045.96 4980.2,1048.23 4984.3,1048.23C4988.41,1048.23 4991.74,1045.96 4991.74,1043.16L4991.74,1034.95Z" style="fill:rgb(252,165,138);"/>
            </g>
            <g transform="matrix(1.14006,0,0,1.14006,-685.258,-241.294)">
                <circle cx="4983.01" cy="1006.88" r="33.112" style="fill:rgb(255,187,151);"/>
            </g>
            <g transform="matrix(0.571797,0,0,0.571797,4890.73,846.764)">
                <path d="M118.99,90.818C125.364,61.019 151.866,38.649 183.552,38.649C218.849,38.649 247.713,66.408 249.486,101.268C236.525,98.294 223.371,88.301 214.747,73.364C214.213,72.439 213.704,71.508 213.222,70.576C202.93,77.019 189.395,82.839 174.109,86.935C152.796,92.646 132.756,93.75 118.99,90.818Z" style="fill:rgb(255,236,140);"/>
            </g>
            <g transform="matrix(1,0,0,1,-0.362554,-0.643275)">
                <g transform="matrix(1,0,0,1,6.68065,0)">
                    <g transform="matrix(1,0,0,1,10.6694,-93.7219)">
                        <circle cx="4965.19" cy="1006.27" r="3.19" style="fill:rgb(50,58,65);"/>
                    </g>
                    <g transform="matrix(1.51741,0.876079,-0.683247,1.18342,-1873.52,-4618.2)">
                        <circle cx="4965.19" cy="1006.27" r="3.19" style="fill:rgb(255,135,139);"/>
                    </g>
                </g>
                <g transform="matrix(1,0,0,1,33.6972,0)">
                    <g transform="matrix(1,0,0,1,10.6694,-93.7219)">
                        <circle cx="4965.19" cy="1006.27" r="3.19" style="fill:rgb(50,58,65);"/>
                    </g>
                    <g transform="matrix(1.69245,-0.453492,0.353675,1.31993,-3780.72,1846)">
                        <circle cx="4965.19" cy="1006.27" r="3.19" style="fill:rgb(255,135,139);"/>
                    </g>
                </g>
                <g transform="matrix(1,0,0,1,10.451,-91.3117)">
                    <path d="M4978.61,1011.3C4982.28,1014.96 4988.91,1014.96 4992.57,1011.3C4992.92,1010.95 4992.92,1010.39 4992.57,1010.04C4992.23,1009.69 4991.66,1009.69 4991.31,1010.04C4988.31,1013.04 4982.87,1013.04 4979.87,1010.04C4979.52,1009.69 4978.96,1009.69 4978.61,1010.04C4978.26,1010.39 4978.26,1010.95 4978.61,1011.3Z" style="fill:rgb(170,102,91);"/>
                </g>
            </g>
        </g>
        <g id="Heart-Icon" serif:id="Heart Icon" transform="matrix(0.931776,0,0,0.931776,4236.08,-1677)">
            <path d="M752,2724.5C752,2728.73 748.219,2733.1 744.901,2736.11C742.117,2738.63 737.883,2738.63 735.099,2736.11C731.782,2733.1 728,2728.73 728,2724.5C728,2720.91 730.91,2718 734.5,2718C736.816,2718 738.849,2719.21 740,2721.03C741.151,2719.21 743.184,2718 745.5,2718C749.09,2718 752,2720.91 752,2724.5Z" style="fill:rgb(255,93,101);fill-rule:nonzero;"/>
        </g>
    </g>
</svg>
