<?xml version="1.0" encoding="UTF-8" standalone="no"?>
<!DOCTYPE svg PUBLIC "-//W3C//DTD SVG 1.1//EN" "http://www.w3.org/Graphics/SVG/1.1/DTD/svg11.dtd">
<svg width="100%" height="100%" viewBox="0 0 256 256" version="1.1" xmlns="http://www.w3.org/2000/svg" xmlns:xlink="http://www.w3.org/1999/xlink" xml:space="preserve" xmlns:serif="http://www.serif.com/" style="fill-rule:evenodd;clip-rule:evenodd;stroke-linejoin:round;stroke-miterlimit:2;">
    <g id="Friends-Boys" serif:id="Friends Boys" transform="matrix(1.74887,0,0,1.74887,-8486.2,-1482.01)">
        <g transform="matrix(1,0,0,1,-38.3202,0.643275)">
            <g transform="matrix(0.645301,0.172908,-0.158335,0.590914,1764.12,-790.806)">
                <rect x="5256.74" y="1372.55" width="89.704" height="33.523" style="fill:rgb(255,102,105);"/>
            </g>
            <g transform="matrix(4.12525,0,0,2.18034,-15565.8,-1305.36)">
                <path d="M4991.74,1042.27C4991.74,1035.43 4988.8,1029.88 4985.19,1029.88L4981.91,1029.88C4979.13,1029.88 4976.87,1034.15 4976.87,1039.41L4976.87,1044.56C4976.87,1046.59 4977.74,1048.23 4978.81,1048.23L4989.8,1048.23C4990.87,1048.23 4991.74,1046.59 4991.74,1044.56L4991.74,1042.27Z" style="fill:rgb(255,102,105);"/>
            </g>
            <g transform="matrix(0.571797,0,0,0.571797,4890.71,846.764)">
                <path d="M183.6,163.293L183.6,233.273L223.227,233.273C230.952,233.273 237.223,227.001 237.223,219.277L237.223,210.552C237.223,184.469 216.047,163.293 189.964,163.293L183.6,163.293Z" style="fill:rgb(249,87,87);"/>
            </g>
            <g transform="matrix(1,0,0,1,51.2181,-93.7219)">
                <circle cx="4964.37" cy="1037.37" r="9.682" style="fill:rgb(239,160,122);"/>
            </g>
        </g>
        <g transform="matrix(1,0,0,1,-101.849,0.643275)">
            <g transform="matrix(4.12525,0,0,2.18034,-15565.8,-1305.36)">
                <path d="M4991.74,1042.27C4991.74,1035.43 4988.8,1029.88 4985.19,1029.88L4981.91,1029.88C4979.13,1029.88 4976.87,1034.15 4976.87,1039.41L4976.87,1044.56C4976.87,1046.59 4977.74,1048.23 4978.81,1048.23L4989.8,1048.23C4990.87,1048.23 4991.74,1046.59 4991.74,1044.56L4991.74,1042.27Z" style="fill:rgb(64,192,142);"/>
            </g>
            <g transform="matrix(0.571797,0,0,0.571797,4954.24,846.764)">
                <path d="M72.102,163.293L72.102,233.273L112.123,233.273C119.848,233.273 126.119,227.001 126.119,219.277L126.119,210.552C126.119,184.469 104.943,163.293 78.86,163.293L72.102,163.293Z" style="fill:rgb(56,174,128);"/>
            </g>
            <g transform="matrix(1,0,0,1,10.6694,-93.7219)">
                <circle cx="4964.37" cy="1037.37" r="9.682" style="fill:rgb(255,203,176);"/>
            </g>
            <g transform="matrix(1,0,0,1.46443,11.3849,-579.971)">
                <path d="M4991.74,1034.95C4991.74,1032.15 4988.41,1029.88 4984.3,1029.88C4980.2,1029.88 4976.87,1032.15 4976.87,1034.95L4976.87,1043.16C4976.87,1045.96 4980.2,1048.23 4984.3,1048.23C4988.41,1048.23 4991.74,1045.96 4991.74,1043.16L4991.74,1034.95Z" style="fill:rgb(227,146,108);"/>
            </g>
            <g transform="matrix(1.14006,0,0,1.14006,-685.258,-241.294)">
                <circle cx="4983.01" cy="1006.88" r="33.112" style="fill:rgb(239,160,122);"/>
            </g>
            <g transform="matrix(0.680411,0,0,0.668065,1407.13,23.1823)">
                <path d="M5218.64,1324.32L5218.55,1324.32L5218.55,1265.71C5218.55,1262.13 5219.97,1258.71 5222.5,1256.18C5225.02,1253.66 5228.45,1252.24 5232.02,1252.24C5239.86,1252.24 5248.22,1252.24 5248.22,1252.24L5255.66,1268.35L5255.1,1252.24L5293,1252.24L5292.44,1268.35L5299.88,1252.24L5316.07,1252.24C5319.65,1252.24 5323.07,1253.66 5325.6,1256.18C5328.12,1258.71 5329.54,1262.13 5329.54,1265.71L5329.54,1324.32L5329.46,1324.32C5329.11,1321.31 5327.76,1318.48 5325.6,1316.31C5323.07,1313.79 5319.65,1312.37 5316.07,1312.37C5308.23,1312.37 5239.86,1312.37 5232.02,1312.37C5228.45,1312.37 5225.02,1313.79 5222.5,1316.31C5220.33,1318.48 5218.98,1321.31 5218.64,1324.32Z" style="fill:rgb(51,58,65);"/>
            </g>
            <g transform="matrix(1,0,0,1,-0.362554,-0.643275)">
                <g transform="matrix(1,0,0,1,6.68065,0)">
                    <g transform="matrix(1,0,0,1,10.6694,-93.7219)">
                        <circle cx="4965.19" cy="1006.27" r="3.19" style="fill:rgb(50,58,65);"/>
                    </g>
                    <g transform="matrix(1.69245,0.453492,-0.353675,1.31993,-3074.28,-2657.34)">
                        <circle cx="4965.19" cy="1006.27" r="3.19" style="fill:rgb(242,131,125);"/>
                    </g>
                </g>
                <g transform="matrix(1,0,0,1,33.6972,0)">
                    <g transform="matrix(1,0,0,1,10.6694,-93.7219)">
                        <circle cx="4965.19" cy="1006.27" r="3.19" style="fill:rgb(50,58,65);"/>
                    </g>
                    <g transform="matrix(1.69245,-0.453492,0.353675,1.31993,-3780.72,1846)">
                        <circle cx="4965.19" cy="1006.27" r="3.19" style="fill:rgb(242,131,125);"/>
                    </g>
                </g>
                <g transform="matrix(1,0,0,1,10.451,-91.3117)">
                    <path d="M4978.61,1011.3C4982.28,1014.96 4988.91,1014.96 4992.57,1011.3C4992.92,1010.95 4992.92,1010.39 4992.57,1010.04C4992.23,1009.69 4991.66,1009.69 4991.31,1010.04C4988.31,1013.04 4982.87,1013.04 4979.87,1010.04C4979.52,1009.69 4978.96,1009.69 4978.61,1010.04C4978.26,1010.39 4978.26,1010.95 4978.61,1011.3Z" style="fill:rgb(170,102,91);"/>
                </g>
            </g>
        </g>
        <g transform="matrix(0.301499,0,0,0.301499,3441.51,789.117)">
            <g transform="matrix(1,0,0,1,-9.40202,-95.4369)">
                <path d="M5042.87,337.634C5042.87,334.455 5040.29,331.874 5037.11,331.874C5033.94,331.874 5031.35,334.455 5031.35,337.634L5031.35,372.622C5031.35,375.801 5033.94,378.382 5037.11,378.382C5040.29,378.382 5042.87,375.801 5042.87,372.622L5042.87,337.634Z" style="fill:rgb(207,110,83);"/>
            </g>
            <g transform="matrix(0.866025,0.5,-0.5,0.866025,854.499,-2553.98)">
                <path d="M5042.87,337.634C5042.87,334.455 5040.29,331.874 5037.11,331.874C5033.94,331.874 5031.35,334.455 5031.35,337.634L5031.35,372.622C5031.35,375.801 5033.94,378.382 5037.11,378.382C5040.29,378.382 5042.87,375.801 5042.87,372.622L5042.87,337.634Z" style="fill:rgb(207,110,83);"/>
            </g>
            <g transform="matrix(-0.866025,0.5,0.5,0.866025,9200.92,-2553.98)">
                <path d="M5042.87,337.634C5042.87,334.455 5040.29,331.874 5037.11,331.874C5033.94,331.874 5031.35,334.455 5031.35,337.634L5031.35,372.622C5031.35,375.801 5033.94,378.382 5037.11,378.382C5040.29,378.382 5042.87,375.801 5042.87,372.622L5042.87,337.634Z" style="fill:rgb(207,110,83);"/>
            </g>
        </g>
        <g transform="matrix(1,0,0,1,-38.3202,0.643275)">
            <g transform="matrix(1,0,0,1.46443,11.3849,-579.971)">
                <path d="M4991.74,1034.95C4991.74,1032.15 4988.41,1029.88 4984.3,1029.88C4980.2,1029.88 4976.87,1032.15 4976.87,1034.95L4976.87,1043.16C4976.87,1045.96 4980.2,1048.23 4984.3,1048.23C4988.41,1048.23 4991.74,1045.96 4991.74,1043.16L4991.74,1034.95Z" style="fill:rgb(252,165,138);"/>
            </g>
            <g transform="matrix(1.14006,0,0,1.14006,-685.258,-241.294)">
                <circle cx="4983.01" cy="1006.88" r="33.112" style="fill:rgb(255,203,176);"/>
            </g>
            <g transform="matrix(0.571797,0,0,0.571797,4890.71,846.764)">
                <path d="M119.528,88.646C126.693,59.942 152.673,38.649 183.586,38.649C214.5,38.649 240.479,59.942 247.645,88.646C242.587,91.237 236.581,92.738 230.141,92.738C223.547,92.738 217.407,91.164 212.274,88.457C206.761,96.635 195.976,102.194 183.586,102.194C171.196,102.194 160.411,96.635 154.898,88.457C149.765,91.164 143.625,92.738 137.031,92.738C130.591,92.738 124.585,91.237 119.528,88.646Z" style="fill:rgb(207,110,83);"/>
            </g>
            <g transform="matrix(1,0,0,1,-0.362554,-0.643275)">
                <g transform="matrix(1,0,0,1,6.68065,0)">
                    <g transform="matrix(1,0,0,1,10.6694,-93.7219)">
                        <circle cx="4965.19" cy="1006.27" r="3.19" style="fill:rgb(50,58,65);"/>
                    </g>
                    <g transform="matrix(1.69245,0.453492,-0.353675,1.31993,-3074.28,-2657.34)">
                        <circle cx="4965.19" cy="1006.27" r="3.19" style="fill:rgb(255,163,166);"/>
                    </g>
                </g>
                <g transform="matrix(1,0,0,1,33.6972,0)">
                    <g transform="matrix(1,0,0,1,10.6694,-93.7219)">
                        <circle cx="4965.19" cy="1006.27" r="3.19" style="fill:rgb(50,58,65);"/>
                    </g>
                    <g transform="matrix(1.69245,-0.453492,0.353675,1.31993,-3780.72,1846)">
                        <circle cx="4965.19" cy="1006.27" r="3.19" style="fill:rgb(255,163,166);"/>
                    </g>
                </g>
                <g transform="matrix(1,0,0,1,10.451,-91.3117)">
                    <path d="M4978.61,1011.3C4982.28,1014.96 4988.91,1014.96 4992.57,1011.3C4992.92,1010.95 4992.92,1010.39 4992.57,1010.04C4992.23,1009.69 4991.66,1009.69 4991.31,1010.04C4988.31,1013.04 4982.87,1013.04 4979.87,1010.04C4979.52,1009.69 4978.96,1009.69 4978.61,1010.04C4978.26,1010.39 4978.26,1010.95 4978.61,1011.3Z" style="fill:rgb(170,102,91);"/>
                </g>
            </g>
        </g>
    </g>
</svg>
