<?xml version="1.0" encoding="UTF-8" standalone="no"?>
<!DOCTYPE svg PUBLIC "-//W3C//DTD SVG 1.1//EN" "http://www.w3.org/Graphics/SVG/1.1/DTD/svg11.dtd">
<svg width="100%" height="100%" viewBox="0 0 256 256" version="1.1" xmlns="http://www.w3.org/2000/svg" xmlns:xlink="http://www.w3.org/1999/xlink" xml:space="preserve" xmlns:serif="http://www.serif.com/" style="fill-rule:evenodd;clip-rule:evenodd;stroke-linejoin:round;stroke-miterlimit:2;">
    <g id="Frog" transform="matrix(1.46381,0,0,1.46381,-6926.27,-368.791)">
        <g transform="matrix(0.762407,0,0,0.762407,1144.99,64.2915)">
            <g transform="matrix(1,0,0,1,-21.4619,4.45197)">
                <g transform="matrix(1,0,0,1,8.08199,-91.9376)">
                    <circle cx="4776.46" cy="373.018" r="36.348" style="fill:rgb(125,204,0);"/>
                </g>
                <g transform="matrix(0.223573,0,0,0.223573,3716.65,197.684)">
                    <circle cx="4776.46" cy="373.018" r="36.348" style="fill:rgb(60,69,77);"/>
                </g>
            </g>
            <g transform="matrix(1,0,0,1,90.6072,4.45197)">
                <g transform="matrix(1,0,0,1,8.08199,-91.9376)">
                    <circle cx="4776.46" cy="373.018" r="36.348" style="fill:rgb(125,204,0);"/>
                </g>
                <g transform="matrix(0.223573,0,0,0.223573,3716.65,197.684)">
                    <circle cx="4776.46" cy="373.018" r="36.348" style="fill:rgb(60,69,77);"/>
                </g>
            </g>
        </g>
        <g transform="matrix(1.06429,-2.9776e-18,3.13e-18,-1.14432,4693.3,551.521)">
            <path d="M118.212,110.053C160.16,110.053 194.216,133.15 194.216,173.055C194.216,212.961 160.16,236.058 118.212,236.058C76.264,236.058 42.207,212.961 42.207,173.055C42.207,133.15 76.264,110.053 118.212,110.053Z" style="fill:rgb(125,204,0);"/>
            <clipPath id="_clip1">
                <path d="M118.212,110.053C160.16,110.053 194.216,133.15 194.216,173.055C194.216,212.961 160.16,236.058 118.212,236.058C76.264,236.058 42.207,212.961 42.207,173.055C42.207,133.15 76.264,110.053 118.212,110.053Z"/>
            </clipPath>
            <g clip-path="url(#_clip1)">
                <g transform="matrix(0.64188,-1.67021e-18,1.75569e-18,-0.596988,36.0513,261.798)">
                    <path d="M38.386,221.102C37.886,217.172 37.629,213.162 37.629,209.091C37.629,158.074 78.123,116.655 128,116.655C177.877,116.655 218.371,158.074 218.371,209.091C218.371,213.162 218.114,217.172 217.614,221.102C195.898,242.579 163.793,254.185 128,254.185C92.207,254.185 60.102,242.579 38.386,221.102Z" style="fill:rgb(199,237,96);"/>
                </g>
            </g>
        </g>
        <g transform="matrix(0.784723,0,0,0.784723,3493.62,-71.1516)">
            <path d="M1653.23,482.89C1653.23,482.89 1662.28,494.389 1689.06,494.389C1715.83,494.389 1725.01,482.908 1725.01,482.908C1726.21,481.47 1726.02,479.325 1724.58,478.121C1723.14,476.917 1721,477.107 1719.79,478.546C1719.79,478.546 1711.79,487.593 1689.06,487.593C1666.36,487.593 1658.47,478.564 1658.47,478.564C1657.28,477.117 1655.13,476.912 1653.69,478.106C1652.24,479.3 1652.04,481.443 1653.23,482.89Z" style="fill:rgb(54,94,57);"/>
        </g>
        <g transform="matrix(1.06429,0,0,0.872609,4702.43,151.534)">
            <g transform="matrix(0.965926,0.315673,-0.212205,0.965926,107.913,-2.48913)">
                <circle cx="86.998" cy="174.87" r="10.068" style="fill:rgb(214,131,105);"/>
            </g>
            <g transform="matrix(0.965926,-0.315673,0.212205,0.965926,-56.715,52.4365)">
                <circle cx="86.998" cy="174.87" r="10.068" style="fill:rgb(214,131,105);"/>
            </g>
        </g>
        <g transform="matrix(0.526493,0,0,0.526493,4720.41,230.515)">
            <circle cx="90.633" cy="69.103" r="9.688" style="fill:rgb(228,251,194);"/>
        </g>
    </g>
</svg>
