<?xml version="1.0" encoding="UTF-8" standalone="no"?>
<!DOCTYPE svg PUBLIC "-//W3C//DTD SVG 1.1//EN" "http://www.w3.org/Graphics/SVG/1.1/DTD/svg11.dtd">
<svg width="100%" height="100%" viewBox="0 0 256 256" version="1.1" xmlns="http://www.w3.org/2000/svg" xmlns:xlink="http://www.w3.org/1999/xlink" xml:space="preserve" xmlns:serif="http://www.serif.com/" style="fill-rule:evenodd;clip-rule:evenodd;stroke-linejoin:round;stroke-miterlimit:2;">
    <g id="Gem-Flat---Purple" serif:id="Gem Flat - Purple" transform="matrix(1,0,0,1,9.09495e-13,0.00654446)">
        <path d="M40.89,38.188C44.671,33.19 50.577,30.252 56.844,30.253C86.058,30.256 171.376,30.266 200.98,30.269C207.421,30.27 213.467,33.372 217.224,38.604C223.749,47.692 234.271,62.345 241.838,72.883C247.216,80.374 246.776,90.571 240.772,97.57C219.498,122.37 170.41,179.593 145.663,208.442C141.915,212.811 136.467,215.354 130.711,215.419C124.955,215.485 119.45,213.067 115.604,208.785C89.912,180.182 38.551,123 16.021,97.917C9.621,90.791 9.171,80.128 14.949,72.488C23.018,61.82 34.124,47.135 40.89,38.188Z" style="fill:none;fill-rule:nonzero;"/>
        <clipPath id="_clip1">
            <path d="M40.89,38.188C44.671,33.19 50.577,30.252 56.844,30.253C86.058,30.256 171.376,30.266 200.98,30.269C207.421,30.27 213.467,33.372 217.224,38.604C223.749,47.692 234.271,62.345 241.838,72.883C247.216,80.374 246.776,90.571 240.772,97.57C219.498,122.37 170.41,179.593 145.663,208.442C141.915,212.811 136.467,215.354 130.711,215.419C124.955,215.485 119.45,213.067 115.604,208.785C89.912,180.182 38.551,123 16.021,97.917C9.621,90.791 9.171,80.128 14.949,72.488C23.018,61.82 34.124,47.135 40.89,38.188Z" clip-rule="nonzero"/>
        </clipPath>
        <g clip-path="url(#_clip1)">
            <g transform="matrix(0.237478,0,0,0.237478,4.79194,28.9491)">
                <path d="M177.357,5.415L0.869,238.742L350.184,238.742C311.977,155.155 250.964,78.399 177.357,5.415Z" style="fill:rgb(244,147,253);fill-rule:nonzero;"/>
            </g>
            <g transform="matrix(0.237478,0,0,0.237478,4.79194,28.9491)">
                <path d="M523.05,5.341C432.976,68.605 385.596,149.885 349.103,238.594C453.214,258.897 575.307,244.564 692.98,238.742C660.148,149.922 613.328,67.575 523.05,5.341Z" style="fill:rgb(235,109,249);fill-rule:nonzero;"/>
            </g>
            <g transform="matrix(0.237478,0,0,0.237478,4.79194,28.9491)">
                <path d="M869.278,5.485C788.474,68.231 731.044,146.893 692.98,238.742C809.494,271.532 923.401,259.761 1036.77,238.742L869.278,5.485Z" style="fill:rgb(244,147,253);fill-rule:nonzero;"/>
            </g>
            <g transform="matrix(0.237478,0,0,0.237478,4.79194,28.9491)">
                <path d="M692.98,238.742L869.395,5.485L523.048,5.444L692.98,238.742Z" style="fill:rgb(248,187,254);fill-rule:nonzero;"/>
            </g>
            <g transform="matrix(0.237478,0,0,0.237478,4.79194,28.9491)">
                <path d="M349.184,238.742L523.038,5.448L177.285,5.485L349.184,238.742Z" style="fill:white;fill-rule:nonzero;"/>
            </g>
            <g transform="matrix(0.237478,0,0,0.237478,4.79194,28.9491)">
                <path d="M0.869,238.742L530.647,828.777C474.967,631.585 441.249,431.824 349.184,238.742L0.869,238.742Z" style="fill:rgb(191,44,208);fill-rule:nonzero;"/>
            </g>
            <g transform="matrix(0.237478,0,0,0.237478,4.79194,28.9491)">
                <path d="M349.184,238.742L530.64,828.85C614.784,642.128 708.291,458.518 692.98,238.742L349.184,238.742Z" style="fill:rgb(208,59,226);fill-rule:nonzero;"/>
            </g>
            <g transform="matrix(0.237478,0,0,0.237478,4.79194,28.9491)">
                <path d="M1036.77,238.742L530.626,828.772L692.98,238.742L1036.77,238.742Z" style="fill:rgb(191,44,208);fill-rule:nonzero;"/>
            </g>
        </g>
    </g>
</svg>
