<?xml version="1.0" encoding="UTF-8" standalone="no"?>
<!DOCTYPE svg PUBLIC "-//W3C//DTD SVG 1.1//EN" "http://www.w3.org/Graphics/SVG/1.1/DTD/svg11.dtd">
<svg width="100%" height="100%" viewBox="0 0 256 256" version="1.1" xmlns="http://www.w3.org/2000/svg" xmlns:xlink="http://www.w3.org/1999/xlink" xml:space="preserve" xmlns:serif="http://www.serif.com/" style="fill-rule:evenodd;clip-rule:evenodd;stroke-linejoin:round;stroke-miterlimit:2;">
    <g id="Gem---Violet" serif:id="Gem - Violet" transform="matrix(0.889064,0,0,0.889064,-6169.49,-1183.24)">
        <path d="M7203.7,1467.72C7203.65,1473.09 7201.68,1478.27 7198.14,1482.32C7180.97,1501.96 7127.72,1562.84 7100.14,1594.38C7095.87,1599.27 7089.69,1602.07 7083.2,1602.07C7076.71,1602.07 7070.54,1599.26 7066.27,1594.37C7038.72,1562.83 6985.56,1501.95 6968.42,1482.32C6964.89,1478.27 6962.92,1473.1 6962.87,1467.73C6962.77,1457.52 6962.61,1440.32 6962.52,1430.11C6962.47,1424.76 6964.34,1419.55 6967.78,1415.45C6977.63,1403.72 6998.4,1378.96 7006.84,1368.9C7009.25,1366.03 7012.35,1363.8 7015.85,1362.43C7028.45,1357.48 7060.15,1345.03 7075.16,1339.14C7080.39,1337.08 7086.19,1337.06 7091.44,1339.07C7106.39,1344.8 7137.84,1356.86 7150.55,1361.74C7154.16,1363.12 7157.35,1365.41 7159.81,1368.38C7168.33,1378.64 7189.09,1403.68 7198.87,1415.47C7202.26,1419.57 7204.1,1424.73 7204.05,1430.04C7203.96,1440.23 7203.8,1457.48 7203.7,1467.72Z" style="fill:rgb(159,112,255);"/>
        <clipPath id="_clip1">
            <path d="M7203.7,1467.72C7203.65,1473.09 7201.68,1478.27 7198.14,1482.32C7180.97,1501.96 7127.72,1562.84 7100.14,1594.38C7095.87,1599.27 7089.69,1602.07 7083.2,1602.07C7076.71,1602.07 7070.54,1599.26 7066.27,1594.37C7038.72,1562.83 6985.56,1501.95 6968.42,1482.32C6964.89,1478.27 6962.92,1473.1 6962.87,1467.73C6962.77,1457.52 6962.61,1440.32 6962.52,1430.11C6962.47,1424.76 6964.34,1419.55 6967.78,1415.45C6977.63,1403.72 6998.4,1378.96 7006.84,1368.9C7009.25,1366.03 7012.35,1363.8 7015.85,1362.43C7028.45,1357.48 7060.15,1345.03 7075.16,1339.14C7080.39,1337.08 7086.19,1337.06 7091.44,1339.07C7106.39,1344.8 7137.84,1356.86 7150.55,1361.74C7154.16,1363.12 7157.35,1365.41 7159.81,1368.38C7168.33,1378.64 7189.09,1403.68 7198.87,1415.47C7202.26,1419.57 7204.1,1424.73 7204.05,1430.04C7203.96,1440.23 7203.8,1457.48 7203.7,1467.72Z"/>
        </clipPath>
        <g clip-path="url(#_clip1)">
            <g transform="matrix(-1.36604,-0.527577,-0.668853,0.797107,17113.7,3855.23)">
                <path d="M6715.84,1388.72L6662.69,1388.72L6585.28,1546.81L6715.84,1461.81L6715.84,1388.72Z" style="fill:rgb(131,78,255);"/>
            </g>
            <g transform="matrix(1.36604,-0.527577,0.668853,0.797107,-2947.13,3855.23)">
                <path d="M6715.84,1388.72L6662.69,1388.72L6585.28,1546.81L6715.84,1461.81L6715.84,1388.72Z" style="fill:rgb(149,96,255);"/>
            </g>
            <g transform="matrix(0.00963675,1.03543,-0.668853,0.785711,7875.97,-6626.34)">
                <path d="M6715.84,1369.95L6662.69,1369.18L6662.69,1461.81L6715.84,1461.81L6715.84,1369.95Z" style="fill:rgb(121,64,241);"/>
            </g>
            <g transform="matrix(-0.00963675,1.03543,0.668853,0.785711,6290.6,-6626.34)">
                <path d="M6715.84,1376.24L6656.34,1364.98L6662.69,1461.81L6715.84,1461.81L6715.84,1376.24Z" style="fill:rgb(121,64,241);"/>
            </g>
            <g transform="matrix(-1.35596,-0.524812,-0.66392,0.792929,17039.7,3841.82)">
                <path d="M6715.84,1375.61L6663.56,1386.93L6626.9,1461.81L6715.84,1461.81L6715.84,1375.61Z" style="fill:rgb(149,96,255);"/>
            </g>
            <g transform="matrix(1.35596,-0.524812,0.66392,0.792929,-2873.16,3841.82)">
                <path d="M6715.84,1374.03L6665.72,1382.52L6626.9,1461.81L6715.84,1461.81L6715.84,1374.03Z" style="fill:rgb(131,78,255);"/>
            </g>
            <g transform="matrix(1.33782,-6.66134e-16,3.05311e-16,0.888371,-1984.32,134.907)">
                <path d="M6777.91,1351.96C6777.91,1351.96 6805.64,1367.97 6821.5,1377.13C6828.01,1380.88 6832.3,1390.28 6832.3,1400.77L6832.3,1428.76C6832.3,1439.24 6828.01,1448.65 6821.5,1452.4C6810.24,1458.9 6792.98,1468.87 6783.93,1474.1C6780.05,1476.33 6775.76,1476.33 6771.89,1474.1C6762.84,1468.87 6745.58,1458.9 6734.31,1452.4C6727.81,1448.65 6723.52,1439.24 6723.52,1428.76L6723.52,1400.77C6723.52,1390.28 6727.81,1380.88 6734.31,1377.13C6750.17,1367.97 6777.91,1351.96 6777.91,1351.96Z" style="fill:rgb(184,143,255);"/>
            </g>
        </g>
    </g>
</svg>
