<?xml version="1.0" encoding="UTF-8" standalone="no"?>
<!DOCTYPE svg PUBLIC "-//W3C//DTD SVG 1.1//EN" "http://www.w3.org/Graphics/SVG/1.1/DTD/svg11.dtd">
<svg width="100%" height="100%" viewBox="0 0 256 256" version="1.1" xmlns="http://www.w3.org/2000/svg" xmlns:xlink="http://www.w3.org/1999/xlink" xml:space="preserve" xmlns:serif="http://www.serif.com/" style="fill-rule:evenodd;clip-rule:evenodd;stroke-linejoin:round;stroke-miterlimit:2;">
    <g id="Gift-Red" serif:id="Gift Red" transform="matrix(1,0,0,1,0.507728,1.72801)">
        <g transform="matrix(1,0,0,1,-0.85262,0)">
            <path d="M16.818,78.176L137.219,120.96C143.211,161.68 138.412,206.587 132.882,251.777L32.634,205.301L16.818,78.176Z" style="fill:rgb(245,112,112);"/>
            <clipPath id="_clip1">
                <path d="M16.818,78.176L137.219,120.96C143.211,161.68 138.412,206.587 132.882,251.777L32.634,205.301L16.818,78.176Z"/>
            </clipPath>
            <g clip-path="url(#_clip1)">
                <path d="M63.791,220.168L56.748,91.686L91.165,102.901L94.258,237.271L63.791,220.168Z" style="fill:rgb(255,205,107);"/>
            </g>
        </g>
        <path d="M239.046,67.716L136.063,121.005L132.006,251.777L226.277,193.611L239.046,67.716Z" style="fill:rgb(243,87,87);"/>
        <clipPath id="_clip2">
            <path d="M239.046,67.716L136.063,121.005L132.006,251.777L226.277,193.611L239.046,67.716Z"/>
        </clipPath>
        <g clip-path="url(#_clip2)">
            <path d="M173.283,228.506L178.548,96.803L209.202,82.685L201.42,210.216L173.283,228.506Z" style="fill:rgb(255,180,73);"/>
        </g>
        <path d="M15.938,78.18L117.627,34.817L239.046,67.716L136.063,121.889L15.938,78.18Z" style="fill:rgb(248,150,150);"/>
        <clipPath id="_clip3">
            <path d="M15.938,78.18L117.627,34.817L239.046,67.716L136.063,121.889L15.938,78.18Z"/>
        </clipPath>
        <g clip-path="url(#_clip3)">
            <path d="M210.348,83.823L179.191,99.841L62.002,58.133L90.608,46.507L210.348,83.823Z" style="fill:rgb(255,219,121);"/>
            <path d="M88.463,106.131L55.753,92.796L160.057,45.353L194.987,55.591L88.463,106.131Z" style="fill:rgb(255,219,121);"/>
        </g>
        <g transform="matrix(1,0,0,1,0.0771617,-1.6923)">
            <g>
                <path d="M130.481,75.624C123.998,67.139 166.444,-4.579 185.526,3.022C204.609,10.624 218.441,44.291 209.923,55.685C195.017,75.624 145.133,94.799 130.481,75.624Z" style="fill:rgb(255,219,121);"/>
                <path d="M185.754,15.873C199.992,60.686 137.018,73.433 138.592,69.073C151.042,34.578 179.297,-4.448 185.754,15.873Z" style="fill:rgb(255,180,73);"/>
            </g>
            <g transform="matrix(-1,0,0,1,268.737,0)">
                <path d="M130.481,75.624C123.998,67.139 166.444,-4.579 185.526,3.022C204.609,10.624 218.441,44.291 209.923,55.685C195.017,75.624 145.133,94.799 130.481,75.624Z" style="fill:rgb(255,219,121);"/>
                <path d="M185.754,15.873C199.992,60.686 137.018,73.433 138.592,69.073C151.042,34.578 179.297,-4.448 185.754,15.873Z" style="fill:rgb(255,180,73);"/>
            </g>
        </g>
    </g>
</svg>
