<?xml version="1.0" encoding="UTF-8" standalone="no"?>
<!DOCTYPE svg PUBLIC "-//W3C//DTD SVG 1.1//EN" "http://www.w3.org/Graphics/SVG/1.1/DTD/svg11.dtd">
<svg width="100%" height="100%" viewBox="0 0 256 256" version="1.1" xmlns="http://www.w3.org/2000/svg" xmlns:xlink="http://www.w3.org/1999/xlink" xml:space="preserve" xmlns:serif="http://www.serif.com/" style="fill-rule:evenodd;clip-rule:evenodd;stroke-linejoin:round;stroke-miterlimit:2;">
    <g id="Gift-Flat---White" serif:id="Gift Flat - White" transform="matrix(3.58526,0,0,3.58526,-4858.61,-896.897)">
        <g>
            <g>
                <g transform="matrix(0.35169,0.203048,-0.203048,0.35169,1212.87,146.042)">
                    <g transform="matrix(1.18057,7.25509e-17,-7.25509e-17,1.18057,-88.6269,-8.85227)">
                        <path d="M521.794,49.025C521.794,40.254 514.673,33.134 505.903,33.134L475.745,33.134C466.975,33.134 459.855,40.254 459.855,49.025C459.855,57.795 466.975,64.915 475.745,64.915L505.903,64.915C514.673,64.915 521.794,57.795 521.794,49.025Z" style="fill:rgb(247,131,172);"/>
                    </g>
                    <g transform="matrix(0.857864,9.5242e-17,-2.52786e-17,0.515375,69.7639,31.9482)">
                        <path d="M521.794,49.025C521.794,40.254 517.516,33.134 512.247,33.134L469.401,33.134C464.132,33.134 459.855,40.254 459.855,49.025C459.855,57.795 464.132,64.915 469.401,64.915L512.247,64.915C517.516,64.915 521.794,57.795 521.794,49.025Z" style="fill:rgb(240,101,149);"/>
                    </g>
                </g>
                <g transform="matrix(-0.35169,0.203048,0.203048,0.35169,1568.86,146.042)">
                    <g transform="matrix(1.18057,7.25509e-17,-7.25509e-17,1.18057,-88.6269,-8.85227)">
                        <path d="M521.794,49.025C521.794,40.254 514.673,33.134 505.903,33.134L475.745,33.134C466.975,33.134 459.855,40.254 459.855,49.025C459.855,57.795 466.975,64.915 475.745,64.915L505.903,64.915C514.673,64.915 521.794,57.795 521.794,49.025Z" style="fill:rgb(247,131,172);"/>
                    </g>
                    <g transform="matrix(0.857864,4.7621e-16,1.39032e-16,0.515375,69.7639,31.9482)">
                        <path d="M521.794,49.025C521.794,40.254 517.516,33.134 512.247,33.134L469.401,33.134C464.132,33.134 459.855,40.254 459.855,49.025C459.855,57.795 464.132,64.915 469.401,64.915L512.247,64.915C517.516,64.915 521.794,57.795 521.794,49.025Z" style="fill:rgb(240,101,149);"/>
                    </g>
                </g>
            </g>
            <g transform="matrix(0.5221,0,0,0.5221,1116.4,233.653)">
                <circle cx="525.698" cy="69.114" r="13.01" style="fill:rgb(240,101,149);"/>
            </g>
        </g>
        <g>
            <g transform="matrix(0.906117,0,0,0.906409,295.604,28.382)">
                <path d="M1236.67,278.184L1180.83,278.184L1180.83,312.414C1180.83,316.663 1184.28,320.107 1188.53,320.107C1199.18,320.107 1218.32,320.107 1228.98,320.107C1233.23,320.107 1236.67,316.663 1236.67,312.414C1236.67,300.311 1236.67,278.184 1236.67,278.184Z" style="fill:white;"/>
            </g>
            <g transform="matrix(3.76238e-17,0.614443,-1.07003,6.55206e-17,1706.28,-571.688)">
                <rect x="1385.43" y="271.039" width="15.949" height="47.464" style="fill:rgb(171,181,190);fill-opacity:0.3;"/>
            </g>
            <g transform="matrix(1,0,0,1,181.399,-1.13687e-13)">
                <path d="M1241.3,276.136C1241.3,272.285 1238.18,269.163 1234.33,269.163L1184.61,269.163C1180.76,269.163 1177.63,272.285 1177.63,276.136L1177.63,276.661C1177.63,280.512 1180.76,283.634 1184.61,283.634L1234.33,283.634C1238.18,283.634 1241.3,280.512 1241.3,276.661L1241.3,276.136Z" style="fill:white;"/>
            </g>
            <g transform="matrix(0.615873,0,0,1.04067,532.705,-12.9264)">
                <rect x="1385.43" y="271.039" width="15.949" height="47.464" style="fill:rgb(247,131,172);"/>
            </g>
            <g transform="matrix(0.615873,0,0,0.120444,532.705,251.019)">
                <rect x="1385.43" y="271.039" width="15.949" height="47.464" style="fill:rgb(240,101,149);"/>
            </g>
        </g>
    </g>
</svg>
