<?xml version="1.0" encoding="UTF-8" standalone="no"?>
<!DOCTYPE svg PUBLIC "-//W3C//DTD SVG 1.1//EN" "http://www.w3.org/Graphics/SVG/1.1/DTD/svg11.dtd">
<svg width="100%" height="100%" viewBox="0 0 256 256" version="1.1" xmlns="http://www.w3.org/2000/svg" xmlns:xlink="http://www.w3.org/1999/xlink" xml:space="preserve" xmlns:serif="http://www.serif.com/" style="fill-rule:evenodd;clip-rule:evenodd;stroke-linejoin:round;stroke-miterlimit:2;">
    <g id="Girl-Purple" serif:id="Girl Purple" transform="matrix(2.14603,0,0,2.14603,-10592.9,-1842.68)">
        <g transform="matrix(0.654362,0,0,0.889973,1724.35,-281.094)">
            <path d="M5056.96,1336.55C5056.96,1327 5046.41,1319.24 5033.41,1319.24L4965.12,1319.24C4952.13,1319.24 4941.58,1327 4941.58,1336.55L4941.58,1371.17C4941.58,1380.73 4952.13,1388.48 4965.12,1388.48L5033.41,1388.48C5046.41,1388.48 5056.96,1380.73 5056.96,1371.17L5056.96,1336.55Z" style="fill:rgb(50,58,65);"/>
        </g>
        <g transform="matrix(1,0,0,1.00015,-0.0079131,-0.133872)">
            <g transform="matrix(4.12525,0,0,4.7243,-15565.8,-3919.87)">
                <path d="M4991.74,1036.37C4991.74,1032.79 4988.41,1029.88 4984.3,1029.88C4980.2,1029.88 4976.87,1032.79 4976.87,1036.37L4976.87,1041.74C4976.87,1045.32 4980.2,1048.23 4984.3,1048.23C4988.41,1048.23 4991.74,1045.32 4991.74,1041.74L4991.74,1036.37Z" style="fill:rgb(159,112,255);"/>
            </g>
            <g transform="matrix(0.465976,0,0,0.465905,4936.04,858.647)">
                <path d="M127.516,186.608L127.516,372.697C127.681,372.699 127.84,372.699 128,372.699C164.316,372.699 193.801,343.215 193.801,306.899L193.801,252.407C193.801,216.091 164.316,186.606 128,186.606C127.84,186.606 127.681,186.607 127.516,186.608Z" style="fill:rgb(130,73,251);"/>
            </g>
            <g transform="matrix(1,0,0,1.46443,11.3849,-579.971)">
                <path d="M4991.74,1034.95C4991.74,1032.15 4988.41,1029.88 4984.3,1029.88C4980.2,1029.88 4976.87,1032.15 4976.87,1034.95L4976.87,1043.16C4976.87,1045.96 4980.2,1048.23 4984.3,1048.23C4988.41,1048.23 4991.74,1045.96 4991.74,1043.16L4991.74,1034.95Z" style="fill:rgb(242,173,141);"/>
            </g>
        </g>
        <g>
            <g transform="matrix(1.14006,0,0,1.14006,-685.258,-241.294)">
                <circle cx="4983.01" cy="1006.88" r="33.112" style="fill:rgb(255,206,177);"/>
            </g>
            <g transform="matrix(0.465976,0,0,0.465976,4936.04,858.645)">
                <path d="M47.182,97.291C50.088,55.209 85.188,21.929 128,21.929C170.812,21.929 205.912,55.209 208.818,97.291C193.97,100.369 175.912,97.375 159.313,87.791C144.406,79.185 133.513,66.902 128,54.059C122.487,66.902 111.594,79.185 96.687,87.791C80.088,97.375 62.03,100.369 47.182,97.291Z" style="fill:rgb(50,58,65);"/>
            </g>
            <g transform="matrix(1,0,0,1,-0.362554,-0.643275)">
                <g transform="matrix(1,0,0,1,6.68065,0)">
                    <g transform="matrix(1,0,0,1,10.6694,-93.7219)">
                        <circle cx="4965.19" cy="1006.27" r="3.19" style="fill:rgb(50,58,65);"/>
                    </g>
                    <g transform="matrix(1.69245,0.453492,-0.353675,1.31993,-3074.28,-2657.34)">
                        <circle cx="4965.19" cy="1006.27" r="3.19" style="fill:rgb(255,171,180);"/>
                    </g>
                </g>
                <g transform="matrix(1,0,0,1,33.6972,0)">
                    <g transform="matrix(1,0,0,1,10.6694,-93.7219)">
                        <circle cx="4965.19" cy="1006.27" r="3.19" style="fill:rgb(50,58,65);"/>
                    </g>
                    <g transform="matrix(1.69245,-0.453492,0.353675,1.31993,-3780.72,1846)">
                        <circle cx="4965.19" cy="1006.27" r="3.19" style="fill:rgb(255,171,180);"/>
                    </g>
                </g>
                <g transform="matrix(1,0,0,1,10.451,-91.3117)">
                    <path d="M4978.54,1011.37C4982.24,1015.07 4988.94,1015.07 4992.65,1011.37C4993.03,1010.98 4993.03,1010.36 4992.65,1009.97C4992.26,1009.58 4991.63,1009.58 4991.24,1009.97C4988.28,1012.94 4982.91,1012.94 4979.94,1009.97C4979.55,1009.58 4978.93,1009.58 4978.54,1009.97C4978.15,1010.36 4978.15,1010.98 4978.54,1011.37Z" style="fill:rgb(202,109,119);"/>
                </g>
            </g>
        </g>
    </g>
</svg>
