<?xml version="1.0" encoding="UTF-8" standalone="no"?>
<!DOCTYPE svg PUBLIC "-//W3C//DTD SVG 1.1//EN" "http://www.w3.org/Graphics/SVG/1.1/DTD/svg11.dtd">
<svg width="100%" height="100%" viewBox="0 0 256 256" version="1.1" xmlns="http://www.w3.org/2000/svg" xmlns:xlink="http://www.w3.org/1999/xlink" xml:space="preserve" xmlns:serif="http://www.serif.com/" style="fill-rule:evenodd;clip-rule:evenodd;stroke-linejoin:round;stroke-miterlimit:2;">
    <g id="Girl-Pink" serif:id="Girl Pink" transform="matrix(2.14603,0,0,2.14603,-10592.9,-1842.68)">
        <g transform="matrix(0.654362,0,0,0.889973,1724.35,-281.094)">
            <path d="M5056.96,1336.55C5056.96,1327 5046.41,1319.24 5033.41,1319.24L4965.12,1319.24C4952.13,1319.24 4941.58,1327 4941.58,1336.55L4941.58,1371.17C4941.58,1380.73 4952.13,1388.48 4965.12,1388.48L5033.41,1388.48C5046.41,1388.48 5056.96,1380.73 5056.96,1371.17L5056.96,1336.55Z" style="fill:rgb(255,236,140);"/>
        </g>
        <g transform="matrix(1,0,0,1.00015,-0.0079131,-0.133872)">
            <g transform="matrix(4.12525,0,0,4.7243,-15565.8,-3919.87)">
                <path d="M4991.74,1036.37C4991.74,1032.79 4988.41,1029.88 4984.3,1029.88C4980.2,1029.88 4976.87,1032.79 4976.87,1036.37L4976.87,1041.74C4976.87,1045.32 4980.2,1048.23 4984.3,1048.23C4988.41,1048.23 4991.74,1045.32 4991.74,1041.74L4991.74,1036.37Z" style="fill:rgb(255,87,150);"/>
            </g>
            <g transform="matrix(0.465976,0,0,0.465905,4936.04,858.647)">
                <path d="M127.516,186.608L127.516,372.697C127.681,372.699 127.84,372.699 128,372.699C164.316,372.699 193.801,343.215 193.801,306.899L193.801,252.407C193.801,216.091 164.316,186.606 128,186.606C127.84,186.606 127.681,186.607 127.516,186.608Z" style="fill:rgb(252,52,128);"/>
            </g>
            <g transform="matrix(1,0,0,1.46443,11.3849,-579.971)">
                <path d="M4991.74,1034.95C4991.74,1032.15 4988.41,1029.88 4984.3,1029.88C4980.2,1029.88 4976.87,1032.15 4976.87,1034.95L4976.87,1043.16C4976.87,1045.96 4980.2,1048.23 4984.3,1048.23C4988.41,1048.23 4991.74,1045.96 4991.74,1043.16L4991.74,1034.95Z" style="fill:rgb(242,173,141);"/>
            </g>
        </g>
        <g>
            <g transform="matrix(1.14006,0,0,1.14006,-685.258,-241.294)">
                <circle cx="4983.01" cy="1006.88" r="33.112" style="fill:rgb(255,186,145);"/>
                <clipPath id="_clip1">
                    <circle cx="4983.01" cy="1006.88" r="33.112"/>
                </clipPath>
                <g clip-path="url(#_clip1)">
                    <g transform="matrix(0.519764,0,0,0.639747,4716.14,942.006)">
                        <rect x="446.086" y="42.713" width="135.498" height="53.21" style="fill:rgb(255,236,140);"/>
                    </g>
                </g>
            </g>
            <g transform="matrix(1,0,0,1,-0.362554,-0.643275)">
                <g transform="matrix(1,0,0,1,6.68065,0)">
                    <g transform="matrix(1,0,0,1,10.6694,-93.7219)">
                        <circle cx="4965.19" cy="1006.27" r="3.19" style="fill:rgb(50,58,65);"/>
                    </g>
                    <g transform="matrix(1.69245,0.453492,-0.353675,1.31993,-3074.28,-2657.34)">
                        <circle cx="4965.19" cy="1006.27" r="3.19" style="fill:rgb(255,145,166);"/>
                    </g>
                </g>
                <g transform="matrix(1,0,0,1,33.6972,0)">
                    <g transform="matrix(1,0,0,1,10.6694,-93.7219)">
                        <circle cx="4965.19" cy="1006.27" r="3.19" style="fill:rgb(50,58,65);"/>
                    </g>
                    <g transform="matrix(1.69245,-0.453492,0.353675,1.31993,-3780.72,1846)">
                        <circle cx="4965.19" cy="1006.27" r="3.19" style="fill:rgb(255,145,166);"/>
                    </g>
                </g>
                <g transform="matrix(1,0,0,1,10.451,-91.3117)">
                    <path d="M4978.54,1011.37C4982.24,1015.07 4988.94,1015.07 4992.65,1011.37C4993.03,1010.98 4993.03,1010.36 4992.65,1009.97C4992.26,1009.58 4991.63,1009.58 4991.24,1009.97C4988.28,1012.94 4982.91,1012.94 4979.94,1009.97C4979.55,1009.58 4978.93,1009.58 4978.54,1009.97C4978.15,1010.36 4978.15,1010.98 4978.54,1011.37Z" style="fill:rgb(202,109,119);"/>
                </g>
            </g>
        </g>
        <g transform="matrix(0.599573,-0.346164,0.346164,0.599573,1584.89,1886.67)">
            <g>
                <g transform="matrix(8.37771e-17,-0.754597,0.754597,8.37771e-17,4145.87,4987.92)">
                    <path d="M5031.87,1101.08C5033.01,1098.79 5035.35,1097.35 5037.91,1097.35C5040.47,1097.35 5042.81,1098.79 5043.95,1101.08C5046.49,1106.15 5049.4,1111.98 5051.8,1116.78C5052.85,1118.88 5052.74,1121.36 5051.51,1123.35C5050.28,1125.35 5048.1,1126.56 5045.76,1126.56C5040.82,1126.56 5035,1126.56 5030.06,1126.56C5027.72,1126.56 5025.54,1125.35 5024.31,1123.35C5023.08,1121.36 5022.97,1118.88 5024.02,1116.78C5026.42,1111.98 5029.33,1106.15 5031.87,1101.08Z" style="fill:rgb(255,108,165);"/>
                </g>
                <g transform="matrix(-8.37771e-17,-0.754597,-0.754597,8.37771e-17,5799,4987.92)">
                    <path d="M5031.87,1101.08C5033.01,1098.79 5035.35,1097.35 5037.91,1097.35C5040.47,1097.35 5042.81,1098.79 5043.95,1101.08C5046.49,1106.15 5049.4,1111.98 5051.8,1116.78C5052.85,1118.88 5052.74,1121.36 5051.51,1123.35C5050.28,1125.35 5048.1,1126.56 5045.76,1126.56C5040.82,1126.56 5035,1126.56 5030.06,1126.56C5027.72,1126.56 5025.54,1125.35 5024.31,1123.35C5023.08,1121.36 5022.97,1118.88 5024.02,1116.78C5026.42,1111.98 5029.33,1106.15 5031.87,1101.08Z" style="fill:rgb(255,108,165);"/>
                </g>
            </g>
            <g transform="matrix(1,0,0,1,10.6694,-94.6575)">
                <circle cx="4961.46" cy="1280.99" r="8.741" style="fill:rgb(255,135,183);"/>
            </g>
        </g>
    </g>
</svg>
