<?xml version="1.0" encoding="UTF-8" standalone="no"?>
<!DOCTYPE svg PUBLIC "-//W3C//DTD SVG 1.1//EN" "http://www.w3.org/Graphics/SVG/1.1/DTD/svg11.dtd">
<svg width="100%" height="100%" viewBox="0 0 256 256" version="1.1" xmlns="http://www.w3.org/2000/svg" xmlns:xlink="http://www.w3.org/1999/xlink" xml:space="preserve" xmlns:serif="http://www.serif.com/" style="fill-rule:evenodd;clip-rule:evenodd;stroke-linejoin:round;stroke-miterlimit:2;">
    <g id="Globus" transform="matrix(2.33514,0,0,2.20964,-14069.6,-1535.22)">
        <g>
            <g transform="matrix(-0.438768,0.463689,-0.461894,-0.488128,9826.88,-1995.84)">
                <path d="M7213.31,1194.64C7213.31,1193.23 7212.1,1192.08 7210.61,1192.08C7209.13,1192.08 7207.92,1193.23 7207.92,1194.64L7207.92,1314.94C7207.92,1316.35 7209.13,1317.5 7210.61,1317.5C7212.1,1317.5 7213.31,1316.35 7213.31,1314.94L7213.31,1194.64Z" style="fill:rgb(50,58,65);"/>
            </g>
            <g transform="matrix(0.465384,0,0,0.655755,2711.79,-93.7219)">
                <rect x="7241.2" y="1332.14" width="11.459" height="17.584" style="fill:rgb(132,142,151);"/>
            </g>
            <g transform="matrix(0.310256,0,0,0.655755,3833.32,-93.7219)">
                <rect x="7241.2" y="1332.14" width="11.459" height="17.584" style="fill:rgb(171,181,190);"/>
            </g>
            <g transform="matrix(0.620512,0,0,0.655755,1589.36,-90.5499)">
                <path d="M7271.3,1369.59L7213.97,1369.59C7213.97,1353.77 7226.81,1340.93 7242.63,1340.93C7258.45,1340.93 7271.3,1353.77 7271.3,1369.59Z" style="fill:rgb(171,181,190);"/>
            </g>
            <g transform="matrix(0.42824,0,0,0.452563,6025.19,694.784)">
                <path d="M136.18,207.68C159.104,207.68 177.714,226.291 177.714,249.214L136.18,249.214L136.18,207.68Z" style="fill:rgb(132,142,151);"/>
            </g>
            <g transform="matrix(0.743723,0,0,0.785964,695.941,-259.686)">
                <path d="M7284.09,1300.82C7274.33,1311.95 7260,1318.99 7244.05,1318.99C7214.66,1318.99 7190.8,1295.13 7190.8,1265.74C7190.8,1249.83 7197.8,1235.54 7208.88,1225.78C7210.38,1224.46 7210.52,1222.17 7209.2,1220.67C7207.88,1219.18 7205.6,1219.03 7204.1,1220.35C7191.51,1231.44 7183.57,1247.67 7183.57,1265.74C7183.57,1299.12 7210.67,1326.22 7244.05,1326.22C7262.17,1326.22 7278.44,1318.23 7289.53,1305.59C7290.85,1304.09 7290.7,1301.8 7289.2,1300.49C7287.69,1299.17 7285.41,1299.32 7284.09,1300.82Z" style="fill:rgb(205,212,219);"/>
            </g>
        </g>
        <g id="Earth" transform="matrix(0.620567,0,0,0.655814,1588.09,-94.9493)">
            <circle cx="7244.05" cy="1265.74" r="56.862" style="fill:rgb(0,155,247);"/>
            <clipPath id="_clip1">
                <circle cx="7244.05" cy="1265.74" r="56.862"/>
            </clipPath>
            <g clip-path="url(#_clip1)">
                <g transform="matrix(0.469108,0,0,0.469108,7184,1205.7)">
                    <path d="M128,6.786C194.9,6.786 249.214,61.1 249.214,128C249.214,194.9 194.9,249.214 128,249.214L128,6.786Z" style="fill:rgb(32,117,171);"/>
                </g>
                <g transform="matrix(0.469108,0,0,0.469108,7184,1205.7)">
                    <path d="M175.013,16.255C218.589,34.626 249.214,77.765 249.214,128C249.214,129.077 249.2,130.151 249.172,131.221C238.027,139.09 224.426,143.716 209.754,143.716C171.967,143.716 141.289,113.037 141.289,75.251C141.289,50.141 154.835,28.171 175.013,16.255Z" style="fill:rgb(128,172,61);"/>
                </g>
                <g transform="matrix(1,0,0,1,-14.0947,-4.54258)">
                    <circle cx="7258.14" cy="1240.53" r="16.945" style="fill:rgb(176,223,77);"/>
                </g>
                <g transform="matrix(0.469108,0,0,0.469108,7184,1205.7)">
                    <path d="M128,28.438C147.936,28.438 164.122,44.623 164.122,64.559C164.122,84.496 147.936,100.681 128,100.681L128,28.438Z" style="fill:rgb(128,172,61);"/>
                </g>
                <g transform="matrix(0.469108,0,0,0.469108,7184,1205.7)">
                    <path d="M8.733,149.731C19.857,136.45 36.557,128 55.215,128C88.665,128 115.822,155.157 115.822,188.607C115.822,211.219 103.412,230.956 85.041,241.369C45.868,226.497 16.38,191.9 8.733,149.731Z" style="fill:rgb(176,223,77);"/>
                </g>
                <g transform="matrix(1.05652,0,0,1.05652,-411.962,-71.5469)">
                    <circle cx="7247.2" cy="1297.08" r="10.941" style="fill:rgb(176,223,77);"/>
                </g>
                <g transform="matrix(0.469108,0,0,0.469108,7184,1205.7)">
                    <path d="M128,173.957C128.549,173.921 129.102,173.902 129.66,173.902C143.259,173.902 154.301,184.943 154.301,198.543C154.301,212.143 143.259,223.184 129.66,223.184C129.102,223.184 128.549,223.166 128,223.129L128,173.957Z" style="fill:rgb(128,172,61);"/>
                </g>
                <g transform="matrix(0.50924,0,0,0.50924,3565.29,614.417)">
                    <circle cx="7247.2" cy="1297.08" r="10.941" style="fill:rgb(128,172,61);"/>
                </g>
                <g transform="matrix(0.469108,0,0,0.469108,7184,1205.7)">
                    <path d="M238.607,177.626C231.125,194.263 219.997,208.912 206.237,220.557C205.822,218.362 205.605,216.098 205.605,213.784C205.605,194.86 220.115,179.298 238.607,177.626Z" style="fill:rgb(128,172,61);"/>
                </g>
                <g transform="matrix(1,0,0,1,-2.37513,1.75941)">
                    <circle cx="7213.26" cy="1245.2" r="5.965" style="fill:rgb(176,223,77);"/>
                </g>
            </g>
        </g>
    </g>
</svg>
