<?xml version="1.0" encoding="UTF-8" standalone="no"?>
<!DOCTYPE svg PUBLIC "-//W3C//DTD SVG 1.1//EN" "http://www.w3.org/Graphics/SVG/1.1/DTD/svg11.dtd">
<svg width="100%" height="100%" viewBox="0 0 256 256" version="1.1" xmlns="http://www.w3.org/2000/svg" xmlns:xlink="http://www.w3.org/1999/xlink" xml:space="preserve" xmlns:serif="http://www.serif.com/" style="fill-rule:evenodd;clip-rule:evenodd;stroke-linejoin:round;stroke-miterlimit:2;">
    <g id="Hammer" transform="matrix(2.50122,0,0,3.81425,-13192.6,-3992.33)">
        <g transform="matrix(0.640075,0,0,1.07534,1941.03,-879.669)">
            <path d="M5297.81,1800.85C5297.81,1799.78 5295.58,1798.9 5292.83,1798.9L5282.87,1798.9C5280.12,1798.9 5277.89,1799.78 5277.89,1800.85L5277.89,1845.35C5277.89,1846.42 5280.12,1847.3 5282.87,1847.3L5292.83,1847.3C5295.58,1847.3 5297.81,1846.42 5297.81,1845.35L5297.81,1800.85Z" style="fill:rgb(207,110,83);"/>
        </g>
        <g transform="matrix(0.525775,0,0,1.04403,2549.52,-778.492)">
            <rect x="5280.08" y="1755.94" width="12.026" height="48.622" style="fill:rgb(181,87,72);"/>
        </g>
        <g transform="matrix(0.968466,0,0,0.315065,204.551,529.302)">
            <path d="M5297.81,1808.94C5297.81,1803.4 5295.58,1798.9 5292.83,1798.9L5282.87,1798.9C5280.12,1798.9 5277.89,1803.4 5277.89,1808.94L5277.89,1837.26C5277.89,1842.8 5280.12,1847.3 5282.87,1847.3L5292.83,1847.3C5295.58,1847.3 5297.81,1842.8 5297.81,1837.26L5297.81,1808.94Z" style="fill:rgb(152,72,61);"/>
        </g>
        <g transform="matrix(0.399805,0,0,0.262175,5274.48,1046.69)">
            <path d="M128,188.375L128,246.528L140.064,246.528C146.722,246.528 152.128,241.123 152.128,234.464L152.128,200.439C152.128,193.781 146.722,188.375 140.064,188.375L128,188.375Z" style="fill:rgb(133,55,47);"/>
        </g>
        <g transform="matrix(0.965926,0.169722,-0.258819,0.633411,665.604,-954.885)">
            <path d="M5326.64,1830.74C5326.64,1829.7 5325.79,1828.86 5324.76,1828.86L5305.21,1828.86C5304.17,1828.86 5303.33,1829.7 5303.33,1830.74C5303.33,1831.78 5304.17,1832.62 5305.21,1832.62L5324.76,1832.62C5325.79,1832.62 5326.64,1831.78 5326.64,1830.74Z" style="fill:rgb(128,55,48);"/>
        </g>
        <g transform="matrix(0.399805,0,0,0.262175,5274.48,1046.69)">
            <path d="M127.715,224.336L127.715,234.057L150.402,240.136C152.904,240.806 155.481,239.319 156.151,236.816C156.822,234.313 155.335,231.737 152.832,231.066L127.715,224.336Z" style="fill:rgb(112,43,40);"/>
        </g>
        <g transform="matrix(0.965926,0.169722,-0.258819,0.633411,665.604,-961.285)">
            <path d="M5326.64,1830.74C5326.64,1829.7 5325.79,1828.86 5324.76,1828.86L5305.21,1828.86C5304.17,1828.86 5303.33,1829.7 5303.33,1830.74C5303.33,1831.78 5304.17,1832.62 5305.21,1832.62L5324.76,1832.62C5325.79,1832.62 5326.64,1831.78 5326.64,1830.74Z" style="fill:rgb(128,55,48);"/>
        </g>
        <g transform="matrix(0.399805,0,0,0.262175,5274.48,1046.69)">
            <path d="M128,199.999L128,209.719L150.402,215.722C152.904,216.393 155.481,214.905 156.151,212.402C156.822,209.899 155.335,207.323 152.832,206.652L128,199.999Z" style="fill:rgb(112,43,40);"/>
        </g>
        <g transform="matrix(1.16982,0,0,0.137624,-860.184,811.188)">
            <path d="M5297.81,1811C5297.81,1804.33 5296.84,1798.9 5295.64,1798.9L5280.06,1798.9C5278.86,1798.9 5277.89,1804.33 5277.89,1811L5277.89,1835.2C5277.89,1841.87 5278.86,1847.3 5280.06,1847.3L5295.64,1847.3C5296.84,1847.3 5297.81,1841.87 5297.81,1835.2L5297.81,1811Z" style="fill:rgb(152,72,61);"/>
        </g>
        <g transform="matrix(0.901342,0,0,0.59106,535.787,18.3397)">
            <path d="M5312.63,1745.98C5313,1745.51 5313.56,1745.24 5314.15,1745.24C5314.74,1745.24 5315.3,1745.51 5315.66,1745.98C5317.9,1748.86 5322.03,1754.16 5323.8,1756.42C5323.95,1756.62 5323.98,1756.89 5323.87,1757.12C5323.76,1757.34 5323.53,1757.49 5323.28,1757.49C5319.49,1757.49 5308.81,1757.49 5305.02,1757.49C5304.76,1757.49 5304.53,1757.34 5304.42,1757.12C5304.31,1756.89 5304.34,1756.62 5304.49,1756.42C5306.26,1754.16 5310.39,1748.86 5312.63,1745.98Z" style="fill:rgb(255,236,140);"/>
        </g>
        <g transform="matrix(0.399805,0,0,0.262175,5274.48,1046.69)">
            <path d="M128,12.181C129.333,12.181 130.591,12.796 131.41,13.847C136.466,20.336 145.784,32.291 149.758,37.391C150.108,37.84 150.171,38.45 149.921,38.962C149.671,39.473 149.152,39.798 148.582,39.798L128,39.798L128,12.181Z" style="fill:rgb(230,192,67);"/>
        </g>
        <g transform="matrix(1,0,0,0.655755,10.6694,-93.7219)">
            <path d="M5344.16,1766.04C5344.16,1762.89 5341.6,1760.33 5338.45,1760.33L5291.52,1760.33C5288.36,1760.33 5285.8,1762.89 5285.8,1766.04L5285.8,1792.19C5285.8,1795.35 5288.36,1797.91 5291.52,1797.91L5338.45,1797.91C5341.6,1797.91 5344.16,1795.35 5344.16,1792.19L5344.16,1766.04Z" style="fill:rgb(232,236,239);"/>
        </g>
        <g transform="matrix(0.399805,0,0,0.262175,5274.48,1046.69)">
            <path d="M60.162,143.836L195.838,56.467C193.359,54.399 190.171,53.155 186.694,53.155L69.306,53.155C61.42,53.155 55.018,59.557 55.018,67.443L55.018,132.86C55.018,137.269 57.019,141.215 60.162,143.836Z" style="fill:white;"/>
        </g>
        <g transform="matrix(0.399805,0,0,0.262175,5274.48,1046.69)">
            <path d="M195.838,56.467L60.162,143.836C62.641,145.904 65.829,147.149 69.306,147.149L186.694,147.149C194.58,147.149 200.982,140.746 200.982,132.86L200.982,67.443C200.982,63.034 198.981,59.089 195.838,56.467Z" style="fill:rgb(171,181,190);"/>
        </g>
        <g transform="matrix(0.737311,0,0,0.45079,1406.86,270.936)">
            <path d="M5344.16,1766.04C5344.16,1762.89 5341.78,1760.33 5338.84,1760.33L5291.13,1760.33C5288.19,1760.33 5285.8,1762.89 5285.8,1766.04L5285.8,1792.19C5285.8,1795.35 5288.19,1797.91 5291.13,1797.91L5338.84,1797.91C5341.78,1797.91 5344.16,1795.35 5344.16,1792.19L5344.16,1766.04Z" style="fill:rgb(221,226,230);"/>
        </g>
        <g transform="matrix(0.399805,0,0,0.262175,5274.48,1046.69)">
            <path d="M176.482,68.932L79.518,131.372C80.865,132.067 82.393,132.459 84.012,132.459L171.988,132.459C177.409,132.459 181.811,128.058 181.811,122.637L181.811,77.667C181.811,73.864 179.645,70.564 176.482,68.932Z" style="fill:rgb(205,212,219);"/>
        </g>
    </g>
</svg>
