<?xml version="1.0" encoding="UTF-8" standalone="no"?>
<!DOCTYPE svg PUBLIC "-//W3C//DTD SVG 1.1//EN" "http://www.w3.org/Graphics/SVG/1.1/DTD/svg11.dtd">
<svg width="100%" height="100%" viewBox="0 0 256 256" version="1.1" xmlns="http://www.w3.org/2000/svg" xmlns:xlink="http://www.w3.org/1999/xlink" xml:space="preserve" xmlns:serif="http://www.serif.com/" style="fill-rule:evenodd;clip-rule:evenodd;stroke-linejoin:round;stroke-miterlimit:2;">
    <g id="Headphones" transform="matrix(1.13534,0,0,1.13534,-17.323,-31.0676)">
        <g transform="matrix(1,0,0,1,9.02719,44.3123)">
            <path d="M201.577,135.982L201.577,87.441C201.577,41.851 164.563,4.837 118.973,4.837C73.382,4.837 36.369,41.851 36.369,87.441C36.369,87.441 36.369,135.982 36.369,135.982C36.369,139.385 39.131,142.147 42.534,142.147C45.937,142.147 48.7,139.385 48.7,135.982L48.7,87.441C48.7,48.656 80.188,17.168 118.973,17.168C157.757,17.168 189.246,48.656 189.246,87.441L189.246,135.982C189.246,139.385 192.008,142.147 195.411,142.147C198.814,142.147 201.577,139.385 201.577,135.982Z" style="fill:rgb(33,37,41);"/>
        </g>
        <g transform="matrix(1,0,0,1,14.4468,-23.9325)">
            <g transform="matrix(1.08663,0,0,0.740954,-23.1932,95.0814)">
                <path d="M79.666,138.492C79.666,118.932 68.837,103.052 55.5,103.052C42.162,103.052 31.334,118.932 31.334,138.492L31.334,156.508C31.334,176.067 42.162,191.947 55.5,191.947C68.837,191.947 79.666,176.067 79.666,156.508L79.666,138.492Z" style="fill:rgb(28,126,214);"/>
            </g>
            <g transform="matrix(0.586632,0,0,1.00023,18.7332,56.8382)">
                <path d="M79.666,117.226C79.666,109.403 68.837,103.052 55.5,103.052C42.162,103.052 31.334,109.403 31.334,117.226L31.334,177.774C31.334,185.597 42.162,191.947 55.5,191.947C68.837,191.947 79.666,185.597 79.666,177.774L79.666,117.226Z" style="fill:rgb(33,37,41);"/>
            </g>
        </g>
        <g transform="matrix(-1,0,0,1,241.553,-23.9325)">
            <g transform="matrix(1.12995,0,0,0.740954,-24.5505,95.0814)">
                <path d="M79.666,139.905C79.666,119.565 68.837,103.052 55.5,103.052C42.162,103.052 31.334,119.565 31.334,139.905L31.334,155.095C31.334,175.434 42.162,191.947 55.5,191.947C68.837,191.947 79.666,175.434 79.666,155.095L79.666,139.905Z" style="fill:rgb(28,126,214);"/>
            </g>
            <g transform="matrix(0.586632,0,0,1.00023,18.7332,56.8382)">
                <path d="M79.666,117.226C79.666,109.403 68.837,103.052 55.5,103.052C42.162,103.052 31.334,109.403 31.334,117.226L31.334,177.774C31.334,185.597 42.162,191.947 55.5,191.947C68.837,191.947 79.666,185.597 79.666,177.774L79.666,117.226Z" style="fill:rgb(33,37,41);"/>
            </g>
        </g>
        <g transform="matrix(0.880796,0,0,0.880796,15.7103,27.3642)">
            <g transform="matrix(1,0,0,1,-2.17502,8.17366)">
                <path d="M27.705,158.229C27.705,155.643 25.606,153.543 23.019,153.543C20.433,153.543 18.334,155.643 18.334,158.229L18.334,173.008C18.334,175.594 20.433,177.694 23.019,177.694C25.606,177.694 27.705,175.594 27.705,173.008L27.705,158.229Z" style="fill:rgb(77,171,247);"/>
            </g>
            <g transform="matrix(1,0,0,3.09643,29.0932,-339.034)">
                <path d="M27.705,155.056C27.705,154.221 25.606,153.543 23.019,153.543C20.433,153.543 18.334,154.221 18.334,155.056L18.334,176.18C18.334,177.016 20.433,177.694 23.019,177.694C25.606,177.694 27.705,177.016 27.705,176.18L27.705,155.056Z" style="fill:rgb(40,52,64);"/>
            </g>
            <g transform="matrix(1,0,0,3.09643,170.47,-339.034)">
                <path d="M27.705,155.056C27.705,154.221 25.606,153.543 23.019,153.543C20.433,153.543 18.334,154.221 18.334,155.056L18.334,176.18C18.334,177.016 20.433,177.694 23.019,177.694C25.606,177.694 27.705,177.016 27.705,176.18L27.705,155.056Z" style="fill:rgb(40,52,64);"/>
            </g>
            <g transform="matrix(1,0,0,1,211.109,8.17366)">
                <path d="M27.705,158.229C27.705,155.643 25.606,153.543 23.019,153.543C20.433,153.543 18.334,155.643 18.334,158.229L18.334,173.008C18.334,175.594 20.433,177.694 23.019,177.694C25.606,177.694 27.705,175.594 27.705,173.008L27.705,158.229Z" style="fill:rgb(77,171,247);"/>
            </g>
        </g>
    </g>
</svg>
