<?xml version="1.0" encoding="UTF-8" standalone="no"?>
<!DOCTYPE svg PUBLIC "-//W3C//DTD SVG 1.1//EN" "http://www.w3.org/Graphics/SVG/1.1/DTD/svg11.dtd">
<svg width="100%" height="100%" viewBox="0 0 256 256" version="1.1" xmlns="http://www.w3.org/2000/svg" xmlns:xlink="http://www.w3.org/1999/xlink" xml:space="preserve" xmlns:serif="http://www.serif.com/" style="fill-rule:evenodd;clip-rule:evenodd;stroke-linejoin:round;stroke-miterlimit:2;">
    <g id="Health" transform="matrix(0.272341,0,0,0.272341,4.18409,27.5697)">
        <g>
            <g id="Heart" transform="matrix(0.895687,0,0,0.9993,2.19129,-16.5532)">
                <path d="M2.607,281.774C-31.499,40.436 303.333,-137.279 505.715,141.361C742.209,-132.889 1031.57,47.018 1008.82,286.164C987.97,505.462 738.523,771.646 510.273,771.646C282.026,771.646 33.448,499.977 2.607,281.774Z" style="fill:white;fill-rule:nonzero;"/>
            </g>
            <g transform="matrix(3.67187,0,0,3.67187,-15.3634,-101.232)">
                <path d="M128.178,61.485C185.858,-13.085 256.412,35.871 250.865,100.941C245.778,160.623 184.93,233.065 129.253,233.065C128.896,233.065 128.54,233.062 128.178,233.056L128.178,61.485Z" style="fill:rgb(241,243,245);"/>
            </g>
        </g>
        <g>
            <g transform="matrix(3.03068,0,0,3.03068,66.0028,-108.936)">
                <circle cx="128.233" cy="157.622" r="52.259" style="fill:rgb(64,192,87);"/>
            </g>
            <g transform="matrix(7.64231,0,0,7.23158,-47277.2,-5125.02)">
                <g transform="matrix(0.339919,0,0,0.490619,3693.67,122.391)">
                    <path d="M7515.78,1279.45C7515.78,1276.24 7512.23,1273.64 7507.86,1273.64C7503.48,1273.64 7499.93,1276.24 7499.93,1279.45L7499.93,1318.51C7499.93,1321.71 7503.48,1324.31 7507.86,1324.31C7512.23,1324.31 7515.78,1321.71 7515.78,1318.51L7515.78,1279.45Z" style="fill:white;"/>
                </g>
                <g transform="matrix(2.0814e-17,0.359225,-0.464251,3.00417e-17,6848.78,-1937.31)">
                    <path d="M7515.78,1279.45C7515.78,1276.24 7512.23,1273.64 7507.86,1273.64C7503.48,1273.64 7499.93,1276.24 7499.93,1279.45L7499.93,1318.51C7499.93,1321.71 7503.48,1324.31 7507.86,1324.31C7512.23,1324.31 7515.78,1321.71 7515.78,1318.51L7515.78,1279.45Z" style="fill:white;"/>
                </g>
            </g>
        </g>
    </g>
</svg>
