<?xml version="1.0" encoding="UTF-8" standalone="no"?>
<!DOCTYPE svg PUBLIC "-//W3C//DTD SVG 1.1//EN" "http://www.w3.org/Graphics/SVG/1.1/DTD/svg11.dtd">
<svg width="100%" height="100%" viewBox="0 0 256 256" version="1.1" xmlns="http://www.w3.org/2000/svg" xmlns:xlink="http://www.w3.org/1999/xlink" xml:space="preserve" xmlns:serif="http://www.serif.com/" style="fill-rule:evenodd;clip-rule:evenodd;stroke-linejoin:round;stroke-miterlimit:2;">
    <g id="Heart--Shadow-Light-" serif:id="Heart (Shadow-Light)" transform="matrix(0.27215,0,0,0.27215,-9.47307,23.0616)">
        <g id="Heart" transform="matrix(0.896315,0,0,1,52.3753,0)">
            <path d="M2.607,281.774C-31.499,40.436 303.333,-137.279 505.715,141.361C742.209,-132.889 1031.57,47.018 1008.82,286.164C987.97,505.462 738.523,771.646 510.273,771.646C282.026,771.646 33.448,499.977 2.607,281.774Z" style="fill:rgb(255,102,120);fill-rule:nonzero;"/>
        </g>
        <g transform="matrix(3.67444,0,0,3.67444,34.8083,-84.7384)">
            <path d="M128.178,61.485C185.858,-13.085 256.412,35.871 250.865,100.941C245.778,160.623 184.93,233.065 129.253,233.065C128.896,233.065 128.54,233.062 128.178,233.056L128.178,61.485Z" style="fill:rgb(254,76,106);"/>
        </g>
        <g transform="matrix(0.515268,0,0,0.574874,145.765,100.048)">
            <path d="M45.055,276.955C29.878,169.565 99.994,76.512 195.783,47.227C218.134,40.395 230.09,18.583 222.467,-1.45C214.843,-21.483 190.508,-32.2 168.158,-25.367C37.535,14.568 -60.536,140.152 -39.841,286.594C-36.873,307.592 -15.444,322.481 7.984,319.821C31.411,317.161 48.022,297.954 45.055,276.955Z" style="fill:white;"/>
        </g>
    </g>
</svg>
