<?xml version="1.0" encoding="UTF-8" standalone="no"?>
<!DOCTYPE svg PUBLIC "-//W3C//DTD SVG 1.1//EN" "http://www.w3.org/Graphics/SVG/1.1/DTD/svg11.dtd">
<svg width="100%" height="100%" viewBox="0 0 256 256" version="1.1" xmlns="http://www.w3.org/2000/svg" xmlns:xlink="http://www.w3.org/1999/xlink" xml:space="preserve" xmlns:serif="http://www.serif.com/" style="fill-rule:evenodd;clip-rule:evenodd;stroke-linejoin:round;stroke-miterlimit:2;">
    <g id="Helmet-Wings" serif:id="Helmet Wings" transform="matrix(1.47365,0,0,1.39445,-6338.94,-1457.76)">
        <g transform="matrix(1.48931,0,0,1.48931,-2638.18,-868.665)">
            <g transform="matrix(0.673582,2.77556e-17,-8.32667e-17,0.673582,1540.69,433.812)">
                <g transform="matrix(0.835188,0,0,0.835188,776.099,216.456)">
                    <g transform="matrix(0.315903,0,0,0.904701,2969.11,-640.405)">
                        <path d="M5407.07,2151.18C5407.07,2141.21 5385.13,2133.11 5358.11,2133.11L5358.11,2180.13L5407.07,2180.13L5407.07,2151.18Z" style="fill:rgb(248,206,81);"/>
                    </g>
                    <g transform="matrix(0.742961,0,0,0.785159,970.934,-371.386)">
                        <path d="M4929.07,2136.46L4922.12,2136.46C4913.84,2136.46 4907.12,2129.74 4907.12,2121.46L4907.12,2119.52C4907.12,2117.17 4909.03,2115.26 4911.39,2115.26L4967.32,2115.26C4979.03,2115.26 4988.53,2124.76 4988.53,2136.46C4988.53,2136.46 4988.33,2143.55 4988.44,2151.32C4988.47,2153.5 4990.25,2155.26 4992.44,2155.26C4999.27,2155.26 5012.65,2155.26 5012.65,2155.26L5012.65,2175.19L4967.29,2175.19C4959.51,2175.19 4953.19,2168.87 4953.19,2161.09L4953.19,2155.82L4943.17,2155.82C4935.39,2155.82 4929.07,2149.51 4929.07,2141.73L4929.07,2136.46Z" style="fill:rgb(255,211,0);"/>
                    </g>
                </g>
                <g transform="matrix(0.21305,0,0,0.451548,3588.14,338.608)">
                    <path d="M4976.62,2122.88C4976.62,2119.96 4971.86,2117.59 4966,2117.59L4921.41,2117.59C4915.55,2117.59 4910.79,2119.96 4910.79,2122.88C4910.79,2125.8 4915.55,2128.18 4921.41,2128.18L4966,2128.18C4971.86,2128.18 4976.62,2125.8 4976.62,2122.88Z" style="fill:rgb(255,243,184);"/>
                </g>
                <g transform="matrix(0.173598,0,0,0.451548,3795.75,351.791)">
                    <path d="M4976.62,2122.88C4976.62,2119.96 4970.78,2117.59 4963.59,2117.59L4923.82,2117.59C4916.63,2117.59 4910.79,2119.96 4910.79,2122.88C4910.79,2125.8 4916.63,2128.18 4923.82,2128.18L4963.59,2128.18C4970.78,2128.18 4976.62,2125.8 4976.62,2122.88Z" style="fill:rgb(255,243,184);"/>
                </g>
                <g transform="matrix(0.125202,0,0,0.451548,4048.69,364.019)">
                    <path d="M4976.62,2122.88C4976.62,2119.96 4968.52,2117.59 4958.55,2117.59L4928.86,2117.59C4918.89,2117.59 4910.79,2119.96 4910.79,2122.88C4910.79,2125.8 4918.89,2128.18 4928.86,2128.18L4958.55,2128.18C4968.52,2128.18 4976.62,2125.8 4976.62,2122.88Z" style="fill:rgb(255,243,184);"/>
                </g>
                <g transform="matrix(0.620512,-3.08149e-33,0,0.655755,1586.55,-92.4604)">
                    <path d="M4983.56,2146.77C4986.69,2146.77 4989.23,2144.23 4989.23,2141.1C4989.23,2139.57 4989.23,2137.62 4989.23,2135.15C4989.23,2127.94 4986.84,2122.52 4983.06,2118.86C4979.23,2115.16 4973.83,2113.14 4967.29,2113.33C4964.17,2113.42 4961.7,2116.03 4961.79,2119.15C4961.88,2122.28 4964.49,2124.75 4967.61,2124.66C4970.71,2124.57 4973.36,2125.25 4975.18,2127.01C4977.04,2128.81 4977.89,2131.6 4977.89,2135.15L4977.89,2141.1C4977.89,2144.23 4980.43,2146.77 4983.56,2146.77C4983.56,2146.77 4983.56,2146.77 4983.56,2146.77Z" style="fill:rgb(255,194,0);"/>
                </g>
            </g>
            <g transform="matrix(-0.673582,8.32667e-17,2.77556e-17,0.673582,7895.31,433.812)">
                <g transform="matrix(0.835188,0,0,0.835188,776.099,216.456)">
                    <g transform="matrix(0.315903,0,0,0.904701,2969.11,-640.405)">
                        <path d="M5407.07,2151.18C5407.07,2141.21 5385.13,2133.11 5358.11,2133.11L5358.11,2180.13L5407.07,2180.13L5407.07,2151.18Z" style="fill:rgb(248,206,81);"/>
                    </g>
                    <g transform="matrix(0.742961,0,0,0.785159,970.934,-371.386)">
                        <path d="M4929.07,2136.46L4922.12,2136.46C4913.84,2136.46 4907.12,2129.74 4907.12,2121.46L4907.12,2119.52C4907.12,2117.17 4909.03,2115.26 4911.39,2115.26L4967.32,2115.26C4979.03,2115.26 4988.53,2124.76 4988.53,2136.46C4988.53,2136.46 4988.33,2143.55 4988.44,2151.32C4988.47,2153.5 4990.25,2155.26 4992.44,2155.26C4999.27,2155.26 5012.65,2155.26 5012.65,2155.26L5012.65,2175.19L4967.29,2175.19C4959.51,2175.19 4953.19,2168.87 4953.19,2161.09L4953.19,2155.82L4943.17,2155.82C4935.39,2155.82 4929.07,2149.51 4929.07,2141.73L4929.07,2136.46Z" style="fill:rgb(255,211,0);"/>
                    </g>
                </g>
                <g transform="matrix(0.21305,0,0,0.451548,3588.14,338.608)">
                    <path d="M4976.62,2122.88C4976.62,2119.96 4971.86,2117.59 4966,2117.59L4921.41,2117.59C4915.55,2117.59 4910.79,2119.96 4910.79,2122.88C4910.79,2125.8 4915.55,2128.18 4921.41,2128.18L4966,2128.18C4971.86,2128.18 4976.62,2125.8 4976.62,2122.88Z" style="fill:rgb(255,243,184);"/>
                </g>
                <g transform="matrix(0.173598,0,0,0.451548,3795.75,351.791)">
                    <path d="M4976.62,2122.88C4976.62,2119.96 4970.78,2117.59 4963.59,2117.59L4923.82,2117.59C4916.63,2117.59 4910.79,2119.96 4910.79,2122.88C4910.79,2125.8 4916.63,2128.18 4923.82,2128.18L4963.59,2128.18C4970.78,2128.18 4976.62,2125.8 4976.62,2122.88Z" style="fill:rgb(255,243,184);"/>
                </g>
                <g transform="matrix(0.125202,0,0,0.451548,4048.69,364.019)">
                    <path d="M4976.62,2122.88C4976.62,2119.96 4968.52,2117.59 4958.55,2117.59L4928.86,2117.59C4918.89,2117.59 4910.79,2119.96 4910.79,2122.88C4910.79,2125.8 4918.89,2128.18 4928.86,2128.18L4958.55,2128.18C4968.52,2128.18 4976.62,2125.8 4976.62,2122.88Z" style="fill:rgb(255,243,184);"/>
                </g>
                <g transform="matrix(0.620512,0,0,0.655755,1586.55,-92.4604)">
                    <path d="M4983.56,2146.77C4980.43,2146.77 4977.89,2144.23 4977.89,2141.1C4977.89,2139.57 4977.89,2137.62 4977.89,2135.15C4977.89,2131.6 4977.04,2128.81 4975.18,2127.01C4973.36,2125.25 4970.71,2124.57 4967.61,2124.66C4964.49,2124.75 4961.88,2122.28 4961.79,2119.15C4961.7,2116.03 4964.17,2113.42 4967.29,2113.33C4973.83,2113.14 4979.23,2115.16 4983.06,2118.86C4986.84,2122.52 4989.23,2127.94 4989.23,2135.15L4989.23,2141.1C4989.23,2144.23 4986.69,2146.77 4983.56,2146.77C4983.56,2146.77 4983.56,2146.77 4983.56,2146.77Z" style="fill:rgb(255,194,0);"/>
                </g>
            </g>
        </g>
        <g transform="matrix(1,0,0,1,0.383114,0)">
            <g transform="matrix(0.924133,0,0,0.976621,-287.888,-813.667)">
                <path d="M5059.75,1953.95C5091.23,1953.95 5116.79,1979.51 5116.79,2010.99L5116.79,2026.89L5002.7,2026.89L5002.7,2010.99C5002.7,1979.51 5028.26,1953.95 5059.75,1953.95Z" style="fill:rgb(221,226,230);"/>
            </g>
            <g transform="matrix(0.678585,0,0,0.717127,4301.13,1045.4)">
                <path d="M205.355,139.061C205.575,141.438 205.688,143.852 205.688,146.292L205.688,162.267L133.493,162.267L133.493,139.061L205.355,139.061Z" style="fill:rgb(71,80,88);fill-opacity:0.33;"/>
            </g>
            <g transform="matrix(0.678585,0,0,0.717127,4301.13,1045.4)">
                <path d="M50.645,139.061L125.796,139.061L125.796,162.267L50.312,162.267L50.312,146.292C50.312,143.852 50.425,141.438 50.645,139.061Z" style="fill:rgb(193,201,207);"/>
            </g>
            <g transform="matrix(0.678585,0,0,0.717127,4301.13,1045.4)">
                <path d="M129.501,68.618C171.687,69.419 205.688,103.916 205.688,146.292L205.688,158.783L129.501,158.783L129.501,68.618Z" style="fill:rgb(132,142,151);"/>
            </g>
            <g transform="matrix(0.924133,0,0,0.976621,-281.094,-814.275)">
                <circle cx="5023.59" cy="1985.47" r="8.153" style="fill:rgb(248,249,250);"/>
            </g>
        </g>
        <g transform="matrix(0.593306,0,0,0.976621,1413.06,-806.574)">
            <path d="M5116.19,2012.04C5116.19,2009.51 5112.99,2007.45 5109.05,2007.45L5009.24,2007.45C5005.3,2007.45 5002.1,2009.51 5002.1,2012.04L5002.1,2021.21C5002.1,2023.74 5005.3,2025.8 5009.24,2025.8L5109.05,2025.8C5112.99,2025.8 5116.19,2023.74 5116.19,2021.21L5116.19,2012.04Z" style="fill:rgb(255,134,0);"/>
        </g>
        <g transform="matrix(0.514131,0,0,0.976621,1756.49,-806.574)">
            <path d="M5116.19,2012.04C5116.19,2009.51 5112.5,2007.45 5107.95,2007.45L5010.34,2007.45C5005.79,2007.45 5002.1,2009.51 5002.1,2012.04L5002.1,2021.21C5002.1,2023.74 5005.79,2025.8 5010.34,2025.8L5107.95,2025.8C5112.5,2025.8 5116.19,2023.74 5116.19,2021.21L5116.19,2012.04Z" style="fill:rgb(255,194,0);"/>
        </g>
        <g transform="matrix(0.873368,0,0,0.765482,-32.6286,-388.722)">
            <path d="M5073.4,1938.04C5073.4,1935.97 5072.01,1934.3 5070.29,1934.3C5065.94,1934.3 5058.09,1934.3 5053.74,1934.3C5052.03,1934.3 5050.64,1935.97 5050.64,1938.04C5050.64,1958.81 5050.64,2059.23 5050.64,2071.49C5050.64,2072.29 5050.85,2073.07 5051.24,2073.71C5052.76,2076.21 5056.83,2082.9 5059.51,2087.3C5060.1,2088.26 5061.03,2088.83 5062.02,2088.83C5063.01,2088.83 5063.94,2088.26 5064.52,2087.3C5067.2,2082.9 5071.27,2076.21 5072.8,2073.71C5073.19,2073.07 5073.4,2072.29 5073.4,2071.49C5073.4,2059.23 5073.4,1958.81 5073.4,1938.04Z" style="fill:rgb(255,224,73);"/>
        </g>
        <g transform="matrix(0.678585,0,0,0.717127,4301.51,1045.4)">
            <path d="M128,64.908L128,229.858C129.273,229.858 130.47,229.252 131.224,228.226C134.673,223.529 139.912,216.395 141.872,213.726C142.377,213.039 142.648,212.21 142.648,211.358C142.648,198.266 142.648,91.07 142.648,68.908C142.648,66.699 140.858,64.908 138.648,64.908L128,64.908Z" style="fill:rgb(255,173,0);"/>
        </g>
        <g transform="matrix(1.30134,0,0,1.30134,-1322.39,-346.685)">
            <g transform="matrix(3.22024,0,0,4.44239,-16883.9,-4732.06)">
                <path d="M6605.24,1322.46C6605.37,1322.32 6605.59,1322.24 6605.81,1322.24C6606.04,1322.24 6606.25,1322.32 6606.39,1322.46C6607.31,1323.39 6609.11,1325.19 6609.86,1325.93C6610.06,1326.13 6610.06,1326.41 6609.86,1326.61C6609.11,1327.35 6607.31,1329.15 6606.39,1330.08C6606.25,1330.22 6606.04,1330.3 6605.81,1330.3C6605.59,1330.3 6605.37,1330.22 6605.24,1330.08C6604.31,1329.15 6602.51,1327.35 6601.76,1326.61C6601.57,1326.41 6601.57,1326.13 6601.76,1325.93C6602.51,1325.19 6604.31,1323.39 6605.24,1322.46Z" style="fill:rgb(255,211,0);"/>
                <clipPath id="_clip1">
                    <path d="M6605.24,1322.46C6605.37,1322.32 6605.59,1322.24 6605.81,1322.24C6606.04,1322.24 6606.25,1322.32 6606.39,1322.46C6607.31,1323.39 6609.11,1325.19 6609.86,1325.93C6610.06,1326.13 6610.06,1326.41 6609.86,1326.61C6609.11,1327.35 6607.31,1329.15 6606.39,1330.08C6606.25,1330.22 6606.04,1330.3 6605.81,1330.3C6605.59,1330.3 6605.37,1330.22 6605.24,1330.08C6604.31,1329.15 6602.51,1327.35 6601.76,1326.61C6601.57,1326.41 6601.57,1326.13 6601.76,1325.93C6602.51,1325.19 6604.31,1323.39 6605.24,1322.46Z"/>
                </clipPath>
                <g clip-path="url(#_clip1)">
                    <g transform="matrix(-0.0742524,0,0,0.118564,6981.47,1091.43)">
                        <rect x="5059.15" y="1934.94" width="73.355" height="85.225" style="fill:rgb(255,173,0);"/>
                    </g>
                </g>
            </g>
            <g transform="matrix(1.89856,0,0,2.6191,-8153.13,-2313.89)">
                <path d="M6604.84,1322.86C6605.07,1322.63 6605.43,1322.49 6605.81,1322.49C6606.19,1322.49 6606.55,1322.63 6606.78,1322.86C6607.66,1323.73 6608.9,1324.98 6609.62,1325.7C6609.96,1326.04 6609.96,1326.5 6609.62,1326.84C6608.9,1327.56 6607.66,1328.81 6606.78,1329.68C6606.55,1329.91 6606.19,1330.05 6605.81,1330.05C6605.43,1330.05 6605.07,1329.91 6604.84,1329.68C6603.97,1328.81 6602.72,1327.56 6602,1326.84C6601.66,1326.5 6601.66,1326.04 6602,1325.7C6602.72,1324.98 6603.97,1323.73 6604.84,1322.86Z" style="fill:rgb(85,194,255);"/>
                <clipPath id="_clip2">
                    <path d="M6604.84,1322.86C6605.07,1322.63 6605.43,1322.49 6605.81,1322.49C6606.19,1322.49 6606.55,1322.63 6606.78,1322.86C6607.66,1323.73 6608.9,1324.98 6609.62,1325.7C6609.96,1326.04 6609.96,1326.5 6609.62,1326.84C6608.9,1327.56 6607.66,1328.81 6606.78,1329.68C6606.55,1329.91 6606.19,1330.05 6605.81,1330.05C6605.43,1330.05 6605.07,1329.91 6604.84,1329.68C6603.97,1328.81 6602.72,1327.56 6602,1326.84C6601.66,1326.5 6601.66,1326.04 6602,1325.7C6602.72,1324.98 6603.97,1323.73 6604.84,1322.86Z"/>
                </clipPath>
                <g clip-path="url(#_clip2)">
                    <g transform="matrix(0.0637989,0,0,0.219199,6283.04,892.093)">
                        <rect x="5059.15" y="1934.94" width="73.355" height="85.225" style="fill:rgb(0,155,247);"/>
                    </g>
                </g>
            </g>
            <g transform="matrix(0.420565,-0.576244,0.389737,0.317674,11.3374,5767.27)">
                <path d="M8899.82,1623.38C8899.82,1621.6 8898.79,1620.16 8897.52,1620.16L8891.99,1620.16C8890.72,1620.16 8889.69,1621.6 8889.69,1623.38C8889.69,1625.15 8890.72,1626.59 8891.99,1626.59L8897.52,1626.59C8898.79,1626.59 8899.82,1625.15 8899.82,1623.38Z" style="fill:rgb(201,236,255);"/>
            </g>
        </g>
    </g>
</svg>
