<?xml version="1.0" encoding="UTF-8" standalone="no"?>
<!DOCTYPE svg PUBLIC "-//W3C//DTD SVG 1.1//EN" "http://www.w3.org/Graphics/SVG/1.1/DTD/svg11.dtd">
<svg width="100%" height="100%" viewBox="0 0 256 256" version="1.1" xmlns="http://www.w3.org/2000/svg" xmlns:xlink="http://www.w3.org/1999/xlink" xml:space="preserve" xmlns:serif="http://www.serif.com/" style="fill-rule:evenodd;clip-rule:evenodd;stroke-linejoin:round;stroke-miterlimit:2;">
    <g id="Ice-Cream-Cup" serif:id="Ice Cream Cup" transform="matrix(0.883903,0,0,0.883903,-4882.89,-594.488)">
        <g>
            <g transform="matrix(0.333057,0.19229,-0.283293,0.490678,4375.56,-1179.36)">
                <path d="M5551.82,1668.34C5551.82,1650.18 5530.11,1635.44 5503.36,1635.44C5476.61,1635.44 5454.9,1650.18 5454.9,1668.34L5454.9,1802.71C5454.9,1820.87 5476.61,1835.6 5503.36,1835.6C5530.11,1835.6 5551.82,1820.87 5551.82,1802.71L5551.82,1668.34Z" style="fill:rgb(235,167,110);"/>
            </g>
            <g transform="matrix(1.13135,0,0,1.13135,5524.24,672.572)">
                <path d="M195.287,7.768L145.166,94.579C153.04,99.125 163.123,96.423 167.669,88.549L201.316,30.271C205.862,22.397 203.16,12.314 195.287,7.768Z" style="fill:rgb(220,151,96);"/>
            </g>
        </g>
        <g transform="matrix(1,0,0,1,0.538659,-94.2519)">
            <path d="M5633.93,851.685C5637.82,836.2 5651.84,824.719 5668.52,824.719C5685.2,824.719 5699.22,836.2 5703.1,851.685C5708.57,848.275 5715.02,846.305 5721.93,846.305C5740.68,846.305 5756.06,860.807 5757.47,879.197C5774.56,885.229 5786.82,901.533 5786.82,920.678C5786.82,944.949 5767.12,964.653 5742.85,964.653L5594.19,964.653C5569.91,964.653 5550.21,944.949 5550.21,920.678C5550.21,901.533 5562.47,885.229 5579.56,879.197C5580.97,860.807 5596.36,846.305 5615.1,846.305C5622.01,846.305 5628.47,848.275 5633.93,851.685Z" style="fill:rgb(248,224,196);"/>
        </g>
        <g transform="matrix(1.13135,0,0,1.13135,5524.24,672.572)">
            <path d="M24.485,145.025C23.794,142.124 23.428,139.1 23.428,135.992C23.428,119.07 34.265,104.659 49.37,99.327C50.617,83.072 64.218,70.254 80.788,70.254C86.896,70.254 92.6,71.995 97.432,75.009C100.863,61.322 113.256,51.174 128,51.174C142.744,51.174 155.137,61.322 158.568,75.009C163.4,71.995 169.104,70.254 175.212,70.254C191.782,70.254 205.383,83.072 206.63,99.327C220.485,104.218 230.75,116.748 232.352,131.847L232.352,140.14C232.042,143.06 231.408,145.884 230.486,148.575L227.143,148.575C213.454,148.575 202.357,137.478 202.357,123.789L202.357,118.138C202.357,112.6 200.157,107.289 196.241,103.374C192.326,99.458 187.015,97.258 181.477,97.258L181.475,97.258C178.605,97.258 175.851,98.399 173.822,100.429C171.792,102.458 170.651,105.212 170.651,108.082C170.651,110.389 170.651,112.815 170.651,115.091C170.651,120.649 166.145,125.155 160.587,125.155C160.586,125.155 160.586,125.155 160.585,125.155C146.47,125.155 135.028,113.713 135.028,99.598L135.028,89.971C135.028,81.993 128.56,75.525 120.581,75.525C120.581,75.525 120.581,75.525 120.581,75.525C116.75,75.525 113.075,77.047 110.366,79.756C107.657,82.465 106.135,86.14 106.135,89.971L106.135,140.858C106.135,144.835 104.555,148.649 101.742,151.462C98.93,154.274 95.116,155.854 91.138,155.854L91.136,155.854C87.158,155.854 83.344,154.274 80.532,151.462C77.719,148.649 76.139,144.835 76.139,140.858L76.139,131.678C76.139,124.987 70.715,119.563 64.024,119.563C63.396,119.563 62.767,119.563 62.145,119.563C56.491,119.563 51.906,124.147 51.906,129.802C51.906,129.803 51.906,129.804 51.906,129.804C51.906,138.211 45.092,145.025 36.686,145.025L24.485,145.025Z" style="fill:rgb(181,87,72);"/>
        </g>
        <g transform="matrix(1.13135,0,0,1.13135,5524.24,672.572)">
            <path d="M128.002,51.174C142.747,51.176 155.138,61.324 158.568,75.009C163.4,71.995 169.104,70.254 175.212,70.254C191.782,70.254 205.383,83.072 206.63,99.327C221.735,104.659 232.572,119.07 232.572,135.992C232.572,157.445 215.154,174.862 193.701,174.862L128.002,174.862L128.002,51.174Z" style="fill:rgb(93,37,22);fill-opacity:0.16;"/>
        </g>
        <g transform="matrix(1.11082,1.3572e-17,-1.3572e-17,-1,-344.775,1898.74)">
            <path d="M5499.15,1025.49C5499.87,1027.68 5499.58,1030.14 5498.37,1032.06C5497.17,1033.97 5495.19,1035.12 5493.08,1035.12C5462.56,1035.12 5365.13,1035.12 5334.61,1035.12C5332.5,1035.12 5330.53,1033.97 5329.32,1032.06C5328.11,1030.14 5327.82,1027.68 5328.55,1025.49C5332.96,1012.07 5341.13,987.251 5347.43,968.097C5352.64,952.253 5366.21,941.714 5381.4,941.714C5400.65,941.714 5427.04,941.714 5446.3,941.714C5461.48,941.714 5475.05,952.253 5480.27,968.097C5486.57,987.251 5494.73,1012.07 5499.15,1025.49Z" style="fill:rgb(149,217,255);"/>
        </g>
        <g transform="matrix(1.13135,0,0,1.13135,5524.24,672.572)">
            <path d="M128.002,168.866L128.002,251.427L159.861,251.427C174.772,251.427 188.095,242.111 193.213,228.106C199.401,211.176 207.418,189.239 211.752,177.38C212.462,175.437 212.179,173.268 210.993,171.572C209.807,169.876 207.868,168.866 205.799,168.866L128.002,168.866Z" style="fill:rgb(105,193,245);"/>
        </g>
        <g transform="matrix(1.06705,-0.37597,0.37597,1.06705,5452.13,717.235)">
            <path d="M77.539,193.293C77.539,189.61 74.549,186.62 70.866,186.62C67.183,186.62 64.192,189.61 64.192,193.293L64.192,218.551C64.192,222.234 67.183,225.225 70.866,225.225C74.549,225.225 77.539,222.234 77.539,218.551L77.539,193.293Z" style="fill:rgb(201,236,255);"/>
        </g>
    </g>
</svg>
