<?xml version="1.0" encoding="UTF-8" standalone="no"?>
<!DOCTYPE svg PUBLIC "-//W3C//DTD SVG 1.1//EN" "http://www.w3.org/Graphics/SVG/1.1/DTD/svg11.dtd">
<svg width="100%" height="100%" viewBox="0 0 256 256" version="1.1" xmlns="http://www.w3.org/2000/svg" xmlns:xlink="http://www.w3.org/1999/xlink" xml:space="preserve" xmlns:serif="http://www.serif.com/" style="fill-rule:evenodd;clip-rule:evenodd;stroke-linejoin:round;stroke-miterlimit:2;">
    <g id="Ice-Cream---White" serif:id="Ice Cream - White" transform="matrix(4.0305,0,0,3.81388,-24584.3,-900.508)">
        <g transform="matrix(1.14456,0,0,1.14456,-949.729,-46.3793)">
            <g transform="matrix(0.620512,0,0,-0.655755,1642.2,674.891)">
                <path d="M7318.99,566.329C7319.9,564.515 7321.75,563.369 7323.78,563.369C7325.81,563.369 7327.66,564.515 7328.57,566.329C7336.19,581.588 7350.26,609.717 7350.26,609.717L7297.3,609.717C7297.3,609.717 7311.36,581.588 7318.99,566.329Z" style="fill:rgb(254,209,115);"/>
            </g>
            <g transform="matrix(0.216771,0,0,0.229083,6158.95,246.813)">
                <path d="M169.359,123.33L113.626,246.194L114.294,247.529C116.89,252.721 122.196,256 128,256C133.804,256 139.11,252.721 141.706,247.529C163.546,203.849 203.806,123.33 203.806,123.33L169.359,123.33Z" style="fill:rgb(240,178,85);"/>
            </g>
            <g transform="matrix(0.542358,0,0,1.00678,2166.35,-291.132)">
                <path d="M7443.01,566.884C7443.01,564.401 7439.47,562.386 7435.11,562.386L7390.32,562.386C7385.96,562.386 7382.42,564.401 7382.42,566.884C7382.42,569.366 7385.96,571.382 7390.32,571.382L7435.11,571.382C7439.47,571.382 7443.01,569.366 7443.01,566.884Z" style="fill:rgb(240,178,85);"/>
            </g>
        </g>
        <g transform="matrix(0.276391,0,0,0.292089,4107.28,69.0154)">
            <path d="M7312.69,578.932C7314.79,574.732 7319.08,572.078 7323.78,572.078C7328.47,572.078 7332.77,574.732 7334.87,578.932C7342.12,593.439 7350.26,609.717 7350.26,609.717L7297.3,609.717C7297.3,609.717 7305.43,593.439 7312.69,578.932Z" style="fill:rgb(246,226,206);"/>
        </g>
        <g transform="matrix(0.620512,0,0,0.655755,1587.01,-95.1941)">
            <path d="M7354.36,553.664C7354.36,548.291 7350,543.929 7344.63,543.929L7302.33,543.929C7296.95,543.929 7292.59,548.291 7292.59,553.664C7292.59,559.036 7296.95,563.398 7302.33,563.398L7344.63,563.398C7350,563.398 7354.36,559.036 7354.36,553.664Z" style="fill:rgb(246,226,206);"/>
        </g>
        <g transform="matrix(0.515417,0,0,0.655755,2356.67,-105.203)">
            <path d="M7354.36,553.664C7354.36,548.291 7349.11,543.929 7342.64,543.929L7304.31,543.929C7297.84,543.929 7292.59,548.291 7292.59,553.664C7292.59,559.036 7297.84,563.398 7304.31,563.398L7342.64,563.398C7349.11,563.398 7354.36,559.036 7354.36,553.664Z" style="fill:rgb(246,226,206);"/>
        </g>
        <g transform="matrix(0.369296,0,0,0.655755,3426.79,-115.212)">
            <path d="M7354.36,553.664C7354.36,548.291 7347.03,543.929 7338.01,543.929L7308.95,543.929C7299.92,543.929 7292.59,548.291 7292.59,553.664C7292.59,559.036 7299.92,563.398 7308.95,563.398L7338.01,563.398C7347.03,563.398 7354.36,559.036 7354.36,553.664Z" style="fill:rgb(246,226,206);"/>
        </g>
        <g transform="matrix(0.29377,0,0,0.371758,3971.62,60.9014)">
            <path d="M7354.36,553.664C7354.36,548.291 7349.14,543.929 7342.71,543.929L7304.25,543.929C7297.82,543.929 7292.59,548.291 7292.59,553.664C7292.59,559.036 7297.82,563.398 7304.25,563.398L7342.71,563.398C7349.14,563.398 7354.36,559.036 7354.36,553.664Z" style="fill:rgb(250,248,236);"/>
        </g>
        <g transform="matrix(0.306626,0,0,0.371758,3882.24,50.2606)">
            <path d="M7354.36,553.664C7354.36,548.291 7349.36,543.929 7343.19,543.929L7303.76,543.929C7297.6,543.929 7292.59,548.291 7292.59,553.664C7292.59,559.036 7297.6,563.398 7303.76,563.398L7343.19,563.398C7349.36,563.398 7354.36,559.036 7354.36,553.664Z" style="fill:rgb(250,248,236);"/>
        </g>
        <g transform="matrix(0.27497,0,0,0.371758,4116.81,40.6219)">
            <path d="M7354.36,553.664C7354.36,548.291 7348.78,543.929 7341.91,543.929L7305.05,543.929C7298.17,543.929 7292.59,548.291 7292.59,553.664C7292.59,559.036 7298.17,563.398 7305.05,563.398L7341.91,563.398C7348.78,563.398 7354.36,559.036 7354.36,553.664Z" style="fill:rgb(250,248,236);"/>
        </g>
    </g>
</svg>
