<?xml version="1.0" encoding="UTF-8" standalone="no"?>
<!DOCTYPE svg PUBLIC "-//W3C//DTD SVG 1.1//EN" "http://www.w3.org/Graphics/SVG/1.1/DTD/svg11.dtd">
<svg width="100%" height="100%" viewBox="0 0 256 256" version="1.1" xmlns="http://www.w3.org/2000/svg" xmlns:xlink="http://www.w3.org/1999/xlink" xml:space="preserve" xmlns:serif="http://www.serif.com/" style="fill-rule:evenodd;clip-rule:evenodd;stroke-linecap:round;stroke-linejoin:round;stroke-miterlimit:1.5;">
    <g id="Ice-Cream---Choco" serif:id="Ice Cream - Choco" transform="matrix(4.61315,0,0,4.36522,-28412.2,-1093.58)">
        <g transform="matrix(1,0,0,1,-0.243159,0)">
            <g transform="matrix(0.325952,0,0,0.344465,6150.91,248.654)">
                <circle cx="82.733" cy="25.331" r="9.14" style="fill:rgb(255,87,150);"/>
            </g>
            <g transform="matrix(0.325952,0,0,0.344465,6169.03,248.654)">
                <circle cx="82.733" cy="25.331" r="9.14" style="fill:rgb(159,112,255);"/>
            </g>
        </g>
        <g transform="matrix(-0.510772,0,0,0.539783,9972.9,-25.5972)">
            <circle cx="7412.72" cy="548.707" r="30.298" style="fill:rgb(155,71,58);"/>
            <clipPath id="_clip1">
                <circle cx="7412.72" cy="548.707" r="30.298"/>
            </clipPath>
            <g clip-path="url(#_clip1)">
                <g transform="matrix(-0.424399,0,0,0.424399,7467.04,511.537)">
                    <path d="M113.758,17.615C118.358,16.681 123.122,16.191 128,16.191C167.402,16.191 199.391,48.18 199.391,87.582C199.391,126.984 167.402,158.973 128,158.973C123.122,158.973 118.358,158.483 113.758,157.55C146.348,150.939 170.907,122.106 170.907,87.582C170.907,53.058 146.348,24.225 113.758,17.615Z" style="fill:rgb(127,59,47);"/>
                </g>
            </g>
        </g>
        <g transform="matrix(-0.247176,0,0,0.261215,8015.29,123.323)">
            <path d="M7423.65,520.444C7430.93,523.265 7436.85,528.819 7440.15,535.845" style="fill:none;stroke:rgb(238,160,123);stroke-width:8.19px;"/>
        </g>
        <g transform="matrix(0.325952,0,0,0.344465,6159.73,256.254)">
            <circle cx="82.733" cy="25.331" r="9.14" style="fill:rgb(0,204,222);"/>
        </g>
        <g>
            <g transform="matrix(0.620512,0,0,-0.655755,1642.2,674.891)">
                <path d="M7318.99,566.329C7319.9,564.515 7321.75,563.369 7323.78,563.369C7325.81,563.369 7327.66,564.515 7328.57,566.329C7336.19,581.588 7350.26,609.717 7350.26,609.717L7297.3,609.717C7297.3,609.717 7311.36,581.588 7318.99,566.329Z" style="fill:rgb(254,209,115);"/>
            </g>
            <g transform="matrix(0.216771,0,0,0.229083,6158.95,250.522)">
                <path d="M169.359,107.139L113.626,230.003L114.294,231.338C116.89,236.53 122.196,239.809 128,239.809C133.804,239.809 139.11,236.53 141.706,231.338C163.546,187.658 203.806,107.139 203.806,107.139L169.359,107.139Z" style="fill:rgb(240,178,85);"/>
            </g>
            <g transform="matrix(0.542358,0,0,0.468966,2166.35,9.21645)">
                <path d="M7443.01,566.884C7443.01,564.401 7441.36,562.386 7439.33,562.386L7386.1,562.386C7384.07,562.386 7382.42,564.401 7382.42,566.884C7382.42,569.366 7384.07,571.382 7386.1,571.382L7439.33,571.382C7441.36,571.382 7443.01,569.366 7443.01,566.884Z" style="fill:rgb(240,178,85);"/>
            </g>
        </g>
    </g>
</svg>
