<?xml version="1.0" encoding="UTF-8" standalone="no"?>
<!DOCTYPE svg PUBLIC "-//W3C//DTD SVG 1.1//EN" "http://www.w3.org/Graphics/SVG/1.1/DTD/svg11.dtd">
<svg width="100%" height="100%" viewBox="0 0 256 256" version="1.1" xmlns="http://www.w3.org/2000/svg" xmlns:xlink="http://www.w3.org/1999/xlink" xml:space="preserve" xmlns:serif="http://www.serif.com/" style="fill-rule:evenodd;clip-rule:evenodd;stroke-linecap:round;stroke-linejoin:round;stroke-miterlimit:1.5;">
    <g id="Image---Boy" serif:id="Image - Boy" transform="matrix(1.2553,0,0,1.2553,-7276.72,-1434.67)">
        <g transform="matrix(1.38939,0,0,1.38939,-361.79,-674.363)">
            <path d="M4564.24,1327.12C4564.24,1318.69 4557.4,1311.85 4548.97,1311.85L4463.03,1311.85C4454.61,1311.85 4447.76,1318.69 4447.76,1327.12L4447.76,1435.58C4447.76,1444 4454.61,1450.85 4463.03,1450.85L4548.97,1450.85C4557.4,1450.85 4564.24,1444 4564.24,1435.58L4564.24,1327.12Z" style="fill:rgb(205,212,219);"/>
        </g>
        <g transform="matrix(1.38939,0,0,1.34606,-361.79,-617.52)">
            <path d="M4564.24,1327.61C4564.24,1318.91 4557.4,1311.85 4548.97,1311.85L4463.03,1311.85C4454.61,1311.85 4447.76,1318.91 4447.76,1327.61L4447.76,1435.08C4447.76,1443.78 4454.61,1450.85 4463.03,1450.85L4548.97,1450.85C4557.4,1450.85 4564.24,1443.78 4564.24,1435.08L4564.24,1327.61Z" style="fill:white;"/>
        </g>
        <g transform="matrix(1.30495,0,0,1.30495,17.1224,-558.556)">
            <rect x="4459.86" y="1322.37" width="94.666" height="98.382" style="fill:rgb(177,163,253);"/>
            <clipPath id="_clip1">
                <rect x="4459.86" y="1322.37" width="94.666" height="98.382"/>
            </clipPath>
            <g clip-path="url(#_clip1)">
                <g transform="matrix(1.03037,0,0,1.03037,-638.729,432.896)">
                    <g transform="matrix(4.12525,0,0,4.7243,-15565.8,-3919.87)">
                        <path d="M4991.74,1036.37C4991.74,1032.79 4988.41,1029.88 4984.3,1029.88C4980.2,1029.88 4976.87,1032.79 4976.87,1036.37L4976.87,1041.74C4976.87,1045.32 4980.2,1048.23 4984.3,1048.23C4988.41,1048.23 4991.74,1045.32 4991.74,1041.74L4991.74,1036.37Z" style="fill:rgb(92,181,143);"/>
                    </g>
                    <g transform="matrix(0.592472,0,0,0.592472,4918.43,845.276)">
                        <path d="M130.025,169.312L130.025,315.648C130.154,315.649 130.28,315.649 130.405,315.649C158.968,315.649 182.157,292.46 182.157,263.897L182.157,221.063C182.157,192.5 158.968,169.311 130.405,169.311C130.28,169.311 130.154,169.311 130.025,169.312Z" style="fill:rgb(78,166,129);"/>
                    </g>
                    <g transform="matrix(1,0,0,1.46443,11.3849,-579.971)">
                        <path d="M4991.74,1034.95C4991.74,1032.15 4988.41,1029.88 4984.3,1029.88C4980.2,1029.88 4976.87,1032.15 4976.87,1034.95L4976.87,1043.16C4976.87,1045.96 4980.2,1048.23 4984.3,1048.23C4988.41,1048.23 4991.74,1045.96 4991.74,1043.16L4991.74,1034.95Z" style="fill:rgb(242,173,141);"/>
                    </g>
                    <g transform="matrix(1.14006,0,0,1.14006,-685.258,-241.294)">
                        <circle cx="4983.01" cy="1006.88" r="33.112" style="fill:rgb(244,185,157);"/>
                    </g>
                    <g transform="matrix(0.592472,0,0,0.592472,4918.43,845.276)">
                        <path d="M67.268,94.815C71.525,63.762 98.184,39.812 130.392,39.812C161.7,39.812 187.764,62.442 193.106,92.221L139.221,103.459C137.242,103.871 135.241,102.857 134.403,101.017C133.566,99.177 134.115,97.002 135.726,95.781L137.434,94.485L96.793,102.961C94.814,103.374 92.813,102.36 91.975,100.52C91.138,98.68 91.687,96.505 93.298,95.283L104.026,87.148L67.268,94.815Z" style="fill:rgb(115,82,77);"/>
                    </g>
                    <g transform="matrix(1,0,0,1,-0.362554,-0.643275)">
                        <g transform="matrix(1,0,0,1,6.68065,0)">
                            <g transform="matrix(1,0,0,1,10.6694,-93.7219)">
                                <circle cx="4965.19" cy="1006.27" r="3.19" style="fill:rgb(50,58,65);"/>
                            </g>
                            <g transform="matrix(1.69245,0.453492,-0.353675,1.31993,-3074.28,-2657.34)">
                                <circle cx="4965.19" cy="1006.27" r="3.19" style="fill:rgb(242,131,125);"/>
                            </g>
                        </g>
                        <g transform="matrix(1,0,0,1,33.6972,0)">
                            <g transform="matrix(1,0,0,1,10.6694,-93.7219)">
                                <circle cx="4965.19" cy="1006.27" r="3.19" style="fill:rgb(50,58,65);"/>
                            </g>
                            <g transform="matrix(1.69245,-0.453492,0.353675,1.31993,-3780.72,1846)">
                                <circle cx="4965.19" cy="1006.27" r="3.19" style="fill:rgb(242,131,125);"/>
                            </g>
                        </g>
                        <g transform="matrix(1,0,0,1,10.451,-91.3117)">
                            <path d="M4979.24,1010.67C4982.57,1014 4988.61,1014 4991.94,1010.67" style="fill:none;stroke:rgb(170,102,91);stroke-width:1.98px;"/>
                        </g>
                    </g>
                </g>
            </g>
        </g>
    </g>
</svg>
