<?xml version="1.0" encoding="UTF-8" standalone="no"?>
<!DOCTYPE svg PUBLIC "-//W3C//DTD SVG 1.1//EN" "http://www.w3.org/Graphics/SVG/1.1/DTD/svg11.dtd">
<svg width="100%" height="100%" viewBox="0 0 256 256" version="1.1" xmlns="http://www.w3.org/2000/svg" xmlns:xlink="http://www.w3.org/1999/xlink" xml:space="preserve" xmlns:serif="http://www.serif.com/" style="fill-rule:evenodd;clip-rule:evenodd;stroke-linejoin:round;stroke-miterlimit:2;">
    <g id="Image---Girl" serif:id="Image - Girl" transform="matrix(1.2553,0,0,1.2553,-7633.39,-1434.67)">
        <g transform="matrix(1.38939,0,0,1.38939,-77.6566,-674.363)">
            <path d="M4564.24,1327.12C4564.24,1318.69 4557.4,1311.85 4548.97,1311.85L4463.03,1311.85C4454.61,1311.85 4447.76,1318.69 4447.76,1327.12L4447.76,1435.58C4447.76,1444 4454.61,1450.85 4463.03,1450.85L4548.97,1450.85C4557.4,1450.85 4564.24,1444 4564.24,1435.58L4564.24,1327.12Z" style="fill:rgb(205,212,219);"/>
        </g>
        <g transform="matrix(1.38939,0,0,1.34606,-77.6566,-617.52)">
            <path d="M4564.24,1327.61C4564.24,1318.91 4557.4,1311.85 4548.97,1311.85L4463.03,1311.85C4454.61,1311.85 4447.76,1318.91 4447.76,1327.61L4447.76,1435.08C4447.76,1443.78 4454.61,1450.85 4463.03,1450.85L4548.97,1450.85C4557.4,1450.85 4564.24,1443.78 4564.24,1435.08L4564.24,1327.61Z" style="fill:white;"/>
        </g>
        <g transform="matrix(1.30495,0,0,1.30495,301.256,-558.556)">
            <rect x="4459.86" y="1322.37" width="94.666" height="98.382" style="fill:rgb(168,201,252);"/>
            <clipPath id="_clip1">
                <rect x="4459.86" y="1322.37" width="94.666" height="98.382"/>
            </clipPath>
            <g clip-path="url(#_clip1)">
                <g transform="matrix(1.03021,0,0,1.03021,-637.655,433.034)">
                    <g transform="matrix(0.654362,0,0,0.889973,1724.35,-281.094)">
                        <path d="M5056.96,1336.55C5056.96,1327 5046.41,1319.24 5033.41,1319.24L4965.12,1319.24C4952.13,1319.24 4941.58,1327 4941.58,1336.55L4941.58,1371.17C4941.58,1380.73 4952.13,1388.48 4965.12,1388.48L5033.41,1388.48C5046.41,1388.48 5056.96,1380.73 5056.96,1371.17L5056.96,1336.55Z" style="fill:rgb(66,77,85);"/>
                    </g>
                    <g transform="matrix(1,0,0,1.00015,-0.0079131,-0.133872)">
                        <g transform="matrix(4.12525,0,0,4.7243,-15565.8,-3919.87)">
                            <path d="M4991.74,1036.37C4991.74,1032.79 4988.41,1029.88 4984.3,1029.88C4980.2,1029.88 4976.87,1032.79 4976.87,1036.37L4976.87,1041.74C4976.87,1045.32 4980.2,1048.23 4984.3,1048.23C4988.41,1048.23 4991.74,1045.32 4991.74,1041.74L4991.74,1036.37Z" style="fill:rgb(92,181,143);"/>
                            <clipPath id="_clip2">
                                <path d="M4991.74,1036.37C4991.74,1032.79 4988.41,1029.88 4984.3,1029.88C4980.2,1029.88 4976.87,1032.79 4976.87,1036.37L4976.87,1041.74C4976.87,1045.32 4980.2,1048.23 4984.3,1048.23C4988.41,1048.23 4991.74,1045.32 4991.74,1041.74L4991.74,1036.37Z"/>
                            </clipPath>
                            <g clip-path="url(#_clip2)">
                                <g transform="matrix(0.134068,0,0,0.368952,4277.2,523.475)">
                                    <rect x="5273.77" y="1356.16" width="58.576" height="72.477" style="fill:rgb(78,166,129);"/>
                                </g>
                            </g>
                        </g>
                        <g transform="matrix(1,0,0,1.46443,11.3849,-579.971)">
                            <path d="M4991.74,1034.95C4991.74,1032.15 4988.41,1029.88 4984.3,1029.88C4980.2,1029.88 4976.87,1032.15 4976.87,1034.95L4976.87,1043.16C4976.87,1045.96 4980.2,1048.23 4984.3,1048.23C4988.41,1048.23 4991.74,1045.96 4991.74,1043.16L4991.74,1034.95Z" style="fill:rgb(242,173,141);"/>
                        </g>
                    </g>
                    <g>
                        <g transform="matrix(1.14006,0,0,1.14006,-685.258,-241.294)">
                            <circle cx="4983.01" cy="1006.88" r="33.112" style="fill:rgb(255,206,177);"/>
                        </g>
                        <g transform="matrix(0.592563,0,0,0.592563,4918.14,845.272)">
                            <path d="M67.299,99.075C69.584,65.983 97.186,39.812 130.852,39.812C164.518,39.812 192.12,65.983 194.405,99.075C182.729,101.496 168.528,99.141 155.475,91.605C143.753,84.837 135.187,75.178 130.852,65.079C126.517,75.178 117.951,84.837 106.229,91.605C93.176,99.141 78.975,101.496 67.299,99.075Z" style="fill:rgb(66,77,85);"/>
                        </g>
                        <g transform="matrix(1,0,0,1,-0.362554,-0.643275)">
                            <g transform="matrix(1,0,0,1,6.68065,0)">
                                <g transform="matrix(1,0,0,1,10.6694,-93.7219)">
                                    <circle cx="4965.19" cy="1006.27" r="3.19" style="fill:rgb(50,58,65);"/>
                                </g>
                                <g transform="matrix(1.69245,0.453492,-0.353675,1.31993,-3074.28,-2657.34)">
                                    <circle cx="4965.19" cy="1006.27" r="3.19" style="fill:rgb(255,171,180);"/>
                                </g>
                            </g>
                            <g transform="matrix(1,0,0,1,33.6972,0)">
                                <g transform="matrix(1,0,0,1,10.6694,-93.7219)">
                                    <circle cx="4965.19" cy="1006.27" r="3.19" style="fill:rgb(50,58,65);"/>
                                </g>
                                <g transform="matrix(1.69245,-0.453492,0.353675,1.31993,-3780.72,1846)">
                                    <circle cx="4965.19" cy="1006.27" r="3.19" style="fill:rgb(255,171,180);"/>
                                </g>
                            </g>
                            <g transform="matrix(1,0,0,1,10.451,-91.3117)">
                                <path d="M4978.54,1011.37C4982.24,1015.07 4988.94,1015.07 4992.65,1011.37C4993.03,1010.98 4993.03,1010.36 4992.65,1009.97C4992.26,1009.58 4991.63,1009.58 4991.24,1009.97C4988.28,1012.94 4982.91,1012.94 4979.94,1009.97C4979.55,1009.58 4978.93,1009.58 4978.54,1009.97C4978.15,1010.36 4978.15,1010.98 4978.54,1011.37Z" style="fill:rgb(202,109,119);"/>
                            </g>
                        </g>
                    </g>
                </g>
            </g>
        </g>
    </g>
</svg>
