<?xml version="1.0" encoding="UTF-8" standalone="no"?>
<!DOCTYPE svg PUBLIC "-//W3C//DTD SVG 1.1//EN" "http://www.w3.org/Graphics/SVG/1.1/DTD/svg11.dtd">
<svg width="100%" height="100%" viewBox="0 0 256 256" version="1.1" xmlns="http://www.w3.org/2000/svg" xmlns:xlink="http://www.w3.org/1999/xlink" xml:space="preserve" xmlns:serif="http://www.serif.com/" style="fill-rule:evenodd;clip-rule:evenodd;stroke-linecap:round;stroke-linejoin:round;stroke-miterlimit:1.5;">
    <g id="Image---Cat" serif:id="Image - Cat" transform="matrix(1.2553,0,0,1.2553,-6923.91,-1434.67)">
        <g transform="matrix(1.38939,0,0,1.38939,-642.85,-674.363)">
            <path d="M4564.24,1327.12C4564.24,1318.69 4557.4,1311.85 4548.97,1311.85L4463.03,1311.85C4454.61,1311.85 4447.76,1318.69 4447.76,1327.12L4447.76,1435.58C4447.76,1444 4454.61,1450.85 4463.03,1450.85L4548.97,1450.85C4557.4,1450.85 4564.24,1444 4564.24,1435.58L4564.24,1327.12Z" style="fill:rgb(205,212,219);"/>
        </g>
        <g transform="matrix(1.38939,0,0,1.34606,-642.85,-617.52)">
            <path d="M4564.24,1327.61C4564.24,1318.91 4557.4,1311.85 4548.97,1311.85L4463.03,1311.85C4454.61,1311.85 4447.76,1318.91 4447.76,1327.61L4447.76,1435.08C4447.76,1443.78 4454.61,1450.85 4463.03,1450.85L4548.97,1450.85C4557.4,1450.85 4564.24,1443.78 4564.24,1435.08L4564.24,1327.61Z" style="fill:white;"/>
        </g>
        <g transform="matrix(1.30495,0,0,1.30495,-263.938,-558.556)">
            <rect x="4459.86" y="1322.37" width="94.666" height="98.382" style="fill:rgb(231,203,219);"/>
            <clipPath id="_clip1">
                <rect x="4459.86" y="1322.37" width="94.666" height="98.382"/>
            </clipPath>
            <g clip-path="url(#_clip1)">
                <g transform="matrix(0.425836,0,0,0.425836,2450.55,1209.32)">
                    <g transform="matrix(0.853529,0,0,1.11877,4728.76,317.171)">
                        <ellipse cx="118.212" cy="173.055" rx="76.004" ry="63.002" style="fill:rgb(145,167,186);"/>
                    </g>
                    <g transform="matrix(-0.679323,-0.392207,-0.431536,0.747442,6223.29,360.757)">
                        <path d="M1495.46,735.055C1517.23,735.055 1534.9,763.521 1534.9,785.29C1534.9,807.059 1517.23,824.733 1495.46,824.733C1473.69,824.733 1456.02,807.059 1456.02,785.29C1456.02,763.521 1473.69,735.055 1495.46,735.055Z" style="fill:rgb(138,161,182);"/>
                    </g>
                    <g transform="matrix(0.679323,-0.392207,0.431536,0.747442,3436.03,360.757)">
                        <path d="M1495.46,735.055C1517.23,735.055 1534.9,763.521 1534.9,785.29C1534.9,807.059 1517.23,824.733 1495.46,824.733C1473.69,824.733 1456.02,807.059 1456.02,785.29C1456.02,763.521 1473.69,735.055 1495.46,735.055Z" style="fill:rgb(138,161,182);"/>
                    </g>
                    <g transform="matrix(1.06429,0,0,1.11877,4703.85,221.33)">
                        <ellipse cx="118.212" cy="173.055" rx="76.004" ry="63.002" style="fill:rgb(154,173,192);"/>
                    </g>
                    <g transform="matrix(1.43356,0,0,1.43356,4646.16,221.966)">
                        <path d="M123.586,85.591C125.042,85.493 126.514,85.443 128,85.443C129.486,85.443 130.958,85.493 132.414,85.591L132.414,112.296C132.414,114.733 130.436,116.71 128,116.71C125.564,116.71 123.586,114.733 123.586,112.296L123.586,85.591ZM138.926,86.366C141.91,86.876 144.809,87.592 147.607,88.497L146.42,102.496C146.215,104.924 144.077,106.722 141.65,106.508C139.223,106.295 137.419,104.15 137.625,101.722L138.926,86.366ZM117.074,86.366L118.375,101.722C118.581,104.15 116.777,106.295 114.35,106.508C111.923,106.722 109.785,104.924 109.58,102.496L108.393,88.497C111.19,87.593 114.09,86.876 117.074,86.366Z" style="fill:rgb(111,140,165);"/>
                    </g>
                    <g transform="matrix(1.2374,0,0,1.2374,4682.05,190.688)">
                        <g transform="matrix(0.73364,0,0,0.73364,26.0221,43.1953)">
                            <circle cx="86.998" cy="174.87" r="10.068" style="fill:rgb(50,58,65);"/>
                        </g>
                        <g transform="matrix(0.73364,0,0,0.73364,84.9,43.1953)">
                            <circle cx="86.998" cy="174.87" r="10.068" style="fill:rgb(50,58,65);"/>
                        </g>
                    </g>
                    <g transform="matrix(0.719356,0,0,0.719356,4735.88,262.61)">
                        <g transform="matrix(1.06117,0,0,1.06117,-5080.85,-363.352)">
                            <path d="M4910.83,540.098C4910.83,545.674 4906.31,550.201 4900.73,550.201C4895.15,550.201 4890.63,545.674 4890.63,540.098" style="fill:none;stroke:rgb(50,58,65);stroke-width:6.29px;"/>
                        </g>
                        <g transform="matrix(1.06117,0,0,1.06117,-5059.39,-363.352)">
                            <path d="M4910.83,540.098C4910.83,545.674 4906.31,550.201 4900.73,550.201C4895.15,550.201 4890.63,545.674 4890.63,540.098" style="fill:none;stroke:rgb(50,58,65);stroke-width:6.29px;"/>
                        </g>
                    </g>
                </g>
            </g>
        </g>
    </g>
</svg>
