<?xml version="1.0" encoding="UTF-8" standalone="no"?>
<!DOCTYPE svg PUBLIC "-//W3C//DTD SVG 1.1//EN" "http://www.w3.org/Graphics/SVG/1.1/DTD/svg11.dtd">
<svg width="100%" height="100%" viewBox="0 0 256 256" version="1.1" xmlns="http://www.w3.org/2000/svg" xmlns:xlink="http://www.w3.org/1999/xlink" xml:space="preserve" xmlns:serif="http://www.serif.com/" style="fill-rule:evenodd;clip-rule:evenodd;stroke-linejoin:round;stroke-miterlimit:2;">
    <g id="Image---Mountain" serif:id="Image - Mountain" transform="matrix(1.2553,0,0,1.2553,-7633.39,-1434.67)">
        <g transform="matrix(1.38939,0,0,1.38939,-77.6566,-674.363)">
            <path d="M4564.24,1327.12C4564.24,1318.69 4557.4,1311.85 4548.97,1311.85L4463.03,1311.85C4454.61,1311.85 4447.76,1318.69 4447.76,1327.12L4447.76,1435.58C4447.76,1444 4454.61,1450.85 4463.03,1450.85L4548.97,1450.85C4557.4,1450.85 4564.24,1444 4564.24,1435.58L4564.24,1327.12Z" style="fill:rgb(205,212,219);"/>
        </g>
        <g transform="matrix(1.38939,0,0,1.34606,-77.6566,-617.52)">
            <path d="M4564.24,1327.61C4564.24,1318.91 4557.4,1311.85 4548.97,1311.85L4463.03,1311.85C4454.61,1311.85 4447.76,1318.91 4447.76,1327.61L4447.76,1435.08C4447.76,1443.78 4454.61,1450.85 4463.03,1450.85L4548.97,1450.85C4557.4,1450.85 4564.24,1443.78 4564.24,1435.08L4564.24,1327.61Z" style="fill:white;"/>
        </g>
        <g transform="matrix(1.30495,0,0,1.30495,301.256,-558.556)">
            <rect x="4459.86" y="1322.37" width="94.666" height="98.382" style="fill:rgb(158,217,220);"/>
        </g>
        <g transform="matrix(1,0,0,1.16133,403.702,63.7638)">
            <path d="M5762.53,1000.33C5765.19,996.33 5770.13,993.861 5775.48,993.861C5780.83,993.861 5785.78,996.33 5788.43,1000.33C5804.11,1023.95 5828.43,1060.59 5828.43,1060.59L5722.53,1060.59C5722.53,1060.59 5746.86,1023.95 5762.53,1000.33Z" style="fill:rgb(164,93,63);"/>
        </g>
        <g transform="matrix(0.796625,0,0,0.796625,6080.95,1142.89)">
            <path d="M90.074,133.372L107.048,103.671C110.382,97.837 116.586,94.237 123.305,94.237C130.025,94.237 136.229,97.837 139.563,103.671L156.537,133.372L90.074,133.372Z" style="fill:rgb(248,249,250);"/>
        </g>
        <g transform="matrix(1,0,0,1,399.296,230.99)">
            <circle cx="5815.68" cy="966.592" r="18.593" style="fill:rgb(255,236,140);"/>
        </g>
    </g>
</svg>
