<?xml version="1.0" encoding="UTF-8" standalone="no"?>
<!DOCTYPE svg PUBLIC "-//W3C//DTD SVG 1.1//EN" "http://www.w3.org/Graphics/SVG/1.1/DTD/svg11.dtd">
<svg width="100%" height="100%" viewBox="0 0 256 256" version="1.1" xmlns="http://www.w3.org/2000/svg" xmlns:xlink="http://www.w3.org/1999/xlink" xml:space="preserve" xmlns:serif="http://www.serif.com/" style="fill-rule:evenodd;clip-rule:evenodd;stroke-linejoin:round;stroke-miterlimit:2;">
    <g id="Key" transform="matrix(0.232753,0.232753,-0.232753,0.232753,143.239,-46.2094)">
        <g>
            <g transform="matrix(1.09135,-9.44539e-17,1.01524e-16,0.191865,48.8658,465.101)">
                <path d="M384.683,736.663C384.683,600.602 365.263,490.138 341.343,490.138L254.237,490.138C230.317,490.138 210.897,600.602 210.897,736.663C210.897,872.723 230.317,983.187 254.237,983.187L341.343,983.187C365.263,983.187 384.683,872.723 384.683,736.663Z" style="fill:rgb(206,212,218);"/>
            </g>
            <g transform="matrix(1.09135,-9.44539e-17,1.01524e-16,0.191865,48.8658,596.125)">
                <path d="M384.683,736.663C384.683,600.602 365.263,490.138 341.343,490.138L254.237,490.138C230.317,490.138 210.897,600.602 210.897,736.663C210.897,872.723 230.317,983.187 254.237,983.187L341.343,983.187C365.263,983.187 384.683,872.723 384.683,736.663Z" style="fill:rgb(206,212,218);"/>
            </g>
            <g transform="matrix(0.819923,-4.55149e-17,6.33444e-17,1.14111,97.3351,-253.911)">
                <path d="M384.683,552.574C384.683,518.115 345.748,490.138 297.79,490.138C249.833,490.138 210.897,518.115 210.897,552.574L210.897,920.752C210.897,955.211 249.833,983.187 297.79,983.187C345.748,983.187 384.683,955.211 384.683,920.752L384.683,552.574Z" style="fill:white;"/>
            </g>
            <g transform="matrix(2.1482,-2.1482,2.1482,2.1482,-208.44,406.975)">
                <path d="M128.731,160.434L112.167,143.87L20.71,235.326C29.865,244.46 44.711,244.454 53.857,235.308L128.731,160.434Z" style="fill:rgb(206,212,218);"/>
            </g>
        </g>
        <g>
            <g transform="matrix(1.11698,-6.20051e-17,6.20051e-17,1.11698,-39.9504,-31.0932)">
                <circle cx="341.5" cy="265.788" r="229.341" style="fill:rgb(255,235,136);"/>
            </g>
            <g transform="matrix(2.1482,-2.1482,2.1482,2.1482,-208.44,406.975)">
                <path d="M220.504,35.533C253.393,68.443 253.387,121.862 220.486,154.763C187.585,187.664 134.166,187.67 101.256,154.781L220.504,35.533Z" style="fill:rgb(255,193,107);"/>
            </g>
            <g transform="matrix(1,-5.55112e-17,5.55112e-17,1,-12.3012,7.64747)">
                <circle cx="353.801" cy="164.842" r="81.241" style="fill:rgb(159,116,71);"/>
            </g>
            <g transform="matrix(2.1482,-2.1482,2.1482,2.1482,-208.44,406.975)">
                <path d="M201.504,54.532C211.922,64.97 211.916,81.902 201.486,92.332C191.056,102.762 174.124,102.768 163.686,92.35L201.504,54.532Z" style="fill:rgb(109,79,49);"/>
            </g>
        </g>
    </g>
</svg>
