<?xml version="1.0" encoding="UTF-8" standalone="no"?>
<!DOCTYPE svg PUBLIC "-//W3C//DTD SVG 1.1//EN" "http://www.w3.org/Graphics/SVG/1.1/DTD/svg11.dtd">
<svg width="100%" height="100%" viewBox="0 0 256 256" version="1.1" xmlns="http://www.w3.org/2000/svg" xmlns:xlink="http://www.w3.org/1999/xlink" xml:space="preserve" xmlns:serif="http://www.serif.com/" style="fill-rule:evenodd;clip-rule:evenodd;stroke-linejoin:round;stroke-miterlimit:2;">
    <g id="Leaf" transform="matrix(0.318208,5.55112e-17,-5.55112e-17,0.318208,20.622,-14.1342)">
        <g>
            <g transform="matrix(0.889982,4.86044e-17,4.15921e-17,1,25.4296,-68.9505)">
                <path d="M386.683,582.499C386.683,564.769 370.509,550.374 350.588,550.374C330.666,550.374 314.492,564.769 314.492,582.499L314.492,877.001C314.492,894.731 330.666,909.125 350.588,909.125C370.509,909.125 386.683,894.731 386.683,877.001L386.683,582.499Z" style="fill:rgb(133,86,57);"/>
            </g>
            <g transform="matrix(3.1426,-5.48225e-16,5.48225e-16,3.1426,-64.8069,44.4181)">
                <path d="M138.222,181.021L127.802,181.021L127.802,253.214C127.868,253.215 127.934,253.216 128,253.216C133.642,253.216 138.222,248.635 138.222,242.994L138.222,181.021Z" style="fill:rgb(118,77,51);"/>
            </g>
        </g>
        <g>
            <g transform="matrix(3.16465,-5.52071e-16,4.71951e-16,2.70537,-67.6288,116.962)">
                <path d="M128,-23.58C173.341,-23.58 210.152,53.011 210.152,121.872C210.152,190.733 173.341,225.953 128,225.953C82.659,225.953 45.848,190.733 45.848,121.872C45.848,53.011 82.659,-23.58 128,-23.58Z" style="fill:rgb(63,188,123);"/>
            </g>
            <g transform="matrix(3.1426,-5.48225e-16,5.48225e-16,3.1426,-64.8069,44.4181)">
                <path d="M128,2.784C173.659,2.784 210.728,68.72 210.728,128C210.728,187.28 173.659,217.6 128,217.6L128,2.784Z" style="fill:rgb(50,148,98);"/>
            </g>
        </g>
    </g>
</svg>
