<?xml version="1.0" encoding="UTF-8" standalone="no"?>
<!DOCTYPE svg PUBLIC "-//W3C//DTD SVG 1.1//EN" "http://www.w3.org/Graphics/SVG/1.1/DTD/svg11.dtd">
<svg width="100%" height="100%" viewBox="0 0 256 256" version="1.1" xmlns="http://www.w3.org/2000/svg" xmlns:xlink="http://www.w3.org/1999/xlink" xml:space="preserve" xmlns:serif="http://www.serif.com/" style="fill-rule:evenodd;clip-rule:evenodd;stroke-linejoin:round;stroke-miterlimit:2;">
    <g id="Lemon" transform="matrix(1.426,1.426,-1.34936,1.34936,-5502.7,-6502.67)">
        <g transform="matrix(0.620512,0,0,0.655755,1580.39,-13.2878)">
            <g transform="matrix(1,0,0,1,10.6694,-122.659)">
                <path d="M4341.97,625.336C4349.42,622.726 4356.15,618.387 4361.61,612.674C4364.54,609.578 4367.66,607.91 4370.91,607.91C4374.15,607.91 4377.28,609.578 4380.21,612.668C4385.66,618.38 4392.39,622.718 4399.85,625.327C4433.96,637.298 4458.45,669.798 4458.45,707.973C4458.45,746.148 4433.96,778.648 4399.85,790.61C4392.39,793.22 4385.66,797.559 4380.2,803.271C4377.28,806.367 4374.15,808.036 4370.91,808.036C4367.66,808.036 4364.54,806.367 4361.6,803.277C4356.15,797.565 4349.42,793.227 4341.97,790.618C4307.85,778.648 4283.36,746.148 4283.36,707.973C4283.36,669.798 4307.85,637.298 4341.97,625.336Z" style="fill:rgb(255,224,73);"/>
            </g>
            <g transform="matrix(0.565067,-0.565067,0.565067,0.565067,4236.92,585.314)">
                <path d="M175.102,29.075L175.515,29.272C184.421,33.56 194.217,35.676 204.099,35.448C209.428,35.299 213.67,36.589 216.541,39.459C219.411,42.33 220.701,46.572 220.562,51.902C220.334,61.782 222.451,71.576 226.738,80.48C246.33,121.256 239.241,171.683 205.462,205.462C171.683,239.241 121.256,246.33 80.485,226.728C71.579,222.44 61.783,220.324 51.901,220.552C46.572,220.701 42.33,219.411 39.459,216.541C37.421,214.502 36.179,211.771 35.681,208.45C76.383,227.807 126.581,220.651 160.245,186.987C194.024,153.208 201.114,102.781 181.522,62.005C177.235,53.101 175.118,43.307 175.346,33.427C175.386,31.883 175.306,30.43 175.102,29.075Z" style="fill:rgb(255,194,11);"/>
            </g>
        </g>
        <g transform="matrix(0.620512,0,0,0.655755,1106.34,-130.406)">
            <circle cx="5110.79" cy="724.996" r="16.447" style="fill:rgb(255,249,223);"/>
        </g>
    </g>
</svg>
