<?xml version="1.0" encoding="UTF-8" standalone="no"?>
<!DOCTYPE svg PUBLIC "-//W3C//DTD SVG 1.1//EN" "http://www.w3.org/Graphics/SVG/1.1/DTD/svg11.dtd">
<svg width="100%" height="100%" viewBox="0 0 256 256" version="1.1" xmlns="http://www.w3.org/2000/svg" xmlns:xlink="http://www.w3.org/1999/xlink" xml:space="preserve" xmlns:serif="http://www.serif.com/" style="fill-rule:evenodd;clip-rule:evenodd;stroke-linejoin:round;stroke-miterlimit:2;">
    <g id="Lens" transform="matrix(3.56893,3.56893,-5.44248,5.44248,-16066.4,-24315.7)">
        <g transform="matrix(0.753974,0,5.06229e-17,0.655755,1408.12,-100.664)">
            <rect x="5678.37" y="1307.62" width="10.152" height="28.945" style="fill:rgb(205,212,219);"/>
        </g>
        <g transform="matrix(0.288936,-1.38778e-17,0,0.513576,4051.37,92.179)">
            <rect x="5682.64" y="1307.51" width="13.245" height="23.986" style="fill:rgb(171,181,190);"/>
        </g>
        <g transform="matrix(1.38379,0,0,0.907429,-2095.68,-413.783)">
            <circle cx="5628.73" cy="1285.51" r="13.438" style="fill:rgb(205,212,219);"/>
        </g>
        <g transform="matrix(0.140098,-0.09187,0.140098,0.09187,5657.44,757.862)">
            <path d="M222.37,33.693C258.998,70.321 258.998,129.797 222.37,166.426C185.741,203.054 126.265,203.054 89.637,166.426L222.37,33.693Z" style="fill:rgb(171,181,190);"/>
        </g>
        <g transform="matrix(1.24406,0,0,0.815802,-1309.19,-295.996)">
            <circle cx="5628.73" cy="1285.51" r="13.438" style="fill:white;"/>
        </g>
        <g transform="matrix(0.140098,-0.09187,0.140098,0.09187,5657.44,757.862)">
            <path d="M215.668,40.394C248.598,73.324 248.598,126.794 215.668,159.724C182.738,192.655 129.268,192.655 96.338,159.724L215.668,40.394Z" style="fill:rgb(205,212,219);"/>
        </g>
        <g transform="matrix(0.985648,0,0,0.646344,145.362,-78.1569)">
            <circle cx="5628.73" cy="1285.51" r="13.438" style="fill:rgb(85,194,255);"/>
        </g>
        <g transform="matrix(0.805284,0,0,0.528069,1160.58,73.8861)">
            <circle cx="5628.73" cy="1285.51" r="13.438" style="fill:rgb(149,217,255);"/>
        </g>
        <g transform="matrix(0.266261,0,0,0.174602,4191.02,525.102)">
            <circle cx="5628.73" cy="1285.51" r="13.438" style="fill:white;"/>
        </g>
        <g>
            <g transform="matrix(0.936003,5.19586e-17,1.31312e-16,1.70098,374.32,-1467.33)">
                <path d="M5687.72,1313.66L5677.56,1313.66L5677.56,1318.74C5677.56,1319.35 5678.93,1319.84 5680.61,1319.84L5684.67,1319.84C5686.35,1319.84 5687.72,1319.35 5687.72,1318.74L5687.72,1313.66Z" style="fill:rgb(207,110,83);"/>
            </g>
            <g transform="matrix(0.140098,-0.09187,0.140098,0.09187,5657.44,757.862)">
                <path d="M77.204,178.708L19.99,235.922L26.772,242.704C32.387,248.319 41.504,248.319 47.119,242.704L94.16,195.664L77.204,178.708Z" style="fill:rgb(181,87,72);"/>
            </g>
            <g transform="matrix(0.675752,3.75118e-17,8.63388e-17,1.11841,1853.22,-700.496)">
                <path d="M5690.63,1312.34C5690.63,1311.88 5689.69,1311.51 5688.53,1311.51L5676.58,1311.51C5675.42,1311.51 5674.48,1311.88 5674.48,1312.34L5674.48,1313.6C5674.48,1314.06 5675.42,1314.43 5676.58,1314.43L5688.53,1314.43C5689.69,1314.43 5690.63,1314.06 5690.63,1313.6L5690.63,1312.34Z" style="fill:rgb(207,110,83);"/>
            </g>
            <g transform="matrix(0.140098,-0.09187,0.140098,0.09187,5657.44,757.862)">
                <path d="M82.004,173.907L64.183,191.728L78.352,205.897C81.15,208.695 85.693,208.695 88.49,205.897L96.173,198.215C98.971,195.417 98.971,190.874 96.173,188.076L82.004,173.907Z" style="fill:rgb(181,87,72);"/>
            </g>
        </g>
    </g>
</svg>
