<?xml version="1.0" encoding="UTF-8" standalone="no"?>
<!DOCTYPE svg PUBLIC "-//W3C//DTD SVG 1.1//EN" "http://www.w3.org/Graphics/SVG/1.1/DTD/svg11.dtd">
<svg width="100%" height="100%" viewBox="0 0 256 256" version="1.1" xmlns="http://www.w3.org/2000/svg" xmlns:xlink="http://www.w3.org/1999/xlink" xml:space="preserve" xmlns:serif="http://www.serif.com/" style="fill-rule:evenodd;clip-rule:evenodd;stroke-linejoin:round;stroke-miterlimit:2;">
    <g id="Lock---Silver" serif:id="Lock - Silver" transform="matrix(1,0,0,1,2.84217e-14,-1.24426)">
        <g transform="matrix(0.784166,0,0,0.819978,24.6607,15.4885)">
            <path d="M225.388,73.663C225.388,24.257 183.445,-15.854 131.782,-15.854C80.12,-15.854 38.177,24.257 38.177,73.663L38.177,141.141C38.177,190.547 80.12,230.658 131.782,230.658C183.445,230.658 225.388,190.547 225.388,141.141L225.388,73.663ZM192.231,73.663L192.231,141.141C192.231,173.046 165.145,198.95 131.782,198.95C98.42,198.95 71.333,173.046 71.333,141.141C71.333,141.141 71.333,73.663 71.333,73.663C71.333,41.757 98.42,15.854 131.782,15.854C165.145,15.854 192.231,41.757 192.231,73.663Z" style="fill:rgb(173,181,189);"/>
            <clipPath id="_clip1">
                <path d="M225.388,73.663C225.388,24.257 183.445,-15.854 131.782,-15.854C80.12,-15.854 38.177,24.257 38.177,73.663L38.177,141.141C38.177,190.547 80.12,230.658 131.782,230.658C183.445,230.658 225.388,190.547 225.388,141.141L225.388,73.663ZM192.231,73.663L192.231,141.141C192.231,173.046 165.145,198.95 131.782,198.95C98.42,198.95 71.333,173.046 71.333,141.141C71.333,141.141 71.333,73.663 71.333,73.663C71.333,41.757 98.42,15.854 131.782,15.854C165.145,15.854 192.231,41.757 192.231,73.663Z"/>
            </clipPath>
            <g clip-path="url(#_clip1)">
                <g transform="matrix(0.493508,0,0,1.21955,135.761,-18.889)">
                    <rect x="43.81" y="98.547" width="177.635" height="45.082" style="fill:rgb(121,130,139);"/>
                </g>
                <g transform="matrix(0.434133,0,0,1.21955,-0.50046,-18.889)">
                    <rect x="43.81" y="98.547" width="177.635" height="45.082" style="fill:rgb(134,142,150);"/>
                </g>
            </g>
        </g>
        <g transform="matrix(0.693404,0,0,0.75017,36.6215,22.986)">
            <path d="M95.587,-8.906C76.229,-1.127 60.173,12.698 50.01,30.093" style="fill:none;"/>
            <clipPath id="_clip2">
                <path d="M95.587,-8.906C76.229,-1.127 60.173,12.698 50.01,30.093"/>
            </clipPath>
            <g clip-path="url(#_clip2)">
                <g transform="matrix(0.493508,0,0,1.21955,135.761,-18.889)">
                    <rect x="43.81" y="98.547" width="177.635" height="45.082" style="fill:rgb(121,130,139);"/>
                </g>
                <g transform="matrix(0.434133,0,0,1.21955,-0.50046,-18.889)">
                    <rect x="43.81" y="98.547" width="177.635" height="45.082" style="fill:rgb(134,142,150);"/>
                </g>
            </g>
        </g>
        <g transform="matrix(0.693404,0,0,0.75017,36.6215,22.986)">
            <path d="M92.712,-15.018C71.886,-6.65 54.599,8.211 43.665,26.925C41.774,30.162 43.081,34.209 46.583,35.957C50.085,37.705 54.463,36.497 56.354,33.26C65.747,17.185 80.572,4.395 98.462,-2.793C102.111,-4.26 103.786,-8.189 102.2,-11.563C100.613,-14.936 96.362,-16.485 92.712,-15.018Z" style="fill:white;"/>
        </g>
        <g transform="matrix(0.598452,0,0,1,10.2561,0)">
            <path d="M230.291,111.48L77.368,111.48C49.235,111.48 26.394,125.149 26.394,141.985L26.394,225.494C26.394,242.331 49.235,256 77.368,256L230.291,256L230.291,111.48Z" style="fill:rgb(206,212,218);"/>
        </g>
        <g transform="matrix(0.451328,0,0,0.754158,31.4416,45.1709)">
            <path d="M77.368,104.85C55.77,104.85 40.642,107.934 30.678,113.796C20.671,119.684 15.316,128.668 15.316,141.65L15.316,208.182C15.316,211.841 20.28,214.812 26.394,214.812C32.508,214.812 37.472,211.841 37.472,208.182L37.472,141.65C37.472,133.185 39.685,127.091 46.211,123.252C52.78,119.387 63.129,118.11 77.368,118.11C83.482,118.11 88.447,115.139 88.447,111.48C88.447,107.821 83.482,104.85 77.368,104.85Z" style="fill:white;"/>
        </g>
        <g transform="matrix(-0.598452,0,0,1,245.744,0)">
            <path d="M230.291,111.48L77.368,111.48C49.235,111.48 26.394,125.149 26.394,141.985L26.394,225.494C26.394,242.331 49.235,256 77.368,256L230.291,256L230.291,111.48Z" style="fill:rgb(134,142,150);"/>
        </g>
        <g transform="matrix(1.82827,0,0,1.55159,-66.7572,-61.4916)">
            <rect x="80.598" y="111.48" width="51.854" height="93.143" style="fill:rgb(173,181,189);"/>
        </g>
        <g transform="matrix(1,0,0,1,-1.42109e-14,-0.35799)">
            <g transform="matrix(0.312304,0,0,0.288008,20.7795,15.839)">
                <path d="M279.044,554.37C279.044,517.752 307.82,488.067 343.321,488.067C378.821,488.067 407.599,517.752 407.599,554.37C407.599,590.987 378.821,620.673 343.321,620.673C307.82,620.673 279.044,590.987 279.044,554.37Z" style="fill:rgb(52,58,64);fill-rule:nonzero;"/>
            </g>
            <g transform="matrix(0.40758,0,0,0.491776,-12.7319,-120.513)">
                <path d="M364.57,612.139C364.57,603.318 355.929,596.157 345.287,596.157C334.644,596.157 326.003,603.318 326.003,612.139L326.003,659.738C326.003,668.559 334.644,675.72 345.287,675.72C355.929,675.72 364.57,668.559 364.57,659.738L364.57,612.139Z" style="fill:rgb(52,58,64);"/>
            </g>
        </g>
    </g>
</svg>
