<?xml version="1.0" encoding="UTF-8" standalone="no"?>
<!DOCTYPE svg PUBLIC "-//W3C//DTD SVG 1.1//EN" "http://www.w3.org/Graphics/SVG/1.1/DTD/svg11.dtd">
<svg width="100%" height="100%" viewBox="0 0 256 256" version="1.1" xmlns="http://www.w3.org/2000/svg" xmlns:xlink="http://www.w3.org/1999/xlink" xml:space="preserve" xmlns:serif="http://www.serif.com/" style="fill-rule:evenodd;clip-rule:evenodd;stroke-linejoin:round;stroke-miterlimit:2;">
    <g id="Lollipop-Heart" serif:id="Lollipop Heart" transform="matrix(1.42431,0,0,1.43103,-16246.5,-549.602)">
        <g transform="matrix(0.191694,3.13841e-17,-4.52351e-17,0.314521,10441.4,-19.3324)">
            <path d="M5551.82,1664.84C5551.82,1648.62 5530.11,1635.44 5503.36,1635.44C5476.61,1635.44 5454.9,1648.62 5454.9,1664.84L5454.9,1806.21C5454.9,1822.43 5476.61,1835.6 5503.36,1835.6C5530.11,1835.6 5551.82,1822.43 5551.82,1806.21L5551.82,1664.84Z" style="fill:rgb(248,224,196);"/>
        </g>
        <g transform="matrix(0.702092,0,0,0.698797,11406.5,384.061)">
            <path d="M128,158.829C128,158.829 128,248.918 128,248.918C135.303,248.918 141.231,242.99 141.231,235.687L141.231,172.061C141.231,164.758 135.303,158.829 128,158.829Z" style="fill:rgb(220,170,139);"/>
        </g>
        <g id="Heart" transform="matrix(0.147231,0,0,0.163492,11422,389.085)">
            <path d="M2.607,281.774C-31.499,40.436 303.333,-137.279 505.715,141.361C742.209,-132.889 1031.57,47.018 1008.82,286.164C987.97,505.462 738.523,771.646 510.273,771.646C282.026,771.646 33.448,499.977 2.607,281.774Z" style="fill:rgb(255,61,73);fill-rule:nonzero;"/>
        </g>
        <g transform="matrix(0.702092,0,0,0.698797,11406.5,384.061)">
            <path d="M128,40.078L128.121,40.263C177.715,-23.901 238.394,18.191 233.625,74.142C229.252,125.449 176.942,187.726 129.077,187.726C128.718,187.726 128.359,187.723 128,187.715L128,40.078Z" style="fill:rgb(235,35,49);"/>
        </g>
        <g transform="matrix(0.561858,9.19874e-17,-8.04283e-17,0.559222,8581.33,10.113)">
            <circle cx="5110.79" cy="724.996" r="16.447" style="fill:white;"/>
        </g>
    </g>
</svg>
