<?xml version="1.0" encoding="UTF-8" standalone="no"?>
<!DOCTYPE svg PUBLIC "-//W3C//DTD SVG 1.1//EN" "http://www.w3.org/Graphics/SVG/1.1/DTD/svg11.dtd">
<svg width="100%" height="100%" viewBox="0 0 256 256" version="1.1" xmlns="http://www.w3.org/2000/svg" xmlns:xlink="http://www.w3.org/1999/xlink" xml:space="preserve" xmlns:serif="http://www.serif.com/" style="fill-rule:evenodd;clip-rule:evenodd;stroke-linejoin:round;stroke-miterlimit:2;">
    <g id="Lollipop---Blue" serif:id="Lollipop - Blue" transform="matrix(1.44879,1.11022e-16,2.22045e-16,2.20935,-7225.55,64.9454)">
        <g>
            <g transform="matrix(0.188455,0,0,0.203721,4038.51,-290.823)">
                <path d="M5551.82,1664.84C5551.82,1648.62 5530.11,1635.44 5503.36,1635.44C5476.61,1635.44 5454.9,1648.62 5454.9,1664.84L5454.9,1806.21C5454.9,1822.43 5476.61,1835.6 5503.36,1835.6C5530.11,1835.6 5551.82,1822.43 5551.82,1806.21L5551.82,1664.84Z" style="fill:rgb(248,224,196);"/>
            </g>
            <g transform="matrix(0.690231,-3.46849e-17,-6.93698e-17,0.452623,4987.3,-29.3957)">
                <path d="M128,158.513C128,158.513 128,248.602 128,248.602C135.303,248.602 141.231,242.673 141.231,235.37L141.231,171.744C141.231,164.441 135.303,158.513 128,158.513Z" style="fill:rgb(220,170,139);"/>
            </g>
        </g>
        <g transform="matrix(0.239252,-1.48842e-17,-3.25616e-17,0.109468,3758.95,-138.201)">
            <path d="M5551.82,1669.6C5551.82,1650.75 5541.14,1635.44 5527.99,1635.44L5478.73,1635.44C5465.58,1635.44 5454.9,1650.75 5454.9,1669.6L5454.9,1801.44C5454.9,1820.3 5465.58,1835.6 5478.73,1835.6L5527.99,1835.6C5541.14,1835.6 5551.82,1820.3 5551.82,1801.44L5551.82,1669.6Z" style="fill:rgb(0,155,247);"/>
        </g>
        <g transform="matrix(0.690231,-3.46849e-17,-6.93698e-17,0.452623,4987.3,-29.3957)">
            <path d="M136.536,155.148L128,155.148L128,203.557L136.536,203.557C141.096,203.557 144.798,199.855 144.798,195.296L144.798,163.41C144.798,158.85 141.096,155.148 136.536,155.148Z" style="fill:rgb(0,140,237);"/>
        </g>
        <g transform="matrix(1,-4.93038e-32,0,0.655755,10.6694,-93.7219)">
            <circle cx="5064.98" cy="162.311" r="59.11" style="fill:rgb(0,155,247);"/>
        </g>
        <g transform="matrix(0.690231,-3.46849e-17,-6.93698e-17,0.452623,4987.3,-29.3957)">
            <path d="M128,7.398C175.265,7.398 213.638,45.771 213.638,93.036C213.638,140.301 175.265,178.674 128,178.674C128,178.674 128,7.398 128,7.398Z" style="fill:rgb(0,140,237);"/>
        </g>
        <g transform="matrix(0.5,-5.39332e-17,1.05092e-16,0.481427,-111.827,-338.464)">
            <path d="M10374.9,712.996L10254.1,712.996C10251.1,712.996 10248.3,713.804 10246.1,715.244C10244,716.683 10242.8,718.635 10242.8,720.671L10242.8,738.236C10242.8,740.271 10244,742.223 10246.1,743.663C10248.3,745.102 10251.1,745.911 10254.1,745.911L10374.9,745.911L10374.9,712.996Z" style="fill:rgb(0,172,254);"/>
        </g>
        <g transform="matrix(0.5,-5.39332e-17,1.05092e-16,0.481427,-45.7721,-338.464)">
            <path d="M10374.9,720.671C10374.9,718.635 10373.8,716.683 10371.6,715.244C10369.5,713.804 10366.7,712.996 10363.7,712.996L10242.8,712.996L10242.8,745.911L10363.7,745.911C10366.7,745.911 10369.5,745.102 10371.6,743.663C10373.8,742.223 10374.9,740.271 10374.9,738.236C10374.9,732.95 10374.9,725.956 10374.9,720.671Z" style="fill:rgb(0,155,247);"/>
        </g>
        <g transform="matrix(0.552366,-6.80844e-33,-1.32932e-32,0.362217,2226.67,-271.018)">
            <circle cx="5110.79" cy="724.996" r="16.447" style="fill:rgb(149,217,255);"/>
        </g>
    </g>
</svg>
