<?xml version="1.0" encoding="UTF-8" standalone="no"?>
<!DOCTYPE svg PUBLIC "-//W3C//DTD SVG 1.1//EN" "http://www.w3.org/Graphics/SVG/1.1/DTD/svg11.dtd">
<svg width="100%" height="100%" viewBox="0 0 256 256" version="1.1" xmlns="http://www.w3.org/2000/svg" xmlns:xlink="http://www.w3.org/1999/xlink" xml:space="preserve" xmlns:serif="http://www.serif.com/" style="fill-rule:evenodd;clip-rule:evenodd;stroke-linejoin:round;stroke-miterlimit:2;">
    <g id="Magic-Wand---Mana" serif:id="Magic Wand - Mana" transform="matrix(3.49635,0,0,3.30844,-18917.1,-794.323)">
        <g transform="matrix(1,0,0,1,-56.0006,0.104892)">
            <g transform="matrix(0.627905,0,0,0.423737,110.338,38.8848)">
                <path d="M8597.66,579.905L8579.44,579.905L8579.44,642.931C8579.44,650.805 8583.53,657.197 8588.55,657.197C8593.58,657.197 8597.66,650.805 8597.66,642.931L8597.66,579.905Z" style="fill:rgb(85,85,85);"/>
                <clipPath id="_clip1">
                    <path d="M8597.66,579.905L8579.44,579.905L8579.44,642.931C8579.44,650.805 8583.53,657.197 8588.55,657.197C8593.58,657.197 8597.66,650.805 8597.66,642.931L8597.66,579.905Z"/>
                </clipPath>
                <g clip-path="url(#_clip1)">
                    <g transform="matrix(0.681591,0,0,0.16815,8468.37,563.163)">
                        <rect x="164.25" y="74.013" width="24.125" height="206.262" style="fill:rgb(68,68,68);"/>
                    </g>
                </g>
            </g>
            <g transform="matrix(0.532069,0,0,0.329741,931.176,92.549)">
                <path d="M8605.86,576.943L8579.72,576.943L8579.72,600.454C8579.72,604.779 8581.78,608.291 8584.32,608.291L8601.26,608.291C8603.8,608.291 8605.86,604.779 8605.86,600.454L8605.86,576.943Z" style="fill:rgb(159,112,255);"/>
            </g>
            <g id="Spiral" transform="matrix(-0.533611,-0.151101,0.187087,-0.551429,8171.24,2293.05)">
                <path d="M5703.85,2111.34C5703.94,2101.98 5708.03,2093.93 5714.29,2088.2C5720.63,2082.4 5729.23,2079 5738.31,2079.09C5746.97,2079.18 5754.78,2082.76 5760.39,2088.49C5765.95,2094.16 5769.28,2101.96 5769.19,2110.51L5769.19,2110.51C5769.16,2113.6 5768.43,2116.61 5767.15,2119.35C5765.87,2122.06 5764.02,2124.49 5761.7,2126.49C5759.41,2128.47 5756.74,2129.9 5753.91,2130.76C5751.07,2131.62 5748.05,2131.87 5745.05,2131.46C5745.04,2131.46 5745.04,2131.46 5745.03,2131.46C5738.43,2130.59 5733.65,2128.11 5730.36,2124.91C5726,2120.67 5724.37,2115.23 5724.41,2111.51C5724.45,2107.72 5726.09,2104.44 5728.6,2102.09C5731.14,2099.72 5734.63,2098.35 5738.46,2098.39C5741.84,2098.42 5744.91,2099.65 5747.01,2101.79C5748.93,2103.75 5749.82,2106.51 5749.42,2109.57C5749.23,2111 5748.11,2111.79 5746.93,2112.13C5745.58,2112.53 5743.72,2112.27 5743.47,2110.49C5742.87,2106.41 5739.08,2103.31 5735.03,2103.58C5730.97,2103.85 5728.17,2107.38 5728.77,2111.46C5730.48,2122.22 5739.09,2127.25 5747.61,2126.8C5755.26,2126.4 5762.62,2121.35 5763.6,2112.38C5764.47,2104.39 5761.58,2097.36 5756.5,2092.37C5751.7,2087.67 5744.9,2084.68 5737.33,2084.75C5730.14,2084.82 5723.63,2087.55 5718.95,2092.12C5714.22,2096.74 5711.3,2103.16 5711.37,2110.44C5711.43,2116.93 5714.29,2126.41 5722.02,2133.66C5727.15,2138.47 5734.42,2142.43 5744.54,2143.57C5749.23,2144.11 5753.95,2143.64 5758.36,2142.2C5762.58,2140.83 5766.53,2138.6 5769.9,2135.56C5773.27,2132.52 5775.93,2128.86 5777.72,2124.8C5779.57,2120.64 5780.55,2116.09 5780.5,2111.44C5780.5,2111.44 5780.5,2111.44 5780.5,2111.44C5780.38,2099.61 5775.51,2088.94 5767.69,2081.26C5759.91,2073.6 5749.23,2068.83 5737.47,2068.95C5726.05,2069.06 5715.28,2073.51 5707.44,2081C5699.69,2088.42 5694.77,2098.74 5694.89,2110.61C5694.89,2113.06 5696.89,2115.22 5699.37,2115.42C5701.84,2115.63 5703.85,2113.8 5703.85,2111.34Z" style="fill:rgb(183,148,255);"/>
            </g>
        </g>
        <g transform="matrix(0.286013,0,0,0.302258,5410.52,240.09)">
            <g transform="matrix(0.577072,-0.577072,0.577072,0.577072,-5285.2,4735.11)">
                <path d="M8683.14,507.897C8683.63,506.3 8685.11,505.212 8686.78,505.212C8688.46,505.212 8689.93,506.3 8690.43,507.897L8693.3,517.134L8702.54,520.007C8704.14,520.503 8705.23,521.981 8705.23,523.654C8705.23,525.326 8704.14,526.804 8702.54,527.301L8693.3,530.174L8690.43,539.41C8689.93,541.007 8688.46,542.095 8686.78,542.095C8685.11,542.095 8683.63,541.007 8683.14,539.41L8680.26,530.174L8671.03,527.301C8669.43,526.804 8668.34,525.326 8668.34,523.654C8668.34,521.981 8669.43,520.503 8671.03,520.007L8680.26,517.134L8683.14,507.897Z" style="fill:rgb(183,148,255);"/>
            </g>
            <g transform="matrix(-0.763038,-0.763038,-0.763038,0.763038,7237.42,6253.18)">
                <path d="M8683.14,507.897C8683.63,506.3 8685.11,505.212 8686.78,505.212C8688.46,505.212 8689.93,506.3 8690.43,507.897L8693.3,517.134L8702.54,520.007C8704.14,520.503 8705.23,521.981 8705.23,523.654C8705.23,525.326 8704.14,526.804 8702.54,527.301L8693.3,530.174L8690.43,539.41C8689.93,541.007 8688.46,542.095 8686.78,542.095C8685.11,542.095 8683.63,541.007 8683.14,539.41L8680.26,530.174L8671.03,527.301C8669.43,526.804 8668.34,525.326 8668.34,523.654C8668.34,521.981 8669.43,520.503 8671.03,520.007L8680.26,517.134L8683.14,507.897Z" style="fill:rgb(183,148,255);"/>
            </g>
            <g transform="matrix(0.763038,-0.763038,0.763038,0.763038,-7009.7,6356.78)">
                <path d="M8683.14,507.897C8683.63,506.3 8685.11,505.212 8686.78,505.212C8688.46,505.212 8689.93,506.3 8690.43,507.897L8693.3,517.134L8702.54,520.007C8704.14,520.503 8705.23,521.981 8705.23,523.654C8705.23,525.326 8704.14,526.804 8702.54,527.301L8693.3,530.174L8690.43,539.41C8689.93,541.007 8688.46,542.095 8686.78,542.095C8685.11,542.095 8683.63,541.007 8683.14,539.41L8680.26,530.174L8671.03,527.301C8669.43,526.804 8668.34,525.326 8668.34,523.654C8668.34,521.981 8669.43,520.503 8671.03,520.007L8680.26,517.134L8683.14,507.897Z" style="fill:rgb(183,148,255);"/>
            </g>
            <g transform="matrix(-0.577072,-0.577072,-0.577072,0.577072,5552.86,4838.71)">
                <path d="M8683.14,507.897C8683.63,506.3 8685.11,505.212 8686.78,505.212C8688.46,505.212 8689.93,506.3 8690.43,507.897L8693.3,517.134L8702.54,520.007C8704.14,520.503 8705.23,521.981 8705.23,523.654C8705.23,525.326 8704.14,526.804 8702.54,527.301L8693.3,530.174L8690.43,539.41C8689.93,541.007 8688.46,542.095 8686.78,542.095C8685.11,542.095 8683.63,541.007 8683.14,539.41L8680.26,530.174L8671.03,527.301C8669.43,526.804 8668.34,525.326 8668.34,523.654C8668.34,521.981 8669.43,520.503 8671.03,520.007L8680.26,517.134L8683.14,507.897Z" style="fill:rgb(183,148,255);"/>
            </g>
        </g>
    </g>
</svg>
