<?xml version="1.0" encoding="UTF-8" standalone="no"?>
<!DOCTYPE svg PUBLIC "-//W3C//DTD SVG 1.1//EN" "http://www.w3.org/Graphics/SVG/1.1/DTD/svg11.dtd">
<svg width="100%" height="100%" viewBox="0 0 256 256" version="1.1" xmlns="http://www.w3.org/2000/svg" xmlns:xlink="http://www.w3.org/1999/xlink" xml:space="preserve" xmlns:serif="http://www.serif.com/" style="fill-rule:evenodd;clip-rule:evenodd;stroke-linejoin:round;stroke-miterlimit:2;">
    <g id="Magic-Wand" serif:id="Magic Wand" transform="matrix(0.2414,0,0,0.2414,19.2495,1.50618)">
        <g transform="matrix(4.19813,0,0,14.1472,-17.5283,-1664.5)">
            <path d="M131.22,142.321C131.22,139.089 122.377,136.465 111.485,136.465C100.593,136.465 91.75,139.089 91.75,142.321L91.75,186.319C91.75,189.551 100.593,192.175 111.485,192.175C122.377,192.175 131.22,189.551 131.22,186.319L131.22,142.321Z" style="fill:rgb(85,85,85);"/>
            <clipPath id="_clip1">
                <path d="M131.22,142.321C131.22,139.089 122.377,136.465 111.485,136.465C100.593,136.465 91.75,139.089 91.75,142.321L91.75,186.319C91.75,189.551 100.593,192.175 111.485,192.175C122.377,192.175 131.22,189.551 131.22,186.319L131.22,142.321Z"/>
            </clipPath>
            <g clip-path="url(#_clip1)">
                <g transform="matrix(1,0,0,0.307186,-52.7655,111.437)">
                    <rect x="164.25" y="74.013" width="24.125" height="206.262" style="fill:rgb(68,68,68);"/>
                </g>
                <g transform="matrix(1,0,0,0.3246,-52.7655,106.556)">
                    <rect x="140.038" y="85.078" width="48.338" height="39.029" style="fill:white;"/>
                </g>
            </g>
        </g>
        <g transform="matrix(4.14251,0,0,3.63754,-79.7411,26.9576)">
            <path d="M155.235,96.813C155.235,79.664 143.01,65.741 127.951,65.741C112.892,65.741 100.667,79.664 100.667,96.813L100.667,136.643L155.235,136.643L155.235,96.813Z" style="fill:white;"/>
            <clipPath id="_clip2">
                <path d="M155.235,96.813C155.235,79.664 143.01,65.741 127.951,65.741C112.892,65.741 100.667,79.664 100.667,96.813L100.667,136.643L155.235,136.643L155.235,96.813Z"/>
            </clipPath>
            <g clip-path="url(#_clip2)">
                <g transform="matrix(1.1289,0,0,0.442957,-57.4225,29.1523)">
                    <rect x="164.25" y="74.013" width="24.125" height="206.262" style="fill:rgb(241,243,245);"/>
                </g>
            </g>
        </g>
        <g transform="matrix(3.01951,1.40249e-16,-1.92409e-16,-2.57136,69.2207,913.735)">
            <path d="M163.636,135.591C163.636,131.401 160.74,128 157.172,128L95.371,128C91.804,128 88.907,131.401 88.907,135.591L88.907,153.302L163.636,153.302L163.636,135.591Z" style="fill:rgb(230,233,236);"/>
            <clipPath id="_clip3">
                <path d="M163.636,135.591C163.636,131.401 160.74,128 157.172,128L95.371,128C91.804,128 88.907,131.401 88.907,135.591L88.907,153.302L163.636,153.302L163.636,135.591Z"/>
            </clipPath>
            <g clip-path="url(#_clip3)">
                <g transform="matrix(1.54875,8.44732e-17,-1.08583e-17,-0.170402,-128.112,170.378)">
                    <rect x="164.25" y="74.013" width="24.125" height="206.262" style="fill:rgb(222,226,230);"/>
                </g>
            </g>
        </g>
        <g transform="matrix(2.25854,0,0,2.25854,161.699,-17.1862)">
            <path d="M120.596,10.222C121.582,7.031 124.531,4.855 127.871,4.855C131.21,4.855 134.16,7.031 135.145,10.222L140.775,28.45L159.003,34.08C162.194,35.065 164.37,38.015 164.37,41.355C164.37,44.694 162.194,47.644 159.003,48.629L140.775,54.259L135.145,72.487C134.16,75.678 131.21,77.854 127.871,77.854C124.531,77.854 121.582,75.678 120.596,72.487L114.966,54.259L96.738,48.629C93.547,47.644 91.371,44.694 91.371,41.355C91.371,38.015 93.547,35.065 96.738,34.08L114.966,28.45L120.596,10.222Z" style="fill:white;"/>
        </g>
        <g transform="matrix(1,0,0,1,7.24375,0)">
            <g transform="matrix(1.2078,1.2078,-1.2078,1.2078,636.37,109.654)">
                <path d="M120.596,10.222C121.582,7.031 124.531,4.855 127.871,4.855C131.21,4.855 134.16,7.031 135.145,10.222L140.775,28.45L159.003,34.08C162.194,35.065 164.37,38.015 164.37,41.355C164.37,44.694 162.194,47.644 159.003,48.629L140.775,54.259L135.145,72.487C134.16,75.678 131.21,77.854 127.871,77.854C124.531,77.854 121.582,75.678 120.596,72.487L114.966,54.259L96.738,48.629C93.547,47.644 91.371,44.694 91.371,41.355C91.371,38.015 93.547,35.065 96.738,34.08L114.966,28.45L120.596,10.222Z" style="fill:white;"/>
            </g>
            <g transform="matrix(1.20926,1.20926,-1.20926,1.20926,41.0274,109.408)">
                <path d="M120.596,10.222C121.582,7.031 124.531,4.855 127.871,4.855C131.21,4.855 134.16,7.031 135.145,10.222L140.775,28.45L159.003,34.08C162.194,35.065 164.37,38.015 164.37,41.355C164.37,44.694 162.194,47.644 159.003,48.629L140.775,54.259L135.145,72.487C134.16,75.678 131.21,77.854 127.871,77.854C124.531,77.854 121.582,75.678 120.596,72.487L114.966,54.259L96.738,48.629C93.547,47.644 91.371,44.694 91.371,41.355C91.371,38.015 93.547,35.065 96.738,34.08L114.966,28.45L120.596,10.222Z" style="fill:white;"/>
            </g>
        </g>
    </g>
</svg>
