<?xml version="1.0" encoding="UTF-8" standalone="no"?>
<!DOCTYPE svg PUBLIC "-//W3C//DTD SVG 1.1//EN" "http://www.w3.org/Graphics/SVG/1.1/DTD/svg11.dtd">
<svg width="100%" height="100%" viewBox="0 0 256 256" version="1.1" xmlns="http://www.w3.org/2000/svg" xmlns:xlink="http://www.w3.org/1999/xlink" xml:space="preserve" xmlns:serif="http://www.serif.com/" style="fill-rule:evenodd;clip-rule:evenodd;stroke-linecap:round;stroke-linejoin:round;stroke-miterlimit:1.5;">
    <g id="Magic-Wand---Star" serif:id="Magic Wand - Star" transform="matrix(3.39102,0,0,3.20877,-18682.4,-762.682)">
        <g transform="matrix(1,0,0,1,43.403,0.104892)">
            <g transform="matrix(0.647408,0,0,0.479871,-56.5891,1.9934)">
                <path d="M8597.66,579.905L8579.44,579.905L8579.44,644.208C8579.44,651.377 8583.53,657.197 8588.55,657.197C8593.58,657.197 8597.66,651.377 8597.66,644.208L8597.66,579.905Z" style="fill:rgb(164,93,82);"/>
                <clipPath id="_clip1">
                    <path d="M8597.66,579.905L8579.44,579.905L8579.44,644.208C8579.44,651.377 8583.53,657.197 8588.55,657.197C8593.58,657.197 8597.66,651.377 8597.66,644.208L8597.66,579.905Z"/>
                </clipPath>
                <g clip-path="url(#_clip1)">
                    <g transform="matrix(1.09203,0,0,0.168283,8393.98,570.342)">
                        <rect x="164.25" y="74.013" width="24.125" height="206.262" style="fill:rgb(138,75,66);"/>
                    </g>
                </g>
            </g>
            <g transform="matrix(4.8373,0,1.77194e-32,5.11204,-26365.9,-7067.07)">
                <path d="M6586.88,1429.78C6587.15,1429.24 6587.71,1428.91 6588.31,1428.91C6588.91,1428.91 6589.46,1429.24 6589.74,1429.78L6590.72,1431.64L6592.79,1432C6593.39,1432.1 6593.87,1432.52 6594.06,1433.09C6594.24,1433.66 6594.1,1434.29 6593.68,1434.72L6592.2,1436.22L6592.51,1438.31C6592.6,1438.9 6592.35,1439.5 6591.86,1439.85C6591.38,1440.2 6590.73,1440.26 6590.19,1439.99L6588.31,1439.05L6586.42,1439.99C6585.88,1440.26 6585.24,1440.2 6584.75,1439.85C6584.27,1439.5 6584.02,1438.9 6584.1,1438.31L6584.41,1436.22L6582.94,1434.72C6582.52,1434.29 6582.37,1433.66 6582.56,1433.09C6582.74,1432.52 6583.23,1432.1 6583.82,1432L6585.9,1431.64L6586.88,1429.78Z" style="fill:rgb(255,224,73);"/>
            </g>
            <g transform="matrix(1.2048,0,0,1.2048,-1127.16,-57.0868)">
                <g transform="matrix(0.518057,0,0,0.547481,2915.48,-234.483)">
                    <g transform="matrix(1.32818,0,0,1.32818,-1614.94,-423.955)">
                        <circle cx="4965.19" cy="1006.27" r="3.19" style="fill:rgb(42,49,54);"/>
                    </g>
                    <g transform="matrix(1.32818,0,0,1.32818,-1582.25,-423.955)">
                        <circle cx="4965.19" cy="1006.27" r="3.19" style="fill:rgb(42,49,54);"/>
                    </g>
                </g>
                <g transform="matrix(1,0,0,1,-0.17535,0)">
                    <g transform="matrix(0.876788,0.248278,-0.183224,0.722638,1323.26,-1690.16)">
                        <circle cx="4965.19" cy="1006.27" r="3.19" style="fill:rgb(255,155,88);"/>
                    </g>
                    <g transform="matrix(0.876788,-0.248278,0.183224,0.722638,977.687,775.34)">
                        <circle cx="4965.19" cy="1006.27" r="3.19" style="fill:rgb(255,155,88);"/>
                    </g>
                </g>
                <g transform="matrix(0.544183,0,0,0.575091,2790.64,-313.656)">
                    <path d="M4979.24,1010.67C4982.57,1014 4988.61,1014 4991.94,1010.67" style="fill:none;stroke:rgb(188,99,0);stroke-width:3px;"/>
                </g>
            </g>
        </g>
        <g transform="matrix(0.294897,0,0,0.311646,5509.37,237.687)">
            <g transform="matrix(0.577072,-0.577072,0.577072,0.577072,-5265.29,4735.11)">
                <path d="M8683.14,507.897C8683.63,506.3 8685.11,505.212 8686.78,505.212C8688.46,505.212 8689.93,506.3 8690.43,507.897L8693.3,517.134L8702.54,520.007C8704.14,520.503 8705.23,521.981 8705.23,523.654C8705.23,525.326 8704.14,526.804 8702.54,527.301L8693.3,530.174L8690.43,539.41C8689.93,541.007 8688.46,542.095 8686.78,542.095C8685.11,542.095 8683.63,541.007 8683.14,539.41L8680.26,530.174L8671.03,527.301C8669.43,526.804 8668.34,525.326 8668.34,523.654C8668.34,521.981 8669.43,520.503 8671.03,520.007L8680.26,517.134L8683.14,507.897Z" style="fill:rgb(255,224,73);"/>
            </g>
            <g transform="matrix(-0.763038,-0.763038,-0.763038,0.763038,7237.42,6253.18)">
                <path d="M8683.14,507.897C8683.63,506.3 8685.11,505.212 8686.78,505.212C8688.46,505.212 8689.93,506.3 8690.43,507.897L8693.3,517.134L8702.54,520.007C8704.14,520.503 8705.23,521.981 8705.23,523.654C8705.23,525.326 8704.14,526.804 8702.54,527.301L8693.3,530.174L8690.43,539.41C8689.93,541.007 8688.46,542.095 8686.78,542.095C8685.11,542.095 8683.63,541.007 8683.14,539.41L8680.26,530.174L8671.03,527.301C8669.43,526.804 8668.34,525.326 8668.34,523.654C8668.34,521.981 8669.43,520.503 8671.03,520.007L8680.26,517.134L8683.14,507.897Z" style="fill:rgb(255,224,73);"/>
            </g>
            <g transform="matrix(0.763038,-0.763038,0.763038,0.763038,-7009.7,6356.78)">
                <path d="M8683.14,507.897C8683.63,506.3 8685.11,505.212 8686.78,505.212C8688.46,505.212 8689.93,506.3 8690.43,507.897L8693.3,517.134L8702.54,520.007C8704.14,520.503 8705.23,521.981 8705.23,523.654C8705.23,525.326 8704.14,526.804 8702.54,527.301L8693.3,530.174L8690.43,539.41C8689.93,541.007 8688.46,542.095 8686.78,542.095C8685.11,542.095 8683.63,541.007 8683.14,539.41L8680.26,530.174L8671.03,527.301C8669.43,526.804 8668.34,525.326 8668.34,523.654C8668.34,521.981 8669.43,520.503 8671.03,520.007L8680.26,517.134L8683.14,507.897Z" style="fill:rgb(255,224,73);"/>
            </g>
            <g transform="matrix(-0.577072,-0.577072,-0.577072,0.577072,5552.86,4838.71)">
                <path d="M8683.14,507.897C8683.63,506.3 8685.11,505.212 8686.78,505.212C8688.46,505.212 8689.93,506.3 8690.43,507.897L8693.3,517.134L8702.54,520.007C8704.14,520.503 8705.23,521.981 8705.23,523.654C8705.23,525.326 8704.14,526.804 8702.54,527.301L8693.3,530.174L8690.43,539.41C8689.93,541.007 8688.46,542.095 8686.78,542.095C8685.11,542.095 8683.63,541.007 8683.14,539.41L8680.26,530.174L8671.03,527.301C8669.43,526.804 8668.34,525.326 8668.34,523.654C8668.34,521.981 8669.43,520.503 8671.03,520.007L8680.26,517.134L8683.14,507.897Z" style="fill:rgb(255,224,73);"/>
            </g>
        </g>
    </g>
</svg>
