<?xml version="1.0" encoding="UTF-8" standalone="no"?>
<!DOCTYPE svg PUBLIC "-//W3C//DTD SVG 1.1//EN" "http://www.w3.org/Graphics/SVG/1.1/DTD/svg11.dtd">
<svg width="100%" height="100%" viewBox="0 0 256 256" version="1.1" xmlns="http://www.w3.org/2000/svg" xmlns:xlink="http://www.w3.org/1999/xlink" xml:space="preserve" xmlns:serif="http://www.serif.com/" style="fill-rule:evenodd;clip-rule:evenodd;stroke-linejoin:round;stroke-miterlimit:2;">
    <g transform="matrix(1.51192,0,0,1.64128,-54.5778,-68.7481)">
        <g id="Mail">
            <path d="M197.113,89.15C197.113,83.49 194.672,78.062 190.328,74.06C185.983,70.058 180.091,67.81 173.947,67.81L67.571,67.81C61.427,67.81 55.535,70.058 51.19,74.06C46.846,78.062 44.405,83.49 44.405,89.15L44.405,150.6C44.405,156.26 46.846,161.688 51.19,165.69C55.535,169.691 61.427,171.94 67.571,171.94L173.947,171.94C180.091,171.94 185.983,169.691 190.328,165.69C194.672,161.688 197.113,156.26 197.113,150.6L197.113,89.15Z" style="fill:rgb(211,230,235);"/>
            <clipPath id="_clip1">
                <path d="M197.113,89.15C197.113,83.49 194.672,78.062 190.328,74.06C185.983,70.058 180.091,67.81 173.947,67.81L67.571,67.81C61.427,67.81 55.535,70.058 51.19,74.06C46.846,78.062 44.405,83.49 44.405,89.15L44.405,150.6C44.405,156.26 46.846,161.688 51.19,165.69C55.535,169.691 61.427,171.94 67.571,171.94L173.947,171.94C180.091,171.94 185.983,169.691 190.328,165.69C194.672,161.688 197.113,156.26 197.113,150.6L197.113,89.15Z"/>
            </clipPath>
            <g clip-path="url(#_clip1)">
                <g transform="matrix(1,-5.7934e-17,5.7934e-17,-1.47307,-7.90845,271.829)">
                    <path d="M205.029,67.81L128.667,118.199L52.306,67.81L205.029,67.81Z" style="fill:rgb(174,206,218);"/>
                </g>
                <g transform="matrix(1,0,0,1.59088,-7.90845,-40.0674)">
                    <path d="M205.029,67.81C205.029,67.81 155.336,100.601 136.125,113.278C134.241,114.521 131.523,115.234 128.667,115.234C125.811,115.234 123.094,114.521 121.21,113.278C101.998,100.601 52.306,67.81 52.306,67.81L205.029,67.81Z" style="fill:rgb(174,206,218);fill-opacity:0.27;"/>
                </g>
                <g transform="matrix(1,0,0,1.3469,-7.90845,-23.5236)">
                    <path d="M205.029,67.81C205.029,67.81 154.335,101.262 135.556,113.654C131.712,116.19 125.622,116.19 121.779,113.654C103,101.262 52.306,67.81 52.306,67.81L205.029,67.81Z" style="fill:white;"/>
                </g>
            </g>
        </g>
    </g>
</svg>
