<?xml version="1.0" encoding="UTF-8" standalone="no"?>
<!DOCTYPE svg PUBLIC "-//W3C//DTD SVG 1.1//EN" "http://www.w3.org/Graphics/SVG/1.1/DTD/svg11.dtd">
<svg width="100%" height="100%" viewBox="0 0 256 256" version="1.1" xmlns="http://www.w3.org/2000/svg" xmlns:xlink="http://www.w3.org/1999/xlink" xml:space="preserve" xmlns:serif="http://www.serif.com/" style="fill-rule:evenodd;clip-rule:evenodd;stroke-linejoin:round;stroke-miterlimit:2;">
    <g id="Mail---Heart" serif:id="Mail - Heart" transform="matrix(1.51192,0,0,1.64128,-593.186,-417.725)">
        <g transform="matrix(1,0,0,1,356.241,212.625)">
            <path d="M197.113,89.15C197.113,83.49 194.672,78.062 190.328,74.06C185.983,70.058 180.091,67.81 173.947,67.81L67.571,67.81C61.427,67.81 55.535,70.058 51.19,74.06C46.846,78.062 44.405,83.49 44.405,89.15L44.405,150.6C44.405,156.26 46.846,161.688 51.19,165.69C55.535,169.691 61.427,171.94 67.571,171.94L173.947,171.94C180.091,171.94 185.983,169.691 190.328,165.69C194.672,161.688 197.113,156.26 197.113,150.6L197.113,89.15Z" style="fill:rgb(212,227,234);"/>
            <clipPath id="_clip1">
                <path d="M197.113,89.15C197.113,83.49 194.672,78.062 190.328,74.06C185.983,70.058 180.091,67.81 173.947,67.81L67.571,67.81C61.427,67.81 55.535,70.058 51.19,74.06C46.846,78.062 44.405,83.49 44.405,89.15L44.405,150.6C44.405,156.26 46.846,161.688 51.19,165.69C55.535,169.691 61.427,171.94 67.571,171.94L173.947,171.94C180.091,171.94 185.983,169.691 190.328,165.69C194.672,161.688 197.113,156.26 197.113,150.6L197.113,89.15Z"/>
            </clipPath>
            <g clip-path="url(#_clip1)">
                <g transform="matrix(1,-5.7934e-17,5.7934e-17,-1.47307,-7.90845,271.829)">
                    <path d="M205.029,67.81L128.667,118.199L52.306,67.81L205.029,67.81Z" style="fill:rgb(174,206,218);"/>
                </g>
                <g transform="matrix(1,0,0,1.44558,-7.90845,-30.2151)">
                    <path d="M205.029,67.81C205.029,67.81 154.777,100.97 135.804,113.49C133.935,114.724 131.359,115.42 128.667,115.42C125.976,115.42 123.4,114.724 121.531,113.49C102.558,100.97 52.306,67.81 52.306,67.81L205.029,67.81Z" style="fill:white;"/>
                </g>
            </g>
        </g>
        <g id="Heart-Icon" serif:id="Heart Icon" transform="matrix(1.79276,0,0,1.65146,-849.642,-4164.41)">
            <path d="M752,2724.5C752,2728.72 748.244,2733.07 744.934,2736.08C742.133,2738.62 737.867,2738.62 735.066,2736.08C731.756,2733.07 728,2728.72 728,2724.5C728,2720.91 730.91,2718 734.5,2718C736.816,2718 738.849,2719.21 740,2721.03C741.151,2719.21 743.184,2718 745.5,2718C749.09,2718 752,2720.91 752,2724.5Z" style="fill:rgb(255,78,96);fill-rule:nonzero;"/>
        </g>
    </g>
</svg>
