<?xml version="1.0" encoding="UTF-8" standalone="no"?>
<!DOCTYPE svg PUBLIC "-//W3C//DTD SVG 1.1//EN" "http://www.w3.org/Graphics/SVG/1.1/DTD/svg11.dtd">
<svg width="100%" height="100%" viewBox="0 0 256 256" version="1.1" xmlns="http://www.w3.org/2000/svg" xmlns:xlink="http://www.w3.org/1999/xlink" xml:space="preserve" xmlns:serif="http://www.serif.com/" style="fill-rule:evenodd;clip-rule:evenodd;stroke-linejoin:round;stroke-miterlimit:2;">
    <g id="Marshmallow-Small---Green" serif:id="Marshmallow Small - Green" transform="matrix(1.76449,0,0,1.66966,-10068.3,-589.023)">
        <g transform="matrix(0.698749,-0.426336,0.372944,0.682646,754.005,2681.55)">
            <path d="M6768.21,875.494L6681.92,875.494C6669.89,875.494 6660.13,886.056 6660.13,899.065L6660.13,910.732L6746.42,910.732C6758.45,910.732 6768.21,900.171 6768.21,887.162L6768.21,875.494Z" style="fill:white;"/>
        </g>
        <g transform="matrix(0.582811,-1.25817e-16,-3.60878e-16,0.893295,1859.23,-318.424)">
            <path d="M6768.21,893.113C6768.21,883.389 6756.76,875.494 6742.66,875.494L6685.69,875.494C6671.58,875.494 6660.13,883.389 6660.13,893.113C6660.13,902.838 6671.58,910.732 6685.69,910.732L6742.66,910.732C6756.76,910.732 6768.21,902.838 6768.21,893.113Z" style="fill:white;"/>
        </g>
        <g transform="matrix(0.421583,-1.93952e-16,-0.00160119,1.24844,2962.39,-641.866)">
            <path d="M6768.21,893.113C6768.21,883.389 6746.09,875.494 6718.84,875.494L6709.5,875.494C6682.25,875.494 6660.13,883.389 6660.13,893.113C6660.13,902.838 6682.25,910.732 6709.5,910.732L6718.84,910.732C6746.09,910.732 6768.21,902.838 6768.21,893.113Z" style="fill:white;"/>
        </g>
        <g transform="matrix(0.678791,-0.414159,0.372944,0.682646,886.928,2632.32)">
            <path d="M6768.21,875.494L6682.56,875.494C6670.18,875.494 6660.13,886.056 6660.13,899.065L6660.13,899.066C6660.13,902.16 6661.3,905.127 6663.38,907.315C6665.47,909.503 6668.29,910.732 6671.23,910.732C6694.4,910.732 6745.78,910.732 6745.78,910.732C6758.16,910.732 6768.21,900.171 6768.21,887.162L6768.21,875.494Z" style="fill:rgb(0,221,103);"/>
        </g>
        <g transform="matrix(-0.582811,1.25817e-16,3.60878e-16,-0.893295,9695.82,1177.31)">
            <path d="M6768.21,893.113C6768.21,883.389 6756.76,875.494 6742.66,875.494L6685.69,875.494C6671.58,875.494 6660.13,883.389 6660.13,893.113C6660.13,902.838 6671.58,910.732 6685.69,910.732L6742.66,910.732C6756.76,910.732 6768.21,902.838 6768.21,893.113Z" style="fill:white;"/>
        </g>
        <g transform="matrix(-0.421583,1.93952e-16,0.00160119,-1.24844,8592.66,1500.75)">
            <path d="M6768.21,893.113C6768.21,883.389 6746.09,875.494 6718.84,875.494L6709.5,875.494C6682.25,875.494 6660.13,883.389 6660.13,893.113C6660.13,902.838 6682.25,910.732 6709.5,910.732L6718.84,910.732C6746.09,910.732 6768.21,902.838 6768.21,893.113Z" style="fill:white;"/>
        </g>
        <g transform="matrix(-0.678791,0.414159,-0.372944,-0.682646,10668.1,-1773.44)">
            <path d="M6768.21,875.494L6682.56,875.494C6670.18,875.494 6660.13,886.056 6660.13,899.065L6660.13,899.066C6660.13,902.16 6661.3,905.127 6663.38,907.315C6665.47,909.503 6668.29,910.732 6671.23,910.732C6694.4,910.732 6745.78,910.732 6745.78,910.732C6758.16,910.732 6768.21,900.171 6768.21,887.162L6768.21,875.494Z" style="fill:rgb(0,221,103);"/>
        </g>
        <g transform="matrix(0.361211,-0.22039,0.11349,0.207736,3239.64,1692.76)">
            <path d="M6768.21,893.113C6768.21,883.389 6763.92,875.494 6758.62,875.494L6669.72,875.494C6664.43,875.494 6660.13,883.389 6660.13,893.113C6660.13,902.838 6664.43,910.732 6669.72,910.732L6758.62,910.732C6763.92,910.732 6768.21,902.838 6768.21,893.113Z" style="fill:rgb(200,251,213);"/>
        </g>
        <g transform="matrix(0.361211,-0.22039,0.11349,0.207736,3239.64,1758.28)">
            <path d="M6768.21,893.113C6768.21,883.389 6763.92,875.494 6758.62,875.494L6669.72,875.494C6664.43,875.494 6660.13,883.389 6660.13,893.113C6660.13,902.838 6664.43,910.732 6669.72,910.732L6758.62,910.732C6763.92,910.732 6768.21,902.838 6768.21,893.113Z" style="fill:rgb(200,251,213);"/>
        </g>
    </g>
</svg>
