<?xml version="1.0" encoding="UTF-8" standalone="no"?>
<!DOCTYPE svg PUBLIC "-//W3C//DTD SVG 1.1//EN" "http://www.w3.org/Graphics/SVG/1.1/DTD/svg11.dtd">
<svg width="100%" height="100%" viewBox="0 0 256 256" version="1.1" xmlns="http://www.w3.org/2000/svg" xmlns:xlink="http://www.w3.org/1999/xlink" xml:space="preserve" xmlns:serif="http://www.serif.com/" style="fill-rule:evenodd;clip-rule:evenodd;stroke-linejoin:round;stroke-miterlimit:2;">
    <g id="Meat" transform="matrix(1.25485,0,0,1.26077,-14191.8,-775.557)">
        <g transform="matrix(1.01718,0,0,1.01241,-139.636,18.789)">
            <path d="M11379.6,668.302C11386.4,680.938 11399.6,688.81 11414,688.81C11414.6,688.833 11415,688.833 11415,688.833C11435.2,688.833 11451.6,705.218 11451.6,725.399C11451.6,745.581 11435.2,761.966 11415,761.966L11323.5,761.966C11323,761.966 11322.6,761.957 11322.1,761.94C11288,760.976 11260.6,732.967 11260.6,698.607C11260.6,663.638 11289,635.248 11323.9,635.248C11347.9,635.248 11368.8,648.614 11379.6,668.302Z" style="fill:rgb(207,110,83);"/>
        </g>
        <g transform="matrix(1.01718,0,0,0.779029,-139.636,163.043)">
            <rect x="11260.6" y="698.607" width="10.812" height="27.676" style="fill:rgb(207,110,83);"/>
        </g>
        <g transform="matrix(1.01718,0,0,0.779029,43.6399,186.418)">
            <rect x="11260.6" y="698.607" width="10.812" height="27.676" style="fill:rgb(207,110,83);"/>
        </g>
        <g transform="matrix(1.01718,0,0,1.01241,-139.636,0)">
            <path d="M11379.6,668.302C11386.4,680.938 11399.6,688.81 11414,688.81C11414.6,688.833 11415,688.833 11415,688.833C11435.2,688.833 11451.6,705.218 11451.6,725.399C11451.6,745.581 11435.2,761.966 11415,761.966L11323.5,761.966C11323,761.966 11322.6,761.957 11322.1,761.94C11288,760.976 11260.6,732.967 11260.6,698.607C11260.6,663.638 11289,635.248 11323.9,635.248C11347.9,635.248 11368.8,648.614 11379.6,668.302Z" style="fill:rgb(248,224,196);"/>
        </g>
        <g transform="matrix(1.05984,0,0,1.05487,-624.121,-29.6543)">
            <path d="M11319.1,740.908C11297.9,738.432 11281.3,720.331 11281.3,698.4C11281.3,674.779 11300.5,655.602 11324.1,655.602C11348.2,655.602 11358.7,669.507 11363,683.231C11367.9,698.896 11382.4,709.558 11398.9,709.558C11408.4,709.601 11416.4,709.601 11416.4,709.601C11425.1,709.601 11432.2,716.68 11432.2,725.399C11432.2,734.118 11425.1,741.197 11416.4,741.197L11322.2,741.197C11321.1,741.197 11320.1,741.098 11319.1,740.908Z" style="fill:rgb(247,94,99);"/>
        </g>
        <g transform="matrix(1.01718,0,0,1.01241,14.2013,-81.4777)">
            <circle cx="11169.5" cy="770.18" r="19.555" style="fill:rgb(248,224,196);"/>
        </g>
        <g transform="matrix(0.577845,0,0,0.575133,4921.41,255.305)">
            <circle cx="11169.5" cy="770.18" r="19.555" style="fill:rgb(247,94,99);"/>
        </g>
    </g>
</svg>
