<?xml version="1.0" encoding="UTF-8" standalone="no"?>
<!DOCTYPE svg PUBLIC "-//W3C//DTD SVG 1.1//EN" "http://www.w3.org/Graphics/SVG/1.1/DTD/svg11.dtd">
<svg width="100%" height="100%" viewBox="0 0 256 256" version="1.1" xmlns="http://www.w3.org/2000/svg" xmlns:xlink="http://www.w3.org/1999/xlink" xml:space="preserve" xmlns:serif="http://www.serif.com/" style="fill-rule:evenodd;clip-rule:evenodd;stroke-linejoin:round;stroke-miterlimit:2;">
    <g id="Meat---Leg" serif:id="Meat - Leg" transform="matrix(1.06908,1.06908,1.07412,-1.07412,-12890.5,-11434.6)">
        <g transform="matrix(0.701467,0,0,1.17633,3471.69,-111.712)">
            <path d="M11423.7,699.624L11455.9,699.624L11455.9,743.507L11423.7,743.507L11423.7,699.624Z" style="fill:rgb(251,234,192);"/>
        </g>
        <g transform="matrix(0.382949,0,0,7.41235,7123.32,-4740.29)">
            <rect x="11419.4" y="735.47" width="39.114" height="6.964" style="fill:rgb(249,204,126);"/>
        </g>
        <g transform="matrix(1.01718,0,0,1.01241,-140.063,0)">
            <path d="M11457.7,702.588C11456.7,706.274 11453.4,708.846 11449.6,708.846C11443.9,708.903 11435.8,708.903 11430.1,708.903C11426.3,708.903 11422.9,706.313 11422,702.602C11420.9,698.459 11419.3,694.472 11417.1,690.73C11405,669.554 11392.5,652.793 11392.5,637.692C11392.5,611.588 11413.7,590.395 11439.8,590.395C11465.9,590.395 11487.1,611.588 11487.1,637.692C11487.1,652.793 11474.7,669.554 11462.5,690.735C11460.4,694.476 11458.8,698.461 11457.7,702.588Z" style="fill:rgb(210,111,52);"/>
        </g>
        <g transform="matrix(0.46769,0.465495,0.46769,-0.465495,11376.6,677.72)">
            <path d="M170.937,85.063L42.073,213.927C70.459,242.314 116.552,242.314 144.939,213.927C161.361,197.505 166.036,165.727 175.879,129.504C177.619,123.108 180.171,116.993 183.452,111.298C186.416,106.244 185.593,99.827 181.45,95.684C178.388,92.56 174.666,88.807 170.937,85.063Z" style="fill:rgb(183,96,34);"/>
        </g>
        <g transform="matrix(0.816953,0,0,0.816953,2104.6,135.993)">
            <g transform="matrix(0.867277,0,0,0.863207,1558.43,61.4659)">
                <circle cx="11442.3" cy="817.765" r="16.191" style="fill:rgb(251,234,192);"/>
            </g>
            <g transform="matrix(0.867277,0,0,0.863207,1586.51,61.4659)">
                <circle cx="11442.3" cy="817.765" r="16.191" style="fill:rgb(249,204,126);"/>
            </g>
        </g>
        <g transform="matrix(0.568672,0,0,-0.566003,4977.85,925.589)">
            <path d="M11479.5,571.441C11478.3,563.065 11471.1,556.829 11462.7,556.829C11462.7,556.726 11462.7,556.726 11462.7,556.726C11454.2,556.725 11447,562.999 11445.8,571.427C11445.2,574.689 11444.6,577.712 11444.6,579.567C11444.6,589.531 11452.7,597.62 11462.7,597.62C11472.6,597.62 11480.7,589.531 11480.7,579.567C11480.7,577.712 11480.2,574.689 11479.5,571.441Z" style="fill:rgb(119,57,37);"/>
        </g>
        <g transform="matrix(0.46769,0.465495,0.46769,-0.465495,11376.6,677.72)">
            <path d="M55.768,200.232L30.914,225.086C36.971,231.144 46.807,231.144 52.865,225.086C53.993,223.959 55.503,221.793 57.033,219.374C61.418,213.575 60.856,205.429 55.714,200.287C55.746,200.255 55.761,200.24 55.768,200.232Z" style="fill:rgb(101,48,31);"/>
        </g>
        <g>
            <g transform="matrix(0.284336,0.490173,0.492484,-0.283002,7997.53,-4831.55)">
                <path d="M11479.5,571.441C11478.3,563.065 11471.1,556.829 11462.7,556.829C11462.7,556.726 11462.7,556.726 11462.7,556.726C11454.2,556.725 11447,562.999 11445.8,571.427C11445.2,574.689 11444.6,577.712 11444.6,579.567C11444.6,589.531 11452.7,597.62 11462.7,597.62C11472.6,597.62 11480.7,589.531 11480.7,579.567C11480.7,577.712 11480.2,574.689 11479.5,571.441Z" style="fill:rgb(101,48,31);"/>
            </g>
            <g transform="matrix(-0.284336,0.490173,-0.492484,-0.283002,14995.2,-4831.55)">
                <path d="M11479.5,571.441C11478.3,563.065 11471.1,556.829 11462.7,556.829C11462.7,556.726 11462.7,556.726 11462.7,556.726C11454.2,556.725 11447,562.999 11445.8,571.427C11445.2,574.689 11444.6,577.712 11444.6,579.567C11444.6,589.531 11452.7,597.62 11462.7,597.62C11472.6,597.62 11480.7,589.531 11480.7,579.567C11480.7,577.712 11480.2,574.689 11479.5,571.441Z" style="fill:rgb(119,57,37);"/>
            </g>
        </g>
        <g>
            <g transform="matrix(-0.402112,0.400225,0.402112,0.400225,15913.1,-4141.62)">
                <path d="M11479.5,571.441C11478.3,563.065 11471.1,556.829 11462.7,556.829C11462.7,556.726 11462.7,556.726 11462.7,556.726C11454.2,556.725 11447,562.999 11445.8,571.427C11445.2,574.689 11444.6,577.712 11444.6,579.567C11444.6,589.531 11452.7,597.62 11462.7,597.62C11472.6,597.62 11480.7,589.531 11480.7,579.567C11480.7,577.712 11480.2,574.689 11479.5,571.441Z" style="fill:rgb(101,48,31);"/>
            </g>
            <g transform="matrix(0.402112,0.400225,-0.402112,0.400225,7079.67,-4141.62)">
                <path d="M11479.5,571.441C11478.3,563.065 11471.1,556.829 11462.7,556.829C11462.7,556.726 11462.7,556.726 11462.7,556.726C11454.2,556.725 11447,562.999 11445.8,571.427C11445.2,574.689 11444.6,577.712 11444.6,579.567C11444.6,589.531 11452.7,597.62 11462.7,597.62C11472.6,597.62 11480.7,589.531 11480.7,579.567C11480.7,577.712 11480.2,574.689 11479.5,571.441Z" style="fill:rgb(119,57,37);"/>
            </g>
        </g>
        <g transform="matrix(0.866296,0,0,0.862231,1586.69,96.3898)">
            <circle cx="11439.1" cy="641.826" r="12.347" style="fill:rgb(119,57,37);"/>
        </g>
        <g transform="matrix(0.46769,0.465495,0.46769,-0.465495,11376.6,677.72)">
            <path d="M109.437,146.563L86.567,169.433C92.878,175.745 103.126,175.745 109.437,169.433C115.748,163.122 115.748,152.874 109.437,146.563Z" style="fill:rgb(101,48,31);"/>
        </g>
        <g transform="matrix(0.867277,-4.81435e-17,0,0.863207,1561.57,89.1445)">
            <circle cx="11434" cy="684.411" r="7.532" style="fill:rgb(255,172,99);"/>
        </g>
    </g>
</svg>
