<?xml version="1.0" encoding="UTF-8" standalone="no"?>
<!DOCTYPE svg PUBLIC "-//W3C//DTD SVG 1.1//EN" "http://www.w3.org/Graphics/SVG/1.1/DTD/svg11.dtd">
<svg width="100%" height="100%" viewBox="0 0 256 256" version="1.1" xmlns="http://www.w3.org/2000/svg" xmlns:xlink="http://www.w3.org/1999/xlink" xml:space="preserve" xmlns:serif="http://www.serif.com/" style="fill-rule:evenodd;clip-rule:evenodd;stroke-linejoin:round;stroke-miterlimit:2;">
    <g id="Megaphone" transform="matrix(7.03372,0,0,6.6557,-37479.9,-6021.59)">
        <g transform="matrix(-0.550305,0,0,0.58156,8711.24,20.9312)">
            <path d="M6104.18,1552.53C6104.18,1548.45 6100.87,1545.14 6096.8,1545.14L6089.05,1545.14C6084.97,1545.14 6081.66,1548.45 6081.66,1552.53C6081.66,1556.6 6084.97,1559.91 6089.05,1559.91L6096.8,1559.91C6100.87,1559.91 6104.18,1556.6 6104.18,1552.53Z" style="fill:rgb(241,98,93);"/>
        </g>
        <g transform="matrix(0.142172,0,0,0.150247,5328.59,904.726)">
            <path d="M252.357,127.072C252.357,142.855 239.543,155.668 223.761,155.668L193.774,155.668C189.631,155.668 185.692,154.785 182.136,153.197L182.136,127.072L252.357,127.072Z" style="fill:rgb(210,85,82);"/>
        </g>
        <g transform="matrix(-0.550305,0,0,0.431159,8688.28,254.433)">
            <path d="M6104.18,1548.79C6104.18,1546.77 6102.97,1545.14 6101.48,1545.14L6084.36,1545.14C6082.87,1545.14 6081.66,1546.77 6081.66,1548.79L6081.66,1556.27C6081.66,1558.28 6082.87,1559.91 6084.36,1559.91L6101.48,1559.91C6102.97,1559.91 6104.18,1558.28 6104.18,1556.27L6104.18,1548.79Z" style="fill:rgb(58,60,66);"/>
        </g>
        <g transform="matrix(-4.06896e-17,0.6657,0.597914,3.66771e-17,4418.39,-3104.23)">
            <path d="M6050.85,1530.71L6074.05,1571.94L6027.65,1571.94L6050.85,1530.71Z" style="fill:rgb(247,240,220);"/>
        </g>
        <g transform="matrix(0.142172,0,0,0.150247,5328.59,904.726)">
            <path d="M208.767,229.868L90.822,159.953L90.822,127.072L208.767,127.072L208.767,229.868Z" style="fill:rgb(222,202,179);"/>
        </g>
        <g transform="matrix(-0.36564,8.50814e-17,1.66533e-16,0.502535,7562.07,132.163)">
            <path d="M6087.14,1561.01C6087.14,1558.89 6084.9,1557.17 6082.15,1557.17C6079.39,1557.17 6077.15,1558.89 6077.15,1561.01L6077.15,1580.04C6077.15,1582.16 6079.39,1583.88 6082.15,1583.88C6084.9,1583.88 6087.14,1582.16 6087.14,1580.04L6087.14,1561.01Z" style="fill:rgb(67,70,76);"/>
        </g>
        <g transform="matrix(-0.36564,9.05134e-17,1.66533e-16,0.534619,7562.07,91.3243)">
            <path d="M6087.14,1560.78C6087.14,1558.79 6084.9,1557.17 6082.15,1557.17C6079.39,1557.17 6077.15,1558.79 6077.15,1560.78L6077.15,1580.27C6077.15,1582.27 6079.39,1583.88 6082.15,1583.88C6084.9,1583.88 6087.14,1582.27 6087.14,1580.27L6087.14,1560.78Z" style="fill:rgb(55,58,63);"/>
        </g>
        <g transform="matrix(-0.545635,0,0,0.455895,8659.11,215.883)">
            <path d="M6098.62,1545.13C6098.62,1540.88 6095.88,1537.42 6092.52,1537.42L6074.05,1537.42L6074.05,1568.28L6092.52,1568.28C6095.88,1568.28 6098.62,1564.82 6098.62,1560.56L6098.62,1545.13Z" style="fill:rgb(243,97,94);"/>
        </g>
        <g transform="matrix(0.142172,0,0,0.150247,5328.59,904.726)">
            <path d="M114.656,127.072L114.656,173.889L43.767,173.889C30.848,173.889 20.359,163.4 20.359,150.481L20.359,127.072L114.656,127.072Z" style="fill:rgb(210,85,82);"/>
        </g>
        <g transform="matrix(-0.620512,0,0,0.655755,9112.05,-94.4698)">
            <path d="M6049.48,1529.22C6049.48,1527.64 6048.19,1526.35 6046.61,1526.35C6045.03,1526.35 6043.74,1527.64 6043.74,1529.22L6043.74,1576.9C6043.74,1578.49 6045.03,1579.77 6046.61,1579.77C6048.19,1579.77 6049.48,1578.49 6049.48,1576.9L6049.48,1529.22Z" style="fill:rgb(67,70,76);"/>
            <clipPath id="_clip1">
                <path d="M6049.48,1529.22C6049.48,1527.64 6048.19,1526.35 6046.61,1526.35C6045.03,1526.35 6043.74,1527.64 6043.74,1529.22L6043.74,1576.9C6043.74,1578.49 6045.03,1579.77 6046.61,1579.77C6048.19,1579.77 6049.48,1578.49 6049.48,1576.9L6049.48,1529.22Z"/>
            </clipPath>
            <g clip-path="url(#_clip1)">
                <g transform="matrix(-0.40915,0,0,2.24345,8520.01,-1928.33)">
                    <rect x="6030.66" y="1551.71" width="27.132" height="13.118" style="fill:rgb(55,58,63);"/>
                </g>
            </g>
        </g>
    </g>
</svg>
