<?xml version="1.0" encoding="UTF-8" standalone="no"?>
<!DOCTYPE svg PUBLIC "-//W3C//DTD SVG 1.1//EN" "http://www.w3.org/Graphics/SVG/1.1/DTD/svg11.dtd">
<svg width="100%" height="100%" viewBox="0 0 256 256" version="1.1" xmlns="http://www.w3.org/2000/svg" xmlns:xlink="http://www.w3.org/1999/xlink" xml:space="preserve" xmlns:serif="http://www.serif.com/" style="fill-rule:evenodd;clip-rule:evenodd;stroke-linejoin:round;stroke-miterlimit:2;">
    <g id="Milk" transform="matrix(2.26738,0,0,1.91599,-12223.5,-3190.99)">
        <g id="Milk1" serif:id="Milk" transform="matrix(0.995135,0,0,1.17764,-1336.82,-370.226)">
            <path d="M6796.53,1753.82L6836.76,1740.07L6861.56,1764.62C6861.56,1764.62 6861.56,1803.37 6861.56,1819.86C6861.56,1824.21 6858.79,1828.08 6854.67,1829.49C6845.5,1832.62 6829.74,1838.01 6823.74,1840.05C6822.15,1840.6 6820.46,1840.74 6818.8,1840.47C6812,1839.35 6793.03,1836.24 6781.85,1834.41C6776.93,1833.6 6773.32,1829.35 6773.32,1824.36L6773.32,1775.71C6773.32,1772.43 6774.9,1769.36 6777.56,1767.44L6796.53,1753.82ZM6821.32,1778.36C6821.32,1778.36 6821.32,1778.36 6821.32,1778.36Z" style="fill:white;"/>
            <clipPath id="_clip1">
                <path d="M6796.53,1753.82L6836.76,1740.07L6861.56,1764.62C6861.56,1764.62 6861.56,1803.37 6861.56,1819.86C6861.56,1824.21 6858.79,1828.08 6854.67,1829.49C6845.5,1832.62 6829.74,1838.01 6823.74,1840.05C6822.15,1840.6 6820.46,1840.74 6818.8,1840.47C6812,1839.35 6793.03,1836.24 6781.85,1834.41C6776.93,1833.6 6773.32,1829.35 6773.32,1824.36L6773.32,1775.71C6773.32,1772.43 6774.9,1769.36 6777.56,1767.44L6796.53,1753.82ZM6821.32,1778.36C6821.32,1778.36 6821.32,1778.36 6821.32,1778.36Z"/>
            </clipPath>
            <g clip-path="url(#_clip1)">
                <g transform="matrix(0.754318,0.123696,0,0.586135,1680.04,-90.0897)">
                    <path d="M6815.8,1749.37C6807.15,1734.29 6796.76,1721.8 6782.92,1714.42L6752.16,1749.37L6752.16,1856.03L6815.8,1856.03C6818.97,1821.47 6821.97,1786.85 6815.8,1749.37Z" style="fill:white;"/>
                </g>
                <g transform="matrix(-0.632312,0.215953,-2.59664e-18,0.586135,11131,-718.892)">
                    <path d="M6815.8,1749.37C6797.25,1742.36 6775.63,1743.43 6752.16,1749.37L6752.16,1856.03L6815.8,1856.03L6815.8,1749.37Z" style="fill:rgb(222,226,230);"/>
                </g>
                <g transform="matrix(-0.632312,0.215953,1.92384e-17,0.428166,11131,-434.121)">
                    <rect x="6752.16" y="1749.37" width="63.636" height="106.661" style="fill:rgb(34,184,207);"/>
                </g>
                <g transform="matrix(-0.21399,0.0730835,4.22017e-18,0.101299,8293.14,1114.07)">
                    <path d="M6815.8,1802.7C6815.8,1773.26 6805.67,1749.37 6793.19,1749.37L6774.77,1749.37C6762.29,1749.37 6752.16,1773.26 6752.16,1802.7C6752.16,1832.13 6762.29,1856.03 6774.77,1856.03L6793.19,1856.03C6805.67,1856.03 6815.8,1832.13 6815.8,1802.7Z" style="fill:rgb(21,170,191);"/>
                </g>
                <g transform="matrix(-0.372068,0.127072,7.33769e-18,0.0322103,9365.54,885.304)">
                    <path d="M6815.8,1802.7C6815.8,1773.26 6813.94,1749.37 6811.66,1749.37L6756.3,1749.37C6754.02,1749.37 6752.16,1773.26 6752.16,1802.7C6752.16,1832.13 6754.02,1856.03 6756.3,1856.03L6811.66,1856.03C6813.94,1856.03 6815.8,1832.13 6815.8,1802.7Z" style="fill:rgb(21,170,191);"/>
                </g>
                <g transform="matrix(-0.158078,0.0539881,7.01021e-18,0.0322103,7913.84,1388.08)">
                    <path d="M6815.8,1802.7C6815.8,1773.26 6811.44,1749.37 6806.07,1749.37L6761.89,1749.37C6756.52,1749.37 6752.16,1773.26 6752.16,1802.7C6752.16,1832.13 6756.52,1856.03 6761.89,1856.03L6806.07,1856.03C6811.44,1856.03 6815.8,1832.13 6815.8,1802.7Z" style="fill:rgb(21,170,191);"/>
                </g>
                <g transform="matrix(-0.158078,0.0539881,7.01021e-18,0.0322103,7913.84,1404.92)">
                    <path d="M6815.8,1802.7C6815.8,1773.26 6811.44,1749.37 6806.07,1749.37L6761.89,1749.37C6756.52,1749.37 6752.16,1773.26 6752.16,1802.7C6752.16,1832.13 6756.52,1856.03 6761.89,1856.03L6806.07,1856.03C6811.44,1856.03 6815.8,1832.13 6815.8,1802.7Z" style="fill:rgb(206,212,218);"/>
                </g>
                <g transform="matrix(0.754318,0.107976,-4.70639e-17,0.428166,1680.04,301.823)">
                    <rect x="6752.16" y="1749.37" width="63.636" height="106.661" style="fill:rgb(153,233,242);"/>
                </g>
                <g transform="matrix(0.58232,0.0665033,-1.0319e-14,0.498493,3634.76,636.882)">
                    <g transform="matrix(1,0,0,1,-1.38193,5.68434e-14)">
                        <g transform="matrix(0.961227,-0.304795,0.25756,1.13751,-1538.99,1771.87)">
                            <ellipse cx="6794.42" cy="1669.52" rx="5.862" ry="11.211" style="fill:white;"/>
                        </g>
                        <g transform="matrix(-0.961227,-0.304795,-0.25756,1.13751,12401.6,1771.87)">
                            <ellipse cx="6794.42" cy="1669.52" rx="5.862" ry="11.211" style="fill:white;"/>
                        </g>
                    </g>
                    <g>
                        <g transform="matrix(1.41801,0,0,1.67806,-4215.12,-1223.51)">
                            <circle cx="6788.08" cy="1683.12" r="4.893" style="fill:rgb(52,58,64);"/>
                        </g>
                        <g transform="matrix(1.41801,0,0,1.67806,-4176.15,-1223.51)">
                            <circle cx="6788.08" cy="1683.12" r="4.893" style="fill:rgb(52,58,64);"/>
                        </g>
                    </g>
                    <g transform="matrix(0.995135,0,0,1.17764,-1337.3,-370.226)">
                        <circle cx="6800.28" cy="1692.51" r="23.748" style="fill:white;"/>
                        <clipPath id="_clip2">
                            <circle cx="6800.28" cy="1692.51" r="23.748"/>
                        </clipPath>
                        <g clip-path="url(#_clip2)">
                            <g transform="matrix(1.42494,0,0,1.42494,-2860.99,-725.254)">
                                <circle cx="6788.08" cy="1683.12" r="4.893" style="fill:rgb(52,58,64);"/>
                            </g>
                            <g transform="matrix(1.42494,0,0,1.42494,-2877.01,-730.756)">
                                <circle cx="6788.08" cy="1683.12" r="4.893" style="fill:rgb(52,58,64);"/>
                            </g>
                            <g transform="matrix(1.42494,0,0,1.42494,-2894.61,-710.108)">
                                <circle cx="6788.08" cy="1683.12" r="4.893" style="fill:rgb(52,58,64);"/>
                            </g>
                        </g>
                    </g>
                    <g transform="matrix(0.995135,0,0,1.17764,-1335.7,-371.04)">
                        <ellipse cx="6798.68" cy="1706.48" rx="25.355" ry="18.474" style="fill:rgb(247,131,172);"/>
                    </g>
                    <g transform="matrix(1,0,0,1,0.254703,5.68434e-14)">
                        <g transform="matrix(0.995135,0,0,1.17764,-1336.82,-370.226)">
                            <circle cx="6788.56" cy="1684.02" r="3.289" style="fill:rgb(52,58,64);"/>
                        </g>
                        <g transform="matrix(0.995135,0,0,1.17764,-1314.96,-370.226)">
                            <circle cx="6788.56" cy="1684.02" r="3.289" style="fill:rgb(52,58,64);"/>
                        </g>
                    </g>
                    <g transform="matrix(1,0,0,1,-1.38193,5.68434e-14)">
                        <g transform="matrix(0.995135,0,0,1.17764,-1314.96,-351.11)">
                            <circle cx="6788.56" cy="1684.02" r="3.289" style="fill:rgb(214,51,108);"/>
                        </g>
                        <g transform="matrix(0.995135,0,0,1.17764,-1333.55,-351.11)">
                            <circle cx="6788.56" cy="1684.02" r="3.289" style="fill:rgb(214,51,108);"/>
                        </g>
                    </g>
                </g>
                <g transform="matrix(-0.632312,0.215953,-0.232496,-0.23014,11537.8,709.072)">
                    <rect x="6752.16" y="1749.37" width="63.636" height="106.661" style="fill:rgb(241,243,245);"/>
                </g>
            </g>
        </g>
        <g transform="matrix(-0.629236,0.254314,-5.10303e-14,0.113479,9715.39,-248.84)">
            <path d="M6815.8,1794.34C6815.8,1767.44 6813.19,1749.37 6809.31,1749.37C6797.65,1749.37 6773.16,1749.37 6760.36,1749.37C6758.47,1749.37 6756.38,1756.06 6754.75,1767.33C6753.13,1778.61 6752.16,1793.09 6752.16,1806.2C6752.16,1831.65 6752.16,1856.03 6752.16,1856.03L6815.8,1856.03C6815.8,1856.03 6815.8,1823.48 6815.8,1794.34Z" style="fill:white;"/>
        </g>
    </g>
</svg>
