<?xml version="1.0" encoding="UTF-8" standalone="no"?>
<!DOCTYPE svg PUBLIC "-//W3C//DTD SVG 1.1//EN" "http://www.w3.org/Graphics/SVG/1.1/DTD/svg11.dtd">
<svg width="100%" height="100%" viewBox="0 0 256 256" version="1.1" xmlns="http://www.w3.org/2000/svg" xmlns:xlink="http://www.w3.org/1999/xlink" xml:space="preserve" xmlns:serif="http://www.serif.com/" style="fill-rule:evenodd;clip-rule:evenodd;stroke-linejoin:round;stroke-miterlimit:2;">
    <g id="Mobile-White" serif:id="Mobile White" transform="matrix(1.05502,0,0,1.05502,-7.0421,-7.05028)">
        <g transform="matrix(0.797091,0,0,1.00127,25.1064,-0.0588901)">
            <path d="M215.014,25.517C215.014,17.603 206.943,11.177 197.001,11.177L61.171,11.177C51.23,11.177 43.159,17.603 43.159,25.517L43.159,230.573C43.159,238.487 51.23,244.912 61.171,244.912L197.001,244.912C206.943,244.912 215.014,238.487 215.014,230.573L215.014,25.517Z" style="fill:white;"/>
        </g>
        <g transform="matrix(0.743272,0,0,0.991242,32.929,-20.0283)">
            <rect x="53.869" y="50.302" width="148.079" height="173.268" style="fill:rgb(94,142,190);"/>
        </g>
        <g transform="matrix(0.7194,0,0,0.989846,37.7501,-19.9581)">
            <path d="M201.948,50.302L85.304,50.302L160.828,223.57L201.948,223.57L201.948,50.302Z" style="fill:white;fill-opacity:0.15;"/>
        </g>
        <g transform="matrix(1.21503,0,0,1.21503,-24.7464,-49.012)">
            <circle cx="125.714" cy="223.068" r="5.982" style="fill:rgb(94,142,190);"/>
        </g>
    </g>
</svg>
