<?xml version="1.0" encoding="UTF-8" standalone="no"?>
<!DOCTYPE svg PUBLIC "-//W3C//DTD SVG 1.1//EN" "http://www.w3.org/Graphics/SVG/1.1/DTD/svg11.dtd">
<svg width="100%" height="100%" viewBox="0 0 256 256" version="1.1" xmlns="http://www.w3.org/2000/svg" xmlns:xlink="http://www.w3.org/1999/xlink" xml:space="preserve" xmlns:serif="http://www.serif.com/" style="fill-rule:evenodd;clip-rule:evenodd;stroke-linejoin:round;stroke-miterlimit:2;">
    <g id="Mountains">
        <g>
            <g transform="matrix(0.815332,0,0,0.751128,111.551,63.4247)">
                <path d="M64.598,91.651C68.948,79.416 79.785,71.348 91.866,71.348C103.948,71.348 114.785,79.416 119.135,91.651C144.093,161.84 177.166,254.848 177.166,254.848L6.567,254.848C6.567,254.848 39.639,161.84 64.598,91.651Z" style="fill:rgb(187,126,93);"/>
            </g>
            <path d="M178.363,118.43C180.911,117.51 183.64,117.016 186.453,117.016C196.303,117.016 205.139,123.076 208.686,132.266C229.035,184.987 256,254.848 256,254.848L178.363,254.848L178.363,118.43Z" style="fill:rgb(140,90,69);"/>
            <path d="M156.519,152.217L164.219,132.266C167.767,123.076 176.602,117.016 186.453,117.016C196.303,117.016 205.139,123.076 208.686,132.266L216.386,152.217C211.579,151.512 207.209,149.457 203.672,146.447C202.366,154.778 195.149,161.16 186.453,161.16C177.757,161.16 170.539,154.778 169.233,146.447C165.696,149.457 161.326,151.512 156.519,152.217Z" style="fill:rgb(233,236,239);"/>
        </g>
        <g>
            <g transform="matrix(0.564405,0,0,0.51996,-3.70628,122.337)">
                <path d="M52.474,125.745C58.759,108.071 74.413,96.415 91.866,96.415C109.319,96.415 124.974,108.071 131.258,125.745C153.612,188.609 177.166,254.848 177.166,254.848L6.567,254.848C6.567,254.848 30.121,188.609 52.474,125.745Z" style="fill:rgb(156,102,77);"/>
            </g>
            <path d="M48.143,172.469C57.994,172.469 66.829,178.53 70.377,187.72C82.993,220.406 96.287,254.848 96.287,254.848L48.143,254.848L48.143,172.469Z" style="fill:rgb(156,102,77);"/>
            <path d="M23.834,193.098L25.91,187.72C29.457,178.53 38.293,172.469 48.143,172.469C57.994,172.469 66.829,178.53 70.377,187.72L72.453,193.098C72.113,193.118 71.771,193.128 71.427,193.128C67.095,193.128 63.127,191.555 60.064,188.948C59.159,194.715 54.163,199.133 48.143,199.133C42.124,199.133 37.128,194.715 36.223,188.948C33.16,191.555 29.192,193.128 24.859,193.128C24.516,193.128 24.174,193.118 23.834,193.098Z" style="fill:rgb(233,236,239);"/>
        </g>
        <g>
            <g transform="matrix(1.08548,0,0,0.857499,28.2813,-12.8316)">
                <path d="M71.231,86.862C74.384,75.875 82.632,68.56 91.866,68.56C101.101,68.56 109.348,75.875 112.502,86.862C137.746,174.817 177.166,312.164 177.166,312.164L6.567,312.164C6.567,312.164 45.987,174.817 71.231,86.862Z" style="fill:rgb(187,126,93);"/>
            </g>
            <path d="M128,45.958C138.024,45.958 146.976,52.231 150.399,61.652C177.801,137.074 220.591,254.848 220.591,254.848L128,254.848L128,45.958Z" style="fill:rgb(156,102,77);"/>
            <path d="M85.226,117.733L105.601,61.652C109.024,52.231 117.976,45.958 128,45.958C138.024,45.958 146.976,52.231 150.399,61.652L170.774,117.733C163.226,117.353 156.341,114.842 150.925,110.89C149.186,120.401 139.577,127.686 128,127.686C116.423,127.686 106.814,120.401 105.075,110.89C99.659,114.842 92.774,117.353 85.226,117.733Z" style="fill:white;"/>
        </g>
    </g>
</svg>
