<?xml version="1.0" encoding="UTF-8" standalone="no"?>
<!DOCTYPE svg PUBLIC "-//W3C//DTD SVG 1.1//EN" "http://www.w3.org/Graphics/SVG/1.1/DTD/svg11.dtd">
<svg width="100%" height="100%" viewBox="0 0 256 256" version="1.1" xmlns="http://www.w3.org/2000/svg" xmlns:xlink="http://www.w3.org/1999/xlink" xml:space="preserve" xmlns:serif="http://www.serif.com/" style="fill-rule:evenodd;clip-rule:evenodd;stroke-linejoin:round;stroke-miterlimit:2;">
    <g id="Movie" transform="matrix(0.306426,0,0,0.306426,14.3176,13.4126)">
        <g transform="matrix(2.86456e-16,4.67818,-4.67818,2.86456e-16,5471.76,-2193.8)">
            <path d="M628.66,1034.86C628.66,1021.79 618.051,1011.18 604.984,1011.18L492.771,1011.18C479.704,1011.18 469.095,1021.79 469.095,1034.86L469.095,1145.8C469.095,1158.87 479.704,1169.48 492.771,1169.48L604.984,1169.48C618.051,1169.48 628.66,1158.87 628.66,1145.8L628.66,1034.86Z" style="fill:rgb(73,90,108);"/>
        </g>
        <g transform="matrix(1.235e-15,20.1691,-20.1691,1.235e-15,3543.96,-11432.9)">
            <g transform="matrix(0.231948,0,0,0.231948,459.2,-95.5817)">
                <path d="M489.22,1033.85C489.22,1032.22 487.896,1030.89 486.266,1030.89L480.357,1030.89C478.727,1030.89 477.403,1032.22 477.403,1033.85L477.403,1040.22C477.403,1041.85 478.727,1043.17 480.357,1043.17L486.266,1043.17C487.896,1043.17 489.22,1041.85 489.22,1040.22L489.22,1033.85Z" style="fill:white;"/>
                <g transform="matrix(1,0,0,1,0,27.1083)">
                    <path d="M489.22,1033.85C489.22,1032.22 487.896,1030.89 486.266,1030.89L480.357,1030.89C478.727,1030.89 477.403,1032.22 477.403,1033.85L477.403,1040.22C477.403,1041.85 478.727,1043.17 480.357,1043.17L486.266,1043.17C487.896,1043.17 489.22,1041.85 489.22,1040.22L489.22,1033.85Z" style="fill:white;"/>
                </g>
                <g transform="matrix(1,0,0,1,0,54.2165)">
                    <path d="M489.22,1033.85C489.22,1032.22 487.896,1030.89 486.266,1030.89L480.357,1030.89C478.727,1030.89 477.403,1032.22 477.403,1033.85L477.403,1040.22C477.403,1041.85 478.727,1043.17 480.357,1043.17L486.266,1043.17C487.896,1043.17 489.22,1041.85 489.22,1040.22L489.22,1033.85Z" style="fill:white;"/>
                </g>
                <g transform="matrix(1,0,0,1,0,81.3248)">
                    <path d="M489.22,1033.85C489.22,1032.22 487.896,1030.89 486.266,1030.89L480.357,1030.89C478.727,1030.89 477.403,1032.22 477.403,1033.85L477.403,1040.22C477.403,1041.85 478.727,1043.17 480.357,1043.17L486.266,1043.17C487.896,1043.17 489.22,1041.85 489.22,1040.22L489.22,1033.85Z" style="fill:white;"/>
                </g>
                <g transform="matrix(1,0,0,1,0,108.433)">
                    <path d="M489.22,1033.85C489.22,1032.22 487.896,1030.89 486.266,1030.89L480.357,1030.89C478.727,1030.89 477.403,1032.22 477.403,1033.85L477.403,1040.22C477.403,1041.85 478.727,1043.17 480.357,1043.17L486.266,1043.17C487.896,1043.17 489.22,1041.85 489.22,1040.22L489.22,1033.85Z" style="fill:white;"/>
                </g>
            </g>
            <g transform="matrix(0.231948,0,0,0.231948,487.378,-95.5817)">
                <path d="M489.22,1033.85C489.22,1032.22 487.896,1030.89 486.266,1030.89L480.357,1030.89C478.727,1030.89 477.403,1032.22 477.403,1033.85L477.403,1040.22C477.403,1041.85 478.727,1043.17 480.357,1043.17L486.266,1043.17C487.896,1043.17 489.22,1041.85 489.22,1040.22L489.22,1033.85Z" style="fill:white;"/>
                <g transform="matrix(1,0,0,1,0,27.1083)">
                    <path d="M489.22,1033.85C489.22,1032.22 487.896,1030.89 486.266,1030.89L480.357,1030.89C478.727,1030.89 477.403,1032.22 477.403,1033.85L477.403,1040.22C477.403,1041.85 478.727,1043.17 480.357,1043.17L486.266,1043.17C487.896,1043.17 489.22,1041.85 489.22,1040.22L489.22,1033.85Z" style="fill:white;"/>
                </g>
                <g transform="matrix(1,0,0,1,0,54.2165)">
                    <path d="M489.22,1033.85C489.22,1032.22 487.896,1030.89 486.266,1030.89L480.357,1030.89C478.727,1030.89 477.403,1032.22 477.403,1033.85L477.403,1040.22C477.403,1041.85 478.727,1043.17 480.357,1043.17L486.266,1043.17C487.896,1043.17 489.22,1041.85 489.22,1040.22L489.22,1033.85Z" style="fill:white;"/>
                </g>
                <g transform="matrix(1,0,0,1,0,81.3248)">
                    <path d="M489.22,1033.85C489.22,1032.22 487.896,1030.89 486.266,1030.89L480.357,1030.89C478.727,1030.89 477.403,1032.22 477.403,1033.85L477.403,1040.22C477.403,1041.85 478.727,1043.17 480.357,1043.17L486.266,1043.17C487.896,1043.17 489.22,1041.85 489.22,1040.22L489.22,1033.85Z" style="fill:white;"/>
                </g>
                <g transform="matrix(1,0,0,1,0,108.433)">
                    <path d="M489.22,1033.85C489.22,1032.22 487.896,1030.89 486.266,1030.89L480.357,1030.89C478.727,1030.89 477.403,1032.22 477.403,1033.85L477.403,1040.22C477.403,1041.85 478.727,1043.17 480.357,1043.17L486.266,1043.17C487.896,1043.17 489.22,1041.85 489.22,1040.22L489.22,1033.85Z" style="fill:white;"/>
                </g>
            </g>
        </g>
        <g transform="matrix(1.72003e-15,28.0903,-22.4966,1.37752e-15,3939.03,-16036.8)">
            <path d="M582.996,153.028C583.259,152.504 583.719,152.185 584.214,152.185C584.71,152.185 585.17,152.504 585.433,153.028C586.574,155.311 588.277,158.718 589.466,161.095C589.742,161.648 589.757,162.344 589.503,162.914C589.25,163.484 588.77,163.837 588.248,163.837L580.181,163.837C579.659,163.837 579.179,163.484 578.925,162.914C578.672,162.344 578.687,161.648 578.963,161.095C580.152,158.718 581.855,155.311 582.996,153.028Z" style="fill:rgb(21,170,191);"/>
        </g>
    </g>
</svg>
