<?xml version="1.0" encoding="UTF-8" standalone="no"?>
<!DOCTYPE svg PUBLIC "-//W3C//DTD SVG 1.1//EN" "http://www.w3.org/Graphics/SVG/1.1/DTD/svg11.dtd">
<svg width="100%" height="100%" viewBox="0 0 256 256" version="1.1" xmlns="http://www.w3.org/2000/svg" xmlns:xlink="http://www.w3.org/1999/xlink" xml:space="preserve" xmlns:serif="http://www.serif.com/" style="fill-rule:evenodd;clip-rule:evenodd;stroke-linejoin:round;stroke-miterlimit:2;">
    <g id="Movie---Dark-White" serif:id="Movie - Dark White" transform="matrix(0.349812,0,0,0.349812,14.5423,-38.8139)">
        <g transform="matrix(2.50928e-16,4.09796,-4.09796,2.50928e-16,4792.47,-1772.41)">
            <path d="M628.66,1034.93C628.66,1021.82 618.021,1011.18 604.916,1011.18L492.839,1011.18C479.734,1011.18 469.095,1021.82 469.095,1034.93L469.095,1145.73C469.095,1158.84 479.734,1169.48 492.839,1169.48L604.916,1169.48C618.021,1169.48 628.66,1158.84 628.66,1145.73L628.66,1034.93Z" style="fill:rgb(73,90,108);"/>
        </g>
        <g transform="matrix(2.50928e-16,4.09796,-4.09796,2.50928e-16,4792.47,-1770.01)">
            <path d="M489.22,1033.85C489.22,1032.22 487.896,1030.89 486.266,1030.89L480.357,1030.89C478.727,1030.89 477.403,1032.22 477.403,1033.85L477.403,1040.22C477.403,1041.85 478.727,1043.17 480.357,1043.17L486.266,1043.17C487.896,1043.17 489.22,1041.85 489.22,1040.22L489.22,1033.85Z" style="fill:white;"/>
            <g transform="matrix(1,0,0,1,0,27.1083)">
                <path d="M489.22,1033.85C489.22,1032.22 487.896,1030.89 486.266,1030.89L480.357,1030.89C478.727,1030.89 477.403,1032.22 477.403,1033.85L477.403,1040.22C477.403,1041.85 478.727,1043.17 480.357,1043.17L486.266,1043.17C487.896,1043.17 489.22,1041.85 489.22,1040.22L489.22,1033.85Z" style="fill:white;"/>
            </g>
            <g transform="matrix(1,0,0,1,0,54.2165)">
                <path d="M489.22,1033.85C489.22,1032.22 487.896,1030.89 486.266,1030.89L480.357,1030.89C478.727,1030.89 477.403,1032.22 477.403,1033.85L477.403,1040.22C477.403,1041.85 478.727,1043.17 480.357,1043.17L486.266,1043.17C487.896,1043.17 489.22,1041.85 489.22,1040.22L489.22,1033.85Z" style="fill:white;"/>
            </g>
            <g transform="matrix(1,0,0,1,0,81.3248)">
                <path d="M489.22,1033.85C489.22,1032.22 487.896,1030.89 486.266,1030.89L480.357,1030.89C478.727,1030.89 477.403,1032.22 477.403,1033.85L477.403,1040.22C477.403,1041.85 478.727,1043.17 480.357,1043.17L486.266,1043.17C487.896,1043.17 489.22,1041.85 489.22,1040.22L489.22,1033.85Z" style="fill:white;"/>
            </g>
            <g transform="matrix(1,0,0,1,0,108.433)">
                <path d="M489.22,1033.85C489.22,1032.22 487.896,1030.89 486.266,1030.89L480.357,1030.89C478.727,1030.89 477.403,1032.22 477.403,1033.85L477.403,1040.22C477.403,1041.85 478.727,1043.17 480.357,1043.17L486.266,1043.17C487.896,1043.17 489.22,1041.85 489.22,1040.22L489.22,1033.85Z" style="fill:white;"/>
            </g>
        </g>
        <g transform="matrix(2.50928e-16,4.09796,-4.09796,2.50928e-16,4792.47,-1237.86)">
            <path d="M489.22,1033.85C489.22,1032.22 487.896,1030.89 486.266,1030.89L480.357,1030.89C478.727,1030.89 477.403,1032.22 477.403,1033.85L477.403,1040.22C477.403,1041.85 478.727,1043.17 480.357,1043.17L486.266,1043.17C487.896,1043.17 489.22,1041.85 489.22,1040.22L489.22,1033.85Z" style="fill:white;"/>
            <g transform="matrix(1,0,0,1,0,27.1083)">
                <path d="M489.22,1033.85C489.22,1032.22 487.896,1030.89 486.266,1030.89L480.357,1030.89C478.727,1030.89 477.403,1032.22 477.403,1033.85L477.403,1040.22C477.403,1041.85 478.727,1043.17 480.357,1043.17L486.266,1043.17C487.896,1043.17 489.22,1041.85 489.22,1040.22L489.22,1033.85Z" style="fill:white;"/>
            </g>
            <g transform="matrix(1,0,0,1,0,54.2165)">
                <path d="M489.22,1033.85C489.22,1032.22 487.896,1030.89 486.266,1030.89L480.357,1030.89C478.727,1030.89 477.403,1032.22 477.403,1033.85L477.403,1040.22C477.403,1041.85 478.727,1043.17 480.357,1043.17L486.266,1043.17C487.896,1043.17 489.22,1041.85 489.22,1040.22L489.22,1033.85Z" style="fill:white;"/>
            </g>
            <g transform="matrix(1,0,0,1,0,81.3248)">
                <path d="M489.22,1033.85C489.22,1032.22 487.896,1030.89 486.266,1030.89L480.357,1030.89C478.727,1030.89 477.403,1032.22 477.403,1033.85L477.403,1040.22C477.403,1041.85 478.727,1043.17 480.357,1043.17L486.266,1043.17C487.896,1043.17 489.22,1041.85 489.22,1040.22L489.22,1033.85Z" style="fill:white;"/>
            </g>
            <g transform="matrix(1,0,0,1,0,108.433)">
                <path d="M489.22,1033.85C489.22,1032.22 487.896,1030.89 486.266,1030.89L480.357,1030.89C478.727,1030.89 477.403,1032.22 477.403,1033.85L477.403,1040.22C477.403,1041.85 478.727,1043.17 480.357,1043.17L486.266,1043.17C487.896,1043.17 489.22,1041.85 489.22,1040.22L489.22,1033.85Z" style="fill:white;"/>
            </g>
        </g>
        <g transform="matrix(2.34321e-16,3.82675,-3.16755,1.93957e-16,3813.22,-1627.86)">
            <rect x="497.739" y="1006.73" width="104.527" height="189.42" style="fill:white;"/>
        </g>
        <g transform="matrix(1.33331e-15,21.7746,-17.4387,1.06781e-15,3094.88,-12244.2)">
            <path d="M583.043,152.936C583.295,152.431 583.738,152.124 584.214,152.124C584.691,152.124 585.134,152.431 585.386,152.936C586.544,155.251 588.312,158.786 589.518,161.199C589.784,161.731 589.798,162.401 589.554,162.949C589.311,163.497 588.848,163.837 588.346,163.837L580.083,163.837C579.581,163.837 579.118,163.497 578.875,162.949C578.631,162.401 578.645,161.731 578.911,161.199C580.117,158.786 581.885,155.251 583.043,152.936Z" style="fill:rgb(21,170,191);"/>
        </g>
    </g>
</svg>
