<?xml version="1.0" encoding="UTF-8" standalone="no"?>
<!DOCTYPE svg PUBLIC "-//W3C//DTD SVG 1.1//EN" "http://www.w3.org/Graphics/SVG/1.1/DTD/svg11.dtd">
<svg width="100%" height="100%" viewBox="0 0 256 256" version="1.1" xmlns="http://www.w3.org/2000/svg" xmlns:xlink="http://www.w3.org/1999/xlink" xml:space="preserve" xmlns:serif="http://www.serif.com/" style="fill-rule:evenodd;clip-rule:evenodd;stroke-linejoin:round;stroke-miterlimit:2;">
    <g id="Mushroom" transform="matrix(5.77613,0,0,5.4657,-30694.7,-4516.91)">
        <g transform="matrix(0.620512,0,0,0.836134,1586.04,-367.291)">
            <path d="M6058.59,1454.1C6058.59,1447.65 6051.91,1442.41 6043.68,1442.41C6035.45,1442.41 6028.76,1447.65 6028.76,1454.1L6028.76,1470.48C6028.76,1476.93 6035.45,1482.18 6043.68,1482.18C6051.91,1482.18 6058.59,1476.93 6058.59,1470.48L6058.59,1454.1Z" style="fill:rgb(235,211,167);"/>
        </g>
        <g transform="matrix(0.173126,0,0,0.182959,5314.05,826.411)">
            <path d="M128,67.47C128,67.47 128,249.214 128,249.214C157.501,249.214 181.453,225.263 181.453,195.762L181.453,120.923C181.453,91.422 157.501,67.47 128,67.47Z" style="fill:rgb(223,187,142);"/>
        </g>
        <g transform="matrix(0.620512,0,0,0.655755,1587.01,-93.7219)">
            <path d="M6042.11,1405.06C6059,1405.06 6072.72,1418.77 6072.72,1435.67C6072.72,1452.56 6011.5,1452.56 6011.5,1435.67C6011.5,1418.77 6025.21,1405.06 6042.11,1405.06Z" style="fill:rgb(143,76,59);"/>
        </g>
        <g transform="matrix(0.173126,0,0,0.182959,5314.05,826.411)">
            <path d="M128,6.786C188.551,6.786 237.71,55.945 237.71,116.496C237.71,146.772 182.855,161.909 128,161.909L128,6.786Z" style="fill:rgb(123,66,52);"/>
        </g>
        <g transform="matrix(0.226322,0,0,0.239177,2679.05,401.036)">
            <circle cx="11703.9" cy="1827.53" r="17.206" style="fill:rgb(163,88,68);"/>
        </g>
    </g>
</svg>
