<?xml version="1.0" encoding="UTF-8" standalone="no"?>
<!DOCTYPE svg PUBLIC "-//W3C//DTD SVG 1.1//EN" "http://www.w3.org/Graphics/SVG/1.1/DTD/svg11.dtd">
<svg width="100%" height="100%" viewBox="0 0 256 256" version="1.1" xmlns="http://www.w3.org/2000/svg" xmlns:xlink="http://www.w3.org/1999/xlink" xml:space="preserve" xmlns:serif="http://www.serif.com/" style="fill-rule:evenodd;clip-rule:evenodd;stroke-linejoin:round;stroke-miterlimit:2;">
    <g id="Music" transform="matrix(3.81664,0,0,4.85676,-8885.3,-7257.65)">
        <g transform="matrix(0.713339,0,0,0.74685,717.245,1025.23)">
            <rect x="2289.77" y="642.062" width="11.234" height="41.947" style="fill:rgb(255,212,59);"/>
        </g>
        <g transform="matrix(0.713339,0,0,0.748635,748.537,1019.63)">
            <rect x="2289.77" y="642.062" width="11.234" height="41.947" style="fill:rgb(255,212,59);"/>
        </g>
        <g transform="matrix(0.697467,0,0,0.548099,736.578,1172.67)">
            <circle cx="2307.43" cy="663.04" r="18.222" style="fill:rgb(255,237,102);"/>
        </g>
        <g transform="matrix(0.26201,0,0,0.205899,2328.04,1494.34)">
            <path d="M86.205,157.638C104.117,164.772 116.79,182.278 116.79,202.72C116.79,223.162 104.117,240.668 86.205,247.802L86.205,157.638Z" style="fill:rgb(255,212,59);"/>
        </g>
        <g transform="matrix(0.697467,0,0,0.548099,767.87,1168.29)">
            <circle cx="2307.43" cy="663.04" r="18.222" style="fill:rgb(255,237,102);"/>
        </g>
        <g transform="matrix(0.26201,0,0,0.205899,2328.04,1494.34)">
            <path d="M187.314,132.968C187.448,132.966 187.582,132.966 187.715,132.966C214.486,132.966 236.221,154.7 236.221,181.471C236.221,208.242 214.486,229.976 187.715,229.976C187.582,229.976 187.448,229.976 187.314,229.975L187.314,132.968Z" style="fill:rgb(255,212,59);"/>
        </g>
        <g transform="matrix(9.04714e-17,-1.06659,0.937041,-0.142825,1748.99,4046.24)">
            <path d="M2301,647.297C2301,644.258 2299.46,642.062 2297.32,642.062C2294.05,642.062 2289.77,642.062 2289.77,642.062L2289.77,684.009L2295.59,684.009C2296.92,684.009 2298.3,683.146 2299.35,681.657C2300.4,680.167 2301,678.207 2301,676.311C2301,667.883 2301,654.597 2301,647.297Z" style="fill:rgb(255,212,59);"/>
        </g>
        <g transform="matrix(4.89172e-17,-0.533296,0.937041,-0.142825,1748.99,2819.12)">
            <path d="M2301,647.297C2301,644.258 2297.92,642.062 2293.64,642.062C2291.52,642.062 2289.77,642.062 2289.77,642.062L2289.77,684.009L2290.18,684.009C2292.84,684.009 2295.6,683.146 2297.7,681.657C2299.79,680.167 2301,678.207 2301,676.311C2301,667.883 2301,654.597 2301,647.297Z" style="fill:rgb(255,237,102);"/>
        </g>
    </g>
</svg>
