<?xml version="1.0" encoding="UTF-8" standalone="no"?>
<!DOCTYPE svg PUBLIC "-//W3C//DTD SVG 1.1//EN" "http://www.w3.org/Graphics/SVG/1.1/DTD/svg11.dtd">
<svg width="100%" height="100%" viewBox="0 0 256 256" version="1.1" xmlns="http://www.w3.org/2000/svg" xmlns:xlink="http://www.w3.org/1999/xlink" xml:space="preserve" xmlns:serif="http://www.serif.com/" style="fill-rule:evenodd;clip-rule:evenodd;stroke-linejoin:round;stroke-miterlimit:2;">
    <g id="Orange" transform="matrix(1.77262,0,0,1.67736,-8055.86,-489.686)">
        <g transform="matrix(1,0,0,1,162.912,0)">
            <g transform="matrix(0.514232,0,0,0.655755,2078.75,-80.9834)">
                <path d="M4628.05,599.625C4628.05,595.405 4623.92,591.979 4618.83,591.979C4613.73,591.979 4609.6,595.405 4609.6,599.625L4609.6,665.875C4609.6,670.095 4613.73,673.521 4618.83,673.521C4623.92,673.521 4628.05,670.095 4628.05,665.875L4628.05,599.625Z" style="fill:rgb(164,98,78);"/>
            </g>
            <g transform="matrix(0.564136,0,0,0.596177,4381.69,295.002)">
                <path d="M127.854,20.479L127.854,110.167C127.903,110.168 127.951,110.168 128,110.168C132.642,110.168 136.41,106.4 136.41,101.758L136.41,28.888C136.41,24.246 132.642,20.478 128,20.478C127.951,20.478 127.903,20.478 127.854,20.479Z" style="fill:rgb(151,89,72);"/>
            </g>
        </g>
        <g transform="matrix(0.38979,0.411929,-0.438768,0.463689,3054.55,-1899.57)">
            <path d="M4699.78,571.059C4710.46,571.059 4720.07,608.962 4699.78,608.962C4679.49,608.962 4689.1,571.059 4699.78,571.059Z" style="fill:rgb(0,149,103);"/>
        </g>
        <g transform="matrix(0.597656,0,0,0.596177,4548.21,291.939)">
            <circle cx="114.777" cy="145.606" r="96.29" style="fill:rgb(255,165,48);"/>
        </g>
        <g transform="matrix(0.564136,0,0,0.596177,4544.6,291.939)">
            <path d="M183.868,65.046C211.65,82.256 230.012,111.923 230.012,145.606C230.012,198.75 184.302,241.896 128,241.896C90.199,241.896 57.172,222.447 39.553,193.586C55.605,203.53 74.803,209.317 95.421,209.317C151.722,209.317 197.432,166.17 197.432,113.026C197.432,95.563 192.497,79.179 183.868,65.046Z" style="fill:rgb(255,117,53);fill-opacity:0.58;"/>
        </g>
        <g transform="matrix(0.620512,0,0,0.655755,1421.69,-128.29)">
            <circle cx="5110.79" cy="724.996" r="16.447" style="fill:rgb(255,215,161);"/>
        </g>
        <g transform="matrix(0.20965,0,0,0.221558,3537.68,214.909)">
            <circle cx="5110.79" cy="724.996" r="16.447" style="fill:rgb(255,138,52);"/>
        </g>
        <g transform="matrix(0.20965,0,0,0.221558,3510.05,203.977)">
            <circle cx="5110.79" cy="724.996" r="16.447" style="fill:rgb(255,138,52);"/>
        </g>
        <g transform="matrix(0.20965,0,0,0.221558,3535.4,171.99)">
            <circle cx="5110.79" cy="724.996" r="16.447" style="fill:rgb(255,138,52);"/>
        </g>
        <g transform="matrix(0.20965,0,0,0.221558,3552.6,191.989)">
            <circle cx="5110.79" cy="724.996" r="16.447" style="fill:rgb(255,119,56);"/>
        </g>
        <g transform="matrix(0.20965,0,0,0.221558,3575.04,184.54)">
            <circle cx="5110.79" cy="724.996" r="16.447" style="fill:rgb(255,119,56);"/>
        </g>
        <g transform="matrix(0.20965,0,0,0.221558,3558.2,171.99)">
            <circle cx="5110.79" cy="724.996" r="16.447" style="fill:rgb(255,119,56);"/>
        </g>
        <g transform="matrix(0.20965,0,0,0.221558,3568.07,207.621)">
            <circle cx="5110.79" cy="724.996" r="16.447" style="fill:rgb(255,119,56);"/>
        </g>
    </g>
</svg>
