<?xml version="1.0" encoding="UTF-8" standalone="no"?>
<!DOCTYPE svg PUBLIC "-//W3C//DTD SVG 1.1//EN" "http://www.w3.org/Graphics/SVG/1.1/DTD/svg11.dtd">
<svg width="100%" height="100%" viewBox="0 0 256 256" version="1.1" xmlns="http://www.w3.org/2000/svg" xmlns:xlink="http://www.w3.org/1999/xlink" xml:space="preserve" xmlns:serif="http://www.serif.com/" style="fill-rule:evenodd;clip-rule:evenodd;stroke-linejoin:round;stroke-miterlimit:2;">
    <g id="Pear" transform="matrix(1.78868,0,0,1.69255,-8412.87,-505.573)">
        <g transform="matrix(0.991022,0,0,0.991022,361.04,2.86161)">
            <g transform="matrix(0.514232,0,0,0.655755,2078.75,-80.9834)">
                <path d="M4628.05,599.625C4628.05,595.405 4623.92,591.979 4618.83,591.979C4613.73,591.979 4609.6,595.405 4609.6,599.625L4609.6,665.875C4609.6,670.095 4613.73,673.521 4618.83,673.521C4623.92,673.521 4628.05,670.095 4628.05,665.875L4628.05,599.625Z" style="fill:rgb(164,98,78);"/>
            </g>
            <g transform="matrix(0.564136,0,0,0.596177,4381.69,295.002)">
                <path d="M127.854,20.479L127.854,110.167C127.903,110.168 127.951,110.168 128,110.168C132.642,110.168 136.41,106.4 136.41,101.758L136.41,28.888C136.41,24.246 132.642,20.478 128,20.478C127.951,20.478 127.903,20.478 127.854,20.479Z" style="fill:rgb(151,89,72);"/>
            </g>
        </g>
        <g transform="matrix(0.38979,0.411929,-0.438768,0.463689,3214,-1892.88)">
            <path d="M4699.78,571.059C4710.46,571.059 4720.07,608.962 4699.78,608.962C4679.49,608.962 4689.1,571.059 4699.78,571.059Z" style="fill:rgb(0,149,103);"/>
        </g>
        <g transform="matrix(0.620512,0,0,0.655755,1587.01,-93.7219)">
            <path d="M5098.09,694.004C5104.54,689.388 5108.36,681.946 5108.36,674.018C5108.38,674.017 5108.38,674.017 5108.38,674.017C5108.38,657.898 5121.47,644.811 5137.59,644.811C5153.71,644.811 5166.8,657.898 5166.8,674.017L5166.8,674.018C5166.8,681.953 5170.62,689.4 5177.07,694.02C5194.24,706.319 5205.43,726.439 5205.43,749.15C5205.43,786.591 5175.03,816.988 5137.59,816.988C5100.15,816.988 5069.75,786.591 5069.75,749.15C5069.75,726.439 5080.94,706.319 5098.09,694.004Z" style="fill:rgb(127,203,66);"/>
        </g>
        <g transform="matrix(0.559071,0,0,0.590824,4703.39,298.705)">
            <path d="M121.505,52.125C123.604,51.698 125.776,51.473 128,51.473C145.891,51.473 160.416,65.998 160.416,83.889L160.416,83.89C160.416,92.697 164.664,100.963 171.824,106.09C190.879,119.741 203.293,142.072 203.293,167.28C203.293,208.835 169.555,242.573 128,242.573C116.955,242.573 106.461,240.19 97.008,235.909C98.379,235.984 99.754,236.021 101.138,236.021C142.693,236.021 176.431,202.284 176.431,160.728C176.431,135.52 164.017,113.189 144.962,99.538C137.802,94.411 133.554,86.145 133.554,77.338L133.554,77.337C133.554,67.159 128.853,58.07 121.505,52.125Z" style="fill:rgb(103,167,46);"/>
        </g>
        <g transform="matrix(0.620512,0,0,0.655755,1587.01,-93.7219)">
            <circle cx="5110.79" cy="724.996" r="16.447" style="fill:rgb(170,245,171);"/>
        </g>
    </g>
</svg>
