<?xml version="1.0" encoding="UTF-8" standalone="no"?>
<!DOCTYPE svg PUBLIC "-//W3C//DTD SVG 1.1//EN" "http://www.w3.org/Graphics/SVG/1.1/DTD/svg11.dtd">
<svg width="100%" height="100%" viewBox="0 0 256 256" version="1.1" xmlns="http://www.w3.org/2000/svg" xmlns:xlink="http://www.w3.org/1999/xlink" xml:space="preserve" xmlns:serif="http://www.serif.com/" style="fill-rule:evenodd;clip-rule:evenodd;stroke-linecap:round;stroke-linejoin:round;stroke-miterlimit:1.5;">
    <g id="Penguin" transform="matrix(1.691,0,0,0.888073,-7725.83,-1919.74)">
        <g id="Cat--Gray-Tiger--Yellow" serif:id="Cat (Gray Tiger) Yellow" transform="matrix(0.905322,0,0,1.72384,272.094,1589.16)">
            <g>
                <g transform="matrix(1.06429,0,0,1.14853,4703.85,218.055)">
                    <path d="M118.212,110.053C160.16,110.053 194.216,133.15 194.216,173.055C194.216,212.961 160.16,236.058 118.212,236.058C76.264,236.058 42.207,212.961 42.207,173.055C42.207,133.15 76.264,110.053 118.212,110.053Z" style="fill:rgb(253,191,54);"/>
                </g>
                <g transform="matrix(1.06429,0,0,1.06429,4702.7,220.916)">
                    <g transform="matrix(0.661858,0,0,0.661858,32.2669,55.7478)">
                        <circle cx="86.998" cy="174.87" r="10.068" style="fill:rgb(48,56,62);"/>
                    </g>
                    <g transform="matrix(0.661858,0,0,0.661858,91.1449,55.7478)">
                        <circle cx="86.998" cy="174.87" r="10.068" style="fill:rgb(48,56,62);"/>
                    </g>
                </g>
                <g transform="matrix(0.617495,0,0,0.617495,4749.16,294.578)">
                    <g transform="matrix(1.47684,0,0,1.47684,-7122.17,-589.958)">
                        <path d="M4910.83,533.445L4910.83,540.098C4910.83,545.674 4906.31,550.201 4900.73,550.201C4896.8,550.201 4893.39,547.949 4891.72,544.664" style="fill:none;stroke:rgb(50,58,65);stroke-width:2.92px;"/>
                    </g>
                    <g transform="matrix(1.47684,0,0,1.47684,-7092.31,-589.958)">
                        <path d="M4909.74,544.664C4908.07,547.949 4904.66,550.201 4900.73,550.201C4895.15,550.201 4890.63,545.674 4890.63,540.098" style="fill:none;stroke:rgb(50,58,65);stroke-width:2.92px;"/>
                    </g>
                </g>
                <g transform="matrix(0.836707,0,0,0.707441,4756.87,287.361)">
                    <circle cx="86.998" cy="174.87" r="10.068" style="fill:rgb(127,59,47);"/>
                </g>
                <g transform="matrix(0.683148,0,0,0.683148,4729.26,320.629)">
                    <circle cx="90.633" cy="69.103" r="9.688" style="fill:rgb(248,249,250);"/>
                </g>
                <g transform="matrix(1.03957,0,0,1.03957,4705.14,235.747)">
                    <g transform="matrix(0.965926,0.258819,-0.207128,0.773012,109.079,34.1811)">
                        <circle cx="86.998" cy="174.87" r="10.068" style="fill:rgb(255,127,107);"/>
                    </g>
                    <g transform="matrix(0.965926,-0.258819,0.207128,0.773012,-37.5801,79.2144)">
                        <circle cx="86.998" cy="174.87" r="10.068" style="fill:rgb(255,127,107);"/>
                    </g>
                </g>
            </g>
        </g>
        <g transform="matrix(0.61274,0,0,1.17764,548.361,-353.185)">
            <ellipse cx="6684.94" cy="2257.91" rx="120.522" ry="116.239" style="fill:rgb(37,42,46);"/>
        </g>
        <g transform="matrix(0.531677,0,0,1.02184,1090.26,-1.40916)">
            <path d="M6684.94,2212.03C6727.3,2134.42 6805.47,2193.76 6805.47,2257.91C6805.47,2322.07 6751.46,2374.15 6684.94,2374.15C6618.43,2374.15 6564.42,2322.07 6564.42,2257.91C6564.42,2193.76 6644.4,2142.46 6684.94,2212.03Z" style="fill:white;"/>
        </g>
        <g transform="matrix(0.264183,-5.2548e-19,-0.00345533,0.602316,2798.72,1211.75)">
            <ellipse cx="6899.88" cy="1816.45" rx="131.924" ry="146.906" style="fill:white;"/>
        </g>
        <g transform="matrix(0.264183,-5.2548e-19,-0.00345533,0.602316,2857.16,1211.75)">
            <ellipse cx="6899.88" cy="1816.45" rx="131.924" ry="146.906" style="fill:white;"/>
        </g>
        <g transform="matrix(0.618469,0,0,1.17764,361.306,244.504)">
            <path d="M6913.49,1701.48C6916.67,1698.31 6920.98,1696.52 6925.47,1696.52C6929.96,1696.52 6934.26,1698.31 6937.44,1701.48C6940.73,1704.78 6944.3,1708.35 6947.6,1711.64C6950.77,1714.82 6952.56,1719.12 6952.56,1723.61C6952.56,1728.1 6950.77,1732.41 6947.6,1735.59C6944.3,1738.88 6940.73,1742.45 6937.44,1745.74C6934.26,1748.92 6929.96,1750.7 6925.47,1750.7C6920.98,1750.7 6916.67,1748.92 6913.49,1745.74C6910.2,1742.45 6906.63,1738.88 6903.33,1735.59C6900.16,1732.41 6898.38,1728.1 6898.38,1723.61C6898.38,1719.12 6900.16,1714.82 6903.33,1711.64C6906.63,1708.35 6910.2,1704.78 6913.49,1701.48Z" style="fill:rgb(245,159,0);"/>
        </g>
        <g transform="matrix(0.588441,0,0,0.588441,1787.86,1291.44)">
            <g transform="matrix(0.618469,0,0,1.17764,570.01,-381.529)">
                <circle cx="6867.76" cy="1705.09" r="15.045" style="fill:rgb(33,37,41);"/>
            </g>
            <g transform="matrix(0.618469,0,0,1.17764,644.153,-381.529)">
                <circle cx="6867.76" cy="1705.09" r="15.045" style="fill:rgb(33,37,41);"/>
            </g>
        </g>
    </g>
</svg>
