<?xml version="1.0" encoding="UTF-8" standalone="no"?>
<!DOCTYPE svg PUBLIC "-//W3C//DTD SVG 1.1//EN" "http://www.w3.org/Graphics/SVG/1.1/DTD/svg11.dtd">
<svg width="100%" height="100%" viewBox="0 0 256 256" version="1.1" xmlns="http://www.w3.org/2000/svg" xmlns:xlink="http://www.w3.org/1999/xlink" xml:space="preserve" xmlns:serif="http://www.serif.com/" style="fill-rule:evenodd;clip-rule:evenodd;stroke-linejoin:round;stroke-miterlimit:2;">
    <g id="Photo-Camera" serif:id="Photo Camera" transform="matrix(1.29188,0,0,1.29188,-35.0998,-39.4113)">
        <path d="M221.501,104.347C221.501,84.386 205.295,68.181 185.334,68.181L67.166,68.181C47.205,68.181 30.999,84.386 30.999,104.347L30.999,176.681C30.999,196.642 47.205,212.847 67.166,212.847L185.334,212.847C205.295,212.847 221.501,196.642 221.501,176.681L221.501,104.347Z" style="fill:rgb(0,187,210);"/>
        <g transform="matrix(0.774065,0,0,0.774065,27.1695,30.5069)">
            <path d="M127.691,48.67L127.691,235.562L204.33,235.562C230.117,235.562 251.053,214.626 251.053,188.839L251.053,95.393C251.053,69.606 230.117,48.67 204.33,48.67L127.691,48.67Z" style="fill:rgb(0,155,176);"/>
        </g>
        <g transform="matrix(1.09051,0,0,0.979811,-13.5328,10.9278)">
            <path d="M181.97,69.476L77.603,69.476C77.603,69.476 89.93,53.721 97.638,43.87C101.486,38.952 107.058,36.129 112.918,36.129L146.655,36.129C152.515,36.129 158.087,38.952 161.935,43.87C169.643,53.721 181.97,69.476 181.97,69.476Z" style="fill:rgb(0,187,210);"/>
        </g>
        <g transform="matrix(0.774065,0,0,0.774065,27.1695,30.5069)">
            <path d="M127.691,20.438L154.026,20.438C162.28,20.438 170.131,24.011 175.552,30.236C186.411,42.707 203.777,62.649 203.777,62.649L127.691,62.649L127.691,20.438Z" style="fill:rgb(0,155,176);"/>
        </g>
        <g transform="matrix(1,0,0,1,-0.326791,9.39642)">
            <g transform="matrix(1,0,0,1,-2.76115,0)">
                <circle cx="129.338" cy="131.118" r="52.624" style="fill:rgb(56,62,69);"/>
            </g>
            <g transform="matrix(0.774065,0,0,0.774065,27.4963,21.1105)">
                <path d="M127.691,74.134L128,74.133C165.521,74.133 195.983,104.595 195.983,142.116C195.983,179.637 165.521,210.099 128,210.099L127.691,210.099L127.691,74.134Z" style="fill:rgb(43,49,55);"/>
            </g>
            <g transform="matrix(0.769418,0,0,0.769418,27.0619,30.2334)">
                <circle cx="129.338" cy="131.118" r="52.624" style="fill:rgb(89,98,106);"/>
            </g>
            <g transform="matrix(0.774065,0,0,0.774065,27.4963,21.1105)">
                <path d="M127.691,89.809L128,89.808C156.869,89.808 180.308,113.247 180.308,142.116C180.308,170.985 156.869,194.424 128,194.424L127.691,194.423L127.691,89.809Z" style="fill:rgb(70,78,86);"/>
            </g>
        </g>
        <g transform="matrix(0.839098,0,0,0.839098,19.4371,17.8588)">
            <circle cx="106.476" cy="128.519" r="9.514" style="fill:rgb(248,249,250);"/>
        </g>
        <g transform="matrix(0.899864,0,0,0.899864,8.90359,14.2094)">
            <circle cx="56.875" cy="89.171" r="7.945" style="fill:rgb(255,93,101);"/>
        </g>
    </g>
</svg>
