<?xml version="1.0" encoding="UTF-8" standalone="no"?>
<!DOCTYPE svg PUBLIC "-//W3C//DTD SVG 1.1//EN" "http://www.w3.org/Graphics/SVG/1.1/DTD/svg11.dtd">
<svg width="100%" height="100%" viewBox="0 0 256 256" version="1.1" xmlns="http://www.w3.org/2000/svg" xmlns:xlink="http://www.w3.org/1999/xlink" xml:space="preserve" xmlns:serif="http://www.serif.com/" style="fill-rule:evenodd;clip-rule:evenodd;stroke-linejoin:round;stroke-miterlimit:2;">
    <g id="Pig" transform="matrix(1.46381,0,0,1.46381,-6941.71,-470.157)">
        <g transform="matrix(1.58053,0,0,1.58053,-2803.55,-207.398)">
            <g transform="matrix(0.404015,-0.233258,0.233258,0.404015,4249.14,295.751)">
                <g transform="matrix(1,0,0,1,-546.23,-81.3293)">
                    <path d="M1495.46,735.055C1517.23,735.055 1534.9,763.521 1534.9,785.29C1534.9,807.059 1517.23,824.733 1495.46,824.733C1473.69,824.733 1456.02,807.059 1456.02,785.29C1456.02,763.521 1473.69,735.055 1495.46,735.055Z" style="fill:rgb(255,201,204);"/>
                </g>
                <g transform="matrix(0.431409,0,0,0.431409,304.074,365.179)">
                    <path d="M1495.46,723.867C1517.23,723.867 1534.9,763.521 1534.9,785.29C1534.9,807.059 1517.23,824.733 1495.46,824.733C1473.69,824.733 1456.02,807.059 1456.02,785.29C1456.02,763.521 1473.69,723.867 1495.46,723.867Z" style="fill:rgb(255,107,137);"/>
                </g>
            </g>
            <g transform="matrix(-0.404015,-0.233258,-0.233258,0.404015,5649.56,390.305)">
                <path d="M1495.46,735.055C1517.23,735.055 1534.9,763.521 1534.9,785.29C1534.9,807.059 1517.23,824.733 1495.46,824.733C1473.69,824.733 1456.02,807.059 1456.02,785.29C1456.02,763.521 1473.69,735.055 1495.46,735.055Z" style="fill:rgb(255,201,204);"/>
            </g>
            <g transform="matrix(-0.174296,-0.10063,-0.10063,0.174296,5201.87,372.361)">
                <path d="M1495.46,723.867C1517.23,723.867 1534.9,763.521 1534.9,785.29C1534.9,807.059 1517.23,824.733 1495.46,824.733C1473.69,824.733 1456.02,807.059 1456.02,785.29C1456.02,763.521 1473.69,723.867 1495.46,723.867Z" style="fill:rgb(255,107,137);"/>
            </g>
        </g>
        <g transform="matrix(1.06429,0,0,1.11877,4703.85,229.579)">
            <path d="M118.212,110.053C160.16,110.053 194.216,133.15 194.216,173.055C194.216,212.961 160.16,236.058 118.212,236.058C76.264,236.058 42.207,212.961 42.207,173.055C42.207,133.15 76.264,110.053 118.212,110.053Z" style="fill:rgb(255,201,204);"/>
        </g>
        <g transform="matrix(1.06429,0,0,1.06429,4700.35,203.91)">
            <g transform="matrix(0.965926,0.258819,-0.215841,0.805529,121.108,27.278)">
                <circle cx="86.998" cy="174.87" r="10.068" style="fill:rgb(255,149,142);fill-opacity:0.6;"/>
            </g>
            <g transform="matrix(0.965926,-0.258819,0.215841,0.805529,-46.1806,72.3113)">
                <circle cx="86.998" cy="174.87" r="10.068" style="fill:rgb(255,149,142);fill-opacity:0.6;"/>
            </g>
        </g>
        <g transform="matrix(0.757601,0,0,0.511171,4733.95,355.655)">
            <path d="M194.2,176.649C194.2,143.446 176.012,116.49 153.609,116.49L99.068,116.49C76.665,116.49 58.477,143.446 58.477,176.649C58.477,209.851 76.665,236.807 99.068,236.807L153.609,236.807C176.012,236.807 194.2,209.851 194.2,176.649Z" style="fill:rgb(255,126,133);"/>
        </g>
        <g transform="matrix(0.607095,0,0,0.683148,4741.87,321.847)">
            <ellipse cx="105.804" cy="178.926" rx="13.481" ry="14.147" style="fill:rgb(189,62,67);"/>
        </g>
        <g transform="matrix(0.607095,0,0,0.683148,4789.7,321.847)">
            <ellipse cx="105.804" cy="178.926" rx="13.481" ry="14.147" style="fill:rgb(189,62,67);"/>
        </g>
        <g transform="matrix(0.683148,0,0,0.683148,4742.22,321.847)">
            <circle cx="90.633" cy="69.103" r="9.688" style="fill:white;"/>
        </g>
        <g transform="matrix(1.06429,0,0,1.06429,4698.24,211.346)">
            <g transform="matrix(0.661858,0,0,0.661858,50.336,55.7478)">
                <circle cx="86.998" cy="174.87" r="10.068" style="fill:rgb(50,58,65);"/>
            </g>
            <g transform="matrix(0.661858,0,0,0.661858,81.4674,55.7478)">
                <circle cx="86.998" cy="174.87" r="10.068" style="fill:rgb(50,58,65);"/>
            </g>
        </g>
    </g>
</svg>
