<?xml version="1.0" encoding="UTF-8" standalone="no"?>
<!DOCTYPE svg PUBLIC "-//W3C//DTD SVG 1.1//EN" "http://www.w3.org/Graphics/SVG/1.1/DTD/svg11.dtd">
<svg width="100%" height="100%" viewBox="0 0 256 256" version="1.1" xmlns="http://www.w3.org/2000/svg" xmlns:xlink="http://www.w3.org/1999/xlink" xml:space="preserve" xmlns:serif="http://www.serif.com/" style="fill-rule:evenodd;clip-rule:evenodd;stroke-linejoin:round;stroke-miterlimit:2;">
    <g id="Pin" transform="matrix(4.23499,2.44507,-2.4566,4.25495,-49435.2,-34186.4)">
        <g transform="matrix(1.01718,0,0,1.49824,-140.147,-486.804)">
            <rect x="12204.6" y="983.776" width="22.586" height="18.225" style="fill:rgb(85,194,255);"/>
        </g>
        <g transform="matrix(0.508592,0,0,1.49824,6078.49,-486.804)">
            <rect x="12204.6" y="983.776" width="22.586" height="18.225" style="fill:rgb(0,172,254);"/>
        </g>
        <g transform="matrix(1.01718,6.70004e-17,-6.73162e-17,-0.465312,-138.322,1494.47)">
            <path d="M12214.1,997.324L12219.1,1031.63L12209,1031.63L12214.1,997.324Z" style="fill:rgb(205,212,219);"/>
        </g>
        <g transform="matrix(1.01718,6.70004e-17,-6.73162e-17,-0.465312,-138.322,1494.47)">
            <path d="M12214.1,997.324L12219.1,1031.63L12214.1,1031.63L12214.1,997.324Z" style="fill:rgb(171,181,190);"/>
        </g>
        <g transform="matrix(1.17315,0,0,0.574636,-2044.81,449.123)">
            <path d="M12229.8,983.776C12229.8,981.195 12228.7,979.099 12227.5,979.099L12203.2,979.099C12202,979.099 12200.9,981.195 12200.9,983.776C12200.9,986.357 12202,988.452 12203.2,988.452L12227.5,988.452C12228.7,988.452 12229.8,986.357 12229.8,983.776Z" style="fill:rgb(0,172,254);"/>
        </g>
        <g transform="matrix(1.01718,0,0,0.574636,-139.636,421.818)">
            <path d="M12229.8,983.776C12229.8,981.195 12228.6,979.099 12227.1,979.099L12203.6,979.099C12202.1,979.099 12200.9,981.195 12200.9,983.776C12200.9,986.357 12202.1,988.452 12203.6,988.452L12227.1,988.452C12228.6,988.452 12229.8,986.357 12229.8,983.776Z" style="fill:rgb(0,172,254);"/>
        </g>
        <g transform="matrix(0.508592,0,0,0.574636,6080.33,421.818)">
            <path d="M12229.8,983.776C12229.8,981.195 12227.4,979.099 12224.5,979.099L12200.9,979.099L12200.9,988.452L12224.5,988.452C12227.4,988.452 12229.8,986.357 12229.8,983.776Z" style="fill:rgb(0,155,247);"/>
        </g>
        <g transform="matrix(0.586575,0,0,0.574636,5128.87,449.123)">
            <path d="M12229.8,983.776C12229.8,981.195 12227.7,979.099 12225.2,979.099L12200.9,979.099L12200.9,988.452L12225.2,988.452C12227.7,988.452 12229.8,986.357 12229.8,983.776Z" style="fill:rgb(0,155,247);"/>
        </g>
    </g>
</svg>
