<?xml version="1.0" encoding="UTF-8" standalone="no"?>
<!DOCTYPE svg PUBLIC "-//W3C//DTD SVG 1.1//EN" "http://www.w3.org/Graphics/SVG/1.1/DTD/svg11.dtd">
<svg width="100%" height="100%" viewBox="0 0 256 256" version="1.1" xmlns="http://www.w3.org/2000/svg" xmlns:xlink="http://www.w3.org/1999/xlink" xml:space="preserve" xmlns:serif="http://www.serif.com/" style="fill-rule:evenodd;clip-rule:evenodd;stroke-linejoin:round;stroke-miterlimit:2;">
    <g id="Play" transform="matrix(0.306426,0,0,0.306426,24.1166,24.1474)">
        <g transform="matrix(22.6937,0,0,22.6937,-7549.52,-3258.8)">
            <path d="M362.512,151.082C362.512,146.969 359.173,143.63 355.061,143.63L340.157,143.63C336.044,143.63 332.705,146.969 332.705,151.082L332.705,165.985C332.705,170.098 336.044,173.437 340.157,173.437L355.061,173.437C359.173,173.437 362.512,170.098 362.512,165.985L362.512,151.082Z" style="fill:rgb(250,82,82);"/>
        </g>
        <g transform="matrix(1.81933e-15,29.712,-23.7954,1.45705e-15,4140.4,-17018)">
            <path d="M582.996,153.028C583.259,152.504 583.719,152.185 584.214,152.185C584.71,152.185 585.17,152.504 585.433,153.028C586.574,155.311 588.277,158.718 589.466,161.095C589.742,161.648 589.757,162.344 589.503,162.914C589.25,163.484 588.77,163.837 588.248,163.837L580.181,163.837C579.659,163.837 579.179,163.484 578.925,162.914C578.672,162.344 578.687,161.648 578.963,161.095C580.152,158.718 581.855,155.311 582.996,153.028Z" style="fill:white;"/>
        </g>
    </g>
</svg>
