<?xml version="1.0" encoding="UTF-8" standalone="no"?>
<!DOCTYPE svg PUBLIC "-//W3C//DTD SVG 1.1//EN" "http://www.w3.org/Graphics/SVG/1.1/DTD/svg11.dtd">
<svg width="100%" height="100%" viewBox="0 0 256 256" version="1.1" xmlns="http://www.w3.org/2000/svg" xmlns:xlink="http://www.w3.org/1999/xlink" xml:space="preserve" xmlns:serif="http://www.serif.com/" style="fill-rule:evenodd;clip-rule:evenodd;stroke-linejoin:round;stroke-miterlimit:2;">
    <g id="Poop" transform="matrix(2.6247,0,1.72844e-16,2.11484,-15826.9,-3729.33)">
        <g>
            <g transform="matrix(0.774806,0,0,0.932114,-312.352,-1037.35)">
                <path d="M8308.78,3102.96C8308.78,3091.12 8299.46,3081.5 8287.98,3081.5L8209.36,3081.5C8197.88,3081.5 8188.57,3091.12 8188.57,3102.96C8188.57,3114.8 8197.88,3124.41 8209.36,3124.41L8287.98,3124.41C8299.46,3124.41 8308.78,3114.8 8308.78,3102.96Z" style="fill:rgb(152,82,70);"/>
            </g>
            <g transform="matrix(0.589561,0,0,0.932114,1215.67,-1066.59)">
                <path d="M8308.78,3102.96C8308.78,3091.12 8296.53,3081.5 8281.45,3081.5L8215.9,3081.5C8200.81,3081.5 8188.57,3091.12 8188.57,3102.96C8188.57,3114.8 8200.81,3124.41 8215.9,3124.41L8281.45,3124.41C8296.53,3124.41 8308.78,3114.8 8308.78,3102.96Z" style="fill:rgb(152,82,70);"/>
            </g>
            <g transform="matrix(0.398617,0,0,0.932114,2790.7,-1086.59)">
                <path d="M8308.78,3102.96C8308.78,3091.12 8290.67,3081.5 8268.36,3081.5L8228.99,3081.5C8206.68,3081.5 8188.57,3091.12 8188.57,3102.96C8188.57,3114.8 8206.68,3124.41 8228.99,3124.41L8268.36,3124.41C8290.67,3124.41 8308.78,3114.8 8308.78,3102.96Z" style="fill:rgb(152,82,70);"/>
            </g>
            <g transform="matrix(0.25518,-0.182846,0.130868,0.281318,3564.56,2422.7)">
                <path d="M8308.78,3102.96C8308.78,3091.12 8300.24,3081.5 8289.72,3081.5L8207.62,3081.5C8197.1,3081.5 8188.57,3091.12 8188.57,3102.96C8188.57,3114.8 8197.1,3124.41 8207.62,3124.41L8289.72,3124.41C8300.24,3124.41 8308.78,3114.8 8308.78,3102.96Z" style="fill:rgb(152,82,70);"/>
            </g>
            <g transform="matrix(0.521895,1.24256e-17,0,0.932114,1758.62,-1037.35)">
                <path d="M8308.78,3102.96C8308.78,3091.12 8294.95,3081.5 8277.91,3081.5L8219.44,3081.5C8202.4,3081.5 8188.57,3091.12 8188.57,3102.96C8188.57,3114.8 8202.4,3124.41 8219.44,3124.41L8277.91,3124.41C8294.95,3124.41 8308.78,3114.8 8308.78,3102.96Z" style="fill:rgb(168,92,77);"/>
            </g>
            <g transform="matrix(0.385474,1.00269e-17,0,0.932114,2886.85,-1066.59)">
                <path d="M8308.78,3102.96C8308.78,3091.12 8290.05,3081.5 8266.98,3081.5L8230.37,3081.5C8207.3,3081.5 8188.57,3091.12 8188.57,3102.96C8188.57,3114.8 8207.3,3124.41 8230.37,3124.41L8266.98,3124.41C8290.05,3124.41 8308.78,3114.8 8308.78,3102.96Z" style="fill:rgb(168,92,77);"/>
            </g>
            <g transform="matrix(0.289748,7.08746e-18,6.37148e-18,0.932114,3682.18,-1086.59)">
                <path d="M8308.78,3102.96C8308.78,3091.12 8283.86,3081.5 8253.17,3081.5L8244.18,3081.5C8213.48,3081.5 8188.57,3091.12 8188.57,3102.96C8188.57,3114.8 8213.48,3124.41 8244.18,3124.41L8253.17,3124.41C8283.86,3124.41 8308.78,3114.8 8308.78,3102.96Z" style="fill:rgb(168,92,77);"/>
            </g>
        </g>
        <g transform="matrix(1.77011,-8.69663e-17,0,1.77011,-4689.53,-1494.25)">
            <g transform="matrix(0.642362,0,0,0.97558,775.375,-1173.41)">
                <ellipse cx="8241.39" cy="3141.01" rx="7.921" ry="5.123" style="fill:rgb(240,101,149);fill-opacity:0.51;"/>
            </g>
            <g transform="matrix(0.642362,0,0,0.97558,803.524,-1173.41)">
                <ellipse cx="8241.39" cy="3141.01" rx="7.921" ry="5.123" style="fill:rgb(240,101,149);fill-opacity:0.51;"/>
            </g>
        </g>
        <g transform="matrix(1.39433,-6.85038e-17,0,0.865238,-5434.03,-864.883)">
            <ellipse cx="8256.89" cy="3138.95" rx="1.64" ry="2.059" style="fill:rgb(80,40,32);"/>
        </g>
        <g transform="matrix(1,-1.2326e-32,0,1,-0.0289822,1.78616e-34)">
            <g>
                <g transform="matrix(0.787706,0,0,0.97761,-418.761,-1179.79)">
                    <circle cx="8233.81" cy="3080.66" r="12.36" style="fill:white;"/>
                </g>
                <g transform="matrix(0.787706,0,0,0.97761,-419.626,-1179.81)">
                    <circle cx="8234.91" cy="3080.68" r="4.361" style="fill:rgb(52,58,64);"/>
                </g>
            </g>
            <g transform="matrix(1,0,0,1,23.4747,4.54747e-13)">
                <g transform="matrix(0.787706,0,0,0.97761,-418.761,-1179.79)">
                    <circle cx="8233.81" cy="3080.66" r="12.36" style="fill:white;"/>
                </g>
                <g transform="matrix(0.787706,0,0,0.97761,-419.626,-1179.81)">
                    <circle cx="8234.91" cy="3080.68" r="4.361" style="fill:rgb(52,58,64);"/>
                </g>
            </g>
        </g>
    </g>
</svg>
