<?xml version="1.0" encoding="UTF-8" standalone="no"?>
<!DOCTYPE svg PUBLIC "-//W3C//DTD SVG 1.1//EN" "http://www.w3.org/Graphics/SVG/1.1/DTD/svg11.dtd">
<svg width="100%" height="100%" viewBox="0 0 256 256" version="1.1" xmlns="http://www.w3.org/2000/svg" xmlns:xlink="http://www.w3.org/1999/xlink" xml:space="preserve" xmlns:serif="http://www.serif.com/" style="fill-rule:evenodd;clip-rule:evenodd;stroke-linejoin:round;stroke-miterlimit:2;">
    <g id="Popsicle---Choco" serif:id="Popsicle - Choco" transform="matrix(0.72488,2.77556e-17,-5.1873e-17,1.18294,-3873.43,-1043.17)">
        <g transform="matrix(0.678769,0,0,0.655755,1784.62,-108.26)">
            <path d="M5551.82,1666.18C5551.82,1649.22 5530.11,1635.44 5503.36,1635.44C5476.61,1635.44 5454.9,1649.22 5454.9,1666.18L5454.9,1804.87C5454.9,1821.83 5476.61,1835.6 5503.36,1835.6C5530.11,1835.6 5551.82,1821.83 5551.82,1804.87L5551.82,1666.18Z" style="fill:rgb(235,167,110);"/>
            <clipPath id="_clip1">
                <path d="M5551.82,1666.18C5551.82,1649.22 5530.11,1635.44 5503.36,1635.44C5476.61,1635.44 5454.9,1649.22 5454.9,1666.18L5454.9,1804.87C5454.9,1821.83 5476.61,1835.6 5503.36,1835.6C5530.11,1835.6 5551.82,1821.83 5551.82,1804.87L5551.82,1666.18Z"/>
            </clipPath>
            <g clip-path="url(#_clip1)">
                <g transform="matrix(0.64618,-1.05651e-17,-1.70165e-17,0.119477,1895.05,1582.87)">
                    <rect x="5509.46" y="1453.15" width="150.231" height="286.011" style="fill:rgb(220,151,96);"/>
                </g>
            </g>
        </g>
        <g transform="matrix(0.936915,0,0,0.391117,358.231,373.697)">
            <path d="M5620.61,1561.28C5620.61,1523.04 5599.45,1491.99 5573.4,1491.99L5445.52,1491.99C5419.47,1491.99 5398.31,1523.04 5398.31,1561.28L5398.31,1678.78C5398.31,1717.03 5419.47,1748.08 5445.52,1748.08L5573.4,1748.08C5599.45,1748.08 5620.61,1717.03 5620.61,1678.78L5620.61,1561.28Z" style="fill:white;"/>
        </g>
        <g transform="matrix(1.37954,-3.23684e-17,6.0494e-17,0.845351,5343.55,881.847)">
            <path d="M129.008,89.183L171.423,89.183C189.118,89.183 203.484,103.549 203.484,121.244L203.484,175.609C203.484,193.304 189.118,207.67 171.423,207.67L84.577,207.67C84.577,207.67 129.008,207.67 129.008,207.67C146.703,207.67 161.069,193.304 161.069,175.609L161.069,121.244C161.069,103.549 146.703,89.183 129.008,89.183Z" style="fill:rgb(254,242,229);"/>
        </g>
        <g transform="matrix(1,0,0,0.56684,10.6694,38.9387)">
            <path d="M5620.61,1612.14C5620.61,1545.83 5570.8,1491.99 5509.46,1491.99C5448.12,1491.99 5398.31,1545.83 5398.31,1612.14L5398.31,1737.57C5398.31,1743.37 5402.67,1748.08 5408.04,1748.08L5609.24,1748.08C5615.51,1748.08 5620.61,1742.57 5620.61,1735.79L5620.61,1612.14Z" style="fill:rgb(181,87,72);"/>
        </g>
        <g transform="matrix(1.37954,-3.23684e-17,6.0494e-17,0.845351,5343.55,881.847)">
            <path d="M104.283,6.877C111.782,4.567 119.747,3.323 128,3.323C172.466,3.323 208.567,39.424 208.567,83.89L208.567,166.804C208.567,171.352 204.875,175.044 200.328,175.044L152.894,175.044C157.442,175.044 161.134,171.352 161.134,166.804L161.134,83.89C161.134,47.677 137.19,17.012 104.283,6.877Z" style="fill:rgb(169,80,68);"/>
        </g>
        <g transform="matrix(1.33843,0,0,0.87768,-1369.62,288.34)">
            <circle cx="5110.79" cy="724.996" r="16.447" style="fill:rgb(233,134,102);"/>
        </g>
    </g>
</svg>
