<?xml version="1.0" encoding="UTF-8" standalone="no"?>
<!DOCTYPE svg PUBLIC "-//W3C//DTD SVG 1.1//EN" "http://www.w3.org/Graphics/SVG/1.1/DTD/svg11.dtd">
<svg width="100%" height="100%" viewBox="0 0 256 256" version="1.1" xmlns="http://www.w3.org/2000/svg" xmlns:xlink="http://www.w3.org/1999/xlink" xml:space="preserve" xmlns:serif="http://www.serif.com/" style="fill-rule:evenodd;clip-rule:evenodd;stroke-linecap:round;stroke-linejoin:round;stroke-miterlimit:1.5;">
    <g id="Potion-Round---Pink" serif:id="Potion Round - Pink" transform="matrix(2.17881,2.17881,-3.32259,3.32259,-10176.4,-14265.2)">
        <g transform="matrix(1.01732,0,0,0.667113,-221.296,-107.84)">
            <circle cx="5789.19" cy="1093.91" r="29.086" style="fill:rgb(223,249,255);"/>
        </g>
        <g transform="matrix(0.851022,0,0,0.558062,741.439,11.4525)">
            <circle cx="5789.19" cy="1093.91" r="29.086" style="fill:rgb(149,217,255);"/>
        </g>
        <g transform="matrix(0.601763,-0.394609,0.601763,0.394609,1526.16,2474.73)">
            <path d="M5818.28,1093.91C5818.28,1109.97 5805.25,1123 5789.19,1123C5773.14,1123 5760.11,1109.97 5760.11,1093.91L5818.28,1093.91Z" style="fill:rgb(250,0,151);"/>
        </g>
        <g transform="matrix(1.18134,-0.774668,0.934146,0.612571,-2157.21,4459.61)">
            <ellipse cx="5789.08" cy="1056.08" rx="14.768" ry="7.595" style="fill:rgb(255,118,194);"/>
        </g>
        <g transform="matrix(0.485719,-0.318513,0.485719,0.318513,2357.87,2073.19)">
            <circle cx="5672.77" cy="1113.77" r="6.912" style="fill:white;"/>
        </g>
        <g transform="matrix(1.22613,0,0,0.6358,-1430.89,-65.3471)">
            <ellipse cx="5789.08" cy="1056.08" rx="14.768" ry="7.595" style="fill:rgb(195,125,63);"/>
        </g>
        <g transform="matrix(0.707107,-0.463689,1.07831,0.707107,971.623,2833.69)">
            <g transform="matrix(0.965926,-0.169722,0.258819,0.633411,-49.2009,866.912)">
                <path d="M5690.99,1114.73C5690.99,1113.07 5689.63,1111.71 5687.97,1111.71C5686.3,1111.71 5684.94,1113.07 5684.94,1114.73L5684.94,1125.39C5684.94,1127.06 5686.3,1128.41 5687.97,1128.41C5689.63,1128.41 5690.99,1127.06 5690.99,1125.39L5690.99,1114.73Z" style="fill:rgb(195,125,63);"/>
            </g>
            <g transform="matrix(0.965926,0.169722,-0.258819,0.633411,523.98,-1063.83)">
                <path d="M5690.99,1114.73C5690.99,1113.07 5689.63,1111.71 5687.97,1111.71C5686.3,1111.71 5684.94,1113.07 5684.94,1114.73L5684.94,1125.39C5684.94,1127.06 5686.3,1128.41 5687.97,1128.41C5689.63,1128.41 5690.99,1127.06 5690.99,1125.39L5690.99,1114.73Z" style="fill:rgb(195,125,63);"/>
            </g>
        </g>
        <g transform="matrix(1,0,0,0.518541,-121.789,56.0268)">
            <ellipse cx="5789.08" cy="1056.08" rx="14.768" ry="7.595" style="fill:rgb(223,249,255);"/>
        </g>
        <g transform="matrix(1,-2.66673e-17,-1.84989e-16,0.855782,-121.789,-306.441)">
            <rect x="5774.31" y="1054.84" width="29.536" height="8.616" style="fill:rgb(223,249,255);"/>
        </g>
        <g transform="matrix(1,0,1.47911e-31,0.518541,-121.789,50.8102)">
            <path d="M5786.73,1063.58C5783.63,1063.32 5780.85,1062.57 5778.71,1061.48" style="fill:none;stroke:white;stroke-width:3.7px;"/>
        </g>
        <g transform="matrix(1,0,5.11321e-32,0.518541,-121.789,48.6533)">
            <ellipse cx="5789.08" cy="1056.08" rx="14.768" ry="7.595" style="fill:rgb(149,217,255);"/>
        </g>
        <g transform="matrix(0.746976,0,3.81944e-32,0.387337,1342.99,185.954)">
            <ellipse cx="5789.08" cy="1056.08" rx="14.768" ry="7.595" style="fill:rgb(184,104,65);"/>
        </g>
        <g transform="matrix(0.746976,1.57949e-17,7.18976e-32,0.729128,1342.99,-180.384)">
            <rect x="5774.31" y="1054.84" width="29.536" height="8.616" style="fill:rgb(184,104,65);"/>
        </g>
        <g transform="matrix(0.746976,1.38108e-32,3.81944e-32,0.387337,1342.99,179.671)">
            <ellipse cx="5789.08" cy="1056.08" rx="14.768" ry="7.595" style="fill:rgb(200,136,77);"/>
        </g>
        <g transform="matrix(1.31821,7.31751e-17,-5.75819e-16,0.86442,-1825.95,-344.387)">
            <ellipse cx="5684.03" cy="1082.75" rx="2.973" ry="1.961" style="fill:rgb(184,104,65);"/>
        </g>
    </g>
</svg>
