<?xml version="1.0" encoding="UTF-8" standalone="no"?>
<!DOCTYPE svg PUBLIC "-//W3C//DTD SVG 1.1//EN" "http://www.w3.org/Graphics/SVG/1.1/DTD/svg11.dtd">
<svg width="100%" height="100%" viewBox="0 0 256 256" version="1.1" xmlns="http://www.w3.org/2000/svg" xmlns:xlink="http://www.w3.org/1999/xlink" xml:space="preserve" xmlns:serif="http://www.serif.com/" style="fill-rule:evenodd;clip-rule:evenodd;stroke-linecap:round;stroke-linejoin:round;stroke-miterlimit:1.5;">
    <g id="Potion---Purple" serif:id="Potion - Purple" transform="matrix(2.82533,0,0,4.30851,-17151.5,-2637.67)">
        <g transform="matrix(1,0,0,0.655755,10.6694,-93.7219)">
            <path d="M6080.06,1144.15C6080.05,1144.04 6080.05,1143.93 6080.05,1143.83L6080.05,1127.22C6080.05,1119.65 6086.2,1113.5 6093.77,1113.5L6116.74,1113.5C6124.31,1113.5 6130.45,1119.65 6130.45,1127.22L6130.45,1132.49L6130.46,1132.49L6130.46,1149.98C6130.47,1150.1 6130.47,1150.22 6130.47,1150.34C6130.47,1156 6119.17,1160.59 6105.25,1160.59C6091.33,1160.59 6080.03,1156 6080.03,1150.34C6080.03,1150.19 6080.04,1150.04 6080.06,1149.89L6080.06,1144.15Z" style="fill:rgb(149,217,255);"/>
        </g>
        <g transform="matrix(1,0,0,0.655755,10.6694,-93.7219)">
            <path d="M6075.1,1150.34C6075.1,1150.13 6075.12,1127.22 6075.12,1127.22C6075.12,1116.93 6083.47,1108.57 6093.77,1108.57C6093.77,1108.57 6116.74,1108.57 6116.74,1108.57C6127.03,1108.57 6135.39,1116.93 6135.39,1127.22C6135.39,1127.22 6135.4,1150.17 6135.4,1150.34C6135.4,1153.37 6133.91,1156.41 6130.7,1158.93C6125.92,1162.68 6116.35,1165.53 6105.25,1165.53C6094.15,1165.53 6084.59,1162.68 6079.81,1158.93C6076.59,1156.41 6075.1,1153.37 6075.1,1150.34Z" style="fill:rgb(223,249,255);"/>
        </g>
        <g transform="matrix(1,0,0,1,-94.5074,-4.53943)">
            <g transform="matrix(0.794299,0,0,0.566281,1360.59,10.6917)">
                <path d="M6137.54,1128.95C6137.54,1120.19 6129.81,1113.07 6120.28,1113.07L6091.35,1113.07C6081.82,1113.07 6074.09,1120.19 6074.09,1128.95L6074.09,1148.19C6074.09,1156.95 6081.82,1164.07 6091.35,1164.07L6120.28,1164.07C6129.81,1164.07 6137.54,1156.95 6137.54,1148.19L6137.54,1128.95Z" style="fill:rgb(149,217,255);"/>
            </g>
            <g transform="matrix(1,0,0,0.655755,105.177,-89.1825)">
                <path d="M6130.46,1132.49C6130.46,1132.49 6130.47,1150.22 6130.47,1150.34C6130.47,1156 6119.17,1160.59 6105.25,1160.59C6091.33,1160.59 6080.03,1156 6080.03,1150.34C6080.03,1150.19 6080.06,1132.49 6080.06,1132.49L6130.46,1132.49Z" style="fill:rgb(172,71,244);"/>
            </g>
            <g transform="matrix(1.70637,-2.2679e-16,-7.93766e-16,0.884822,-3667.87,-280.99)">
                <ellipse cx="5789.08" cy="1056.08" rx="14.768" ry="7.595" style="fill:rgb(230,119,245);"/>
            </g>
            <g transform="matrix(0.485719,-0.318513,0.485719,0.318513,2899.59,2098.83)">
                <circle cx="5672.77" cy="1113.77" r="6.912" style="fill:white;"/>
            </g>
        </g>
        <g transform="matrix(1.22613,0,6.35292e-16,0.6358,-983.201,-37.8973)">
            <ellipse cx="5789.08" cy="1056.08" rx="14.768" ry="7.595" style="fill:rgb(195,125,63);"/>
        </g>
        <g transform="matrix(0.707107,-0.463689,1.07831,0.707107,1419.31,2861.14)">
            <g transform="matrix(0.965926,-0.169722,0.258819,0.633411,-49.2009,866.912)">
                <path d="M5690.99,1114.73C5690.99,1113.07 5689.63,1111.71 5687.97,1111.71C5686.3,1111.71 5684.94,1113.07 5684.94,1114.73L5684.94,1125.39C5684.94,1127.06 5686.3,1128.41 5687.97,1128.41C5689.63,1128.41 5690.99,1127.06 5690.99,1125.39L5690.99,1114.73Z" style="fill:rgb(195,125,63);"/>
            </g>
            <g transform="matrix(0.965926,0.169722,-0.258819,0.633411,523.98,-1063.83)">
                <path d="M5690.99,1114.73C5690.99,1113.07 5689.63,1111.71 5687.97,1111.71C5686.3,1111.71 5684.94,1113.07 5684.94,1114.73L5684.94,1125.39C5684.94,1127.06 5686.3,1128.41 5687.97,1128.41C5689.63,1128.41 5690.99,1127.06 5690.99,1125.39L5690.99,1114.73Z" style="fill:rgb(195,125,63);"/>
            </g>
        </g>
        <g transform="matrix(1,0,5.18126e-16,0.518541,325.896,83.4766)">
            <ellipse cx="5789.08" cy="1056.08" rx="14.768" ry="7.595" style="fill:rgb(223,249,255);"/>
        </g>
        <g transform="matrix(1,-2.66673e-17,6.70108e-16,0.855782,325.896,-278.991)">
            <rect x="5774.31" y="1054.84" width="29.536" height="8.616" style="fill:rgb(223,249,255);"/>
        </g>
        <g transform="matrix(1,0,5.18126e-16,0.518541,325.896,78.26)">
            <path d="M5786.73,1063.58C5783.63,1063.32 5780.85,1062.57 5778.71,1061.48" style="fill:none;stroke:white;stroke-width:3.7px;"/>
        </g>
        <g transform="matrix(1,0,5.18126e-16,0.518541,325.896,76.1031)">
            <ellipse cx="5789.08" cy="1056.08" rx="14.768" ry="7.595" style="fill:rgb(149,217,255);"/>
        </g>
        <g transform="matrix(0.746976,0,3.87028e-16,0.387337,1790.67,213.403)">
            <ellipse cx="5789.08" cy="1056.08" rx="14.768" ry="7.595" style="fill:rgb(184,104,65);"/>
        </g>
        <g transform="matrix(0.746976,1.57949e-17,7.28546e-16,0.729128,1790.67,-152.935)">
            <rect x="5774.31" y="1054.84" width="29.536" height="8.616" style="fill:rgb(184,104,65);"/>
        </g>
        <g transform="matrix(0.746976,1.38108e-32,3.87028e-16,0.387337,1790.67,207.121)">
            <ellipse cx="5789.08" cy="1056.08" rx="14.768" ry="7.595" style="fill:rgb(200,136,77);"/>
        </g>
        <g transform="matrix(1.31821,7.31751e-17,2.8791e-16,0.86442,-1378.27,-316.937)">
            <ellipse cx="5684.03" cy="1082.75" rx="2.973" ry="1.961" style="fill:rgb(184,104,65);"/>
        </g>
    </g>
</svg>
