<?xml version="1.0" encoding="UTF-8" standalone="no"?>
<!DOCTYPE svg PUBLIC "-//W3C//DTD SVG 1.1//EN" "http://www.w3.org/Graphics/SVG/1.1/DTD/svg11.dtd">
<svg width="100%" height="100%" viewBox="0 0 256 256" version="1.1" xmlns="http://www.w3.org/2000/svg" xmlns:xlink="http://www.w3.org/1999/xlink" xml:space="preserve" xmlns:serif="http://www.serif.com/" style="fill-rule:evenodd;clip-rule:evenodd;stroke-linejoin:round;stroke-miterlimit:2;">
    <g id="Puppy" transform="matrix(1.61157,0,0,1.52496,-8926.07,-17.726)">
        <g transform="matrix(0.714737,0,0,0.690552,-589.927,-329.519)">
            <path d="M8685.84,523.293C8749.51,523.293 8786.29,581.407 8786.29,633.445C8786.29,685.484 8741.28,711.867 8685.84,711.867C8630.4,711.867 8585.38,685.484 8585.38,633.445C8585.38,581.407 8622.17,523.293 8685.84,523.293Z" style="fill:rgb(255,187,18);"/>
            <clipPath id="_clip1">
                <path d="M8685.84,523.293C8749.51,523.293 8786.29,581.407 8786.29,633.445C8786.29,685.484 8741.28,711.867 8685.84,711.867C8630.4,711.867 8585.38,685.484 8585.38,633.445C8585.38,581.407 8622.17,523.293 8685.84,523.293Z"/>
            </clipPath>
            <g clip-path="url(#_clip1)">
                <g transform="matrix(0.868168,0,0,0.94961,8574.71,494.015)">
                    <path d="M77.23,222.654C68.973,213.896 64.065,202.946 64.065,191.072C64.065,162.383 92.713,139.091 128,139.091C163.287,139.091 191.935,162.383 191.935,191.072C191.935,202.946 187.027,213.896 178.77,222.654C163.437,227.154 146.207,229.412 128,229.412C109.793,229.412 92.563,227.154 77.23,222.654Z" style="fill:white;"/>
                </g>
                <g transform="matrix(1.39912,0,0,1.44812,823.358,487.499)">
                    <g transform="matrix(0.620512,0,0,0.655755,5540.18,4.49985)">
                        <path d="M78.646,41.406C93.264,58.74 88.52,88.797 67.284,110.033C51.382,125.935 30.533,132.589 13.785,128.789C19.596,93.386 42.207,58.378 78.646,41.406Z" style="fill:rgb(215,140,0);"/>
                    </g>
                    <g transform="matrix(0.620512,0,0,0.655755,5540.18,4.49985)">
                        <path d="M177.354,41.406C213.791,58.377 236.403,93.384 242.215,128.789C225.467,132.589 204.618,125.935 188.716,110.033C167.48,88.797 162.736,58.74 177.354,41.406Z" style="fill:rgb(215,140,0);"/>
                    </g>
                </g>
            </g>
        </g>
        <g transform="matrix(0.966711,0,0,1.02162,5495.36,-77.6828)">
            <g transform="matrix(0.661858,0,0,0.661858,39.0778,55.7478)">
                <circle cx="86.998" cy="174.87" r="10.068" style="fill:rgb(60,69,77);"/>
            </g>
            <g transform="matrix(0.661858,0,0,0.661858,99.8388,55.7478)">
                <circle cx="86.998" cy="174.87" r="10.068" style="fill:rgb(60,69,77);"/>
            </g>
        </g>
        <g transform="matrix(0.991113,0,0,0.785687,5531.94,-17.4141)">
            <circle cx="86.998" cy="174.87" r="10.068" style="fill:rgb(207,110,83);"/>
        </g>
        <g transform="matrix(1,0,0,1,-1.44263,0)">
            <g transform="matrix(1.32961,1.40513,-1.43423,1.51569,-4540.63,-11829.5)">
                <ellipse cx="8031.99" cy="397.188" rx="12.738" ry="15.443" style="fill:rgb(255,210,31);"/>
            </g>
            <g transform="matrix(0.620512,0,0,0.655755,5507.93,5.71386)">
                <circle cx="90.633" cy="69.103" r="9.688" style="fill:rgb(255,221,104);"/>
            </g>
            <g transform="matrix(-1.32961,1.40513,1.43423,1.51569,15779.8,-11829.5)">
                <ellipse cx="8031.99" cy="397.188" rx="12.738" ry="15.443" style="fill:rgb(255,210,31);"/>
            </g>
        </g>
    </g>
</svg>
