<?xml version="1.0" encoding="UTF-8" standalone="no"?>
<!DOCTYPE svg PUBLIC "-//W3C//DTD SVG 1.1//EN" "http://www.w3.org/Graphics/SVG/1.1/DTD/svg11.dtd">
<svg width="100%" height="100%" viewBox="0 0 256 256" version="1.1" xmlns="http://www.w3.org/2000/svg" xmlns:xlink="http://www.w3.org/1999/xlink" xml:space="preserve" xmlns:serif="http://www.serif.com/" style="fill-rule:evenodd;clip-rule:evenodd;stroke-linejoin:round;stroke-miterlimit:2;">
    <g id="Rabbit-Girl" serif:id="Rabbit Girl" transform="matrix(3.98235,0,0,7.08125,-11105.1,-7758.17)">
        <g transform="matrix(1,0,0,1,-0.161887,4.54747e-13)">
            <g>
                <g transform="matrix(0.38393,0,0,0.377132,1031.96,420.537)">
                    <path d="M4644.28,1800.09C4644.28,1795.6 4637.91,1791.95 4630.07,1791.95C4622.22,1791.95 4615.86,1795.6 4615.86,1800.09L4615.86,1832.32C4615.86,1836.81 4622.22,1840.45 4630.07,1840.45C4637.91,1840.45 4644.28,1836.81 4644.28,1832.32L4644.28,1800.09Z" style="fill:white;"/>
                </g>
                <g transform="matrix(0.133246,0,0,0.130886,2192.64,863.911)">
                    <path d="M4644.28,1800.09C4644.28,1795.6 4637.91,1791.95 4630.07,1791.95C4622.22,1791.95 4615.86,1795.6 4615.86,1800.09L4615.86,1832.32C4615.86,1836.81 4622.22,1840.45 4630.07,1840.45C4637.91,1840.45 4644.28,1836.81 4644.28,1832.32L4644.28,1800.09Z" style="fill:rgb(255,156,194);"/>
                </g>
            </g>
            <g transform="matrix(1,0,0,1,22.6284,4.54747e-13)">
                <g transform="matrix(0.38393,0,0,0.377132,1031.96,420.537)">
                    <path d="M4644.28,1800.09C4644.28,1795.6 4637.91,1791.95 4630.07,1791.95C4622.22,1791.95 4615.86,1795.6 4615.86,1800.09L4615.86,1832.32C4615.86,1836.81 4622.22,1840.45 4630.07,1840.45C4637.91,1840.45 4644.28,1836.81 4644.28,1832.32L4644.28,1800.09Z" style="fill:rgb(248,249,250);"/>
                </g>
                <g transform="matrix(0.133246,0,0,0.130886,2192.64,863.911)">
                    <path d="M4644.28,1800.09C4644.28,1795.6 4637.91,1791.95 4630.07,1791.95C4622.22,1791.95 4615.86,1795.6 4615.86,1800.09L4615.86,1832.32C4615.86,1836.81 4622.22,1840.45 4630.07,1840.45C4637.91,1840.45 4644.28,1836.81 4644.28,1832.32L4644.28,1800.09Z" style="fill:rgb(255,156,194);"/>
                </g>
            </g>
        </g>
        <g transform="matrix(0.360212,0,0,0.0834675,1138.84,963.328)">
            <path d="M4711.86,1989.05C4711.86,1945.4 4697.26,1909.97 4679.28,1909.97L4659.06,1909.97C4641.08,1909.97 4626.48,1945.4 4626.48,1989.05C4626.48,1999.96 4630.13,2008.82 4634.63,2008.82L4703.71,2008.82C4708.21,2008.82 4711.86,1999.96 4711.86,1989.05L4711.86,1989.05Z" style="fill:white;"/>
        </g>
        <g transform="matrix(0.251108,0,0,0.141218,2788.59,1095.59)">
            <path d="M76.924,209.948C85.491,199.194 98.697,192.296 113.502,192.296L142.498,192.296C168.295,192.296 189.238,213.239 189.238,239.035C189.238,245.484 184.002,250.72 177.553,250.72L128.036,250.72L128.036,218.541L128,218.541C107.512,218.541 89.168,215.201 76.924,209.948Z" style="fill:rgb(248,249,250);"/>
        </g>
        <g transform="matrix(0.647643,0,0,0.343143,-105.477,473.022)">
            <path d="M4518.24,1835.03C4537.62,1835.03 4553.35,1848.12 4553.35,1867.5C4553.35,1886.87 4541.83,1901.44 4518.24,1901.44C4494.66,1901.44 4483.14,1886.87 4483.14,1867.5C4483.14,1848.12 4498.87,1835.03 4518.24,1835.03Z" style="fill:white;"/>
        </g>
        <g transform="matrix(0.251108,0,0,0.141218,2788.59,1095.59)">
            <path d="M120.01,50.607C122.64,50.425 125.306,50.332 128,50.332C177.974,50.332 218.547,82.133 218.547,129.215C218.547,176.298 188.828,211.687 128,211.687C126.017,211.687 124.067,211.649 122.149,211.574C156.819,199.607 181.584,168.229 181.584,131.445C181.584,93.909 155.796,62.002 120.01,50.607Z" style="fill:rgb(248,249,250);"/>
        </g>
        <g transform="matrix(1,0,0,1,0.135284,4.54747e-13)">
            <g transform="matrix(0.38393,0,0,0.215914,1031.95,709.15)">
                <ellipse cx="4647.66" cy="1855.22" rx="11.511" ry="7.487" style="fill:white;"/>
            </g>
            <g transform="matrix(0.38393,0,0,0.215914,1040.49,709.15)">
                <ellipse cx="4647.66" cy="1855.22" rx="11.511" ry="7.487" style="fill:white;"/>
            </g>
        </g>
        <g transform="matrix(0.237785,0,0,0.133726,2785.18,1093.89)">
            <g transform="matrix(1.33943,-0.358898,0.358898,1.33943,-1916.25,-1213.89)">
                <ellipse cx="1170.52" cy="1294.25" rx="7.05" ry="4.893" style="fill:rgb(44,50,56);"/>
            </g>
            <g transform="matrix(-1.33943,-0.358898,-0.358898,1.33943,2215.23,-1213.89)">
                <ellipse cx="1170.52" cy="1294.25" rx="7.05" ry="4.893" style="fill:rgb(44,50,56);"/>
            </g>
            <g transform="matrix(1.38668,0,0,1.38668,-746.727,-1584.97)">
                <g transform="matrix(0.202336,0.350456,-0.866025,0.5,1531.83,151.308)">
                    <path d="M1194.32,1296.31C1194.32,1295.91 1193.52,1295.59 1192.54,1295.59C1191.55,1295.59 1190.76,1295.91 1190.76,1296.31L1190.76,1305.97C1190.76,1306.37 1191.55,1306.69 1192.54,1306.69C1193.52,1306.69 1194.32,1306.37 1194.32,1305.97L1194.32,1296.31Z" style="fill:rgb(132,142,151);"/>
                </g>
                <g transform="matrix(-0.202336,0.350456,0.866025,0.5,-239.218,151.308)">
                    <path d="M1194.32,1296.31C1194.32,1295.91 1193.52,1295.59 1192.54,1295.59C1191.55,1295.59 1190.76,1295.91 1190.76,1296.31L1190.76,1305.97C1190.76,1306.37 1191.55,1306.69 1192.54,1306.69C1193.52,1306.69 1194.32,1306.37 1194.32,1305.97L1194.32,1296.31Z" style="fill:rgb(132,142,151);"/>
                </g>
            </g>
        </g>
        <g transform="matrix(0.397419,0,0,0.212481,1025.09,719.981)">
            <circle cx="4518.24" cy="1866.33" r="35.108" style="fill:rgb(255,215,187);"/>
        </g>
        <g transform="matrix(0.251108,0,0,0.141218,2788.59,1095.59)">
            <path d="M74.255,134.888C80.515,112.237 102.219,95.508 128,95.508C153.781,95.508 175.485,112.237 181.745,134.888L155.829,134.888L144.572,114.953L144.572,134.888L111.428,134.888L111.428,114.953L100.171,134.888L74.255,134.888Z" style="fill:rgb(0,220,235);"/>
        </g>
        <g transform="matrix(1,0,0,1,0.611618,0.969846)">
            <g transform="matrix(0.250271,0,0,0.140747,2601.07,984.308)">
                <g transform="matrix(0.919306,0,0,0.919306,-424.164,-0.740875)">
                    <ellipse cx="1381.47" cy="1036.18" rx="11.747" ry="9.909" style="fill:rgb(255,182,169);"/>
                </g>
                <g transform="matrix(0.919306,0,0,0.919306,-365.316,-0.740875)">
                    <ellipse cx="1381.47" cy="1036.18" rx="11.747" ry="9.909" style="fill:rgb(255,182,169);"/>
                </g>
            </g>
            <g transform="matrix(0.250271,0,0,0.140747,2600.76,984.262)">
                <g transform="matrix(0.774957,0,0,0.65112,-227.186,273.103)">
                    <ellipse cx="1382.22" cy="1014.68" rx="7.292" ry="8.679" style="fill:rgb(44,50,56);"/>
                </g>
                <g transform="matrix(0.774957,0,0,0.65112,-162.158,273.103)">
                    <ellipse cx="1382.22" cy="1014.68" rx="7.292" ry="8.679" style="fill:rgb(44,50,56);"/>
                </g>
            </g>
            <g transform="matrix(1.53247e-17,-0.140747,0.250271,8.6183e-18,2562.88,1315.81)">
                <path d="M1422.12,1023.66C1422.14,1023.36 1422.01,1023.07 1421.78,1022.88C1421.55,1022.69 1421.25,1022.62 1420.96,1022.69C1418.62,1023.25 1416.88,1025.35 1416.88,1027.86C1416.88,1030.37 1418.62,1032.47 1420.96,1033.02C1421.25,1033.08 1421.55,1033.01 1421.77,1032.83C1422,1032.64 1422.12,1032.35 1422.11,1032.06C1422.05,1030.69 1422,1029.28 1422,1027.86C1422,1026.44 1422.05,1025.03 1422.12,1023.66Z" style="fill:rgb(209,51,91);"/>
            </g>
        </g>
        <g>
            <g transform="matrix(0.158103,0,0,0.0889137,2084.21,954.91)">
                <circle cx="4658.52" cy="1929.72" r="4.928" style="fill:rgb(50,58,65);"/>
            </g>
            <g transform="matrix(0.158103,0,0,0.0889137,2084.21,957.327)">
                <circle cx="4658.52" cy="1929.72" r="4.928" style="fill:rgb(50,58,65);"/>
            </g>
        </g>
    </g>
</svg>
