<?xml version="1.0" encoding="UTF-8" standalone="no"?>
<!DOCTYPE svg PUBLIC "-//W3C//DTD SVG 1.1//EN" "http://www.w3.org/Graphics/SVG/1.1/DTD/svg11.dtd">
<svg width="100%" height="100%" viewBox="0 0 256 256" version="1.1" xmlns="http://www.w3.org/2000/svg" xmlns:xlink="http://www.w3.org/1999/xlink" xml:space="preserve" xmlns:serif="http://www.serif.com/" style="fill-rule:evenodd;clip-rule:evenodd;stroke-linejoin:round;stroke-miterlimit:2;">
    <g id="Rabbit" transform="matrix(1.55792,0,0,1.55792,-46.528,-108.757)">
        <g transform="matrix(0.932127,0,0,0.835584,1.23255,57.1941)">
            <g transform="matrix(0.683772,0,0,0.815589,33.6819,3.3615)">
                <g transform="matrix(0.906376,0,0,1.31121,5.53052,-4.83234)">
                    <path d="M116.235,30.969C116.235,22.447 105.533,15.528 92.35,15.528C79.168,15.528 68.465,22.447 68.465,30.969L68.465,120.252C68.465,128.775 79.168,135.694 92.35,135.694C105.533,135.694 116.235,128.775 116.235,120.252L116.235,30.969Z" style="fill:rgb(248,249,250);"/>
                </g>
                <g transform="matrix(0.392024,0,0,0.969599,53.0312,14.0619)">
                    <path d="M116.235,24.559C116.235,19.575 105.533,15.528 92.35,15.528C79.168,15.528 68.465,19.575 68.465,24.559L68.465,126.662C68.465,131.647 79.168,135.694 92.35,135.694C105.533,135.694 116.235,131.647 116.235,126.662L116.235,24.559Z" style="fill:rgb(255,120,150);"/>
                </g>
            </g>
            <g transform="matrix(0.683772,0,0,0.815589,82.0075,3.3615)">
                <g transform="matrix(0.906376,0,0,1.31121,5.53052,-4.83234)">
                    <path d="M116.235,30.969C116.235,22.447 105.533,15.528 92.35,15.528C79.168,15.528 68.465,22.447 68.465,30.969L68.465,120.252C68.465,128.775 79.168,135.694 92.35,135.694C105.533,135.694 116.235,128.775 116.235,120.252L116.235,30.969Z" style="fill:rgb(248,249,250);"/>
                </g>
                <g transform="matrix(0.392024,0,0,0.969599,53.0312,14.0619)">
                    <path d="M116.235,24.559C116.235,19.575 105.533,15.528 92.35,15.528C79.168,15.528 68.465,19.575 68.465,24.559L68.465,126.662C68.465,131.647 79.168,135.694 92.35,135.694C105.533,135.694 116.235,131.647 116.235,126.662L116.235,24.559Z" style="fill:rgb(255,120,150);"/>
                </g>
            </g>
        </g>
        <g transform="matrix(0.936348,0,0,1.00827,1.33853,-4.65581)">
            <path d="M118.212,110.053C160.16,110.053 194.216,133.15 194.216,173.055C194.216,212.961 160.16,236.058 118.212,236.058C76.264,236.058 42.207,212.961 42.207,173.055C42.207,133.15 76.264,110.053 118.212,110.053Z" style="fill:rgb(248,249,250);"/>
        </g>
        <g transform="matrix(1,0,0,1,-7.1188,-12.471)">
            <g transform="matrix(0.661858,0,0,0.661858,39.0778,55.7478)">
                <circle cx="86.998" cy="174.87" r="10.068" style="fill:rgb(60,69,77);"/>
            </g>
            <g transform="matrix(0.661858,0,0,0.661858,84.0514,55.7478)">
                <circle cx="86.998" cy="174.87" r="10.068" style="fill:rgb(60,69,77);"/>
            </g>
        </g>
        <g transform="matrix(0.580193,0,0,0.580193,36.3854,58.0625)">
            <g transform="matrix(1.47684,0,0,1.47684,-7122.17,-589.958)">
                <path d="M4909.37,533.445L4909.37,540.098C4909.37,544.867 4905.5,548.739 4900.73,548.739C4897.36,548.739 4894.45,546.811 4893.02,544.002C4892.65,543.283 4891.77,542.995 4891.05,543.361C4890.34,543.726 4890.05,544.607 4890.41,545.327C4892.32,549.086 4896.23,551.663 4900.73,551.663C4907.11,551.663 4912.3,546.481 4912.3,540.098L4912.3,533.445C4912.3,532.638 4911.64,531.983 4910.83,531.983C4910.03,531.983 4909.37,532.638 4909.37,533.445Z" style="fill:rgb(71,80,88);"/>
            </g>
            <g transform="matrix(1.47684,0,0,1.47684,-7092.31,-589.958)">
                <path d="M4908.44,544.002C4907.01,546.811 4904.09,548.739 4900.73,548.739C4895.96,548.739 4892.09,544.867 4892.09,540.098C4892.09,539.291 4891.43,538.636 4890.63,538.636C4889.82,538.636 4889.16,539.291 4889.16,540.098C4889.16,546.481 4894.35,551.663 4900.73,551.663C4905.23,551.663 4909.14,549.086 4911.05,545.327C4911.41,544.607 4911.12,543.726 4910.4,543.361C4909.69,542.995 4908.81,543.283 4908.44,544.002Z" style="fill:rgb(71,80,88);"/>
            </g>
        </g>
        <g transform="matrix(0.870097,0,0,0.870097,8.57475,11.6102)">
            <g transform="matrix(0.810413,0,0,0.810413,40.5087,43.6621)">
                <circle cx="86.998" cy="174.87" r="10.068" style="fill:rgb(221,226,230);"/>
            </g>
            <g transform="matrix(0.810413,0,0,0.810413,56.2756,43.6621)">
                <circle cx="86.998" cy="174.87" r="10.068" style="fill:rgb(221,226,230);"/>
            </g>
        </g>
        <g transform="matrix(0.62469,0,0,0.528179,57.6794,73.8339)">
            <circle cx="86.998" cy="174.87" r="10.068" style="fill:rgb(249,112,173);"/>
        </g>
        <g transform="matrix(1,0,0,1,-10.9928,-12.471)">
            <g transform="matrix(0.965926,0.258819,-0.20612,0.769249,112.464,27.4528)">
                <circle cx="86.998" cy="174.87" r="10.068" style="fill:rgb(255,180,200);"/>
            </g>
            <g transform="matrix(0.965926,-0.258819,0.20612,0.769249,-34.4932,72.4861)">
                <circle cx="86.998" cy="174.87" r="10.068" style="fill:rgb(255,180,200);"/>
            </g>
        </g>
        <g transform="matrix(0.827212,0,0,0.831112,-8683.66,-947.254)">
            <g transform="matrix(0.982525,-0.262031,0.184513,0.685379,-14.1705,3229.84)">
                <path d="M10687.3,1324.82C10687.3,1322.85 10686.1,1321.26 10684.8,1321.26L10660.6,1321.26C10659.2,1321.26 10658.1,1322.85 10658.1,1324.82C10658.1,1326.79 10659.2,1328.39 10660.6,1328.39L10684.8,1328.39C10686.1,1328.39 10687.3,1326.79 10687.3,1324.82Z" style="fill:rgb(50,58,65);"/>
            </g>
            <g transform="matrix(0.982525,0.262031,0.184513,-0.685379,-14.1705,-526.516)">
                <path d="M10687.3,1324.82C10687.3,1322.85 10686.1,1321.26 10684.8,1321.26L10660.6,1321.26C10659.2,1321.26 10658.1,1322.85 10658.1,1324.82C10658.1,1326.79 10659.2,1328.39 10660.6,1328.39L10684.8,1328.39C10686.1,1328.39 10687.3,1326.79 10687.3,1324.82Z" style="fill:rgb(50,58,65);"/>
            </g>
            <g transform="matrix(-0.982525,-0.262031,-0.184513,0.685379,21280,3229.84)">
                <path d="M10687.3,1324.82C10687.3,1322.85 10686.1,1321.26 10684.8,1321.26L10660.6,1321.26C10659.2,1321.26 10658.1,1322.85 10658.1,1324.82C10658.1,1326.79 10659.2,1328.39 10660.6,1328.39L10684.8,1328.39C10686.1,1328.39 10687.3,1326.79 10687.3,1324.82Z" style="fill:rgb(50,58,65);"/>
            </g>
            <g transform="matrix(-0.982525,0.262031,-0.184513,-0.685379,21280,-526.516)">
                <path d="M10687.3,1324.82C10687.3,1322.85 10686.1,1321.26 10684.8,1321.26L10660.6,1321.26C10659.2,1321.26 10658.1,1322.85 10658.1,1324.82C10658.1,1326.79 10659.2,1328.39 10660.6,1328.39L10684.8,1328.39C10686.1,1328.39 10687.3,1326.79 10687.3,1324.82Z" style="fill:rgb(50,58,65);"/>
            </g>
        </g>
    </g>
</svg>
