<?xml version="1.0" encoding="UTF-8" standalone="no"?>
<!DOCTYPE svg PUBLIC "-//W3C//DTD SVG 1.1//EN" "http://www.w3.org/Graphics/SVG/1.1/DTD/svg11.dtd">
<svg width="100%" height="100%" viewBox="0 0 256 256" version="1.1" xmlns="http://www.w3.org/2000/svg" xmlns:xlink="http://www.w3.org/1999/xlink" xml:space="preserve" xmlns:serif="http://www.serif.com/" style="fill-rule:evenodd;clip-rule:evenodd;stroke-linejoin:round;stroke-miterlimit:2;">
    <g id="Rabbit-Hat-Blue" serif:id="Rabbit Hat Blue" transform="matrix(1.61157,0,0,1.52496,-7216.76,-264.511)">
        <g transform="matrix(0.901098,0,0,0.853647,4450.41,160.457)">
            <g transform="matrix(0.683772,0,0,0.815589,33.6819,3.3615)">
                <g transform="matrix(0.906376,0,0,1.31121,5.53052,-4.83234)">
                    <path d="M116.235,30.969C116.235,22.447 105.533,15.528 92.35,15.528C79.168,15.528 68.465,22.447 68.465,30.969L68.465,120.252C68.465,128.775 79.168,135.694 92.35,135.694C105.533,135.694 116.235,128.775 116.235,120.252L116.235,30.969Z" style="fill:rgb(0,172,254);"/>
                </g>
                <g transform="matrix(0.392024,0,0,0.969599,53.0312,14.0619)">
                    <path d="M116.235,24.559C116.235,19.575 105.533,15.528 92.35,15.528C79.168,15.528 68.465,19.575 68.465,24.559L68.465,126.662C68.465,131.647 79.168,135.694 92.35,135.694C105.533,135.694 116.235,131.647 116.235,126.662L116.235,24.559Z" style="fill:white;"/>
                </g>
            </g>
            <g transform="matrix(0.683772,0,0,0.815589,82.0075,3.3615)">
                <g transform="matrix(0.906376,0,0,1.31121,5.53052,-4.83234)">
                    <path d="M116.235,30.969C116.235,22.447 105.533,15.528 92.35,15.528C79.168,15.528 68.465,22.447 68.465,30.969L68.465,120.252C68.465,128.775 79.168,135.694 92.35,135.694C105.533,135.694 116.235,128.775 116.235,120.252L116.235,30.969Z" style="fill:rgb(0,172,254);"/>
                </g>
                <g transform="matrix(0.392024,0,0,0.969599,53.0312,14.0619)">
                    <path d="M116.235,24.559C116.235,19.575 105.533,15.528 92.35,15.528C79.168,15.528 68.465,19.575 68.465,24.559L68.465,126.662C68.465,131.647 79.168,135.694 92.35,135.694C105.533,135.694 116.235,131.647 116.235,126.662L116.235,24.559Z" style="fill:white;"/>
                </g>
            </g>
        </g>
        <g transform="matrix(0.714737,0,0,0.690552,-1650.58,-150.936)">
            <path d="M8685.84,523.293C8755.46,523.293 8786.29,570.731 8786.29,622.77C8786.29,674.808 8741.28,711.867 8685.84,711.867C8630.4,711.867 8585.38,674.808 8585.38,622.77C8585.38,570.731 8616.21,523.293 8685.84,523.293Z" style="fill:rgb(0,172,254);"/>
        </g>
        <g transform="matrix(0.620512,0,0,0.655755,4465.12,192.537)">
            <circle cx="90.633" cy="69.103" r="9.688" style="fill:rgb(201,236,255);"/>
        </g>
        <g transform="matrix(0.506566,0,0,0.425202,157.565,29.3772)">
            <ellipse cx="8685.84" cy="617.58" rx="100.454" ry="94.287" style="fill:white;"/>
        </g>
        <g transform="matrix(0.966711,0,0,1.02162,4442.33,105.724)">
            <g transform="matrix(0.661858,0,0,0.661858,39.0778,55.7478)">
                <circle cx="86.998" cy="174.87" r="10.068" style="fill:rgb(60,69,77);"/>
            </g>
            <g transform="matrix(0.661858,0,0,0.661858,84.0514,55.7478)">
                <circle cx="86.998" cy="174.87" r="10.068" style="fill:rgb(60,69,77);"/>
            </g>
        </g>
        <g transform="matrix(0.560879,0,0,0.592735,4484.39,169.199)">
            <g transform="matrix(1.47684,0,0,1.47684,-7122.17,-589.958)">
                <path d="M4909.37,533.445L4909.37,540.098C4909.37,544.867 4905.5,548.739 4900.73,548.739C4899.92,548.739 4899.27,549.394 4899.27,550.201C4899.27,551.008 4899.92,551.663 4900.73,551.663C4907.11,551.663 4912.3,546.481 4912.3,540.098L4912.3,533.445C4912.3,532.638 4911.64,531.983 4910.83,531.983C4910.03,531.983 4909.37,532.638 4909.37,533.445Z" style="fill:rgb(71,80,88);"/>
            </g>
            <g transform="matrix(1.47684,0,0,1.47684,-7092.31,-589.958)">
                <path d="M4900.73,548.739C4895.96,548.739 4892.09,544.867 4892.09,540.098C4892.09,539.291 4891.43,538.636 4890.63,538.636C4889.82,538.636 4889.16,539.291 4889.16,540.098C4889.16,546.481 4894.35,551.663 4900.73,551.663C4901.54,551.663 4902.19,551.008 4902.19,550.201C4902.19,549.394 4901.54,548.739 4900.73,548.739Z" style="fill:rgb(71,80,88);"/>
            </g>
        </g>
        <g transform="matrix(0.603895,0,0,0.539597,4504.98,193.894)">
            <circle cx="86.998" cy="174.87" r="10.068" style="fill:rgb(255,211,0);"/>
        </g>
        <g transform="matrix(0.966711,0,0,1.02162,4438.59,109.272)">
            <g transform="matrix(0.965926,0.258819,-0.20612,0.769249,112.464,27.4528)">
                <circle cx="86.998" cy="174.87" r="10.068" style="fill:rgb(255,180,200);"/>
            </g>
            <g transform="matrix(0.965926,-0.258819,0.20612,0.769249,-34.4932,72.4861)">
                <circle cx="86.998" cy="174.87" r="10.068" style="fill:rgb(255,180,200);"/>
            </g>
        </g>
        <g transform="matrix(0.799675,0,0,0.849078,-3943.44,-864.643)">
            <g transform="matrix(0.982525,-0.262031,0.184513,0.685379,-17.1701,3253.02)">
                <path d="M10687.3,1324.82C10687.3,1322.85 10686.1,1321.26 10684.8,1321.26L10660.6,1321.26C10659.2,1321.26 10658.1,1322.85 10658.1,1324.82C10658.1,1326.79 10659.2,1328.39 10660.6,1328.39L10684.8,1328.39C10686.1,1328.39 10687.3,1326.79 10687.3,1324.82Z" style="fill:rgb(50,58,65);"/>
            </g>
            <g transform="matrix(0.982525,0.262031,0.184513,-0.685379,-17.1701,-503.328)">
                <path d="M10687.3,1324.82C10687.3,1322.85 10686.1,1321.26 10684.8,1321.26L10660.6,1321.26C10659.2,1321.26 10658.1,1322.85 10658.1,1324.82C10658.1,1326.79 10659.2,1328.39 10660.6,1328.39L10684.8,1328.39C10686.1,1328.39 10687.3,1326.79 10687.3,1324.82Z" style="fill:rgb(50,58,65);"/>
            </g>
            <g transform="matrix(-0.982525,-0.262031,-0.184513,0.685379,21278.2,3255.93)">
                <path d="M10687.3,1324.82C10687.3,1322.85 10686.1,1321.26 10684.8,1321.26L10660.6,1321.26C10659.2,1321.26 10658.1,1322.85 10658.1,1324.82C10658.1,1326.79 10659.2,1328.39 10660.6,1328.39L10684.8,1328.39C10686.1,1328.39 10687.3,1326.79 10687.3,1324.82Z" style="fill:rgb(50,58,65);"/>
            </g>
            <g transform="matrix(-0.982525,0.262031,-0.184513,-0.685379,21278.2,-500.425)">
                <path d="M10687.3,1324.82C10687.3,1322.85 10686.1,1321.26 10684.8,1321.26L10660.6,1321.26C10659.2,1321.26 10658.1,1322.85 10658.1,1324.82C10658.1,1326.79 10659.2,1328.39 10660.6,1328.39L10684.8,1328.39C10686.1,1328.39 10687.3,1326.79 10687.3,1324.82Z" style="fill:rgb(50,58,65);"/>
            </g>
        </g>
    </g>
</svg>
