<?xml version="1.0" encoding="UTF-8" standalone="no"?>
<!DOCTYPE svg PUBLIC "-//W3C//DTD SVG 1.1//EN" "http://www.w3.org/Graphics/SVG/1.1/DTD/svg11.dtd">
<svg width="100%" height="100%" viewBox="0 0 256 256" version="1.1" xmlns="http://www.w3.org/2000/svg" xmlns:xlink="http://www.w3.org/1999/xlink" xml:space="preserve" xmlns:serif="http://www.serif.com/" style="fill-rule:evenodd;clip-rule:evenodd;stroke-linejoin:round;stroke-miterlimit:2;">
    <g id="Radish" transform="matrix(1.12379,0,0,1.12909,-12807.5,-737.939)">
        <g transform="matrix(1.01718,0,0,-1.01241,-146.271,1735.77)">
            <path d="M11463.1,851.898C11462.8,850.396 11461.5,849.315 11460,849.315C11458.4,849.315 11457.1,850.396 11456.8,851.898C11455.1,858.833 11453.4,867.143 11453.4,872.082C11453.4,875.693 11456.3,878.625 11460,878.625C11463.6,878.625 11466.5,875.693 11466.5,872.082C11466.5,867.143 11464.8,858.833 11463.1,851.898Z" style="fill:rgb(248,224,196);"/>
        </g>
        <g transform="matrix(0.818313,0.241263,0.281768,-0.700679,1946.06,-1561.08)">
            <path d="M11470.6,631.549C11470.6,631.549 11453.1,703.691 11453.1,734.609C11453.1,745.579 11460.9,754.485 11470.6,754.485C11480.3,754.485 11488.2,745.579 11488.2,734.609C11488.2,703.691 11470.6,631.549 11470.6,631.549Z" style="fill:rgb(131,187,25);"/>
        </g>
        <g transform="matrix(0.818313,-0.241263,-0.281768,-0.700679,2301.96,3973.63)">
            <path d="M11470.6,631.549C11470.6,631.549 11453.1,703.691 11453.1,734.609C11453.1,745.579 11460.9,754.485 11470.6,754.485C11480.3,754.485 11488.2,745.579 11488.2,734.609C11488.2,703.691 11470.6,631.549 11470.6,631.549Z" style="fill:rgb(131,187,25);"/>
        </g>
        <g transform="matrix(0.865465,0,0,-0.861404,1583.17,1307.87)">
            <path d="M11470.6,631.549C11470.6,631.549 11453.1,705.296 11453.1,736.901C11453.1,746.606 11460.9,754.485 11470.6,754.485C11480.3,754.485 11488.2,746.606 11488.2,736.901C11488.2,705.296 11470.6,631.549 11470.6,631.549Z" style="fill:rgb(144,212,38);"/>
        </g>
        <g transform="matrix(1.01718,0,0,1.01241,-139.636,0)">
            <ellipse cx="11453.4" cy="752.025" rx="6.543" ry="9.961" style="fill:rgb(101,147,0);"/>
        </g>
        <g transform="matrix(1.01718,0,0,1.01241,-139.636,39.7917)">
            <circle cx="11453.4" cy="767.815" r="51.07" style="fill:rgb(253,78,142);"/>
        </g>
        <g transform="matrix(0.889844,0,0,0.885668,11396.7,653.569)">
            <path d="M158.111,134.669C175.046,144.894 186.379,163.475 186.379,184.682C186.379,216.902 160.22,243.061 128,243.061C106.793,243.061 88.211,231.728 77.987,214.793C86.78,220.103 97.085,223.159 108.098,223.159C140.318,223.159 166.477,197 166.477,164.78C166.477,153.767 163.421,143.463 158.111,134.669Z" style="fill:rgb(251,47,126);"/>
        </g>
        <g transform="matrix(0.217116,0,0,0.216097,9006.01,628.372)">
            <circle cx="11453.4" cy="767.815" r="51.07" style="fill:rgb(255,159,219);"/>
        </g>
    </g>
</svg>
