<?xml version="1.0" encoding="UTF-8" standalone="no"?>
<!DOCTYPE svg PUBLIC "-//W3C//DTD SVG 1.1//EN" "http://www.w3.org/Graphics/SVG/1.1/DTD/svg11.dtd">
<svg width="100%" height="100%" viewBox="0 0 256 256" version="1.1" xmlns="http://www.w3.org/2000/svg" xmlns:xlink="http://www.w3.org/1999/xlink" xml:space="preserve" xmlns:serif="http://www.serif.com/" style="fill-rule:evenodd;clip-rule:evenodd;stroke-linejoin:round;stroke-miterlimit:2;">
    <g id="Rainbow" transform="matrix(0.221109,0,0,1.00467,-1179.43,-48.8523)">
        <g transform="matrix(4.10368,0,0,0.924448,4876.71,-1077.51)">
            <path d="M158.552,1406.78C149.977,1317.03 199.068,1270.56 250.979,1270.51C303.014,1270.47 353.402,1316.94 346.958,1407.09C346.432,1414.45 352.117,1420.83 359.645,1421.35C367.174,1421.86 373.712,1416.31 374.238,1408.95C382.19,1297.72 315.158,1243.74 250.953,1243.8C186.623,1243.86 120.697,1298.04 131.323,1409.26C132.024,1416.6 138.694,1422.01 146.208,1421.32C153.722,1420.64 159.253,1414.12 158.552,1406.78Z" style="fill:rgb(255,86,88);"/>
        </g>
        <g transform="matrix(3.16272,0,0,0.721948,5114.34,-803.437)">
            <path d="M161.937,1406.51C153.604,1319.28 200.528,1273.66 250.982,1273.62C301.587,1273.57 349.833,1319.22 343.566,1406.89C342.918,1415.95 350.024,1423.82 359.424,1424.44C368.824,1425.07 376.982,1418.22 377.63,1409.15C385.759,1295.43 316.593,1240.64 250.95,1240.7C185.153,1240.76 117.069,1295.78 127.937,1409.53C128.801,1418.58 137.12,1425.25 146.503,1424.41C155.886,1423.58 162.802,1415.56 161.937,1406.51Z" style="fill:rgb(255,226,69);"/>
        </g>
        <g transform="matrix(2.25958,0,0,0.497009,5342.42,-499.458)">
            <path d="M166.574,1405.95C158.634,1322.84 202.914,1278.95 250.985,1278.9C299.265,1278.86 344.897,1322.83 338.917,1406.47C338.062,1418.44 347.081,1428.86 359.047,1429.71C371.013,1430.57 381.423,1421.55 382.278,1409.57C390.697,1291.81 318.921,1235.35 250.946,1235.41C182.761,1235.47 112.037,1292.21 123.3,1410.09C124.441,1422.04 135.064,1430.81 147.006,1429.67C158.947,1428.53 167.716,1417.9 166.574,1405.95Z" style="fill:rgb(0,228,124);"/>
        </g>
        <g transform="matrix(3.66044,0,0,0.805593,5208.86,-1558.1)">
            <path d="M98.285,2150.56C112.872,2150.56 122.61,2179.61 122.61,2179.61C122.61,2179.61 153.249,2179.89 157.757,2193.77C162.264,2207.64 137.643,2225.88 137.643,2225.88C137.643,2225.88 146.841,2255.11 135.041,2263.68C123.24,2272.25 98.285,2254.47 98.285,2254.47C98.285,2254.47 73.331,2272.25 61.53,2263.68C49.729,2255.11 58.927,2225.88 58.927,2225.88C58.927,2225.88 34.307,2207.64 38.814,2193.77C43.321,2179.89 73.961,2179.61 73.961,2179.61C73.961,2179.61 83.699,2150.56 98.285,2150.56Z" style="fill:white;"/>
        </g>
        <g transform="matrix(3.66044,0,0,0.805593,5897.71,-1558.1)">
            <path d="M98.285,2150.56C112.872,2150.56 122.61,2179.61 122.61,2179.61C122.61,2179.61 153.249,2179.89 157.757,2193.77C162.264,2207.64 137.643,2225.88 137.643,2225.88C137.643,2225.88 146.841,2255.11 135.041,2263.68C123.24,2272.25 98.285,2254.47 98.285,2254.47C98.285,2254.47 73.331,2272.25 61.53,2263.68C49.729,2255.11 58.927,2225.88 58.927,2225.88C58.927,2225.88 34.307,2207.64 38.814,2193.77C43.321,2179.89 73.961,2179.61 73.961,2179.61C73.961,2179.61 83.699,2150.56 98.285,2150.56Z" style="fill:white;"/>
        </g>
    </g>
</svg>
