<?xml version="1.0" encoding="UTF-8" standalone="no"?>
<!DOCTYPE svg PUBLIC "-//W3C//DTD SVG 1.1//EN" "http://www.w3.org/Graphics/SVG/1.1/DTD/svg11.dtd">
<svg width="100%" height="100%" viewBox="0 0 256 256" version="1.1" xmlns="http://www.w3.org/2000/svg" xmlns:xlink="http://www.w3.org/1999/xlink" xml:space="preserve" xmlns:serif="http://www.serif.com/" style="fill-rule:evenodd;clip-rule:evenodd;stroke-linejoin:round;stroke-miterlimit:2;">
    <g id="Ranking" transform="matrix(0.251245,0,0,0.251245,4.85965,7.31366)">
        <g transform="matrix(3.4009,0,0,4.06504,9.73261,-44.0751)">
            <path d="M77.51,103.053C77.51,87.065 61.995,74.084 42.884,74.084C23.773,74.084 8.257,87.065 8.257,103.053L8.257,216.825C8.257,232.813 23.773,245.794 42.884,245.794C61.995,245.794 77.51,232.813 77.51,216.825L77.51,103.053Z" style="fill:white;"/>
        </g>
        <g transform="matrix(3.4009,0,0,2.28982,9.73261,392.264)">
            <path d="M77.51,125.512C77.51,97.128 61.995,74.084 42.884,74.084C23.773,74.084 8.257,97.128 8.257,125.512L8.257,194.366C8.257,222.75 23.773,245.794 42.884,245.794C61.995,245.794 77.51,222.75 77.51,194.366L77.51,125.512Z" style="fill:rgb(153,233,242);"/>
        </g>
        <g transform="matrix(3.4009,0,0,5.52949,346.948,-404.028)">
            <path d="M77.51,95.381C77.51,83.627 61.995,74.084 42.884,74.084C23.773,74.084 8.257,83.627 8.257,95.381L8.257,224.497C8.257,236.251 23.773,245.794 42.884,245.794C61.995,245.794 77.51,236.251 77.51,224.497L77.51,95.381Z" style="fill:white;"/>
        </g>
        <g transform="matrix(3.4009,0,0,3.97629,346.948,-22.2605)">
            <path d="M77.51,103.7C77.51,87.355 61.995,74.084 42.884,74.084C23.773,74.084 8.257,87.355 8.257,103.7L8.257,216.178C8.257,232.523 23.773,245.794 42.884,245.794C61.995,245.794 77.51,232.523 77.51,216.178L77.51,103.7Z" style="fill:rgb(153,233,242);"/>
        </g>
        <g transform="matrix(3.4009,0,0,2.83541,676.397,258.16)">
            <path d="M77.51,115.616C77.51,92.694 61.995,74.084 42.884,74.084C23.773,74.084 8.257,92.694 8.257,115.616L8.257,204.261C8.257,227.184 23.773,245.794 42.884,245.794C61.995,245.794 77.51,227.184 77.51,204.261L77.51,115.616Z" style="fill:white;"/>
        </g>
        <g transform="matrix(3.4009,0,0,1.48626,676.397,589.773)">
            <path d="M77.51,153.317C77.51,109.587 61.995,74.084 42.884,74.084C23.773,74.084 8.257,109.587 8.257,153.317L8.257,166.561C8.257,210.291 23.773,245.794 42.884,245.794C61.995,245.794 77.51,210.291 77.51,166.561L77.51,153.317Z" style="fill:rgb(153,233,242);"/>
        </g>
    </g>
</svg>
