<?xml version="1.0" encoding="UTF-8" standalone="no"?>
<!DOCTYPE svg PUBLIC "-//W3C//DTD SVG 1.1//EN" "http://www.w3.org/Graphics/SVG/1.1/DTD/svg11.dtd">
<svg width="100%" height="100%" viewBox="0 0 256 256" version="1.1" xmlns="http://www.w3.org/2000/svg" xmlns:xlink="http://www.w3.org/1999/xlink" xml:space="preserve" xmlns:serif="http://www.serif.com/" style="fill-rule:evenodd;clip-rule:evenodd;stroke-linejoin:round;stroke-miterlimit:2;">
    <g id="Reindeer" transform="matrix(1.6003,0,0,0.840443,-7636.63,-1776.58)">
        <g transform="matrix(0.892024,0,0,0.892024,524.2,252.03)">
            <g transform="matrix(2.4332,0,0,2.4332,-6940.57,-3093.76)">
                <g transform="matrix(0.375084,-0.191371,0.160072,1.13751,1747.2,1073.69)">
                    <path d="M7316.52,2162.89C7316.52,2160.68 7313.66,2158.88 7310.13,2158.88C7306.6,2158.88 7303.74,2160.68 7303.74,2162.89L7303.74,2190.7C7303.74,2192.91 7306.6,2194.71 7310.13,2194.71C7313.66,2194.71 7316.52,2192.91 7316.52,2190.7L7316.52,2162.89Z" style="fill:rgb(162,77,65);"/>
                </g>
                <g transform="matrix(0.100504,-0.714205,0.335392,0.171119,3368.3,6997.03)">
                    <path d="M7316.52,2166.03C7316.52,2162.08 7313.66,2158.88 7310.13,2158.88C7306.6,2158.88 7303.74,2162.08 7303.74,2166.03L7303.74,2187.56C7303.74,2191.51 7306.6,2194.71 7310.13,2194.71C7313.66,2194.71 7316.52,2191.51 7316.52,2187.56L7316.52,2166.03Z" style="fill:rgb(162,77,65);"/>
                </g>
            </g>
            <g transform="matrix(-2.4332,0,0,2.4332,16643.8,-3093.76)">
                <g transform="matrix(0.375084,-0.191371,0.160072,1.13751,1747.2,1073.69)">
                    <path d="M7316.52,2162.89C7316.52,2160.68 7313.66,2158.88 7310.13,2158.88C7306.6,2158.88 7303.74,2160.68 7303.74,2162.89L7303.74,2190.7C7303.74,2192.91 7306.6,2194.71 7310.13,2194.71C7313.66,2194.71 7316.52,2192.91 7316.52,2190.7L7316.52,2162.89Z" style="fill:rgb(162,77,65);"/>
                </g>
                <g transform="matrix(0.100504,-0.714205,0.335392,0.171119,3368.3,6997.03)">
                    <path d="M7316.52,2166.03C7316.52,2162.08 7313.66,2158.88 7310.13,2158.88C7306.6,2158.88 7303.74,2162.08 7303.74,2166.03L7303.74,2187.56C7303.74,2191.51 7306.6,2194.71 7310.13,2194.71C7313.66,2194.71 7316.52,2191.51 7316.52,2187.56L7316.52,2166.03Z" style="fill:rgb(162,77,65);"/>
                </g>
            </g>
        </g>
        <g transform="matrix(0.475524,0,0,0.905454,1578.25,267.497)">
            <circle cx="6884.45" cy="2238.64" r="26.72" style="fill:rgb(240,62,62);"/>
        </g>
        <g transform="matrix(0.88411,0,0,0.88411,562.297,257.515)">
            <g transform="matrix(0.443299,0,0,0.844094,1788.75,383.981)">
                <path d="M6860.1,2154.6C6860.1,2146.14 6853.23,2139.28 6844.78,2139.28L6736.14,2139.28C6727.68,2139.28 6720.82,2146.14 6720.82,2154.6C6720.82,2188.42 6748.28,2215.88 6782.1,2215.88L6844.78,2215.88C6853.23,2215.88 6860.1,2209.01 6860.1,2200.56L6860.1,2154.6Z" style="fill:rgb(220,105,44);"/>
            </g>
            <g transform="matrix(-0.443299,0,0,0.844094,7915.2,383.981)">
                <path d="M6860.1,2154.6C6860.1,2146.14 6853.23,2139.28 6844.78,2139.28L6736.14,2139.28C6727.68,2139.28 6720.82,2146.14 6720.82,2154.6C6720.82,2188.42 6748.28,2215.88 6782.1,2215.88L6844.78,2215.88C6853.23,2215.88 6860.1,2209.01 6860.1,2200.56L6860.1,2154.6Z" style="fill:rgb(220,105,44);"/>
            </g>
        </g>
        <g transform="matrix(0.618469,0,0,1.17764,589.294,-368.016)">
            <path d="M6980.86,2244.16C6980.86,2195.28 6941.18,2155.6 6892.31,2155.6C6843.43,2155.6 6803.75,2195.28 6803.75,2244.16L6803.75,2277.6C6803.75,2326.47 6843.43,2366.15 6892.31,2366.15C6941.18,2366.15 6980.86,2326.47 6980.86,2277.6L6980.86,2244.16Z" style="fill:rgb(237,137,57);"/>
        </g>
        <g transform="matrix(0.624881,0,0,1.18985,4771.99,2113.86)">
            <path d="M60.498,224.235C55.378,216.471 52.496,207.706 52.496,198.431C52.496,166.658 86.328,140.863 128,140.863C169.672,140.863 203.504,166.658 203.504,198.431C203.504,207.706 200.622,216.471 195.502,224.235C179.419,243.636 155.142,256 128,256C100.858,256 76.581,243.636 60.498,224.235Z" style="fill:rgb(252,189,91);"/>
        </g>
        <g transform="matrix(0.363933,0,0,0.692971,2330.76,1074.16)">
            <circle cx="6867.76" cy="1705.09" r="15.045" style="fill:rgb(33,37,41);"/>
        </g>
        <g transform="matrix(0.363933,0,0,0.692971,2374.39,1074.16)">
            <circle cx="6867.76" cy="1705.09" r="15.045" style="fill:rgb(33,37,41);"/>
        </g>
        <g transform="matrix(0.22216,0,0,0.395563,3322.53,1417.96)">
            <ellipse cx="6884.45" cy="2298.39" rx="88.553" ry="82.515" style="fill:rgb(224,28,44);"/>
        </g>
        <g transform="matrix(0.0490734,0,0,0.0873769,4514.13,2109.52)">
            <ellipse cx="6884.45" cy="2298.39" rx="88.553" ry="82.515" style="fill:rgb(239,94,125);"/>
        </g>
    </g>
</svg>
