<?xml version="1.0" encoding="UTF-8" standalone="no"?>
<!DOCTYPE svg PUBLIC "-//W3C//DTD SVG 1.1//EN" "http://www.w3.org/Graphics/SVG/1.1/DTD/svg11.dtd">
<svg width="100%" height="100%" viewBox="0 0 256 256" version="1.1" xmlns="http://www.w3.org/2000/svg" xmlns:xlink="http://www.w3.org/1999/xlink" xml:space="preserve" xmlns:serif="http://www.serif.com/" style="fill-rule:evenodd;clip-rule:evenodd;stroke-linejoin:round;stroke-miterlimit:2;">
    <g id="Ring---Blue" serif:id="Ring - Blue" transform="matrix(1.22573,1.22573,-1.15985,1.15985,-6275.75,-7818.25)">
        <g transform="matrix(1,0,0,1,-0.472619,-4.72427)">
            <g transform="matrix(0.327444,-0.199787,0.18905,0.346042,3687.64,1028.05)">
                <path d="M5487.3,1867.1L5490.35,1877.6L5500.85,1880.66L5490.35,1883.71L5487.3,1894.21L5484.24,1883.71L5473.74,1880.66L5484.24,1877.6L5487.3,1867.1Z" style="fill:rgb(255,194,0);"/>
            </g>
            <g transform="matrix(0.199173,0.0563993,-0.0533682,0.210485,4879.28,-122.786)">
                <path d="M5487.3,1867.1L5490.35,1877.6L5500.85,1880.66L5490.35,1883.71L5487.3,1894.21L5484.24,1883.71L5473.74,1880.66L5484.24,1877.6L5487.3,1867.1Z" style="fill:rgb(255,194,0);"/>
            </g>
            <g transform="matrix(0.411279,0.116461,-0.110202,0.434638,3839.55,-851.221)">
                <path d="M5487.3,1867.1L5490.35,1877.6L5500.85,1880.66L5490.35,1883.71L5487.3,1894.21L5484.24,1883.71L5473.74,1880.66L5484.24,1877.6L5487.3,1867.1Z" style="fill:rgb(255,194,0);"/>
            </g>
            <g transform="matrix(0.247709,-0.261778,0.247709,0.261778,3995.63,1549.38)">
                <path d="M5487.3,1867.1L5490.35,1877.6L5500.85,1880.66L5490.35,1883.71L5487.3,1894.21L5484.24,1883.71L5473.74,1880.66L5484.24,1877.6L5487.3,1867.1Z" style="fill:rgb(255,194,0);"/>
            </g>
        </g>
        <g transform="matrix(1,0,0,1,0.276619,-7.28611)">
            <g transform="matrix(0.156707,-0.0443744,0.215062,0.848209,4542.45,-24.4078)">
                <path d="M6717.74,1113.17C6717.74,1108.65 6698.94,1104.98 6675.79,1104.98C6652.64,1104.98 6633.84,1108.65 6633.84,1113.17L6633.84,1139.62C6633.84,1144.14 6652.64,1147.81 6675.79,1147.81C6698.94,1147.81 6717.74,1144.14 6717.74,1139.62L6717.74,1113.17Z" style="fill:rgb(255,211,0);"/>
            </g>
            <g transform="matrix(0.156707,0.0443744,-0.215062,0.848209,5072.02,-616.877)">
                <path d="M6717.74,1113.17C6717.74,1108.65 6698.94,1104.98 6675.79,1104.98C6652.64,1104.98 6633.84,1108.65 6633.84,1113.17L6633.84,1139.62C6633.84,1144.14 6652.64,1147.81 6675.79,1147.81C6698.94,1147.81 6717.74,1144.14 6717.74,1139.62L6717.74,1113.17Z" style="fill:rgb(243,144,0);"/>
            </g>
            <g transform="matrix(0.620512,0,0,0.655755,1710.97,-96.6737)">
                <path d="M6675.79,1120.43C6722.1,1120.43 6759.7,1158.03 6759.7,1204.34C6759.7,1250.65 6722.1,1288.24 6675.79,1288.24C6629.48,1288.24 6591.88,1250.65 6591.88,1204.34C6591.88,1158.03 6629.48,1120.43 6675.79,1120.43ZM6675.79,1144.38C6708.88,1144.38 6735.74,1171.25 6735.74,1204.34C6735.74,1237.43 6708.88,1264.29 6675.79,1264.29C6642.7,1264.29 6615.84,1237.43 6615.84,1204.34C6615.84,1171.25 6642.7,1144.38 6675.79,1144.38Z" style="fill:rgb(255,211,0);"/>
            </g>
            <g transform="matrix(0.407921,-0.431089,0.407921,0.431089,5748.96,672.243)">
                <path d="M167.647,88.341C202.869,123.562 202.869,180.754 167.647,215.975C132.426,251.197 75.235,251.197 40.013,215.975L58.23,197.758C83.397,222.925 124.263,222.925 149.43,197.758C174.597,172.591 174.597,131.725 149.43,106.558L167.647,88.341Z" style="fill:rgb(243,144,0);"/>
            </g>
            <g transform="matrix(0.620512,0,0,0.853509,1498.85,-279.862)">
                <path d="M7017.63,1019.41L7054.44,1031.35L7063.53,1058.19L7038.06,1079.71L6997.21,1079.71L6971.74,1058.19L6980.83,1031.35L7017.63,1019.41Z" style="fill:rgb(0,183,255);"/>
                <clipPath id="_clip1">
                    <path d="M7017.63,1019.41L7054.44,1031.35L7063.53,1058.19L7038.06,1079.71L6997.21,1079.71L6971.74,1058.19L6980.83,1031.35L7017.63,1019.41Z"/>
                </clipPath>
                <g clip-path="url(#_clip1)">
                    <g transform="matrix(1,0,0,-0.768305,144.8,1886.56)">
                        <path d="M6894.74,1046.86L6932.79,1076.4L6909.68,1116.75L6888.55,1109.49L6894.74,1046.86Z" style="fill:rgb(0,101,177);"/>
                    </g>
                    <g transform="matrix(1,0,0,-0.768305,144.8,1886.56)">
                        <path d="M6844.05,1044.11L6898.22,1046.86L6887.57,1114.39L6858.5,1114.73L6844.05,1044.11Z" style="fill:rgb(0,154,237);"/>
                    </g>
                </g>
            </g>
            <g transform="matrix(0.498066,0,0,0.276842,2358.14,307.462)">
                <path d="M7017.63,1019.41L7054.44,1031.35L7063.53,1058.19L7038.06,1079.71L6997.21,1079.71L6971.74,1058.19L6980.83,1031.35L7017.63,1019.41Z" style="fill:rgb(76,205,255);"/>
            </g>
            <g transform="matrix(0.162235,0,0,0.724941,4770.33,-178.513)">
                <path d="M6717.74,1114.9C6717.74,1109.42 6698.94,1104.98 6675.79,1104.98C6652.64,1104.98 6633.84,1109.42 6633.84,1114.9L6633.84,1137.89C6633.84,1143.36 6652.64,1147.81 6675.79,1147.81C6698.94,1147.81 6717.74,1143.36 6717.74,1137.89L6717.74,1114.9Z" style="fill:rgb(255,211,0);"/>
            </g>
            <g transform="matrix(0.407921,-0.431089,0.407921,0.431089,5748.96,672.243)">
                <path d="M185.655,70.333L149.64,106.348C154.244,110.953 161.721,110.953 166.325,106.348L185.655,87.019C190.259,82.414 190.259,74.938 185.655,70.333Z" style="fill:rgb(243,144,0);"/>
            </g>
        </g>
    </g>
</svg>
