<?xml version="1.0" encoding="UTF-8" standalone="no"?>
<!DOCTYPE svg PUBLIC "-//W3C//DTD SVG 1.1//EN" "http://www.w3.org/Graphics/SVG/1.1/DTD/svg11.dtd">
<svg width="100%" height="100%" viewBox="0 0 256 256" version="1.1" xmlns="http://www.w3.org/2000/svg" xmlns:xlink="http://www.w3.org/1999/xlink" xml:space="preserve" xmlns:serif="http://www.serif.com/" style="fill-rule:evenodd;clip-rule:evenodd;stroke-linejoin:round;stroke-miterlimit:2;">
    <g id="Rocket" transform="matrix(1.95911,0,0,1.95911,-480.606,-243.98)">
        <g transform="matrix(0.975503,0,0,0.975503,-125.586,35.5941)">
            <path d="M424.337,140.073C424.337,140.073 408.552,159.184 402.879,166.052C401.587,167.617 400.88,169.583 400.88,171.613C400.88,173.596 400.88,176.221 400.88,178.591C400.88,179.845 401.541,181.007 402.619,181.648C403.698,182.289 405.034,182.315 406.136,181.715C413.051,177.954 424.337,171.815 424.337,171.815L424.337,140.073" style="fill:rgb(255,93,97);"/>
        </g>
        <g transform="matrix(-0.975503,0,0,0.975503,746.896,35.5941)">
            <path d="M424.337,140.073C424.337,140.073 408.552,159.184 402.879,166.052C401.587,167.617 400.88,169.583 400.88,171.613C400.88,173.596 400.88,176.221 400.88,178.591C400.88,179.845 401.541,181.007 402.619,181.648C403.698,182.289 405.034,182.315 406.136,181.715C413.051,177.954 424.337,171.815 424.337,171.815L424.337,140.073" style="fill:rgb(227,73,74);"/>
        </g>
        <g transform="matrix(1,0,0,0.610941,-5.68434e-14,41.1913)">
            <path d="M333.514,185.979C333.514,165.329 315.283,142.09 310.655,142.09C306.027,142.09 287.796,165.329 287.796,185.979L287.796,238.47L333.514,238.47L333.514,185.979Z" style="fill:rgb(255,93,97);"/>
        </g>
        <g transform="matrix(0.510437,0,0,0.510437,245.319,124.536)">
            <path d="M128,6.786L128,75.126L172.783,75.126L172.783,59.317C172.783,34.6 137.066,6.786 128,6.786Z" style="fill:rgb(227,73,74);"/>
        </g>
        <g>
            <g transform="matrix(1.25714,5.30882e-17,-5.30882e-17,-0.823641,-5.39626,399.625)">
                <path d="M251.405,179.545C251.405,179.545 241.397,188.167 241.397,204.3C241.397,212.731 245.882,219.575 251.405,219.575C256.928,219.575 261.413,212.731 261.413,204.3C261.413,188.167 251.405,179.545 251.405,179.545Z" style="fill:rgb(246,159,25);"/>
            </g>
            <g transform="matrix(0.698511,2.94977e-17,-2.94977e-17,-0.457644,135.046,326.586)">
                <path d="M251.405,179.545C251.405,179.545 241.397,188.167 241.397,204.3C241.397,212.731 245.882,219.575 251.405,219.575C256.928,219.575 261.413,212.731 261.413,204.3C261.413,188.167 251.405,179.545 251.405,179.545Z" style="fill:rgb(253,204,85);"/>
            </g>
        </g>
        <g transform="matrix(0.956932,0,0,1.70468,17.3688,-157.529)">
            <path d="M324.975,197.735L287.996,197.735L287.996,221.611C287.996,222.681 289.541,223.547 291.445,223.547C298.494,223.547 314.478,223.547 321.527,223.547C323.431,223.547 324.975,222.681 324.975,221.611C324.975,215.612 324.975,197.735 324.975,197.735Z" style="fill:rgb(92,121,150);"/>
        </g>
        <g transform="matrix(0.510437,0,0,0.510437,245.319,124.536)">
            <path d="M162.663,170.559L128,170.559L128,193.974L156.197,193.974C159.768,193.974 162.663,191.079 162.663,187.508L162.663,170.559Z" style="fill:rgb(87,110,134);"/>
        </g>
        <g transform="matrix(1.23632,0,0,1.63383,-68.2584,-163.691)">
            <rect x="287.996" y="197.735" width="36.979" height="25.813" style="fill:white;"/>
        </g>
        <g transform="matrix(0.89215,0,0,0.76259,33.504,71.7154)">
            <rect x="310.655" y="114.946" width="25.649" height="47.937" style="fill:rgb(206,212,218);"/>
        </g>
        <g transform="matrix(1.23632,0,0,0.786178,-68.2584,40.4738)">
            <path d="M324.975,197.735L287.996,197.735L287.996,219.349C287.996,220.463 288.278,221.531 288.778,222.318C289.279,223.105 289.958,223.547 290.666,223.547C297.485,223.547 315.487,223.547 322.306,223.547C323.014,223.547 323.693,223.105 324.194,222.318C324.694,221.531 324.975,220.463 324.975,219.349C324.975,212.037 324.975,197.735 324.975,197.735Z" style="fill:rgb(85,194,255);"/>
        </g>
        <g transform="matrix(0.510437,0,0,0.510437,245.319,124.536)">
            <path d="M128,139.865L128,179.622L166.317,179.622C168.032,179.622 169.677,178.941 170.889,177.728C172.102,176.516 172.783,174.871 172.783,173.156C172.783,161.894 172.783,139.865 172.783,139.865L128,139.865Z" style="fill:rgb(60,168,246);"/>
        </g>
        <g transform="matrix(1,0,0,1,1.78097,2.51867)">
            <circle cx="308.874" cy="175.132" r="11.072" style="fill:rgb(92,136,172);"/>
        </g>
        <g transform="matrix(0.768231,0,0,0.768231,73.3684,43.1088)">
            <circle cx="308.874" cy="175.132" r="11.072" style="fill:rgb(116,192,252);"/>
        </g>
        <g transform="matrix(0.218879,0,0,0.218879,239.537,137.185)">
            <circle cx="308.874" cy="175.132" r="11.072" style="fill:white;"/>
        </g>
    </g>
</svg>
