<?xml version="1.0" encoding="UTF-8" standalone="no"?>
<!DOCTYPE svg PUBLIC "-//W3C//DTD SVG 1.1//EN" "http://www.w3.org/Graphics/SVG/1.1/DTD/svg11.dtd">
<svg width="100%" height="100%" viewBox="0 0 256 256" version="1.1" xmlns="http://www.w3.org/2000/svg" xmlns:xlink="http://www.w3.org/1999/xlink" xml:space="preserve" xmlns:serif="http://www.serif.com/" style="fill-rule:evenodd;clip-rule:evenodd;stroke-linejoin:round;stroke-miterlimit:2;">
    <g id="Scissors-" serif:id="Scissors " transform="matrix(2.20083,0,0,4.32507,-19677.2,1652.36)">
        <g>
            <g transform="matrix(0.721113,0,0,0.366942,-1976.09,-1004.15)">
                <path d="M15173,1807.01C15178.7,1804.91 15184,1801.8 15188.6,1797.81C15195.6,1791.79 15204.1,1784.36 15204.1,1784.36L15212.1,1790.95C15212.1,1790.95 15204.7,1832.91 15204.7,1832.93C15204.7,1832.97 15204.7,1833 15204.7,1833.04C15202.9,1844.44 15193.1,1853.18 15181.2,1853.18C15168,1853.18 15157.4,1842.52 15157.4,1829.38C15157.4,1819.1 15163.9,1810.34 15173,1807.01ZM15181.2,1814.93C15189.1,1814.93 15195.6,1821.4 15195.6,1829.38C15195.6,1837.35 15189.1,1843.83 15181.2,1843.83C15173.2,1843.83 15166.7,1837.35 15166.7,1829.38C15166.7,1821.4 15173.2,1814.93 15181.2,1814.93Z" style="fill:rgb(255,218,82);"/>
            </g>
            <g transform="matrix(0.721113,0,0,0.366942,-1976.09,-1004.15)">
                <path d="M15242.1,1702.41C15242.4,1700.87 15241.4,1699.39 15239.9,1698.98C15238.4,1698.57 15236.8,1699.36 15236.3,1700.82C15223.5,1733.86 15204.1,1784.36 15204.1,1784.36L15212.1,1791.12C15212.1,1791.12 15219.4,1788.11 15224.2,1786.11C15226.8,1785.03 15228.7,1782.66 15229.2,1779.85C15231.3,1767 15237.6,1729.41 15242.1,1702.41Z" style="fill:rgb(222,226,230);"/>
            </g>
        </g>
        <g transform="matrix(-1,0,0,1,17997.9,0)">
            <g transform="matrix(0.721113,0,0,0.366942,-1976.09,-1004.15)">
                <path d="M15173,1807.01C15178.7,1804.91 15184,1801.8 15188.6,1797.81C15195.6,1791.79 15204.1,1784.36 15204.1,1784.36L15212.1,1790.95C15212.1,1790.95 15204.7,1832.91 15204.7,1832.93C15204.7,1832.97 15204.7,1833 15204.7,1833.04C15202.9,1844.44 15193.1,1853.18 15181.2,1853.18C15168,1853.18 15157.4,1842.52 15157.4,1829.38C15157.4,1819.1 15163.9,1810.34 15173,1807.01ZM15181.2,1814.93C15189.1,1814.93 15195.6,1821.4 15195.6,1829.38C15195.6,1837.35 15189.1,1843.83 15181.2,1843.83C15173.2,1843.83 15166.7,1837.35 15166.7,1829.38C15166.7,1821.4 15173.2,1814.93 15181.2,1814.93Z" style="fill:rgb(255,218,82);"/>
            </g>
            <g transform="matrix(0.721113,0,0,0.366942,-1976.09,-1004.15)">
                <path d="M15242.1,1702.41C15242.4,1700.87 15241.4,1699.39 15239.9,1698.98C15238.4,1698.57 15236.8,1699.36 15236.3,1700.82C15223.5,1733.86 15204.1,1784.36 15204.1,1784.36L15212.1,1791.12C15212.1,1791.12 15219.4,1788.11 15224.2,1786.11C15226.8,1785.03 15228.7,1782.66 15229.2,1779.85C15231.3,1767 15237.6,1729.41 15242.1,1702.41Z" style="fill:rgb(248,249,250);"/>
            </g>
        </g>
        <g transform="matrix(0.721113,0,0,0.366942,-1976.28,-1004.15)">
            <circle cx="15219.9" cy="1769.9" r="3.243" style="fill:rgb(222,226,230);"/>
        </g>
    </g>
</svg>
