<?xml version="1.0" encoding="UTF-8" standalone="no"?>
<!DOCTYPE svg PUBLIC "-//W3C//DTD SVG 1.1//EN" "http://www.w3.org/Graphics/SVG/1.1/DTD/svg11.dtd">
<svg width="100%" height="100%" viewBox="0 0 256 256" version="1.1" xmlns="http://www.w3.org/2000/svg" xmlns:xlink="http://www.w3.org/1999/xlink" xml:space="preserve" xmlns:serif="http://www.serif.com/" style="fill-rule:evenodd;clip-rule:evenodd;stroke-linejoin:round;stroke-miterlimit:2;">
    <g id="Settings" transform="matrix(1.17594,0,0,0.752057,-623.134,-209.606)">
        <g transform="matrix(0.944051,0,0,1.47614,514.705,264.709)">
            <path d="M147.204,16.786C136.725,15.252 126.077,15.252 115.597,16.786L111.899,40.647C102.626,42.796 93.773,46.464 85.696,51.5L66.208,37.243C57.714,43.569 50.185,51.098 43.859,59.593L58.116,79.081C53.079,87.157 49.412,96.011 47.262,105.283L23.401,108.982C21.868,119.462 21.868,130.109 23.401,140.589L47.262,144.288C49.412,153.56 53.079,162.414 58.116,170.49L43.859,189.978C50.185,198.473 57.714,206.002 66.208,212.328L85.696,198.071C93.773,203.108 102.626,206.775 111.899,208.924L115.597,232.785C126.077,234.319 136.725,234.319 147.204,232.785L150.903,208.924C160.176,206.775 169.029,203.108 177.106,198.071L196.593,212.328C205.088,206.002 212.617,198.473 218.943,189.978L204.686,170.49C209.723,162.414 213.39,153.56 215.539,144.288L239.401,140.589C240.934,130.109 240.934,119.462 239.401,108.982L215.539,105.283C213.39,96.011 209.723,87.157 204.686,79.081L218.943,59.593C212.617,51.098 205.088,43.569 196.593,37.243L177.106,51.5C169.029,46.464 160.176,42.796 150.903,40.647L147.204,16.786ZM131.401,97.413C146.508,97.413 158.773,109.678 158.773,124.786C158.773,139.893 146.508,152.158 131.401,152.158C116.294,152.158 104.029,139.893 104.029,124.786C104.029,109.678 116.294,97.413 131.401,97.413Z" style="fill:rgb(222,226,230);"/>
        </g>
        <g transform="matrix(0.202178,0,0,0.316131,540.498,297.815)">
            <path d="M485.986,123.051C681.861,123.051 840.886,282.076 840.886,477.951C840.886,673.826 681.861,832.852 485.986,832.852C290.111,832.852 131.085,673.826 131.085,477.951C131.085,282.076 290.111,123.051 485.986,123.051ZM485.986,300.501C583.923,300.501 663.436,380.014 663.436,477.951C663.436,575.889 583.923,655.402 485.986,655.402C388.048,655.402 308.536,575.889 308.536,477.951C308.536,380.014 388.048,300.501 485.986,300.501Z" style="fill:white;"/>
        </g>
    </g>
</svg>
