<?xml version="1.0" encoding="UTF-8" standalone="no"?>
<!DOCTYPE svg PUBLIC "-//W3C//DTD SVG 1.1//EN" "http://www.w3.org/Graphics/SVG/1.1/DTD/svg11.dtd">
<svg width="100%" height="100%" viewBox="0 0 256 256" version="1.1" xmlns="http://www.w3.org/2000/svg" xmlns:xlink="http://www.w3.org/1999/xlink" xml:space="preserve" xmlns:serif="http://www.serif.com/" style="fill-rule:evenodd;clip-rule:evenodd;stroke-linejoin:round;stroke-miterlimit:2;">
    <g id="Shield-Blue" serif:id="Shield Blue" transform="matrix(1.72198,0,0,1.62943,-10265.2,-234.1)">
        <g transform="matrix(0.317437,0,0,0.335467,2950.44,-79.483)">
            <path d="M9731.15,683.882C9724.44,677.321 9713.72,677.303 9706.99,683.841C9706.99,683.841 9633.35,755.991 9546.57,754.139C9537.01,753.935 9529.1,761.515 9528.9,771.069C9523.33,1032.02 9713.04,1118.2 9713.04,1118.2C9717.67,1120.33 9722.99,1120.31 9727.61,1118.16C9727.61,1118.16 9914.77,1032 9909.2,771.069C9909,761.659 9901.31,754.135 9891.9,754.135C9802.57,754.135 9731.15,683.882 9731.15,683.882Z" style="fill:white;"/>
        </g>
        <g transform="matrix(0.580727,0,0,0.61371,5961.3,143.67)">
            <path d="M229.144,51.358L128,132.224L128,248.461C129.589,248.574 131.2,248.286 132.678,247.596C132.678,247.596 234.983,200.501 231.939,57.87C231.885,55.321 230.826,53.025 229.144,51.358Z" style="fill:rgb(171,181,190);"/>
        </g>
        <g transform="matrix(0.580727,0,0,0.61371,5961.3,143.67)">
            <path d="M128,132.224L26.855,51.357C25.175,53.023 24.115,55.317 24.06,57.87C21.016,200.51 124.716,247.617 124.716,247.617C125.763,248.099 126.876,248.38 128,248.461L128,132.224Z" style="fill:rgb(221,226,230);"/>
        </g>
        <g transform="matrix(0.580727,0,0,0.61371,5961.3,143.67)">
            <path d="M128,7.515L128,132.77L229.442,51.666C227.712,49.788 225.232,48.613 222.483,48.613C173.656,48.613 134.613,10.212 134.613,10.212C132.775,8.414 130.388,7.515 128,7.515Z" style="fill:rgb(206,212,218);"/>
        </g>
        <g transform="matrix(0.266553,0,0,0.281692,3444.99,-31.1202)">
            <path d="M9719.05,696.253C9719.05,696.253 9795.92,771.438 9891.9,771.438C9897.2,1019.82 9720.28,1102.48 9720.28,1102.48C9720.28,1102.48 9540.9,1019.82 9546.2,771.438C9639.6,773.432 9719.05,696.253 9719.05,696.253Z" style="fill:rgb(85,194,255);"/>
        </g>
        <g transform="matrix(0.580727,0,0,0.61371,5961.3,143.67)">
            <path d="M128,34.771C128.127,34.895 163.364,69.281 207.337,69.281C209.771,183.289 128.566,221.229 128.566,221.229C128.566,221.229 128.371,221.139 128,220.955L128,34.771Z" style="fill:rgb(32,151,222);"/>
        </g>
    </g>
</svg>
