<?xml version="1.0" encoding="UTF-8" standalone="no"?>
<!DOCTYPE svg PUBLIC "-//W3C//DTD SVG 1.1//EN" "http://www.w3.org/Graphics/SVG/1.1/DTD/svg11.dtd">
<svg width="100%" height="100%" viewBox="0 0 256 256" version="1.1" xmlns="http://www.w3.org/2000/svg" xmlns:xlink="http://www.w3.org/1999/xlink" xml:space="preserve" xmlns:serif="http://www.serif.com/" style="fill-rule:evenodd;clip-rule:evenodd;stroke-linejoin:round;stroke-miterlimit:2;">
    <g id="Shield-Wooden" serif:id="Shield Wooden" transform="matrix(1.75401,0,0,1.65974,-11031.8,-972.05)">
        <g transform="matrix(0.466952,0,0,0.493473,2779.05,103.902)">
            <path d="M7753.63,1171.19C7779.53,1171.19 7800.55,1192.21 7800.55,1218.1C7800.55,1243.99 7779.53,1265.01 7753.63,1265.01C7727.74,1265.01 7706.72,1243.99 7706.72,1218.1C7706.72,1192.21 7727.74,1171.19 7753.63,1171.19ZM7753.63,1186.23C7771.22,1186.23 7785.51,1200.51 7785.51,1218.1C7785.51,1235.69 7771.22,1249.97 7753.63,1249.97C7736.04,1249.97 7721.76,1235.69 7721.76,1218.1C7721.76,1200.51 7736.04,1186.23 7753.63,1186.23Z" style="fill:rgb(50,58,65);"/>
        </g>
        <g transform="matrix(1,0,0,1,2.96596,0)">
            <g transform="matrix(0.620512,0,0,0.655755,1587.01,-93.7219)">
                <path d="M7600.72,1087.92C7600.71,1079.94 7605.66,1072.8 7613.14,1070.02C7632.57,1062.79 7669.46,1049.07 7684.51,1043.47C7688.79,1041.87 7693.51,1041.87 7697.8,1043.47C7712.86,1049.07 7749.78,1062.8 7769.2,1070.03C7776.67,1072.81 7781.62,1079.93 7781.62,1087.9L7781.62,1164.25C7781.62,1204.73 7743.22,1249.84 7702.76,1263.1C7695.34,1265.56 7687.35,1265.65 7679.87,1263.36C7638.34,1250.75 7600.34,1207.71 7600.69,1164.25C7600.83,1146.5 7600.77,1108.22 7600.72,1087.92Z" style="fill:rgb(207,110,83);"/>
            </g>
            <g transform="matrix(0.570122,0,0,0.602504,6286.49,585.663)">
                <path d="M186.358,27.107L212.555,36.854L212.555,186.381C201.573,205.43 185.046,222.687 166.491,234.619L128,234.619L128,27.107L186.358,27.107Z" style="fill:rgb(181,87,72);"/>
            </g>
            <g transform="matrix(0.620512,0,0,0.655755,1587.01,-93.7219)">
                <rect x="7648.48" y="1068.26" width="4.646" height="156.017" style="fill:rgb(181,87,72);"/>
            </g>
            <g transform="matrix(0.620512,0,0,0.655755,1636.27,-93.7219)">
                <rect x="7648.48" y="1068.26" width="4.646" height="156.017" style="fill:rgb(148,70,59);"/>
            </g>
            <g transform="matrix(0.620512,0,0,0.801362,1612.05,-254.064)">
                <rect x="7648.48" y="1068.26" width="4.646" height="156.017" style="fill:rgb(148,70,59);"/>
            </g>
            <g transform="matrix(0.620512,0,0,0.655755,1587.01,-93.7219)">
                <path d="M7600.72,1087.92C7600.71,1079.94 7605.66,1072.8 7613.14,1070.02C7632.57,1062.79 7669.46,1049.07 7684.51,1043.47C7688.79,1041.87 7693.51,1041.87 7697.8,1043.47C7712.86,1049.07 7749.78,1062.8 7769.2,1070.03C7776.67,1072.81 7781.62,1079.93 7781.62,1087.9L7781.62,1164.25C7781.62,1204.73 7743.22,1249.84 7702.76,1263.1C7695.34,1265.56 7687.35,1265.65 7679.87,1263.36C7638.34,1250.75 7600.34,1207.71 7600.69,1164.25C7600.83,1146.5 7600.77,1108.22 7600.72,1087.92ZM7758.95,1090.4L7691.15,1065.18L7623.39,1090.39C7623.44,1111.26 7623.49,1147.34 7623.36,1164.43C7623.08,1198.6 7653.81,1231.76 7686.52,1241.68C7689.5,1242.6 7692.68,1242.56 7695.7,1241.56C7727.66,1231.09 7758.95,1196.23 7758.95,1164.25L7758.95,1090.4Z" style="fill:rgb(205,212,219);"/>
                <clipPath id="_clip1">
                    <path d="M7600.72,1087.92C7600.71,1079.94 7605.66,1072.8 7613.14,1070.02C7632.57,1062.79 7669.46,1049.07 7684.51,1043.47C7688.79,1041.87 7693.51,1041.87 7697.8,1043.47C7712.86,1049.07 7749.78,1062.8 7769.2,1070.03C7776.67,1072.81 7781.62,1079.93 7781.62,1087.9L7781.62,1164.25C7781.62,1204.73 7743.22,1249.84 7702.76,1263.1C7695.34,1265.56 7687.35,1265.65 7679.87,1263.36C7638.34,1250.75 7600.34,1207.71 7600.69,1164.25C7600.83,1146.5 7600.77,1108.22 7600.72,1087.92ZM7758.95,1090.4L7691.15,1065.18L7623.39,1090.39C7623.44,1111.26 7623.49,1147.34 7623.36,1164.43C7623.08,1198.6 7653.81,1231.76 7686.52,1241.68C7689.5,1242.6 7692.68,1242.56 7695.7,1241.56C7727.66,1231.09 7758.95,1196.23 7758.95,1164.25L7758.95,1090.4Z"/>
                </clipPath>
                <g clip-path="url(#_clip1)">
                    <g transform="matrix(1,0,0,1,-629.525,-433.739)">
                        <rect x="8320.68" y="1454.03" width="100.025" height="252.332" style="fill:rgb(171,181,190);"/>
                    </g>
                </g>
            </g>
        </g>
    </g>
</svg>
