<?xml version="1.0" encoding="UTF-8" standalone="no"?>
<!DOCTYPE svg PUBLIC "-//W3C//DTD SVG 1.1//EN" "http://www.w3.org/Graphics/SVG/1.1/DTD/svg11.dtd">
<svg width="100%" height="100%" viewBox="0 0 256 256" version="1.1" xmlns="http://www.w3.org/2000/svg" xmlns:xlink="http://www.w3.org/1999/xlink" xml:space="preserve" xmlns:serif="http://www.serif.com/" style="fill-rule:evenodd;clip-rule:evenodd;stroke-linejoin:round;stroke-miterlimit:2;">
    <g id="Shovel" transform="matrix(2.11078,2.11078,-1.99734,1.99734,-12006.3,-14246.1)">
        <g transform="matrix(0.305674,0,0,0.655755,3968.21,-93.7219)">
            <rect x="7549.85" y="940.922" width="26.751" height="73.528" style="fill:rgb(214,139,67);"/>
        </g>
        <g transform="matrix(0.222974,0,4.95982e-17,0.703901,4593.69,-132.611)">
            <rect x="7563.23" y="930.056" width="18.32" height="70.255" style="fill:rgb(184,97,64);"/>
        </g>
        <g transform="matrix(0.405345,2.52053e-17,-2.38507e-17,-0.22255,3217.97,711.409)">
            <path d="M7548.6,816.216C7550.1,813.212 7552.17,811.514 7554.34,811.514C7556.51,811.514 7558.58,813.212 7560.08,816.216C7560.08,816.216 7568.44,832.94 7577.03,850.104C7582.37,860.793 7583.88,876.592 7580.86,890.242C7577.85,903.893 7570.88,912.754 7563.18,912.754C7557.4,912.754 7551.28,912.754 7545.5,912.754C7537.8,912.754 7530.84,903.893 7527.82,890.242C7524.8,876.592 7526.31,860.793 7531.65,850.104C7540.24,832.94 7548.6,816.216 7548.6,816.216ZM7554.34,848.97L7565.54,871.376C7566.46,873.202 7566.71,875.901 7566.2,878.233C7565.68,880.565 7564.49,882.078 7563.18,882.078C7557.4,882.078 7551.28,882.078 7545.5,882.078C7544.19,882.078 7543,880.565 7542.48,878.233C7541.97,875.901 7542.22,873.202 7543.14,871.376L7554.34,848.97Z" style="fill:rgb(214,139,67);"/>
        </g>
        <g transform="matrix(0.236879,-0.250333,0.236879,0.250333,6218.64,560.698)">
            <path d="M234.406,24.996L220.77,38.631L228.32,46.181C229.446,47.307 229.791,48.998 229.195,50.475C228.6,51.953 227.179,52.932 225.586,52.962L206.065,53.336L189.404,69.997C191.256,71.844 193.779,72.858 196.395,72.808C196.395,72.808 210.983,72.529 225.956,72.242C235.279,72.063 243.595,66.333 247.081,57.684C250.567,49.034 248.549,39.139 241.955,32.545L234.406,24.996Z" style="fill:rgb(184,97,64);"/>
        </g>
        <g transform="matrix(0.620512,0,0,0.655755,1618.41,-122.428)">
            <path d="M7540.68,1055.44C7543.2,1055.78 7545.64,1056.54 7547.33,1058.44C7549.02,1060.34 7549.54,1062.85 7549.54,1065.39C7549.54,1083.04 7542.76,1119.38 7512.62,1119.38C7482.5,1119.38 7475.72,1083.04 7475.72,1065.19C7475.72,1062.64 7476.25,1060.12 7477.95,1058.22C7479.66,1056.33 7482.11,1055.57 7484.63,1055.26C7492.91,1054.22 7512.62,1051.75 7512.62,1051.75C7512.62,1051.75 7532.86,1054.42 7540.68,1055.44Z" style="fill:rgb(123,142,159);"/>
        </g>
        <g transform="matrix(0.236879,-0.250333,0.236879,0.250333,6218.64,560.698)">
            <path d="M116.571,142.807C116.571,142.807 139.59,172.798 148.478,184.378C151.346,188.115 153.541,192.314 153.271,197.016C153.002,201.718 150.396,205.693 147.065,209.024C123.947,232.142 67.472,270.848 28.001,231.377C28.001,231.377 116.571,142.807 116.571,142.807Z" style="fill:rgb(196,212,226);"/>
        </g>
        <g transform="matrix(0.425341,0,0,0.315947,3063.14,259.121)">
            <path d="M7576.6,950.437C7576.6,945.186 7573.6,940.922 7569.91,940.922L7556.54,940.922C7552.85,940.922 7549.85,945.186 7549.85,950.437L7549.85,1004.94C7549.85,1010.19 7552.85,1014.45 7556.54,1014.45L7569.91,1014.45C7573.6,1014.45 7576.6,1010.19 7576.6,1004.94L7576.6,950.437Z" style="fill:rgb(196,212,226);"/>
            <clipPath id="_clip1">
                <path d="M7576.6,950.437C7576.6,945.186 7573.6,940.922 7569.91,940.922L7556.54,940.922C7552.85,940.922 7549.85,945.186 7549.85,950.437L7549.85,1004.94C7549.85,1010.19 7552.85,1014.45 7556.54,1014.45L7569.91,1014.45C7573.6,1014.45 7576.6,1010.19 7576.6,1004.94L7576.6,950.437Z"/>
            </clipPath>
            <g clip-path="url(#_clip1)">
                <g transform="matrix(1.01925,0,0,1.6341,-145.61,-583.711)">
                    <rect x="7563.23" y="930.056" width="18.32" height="70.255" style="fill:rgb(123,142,159);"/>
                </g>
            </g>
        </g>
    </g>
</svg>
