<?xml version="1.0" encoding="UTF-8" standalone="no"?>
<!DOCTYPE svg PUBLIC "-//W3C//DTD SVG 1.1//EN" "http://www.w3.org/Graphics/SVG/1.1/DTD/svg11.dtd">
<svg width="100%" height="100%" viewBox="0 0 256 256" version="1.1" xmlns="http://www.w3.org/2000/svg" xmlns:xlink="http://www.w3.org/1999/xlink" xml:space="preserve" xmlns:serif="http://www.serif.com/" style="fill-rule:evenodd;clip-rule:evenodd;stroke-linejoin:round;stroke-miterlimit:2;">
    <g id="Skull" transform="matrix(1.03681,0,0,1.03681,-4.71223,-1.81751)">
        <g>
            <g transform="matrix(1,0,0,1,0,-5.58388)">
                <path d="M144.061,161.929C145.61,154.48 152.217,148.875 160.123,148.875C169.177,148.875 176.527,156.226 176.527,165.28L176.527,231.298C176.527,240.351 169.177,247.702 160.123,247.702C152.217,247.702 145.61,242.097 144.061,234.648C142.513,242.097 135.906,247.702 128,247.702C120.094,247.702 113.487,242.097 111.939,234.648C110.39,242.097 103.783,247.702 95.877,247.702C86.823,247.702 79.473,240.351 79.473,231.298L79.473,165.28C79.473,156.226 86.823,148.875 95.877,148.875C103.783,148.875 110.39,154.48 111.939,161.929C113.487,154.48 120.094,148.875 128,148.875C135.906,148.875 142.513,154.48 144.061,161.929Z" style="fill:white;"/>
            </g>
            <g transform="matrix(0.964493,0,0,0.964493,4.54492,1.75298)">
                <path d="M178.314,178.795L178.314,232.206C178.314,241.593 170.693,249.214 161.305,249.214C153.108,249.214 146.258,243.403 144.653,235.679C143.047,243.403 136.197,249.214 128,249.214C127.902,249.214 127.803,249.213 127.705,249.211L127.705,178.795L178.314,178.795Z" style="fill:rgb(206,212,218);"/>
            </g>
            <g transform="matrix(3.76221,0,0,3.36743,-1349.2,-2460.78)">
                <path d="M392.641,733.223C409.083,733.223 422.433,746.286 422.433,765.239C422.433,784.192 409.083,792.806 392.641,792.806C376.198,792.806 362.849,786.21 362.849,765.239C362.849,744.268 376.198,733.223 392.641,733.223Z" style="fill:white;"/>
            </g>
            <g transform="matrix(0.964493,0,0,0.964493,4.54492,1.75298)">
                <path d="M127.705,6.787L128,6.786C192.138,6.786 244.21,52.394 244.21,118.567C244.21,184.74 192.138,214.817 128,214.817L127.705,214.816L127.705,6.787Z" style="fill:rgb(206,212,218);"/>
            </g>
        </g>
        <g transform="matrix(3.30789,0,0,3.30789,2056.28,90.1878)">
            <g transform="matrix(0.755364,0.436109,-0.486502,0.842646,-515.049,-799.135)">
                <circle cx="378.987" cy="761.728" r="10.373" style="fill:rgb(52,58,64);"/>
            </g>
            <g transform="matrix(0.755364,-0.436109,0.486502,0.842646,-1223.36,-468.575)">
                <circle cx="378.987" cy="761.728" r="10.373" style="fill:rgb(52,58,64);"/>
            </g>
        </g>
        <g transform="matrix(2.16534,0,0,2.16534,-724.2,-1534.68)">
            <path d="M390.948,776.539C391.444,775.548 392.456,774.923 393.564,774.923C394.671,774.923 395.684,775.548 396.179,776.539C397.36,778.902 398.738,781.658 399.853,783.888C400.306,784.794 400.258,785.871 399.725,786.733C399.192,787.595 398.251,788.119 397.238,788.119C394.94,788.119 392.187,788.119 389.889,788.119C388.876,788.119 387.935,787.595 387.402,786.733C386.869,785.871 386.821,784.794 387.274,783.888C388.389,781.658 389.767,778.902 390.948,776.539Z" style="fill:rgb(52,58,64);"/>
        </g>
        <g transform="matrix(1,0,0,1,0,-1.19176)">
            <circle cx="85.612" cy="110.86" r="7.715" style="fill:rgb(248,249,250);"/>
        </g>
        <g transform="matrix(1,0,0,1,84.1908,10.9493)">
            <circle cx="85.612" cy="110.86" r="7.715" style="fill:rgb(248,249,250);"/>
        </g>
    </g>
</svg>
