<?xml version="1.0" encoding="UTF-8" standalone="no"?>
<!DOCTYPE svg PUBLIC "-//W3C//DTD SVG 1.1//EN" "http://www.w3.org/Graphics/SVG/1.1/DTD/svg11.dtd">
<svg width="100%" height="100%" viewBox="0 0 256 256" version="1.1" xmlns="http://www.w3.org/2000/svg" xmlns:xlink="http://www.w3.org/1999/xlink" xml:space="preserve" xmlns:serif="http://www.serif.com/" style="fill-rule:evenodd;clip-rule:evenodd;stroke-linecap:round;stroke-linejoin:round;stroke-miterlimit:1.5;">
    <g id="Soccer-Ball" serif:id="Soccer Ball" transform="matrix(4.61487,0,0,4.61487,-163.024,-530.922)">
        <g transform="matrix(1,0,0,1,-0.00790791,-1.21274)">
            <circle cx="63.07" cy="143.995" r="26.266" style="fill:rgb(241,243,245);"/>
            <clipPath id="_clip1">
                <circle cx="63.07" cy="143.995" r="26.266"/>
            </clipPath>
            <g clip-path="url(#_clip1)">
                <g transform="matrix(1,0,0,1,103.396,1.77669)">
                    <path d="M-42.871,133.495C-41.353,132.392 -39.298,132.392 -37.78,133.495C-36.033,134.765 -33.723,136.443 -31.975,137.713C-30.458,138.815 -29.823,140.77 -30.402,142.554C-31.07,144.608 -31.952,147.324 -32.62,149.378C-33.199,151.162 -34.862,152.37 -36.738,152.37L-43.913,152.37C-45.789,152.37 -47.452,151.162 -48.031,149.378C-48.699,147.324 -49.581,144.608 -50.249,142.554C-50.828,140.77 -50.193,138.815 -48.676,137.713C-46.928,136.443 -44.618,134.765 -42.871,133.495Z" style="fill:rgb(52,58,64);"/>
                </g>
                <g transform="matrix(0.216691,0,0,0.216691,35.3337,116.259)">
                    <path d="M161.899,244.402L171.463,214.968C174.138,206.734 181.811,201.16 190.468,201.16L223.581,201.16C223.924,201.16 224.267,201.169 224.607,201.186C209.075,221.651 187.191,237.038 161.899,244.402ZM31.393,201.186C31.733,201.169 32.076,201.16 32.419,201.16L65.532,201.16C74.189,201.16 81.862,206.734 84.537,214.968L94.101,244.402C68.811,237.038 46.927,221.65 31.393,201.186ZM224.599,54.803C240.044,75.147 249.214,100.511 249.214,128C249.214,129.632 249.182,131.257 249.117,132.875C248.373,132.468 247.649,132.011 246.949,131.503C238.885,125.644 228.224,117.898 220.16,112.039C213.156,106.951 210.226,97.931 212.901,89.698C215.981,80.218 220.053,67.685 223.133,58.205C223.521,57.012 224.013,55.875 224.599,54.803ZM31.401,54.803C31.987,55.875 32.479,57.012 32.867,58.205C35.947,67.685 40.019,80.218 43.099,89.698C45.774,97.931 42.844,106.951 35.84,112.039C27.776,117.898 17.115,125.644 9.051,131.503C8.351,132.011 7.627,132.468 6.883,132.875C6.818,131.257 6.786,129.632 6.786,128C6.786,100.511 15.956,75.147 31.401,54.803ZM83.498,15.229C97.278,9.78 112.292,6.786 128,6.786C143.708,6.786 158.722,9.78 172.502,15.229C171.106,17.905 169.092,20.287 166.535,22.145C158.471,28.004 147.81,35.749 139.746,41.608C132.742,46.697 123.258,46.697 116.254,41.608C108.19,35.749 97.529,28.004 89.465,22.145C86.908,20.287 84.894,17.905 83.498,15.229Z" style="fill:rgb(52,58,64);"/>
                </g>
                <g transform="matrix(0.216691,0,0,0.216691,35.3337,116.259)">
                    <path d="M127.597,6.787L128,6.786C194.9,6.786 249.214,61.1 249.214,128C249.214,194.9 194.9,249.214 128,249.214L127.597,249.213L127.597,6.787Z" style="fill:rgb(52,58,64);fill-opacity:0.2;"/>
                </g>
            </g>
        </g>
        <g>
            <g transform="matrix(1,0,0,1,-0.770695,-1.05856)">
                <path d="M63.731,124.254L63.731,136.741" style="fill:none;stroke:rgb(52,58,64);stroke-width:1.41px;"/>
            </g>
            <g transform="matrix(1,0,0,1,-18.7816,1.92772)">
                <path d="M73.076,139.004L62.401,134.644" style="fill:none;stroke:rgb(52,58,64);stroke-width:1.41px;"/>
            </g>
            <g transform="matrix(-1,0,0,1,145.485,1.72363)">
                <path d="M73.076,139.004L62.401,134.644" style="fill:none;stroke:rgb(52,58,64);stroke-width:1.41px;"/>
            </g>
            <g transform="matrix(-1,0,0,-1,141.493,291.065)">
                <path d="M72.988,139.722L67.436,131.867" style="fill:none;stroke:rgb(52,58,64);stroke-width:1.41px;"/>
            </g>
            <g transform="matrix(1,0,0,-1,-15.3764,291.206)">
                <path d="M72.988,139.722L67.436,131.867" style="fill:none;stroke:rgb(52,58,64);stroke-width:1.41px;"/>
            </g>
        </g>
        <g transform="matrix(0.226617,0,0,0.226617,35.6899,113.599)">
            <circle cx="74.847" cy="67.623" r="20.403" style="fill:white;"/>
        </g>
    </g>
</svg>
