<?xml version="1.0" encoding="UTF-8" standalone="no"?>
<!DOCTYPE svg PUBLIC "-//W3C//DTD SVG 1.1//EN" "http://www.w3.org/Graphics/SVG/1.1/DTD/svg11.dtd">
<svg width="100%" height="100%" viewBox="0 0 256 256" version="1.1" xmlns="http://www.w3.org/2000/svg" xmlns:xlink="http://www.w3.org/1999/xlink" xml:space="preserve" xmlns:serif="http://www.serif.com/" style="fill-rule:evenodd;clip-rule:evenodd;stroke-linejoin:round;stroke-miterlimit:2;">
    <g id="Sound---Yellow" serif:id="Sound - Yellow" transform="matrix(1,0,0,1,8.52651e-14,0.169323)">
        <g transform="matrix(1,0,0,1,0,-7.90305)">
            <circle cx="149.614" cy="135.734" r="32.043" style="fill:rgb(255,236,153);"/>
        </g>
        <g transform="matrix(1.07645e-16,-1.73404,1.45875,8.8107e-17,-103.924,317.748)">
            <path d="M109.523,79.414L158.57,177.508L60.476,177.508L109.523,79.414Z" style="fill:rgb(248,249,250);"/>
        </g>
        <g transform="matrix(0.853798,0,0,1.13337,-34.3772,0.548335)">
            <path d="M138.773,74.421L96.5,74.421C73.169,74.421 54.227,88.691 54.227,106.267L54.227,118.341C54.227,135.917 73.169,150.187 96.5,150.187L138.773,150.187L138.773,74.421Z" style="fill:rgb(255,224,73);"/>
        </g>
        <g transform="matrix(0.92684,0,0,1.20022,-28.5209,5.17515)">
            <path d="M208.545,35.005C208.545,30.521 203.831,26.88 198.024,26.88C192.217,26.88 187.503,30.521 187.503,35.005L187.503,169.383C187.503,173.867 192.217,177.508 198.024,177.508C203.831,177.508 208.545,173.867 208.545,169.383L208.545,35.005Z" style="fill:rgb(255,212,59);"/>
        </g>
        <g id="Radio-Wave" serif:id="Radio Wave" transform="matrix(6.56933,4.04885e-31,-8.09769e-32,6.56933,-1463.95,-271.258)">
            <path d="M251.283,68.71C251.021,68.71 250.764,68.58 250.616,68.343C250.388,67.978 250.501,67.498 250.868,67.272C252.876,66.034 254.123,63.535 254.123,60.751C254.123,57.966 252.876,55.468 250.868,54.231C250.501,54.003 250.388,53.524 250.616,53.158C250.844,52.794 251.326,52.684 251.695,52.908C254.159,54.428 255.689,57.433 255.689,60.751C255.689,64.068 254.159,67.074 251.695,68.594C251.566,68.672 251.424,68.71 251.283,68.71ZM253.932,72C253.67,72 253.413,71.87 253.265,71.633C253.037,71.268 253.15,70.788 253.517,70.562C256.549,68.691 258.433,64.932 258.433,60.751C258.433,56.57 256.549,52.81 253.517,50.939C253.15,50.712 253.037,50.233 253.265,49.867C253.493,49.502 253.975,49.392 254.344,49.617C257.833,51.77 260,56.035 260,60.751C260,65.465 257.833,69.731 254.344,71.884C254.215,71.962 254.073,72 253.932,72Z" style="fill:white;"/>
        </g>
    </g>
</svg>
