<?xml version="1.0" encoding="UTF-8" standalone="no"?>
<!DOCTYPE svg PUBLIC "-//W3C//DTD SVG 1.1//EN" "http://www.w3.org/Graphics/SVG/1.1/DTD/svg11.dtd">
<svg width="100%" height="100%" viewBox="0 0 256 256" version="1.1" xmlns="http://www.w3.org/2000/svg" xmlns:xlink="http://www.w3.org/1999/xlink" xml:space="preserve" xmlns:serif="http://www.serif.com/" style="fill-rule:evenodd;clip-rule:evenodd;stroke-linejoin:round;stroke-miterlimit:2;">
    <g id="Speech-Bubble---Colored" serif:id="Speech Bubble - Colored" transform="matrix(4.89739,0,0,4.63418,-21898.9,-4102.43)">
        <g transform="matrix(0.329706,0,0,0.348433,2835.98,401.049)">
            <path d="M5019.85,1516.5C4989.05,1515.37 4964.4,1490.01 4964.4,1458.94C4964.4,1427.16 4990.2,1401.35 5021.99,1401.35L5057.97,1401.35C5089.76,1401.35 5115.57,1427.16 5115.57,1458.94C5115.57,1490.01 5090.91,1515.37 5060.11,1516.5L5045.78,1533.81C5044.35,1535.53 5042.22,1536.53 5039.98,1536.53C5037.74,1536.53 5035.61,1535.53 5034.18,1533.81L5019.85,1516.5Z" style="fill:white;"/>
        </g>
        <g transform="matrix(0.204191,0,0,0.215788,4471.56,885.255)">
            <path d="M128.356,18.861L157.051,18.861C208.376,18.861 250.046,60.531 250.046,111.856C250.046,162.022 210.238,202.963 160.509,204.788L137.362,232.736C135.128,235.433 131.844,237.031 128.356,237.133L128.356,18.861Z" style="fill:rgb(232,236,239);"/>
        </g>
    </g>
</svg>
