<?xml version="1.0" encoding="UTF-8" standalone="no"?>
<!DOCTYPE svg PUBLIC "-//W3C//DTD SVG 1.1//EN" "http://www.w3.org/Graphics/SVG/1.1/DTD/svg11.dtd">
<svg width="100%" height="100%" viewBox="0 0 256 256" version="1.1" xmlns="http://www.w3.org/2000/svg" xmlns:xlink="http://www.w3.org/1999/xlink" xml:space="preserve" xmlns:serif="http://www.serif.com/" style="fill-rule:evenodd;clip-rule:evenodd;stroke-linejoin:round;stroke-miterlimit:2;">
    <g id="SpeechBubble" transform="matrix(0.943588,0,0,0.943588,3.30883,-218.551)">
        <path d="M62.017,430.855C58.903,453.709 50.593,475.351 36.964,495.753C67.333,487.872 93.359,474.306 115.7,455.916L62.017,430.855Z" style="fill:white;"/>
        <g transform="matrix(0.925826,0,0,0.925826,9.80175,26.0845)">
            <ellipse cx="132.146" cy="351.667" rx="133.848" ry="121.925" style="fill:white;"/>
            <clipPath id="_clip1">
                <ellipse cx="132.146" cy="351.667" rx="133.848" ry="121.925"/>
            </clipPath>
            <g clip-path="url(#_clip1)">
                <g transform="matrix(1.08012,0,0,1.08012,-46.0734,191.788)">
                    <rect x="164.503" y="11.398" width="141.009" height="259.879" style="fill:rgb(243,246,249);"/>
                </g>
            </g>
        </g>
        <g transform="matrix(1,0,0,1,-0.909804,7.47915)">
            <g transform="matrix(0.837995,0,0,0.837995,14.9832,47.9992)">
                <circle cx="95.101" cy="353.449" r="27.362" style="fill:rgb(136,189,210);"/>
            </g>
            <g transform="matrix(0.837995,0,0,0.837995,91.7399,47.9992)">
                <circle cx="95.101" cy="353.449" r="27.362" style="fill:rgb(136,183,210);"/>
            </g>
        </g>
    </g>
</svg>
