<?xml version="1.0" encoding="UTF-8" standalone="no"?>
<!DOCTYPE svg PUBLIC "-//W3C//DTD SVG 1.1//EN" "http://www.w3.org/Graphics/SVG/1.1/DTD/svg11.dtd">
<svg width="100%" height="100%" viewBox="0 0 256 256" version="1.1" xmlns="http://www.w3.org/2000/svg" xmlns:xlink="http://www.w3.org/1999/xlink" xml:space="preserve" xmlns:serif="http://www.serif.com/" style="fill-rule:evenodd;clip-rule:evenodd;stroke-linejoin:round;stroke-miterlimit:2;">
    <g id="Spiked-Chain" serif:id="Spiked Chain" transform="matrix(1.76863,1.76863,-2.69708,2.69708,-6246.8,-12054.1)">
        <g transform="matrix(-3.71115e-16,-3.288,6.58182,3.51398e-15,-16643.5,1812.57)">
            <g>
                <g transform="matrix(0.149505,-1.54074e-33,2.46519e-32,0.113893,-447.756,2394.11)">
                    <path d="M4474.43,8172.88C4471.29,8172.88 4468.52,8173.99 4466.8,8175.65C4465.51,8176.89 4464.78,8178.42 4464.78,8180.07C4464.78,8181.72 4465.51,8183.26 4466.8,8184.49C4468.52,8186.15 4471.29,8187.26 4474.43,8187.26C4477.56,8187.26 4480.33,8186.15 4482.06,8184.49C4483.34,8183.26 4484.07,8181.72 4484.07,8180.07C4484.07,8178.42 4483.34,8176.89 4482.06,8175.65C4480.33,8173.99 4477.56,8172.88 4474.43,8172.88ZM4474.43,8175.55C4476.79,8175.55 4478.91,8176.32 4480.21,8177.57C4480.94,8178.28 4481.4,8179.13 4481.4,8180.07C4481.4,8181.01 4480.94,8181.86 4480.21,8182.57C4478.91,8183.82 4476.79,8184.6 4474.43,8184.6C4472.06,8184.6 4469.94,8183.82 4468.64,8182.57C4467.91,8181.86 4467.45,8181.01 4467.45,8180.07C4467.45,8179.13 4467.91,8178.28 4468.64,8177.57C4469.94,8176.32 4472.06,8175.55 4474.43,8175.55Z" style="fill:rgb(132,142,151);"/>
                </g>
                <g transform="matrix(0.149505,-1.54074e-33,2.46519e-32,0.113893,-447.756,2394.11)">
                    <path d="M4467.45,8180.07C4467.45,8179.13 4467.91,8178.28 4468.64,8177.57C4469.94,8176.32 4472.06,8175.55 4474.43,8175.55C4476.79,8175.55 4478.91,8176.32 4480.21,8177.57C4480.94,8178.28 4481.4,8179.13 4481.4,8180.07C4481.4,8180.81 4482,8181.4 4482.74,8181.4C4483.47,8181.4 4484.07,8180.81 4484.07,8180.07C4484.07,8178.42 4483.34,8176.89 4482.06,8175.65C4480.33,8173.99 4477.56,8172.88 4474.43,8172.88C4471.29,8172.88 4468.52,8173.99 4466.8,8175.65C4465.51,8176.89 4464.78,8178.42 4464.78,8180.07C4464.78,8180.81 4465.38,8181.4 4466.11,8181.4C4466.85,8181.4 4467.45,8180.81 4467.45,8180.07Z" style="fill:rgb(171,181,190);"/>
                </g>
            </g>
            <g transform="matrix(1,7.39557e-32,1.18329e-30,1,-1.8461,4.54747e-13)">
                <g transform="matrix(0.149505,-1.54074e-33,2.46519e-32,0.113893,-447.756,2394.11)">
                    <path d="M4474.43,8172.88C4471.29,8172.88 4468.52,8173.99 4466.8,8175.65C4465.51,8176.89 4464.78,8178.42 4464.78,8180.07C4464.78,8181.72 4465.51,8183.26 4466.8,8184.49C4468.52,8186.15 4471.29,8187.26 4474.43,8187.26C4477.56,8187.26 4480.33,8186.15 4482.06,8184.49C4483.34,8183.26 4484.07,8181.72 4484.07,8180.07C4484.07,8178.42 4483.34,8176.89 4482.06,8175.65C4480.33,8173.99 4477.56,8172.88 4474.43,8172.88ZM4474.43,8175.55C4476.79,8175.55 4478.91,8176.32 4480.21,8177.57C4480.94,8178.28 4481.4,8179.13 4481.4,8180.07C4481.4,8181.01 4480.94,8181.86 4480.21,8182.57C4478.91,8183.82 4476.79,8184.6 4474.43,8184.6C4472.06,8184.6 4469.94,8183.82 4468.64,8182.57C4467.91,8181.86 4467.45,8181.01 4467.45,8180.07C4467.45,8179.13 4467.91,8178.28 4468.64,8177.57C4469.94,8176.32 4472.06,8175.55 4474.43,8175.55Z" style="fill:rgb(132,142,151);"/>
                </g>
                <g transform="matrix(0.149505,-1.54074e-33,2.46519e-32,0.113893,-447.756,2394.11)">
                    <path d="M4467.45,8180.07C4467.45,8179.13 4467.91,8178.28 4468.64,8177.57C4469.94,8176.32 4472.06,8175.55 4474.43,8175.55C4476.79,8175.55 4478.91,8176.32 4480.21,8177.57C4480.94,8178.28 4481.4,8179.13 4481.4,8180.07C4481.4,8180.81 4482,8181.4 4482.74,8181.4C4483.47,8181.4 4484.07,8180.81 4484.07,8180.07C4484.07,8178.42 4483.34,8176.89 4482.06,8175.65C4480.33,8173.99 4477.56,8172.88 4474.43,8172.88C4471.29,8172.88 4468.52,8173.99 4466.8,8175.65C4465.51,8176.89 4464.78,8178.42 4464.78,8180.07C4464.78,8180.81 4465.38,8181.4 4466.11,8181.4C4466.85,8181.4 4467.45,8180.81 4467.45,8180.07Z" style="fill:rgb(171,181,190);"/>
                </g>
            </g>
            <g transform="matrix(1,7.39557e-32,1.18329e-30,1,1.88606,4.54747e-13)">
                <g transform="matrix(0.149505,-1.54074e-33,2.46519e-32,0.113893,-447.756,2394.11)">
                    <path d="M4474.43,8172.88C4471.29,8172.88 4468.52,8173.99 4466.8,8175.65C4465.51,8176.89 4464.78,8178.42 4464.78,8180.07C4464.78,8181.72 4465.51,8183.26 4466.8,8184.49C4468.52,8186.15 4471.29,8187.26 4474.43,8187.26C4477.56,8187.26 4480.33,8186.15 4482.06,8184.49C4483.34,8183.26 4484.07,8181.72 4484.07,8180.07C4484.07,8178.42 4483.34,8176.89 4482.06,8175.65C4480.33,8173.99 4477.56,8172.88 4474.43,8172.88ZM4474.43,8175.55C4476.79,8175.55 4478.91,8176.32 4480.21,8177.57C4480.94,8178.28 4481.4,8179.13 4481.4,8180.07C4481.4,8181.01 4480.94,8181.86 4480.21,8182.57C4478.91,8183.82 4476.79,8184.6 4474.43,8184.6C4472.06,8184.6 4469.94,8183.82 4468.64,8182.57C4467.91,8181.86 4467.45,8181.01 4467.45,8180.07C4467.45,8179.13 4467.91,8178.28 4468.64,8177.57C4469.94,8176.32 4472.06,8175.55 4474.43,8175.55Z" style="fill:rgb(132,142,151);"/>
                </g>
                <g transform="matrix(0.149505,-1.54074e-33,2.46519e-32,0.113893,-447.756,2394.11)">
                    <path d="M4467.45,8180.07C4467.45,8179.13 4467.91,8178.28 4468.64,8177.57C4469.94,8176.32 4472.06,8175.55 4474.43,8175.55C4476.79,8175.55 4478.91,8176.32 4480.21,8177.57C4480.94,8178.28 4481.4,8179.13 4481.4,8180.07C4481.4,8180.81 4482,8181.4 4482.74,8181.4C4483.47,8181.4 4484.07,8180.81 4484.07,8180.07C4484.07,8178.42 4483.34,8176.89 4482.06,8175.65C4480.33,8173.99 4477.56,8172.88 4474.43,8172.88C4471.29,8172.88 4468.52,8173.99 4466.8,8175.65C4465.51,8176.89 4464.78,8178.42 4464.78,8180.07C4464.78,8180.81 4465.38,8181.4 4466.11,8181.4C4466.85,8181.4 4467.45,8180.81 4467.45,8180.07Z" style="fill:rgb(171,181,190);"/>
                </g>
            </g>
            <g transform="matrix(0.348354,1.58448e-17,-1.1579e-16,0.148224,-1332.98,2113.39)">
                <path d="M4450.2,8176.1C4450.2,8174.28 4449.38,8172.8 4448.36,8172.8L4437.82,8172.8C4436.8,8172.8 4435.97,8174.28 4435.97,8176.1L4435.97,8182.71C4435.97,8184.53 4436.8,8186.01 4437.82,8186.01L4448.36,8186.01C4449.38,8186.01 4450.2,8184.53 4450.2,8182.71L4450.2,8176.1Z" style="fill:rgb(152,72,61);"/>
            </g>
            <g transform="matrix(0.0563825,0.0429525,-0.0563825,0.0429525,223.84,3314.77)">
                <path d="M76.778,193.714L69.814,186.75L26.075,230.489L31.49,235.904C34.634,239.049 39.74,239.049 42.884,235.904L75.443,203.346C78.05,200.739 78.495,196.782 76.778,193.714Z" style="fill:rgb(133,55,47);"/>
            </g>
            <g transform="matrix(1.70213e-16,0.159267,-0.209065,-1.17881e-17,597.255,2491.84)">
                <circle cx="5236.07" cy="1816.05" r="2.038" style="fill:rgb(132,142,151);"/>
            </g>
        </g>
        <g transform="matrix(0.650387,0,0,0.650387,1846.62,361.663)">
            <g transform="matrix(0.470247,0,0,0.308367,2812.99,615.834)">
                <path d="M5128.81,1401.05C5129.71,1399.44 5131.41,1398.45 5133.24,1398.45C5135.09,1398.45 5136.78,1399.44 5137.68,1401.05L5152.27,1427.14L5179.42,1414.61C5181.09,1413.84 5183.05,1414.03 5184.53,1415.11C5186.02,1416.19 5186.81,1418 5186.59,1419.82L5183.06,1449.51L5212.39,1455.33C5214.19,1455.69 5215.66,1456.99 5216.23,1458.74C5216.8,1460.49 5216.38,1462.41 5215.13,1463.76L5194.82,1485.71L5215.13,1507.65C5216.38,1509 5216.8,1510.92 5216.23,1512.67C5215.66,1514.42 5214.19,1515.73 5212.39,1516.08L5183.06,1521.9L5186.59,1551.59C5186.81,1553.42 5186.02,1555.22 5184.53,1556.3C5183.05,1557.38 5181.09,1557.57 5179.42,1556.8L5152.27,1544.27L5137.68,1570.37C5136.78,1571.97 5135.09,1572.97 5133.24,1572.97C5131.41,1572.97 5129.71,1571.97 5128.81,1570.37L5114.22,1544.27L5087.07,1556.8C5085.4,1557.57 5083.44,1557.38 5081.96,1556.3C5080.47,1555.22 5079.68,1553.42 5079.9,1551.59L5083.43,1521.9L5054.1,1516.08C5052.3,1515.73 5050.82,1514.42 5050.26,1512.67C5049.69,1510.92 5050.11,1509 5051.36,1507.65L5071.67,1485.71L5051.36,1463.76C5050.11,1462.41 5049.69,1460.49 5050.26,1458.74C5050.82,1456.99 5052.3,1455.69 5054.1,1455.33L5083.43,1449.51L5079.9,1419.82C5079.68,1418 5080.47,1416.19 5081.96,1415.11C5083.44,1414.03 5085.4,1413.84 5087.07,1414.61L5114.22,1427.14L5128.81,1401.05Z" style="fill:white;"/>
            </g>
            <g transform="matrix(0.434672,-0.285038,0.434672,0.285038,5115.61,1099.22)">
                <path d="M219.815,36.89C220.56,37.855 220.814,39.126 220.477,40.319L214.256,62.33L235.72,70.234C237.04,70.72 237.995,71.883 238.215,73.272C238.435,74.662 237.886,76.063 236.781,76.933L218.81,91.083L231.529,110.094C232.311,111.264 232.4,112.765 231.761,114.019C231.122,115.273 229.855,116.083 228.449,116.138L205.593,117.022L204.709,139.878C204.654,141.285 203.844,142.552 202.59,143.19C201.336,143.829 199.835,143.74 198.665,142.958L179.654,130.239L165.504,148.21C164.633,149.316 163.233,149.864 161.843,149.644C160.453,149.424 159.291,148.469 158.805,147.149L150.9,125.685L128.89,131.906C127.697,132.243 126.426,131.99 125.461,131.244L219.815,36.89Z" style="fill:rgb(132,142,151);"/>
            </g>
            <g transform="matrix(-1.21647e-16,-1.07777,1.64355,8.7748e-16,-8217.57,5930.56)">
                <circle cx="4506.15" cy="8180.12" r="19.712" style="fill:rgb(205,212,219);"/>
            </g>
            <g transform="matrix(0.434672,-0.285038,0.434672,0.285038,5115.61,1099.22)">
                <path d="M209.9,46.798C230.121,67.396 230.004,100.531 209.553,120.982C189.102,141.433 155.967,141.55 135.369,121.329L209.9,46.798Z" style="fill:rgb(144,158,169);"/>
            </g>
            <g transform="matrix(-9.84846e-17,-0.872552,1.33061,7.104e-16,-5657.62,5005.82)">
                <circle cx="4506.15" cy="8180.12" r="19.712" style="fill:rgb(221,226,230);"/>
            </g>
            <g transform="matrix(0.434672,-0.285038,0.434672,0.285038,5115.61,1099.22)">
                <path d="M202.804,53.895C219.108,70.573 218.992,97.35 202.457,113.886C185.921,130.421 159.144,130.537 142.465,114.233L202.804,53.895Z" style="fill:rgb(167,179,189);"/>
            </g>
            <g transform="matrix(-1.96681e-17,-0.174255,0.265732,1.41872e-16,3042.83,1851.89)">
                <circle cx="4506.15" cy="8180.12" r="19.712" style="fill:rgb(248,249,250);"/>
            </g>
        </g>
        <g transform="matrix(0.754138,0.132509,-0.258819,0.633411,1711.72,-760.675)">
            <path d="M5326.64,1830.74C5326.64,1829.7 5325.56,1828.86 5324.23,1828.86L5305.73,1828.86C5304.41,1828.86 5303.33,1829.7 5303.33,1830.74C5303.33,1831.78 5304.41,1832.62 5305.73,1832.62L5324.23,1832.62C5325.56,1832.62 5326.64,1831.78 5326.64,1830.74Z" style="fill:rgb(128,55,48);"/>
        </g>
        <g transform="matrix(0.282705,-0.185385,0.282705,0.185385,5173.75,1076.58)">
            <path d="M59.804,196.76L52.931,203.633L61.125,217.826C62.421,220.07 65.294,220.84 67.538,219.545C69.782,218.249 70.552,215.375 69.257,213.131L59.804,196.76Z" style="fill:rgb(112,43,40);"/>
        </g>
        <g transform="matrix(0.754138,0.132509,-0.258819,0.633411,1711.72,-754.373)">
            <path d="M5326.64,1830.74C5326.64,1829.7 5325.56,1828.86 5324.23,1828.86L5305.73,1828.86C5304.41,1828.86 5303.33,1829.7 5303.33,1830.74C5303.33,1831.78 5304.41,1832.62 5305.73,1832.62L5324.23,1832.62C5325.56,1832.62 5326.64,1831.78 5326.64,1830.74Z" style="fill:rgb(128,55,48);"/>
        </g>
        <g transform="matrix(0.282705,-0.185385,0.282705,0.185385,5173.75,1076.58)">
            <path d="M42.809,213.755L35.935,220.629L44.13,234.822C45.425,237.066 48.299,237.836 50.543,236.54C52.787,235.244 53.557,232.371 52.261,230.127L42.809,213.755Z" style="fill:rgb(112,43,40);"/>
        </g>
    </g>
</svg>
