<?xml version="1.0" encoding="UTF-8" standalone="no"?>
<!DOCTYPE svg PUBLIC "-//W3C//DTD SVG 1.1//EN" "http://www.w3.org/Graphics/SVG/1.1/DTD/svg11.dtd">
<svg width="100%" height="100%" viewBox="0 0 256 256" version="1.1" xmlns="http://www.w3.org/2000/svg" xmlns:xlink="http://www.w3.org/1999/xlink" xml:space="preserve" xmlns:serif="http://www.serif.com/" style="fill-rule:evenodd;clip-rule:evenodd;stroke-linecap:round;stroke-linejoin:round;stroke-miterlimit:1.5;">
    <g id="Star--Face-" serif:id="Star (Face)" transform="matrix(3.0472,0,0,3.0472,-2943.28,-94.6708)">
        <path d="M998.33,40.218C1000.2,36.668 1003.89,34.447 1007.9,34.447C1011.92,34.447 1015.6,36.668 1017.48,40.218L1024.39,53.316L1038.98,55.845C1042.94,56.531 1046.19,59.348 1047.43,63.166C1048.67,66.983 1047.7,71.174 1044.9,74.053L1034.58,84.677L1036.68,99.338C1037.25,103.311 1035.58,107.274 1032.33,109.633C1029.08,111.993 1024.8,112.361 1021.2,110.591L1007.9,104.059L994.609,110.591C991.006,112.361 986.72,111.993 983.473,109.633C980.226,107.274 978.551,103.311 979.121,99.338L981.225,84.677L970.905,74.053C968.108,71.174 967.134,66.983 968.375,63.166C969.615,59.348 972.866,56.531 976.821,55.845L991.415,53.316L998.33,40.218Z" style="fill:rgb(255,212,59);"/>
        <clipPath id="_clip1">
            <path d="M998.33,40.218C1000.2,36.668 1003.89,34.447 1007.9,34.447C1011.92,34.447 1015.6,36.668 1017.48,40.218L1024.39,53.316L1038.98,55.845C1042.94,56.531 1046.19,59.348 1047.43,63.166C1048.67,66.983 1047.7,71.174 1044.9,74.053L1034.58,84.677L1036.68,99.338C1037.25,103.311 1035.58,107.274 1032.33,109.633C1029.08,111.993 1024.8,112.361 1021.2,110.591L1007.9,104.059L994.609,110.591C991.006,112.361 986.72,111.993 983.473,109.633C980.226,107.274 978.551,103.311 979.121,99.338L981.225,84.677L970.905,74.053C968.108,71.174 967.134,66.983 968.375,63.166C969.615,59.348 972.866,56.531 976.821,55.845L991.415,53.316L998.33,40.218Z"/>
        </clipPath>
        <g clip-path="url(#_clip1)">
            <g transform="matrix(0.237749,0,0,0.237749,966.415,31.5867)">
                <rect x="174.665" y="-18.736" width="232.764" height="362.724" style="fill:rgb(252,196,25);fill-opacity:0.49;"/>
            </g>
            <g transform="matrix(0.833631,0,0,0.833631,-3156.95,-692.345)">
                <g transform="matrix(1,0,0,1,6.68065,0)">
                    <g transform="matrix(1,0,0,1,10.6694,-93.7219)">
                        <circle cx="4965.19" cy="1006.27" r="3.19" style="fill:rgb(49,56,63);"/>
                    </g>
                    <g transform="matrix(1.69245,0.453492,-0.353675,1.31993,-3074.28,-2657.34)">
                        <circle cx="4965.19" cy="1006.27" r="3.19" style="fill:rgb(255,140,182);"/>
                    </g>
                </g>
                <g transform="matrix(1,0,0,1,33.6972,0)">
                    <g transform="matrix(1,0,0,1,10.6694,-93.7219)">
                        <circle cx="4965.19" cy="1006.27" r="3.19" style="fill:rgb(49,56,63);"/>
                    </g>
                    <g transform="matrix(1.69245,-0.453492,0.353675,1.31993,-3780.72,1846)">
                        <circle cx="4965.19" cy="1006.27" r="3.19" style="fill:rgb(255,140,182);"/>
                    </g>
                </g>
                <g transform="matrix(1,0,0,1,10.451,-91.3117)">
                    <path d="M4979.24,1010.67C4982.57,1014 4988.61,1014 4991.94,1010.67" style="fill:none;stroke:rgb(202,109,119);stroke-width:1.78px;"/>
                </g>
            </g>
        </g>
    </g>
</svg>
