<?xml version="1.0" encoding="UTF-8" standalone="no"?>
<!DOCTYPE svg PUBLIC "-//W3C//DTD SVG 1.1//EN" "http://www.w3.org/Graphics/SVG/1.1/DTD/svg11.dtd">
<svg width="100%" height="100%" viewBox="0 0 256 256" version="1.1" xmlns="http://www.w3.org/2000/svg" xmlns:xlink="http://www.w3.org/1999/xlink" xml:space="preserve" xmlns:serif="http://www.serif.com/" style="fill-rule:evenodd;clip-rule:evenodd;stroke-linejoin:round;stroke-miterlimit:2;">
    <g id="Star-Basic" serif:id="Star Basic" transform="matrix(3.0472,0,0,3.0472,-2943.28,-94.6708)">
        <path d="M998.33,40.218C1000.2,36.668 1003.89,34.447 1007.9,34.447C1011.92,34.447 1015.6,36.668 1017.48,40.218L1024.39,53.316L1038.98,55.845C1042.94,56.531 1046.19,59.348 1047.43,63.166C1048.67,66.983 1047.7,71.174 1044.9,74.053L1034.58,84.677L1036.68,99.338C1037.25,103.311 1035.58,107.274 1032.33,109.633C1029.08,111.993 1024.8,112.361 1021.2,110.591L1007.9,104.059L994.609,110.591C991.006,112.361 986.72,111.993 983.473,109.633C980.226,107.274 978.551,103.311 979.121,99.338L981.225,84.677L970.905,74.053C968.108,71.174 967.134,66.983 968.375,63.166C969.615,59.348 972.866,56.531 976.821,55.845L991.415,53.316L998.33,40.218Z" style="fill:rgb(255,212,59);"/>
        <clipPath id="_clip1">
            <path d="M998.33,40.218C1000.2,36.668 1003.89,34.447 1007.9,34.447C1011.92,34.447 1015.6,36.668 1017.48,40.218L1024.39,53.316L1038.98,55.845C1042.94,56.531 1046.19,59.348 1047.43,63.166C1048.67,66.983 1047.7,71.174 1044.9,74.053L1034.58,84.677L1036.68,99.338C1037.25,103.311 1035.58,107.274 1032.33,109.633C1029.08,111.993 1024.8,112.361 1021.2,110.591L1007.9,104.059L994.609,110.591C991.006,112.361 986.72,111.993 983.473,109.633C980.226,107.274 978.551,103.311 979.121,99.338L981.225,84.677L970.905,74.053C968.108,71.174 967.134,66.983 968.375,63.166C969.615,59.348 972.866,56.531 976.821,55.845L991.415,53.316L998.33,40.218Z"/>
        </clipPath>
        <g clip-path="url(#_clip1)">
            <g id="Star-Basic1" serif:id="Star Basic" transform="matrix(0.32817,0,0,0.32817,965.897,31.0681)">
                <path d="M128.12,10.297C140.305,10.342 151.477,17.101 157.168,27.881L178.24,67.794L222.711,75.501C234.763,77.59 244.669,86.175 248.448,97.808C252.228,109.44 249.26,122.209 240.738,130.983L209.29,163.357L215.703,208.033C217.441,220.14 212.336,232.214 202.441,239.404C192.546,246.593 179.485,247.716 168.508,242.322L128.12,222.477L128.12,10.297Z" style="fill:rgb(255,193,22);"/>
            </g>
        </g>
    </g>
</svg>
