<?xml version="1.0" encoding="UTF-8" standalone="no"?>
<!DOCTYPE svg PUBLIC "-//W3C//DTD SVG 1.1//EN" "http://www.w3.org/Graphics/SVG/1.1/DTD/svg11.dtd">
<svg width="100%" height="100%" viewBox="0 0 256 256" version="1.1" xmlns="http://www.w3.org/2000/svg" xmlns:xlink="http://www.w3.org/1999/xlink" xml:space="preserve" xmlns:serif="http://www.serif.com/" style="fill-rule:evenodd;clip-rule:evenodd;stroke-linejoin:round;stroke-miterlimit:2;">
    <g id="Statistics" transform="matrix(2.66704,0,0,2.5237,-15686.6,-1854.25)">
        <g transform="matrix(0.743657,0,0,0.617389,730.89,-39.5243)">
            <path d="M6961.46,1376C6961.46,1369.42 6957.27,1364.09 6952.1,1364.09C6946.94,1364.09 6942.75,1369.42 6942.75,1376L6942.75,1400.71C6942.75,1407.29 6946.94,1412.62 6952.1,1412.62C6957.27,1412.62 6961.46,1407.29 6961.46,1400.71L6961.46,1376Z" style="fill:rgb(234,93,98);"/>
        </g>
        <g transform="matrix(0.744204,0,0,0.873556,746.281,-401.393)">
            <path d="M6961.46,1372.51C6961.46,1367.86 6957.27,1364.09 6952.1,1364.09C6946.94,1364.09 6942.75,1367.86 6942.75,1372.51L6942.75,1404.2C6942.75,1408.85 6946.94,1412.62 6952.1,1412.62C6957.27,1412.62 6961.46,1408.85 6961.46,1404.2L6961.46,1372.51Z" style="fill:rgb(252,223,60);"/>
        </g>
        <g transform="matrix(0.744204,0,0,1.07766,765.469,-689.711)">
            <path d="M6961.46,1370.92C6961.46,1367.15 6957.27,1364.09 6952.1,1364.09C6946.94,1364.09 6942.75,1367.15 6942.75,1370.92L6942.75,1405.8C6942.75,1409.57 6946.94,1412.62 6952.1,1412.62C6957.27,1412.62 6961.46,1409.57 6961.46,1405.8L6961.46,1370.92Z" style="fill:rgb(0,200,99);"/>
        </g>
        <g transform="matrix(0.744204,0,0,0.873556,784.656,-401.393)">
            <path d="M6961.46,1372.51C6961.46,1367.86 6957.27,1364.09 6952.1,1364.09C6946.94,1364.09 6942.75,1367.86 6942.75,1372.51L6942.75,1404.2C6942.75,1408.85 6946.94,1412.62 6952.1,1412.62C6957.27,1412.62 6961.46,1408.85 6961.46,1404.2L6961.46,1372.51Z" style="fill:rgb(97,184,252);"/>
        </g>
        <g transform="matrix(0.620512,0,0,0.655755,1587.01,-93.7219)">
            <path d="M7003.4,1302.14L7026.49,1279.05L7039.71,1292.27C7039.71,1292.27 7018.44,1313.54 7012.61,1319.37C7011.67,1320.31 7010.4,1320.84 7009.07,1320.84C7002.33,1320.84 6981.41,1320.84 6981.41,1320.84C6981.41,1320.84 6968.33,1333.92 6961.86,1340.39C6959.91,1342.34 6956.74,1342.34 6954.79,1340.39C6952.89,1338.48 6950.54,1336.14 6948.64,1334.24C6946.69,1332.28 6946.69,1329.12 6948.64,1327.16C6954.94,1320.86 6967.86,1307.95 6972.2,1303.6C6973.14,1302.66 6974.41,1302.14 6975.74,1302.14C6982.49,1302.14 7003.4,1302.14 7003.4,1302.14Z" style="fill:rgb(171,181,190);"/>
        </g>
        <g transform="matrix(0.956636,1.01097,-0.51356,0.542729,-83.5523,-7042.35)">
            <path d="M7006.69,1284.41C7006.95,1283.89 7007.32,1283.59 7007.7,1283.59C7008.08,1283.59 7008.45,1283.89 7008.71,1284.41C7010.68,1288.35 7015.07,1297.14 7017.73,1302.45C7018.1,1303.2 7018.2,1304.29 7017.98,1305.22C7017.77,1306.16 7017.27,1306.76 7016.72,1306.76L6998.68,1306.76C6998.13,1306.76 6997.64,1306.16 6997.42,1305.22C6997.2,1304.29 6997.3,1303.2 6997.67,1302.45C7000.33,1297.14 7004.73,1288.35 7006.69,1284.41Z" style="fill:rgb(171,181,190);"/>
        </g>
    </g>
</svg>
