<?xml version="1.0" encoding="UTF-8" standalone="no"?>
<!DOCTYPE svg PUBLIC "-//W3C//DTD SVG 1.1//EN" "http://www.w3.org/Graphics/SVG/1.1/DTD/svg11.dtd">
<svg width="100%" height="100%" viewBox="0 0 256 256" version="1.1" xmlns="http://www.w3.org/2000/svg" xmlns:xlink="http://www.w3.org/1999/xlink" xml:space="preserve" xmlns:serif="http://www.serif.com/" style="fill-rule:evenodd;clip-rule:evenodd;stroke-linecap:round;stroke-linejoin:round;stroke-miterlimit:1.5;">
    <g id="Stick---Cat-Yellow" serif:id="Stick - Cat Yellow" transform="matrix(2.76601,0,0,2.33735,-14329.1,-4862.57)">
        <g transform="matrix(1.10638,2.33856e-16,-4.22482e-17,1.23892,-864.731,1792.81)">
            <g transform="matrix(0.647408,0,0,0.479871,-56.5891,1.9934)">
                <path d="M8597.66,579.905L8579.44,579.905L8579.44,644.208C8579.44,651.377 8583.53,657.197 8588.55,657.197C8593.58,657.197 8597.66,651.377 8597.66,644.208L8597.66,579.905Z" style="fill:rgb(164,92,81);"/>
                <clipPath id="_clip1">
                    <path d="M8597.66,579.905L8579.44,579.905L8579.44,644.208C8579.44,651.377 8583.53,657.197 8588.55,657.197C8593.58,657.197 8597.66,651.377 8597.66,644.208L8597.66,579.905Z"/>
                </clipPath>
                <g clip-path="url(#_clip1)">
                    <g transform="matrix(0.757801,-1.75757e-16,-1.2655e-16,0.0998171,8457.99,600.551)">
                        <rect x="164.25" y="74.013" width="24.125" height="206.262" style="fill:rgb(130,80,73);"/>
                    </g>
                </g>
            </g>
            <g transform="matrix(0.54821,0,0,0.401644,5433.54,214.542)">
                <path d="M142.874,167.269C142.874,161.348 139.541,156.541 135.437,156.541L120.563,156.541C116.459,156.541 113.126,161.348 113.126,167.269L113.126,204.316C113.126,210.237 116.459,215.043 120.563,215.043L135.437,215.043C139.541,215.043 142.874,210.237 142.874,204.316L142.874,167.269Z" style="fill:rgb(255,212,59);"/>
                <clipPath id="_clip2">
                    <path d="M142.874,167.269C142.874,161.348 139.541,156.541 135.437,156.541L120.563,156.541C116.459,156.541 113.126,161.348 113.126,167.269L113.126,204.316C113.126,210.237 116.459,215.043 120.563,215.043L135.437,215.043C139.541,215.043 142.874,210.237 142.874,204.316L142.874,167.269Z"/>
                </clipPath>
                <g clip-path="url(#_clip2)">
                    <g transform="matrix(1.23184,-1.82323e-16,-2.85867e-17,0.149812,-85.468,155.159)">
                        <rect x="164.25" y="74.013" width="24.125" height="206.262" style="fill:rgb(252,196,25);"/>
                    </g>
                </g>
            </g>
            <g id="Rabbit-Hat-Pink" serif:id="Rabbit Hat Pink" transform="matrix(0.356931,-3.19852e-17,1.16966e-17,0.356931,3877.41,169.458)">
                <g transform="matrix(1.01304,-1.00438e-16,5.79821e-18,1.07057,-337.264,-159.4)">
                    <g transform="matrix(-0.679323,-0.392207,-0.431536,0.747442,5819.25,207.31)">
                        <g transform="matrix(1,0,0,1,-546.23,-81.3293)">
                            <path d="M1495.46,735.055C1517.23,735.055 1534.9,763.521 1534.9,785.29C1534.9,807.059 1517.23,824.733 1495.46,824.733C1473.69,824.733 1456.02,807.059 1456.02,785.29C1456.02,763.521 1473.69,735.055 1495.46,735.055Z" style="fill:rgb(255,212,59);"/>
                        </g>
                        <g transform="matrix(0.566334,0,0,0.566334,102.3,260.707)">
                            <path d="M1495.46,723.867C1517.23,723.867 1534.9,763.521 1534.9,785.29C1534.9,807.059 1517.23,824.733 1495.46,824.733C1473.69,824.733 1456.02,807.059 1456.02,785.29C1456.02,763.521 1473.69,723.867 1495.46,723.867Z" style="fill:rgb(255,158,6);"/>
                        </g>
                    </g>
                    <g transform="matrix(0.679323,-0.392207,0.431536,0.747442,3844.32,207.31)">
                        <g transform="matrix(1,0,0,1,-546.23,-81.3293)">
                            <path d="M1495.46,735.055C1517.23,735.055 1534.9,763.521 1534.9,785.29C1534.9,807.059 1517.23,824.733 1495.46,824.733C1473.69,824.733 1456.02,807.059 1456.02,785.29C1456.02,763.521 1473.69,735.055 1495.46,735.055Z" style="fill:rgb(255,212,59);"/>
                        </g>
                        <g transform="matrix(0.566334,0,0,0.566334,102.3,260.707)">
                            <path d="M1495.46,723.867C1517.23,723.867 1534.9,763.521 1534.9,785.29C1534.9,807.059 1517.23,824.733 1495.46,824.733C1473.69,824.733 1456.02,807.059 1456.02,785.29C1456.02,763.521 1473.69,723.867 1495.46,723.867Z" style="fill:rgb(255,158,6);"/>
                        </g>
                    </g>
                </g>
                <g transform="matrix(0.714737,4.40491e-32,2.65991e-33,0.690552,-1650.58,-150.936)">
                    <path d="M8685.84,523.293C8755.46,523.293 8786.29,570.731 8786.29,622.77C8786.29,674.808 8741.28,711.867 8685.84,711.867C8630.4,711.867 8585.38,674.808 8585.38,622.77C8585.38,570.731 8616.21,523.293 8685.84,523.293Z" style="fill:rgb(255,212,59);"/>
                </g>
                <g transform="matrix(0.620512,0,0,0.655755,4465.12,192.537)">
                    <circle cx="90.633" cy="69.103" r="9.688" style="fill:white;"/>
                </g>
                <g transform="matrix(1,2.46519e-32,1.54074e-33,1,-0.512545,-6.01785e-33)">
                    <g transform="matrix(0.81424,2.00726e-32,-4.88284e-17,0.860486,4451.64,174.853)">
                        <g transform="matrix(5.44249,-1.45831,1.13733,4.24456,-28088.4,3093.87)">
                            <circle cx="4965.19" cy="1006.27" r="3.19" style="fill:rgb(255,158,6);"/>
                        </g>
                        <g transform="matrix(5.44249,1.45831,-1.13733,4.24456,-25696.2,-11387.7)">
                            <circle cx="4965.19" cy="1006.27" r="3.19" style="fill:rgb(255,158,6);"/>
                        </g>
                    </g>
                    <g transform="matrix(1.30636,3.22042e-32,-7.41295e-17,1.30636,-1796.41,-604.879)">
                        <g transform="matrix(0.620512,0,8.08281e-33,0.655755,273.389,-95.8044)">
                            <path d="M7377.09,1174.92C7377.09,1188.43 7398.32,1188.43 7398.32,1174.92" style="fill:none;stroke:rgb(151,78,0);stroke-width:7.26px;"/>
                        </g>
                        <g transform="matrix(0.620512,1.2326e-32,0,0.655755,286.76,-95.8044)">
                            <path d="M7377.09,1174.92C7377.09,1188.43 7398.32,1188.43 7398.32,1174.92" style="fill:none;stroke:rgb(151,78,0);stroke-width:7.26px;"/>
                        </g>
                    </g>
                    <g transform="matrix(1.30636,5.68561e-32,-7.41295e-17,1.30636,-1797.13,-603.729)">
                        <g transform="matrix(0.453482,-4.49605e-17,2.979e-17,0.479238,4805.32,579.602)">
                            <circle cx="86.998" cy="174.87" r="10.068" style="fill:rgb(39,45,50);"/>
                        </g>
                        <g transform="matrix(0.453482,-4.49605e-17,2.979e-17,0.479238,4845.36,579.602)">
                            <circle cx="86.998" cy="174.87" r="10.068" style="fill:rgb(39,45,50);"/>
                        </g>
                    </g>
                </g>
            </g>
        </g>
        <g transform="matrix(0.326269,3.27401e-17,-3.45996e-17,0.386106,5183.8,2080.47)">
            <g transform="matrix(0.498814,-0.498814,0.498814,0.498814,-4574.49,4109.39)">
                <path d="M8683.14,507.897C8683.63,506.3 8685.11,505.212 8686.78,505.212C8688.46,505.212 8689.93,506.3 8690.43,507.897L8693.3,517.134L8702.54,520.007C8704.14,520.503 8705.23,521.981 8705.23,523.654C8705.23,525.326 8704.14,526.804 8702.54,527.301L8693.3,530.174L8690.43,539.41C8689.93,541.007 8688.46,542.095 8686.78,542.095C8685.11,542.095 8683.63,541.007 8683.14,539.41L8680.26,530.174L8671.03,527.301C8669.43,526.804 8668.34,525.326 8668.34,523.654C8668.34,521.981 8669.43,520.503 8671.03,520.007L8680.26,517.134L8683.14,507.897Z" style="fill:white;"/>
            </g>
            <g transform="matrix(-0.763038,-0.763038,-0.763038,0.763038,7275.48,6274.43)">
                <path d="M8683.14,507.897C8683.63,506.3 8685.11,505.212 8686.78,505.212C8688.46,505.212 8689.93,506.3 8690.43,507.897L8693.3,517.134L8702.54,520.007C8704.14,520.503 8705.23,521.981 8705.23,523.654C8705.23,525.326 8704.14,526.804 8702.54,527.301L8693.3,530.174L8690.43,539.41C8689.93,541.007 8688.46,542.095 8686.78,542.095C8685.11,542.095 8683.63,541.007 8683.14,539.41L8680.26,530.174L8671.03,527.301C8669.43,526.804 8668.34,525.326 8668.34,523.654C8668.34,521.981 8669.43,520.503 8671.03,520.007L8680.26,517.134L8683.14,507.897Z" style="fill:white;"/>
            </g>
            <g transform="matrix(0.622242,-0.622242,0.622242,0.622242,-5718.5,5207.44)">
                <path d="M8683.14,507.897C8683.63,506.3 8685.11,505.212 8686.78,505.212C8688.46,505.212 8689.93,506.3 8690.43,507.897L8693.3,517.134L8702.54,520.007C8704.14,520.503 8705.23,521.981 8705.23,523.654C8705.23,525.326 8704.14,526.804 8702.54,527.301L8693.3,530.174L8690.43,539.41C8689.93,541.007 8688.46,542.095 8686.78,542.095C8685.11,542.095 8683.63,541.007 8683.14,539.41L8680.26,530.174L8671.03,527.301C8669.43,526.804 8668.34,525.326 8668.34,523.654C8668.34,521.981 8669.43,520.503 8671.03,520.007L8680.26,517.134L8683.14,507.897Z" style="fill:white;"/>
            </g>
            <g transform="matrix(-0.577072,-0.577072,-0.577072,0.577072,5552.86,4838.71)">
                <path d="M8683.14,507.897C8683.63,506.3 8685.11,505.212 8686.78,505.212C8688.46,505.212 8689.93,506.3 8690.43,507.897L8693.3,517.134L8702.54,520.007C8704.14,520.503 8705.23,521.981 8705.23,523.654C8705.23,525.326 8704.14,526.804 8702.54,527.301L8693.3,530.174L8690.43,539.41C8689.93,541.007 8688.46,542.095 8686.78,542.095C8685.11,542.095 8683.63,541.007 8683.14,539.41L8680.26,530.174L8671.03,527.301C8669.43,526.804 8668.34,525.326 8668.34,523.654C8668.34,521.981 8669.43,520.503 8671.03,520.007L8680.26,517.134L8683.14,507.897Z" style="fill:white;"/>
            </g>
        </g>
    </g>
</svg>
