<?xml version="1.0" encoding="UTF-8" standalone="no"?>
<!DOCTYPE svg PUBLIC "-//W3C//DTD SVG 1.1//EN" "http://www.w3.org/Graphics/SVG/1.1/DTD/svg11.dtd">
<svg width="100%" height="100%" viewBox="0 0 256 256" version="1.1" xmlns="http://www.w3.org/2000/svg" xmlns:xlink="http://www.w3.org/1999/xlink" xml:space="preserve" xmlns:serif="http://www.serif.com/" style="fill-rule:evenodd;clip-rule:evenodd;stroke-linecap:round;stroke-linejoin:round;stroke-miterlimit:1.5;">
    <g id="Stick---Rabbit-Pink" serif:id="Stick - Rabbit Pink" transform="matrix(2.76601,0,0,2.33735,-14189.2,-4471.29)">
        <g transform="matrix(1.10638,2.33856e-16,-4.22482e-17,1.23892,-913.106,1627.67)">
            <g>
                <g transform="matrix(0.647408,0,0,0.479871,-56.5891,1.9934)">
                    <path d="M8597.66,579.905L8579.44,579.905L8579.44,644.208C8579.44,651.377 8583.53,657.197 8588.55,657.197C8593.58,657.197 8597.66,651.377 8597.66,644.208L8597.66,579.905Z" style="fill:rgb(164,92,81);"/>
                    <clipPath id="_clip1">
                        <path d="M8597.66,579.905L8579.44,579.905L8579.44,644.208C8579.44,651.377 8583.53,657.197 8588.55,657.197C8593.58,657.197 8597.66,651.377 8597.66,644.208L8597.66,579.905Z"/>
                    </clipPath>
                    <g clip-path="url(#_clip1)">
                        <g transform="matrix(0.755256,-1.75109e-16,-1.26116e-16,0.0998171,8455.39,600.551)">
                            <rect x="164.25" y="74.013" width="24.125" height="206.262" style="fill:rgb(130,80,73);"/>
                        </g>
                    </g>
                </g>
                <g transform="matrix(0.54821,0,0,0.401644,5433.54,214.542)">
                    <path d="M142.874,167.269C142.874,161.348 139.541,156.541 135.437,156.541L120.563,156.541C116.459,156.541 113.126,161.348 113.126,167.269L113.126,204.316C113.126,210.237 116.459,215.043 120.563,215.043L135.437,215.043C139.541,215.043 142.874,210.237 142.874,204.316L142.874,167.269Z" style="fill:rgb(255,157,193);"/>
                    <clipPath id="_clip2">
                        <path d="M142.874,167.269C142.874,161.348 139.541,156.541 135.437,156.541L120.563,156.541C116.459,156.541 113.126,161.348 113.126,167.269L113.126,204.316C113.126,210.237 116.459,215.043 120.563,215.043L135.437,215.043C139.541,215.043 142.874,210.237 142.874,204.316L142.874,167.269Z"/>
                    </clipPath>
                    <g clip-path="url(#_clip2)">
                        <g transform="matrix(1.22157,-1.79677e-16,-2.83134e-17,0.149812,-87.4143,155.159)">
                            <rect x="164.25" y="74.013" width="24.125" height="206.262" style="fill:rgb(247,131,172);"/>
                        </g>
                    </g>
                </g>
                <g id="Rabbit-Hat-Pink" serif:id="Rabbit Hat Pink" transform="matrix(0.356931,-3.19852e-17,1.16966e-17,0.356931,3877.41,169.458)">
                    <g transform="matrix(0.901098,0,0,0.853647,4450.41,160.457)">
                        <g transform="matrix(0.683772,0,0,0.815589,33.6819,3.3615)">
                            <g transform="matrix(0.906376,0,0,1.31121,5.53052,-4.83234)">
                                <path d="M116.235,30.969C116.235,22.447 105.533,15.528 92.35,15.528C79.168,15.528 68.465,22.447 68.465,30.969L68.465,120.252C68.465,128.775 79.168,135.694 92.35,135.694C105.533,135.694 116.235,128.775 116.235,120.252L116.235,30.969Z" style="fill:rgb(255,157,193);"/>
                            </g>
                            <g transform="matrix(0.392024,0,0,0.969599,53.0312,14.0619)">
                                <path d="M116.235,24.559C116.235,19.575 105.533,15.528 92.35,15.528C79.168,15.528 68.465,19.575 68.465,24.559L68.465,126.662C68.465,131.647 79.168,135.694 92.35,135.694C105.533,135.694 116.235,131.647 116.235,126.662L116.235,24.559Z" style="fill:rgb(230,73,128);"/>
                            </g>
                        </g>
                        <g transform="matrix(0.683772,0,0,0.815589,82.0075,3.3615)">
                            <g transform="matrix(0.906376,0,0,1.31121,5.53052,-4.83234)">
                                <path d="M116.235,30.969C116.235,22.447 105.533,15.528 92.35,15.528C79.168,15.528 68.465,22.447 68.465,30.969L68.465,120.252C68.465,128.775 79.168,135.694 92.35,135.694C105.533,135.694 116.235,128.775 116.235,120.252L116.235,30.969Z" style="fill:rgb(255,157,193);"/>
                            </g>
                            <g transform="matrix(0.392024,0,0,0.969599,53.0312,14.0619)">
                                <path d="M116.235,24.559C116.235,19.575 105.533,15.528 92.35,15.528C79.168,15.528 68.465,19.575 68.465,24.559L68.465,126.662C68.465,131.647 79.168,135.694 92.35,135.694C105.533,135.694 116.235,131.647 116.235,126.662L116.235,24.559Z" style="fill:rgb(230,73,128);"/>
                            </g>
                        </g>
                    </g>
                    <g transform="matrix(0.714737,0,0,0.690552,-1650.58,-150.936)">
                        <path d="M8685.84,523.293C8755.46,523.293 8786.29,570.731 8786.29,622.77C8786.29,674.808 8741.28,711.867 8685.84,711.867C8630.4,711.867 8585.38,674.808 8585.38,622.77C8585.38,570.731 8616.21,523.293 8685.84,523.293Z" style="fill:rgb(255,157,193);"/>
                    </g>
                    <g transform="matrix(0.620512,0,0,0.655755,4465.12,192.537)">
                        <circle cx="90.633" cy="69.103" r="9.688" style="fill:white;"/>
                    </g>
                    <g transform="matrix(1,0,0,1,0.0243188,0)">
                        <g transform="matrix(0.81424,0,-4.88284e-17,0.860486,4451.64,174.853)">
                            <g transform="matrix(5.44249,-1.45831,1.13733,4.24456,-28081,3110.91)">
                                <circle cx="4965.19" cy="1006.27" r="3.19" style="fill:rgb(240,101,149);"/>
                            </g>
                            <g transform="matrix(5.44249,1.45831,-1.13733,4.24456,-25705,-11370.7)">
                                <circle cx="4965.19" cy="1006.27" r="3.19" style="fill:rgb(240,101,149);"/>
                            </g>
                        </g>
                        <g transform="matrix(1.30636,0,-7.41295e-17,1.30636,-1795.86,-603.729)">
                            <g transform="matrix(0.620512,0,0,0.655755,273.389,-93.7219)">
                                <path d="M7343.63,1151.92L7363.55,1162.35L7343.63,1171.98" style="fill:none;stroke:rgb(41,47,51);stroke-width:7.26px;"/>
                            </g>
                            <g transform="matrix(-0.620512,0,0,0.655755,9453.42,-93.7219)">
                                <path d="M7343.63,1151.92L7363.55,1162.35L7343.63,1171.98" style="fill:none;stroke:rgb(41,47,51);stroke-width:7.26px;"/>
                            </g>
                            <g transform="matrix(0.620512,0,0,0.655755,273.389,-93.7219)">
                                <path d="M7377.09,1174.92C7377.09,1188.43 7398.32,1188.43 7398.32,1174.92" style="fill:none;stroke:rgb(145,32,72);stroke-width:7.26px;"/>
                            </g>
                            <g transform="matrix(0.620512,0,0,0.655755,286.76,-93.7219)">
                                <path d="M7377.09,1174.92C7377.09,1188.43 7398.32,1188.43 7398.32,1174.92" style="fill:none;stroke:rgb(145,32,72);stroke-width:7.26px;"/>
                            </g>
                        </g>
                    </g>
                </g>
            </g>
        </g>
        <g transform="matrix(0.326269,3.27401e-17,-3.45996e-17,0.386106,5135.43,1915.33)">
            <g transform="matrix(0.498814,-0.498814,0.498814,0.498814,-4544.5,4099.17)">
                <path d="M8683.14,507.897C8683.63,506.3 8685.11,505.212 8686.78,505.212C8688.46,505.212 8689.93,506.3 8690.43,507.897L8693.3,517.134L8702.54,520.007C8704.14,520.503 8705.23,521.981 8705.23,523.654C8705.23,525.326 8704.14,526.804 8702.54,527.301L8693.3,530.174L8690.43,539.41C8689.93,541.007 8688.46,542.095 8686.78,542.095C8685.11,542.095 8683.63,541.007 8683.14,539.41L8680.26,530.174L8671.03,527.301C8669.43,526.804 8668.34,525.326 8668.34,523.654C8668.34,521.981 8669.43,520.503 8671.03,520.007L8680.26,517.134L8683.14,507.897Z" style="fill:white;"/>
            </g>
            <g transform="matrix(-0.763038,-0.763038,-0.763038,0.763038,7237.42,6253.18)">
                <path d="M8683.14,507.897C8683.63,506.3 8685.11,505.212 8686.78,505.212C8688.46,505.212 8689.93,506.3 8690.43,507.897L8693.3,517.134L8702.54,520.007C8704.14,520.503 8705.23,521.981 8705.23,523.654C8705.23,525.326 8704.14,526.804 8702.54,527.301L8693.3,530.174L8690.43,539.41C8689.93,541.007 8688.46,542.095 8686.78,542.095C8685.11,542.095 8683.63,541.007 8683.14,539.41L8680.26,530.174L8671.03,527.301C8669.43,526.804 8668.34,525.326 8668.34,523.654C8668.34,521.981 8669.43,520.503 8671.03,520.007L8680.26,517.134L8683.14,507.897Z" style="fill:white;"/>
            </g>
            <g transform="matrix(0.622242,-0.622242,0.622242,0.622242,-5718.5,5207.44)">
                <path d="M8683.14,507.897C8683.63,506.3 8685.11,505.212 8686.78,505.212C8688.46,505.212 8689.93,506.3 8690.43,507.897L8693.3,517.134L8702.54,520.007C8704.14,520.503 8705.23,521.981 8705.23,523.654C8705.23,525.326 8704.14,526.804 8702.54,527.301L8693.3,530.174L8690.43,539.41C8689.93,541.007 8688.46,542.095 8686.78,542.095C8685.11,542.095 8683.63,541.007 8683.14,539.41L8680.26,530.174L8671.03,527.301C8669.43,526.804 8668.34,525.326 8668.34,523.654C8668.34,521.981 8669.43,520.503 8671.03,520.007L8680.26,517.134L8683.14,507.897Z" style="fill:white;"/>
            </g>
            <g transform="matrix(-0.577072,-0.577072,-0.577072,0.577072,5552.86,4838.71)">
                <path d="M8683.14,507.897C8683.63,506.3 8685.11,505.212 8686.78,505.212C8688.46,505.212 8689.93,506.3 8690.43,507.897L8693.3,517.134L8702.54,520.007C8704.14,520.503 8705.23,521.981 8705.23,523.654C8705.23,525.326 8704.14,526.804 8702.54,527.301L8693.3,530.174L8690.43,539.41C8689.93,541.007 8688.46,542.095 8686.78,542.095C8685.11,542.095 8683.63,541.007 8683.14,539.41L8680.26,530.174L8671.03,527.301C8669.43,526.804 8668.34,525.326 8668.34,523.654C8668.34,521.981 8669.43,520.503 8671.03,520.007L8680.26,517.134L8683.14,507.897Z" style="fill:white;"/>
            </g>
        </g>
    </g>
</svg>
