<?xml version="1.0" encoding="UTF-8" standalone="no"?>
<!DOCTYPE svg PUBLIC "-//W3C//DTD SVG 1.1//EN" "http://www.w3.org/Graphics/SVG/1.1/DTD/svg11.dtd">
<svg width="100%" height="100%" viewBox="0 0 256 256" version="1.1" xmlns="http://www.w3.org/2000/svg" xmlns:xlink="http://www.w3.org/1999/xlink" xml:space="preserve" xmlns:serif="http://www.serif.com/" style="fill-rule:evenodd;clip-rule:evenodd;stroke-linejoin:round;stroke-miterlimit:2;">
    <g id="Strawberry" transform="matrix(1.32252,0,0,1.32252,-7786.31,-662.53)">
        <g>
            <g transform="matrix(1.20947,1.20947,-0.53155,0.53155,744.781,-5372.93)">
                <path d="M4628.05,612.972C4628.05,601.386 4623.92,591.979 4618.83,591.979C4613.73,591.979 4609.6,601.386 4609.6,612.972L4609.6,652.528C4609.6,664.114 4613.73,673.521 4618.83,673.521C4623.92,673.521 4628.05,664.114 4628.05,652.528L4628.05,612.972Z" style="fill:rgb(97,209,110);"/>
            </g>
            <g transform="matrix(0.756131,0,0,0.756131,5887.47,500.959)">
                <path d="M170.303,35.575L112.985,92.893C113.068,92.979 113.153,93.066 113.238,93.151C121.383,101.296 134.609,101.296 142.754,93.151L170.561,65.344C178.706,57.199 178.706,43.973 170.561,35.828C170.475,35.743 170.389,35.658 170.303,35.575Z" style="fill:rgb(71,172,85);"/>
            </g>
        </g>
        <g>
            <g transform="matrix(1.20947,-1.20947,0.53155,0.53155,51.0846,5799.7)">
                <path d="M4628.05,612.972C4628.05,601.386 4623.92,591.979 4618.83,591.979C4613.73,591.979 4609.6,601.386 4609.6,612.972L4609.6,652.528C4609.6,664.114 4613.73,673.521 4618.83,673.521C4623.92,673.521 4628.05,664.114 4628.05,652.528L4628.05,612.972Z" style="fill:rgb(97,209,110);"/>
            </g>
            <g transform="matrix(0.756131,0,0,0.756131,5887.47,500.959)">
                <path d="M85.186,36.086L142.504,93.404C142.59,93.321 142.676,93.237 142.762,93.151C150.907,85.006 150.907,71.781 142.762,63.636L114.955,35.828C106.81,27.683 93.584,27.683 85.439,35.828C85.354,35.914 85.269,36 85.186,36.086Z" style="fill:rgb(71,172,85);"/>
            </g>
        </g>
        <g>
            <g transform="matrix(1.71044,0,0,0.751726,-1916,66.9007)">
                <path d="M4628.05,612.972C4628.05,601.386 4623.92,591.979 4618.83,591.979C4613.73,591.979 4609.6,601.386 4609.6,612.972L4609.6,652.528C4609.6,664.114 4613.73,673.521 4618.83,673.521C4623.92,673.521 4628.05,664.114 4628.05,652.528L4628.05,612.972Z" style="fill:rgb(97,209,110);"/>
            </g>
            <g transform="matrix(0.756131,0,0,0.756131,5887.47,500.959)">
                <path d="M127.639,14.481L127.639,95.542C127.758,95.544 127.879,95.545 128,95.545C139.519,95.545 148.871,86.193 148.871,74.674L148.871,35.349C148.871,23.83 139.519,14.478 128,14.478C127.879,14.478 127.758,14.479 127.639,14.481Z" style="fill:rgb(71,172,85);"/>
            </g>
        </g>
        <g transform="matrix(1.27535,0,0,1.31032,-1634.17,-288.117)">
            <path d="M5973.58,635.016C6069.24,635.016 6028.77,745.733 5973.58,745.733C5918.39,745.733 5877.92,635.016 5973.58,635.016Z" style="fill:rgb(250,82,96);"/>
            <clipPath id="_clip1">
                <path d="M5973.58,635.016C6069.24,635.016 6028.77,745.733 5973.58,745.733C5918.39,745.733 5877.92,635.016 5973.58,635.016Z"/>
            </clipPath>
            <g clip-path="url(#_clip1)">
                <g transform="matrix(0.860641,0,0,0.837672,823.289,167.827)">
                    <g transform="matrix(0.723861,0,0,0.723861,1647.06,120.857)">
                        <path d="M5921.75,677.665C5926.55,677.665 5930.44,681.558 5930.44,686.355C5930.44,691.151 5926.55,698.305 5921.75,698.305C5916.95,698.305 5913.06,691.151 5913.06,686.355C5913.06,681.558 5916.95,677.665 5921.75,677.665Z" style="fill:rgb(250,162,193);"/>
                    </g>
                    <g transform="matrix(0.723861,0,0,0.723861,1697.73,120.857)">
                        <path d="M5921.75,677.665C5926.55,677.665 5930.44,681.558 5930.44,686.355C5930.44,691.151 5926.55,698.305 5921.75,698.305C5916.95,698.305 5913.06,691.151 5913.06,686.355C5913.06,681.558 5916.95,677.665 5921.75,677.665Z" style="fill:rgb(250,162,193);"/>
                    </g>
                    <g transform="matrix(0.723861,0,0,0.723861,1672.4,147.219)">
                        <path d="M5921.75,677.665C5926.55,677.665 5930.44,681.558 5930.44,686.355C5930.44,691.151 5926.55,698.305 5921.75,698.305C5916.95,698.305 5913.06,691.151 5913.06,686.355C5913.06,681.558 5916.95,677.665 5921.75,677.665Z" style="fill:rgb(250,162,193);"/>
                    </g>
                    <g transform="matrix(0.723861,0,0,0.723861,1697.73,173.581)">
                        <path d="M5921.75,677.665C5926.55,677.665 5930.44,681.558 5930.44,686.355C5930.44,691.151 5926.55,698.305 5921.75,698.305C5916.95,698.305 5913.06,691.151 5913.06,686.355C5913.06,681.558 5916.95,677.665 5921.75,677.665Z" style="fill:rgb(250,162,193);"/>
                    </g>
                    <g transform="matrix(0.723861,0,0,0.723861,1727.06,94.4954)">
                        <path d="M5921.75,677.665C5926.55,677.665 5930.44,681.558 5930.44,686.355C5930.44,691.151 5926.55,698.305 5921.75,698.305C5916.95,698.305 5913.06,691.151 5913.06,686.355C5913.06,681.558 5916.95,677.665 5921.75,677.665Z" style="fill:rgb(250,162,193);"/>
                    </g>
                    <g transform="matrix(0.723861,0,0,0.723861,1748.39,120.857)">
                        <path d="M5921.75,677.665C5926.55,677.665 5930.44,681.558 5930.44,686.355C5930.44,691.151 5926.55,698.305 5921.75,698.305C5916.95,698.305 5913.06,691.151 5913.06,686.355C5913.06,681.558 5916.95,677.665 5921.75,677.665Z" style="fill:rgb(250,162,193);"/>
                    </g>
                    <g transform="matrix(0.723861,0,0,0.723861,1723.06,147.219)">
                        <path d="M5921.75,677.665C5926.55,677.665 5930.44,681.558 5930.44,686.355C5930.44,691.151 5926.55,698.305 5921.75,698.305C5916.95,698.305 5913.06,691.151 5913.06,686.355C5913.06,681.558 5916.95,677.665 5921.75,677.665Z" style="fill:rgb(250,162,193);"/>
                    </g>
                </g>
                <g transform="matrix(0.59288,0,0,0.577056,5897.69,602.199)">
                    <path d="M171.179,62.682C216.991,76.852 230.171,114.827 223.416,152.802C214.884,200.768 174.546,248.735 128,248.735C105.444,248.735 84.346,237.471 67.625,220.408C74.693,222.693 82.017,223.933 89.502,223.933C136.048,223.933 176.385,175.966 184.918,128C189.134,104.3 185.585,80.6 171.179,62.682Z" style="fill:rgb(182,42,60);fill-opacity:0.5;"/>
                </g>
            </g>
        </g>
        <g transform="matrix(0.734145,0,0,0.734145,2200.27,48.0147)">
            <circle cx="5110.79" cy="724.996" r="16.447" style="fill:white;"/>
        </g>
    </g>
</svg>
