<?xml version="1.0" encoding="UTF-8" standalone="no"?>
<!DOCTYPE svg PUBLIC "-//W3C//DTD SVG 1.1//EN" "http://www.w3.org/Graphics/SVG/1.1/DTD/svg11.dtd">
<svg width="100%" height="100%" viewBox="0 0 256 256" version="1.1" xmlns="http://www.w3.org/2000/svg" xmlns:xlink="http://www.w3.org/1999/xlink" xml:space="preserve" xmlns:serif="http://www.serif.com/" style="fill-rule:evenodd;clip-rule:evenodd;stroke-linejoin:round;stroke-miterlimit:2;">
    <g transform="matrix(0.300009,0,0,0.299958,6.88479,16.8454)">
        <g id="Suitcase">
            <g id="Suitcase1" serif:id="Suitcase">
                <g transform="matrix(2.9644,0,0,2.9644,25.1134,-43.0449)">
                    <path d="M179.886,35.88C179.886,18.952 166.142,5.208 149.213,5.208L106.326,5.208C89.398,5.208 75.654,18.952 75.654,35.88L75.654,110.999C75.654,127.928 89.398,141.672 106.326,141.672L149.213,141.672C166.142,141.672 179.886,127.928 179.886,110.999C179.886,110.999 179.886,35.88 179.886,35.88ZM161.427,35.88L161.427,110.999C161.427,117.74 155.954,123.213 149.213,123.213C149.213,123.213 106.326,123.213 106.326,123.213C99.585,123.213 94.112,117.74 94.112,110.999C94.112,110.999 94.112,35.88 94.112,35.88C94.112,29.139 99.585,23.666 106.326,23.666C106.326,23.666 149.213,23.666 149.213,23.666C155.954,23.666 161.427,29.139 161.427,35.88Z" style="fill:rgb(118,77,51);"/>
                </g>
                <g transform="matrix(1,0,0,1,11.2546,0)">
                    <path d="M807.139,237.508C807.139,172.301 754.2,119.362 688.993,119.362L118.479,119.362C53.272,119.362 0.333,172.301 0.333,237.508L0.333,623.035C0.333,688.241 53.272,741.18 118.479,741.18L688.993,741.18C754.2,741.18 807.139,688.241 807.139,623.035L807.139,237.508Z" style="fill:rgb(189,115,66);"/>
                </g>
                <path d="M115.031,119.353C51.689,119.353 0.344,172.247 0.344,237.498L0.344,623.025C0.344,688.275 51.689,741.17 115.031,741.17L156.5,741.219L156.5,119.358L115.031,119.353Z" style="fill:rgb(179,107,61);fill-rule:nonzero;"/>
                <path d="M692.465,119.353C755.808,119.353 807.152,172.247 807.152,237.498L807.152,623.025C807.152,688.275 755.808,741.17 692.465,741.17L650.995,741.219L650.995,119.358L692.465,119.353Z" style="fill:rgb(179,107,61);fill-rule:nonzero;"/>
                <g transform="matrix(1,0,0,1,-3.0979,0)">
                    <rect x="592.834" y="119.409" width="72.836" height="621.501" style="fill:rgb(229,184,128);"/>
                    <rect x="148.526" y="118.883" width="72.837" height="622.5" style="fill:rgb(229,184,128);"/>
                </g>
            </g>
        </g>
    </g>
</svg>
