<?xml version="1.0" encoding="UTF-8" standalone="no"?>
<!DOCTYPE svg PUBLIC "-//W3C//DTD SVG 1.1//EN" "http://www.w3.org/Graphics/SVG/1.1/DTD/svg11.dtd">
<svg width="100%" height="100%" viewBox="0 0 256 256" version="1.1" xmlns="http://www.w3.org/2000/svg" xmlns:xlink="http://www.w3.org/1999/xlink" xml:space="preserve" xmlns:serif="http://www.serif.com/" style="fill-rule:evenodd;clip-rule:evenodd;stroke-linejoin:round;stroke-miterlimit:2;">
    <g id="SuitcaseYellow" transform="matrix(1.47549,0,0,1.47549,-115.789,-116.842)">
        <g transform="matrix(0.807987,0,0,1.44879,31.8944,-28.4297)">
            <path d="M200.554,88.942C200.554,82.424 191.065,77.133 179.378,77.133L150.706,77.133C139.018,77.133 129.529,82.424 129.529,88.942C129.529,88.942 129.529,148.877 129.529,148.877C129.529,155.395 139.018,160.686 150.706,160.686L179.378,160.686C191.065,160.686 200.554,155.395 200.554,148.877L200.554,88.942ZM187.129,88.942L187.129,148.877C187.129,151.262 183.656,153.199 179.378,153.199C179.378,153.199 150.706,153.199 150.706,153.199C146.428,153.199 142.954,151.262 142.954,148.877L142.954,88.942C142.954,86.557 146.428,84.62 150.706,84.62C150.706,84.62 179.378,84.62 179.378,84.62C183.656,84.62 187.129,86.557 187.129,88.942Z" style="fill:rgb(73,80,87);"/>
            <clipPath id="_clip1">
                <path d="M200.554,88.942C200.554,82.424 191.065,77.133 179.378,77.133L150.706,77.133C139.018,77.133 129.529,82.424 129.529,88.942C129.529,88.942 129.529,148.877 129.529,148.877C129.529,155.395 139.018,160.686 150.706,160.686L179.378,160.686C191.065,160.686 200.554,155.395 200.554,148.877L200.554,88.942ZM187.129,88.942L187.129,148.877C187.129,151.262 183.656,153.199 179.378,153.199C179.378,153.199 150.706,153.199 150.706,153.199C146.428,153.199 142.954,151.262 142.954,148.877L142.954,88.942C142.954,86.557 146.428,84.62 150.706,84.62C150.706,84.62 179.378,84.62 179.378,84.62C183.656,84.62 187.129,86.557 187.129,88.942Z"/>
            </clipPath>
            <g clip-path="url(#_clip1)">
                <g transform="matrix(0.545308,0,0,0.134945,74.8795,62.788)">
                    <rect x="165.17" y="93.325" width="85.509" height="150.456" style="fill:rgb(52,58,64);"/>
                </g>
            </g>
        </g>
        <g transform="matrix(1,0,0,1,-4.11715,0)">
            <g transform="matrix(1.19899,0,0,1.19899,-17.1167,-52.5268)">
                <circle cx="122.237" cy="236.715" r="14.402" style="fill:rgb(73,80,87);"/>
            </g>
            <g transform="matrix(1.19899,0,0,1.19899,62.7216,-52.5268)">
                <circle cx="122.237" cy="236.715" r="14.402" style="fill:rgb(52,58,64);"/>
            </g>
        </g>
        <g transform="matrix(1,0,0,1,0,-2.49544)">
            <path d="M248.412,132.533C248.412,117.827 236.472,105.887 221.766,105.887L108.726,105.887C94.019,105.887 82.079,117.827 82.079,132.533L82.079,211.913C82.079,226.619 94.019,238.559 108.726,238.559L221.766,238.559C236.472,238.559 248.412,226.619 248.412,211.913L248.412,132.533Z" style="fill:rgb(255,218,135);"/>
            <clipPath id="_clip2">
                <path d="M248.412,132.533C248.412,117.827 236.472,105.887 221.766,105.887L108.726,105.887C94.019,105.887 82.079,117.827 82.079,132.533L82.079,211.913C82.079,226.619 94.019,238.559 108.726,238.559L221.766,238.559C236.472,238.559 248.412,226.619 248.412,211.913L248.412,132.533Z"/>
            </clipPath>
            <g clip-path="url(#_clip2)">
                <g transform="matrix(1,0,0,0.940022,0,13.7794)">
                    <rect x="165.17" y="93.325" width="85.509" height="150.456" style="fill:rgb(255,178,98);"/>
                </g>
            </g>
        </g>
        <g transform="matrix(1,0,0,1,-0.989912,0)">
            <g transform="matrix(0.0891276,0,0,1,106.362,-2.49544)">
                <rect x="82.079" y="105.887" width="166.333" height="132.672" style="fill:rgb(201,132,90);"/>
            </g>
            <g transform="matrix(0.0891276,0,0,1,196.654,-2.49544)">
                <rect x="82.079" y="105.887" width="166.333" height="132.672" style="fill:rgb(201,132,90);"/>
            </g>
        </g>
        <g>
            <g transform="matrix(1,0,0,1,-179.871,0)">
                <path d="M320.204,123.368C320.204,120.059 317.517,117.373 314.208,117.373L284.58,117.373C281.271,117.373 278.585,120.059 278.585,123.368L278.585,159.952C278.585,163.261 281.271,165.948 284.58,165.948L314.208,165.948C317.517,165.948 320.204,163.261 320.204,159.952L320.204,123.368Z" style="fill:rgb(201,132,90);"/>
            </g>
            <g transform="matrix(0.701009,0,0,0.701009,-90.3544,42.3552)">
                <path d="M320.204,119.774C320.204,118.449 319.128,117.373 317.803,117.373L280.986,117.373C279.661,117.373 278.585,118.449 278.585,119.774L278.585,163.547C278.585,164.872 279.661,165.948 280.986,165.948L317.803,165.948C319.128,165.948 320.204,164.872 320.204,163.547L320.204,119.774Z" style="fill:white;"/>
            </g>
            <g transform="matrix(0.464379,0,0,0.250507,-19.5089,100.424)">
                <path d="M320.204,120.175C320.204,118.629 319.526,117.373 318.692,117.373L280.097,117.373C279.262,117.373 278.585,118.629 278.585,120.175L278.585,163.145C278.585,164.692 279.262,165.948 280.097,165.948L318.692,165.948C319.526,165.948 320.204,164.692 320.204,163.145L320.204,120.175Z" style="fill:rgb(217,217,217);"/>
            </g>
            <g transform="matrix(0.464379,0,0,0.113041,-19.5089,134.837)">
                <path d="M320.204,120.175C320.204,118.629 319.898,117.373 319.522,117.373L279.267,117.373C278.89,117.373 278.585,118.629 278.585,120.175L278.585,163.145C278.585,164.692 278.89,165.948 279.267,165.948L319.522,165.948C319.898,165.948 320.204,164.692 320.204,163.145L320.204,120.175Z" style="fill:rgb(217,217,217);"/>
            </g>
        </g>
    </g>
</svg>
