<?xml version="1.0" encoding="UTF-8" standalone="no"?>
<!DOCTYPE svg PUBLIC "-//W3C//DTD SVG 1.1//EN" "http://www.w3.org/Graphics/SVG/1.1/DTD/svg11.dtd">
<svg width="100%" height="100%" viewBox="0 0 256 256" version="1.1" xmlns="http://www.w3.org/2000/svg" xmlns:xlink="http://www.w3.org/1999/xlink" xml:space="preserve" xmlns:serif="http://www.serif.com/" style="fill-rule:evenodd;clip-rule:evenodd;stroke-linejoin:round;stroke-miterlimit:2;">
    <g id="Sun" transform="matrix(1.69704,0,0,2.58792,-8601.45,-2150.76)">
        <g transform="matrix(0.81856,0,0,0.536775,942.047,83.048)">
            <path d="M5128.15,1401.15C5129.29,1399.46 5131.2,1398.45 5133.24,1398.45C5135.29,1398.45 5137.2,1399.46 5138.34,1401.15L5153.47,1423.46L5178.82,1414.3C5180.74,1413.61 5182.88,1413.91 5184.53,1415.11C5186.19,1416.31 5187.14,1418.25 5187.07,1420.29L5186.19,1447.24L5212.09,1454.73C5214.05,1455.3 5215.6,1456.8 5216.23,1458.74C5216.86,1460.68 5216.49,1462.81 5215.24,1464.42L5198.69,1485.71L5215.24,1506.99C5216.49,1508.6 5216.86,1510.73 5216.23,1512.67C5215.6,1514.61 5214.05,1516.12 5212.09,1516.68L5186.19,1524.18L5187.07,1551.12C5187.14,1553.16 5186.19,1555.1 5184.53,1556.3C5182.88,1557.5 5180.74,1557.8 5178.82,1557.11L5153.47,1547.95L5138.34,1570.26C5137.2,1571.95 5135.29,1572.97 5133.24,1572.97C5131.2,1572.97 5129.29,1571.95 5128.15,1570.26L5113.02,1547.95L5087.67,1557.11C5085.75,1557.8 5083.61,1557.5 5081.96,1556.3C5080.3,1555.1 5079.35,1553.16 5079.42,1551.12L5080.3,1524.18L5054.4,1516.68C5052.44,1516.12 5050.89,1514.61 5050.26,1512.67C5049.63,1510.73 5050,1508.6 5051.25,1506.99L5067.8,1485.71L5051.25,1464.42C5050,1462.81 5049.63,1460.68 5050.26,1458.74C5050.89,1456.8 5052.44,1455.3 5054.4,1454.73L5080.3,1447.24L5079.42,1420.29C5079.35,1418.25 5080.3,1416.31 5081.96,1415.11C5083.61,1413.91 5085.75,1413.61 5087.67,1414.3L5113.02,1423.46L5128.15,1401.15Z" style="fill:rgb(255,165,48);"/>
        </g>
        <g transform="matrix(0.58926,0,0,0.38641,5068.49,831.077)">
            <path d="M128,6.786C130.837,6.786 133.489,8.192 135.081,10.54L156.095,41.532L191.313,28.811C193.981,27.847 196.953,28.268 199.248,29.936C201.543,31.603 202.862,34.299 202.77,37.134L201.554,74.56L237.523,84.969C240.248,85.757 242.405,87.845 243.281,90.543C244.158,93.241 243.64,96.197 241.899,98.437L218.918,128L241.899,157.563C243.64,159.803 244.158,162.759 243.281,165.457C242.405,168.155 240.248,170.243 237.523,171.031L201.554,181.44L202.77,218.866C202.862,221.701 201.543,224.397 199.248,226.064C196.953,227.732 193.981,228.153 191.313,227.189L156.095,214.468L135.081,245.46C133.489,247.808 130.837,249.214 128,249.214L128,6.786Z" style="fill:rgb(255,149,56);"/>
        </g>
        <g transform="matrix(0.92764,0,0,0.608305,386.272,-24.592)">
            <circle cx="5128.76" cy="1487.95" r="61.734" style="fill:rgb(255,227,72);"/>
        </g>
        <g transform="matrix(0.58926,0,0,0.38641,5068.49,831.077)">
            <path d="M128,30.815C181.638,30.815 225.185,74.362 225.185,128C225.185,181.638 181.638,225.185 128,225.185L128,30.815Z" style="fill:rgb(255,212,51);"/>
        </g>
        <g transform="matrix(1.49686,0,0,0.981575,-2334.47,-20.7202)">
            <g transform="matrix(1,0,0,1,6.68065,-0.366417)">
                <g transform="matrix(1,0,0,1,10.6694,-93.7219)">
                    <circle cx="4965.19" cy="1006.27" r="3.19" style="fill:rgb(50,58,65);"/>
                </g>
                <g transform="matrix(1.69245,0.453492,-0.353675,1.31993,-3074.28,-2658.35)">
                    <circle cx="4965.19" cy="1006.27" r="3.19" style="fill:rgb(255,152,193);"/>
                </g>
            </g>
            <g transform="matrix(1,0,0,1,33.6972,0)">
                <g transform="matrix(1,0,0,1,10.6694,-93.7219)">
                    <circle cx="4965.19" cy="1006.27" r="3.19" style="fill:rgb(50,58,65);"/>
                </g>
                <g transform="matrix(1.69245,-0.453492,0.353675,1.31993,-3780.72,1844.62)">
                    <circle cx="4965.19" cy="1006.27" r="3.19" style="fill:rgb(255,137,184);"/>
                </g>
            </g>
        </g>
        <g transform="matrix(1.25403,0,0,0.822337,-8815.15,550.409)">
            <path d="M11126.3,402.179L11126.3,399.495C11126.3,399.003 11126.7,398.604 11127.2,398.604L11135.6,398.604C11136.1,398.604 11136.5,399.003 11136.5,399.495L11136.5,402.179C11136.5,404.989 11134.2,407.27 11131.4,407.27C11128.6,407.27 11126.3,404.989 11126.3,402.179Z" style="fill:rgb(50,58,65);"/>
        </g>
    </g>
</svg>
