<?xml version="1.0" encoding="UTF-8" standalone="no"?>
<!DOCTYPE svg PUBLIC "-//W3C//DTD SVG 1.1//EN" "http://www.w3.org/Graphics/SVG/1.1/DTD/svg11.dtd">
<svg width="100%" height="100%" viewBox="0 0 256 256" version="1.1" xmlns="http://www.w3.org/2000/svg" xmlns:xlink="http://www.w3.org/1999/xlink" xml:space="preserve" xmlns:serif="http://www.serif.com/" style="fill-rule:evenodd;clip-rule:evenodd;stroke-linejoin:round;stroke-miterlimit:2;">
    <g id="Sushi" transform="matrix(2.64678,0,0,2.50453,-15604.6,-1955.74)">
        <g transform="matrix(0.620512,0,0,0.632104,438.691,414.827)">
            <path d="M8935,690.304C8935,665.937 8915.93,646.154 8892.44,646.154L8852.06,646.154C8828.57,646.154 8809.5,665.937 8809.5,690.304C8809.5,714.671 8828.57,734.454 8852.06,734.454L8892.44,734.454C8915.93,734.454 8935,714.671 8935,690.304Z" style="fill:rgb(61,63,66);"/>
        </g>
        <g transform="matrix(2.07351,0,0,0.470634,-12940.1,382.353)">
            <rect x="9088.57" y="920.174" width="31.722" height="75.968" style="fill:rgb(61,63,66);"/>
        </g>
        <g transform="matrix(1.22746,0,0,1.23977,-5211.85,-355.905)">
            <path d="M9120.29,946.917C9120.29,932.157 9108.84,920.174 9094.73,920.174L9088.57,920.174L9088.57,996.142L9098.89,996.142C9110.7,996.142 9120.29,986.11 9120.29,973.754L9120.29,946.917Z" style="fill:rgb(48,51,54);"/>
        </g>
        <g transform="matrix(0.620512,0,0,0.704871,438.691,329.44)">
            <path d="M8935,690.304C8935,665.937 8913.73,646.154 8887.54,646.154L8856.95,646.154C8830.76,646.154 8809.5,665.937 8809.5,690.304C8809.5,714.671 8830.76,734.454 8856.95,734.454L8887.54,734.454C8913.73,734.454 8935,714.671 8935,690.304Z" style="fill:rgb(74,76,79);"/>
        </g>
        <g transform="matrix(0.510812,0,0,0.547522,1411.98,436.748)">
            <path d="M8935,690.304C8935,665.937 8914.93,646.154 8890.22,646.154L8854.28,646.154C8829.56,646.154 8809.5,665.937 8809.5,690.304C8809.5,714.671 8829.56,734.454 8854.28,734.454L8890.22,734.454C8914.93,734.454 8935,714.671 8935,690.304Z" style="fill:white;"/>
        </g>
        <g transform="matrix(0.227299,0,0,0.2582,3927.23,636.468)">
            <path d="M8935,690.304C8935,665.937 8913.73,646.154 8887.54,646.154L8856.95,646.154C8830.76,646.154 8809.5,665.937 8809.5,690.304C8809.5,714.671 8830.76,734.454 8856.95,734.454L8887.54,734.454C8913.73,734.454 8935,714.671 8935,690.304Z" style="fill:rgb(255,155,0);"/>
        </g>
        <g transform="matrix(0.377817,0,0,0.399276,5895.67,780.88)">
            <path d="M164.577,91.37L90.637,91.37C91.466,94.841 92.931,98.066 94.9,100.915L160.314,100.915C162.282,98.066 163.747,94.841 164.577,91.37ZM160.314,68.515L94.9,68.515C92.931,71.364 91.467,74.59 90.637,78.061L164.577,78.061C163.747,74.59 162.283,71.365 160.314,68.515Z" style="fill:rgb(255,189,106);"/>
        </g>
    </g>
</svg>
