<?xml version="1.0" encoding="UTF-8" standalone="no"?>
<!DOCTYPE svg PUBLIC "-//W3C//DTD SVG 1.1//EN" "http://www.w3.org/Graphics/SVG/1.1/DTD/svg11.dtd">
<svg width="100%" height="100%" viewBox="0 0 256 256" version="1.1" xmlns="http://www.w3.org/2000/svg" xmlns:xlink="http://www.w3.org/1999/xlink" xml:space="preserve" xmlns:serif="http://www.serif.com/" style="fill-rule:evenodd;clip-rule:evenodd;stroke-linejoin:round;stroke-miterlimit:2;">
    <g id="Sword" transform="matrix(2.85027,2.85027,-2.69708,2.69708,-10585.1,-16399.9)">
        <g transform="matrix(0.957576,0,0,1.07534,-284.845,-897.213)">
            <path d="M5297.81,1815.48C5297.81,1815.4 5297.79,1815.32 5297.75,1815.26C5297.01,1814.03 5290.02,1802.49 5288.25,1799.57C5288.17,1799.43 5288.02,1799.35 5287.85,1799.35C5287.68,1799.35 5287.53,1799.43 5287.44,1799.57C5285.68,1802.49 5278.69,1814.03 5277.95,1815.26C5277.91,1815.32 5277.89,1815.4 5277.89,1815.48C5277.94,1817.61 5278.54,1847.3 5278.54,1847.3L5297.16,1847.3C5297.16,1847.3 5297.77,1817.61 5297.81,1815.48Z" style="fill:rgb(232,236,239);"/>
        </g>
        <g transform="matrix(0.175422,-0.185385,0.175422,0.185385,4733.76,1077.97)">
            <path d="M236.613,19.387L97.56,158.44L122.978,183.857C122.978,183.857 210.717,99.406 217.013,93.346C217.246,93.122 217.414,92.839 217.499,92.527C219.023,86.97 233.432,34.417 237.075,21.131C237.245,20.509 237.069,19.843 236.613,19.387L236.613,19.387Z" style="fill:rgb(132,142,151);"/>
        </g>
        <g transform="matrix(0.404571,0,0,0.454324,2639.36,231.643)">
            <path d="M5297.81,1815.64C5297.81,1815.45 5297.76,1815.28 5297.66,1815.12C5296.69,1813.51 5291.08,1804.24 5288.81,1800.48C5288.61,1800.16 5288.24,1799.96 5287.85,1799.96C5287.45,1799.96 5287.09,1800.16 5286.89,1800.48C5284.62,1804.24 5279.01,1813.51 5278.03,1815.12C5277.94,1815.28 5277.89,1815.45 5277.89,1815.64C5277.92,1820.75 5278.3,1894.95 5278.3,1894.95L5297.4,1894.95C5297.4,1894.95 5297.78,1820.75 5297.81,1815.64Z" style="fill:rgb(171,181,190);"/>
        </g>
        <g transform="matrix(0.600945,0,0,0.610177,1600.97,-11.0793)">
            <path d="M5297.81,1809.27C5297.81,1803.55 5293.35,1798.9 5287.85,1798.9C5282.35,1798.9 5277.89,1803.55 5277.89,1809.27L5277.89,1836.93C5277.89,1842.65 5282.35,1847.3 5287.85,1847.3C5293.35,1847.3 5297.81,1842.65 5297.81,1836.93L5297.81,1809.27Z" style="fill:rgb(152,72,61);"/>
        </g>
        <g transform="matrix(0.175422,-0.185385,0.175422,0.185385,4733.76,1077.97)">
            <path d="M104.791,151.209L25.154,230.846C34.57,240.262 49.86,240.262 59.276,230.846L104.791,185.331C114.208,175.914 114.208,160.625 104.791,151.209Z" style="fill:rgb(133,55,47);"/>
        </g>
        <g transform="matrix(1.16969,0,0,0.140218,-1406.49,837.014)">
            <path d="M5297.81,1823.1C5297.81,1809.75 5296.58,1798.9 5295.07,1798.9L5280.63,1798.9C5279.12,1798.9 5277.89,1809.75 5277.89,1823.1C5277.89,1836.45 5279.12,1847.3 5280.63,1847.3L5295.07,1847.3C5296.58,1847.3 5297.81,1836.45 5297.81,1823.1Z" style="fill:rgb(246,218,109);"/>
        </g>
        <g transform="matrix(0.175422,-0.185385,0.175422,0.185385,4733.76,1077.97)">
            <path d="M98.394,159.273L80.093,177.574L103.318,200.798C108.368,205.848 116.568,205.848 121.618,200.798C126.668,195.748 126.668,187.548 121.618,182.498L98.394,159.273Z" style="fill:rgb(210,159,69);"/>
        </g>
        <g transform="matrix(0.80665,0,0,0.852465,627.843,-443.27)">
            <circle cx="5145.76" cy="1801.64" r="7.52" style="fill:rgb(246,218,109);"/>
        </g>
        <g transform="matrix(0.175422,-0.185385,0.175422,0.185385,4733.76,1077.97)">
            <path d="M105.915,150.085C115.458,159.627 115.458,175.123 105.915,184.666C96.373,194.209 80.877,194.209 71.334,184.666C71.334,184.666 105.915,150.085 105.915,150.085Z" style="fill:rgb(210,159,69);"/>
        </g>
        <g transform="matrix(0.599369,0.169722,-0.1606,0.633411,1887.05,-952.985)">
            <path d="M5326.64,1830.74C5326.64,1829.7 5325.79,1828.86 5324.76,1828.86L5305.21,1828.86C5304.17,1828.86 5303.33,1829.7 5303.33,1830.74C5303.33,1831.78 5304.17,1832.62 5305.21,1832.62L5324.76,1832.62C5325.79,1832.62 5326.64,1831.78 5326.64,1830.74Z" style="fill:rgb(128,55,48);"/>
        </g>
        <g transform="matrix(0.175422,-0.185385,0.175422,0.185385,4733.76,1077.97)">
            <path d="M48.408,207.188L41.534,214.062L53.278,234.403C54.574,236.647 57.447,237.417 59.691,236.121C61.935,234.825 62.705,231.952 61.41,229.708L48.408,207.188Z" style="fill:rgb(112,43,40);"/>
        </g>
        <g transform="matrix(0.599369,0.169722,-0.1606,0.633411,1887.05,-959.386)">
            <path d="M5326.64,1830.74C5326.64,1829.7 5325.79,1828.86 5324.76,1828.86L5305.21,1828.86C5304.17,1828.86 5303.33,1829.7 5303.33,1830.74C5303.33,1831.78 5304.17,1832.62 5305.21,1832.62L5324.76,1832.62C5325.79,1832.62 5326.64,1831.78 5326.64,1830.74Z" style="fill:rgb(128,55,48);"/>
        </g>
        <g transform="matrix(0.175422,-0.185385,0.175422,0.185385,4733.76,1077.97)">
            <path d="M65.819,190.181L58.945,197.055L70.541,217.139C71.837,219.383 74.71,220.153 76.954,218.858C79.198,217.562 79.968,214.689 78.673,212.445L65.819,190.181Z" style="fill:rgb(112,43,40);"/>
        </g>
        <g transform="matrix(0.416861,0,0,0.440537,2633.6,298.875)">
            <circle cx="5145.76" cy="1801.64" r="7.52" style="fill:rgb(242,91,97);"/>
        </g>
        <g transform="matrix(0.175422,-0.185385,0.175422,0.185385,4733.76,1077.97)">
            <path d="M97.56,158.44C102.492,163.371 102.492,171.379 97.56,176.311C92.629,181.242 84.621,181.242 79.689,176.311C79.689,176.311 97.56,158.44 97.56,158.44Z" style="fill:rgb(220,66,81);"/>
        </g>
    </g>
</svg>
