<?xml version="1.0" encoding="UTF-8" standalone="no"?>
<!DOCTYPE svg PUBLIC "-//W3C//DTD SVG 1.1//EN" "http://www.w3.org/Graphics/SVG/1.1/DTD/svg11.dtd">
<svg width="100%" height="100%" viewBox="0 0 256 256" version="1.1" xmlns="http://www.w3.org/2000/svg" xmlns:xlink="http://www.w3.org/1999/xlink" xml:space="preserve" xmlns:serif="http://www.serif.com/" style="fill-rule:evenodd;clip-rule:evenodd;stroke-linejoin:round;stroke-miterlimit:2;">
    <g id="Ticket" transform="matrix(1.38264,0,0,1.32097,-2179.4,-1730.84)">
        <g transform="matrix(1.29224,0,0,1.35257,-725.679,-680.329)">
            <path d="M1786.78,1527.89L1786.78,1514.89C1786.78,1508.84 1791.7,1503.92 1797.76,1503.92L1908.23,1503.92C1914.29,1503.92 1919.21,1508.84 1919.21,1514.89L1919.21,1527.86C1910.74,1527.99 1903.9,1534.91 1903.9,1543.41C1903.9,1551.91 1910.74,1558.83 1919.21,1558.96L1919.21,1571.84C1919.21,1577.9 1914.29,1582.82 1908.23,1582.82L1797.76,1582.82C1791.7,1582.82 1786.78,1577.9 1786.78,1571.84L1786.78,1558.92C1794.84,1558.34 1801.2,1551.61 1801.2,1543.41C1801.2,1535.21 1794.84,1528.48 1786.78,1527.89ZM1886.07,1571.86C1886.07,1570 1884.56,1568.48 1882.69,1568.48C1880.82,1568.48 1879.31,1570 1879.31,1571.86L1879.31,1575.91C1879.31,1577.78 1880.82,1579.29 1882.69,1579.29C1884.56,1579.29 1886.07,1577.78 1886.07,1575.91L1886.07,1571.86ZM1886.07,1556.6C1886.07,1554.74 1884.56,1553.22 1882.69,1553.22C1880.82,1553.22 1879.31,1554.74 1879.31,1556.6L1879.31,1560.65C1879.31,1562.52 1880.82,1564.03 1882.69,1564.03C1884.56,1564.03 1886.07,1562.52 1886.07,1560.65L1886.07,1556.6ZM1886.07,1541.34C1886.07,1539.48 1884.56,1537.96 1882.69,1537.96C1880.82,1537.96 1879.31,1539.48 1879.31,1541.34L1879.31,1545.39C1879.31,1547.26 1880.82,1548.77 1882.69,1548.77C1884.56,1548.77 1886.07,1547.26 1886.07,1545.39L1886.07,1541.34ZM1886.07,1526.09C1886.07,1524.22 1884.56,1522.7 1882.69,1522.7C1880.82,1522.7 1879.31,1524.22 1879.31,1526.09L1879.31,1530.13C1879.31,1532 1880.82,1533.51 1882.69,1533.51C1884.56,1533.51 1886.07,1532 1886.07,1530.13L1886.07,1526.09ZM1886.07,1510.83C1886.07,1508.96 1884.56,1507.44 1882.69,1507.44C1880.82,1507.44 1879.31,1508.96 1879.31,1510.83L1879.31,1514.87C1879.31,1516.74 1880.82,1518.26 1882.69,1518.26C1884.56,1518.26 1886.07,1516.74 1886.07,1514.87L1886.07,1510.83Z" style="fill:rgb(241,243,245);"/>
        </g>
        <g transform="matrix(0.723256,0,0,0.757022,1576.26,1310.29)">
            <path d="M127.405,57.518L226.696,57.518C237.517,57.518 246.303,66.304 246.303,77.125L246.303,100.283C231.169,100.522 218.955,112.883 218.955,128.074C218.955,143.266 231.169,155.627 246.303,155.865L246.303,178.875C246.303,189.696 237.517,198.482 226.696,198.482L127.405,198.482L127.405,57.518ZM187.095,178.91C187.095,175.576 184.388,172.869 181.054,172.869C177.719,172.869 175.012,175.576 175.012,178.91L175.012,186.142C175.012,189.476 177.719,192.184 181.054,192.184C184.388,192.184 187.095,189.476 187.095,186.142L187.095,178.91ZM187.095,151.647C187.095,148.313 184.388,145.606 181.054,145.606C177.719,145.606 175.012,148.313 175.012,151.647L175.012,158.879C175.012,162.213 177.719,164.921 181.054,164.921C184.388,164.921 187.095,162.213 187.095,158.879L187.095,151.647ZM187.095,124.384C187.095,121.05 184.388,118.343 181.054,118.343C177.719,118.343 175.012,121.05 175.012,124.384L175.012,131.616C175.012,134.95 177.719,137.657 181.054,137.657C184.388,137.657 187.095,134.95 187.095,131.616L187.095,124.384ZM187.095,97.121C187.095,93.787 184.388,91.079 181.054,91.079C177.719,91.079 175.012,93.787 175.012,97.121L175.012,104.353C175.012,107.687 177.719,110.394 181.054,110.394C184.388,110.394 187.095,107.687 187.095,104.353L187.095,97.121ZM187.095,69.858C187.095,66.524 184.388,63.816 181.054,63.816C177.719,63.816 175.012,66.524 175.012,69.858L175.012,77.09C175.012,80.424 177.719,83.131 181.054,83.131C184.388,83.131 187.095,80.424 187.095,77.09L187.095,69.858Z" style="fill:rgb(206,212,218);"/>
        </g>
        <g transform="matrix(2.00698,0,0,2.10067,-1736.75,-1528.77)">
            <g transform="matrix(1,0,0,1,-186.84,-134.996)">
                <path d="M1878.89,1520.71C1878.89,1519.7 1878.07,1518.88 1877.05,1518.88L1857.64,1518.88C1856.62,1518.88 1855.8,1519.7 1855.8,1520.71C1855.8,1521.73 1856.62,1522.55 1857.64,1522.55L1877.05,1522.55C1878.07,1522.55 1878.89,1521.73 1878.89,1520.71Z" style="fill:rgb(134,142,150);"/>
            </g>
            <g transform="matrix(0.551366,0,0,1,650.913,-128.669)">
                <path d="M1878.89,1520.71C1878.89,1519.7 1877.4,1518.88 1875.56,1518.88L1859.13,1518.88C1857.29,1518.88 1855.8,1519.7 1855.8,1520.71C1855.8,1521.73 1857.29,1522.55 1859.13,1522.55L1875.56,1522.55C1877.4,1522.55 1878.89,1521.73 1878.89,1520.71Z" style="fill:rgb(134,142,150);"/>
            </g>
            <g transform="matrix(0.928588,0,0,1,-53.4891,-111.182)">
                <path d="M1878.89,1520.71C1878.89,1519.7 1878,1518.88 1876.91,1518.88L1857.78,1518.88C1856.69,1518.88 1855.8,1519.7 1855.8,1520.71C1855.8,1521.73 1856.69,1522.55 1857.78,1522.55L1876.91,1522.55C1878,1522.55 1878.89,1521.73 1878.89,1520.71Z" style="fill:rgb(134,142,150);"/>
            </g>
        </g>
    </g>
</svg>
