<?xml version="1.0" encoding="UTF-8" standalone="no"?>
<!DOCTYPE svg PUBLIC "-//W3C//DTD SVG 1.1//EN" "http://www.w3.org/Graphics/SVG/1.1/DTD/svg11.dtd">
<svg width="100%" height="100%" viewBox="0 0 256 256" version="1.1" xmlns="http://www.w3.org/2000/svg" xmlns:xlink="http://www.w3.org/1999/xlink" xml:space="preserve" xmlns:serif="http://www.serif.com/" style="fill-rule:evenodd;clip-rule:evenodd;stroke-linejoin:round;stroke-miterlimit:2;">
    <g id="Ticket-Tag" serif:id="Ticket Tag" transform="matrix(1.91819,0,0,1.8151,-11013.3,-1252.13)">
        <g transform="matrix(0.620512,0,0,0.655755,1587.01,-93.7219)">
            <path d="M6846.76,1285.18C6846.76,1281.05 6844.64,1277.21 6841.14,1275.02C6832.95,1269.88 6817.79,1260.35 6809.19,1254.95C6805.28,1252.49 6800.32,1252.49 6796.42,1254.95C6787.82,1260.35 6772.65,1269.88 6764.47,1275.02C6760.97,1277.21 6758.85,1281.05 6758.85,1285.18C6758.85,1305.37 6758.85,1366.26 6758.85,1392.28C6758.85,1395.47 6760.11,1398.52 6762.36,1400.77C6764.61,1403.02 6767.67,1404.28 6770.85,1404.28C6787.64,1404.28 6817.97,1404.28 6834.76,1404.28C6837.94,1404.28 6840.99,1403.02 6843.24,1400.77C6845.49,1398.52 6846.76,1395.47 6846.76,1392.28C6846.76,1366.26 6846.76,1305.37 6846.76,1285.18ZM6802.8,1273.81C6805.42,1273.81 6807.54,1275.93 6807.54,1278.55C6807.54,1281.16 6805.42,1283.29 6802.8,1283.29C6800.19,1283.29 6798.07,1281.16 6798.07,1278.55C6798.07,1275.93 6800.19,1273.81 6802.8,1273.81Z" style="fill:rgb(254,242,229);"/>
        </g>
        <g transform="matrix(0.664677,0,0,0.79067,1288.51,-272.248)">
            <path d="M6840.92,1323.25L6758.85,1323.25L6758.85,1380.51C6758.85,1386 6763.86,1390.46 6770.05,1390.46C6785.73,1390.46 6814.04,1390.46 6829.72,1390.46C6835.9,1390.46 6840.92,1386 6840.92,1380.51C6840.92,1361.8 6840.92,1323.25 6840.92,1323.25Z" style="fill:rgb(179,236,204);"/>
        </g>
        <g transform="matrix(0.460761,0,0,0.486931,2724.71,153.994)">
            <path d="M6692.23,1200.61C6699.13,1200.61 6704.73,1206.21 6704.73,1213.1C6704.73,1220 6699.13,1225.6 6692.23,1225.6C6685.33,1225.6 6679.73,1220 6679.73,1213.1C6679.73,1206.21 6685.33,1200.61 6692.23,1200.61ZM6692.23,1206.86C6695.68,1206.86 6698.48,1209.65 6698.48,1213.1C6698.48,1216.55 6695.68,1219.35 6692.23,1219.35C6688.78,1219.35 6685.98,1216.55 6685.98,1213.1C6685.98,1209.65 6688.78,1206.86 6692.23,1206.86Z" style="fill:rgb(240,185,148);"/>
        </g>
        <g transform="matrix(0.725692,0,0,0.766909,951.735,-185.648)">
            <path d="M6692.23,1200.61C6699.13,1200.61 6704.73,1206.21 6704.73,1213.1C6704.73,1220 6699.13,1225.6 6692.23,1225.6C6685.33,1225.6 6679.73,1220 6679.73,1213.1C6679.73,1206.21 6685.33,1200.61 6692.23,1200.61ZM6692.23,1206.86C6695.68,1206.86 6698.48,1209.65 6698.48,1213.1C6698.48,1216.55 6695.68,1219.35 6692.23,1219.35C6688.78,1219.35 6685.98,1216.55 6685.98,1213.1C6685.98,1209.65 6688.78,1206.86 6692.23,1206.86Z" style="fill:rgb(248,224,196);"/>
        </g>
        <g transform="matrix(0.395361,0,0,0.655755,3162.71,-93.7219)">
            <path d="M6694.76,1220.8C6694.76,1219.62 6693.26,1218.66 6691.41,1218.66C6689.57,1218.66 6688.07,1219.62 6688.07,1220.8L6688.07,1276.42C6688.07,1277.59 6689.57,1278.55 6691.41,1278.55C6693.26,1278.55 6694.76,1277.59 6694.76,1276.42L6694.76,1220.8Z" style="fill:white;"/>
        </g>
        <g transform="matrix(0.620512,0,0,0.655755,1655.62,-93.7219)">
            <circle cx="6692.23" cy="1213.1" r="12.496" style="fill:rgb(255,236,140);"/>
        </g>
    </g>
</svg>
