<?xml version="1.0" encoding="UTF-8" standalone="no"?>
<!DOCTYPE svg PUBLIC "-//W3C//DTD SVG 1.1//EN" "http://www.w3.org/Graphics/SVG/1.1/DTD/svg11.dtd">
<svg width="100%" height="100%" viewBox="0 0 256 256" version="1.1" xmlns="http://www.w3.org/2000/svg" xmlns:xlink="http://www.w3.org/1999/xlink" xml:space="preserve" xmlns:serif="http://www.serif.com/" style="fill-rule:evenodd;clip-rule:evenodd;stroke-linecap:round;stroke-linejoin:round;stroke-miterlimit:1.5;">
    <g id="Ticket---Bonus" serif:id="Ticket - Bonus" transform="matrix(6.02311,0,0,5.6994,-34103.7,-4703.42)">
        <g transform="matrix(0.710633,-2.7913e-17,1.39283e-17,0.531175,1001.21,121.987)">
            <path d="M6617.73,1345.93C6617.73,1342.09 6615.52,1338.97 6612.81,1338.97L6564.7,1338.97C6561.99,1338.97 6559.79,1342.09 6559.79,1345.93L6559.79,1389.96C6559.79,1393.8 6561.99,1396.91 6564.7,1396.91L6612.81,1396.91C6615.52,1396.91 6617.73,1393.8 6617.73,1389.96L6617.73,1345.93Z" style="fill:rgb(238,160,0);"/>
        </g>
        <g transform="matrix(0.708057,-2.77556e-17,1.38778e-17,0.52818,1018.19,124.204)">
            <path d="M6617.73,1345.82C6617.73,1342.04 6615.56,1338.97 6612.89,1338.97L6564.62,1338.97C6561.95,1338.97 6559.79,1342.04 6559.79,1345.82L6559.79,1390.07C6559.79,1393.85 6561.95,1396.91 6564.62,1396.91L6612.89,1396.91C6615.56,1396.91 6617.73,1393.85 6617.73,1390.07L6617.73,1345.82Z" style="fill:rgb(255,224,73);"/>
        </g>
        <g transform="matrix(0.582887,-2.09766e-17,1.14245e-17,0.399178,1842.9,300.671)">
            <path d="M6617.73,1348.69C6614.25,1348.69 6611.43,1344.34 6611.43,1338.97L6566.08,1338.97C6566.08,1344.34 6563.26,1348.69 6559.79,1348.69L6559.79,1387.19C6563.26,1387.19 6566.08,1391.55 6566.08,1396.91L6611.43,1396.91C6611.43,1391.55 6614.25,1387.19 6617.73,1387.19L6617.73,1348.69Z" style="fill:none;stroke:rgb(238,160,0);stroke-width:2.03px;"/>
        </g>
        <g transform="matrix(1.00023,4.90594e-17,-4.90594e-16,1.05704,-906.395,-669.468)">
            <path d="M6587.68,1429.35C6587.78,1429.09 6588.03,1428.91 6588.31,1428.91C6588.59,1428.91 6588.84,1429.09 6588.93,1429.35L6590.09,1432.51L6593.45,1432.63C6593.73,1432.64 6593.97,1432.82 6594.06,1433.09C6594.15,1433.35 6594.06,1433.64 6593.84,1433.82L6591.19,1435.89L6592.11,1439.13C6592.19,1439.4 6592.09,1439.69 6591.86,1439.85C6591.64,1440.01 6591.33,1440.02 6591.1,1439.86L6588.31,1437.98L6585.52,1439.86C6585.28,1440.02 6584.98,1440.01 6584.75,1439.85C6584.53,1439.69 6584.43,1439.4 6584.5,1439.13L6585.43,1435.89L6582.78,1433.82C6582.56,1433.64 6582.47,1433.35 6582.56,1433.09C6582.64,1432.82 6582.89,1432.64 6583.16,1432.63L6586.53,1432.51L6587.68,1429.35Z" style="fill:rgb(238,160,0);"/>
        </g>
        <g transform="matrix(0.404228,0,0,0.427187,3008.31,233.948)">
            <path d="M6587.68,1429.35C6587.78,1429.09 6588.03,1428.91 6588.31,1428.91C6588.59,1428.91 6588.84,1429.09 6588.93,1429.35L6590.09,1432.51L6593.45,1432.63C6593.73,1432.64 6593.97,1432.82 6594.06,1433.09C6594.15,1433.35 6594.06,1433.64 6593.84,1433.82L6591.19,1435.89L6592.11,1439.13C6592.19,1439.4 6592.09,1439.69 6591.86,1439.85C6591.64,1440.01 6591.33,1440.02 6591.1,1439.86L6588.31,1437.98L6585.52,1439.86C6585.28,1440.02 6584.98,1440.01 6584.75,1439.85C6584.53,1439.69 6584.43,1439.4 6584.5,1439.13L6585.43,1435.89L6582.78,1433.82C6582.56,1433.64 6582.47,1433.35 6582.56,1433.09C6582.64,1432.82 6582.89,1432.64 6583.16,1432.63L6586.53,1432.51L6587.68,1429.35Z" style="fill:rgb(238,160,0);"/>
        </g>
        <g transform="matrix(0.404228,0,0,0.427187,3032.14,233.948)">
            <path d="M6587.68,1429.35C6587.78,1429.09 6588.03,1428.91 6588.31,1428.91C6588.59,1428.91 6588.84,1429.09 6588.93,1429.35L6590.09,1432.51L6593.45,1432.63C6593.73,1432.64 6593.97,1432.82 6594.06,1433.09C6594.15,1433.35 6594.06,1433.64 6593.84,1433.82L6591.19,1435.89L6592.11,1439.13C6592.19,1439.4 6592.09,1439.69 6591.86,1439.85C6591.64,1440.01 6591.33,1440.02 6591.1,1439.86L6588.31,1437.98L6585.52,1439.86C6585.28,1440.02 6584.98,1440.01 6584.75,1439.85C6584.53,1439.69 6584.43,1439.4 6584.5,1439.13L6585.43,1435.89L6582.78,1433.82C6582.56,1433.64 6582.47,1433.35 6582.56,1433.09C6582.64,1432.82 6582.89,1432.64 6583.16,1432.63L6586.53,1432.51L6587.68,1429.35Z" style="fill:rgb(238,160,0);"/>
        </g>
    </g>
</svg>
