<?xml version="1.0" encoding="UTF-8" standalone="no"?>
<!DOCTYPE svg PUBLIC "-//W3C//DTD SVG 1.1//EN" "http://www.w3.org/Graphics/SVG/1.1/DTD/svg11.dtd">
<svg width="100%" height="100%" viewBox="0 0 256 256" version="1.1" xmlns="http://www.w3.org/2000/svg" xmlns:xlink="http://www.w3.org/1999/xlink" xml:space="preserve" xmlns:serif="http://www.serif.com/" style="fill-rule:evenodd;clip-rule:evenodd;stroke-linejoin:round;stroke-miterlimit:2;">
    <g id="Ticket---Bonus-Multi" serif:id="Ticket - Bonus Multi" transform="matrix(3.26476,0,0,3.08929,-18786.9,-2619.84)">
        <g id="Ticket---Bonus" serif:id="Ticket - Bonus" transform="matrix(0.741217,-0.709392,0.635189,0.741217,1028.78,4292.39)">
            <g transform="matrix(0.710633,-2.7913e-17,1.39283e-17,0.531175,999.409,121.987)">
                <path d="M6617.73,1347.32C6617.73,1342.71 6615.08,1338.97 6611.82,1338.97L6565.69,1338.97C6562.43,1338.97 6559.79,1342.71 6559.79,1347.32L6559.79,1388.56C6559.79,1393.17 6562.43,1396.91 6565.69,1396.91L6611.82,1396.91C6615.08,1396.91 6617.73,1393.17 6617.73,1388.56L6617.73,1347.32Z" style="fill:rgb(238,160,0);"/>
            </g>
            <g transform="matrix(0.620512,0,0,0.655755,1558.13,-83.5803)">
                <path d="M6620.45,1397.04L6616.61,1397.04L6613.8,1400.35L6621.55,1400.35L6620.45,1397.04Z" style="fill:rgb(238,160,0);"/>
            </g>
            <g transform="matrix(-0.620512,0,0,-0.655755,9806.9,1779.17)">
                <path d="M6620.45,1397.04L6617.25,1397.35L6614.06,1400.07L6621.55,1400.35L6620.45,1397.04Z" style="fill:rgb(238,160,0);"/>
            </g>
            <g transform="matrix(0.708057,-2.77556e-17,1.38778e-17,0.52818,1018.17,124.204)">
                <path d="M6617.73,1345.82C6617.73,1342.04 6615.56,1338.97 6612.89,1338.97L6564.62,1338.97C6561.95,1338.97 6559.79,1342.04 6559.79,1345.82L6559.79,1390.07C6559.79,1393.85 6561.95,1396.91 6564.62,1396.91L6612.89,1396.91C6615.56,1396.91 6617.73,1393.85 6617.73,1390.07L6617.73,1345.82Z" style="fill:rgb(255,224,73);"/>
                <clipPath id="_clip1">
                    <path d="M6617.73,1345.82C6617.73,1342.04 6615.56,1338.97 6612.89,1338.97L6564.62,1338.97C6561.95,1338.97 6559.79,1342.04 6559.79,1345.82L6559.79,1390.07C6559.79,1393.85 6561.95,1396.91 6564.62,1396.91L6612.89,1396.91C6615.56,1396.91 6617.73,1393.85 6617.73,1390.07L6617.73,1345.82Z"/>
                </clipPath>
                <g clip-path="url(#_clip1)">
                    <g transform="matrix(0.992275,0.213353,-0.116772,1.09,221.86,-1508.13)">
                        <path d="M6617.73,1347.32C6617.73,1342.71 6614.82,1338.97 6611.25,1338.97L6566.26,1338.97C6562.69,1338.97 6559.79,1342.71 6559.79,1347.32L6559.79,1388.56C6559.79,1393.17 6562.69,1396.91 6566.26,1396.91L6611.25,1396.91C6614.82,1396.91 6617.73,1393.17 6617.73,1388.56L6617.73,1347.32Z" style="fill:rgb(238,160,0);"/>
                    </g>
                </g>
            </g>
            <g transform="matrix(0.573812,-2.0131e-17,1.12466e-17,0.383087,1902.68,322.683)">
                <path d="M6618.41,1345.82C6618.41,1345.22 6618.1,1344.73 6617.73,1344.73C6615.72,1344.73 6614.09,1342.15 6614.09,1338.97C6614.09,1338.37 6613.78,1337.89 6613.4,1337.89L6564.11,1337.89C6563.73,1337.89 6563.43,1338.37 6563.43,1338.97C6563.43,1342.15 6561.79,1344.73 6559.79,1344.73C6559.41,1344.73 6559.1,1345.22 6559.1,1345.82L6559.1,1390.07C6559.1,1390.67 6559.41,1391.15 6559.79,1391.15C6561.79,1391.15 6563.43,1393.73 6563.43,1396.91C6563.43,1397.51 6563.73,1398 6564.11,1398L6613.4,1398C6613.78,1398 6614.09,1397.51 6614.09,1396.91C6614.09,1393.73 6615.72,1391.15 6617.73,1391.15C6618.1,1391.15 6618.41,1390.67 6618.41,1390.07L6618.41,1345.82ZM6612.76,1340.06L6564.75,1340.06C6564.44,1343.57 6562.69,1346.35 6560.47,1346.83L6560.47,1389.06C6562.69,1389.54 6564.44,1392.32 6564.75,1395.83L6612.76,1395.83C6613.07,1392.32 6614.82,1389.54 6617.04,1389.06L6617.04,1346.83C6614.82,1346.35 6613.07,1343.57 6612.76,1340.06Z" style="fill:rgb(238,160,0);"/>
            </g>
        </g>
        <g id="Ticket---Bonus1" serif:id="Ticket - Bonus" transform="matrix(0.83355,-0.583821,0.522754,0.83355,613.338,3501.64)">
            <g transform="matrix(0.710633,-2.7913e-17,1.39283e-17,0.531175,999.409,121.987)">
                <path d="M6617.73,1347.32C6617.73,1342.71 6615.08,1338.97 6611.82,1338.97L6565.69,1338.97C6562.43,1338.97 6559.79,1342.71 6559.79,1347.32L6559.79,1388.56C6559.79,1393.17 6562.43,1396.91 6565.69,1396.91L6611.82,1396.91C6615.08,1396.91 6617.73,1393.17 6617.73,1388.56L6617.73,1347.32Z" style="fill:rgb(238,160,0);"/>
            </g>
            <g transform="matrix(0.620512,0,0,0.655755,1558.13,-83.5803)">
                <path d="M6620.45,1397.04L6616.61,1397.04L6613.8,1400.35L6621.55,1400.35L6620.45,1397.04Z" style="fill:rgb(238,160,0);"/>
            </g>
            <g transform="matrix(-0.620512,0,0,-0.655755,9806.9,1779.17)">
                <path d="M6620.45,1397.04L6617.25,1397.35L6614.06,1400.07L6621.55,1400.35L6620.45,1397.04Z" style="fill:rgb(238,160,0);"/>
            </g>
            <g transform="matrix(0.708057,0.00045531,-0.000304115,0.52818,1018.57,121.217)">
                <path d="M6617.73,1345.82C6617.73,1342.04 6615.56,1338.97 6612.89,1338.97L6564.62,1338.97C6561.95,1338.97 6559.79,1342.04 6559.79,1345.82L6559.79,1390.07C6559.79,1393.85 6561.95,1396.91 6564.62,1396.91L6612.89,1396.91C6615.56,1396.91 6617.73,1393.85 6617.73,1390.07L6617.73,1345.82Z" style="fill:rgb(255,224,73);"/>
                <clipPath id="_clip2">
                    <path d="M6617.73,1345.82C6617.73,1342.04 6615.56,1338.97 6612.89,1338.97L6564.62,1338.97C6561.95,1338.97 6559.79,1342.04 6559.79,1345.82L6559.79,1390.07C6559.79,1393.85 6561.95,1396.91 6564.62,1396.91L6612.89,1396.91C6615.56,1396.91 6617.73,1393.85 6617.73,1390.07L6617.73,1345.82Z"/>
                </clipPath>
                <g clip-path="url(#_clip2)">
                    <g transform="matrix(0.985677,0.267788,-0.146025,1.07877,307.484,-1852.33)">
                        <path d="M6617.73,1347.32C6617.73,1342.71 6614.84,1338.97 6611.27,1338.97L6566.24,1338.97C6562.68,1338.97 6559.79,1342.71 6559.79,1347.32L6559.79,1388.56C6559.79,1393.17 6562.68,1396.91 6566.24,1396.91L6611.27,1396.91C6614.84,1396.91 6617.73,1393.17 6617.73,1388.56L6617.73,1347.32Z" style="fill:rgb(238,160,0);"/>
                    </g>
                </g>
            </g>
            <g transform="matrix(0.573812,-2.0131e-17,1.12466e-17,0.383087,1902.68,322.683)">
                <path d="M6618.41,1345.82C6618.41,1345.22 6618.1,1344.73 6617.73,1344.73C6615.72,1344.73 6614.09,1342.15 6614.09,1338.97C6614.09,1338.37 6613.78,1337.89 6613.4,1337.89L6564.11,1337.89C6563.73,1337.89 6563.43,1338.37 6563.43,1338.97C6563.43,1342.15 6561.79,1344.73 6559.79,1344.73C6559.41,1344.73 6559.1,1345.22 6559.1,1345.82L6559.1,1390.07C6559.1,1390.67 6559.41,1391.15 6559.79,1391.15C6561.79,1391.15 6563.43,1393.73 6563.43,1396.91C6563.43,1397.51 6563.73,1398 6564.11,1398L6613.4,1398C6613.78,1398 6614.09,1397.51 6614.09,1396.91C6614.09,1393.73 6615.72,1391.15 6617.73,1391.15C6618.1,1391.15 6618.41,1390.67 6618.41,1390.07L6618.41,1345.82ZM6612.76,1340.06L6564.75,1340.06C6564.44,1343.57 6562.69,1346.35 6560.47,1346.83L6560.47,1389.06C6562.69,1389.54 6564.44,1392.32 6564.75,1395.83L6612.76,1395.83C6613.07,1392.32 6614.82,1389.54 6617.04,1389.06L6617.04,1346.83C6614.82,1346.35 6613.07,1343.57 6612.76,1340.06Z" style="fill:rgb(238,160,0);"/>
            </g>
        </g>
        <g id="Ticket---Bonus2" serif:id="Ticket - Bonus" transform="matrix(0.922913,-0.406875,0.364316,0.922913,254.437,2422.39)">
            <g transform="matrix(0.710633,-2.7913e-17,1.39283e-17,0.531175,999.409,121.987)">
                <path d="M6617.73,1347.32C6617.73,1342.71 6615.08,1338.97 6611.82,1338.97L6565.69,1338.97C6562.43,1338.97 6559.79,1342.71 6559.79,1347.32L6559.79,1388.56C6559.79,1393.17 6562.43,1396.91 6565.69,1396.91L6611.82,1396.91C6615.08,1396.91 6617.73,1393.17 6617.73,1388.56L6617.73,1347.32Z" style="fill:rgb(238,160,0);"/>
            </g>
            <g transform="matrix(0.620512,0,0,0.655755,1558.13,-83.5803)">
                <path d="M6620.45,1397.04L6616.61,1397.04L6613.8,1400.35L6621.55,1400.35L6620.45,1397.04Z" style="fill:rgb(238,160,0);"/>
            </g>
            <g transform="matrix(-0.620512,0,0,-0.655755,9806.9,1779.17)">
                <path d="M6620.45,1397.04L6617.25,1397.35L6614.06,1400.07L6621.55,1400.35L6620.45,1397.04Z" style="fill:rgb(238,160,0);"/>
            </g>
            <g transform="matrix(0.708057,0.000577719,-0.000385875,0.52818,1018.68,120.414)">
                <path d="M6617.73,1345.82C6617.73,1342.04 6615.56,1338.97 6612.89,1338.97L6564.62,1338.97C6561.95,1338.97 6559.79,1342.04 6559.79,1345.82L6559.79,1390.07C6559.79,1393.85 6561.95,1396.91 6564.62,1396.91L6612.89,1396.91C6615.56,1396.91 6617.73,1393.85 6617.73,1390.07L6617.73,1345.82Z" style="fill:rgb(255,224,73);"/>
            </g>
            <g transform="matrix(0.573812,-2.0131e-17,1.12466e-17,0.383087,1902.68,322.683)">
                <path d="M6618.41,1345.82C6618.41,1345.22 6618.1,1344.73 6617.73,1344.73C6615.72,1344.73 6614.09,1342.15 6614.09,1338.97C6614.09,1338.37 6613.78,1337.89 6613.4,1337.89L6564.11,1337.89C6563.73,1337.89 6563.43,1338.37 6563.43,1338.97C6563.43,1342.15 6561.79,1344.73 6559.79,1344.73C6559.41,1344.73 6559.1,1345.22 6559.1,1345.82L6559.1,1390.07C6559.1,1390.67 6559.41,1391.15 6559.79,1391.15C6561.79,1391.15 6563.43,1393.73 6563.43,1396.91C6563.43,1397.51 6563.73,1398 6564.11,1398L6613.4,1398C6613.78,1398 6614.09,1397.51 6614.09,1396.91C6614.09,1393.73 6615.72,1391.15 6617.73,1391.15C6618.1,1391.15 6618.41,1390.67 6618.41,1390.07L6618.41,1345.82ZM6612.76,1340.06L6564.75,1340.06C6564.44,1343.57 6562.69,1346.35 6560.47,1346.83L6560.47,1389.06C6562.69,1389.54 6564.44,1392.32 6564.75,1395.83L6612.76,1395.83C6613.07,1392.32 6614.82,1389.54 6617.04,1389.06L6617.04,1346.83C6614.82,1346.35 6613.07,1343.57 6612.76,1340.06Z" style="fill:rgb(238,160,0);"/>
            </g>
            <g transform="matrix(0.404228,0,0,0.427187,3009.37,234.264)">
                <path d="M6587.66,1429.37C6587.76,1429.09 6588.02,1428.91 6588.31,1428.91C6588.6,1428.91 6588.86,1429.09 6588.96,1429.37L6590.1,1432.5L6593.43,1432.61C6593.72,1432.62 6593.97,1432.81 6594.06,1433.09C6594.15,1433.37 6594.06,1433.67 6593.83,1433.85L6591.2,1435.9L6592.12,1439.1C6592.2,1439.38 6592.1,1439.68 6591.86,1439.85C6591.63,1440.02 6591.31,1440.03 6591.07,1439.86L6588.31,1438L6585.55,1439.86C6585.31,1440.03 6584.99,1440.02 6584.75,1439.85C6584.52,1439.68 6584.41,1439.38 6584.49,1439.1L6585.41,1435.9L6582.79,1433.85C6582.56,1433.67 6582.47,1433.37 6582.56,1433.09C6582.65,1432.81 6582.9,1432.62 6583.19,1432.61L6586.52,1432.5L6587.66,1429.37Z" style="fill:rgb(238,160,0);"/>
            </g>
            <g transform="matrix(0.404228,0,0,0.427187,3030.66,234.147)">
                <path d="M6587.66,1429.37C6587.76,1429.09 6588.02,1428.91 6588.31,1428.91C6588.6,1428.91 6588.86,1429.09 6588.96,1429.37L6590.1,1432.5L6593.43,1432.61C6593.72,1432.62 6593.97,1432.81 6594.06,1433.09C6594.15,1433.37 6594.06,1433.67 6593.83,1433.85L6591.2,1435.9L6592.12,1439.1C6592.2,1439.38 6592.1,1439.68 6591.86,1439.85C6591.63,1440.02 6591.31,1440.03 6591.07,1439.86L6588.31,1438L6585.55,1439.86C6585.31,1440.03 6584.99,1440.02 6584.75,1439.85C6584.52,1439.68 6584.41,1439.38 6584.49,1439.1L6585.41,1435.9L6582.79,1433.85C6582.56,1433.67 6582.47,1433.37 6582.56,1433.09C6582.65,1432.81 6582.9,1432.62 6583.19,1432.61L6586.52,1432.5L6587.66,1429.37Z" style="fill:rgb(238,160,0);"/>
            </g>
            <g transform="matrix(1.04399,0,3.8242e-33,1.10328,-1194.74,-735.906)">
                <path d="M6587.66,1429.37C6587.76,1429.09 6588.02,1428.91 6588.31,1428.91C6588.6,1428.91 6588.86,1429.09 6588.96,1429.37L6590.1,1432.5L6593.43,1432.61C6593.72,1432.62 6593.97,1432.81 6594.06,1433.09C6594.15,1433.37 6594.06,1433.67 6593.83,1433.85L6591.2,1435.9L6592.12,1439.1C6592.2,1439.38 6592.1,1439.68 6591.86,1439.85C6591.63,1440.02 6591.31,1440.03 6591.07,1439.86L6588.31,1438L6585.55,1439.86C6585.31,1440.03 6584.99,1440.02 6584.75,1439.85C6584.52,1439.68 6584.41,1439.38 6584.49,1439.1L6585.41,1435.9L6582.79,1433.85C6582.56,1433.67 6582.47,1433.37 6582.56,1433.09C6582.65,1432.81 6582.9,1432.62 6583.19,1432.61L6586.52,1432.5L6587.66,1429.37Z" style="fill:rgb(238,160,0);"/>
            </g>
        </g>
    </g>
</svg>
