<?xml version="1.0" encoding="UTF-8" standalone="no"?>
<!DOCTYPE svg PUBLIC "-//W3C//DTD SVG 1.1//EN" "http://www.w3.org/Graphics/SVG/1.1/DTD/svg11.dtd">
<svg width="100%" height="100%" viewBox="0 0 256 256" version="1.1" xmlns="http://www.w3.org/2000/svg" xmlns:xlink="http://www.w3.org/1999/xlink" xml:space="preserve" xmlns:serif="http://www.serif.com/" style="fill-rule:evenodd;clip-rule:evenodd;stroke-linejoin:round;stroke-miterlimit:2;">
    <g id="Timer" transform="matrix(0.233952,0,0,0.233952,19.2122,12.9164)">
        <g>
            <g id="Ellipse" transform="matrix(0.962734,0,0,0.962734,17.4189,18.9144)">
                <path d="M0.761,560.337C0.761,306.274 208.567,100.322 464.906,100.322C721.249,100.322 929.052,306.274 929.052,560.337C929.052,814.398 721.249,1020.35 464.906,1020.35C208.567,1020.35 0.761,814.398 0.761,560.337Z" style="fill:rgb(81,168,231);fill-rule:nonzero;"/>
            </g>
            <g transform="matrix(4.27438,0,0,4.27438,-82.1202,-55.2097)">
                <path d="M128,39.937C185.737,39.937 232.541,86.325 232.541,143.548C232.541,200.771 185.737,247.159 128,247.159L128,39.937Z" style="fill:rgb(34,139,230);"/>
            </g>
        </g>
        <g id="Ellipse2" transform="matrix(0.962734,0,0,0.962734,17.4189,18.9144)">
            <path d="M85.151,560.337C85.151,352.466 255.171,183.961 464.906,183.961C674.642,183.961 844.664,352.466 844.664,560.337C844.664,768.207 674.642,936.71 464.906,936.71C255.171,936.71 85.151,768.207 85.151,560.337Z" style="fill:rgb(248,249,250);fill-rule:nonzero;"/>
            <clipPath id="_clip1">
                <path d="M85.151,560.337C85.151,352.466 255.171,183.961 464.906,183.961C674.642,183.961 844.664,352.466 844.664,560.337C844.664,768.207 674.642,936.71 464.906,936.71C255.171,936.71 85.151,768.207 85.151,560.337Z" clip-rule="nonzero"/>
            </clipPath>
            <g clip-path="url(#_clip1)">
                <g transform="matrix(4.71617,0,0,4.71617,-310.63,-216.918)">
                    <path d="M164.442,69.035C221.214,69.035 267.306,115.127 267.306,171.899C267.306,228.671 221.214,274.763 164.442,274.763C107.67,274.763 61.578,228.671 61.578,171.899C61.578,115.127 107.67,69.035 164.442,69.035ZM164.442,92.682C208.163,92.682 243.659,128.178 243.659,171.899C243.659,215.62 208.163,251.117 164.442,251.117C120.721,251.117 85.225,215.62 85.225,171.899C85.225,128.178 120.721,92.682 164.442,92.682Z" style="fill:rgb(206,212,218);"/>
                </g>
            </g>
        </g>
        <g id="Shine" transform="matrix(0.924916,0,0,0.924916,-30.6846,4.20755)">
            <path d="M215.964,559.751C215.964,420.22 328.89,307.11 468.188,307.11C607.486,307.11 720.407,420.22 720.407,559.751C720.407,699.283 607.486,812.394 468.188,812.394C328.89,812.394 215.964,699.283 215.964,559.751Z" style="fill:white;fill-rule:nonzero;"/>
        </g>
        <g transform="matrix(0.962734,0,0,0.962734,17.4189,18.9144)">
            <g id="Ellipse4" transform="matrix(1,0,0,1,4.099,-1.77636e-15)">
                <path d="M734.958,559.628C734.958,545.77 746.292,534.536 760.273,534.536C774.26,534.536 785.59,545.77 785.59,559.628C785.59,573.487 774.26,584.72 760.273,584.72C746.292,584.72 734.958,573.487 734.958,559.628Z" style="fill:rgb(73,80,87);fill-rule:nonzero;"/>
            </g>
            <g id="Ellipse6" transform="matrix(1,0,0,1,4.099,7.655)">
                <path d="M136.025,551.972C136.025,538.114 147.355,526.882 161.342,526.882C175.323,526.882 186.658,538.114 186.658,551.972C186.658,565.831 175.323,577.065 161.342,577.065C147.355,577.065 136.025,565.831 136.025,551.972Z" style="fill:rgb(73,80,87);fill-rule:nonzero;"/>
            </g>
            <g id="Ellipse41" serif:id="Ellipse4" transform="matrix(6.12323e-17,1,-1,6.12323e-17,1024.53,98.8205)">
                <path d="M734.958,559.628C734.958,545.77 746.292,534.536 760.273,534.536C774.26,534.536 785.59,545.77 785.59,559.628C785.59,573.487 774.26,584.72 760.273,584.72C746.292,584.72 734.958,573.487 734.958,559.628Z" style="fill:rgb(73,80,87);fill-rule:nonzero;"/>
            </g>
            <g id="Ellipse61" serif:id="Ellipse6" transform="matrix(6.12323e-17,1,-1,6.12323e-17,1016.88,98.8205)">
                <path d="M136.025,551.972C136.025,538.114 147.355,526.882 161.342,526.882C175.323,526.882 186.658,538.114 186.658,551.972C186.658,565.831 175.323,577.065 161.342,577.065C147.355,577.065 136.025,565.831 136.025,551.972Z" style="fill:rgb(73,80,87);fill-rule:nonzero;"/>
            </g>
            <g id="Ellipse42" serif:id="Ellipse4" transform="matrix(-0.384096,-0.384096,0.384096,-0.384096,330.219,854.842)">
                <path d="M734.958,559.628C734.958,545.77 746.292,534.536 760.273,534.536C774.26,534.536 785.59,545.77 785.59,559.628C785.59,573.487 774.26,584.72 760.273,584.72C746.292,584.72 734.958,573.487 734.958,559.628Z" style="fill:rgb(73,80,87);fill-rule:nonzero;"/>
            </g>
            <g id="Ellipse62" serif:id="Ellipse6" transform="matrix(-0.384096,-0.384096,0.384096,-0.384096,526.621,1045.36)">
                <path d="M136.025,551.972C136.025,538.114 147.355,526.882 161.342,526.882C175.323,526.882 186.658,538.114 186.658,551.972C186.658,565.831 175.323,577.065 161.342,577.065C147.355,577.065 136.025,565.831 136.025,551.972Z" style="fill:rgb(73,80,87);fill-rule:nonzero;"/>
            </g>
            <g id="Ellipse43" serif:id="Ellipse4" transform="matrix(-0.384096,0.384096,-0.384096,-0.384096,760.121,694.315)">
                <path d="M734.958,559.628C734.958,545.77 746.292,534.536 760.273,534.536C774.26,534.536 785.59,545.77 785.59,559.628C785.59,573.487 774.26,584.72 760.273,584.72C746.292,584.72 734.958,573.487 734.958,559.628Z" style="fill:rgb(73,80,87);fill-rule:nonzero;"/>
            </g>
            <g id="Ellipse63" serif:id="Ellipse6" transform="matrix(-0.384096,0.384096,-0.384096,-0.384096,950.642,497.913)">
                <path d="M136.025,551.972C136.025,538.114 147.355,526.882 161.342,526.882C175.323,526.882 186.658,538.114 186.658,551.972C186.658,565.831 175.323,577.065 161.342,577.065C147.355,577.065 136.025,565.831 136.025,551.972Z" style="fill:rgb(73,80,87);fill-rule:nonzero;"/>
            </g>
        </g>
        <g transform="matrix(0.782519,0,0,0.962734,110.621,19.3356)">
            <path d="M498.371,522.488L759.213,559.751L499.824,597.308L498.371,522.488Z" style="fill:rgb(255,107,107);fill-rule:nonzero;"/>
        </g>
        <g>
            <g transform="matrix(4.27438,0,0,4.27438,-79.6367,-28.296)">
                <circle cx="127.419" cy="137.251" r="22.418" style="fill:rgb(255,107,107);"/>
            </g>
            <g transform="matrix(4.27438,0,0,4.27438,-79.6367,-28.296)">
                <path d="M127.419,114.833C139.792,114.833 149.837,124.878 149.837,137.251C149.837,149.624 139.792,159.67 127.419,159.67L127.419,114.833Z" style="fill:rgb(235,55,79);"/>
            </g>
        </g>
        <g>
            <g transform="matrix(0.481367,0,0,0.962734,256.438,18.9144)">
                <rect x="433.271" y="39.147" width="46.565" height="91.869" style="fill:rgb(34,139,230);"/>
            </g>
            <g transform="matrix(0.481367,0,0,0.962734,234.023,18.9144)">
                <rect x="433.271" y="39.147" width="46.565" height="91.869" style="fill:rgb(81,168,231);"/>
            </g>
            <g transform="matrix(1.37411,0,0,1.37411,-167.654,-18.6237)">
                <path d="M565.18,35.328C565.18,16.314 549.743,0.877 530.729,0.877L390.093,0.877C371.079,0.877 355.642,16.314 355.642,35.328C355.642,54.342 371.079,69.779 390.093,69.779L530.729,69.779C549.743,69.779 565.18,54.342 565.18,35.328Z" style="fill:rgb(81,168,231);"/>
            </g>
            <g transform="matrix(4.27438,0,0,4.27438,-82.1202,-55.2097)">
                <path d="M128,8.841L128,30.992L150.605,30.992C156.718,30.992 161.681,26.029 161.681,19.916C161.681,13.804 156.718,8.841 150.605,8.841L128,8.841Z" style="fill:rgb(34,139,230);"/>
            </g>
        </g>
    </g>
</svg>
