<?xml version="1.0" encoding="UTF-8" standalone="no"?>
<!DOCTYPE svg PUBLIC "-//W3C//DTD SVG 1.1//EN" "http://www.w3.org/Graphics/SVG/1.1/DTD/svg11.dtd">
<svg width="100%" height="100%" viewBox="0 0 256 256" version="1.1" xmlns="http://www.w3.org/2000/svg" xmlns:xlink="http://www.w3.org/1999/xlink" xml:space="preserve" xmlns:serif="http://www.serif.com/" style="fill-rule:evenodd;clip-rule:evenodd;stroke-linejoin:round;stroke-miterlimit:2;">
    <g id="Tree" transform="matrix(5.21132,0,0,4.93124,-27637.2,-4170)">
        <g transform="matrix(0.662376,0,0,0.655755,1334.63,-97.8107)">
            <path d="M6035.82,1483.7C6035.82,1479.55 6032.66,1476.19 6028.78,1476.19C6024.9,1476.19 6021.75,1479.55 6021.75,1483.7L6021.75,1508.27C6021.75,1512.41 6024.9,1515.78 6028.78,1515.78C6032.66,1515.78 6035.82,1512.41 6035.82,1508.27L6035.82,1483.7Z" style="fill:rgb(160,88,65);"/>
            <clipPath id="_clip1">
                <path d="M6035.82,1483.7C6035.82,1479.55 6032.66,1476.19 6028.78,1476.19C6024.9,1476.19 6021.75,1479.55 6021.75,1483.7L6021.75,1508.27C6021.75,1512.41 6024.9,1515.78 6028.78,1515.78C6032.66,1515.78 6035.82,1512.41 6035.82,1508.27L6035.82,1483.7Z"/>
            </clipPath>
            <g clip-path="url(#_clip1)">
                <g transform="matrix(0.567646,0,0,0.372107,2606.57,961.557)">
                    <rect x="6028.78" y="1426.3" width="42.964" height="74.91" style="fill:rgb(148,79,62);"/>
                </g>
            </g>
        </g>
        <g transform="matrix(1.12926,0,0,1.12926,-688.674,-112.175)">
            <g transform="matrix(0.259635,0,0,0.274382,2496.14,434.16)">
                <path d="M10894.1,1520.61C10896.4,1516.28 10901,1513.33 10906.3,1513.33C10911.4,1513.33 10915.9,1516.14 10918.3,1520.31C10921.1,1519.3 10924.1,1518.76 10927.2,1518.76C10939.9,1518.76 10950.5,1527.92 10952.8,1540.01C10952.9,1540.01 10953,1540 10953.2,1540C10960.8,1540 10967,1546.22 10967,1553.87C10967,1556.96 10966,1559.82 10964.3,1562.12C10970,1565.93 10973.7,1572.41 10973.7,1579.76C10973.7,1587.5 10969.6,1594.28 10963.4,1597.98C10965.7,1600.45 10967,1603.74 10967,1607.36C10967,1615.01 10960.8,1621.22 10953.2,1621.22C10952.7,1621.22 10952.2,1621.19 10951.8,1621.15C10951.3,1632.45 10942,1641.48 10930.6,1641.48C10928.4,1641.48 10926.3,1641.15 10924.3,1640.53C10919.6,1645.02 10913.3,1647.78 10906.3,1647.78C10899.3,1647.78 10892.9,1645 10888.2,1640.48C10886.2,1641.13 10884,1641.48 10881.8,1641.48C10870.4,1641.48 10861.1,1632.49 10860.6,1621.22L10860.6,1621.22C10852.9,1621.22 10846.7,1615.01 10846.7,1607.36C10846.7,1603.86 10848,1600.66 10850.2,1598.22C10843.7,1594.58 10839.4,1587.67 10839.4,1579.76C10839.4,1572.22 10843.3,1565.6 10849.2,1561.84C10847.6,1559.59 10846.7,1556.83 10846.7,1553.87C10846.7,1546.81 10852,1540.98 10858.8,1540.11C10861,1527.97 10871.6,1518.76 10884.4,1518.76C10887.8,1518.76 10891.1,1519.41 10894.1,1520.61Z" style="fill:rgb(78,182,114);"/>
            </g>
            <g transform="matrix(0.169926,0,0,0.179577,5306.12,848.171)">
                <path d="M128.453,6.804C135.948,7.108 142.446,11.317 145.963,17.449C150.189,15.916 154.747,15.081 159.498,15.081C178.951,15.081 195.158,29.088 198.575,47.558C198.796,47.551 199.017,47.548 199.239,47.548C210.928,47.548 220.417,57.038 220.417,68.726C220.417,73.454 218.865,77.823 216.243,81.347C224.932,87.159 230.658,97.061 230.658,108.29C230.658,120.118 224.305,130.474 214.828,136.128C218.298,139.901 220.417,144.934 220.417,150.458C220.417,162.147 210.928,171.636 199.239,171.636C198.52,171.636 197.81,171.6 197.11,171.53C196.414,188.796 182.179,202.6 164.745,202.6C161.387,202.6 158.148,202.088 155.103,201.138C148.155,207.814 138.786,211.991 128.453,212.213L128.453,6.804Z" style="fill:rgb(50,146,85);"/>
            </g>
            <g transform="matrix(0.192141,0,0,0.203054,3230.36,553.61)">
                <circle cx="10882.7" cy="1539.22" r="18.73" style="fill:rgb(50,146,85);"/>
            </g>
            <g transform="matrix(0.192141,0,0,0.203054,3236.94,544.669)">
                <circle cx="10882.7" cy="1539.22" r="18.73" style="fill:rgb(79,182,114);"/>
            </g>
            <g transform="matrix(0.293873,0,0,0.310564,2128.74,391.931)">
                <circle cx="10882.7" cy="1539.22" r="18.73" style="fill:rgb(50,146,85);"/>
            </g>
        </g>
    </g>
</svg>
