<?xml version="1.0" encoding="UTF-8" standalone="no"?>
<!DOCTYPE svg PUBLIC "-//W3C//DTD SVG 1.1//EN" "http://www.w3.org/Graphics/SVG/1.1/DTD/svg11.dtd">
<svg width="100%" height="100%" viewBox="0 0 256 256" version="1.1" xmlns="http://www.w3.org/2000/svg" xmlns:xlink="http://www.w3.org/1999/xlink" xml:space="preserve" xmlns:serif="http://www.serif.com/" style="fill-rule:evenodd;clip-rule:evenodd;stroke-linecap:round;stroke-linejoin:round;stroke-miterlimit:1.5;">
    <g id="Ufo-Alien" serif:id="Ufo Alien" transform="matrix(0.675755,0,0,1.32799,-5015.45,-1369.15)">
        <g>
            <g>
                <g transform="matrix(0.348326,-3.01144e-17,2.96195e-16,0.265302,-179.054,191.325)">
                    <ellipse cx="22365.4" cy="3735.95" rx="176.765" ry="115.837" style="fill:rgb(72,94,116);"/>
                </g>
                <g transform="matrix(0.721113,-3.08149e-33,0,0.366942,-6215.75,-1004.15)">
                    <path d="M19146.7,5879.94C19155.5,5876.93 19164.9,5875.29 19174.8,5875.29C19221.9,5875.29 19260.1,5912.82 19260.1,5959.04C19260.1,6005.26 19221.9,6042.79 19174.8,6042.79C19164.9,6042.79 19155.5,6041.15 19146.7,6038.14C19180,6026.73 19203.9,5995.61 19203.9,5959.04C19203.9,5922.47 19180,5891.35 19146.7,5879.94Z" style="fill:rgb(63,82,102);"/>
                </g>
            </g>
            <g>
                <g transform="matrix(1.05991,-8.39602e-17,5.05751e-16,0.453001,-16094,-553.758)">
                    <ellipse cx="22365.4" cy="3735.95" rx="176.765" ry="115.837" style="fill:rgb(112,150,188);"/>
                </g>
                <g transform="matrix(0.721113,-3.08149e-33,0,0.366942,-6215.75,-1004.15)">
                    <path d="M18918.6,5815.41C18939.5,5882.87 19046.3,5934.29 19174.8,5934.29C19303.2,5934.29 19410,5882.87 19430.9,5815.41C19433.3,5823.26 19434.6,5831.32 19434.6,5839.55C19434.6,5918.47 19318.2,5982.55 19174.8,5982.55C19031.4,5982.55 18914.9,5918.47 18914.9,5839.55C18914.9,5831.32 18916.2,5823.26 18918.6,5815.41Z" style="fill:rgb(83,129,175);"/>
                </g>
                <g transform="matrix(1.23453,-4.02329e-17,1.37829e-15,1.23453,-4624,685.891)">
                    <g transform="matrix(0.721113,8.8884e-33,1.80917e-31,0.366942,-6221.04,-1000.6)">
                        <circle cx="22371" cy="3806.22" r="11.817" style="fill:rgb(140,233,154);"/>
                    </g>
                    <g transform="matrix(1,1.2326e-32,1.08468e-30,1,-0.948425,14.2236)">
                        <g transform="matrix(0.447602,-0.1315,0.360556,0.317781,-1356.34,2098.08)">
                            <circle cx="22371" cy="3806.22" r="11.817" style="fill:rgb(140,233,154);"/>
                        </g>
                        <g transform="matrix(-0.447602,-0.1315,-0.360556,0.317781,21180.2,2098.08)">
                            <circle cx="22371" cy="3806.22" r="11.817" style="fill:rgb(140,233,154);"/>
                        </g>
                    </g>
                </g>
            </g>
        </g>
        <g>
            <g transform="matrix(0.890235,-2.90124e-17,5.05751e-16,0.453001,-12086,-35.6978)">
                <path d="M22021.2,2529.31L22021.2,2482.83C22021.2,2424.99 22068.2,2378.03 22126,2378.03C22183.9,2378.03 22230.8,2424.99 22230.8,2482.83L22231,2529.31C22230.8,2564.25 22183.7,2592.33 22126,2592.33C22068.3,2592.33 22021.5,2564.25 22021.2,2529.31Z" style="fill:rgb(153,233,242);"/>
            </g>
            <g>
                <g transform="matrix(1.47983,0,0,0.753018,7422,1031)">
                    <path d="M110.451,141.458C114.356,135.978 120.764,132.4 128,132.4C135.228,132.4 141.629,135.969 145.534,141.439C139.944,142.415 134.035,142.938 127.93,142.938C121.866,142.938 116,142.422 110.451,141.458Z" style="fill:rgb(55,178,77);"/>
                </g>
                <g transform="matrix(0.318603,-9.01307e-18,6.70432e-17,0.206533,4454.95,-810.367)">
                    <rect x="9889.15" y="9356.03" width="36.125" height="57.636" style="fill:rgb(55,178,77);"/>
                </g>
            </g>
            <g transform="matrix(1,0,0,1,-1.09139e-11,-13.1155)">
                <g transform="matrix(1.09153,-3.55727e-17,6.20111e-16,0.555433,-16817,-932.603)">
                    <circle cx="22379.9" cy="3665.27" r="66.074" style="fill:rgb(64,192,87);"/>
                </g>
                <g transform="matrix(0.721113,0,0,0.366942,-6215.75,-1004.15)">
                    <path d="M19160.5,5644.01C19165.2,5643.34 19169.9,5643 19174.8,5643C19230,5643 19274.8,5687.81 19274.8,5743.01C19274.8,5798.21 19230,5843.03 19174.8,5843.03C19169.9,5843.03 19165.2,5842.68 19160.5,5842.01C19208.9,5835.08 19246.2,5793.36 19246.2,5743.01C19246.2,5692.66 19208.9,5650.95 19160.5,5644.01Z" style="fill:rgb(55,178,77);"/>
                </g>
                <g>
                    <g transform="matrix(0.190512,-1.52835e-17,1.08232e-16,0.096943,3390.51,730.259)">
                        <circle cx="22379.9" cy="3665.27" r="66.074" style="fill:rgb(55,178,77);"/>
                    </g>
                    <g transform="matrix(0.0665896,-1.08867e-17,4.05209e-17,0.0338845,6142.59,950.762)">
                        <circle cx="22379.9" cy="3665.27" r="66.074" style="fill:rgb(55,178,77);"/>
                    </g>
                    <g transform="matrix(0.129812,-2.65807e-17,7.52308e-17,0.0660555,4739.49,858.295)">
                        <circle cx="22379.9" cy="3665.27" r="66.074" style="fill:rgb(55,178,77);"/>
                    </g>
                    <g transform="matrix(0.129812,-2.65807e-17,7.52308e-17,0.0660555,4657.54,850.698)">
                        <circle cx="22379.9" cy="3665.27" r="66.074" style="fill:rgb(55,178,77);"/>
                    </g>
                </g>
                <g transform="matrix(1.00723,3.52856e-17,4.5431e-15,0.851923,3211.64,865.561)">
                    <path d="M4342.38,277.744C4345.11,273.314 4350.32,279.688 4363.27,280.239C4377.06,280.825 4383.38,278.143 4383.58,283.384C4383.76,288.106 4365.64,291.9 4353.78,288.629C4347.26,286.833 4339.63,282.198 4342.38,277.744Z" style="fill:white;"/>
                    <clipPath id="_clip1">
                        <path d="M4342.38,277.744C4345.11,273.314 4350.32,279.688 4363.27,280.239C4377.06,280.825 4383.38,278.143 4383.58,283.384C4383.76,288.106 4365.64,291.9 4353.78,288.629C4347.26,286.833 4339.63,282.198 4342.38,277.744Z"/>
                    </clipPath>
                    <g clip-path="url(#_clip1)">
                        <g transform="matrix(1.09129,-0.26387,0.292411,0.984776,-537.433,1195.67)">
                            <path d="M4398.35,263.475C4401.29,261.023 4405.32,262.023 4412.73,265.192C4420.15,268.362 4422.5,271.897 4421.21,276.468C4419.91,281.039 4394.57,266.627 4398.35,263.475Z" style="fill:rgb(131,51,89);"/>
                        </g>
                        <g transform="matrix(1.00847,-0.248139,0.412451,0.606717,-14229.9,4663.27)">
                            <path d="M18320.8,261.959L18305,273.245" style="fill:none;stroke:rgb(52,113,146);stroke-width:2px;"/>
                        </g>
                        <g transform="matrix(0.807456,-0.440107,0.731534,0.485783,-10622.2,8213.87)">
                            <path d="M18320.8,261.959L18305,273.245" style="fill:none;stroke:rgb(52,113,146);stroke-width:2px;"/>
                        </g>
                        <g transform="matrix(0.50025,-0.582324,0.967924,0.300961,-5044.89,10867.9)">
                            <path d="M18320.8,261.959L18305,273.245" style="fill:none;stroke:rgb(52,113,146);stroke-width:2px;"/>
                        </g>
                    </g>
                </g>
                <g transform="matrix(0.342133,-1.115e-17,1.94369e-16,0.174096,-45.4932,451.238)">
                    <circle cx="22379.9" cy="3665.27" r="66.074" style="fill:rgb(255,245,245);"/>
                </g>
                <g transform="matrix(0.0642105,-2.0926e-18,3.64786e-17,0.0326739,6174.39,973.095)">
                    <circle cx="22379.9" cy="3665.27" r="66.074" style="fill:rgb(52,58,64);"/>
                </g>
                <g transform="matrix(0.890235,-2.90124e-17,5.05751e-16,0.453001,-12299.1,-553.758)">
                    <circle cx="22317.7" cy="3594.57" r="17.834" style="fill:white;"/>
                </g>
            </g>
        </g>
    </g>
</svg>
