<?xml version="1.0" encoding="UTF-8" standalone="no"?>
<!DOCTYPE svg PUBLIC "-//W3C//DTD SVG 1.1//EN" "http://www.w3.org/Graphics/SVG/1.1/DTD/svg11.dtd">
<svg width="100%" height="100%" viewBox="0 0 256 256" version="1.1" xmlns="http://www.w3.org/2000/svg" xmlns:xlink="http://www.w3.org/1999/xlink" xml:space="preserve" xmlns:serif="http://www.serif.com/" style="fill-rule:evenodd;clip-rule:evenodd;stroke-linejoin:round;stroke-miterlimit:2;">
    <g id="Witch" transform="matrix(1.8614,0,0,1.76136,-11463.1,-587.229)">
        <g transform="matrix(0.537231,0,0,0.606389,6160.07,325.131)">
            <ellipse cx="124.79" cy="119.085" rx="98.137" ry="40.751" style="fill:rgb(222,80,239);"/>
            <clipPath id="_clip1">
                <ellipse cx="124.79" cy="119.085" rx="98.137" ry="40.751"/>
            </clipPath>
            <g clip-path="url(#_clip1)">
                <g transform="matrix(1.30517,0,0,1.10811,-9404.35,-1382.54)">
                    <rect x="7301.01" y="1264.16" width="89.709" height="121.633" style="fill:rgb(191,44,208);"/>
                </g>
            </g>
        </g>
        <g transform="matrix(1,0,0,1,0.0628351,0)">
            <g transform="matrix(0.272596,0,0,0.609019,4218.39,-457.827)">
                <rect x="7234.59" y="1385.79" width="134.02" height="126.914" style="fill:rgb(130,86,69);"/>
            </g>
            <g transform="matrix(0.272596,0,0,0.210407,4218.39,94.5674)">
                <rect x="7234.59" y="1385.79" width="134.02" height="126.914" style="fill:rgb(107,71,57);"/>
            </g>
            <g transform="matrix(-0.271658,0,0,0.609019,8228.8,-457.827)">
                <rect x="7234.59" y="1385.79" width="134.02" height="126.914" style="fill:rgb(119,72,61);"/>
            </g>
            <g transform="matrix(-0.271658,0,0,0.223282,8228.8,76.7253)">
                <rect x="7234.59" y="1385.79" width="134.02" height="126.914" style="fill:rgb(107,71,57);"/>
            </g>
        </g>
        <g transform="matrix(0.346276,0,0,0.655755,3658.35,-92.8786)">
            <path d="M7547.71,833.145C7547.71,824.746 7535.49,817.928 7520.44,817.928L7431.45,817.928C7416.4,817.928 7404.18,824.746 7404.18,833.145C7404.18,841.544 7416.4,848.363 7431.45,848.363L7520.44,848.363C7535.49,848.363 7547.71,841.544 7547.71,833.145Z" style="fill:rgb(119,72,61);"/>
        </g>
        <g transform="matrix(0.34126,0,0,0.655755,3656.13,-92.8786)">
            <path d="M7547.71,833.145C7547.71,824.746 7535.32,817.928 7520.04,817.928L7431.85,817.928C7416.57,817.928 7404.18,824.746 7404.18,833.145C7404.18,841.544 7416.57,848.363 7431.85,848.363L7520.04,848.363C7535.32,848.363 7547.71,841.544 7547.71,833.145Z" style="fill:rgb(130,86,69);"/>
        </g>
        <g transform="matrix(0.446845,0,0,0.2573,2963.37,67.5036)">
            <path d="M7373.07,1566.21C7373.07,1508.02 7347.36,1460.85 7315.66,1460.85C7307.84,1460.85 7299.82,1460.85 7292,1460.85C7260.3,1460.85 7234.59,1508.02 7234.59,1566.21C7234.59,1566.21 7234.59,1566.21 7234.59,1566.21C7234.59,1577.84 7239.74,1587.28 7246.08,1587.28L7361.59,1587.28C7367.92,1587.28 7373.07,1577.84 7373.07,1566.21C7373.07,1566.21 7373.07,1566.21 7373.07,1566.21Z" style="fill:rgb(209,99,224);"/>
        </g>
        <g transform="matrix(0.537231,0,0,0.567744,6158.35,333.396)">
            <path d="M125.536,193.72L125.536,251.02L175.921,251.02C181.192,251.02 185.471,246.741 185.471,241.47C185.471,241.47 185.471,241.47 185.471,241.47C185.471,215.098 164.093,193.72 137.721,193.72L125.536,193.72Z" style="fill:rgb(191,44,208);"/>
        </g>
        <g transform="matrix(0.928821,0,0,1.43745,1597.52,-1053.43)">
            <path d="M4991.74,1034.95C4991.74,1032.15 4988.41,1029.88 4984.3,1029.88C4980.2,1029.88 4976.87,1032.15 4976.87,1034.95L4976.87,1043.16C4976.87,1045.96 4980.2,1048.23 4984.3,1048.23C4988.41,1048.23 4991.74,1045.96 4991.74,1043.16L4991.74,1034.95Z" style="fill:rgb(255,184,142);"/>
        </g>
        <g transform="matrix(1.24752,0,0,0.655755,-3094.63,-97.3018)">
            <rect x="7466.65" y="804.366" width="11.099" height="16.119" style="fill:rgb(238,160,123);"/>
        </g>
        <g transform="matrix(0.833457,0,0,0.833457,1128.14,-295.78)">
            <g transform="matrix(0.605148,0,0,0.639518,1698.27,-52.9065)">
                <circle cx="7246.03" cy="1414.9" r="19.724" style="fill:rgb(255,206,177);"/>
            </g>
            <g transform="matrix(0.605148,0,0,0.639518,1767.44,-52.9065)">
                <circle cx="7246.03" cy="1414.9" r="19.724" style="fill:rgb(238,160,123);"/>
            </g>
        </g>
        <g transform="matrix(0.862623,0,0,0.911617,1917.66,-426.014)">
            <g transform="matrix(1.14006,0,0,0.985743,-685.258,-77.0216)">
                <circle cx="4983.01" cy="1006.88" r="33.112" style="fill:rgb(255,206,177);"/>
            </g>
            <g transform="matrix(0.622788,0,0,0.622788,4916.04,833.036)">
                <path d="M167.656,92.882C180.424,102.496 188.498,116.648 188.498,132.419C188.498,149.103 179.461,163.977 165.396,173.576L165.396,127.763C134.682,122.126 101.826,123.667 72.276,132.386L72.276,111.542C75.904,104.337 81.35,97.972 88.11,92.882L167.656,92.882Z" style="fill:rgb(238,160,123);"/>
            </g>
        </g>
        <g>
            <g transform="matrix(0.0697627,0,0,0.446563,5689.78,-232.697)">
                <rect x="7234.59" y="1385.79" width="134.02" height="126.914" style="fill:rgb(130,86,69);"/>
            </g>
            <g transform="matrix(0.537231,0,0,0.567744,6158.35,333.396)">
                <path d="M84.672,109.29L84.672,129.593C78.16,130.975 72.297,132.66 67.269,134.586L67.269,114.283C72.297,112.356 78.159,110.672 84.672,109.29Z" style="fill:rgb(107,71,57);"/>
            </g>
            <g transform="matrix(0.0707004,0,0,0.446563,5738.65,-232.697)">
                <rect x="7234.59" y="1385.79" width="134.02" height="126.914" style="fill:rgb(119,72,61);"/>
            </g>
            <g transform="matrix(0.537231,0,0,0.567744,6158.35,333.396)">
                <path d="M170.86,109.24C177.466,110.631 183.409,112.333 188.498,114.283L188.498,134.586C183.408,132.636 177.465,130.934 170.86,129.543L170.86,109.24Z" style="fill:rgb(107,71,57);"/>
            </g>
        </g>
        <g>
            <g transform="matrix(0.537231,0,0,0.567744,6158.28,331.54)">
                <path d="M59.136,121.259C42.988,120.275 33.073,117.585 33.073,110.863C33.073,100.9 54.849,84.764 86.435,76.387L122.299,11.662C123.469,9.55 125.644,8.248 128,8.248C130.356,8.248 132.531,9.55 133.701,11.662L169.565,76.387C201.151,84.764 222.927,100.9 222.927,110.863C222.927,117.556 213.098,120.252 197.069,121.246C179.34,113.478 154.982,108.68 128.117,108.68C101.236,108.68 76.864,113.484 59.136,121.259Z" style="fill:rgb(222,80,239);"/>
            </g>
            <g transform="matrix(0.537231,0,0,0.567744,6158.35,333.396)">
                <path d="M127.883,4.98C130.239,4.98 132.414,6.283 133.584,8.394L169.448,73.119C201.034,81.496 222.81,97.633 222.81,107.595C222.81,114.288 212.981,116.984 196.952,117.978C179.223,110.211 154.865,105.413 128,105.413L127.883,105.413L127.883,4.98Z" style="fill:rgb(191,44,208);"/>
            </g>
            <g transform="matrix(0.537231,0,0,0.567744,6158.35,333.396)">
                <path d="M160.992,57.858L152.709,56.613L140.017,66.728L142.431,50.678L132.315,37.986L148.365,40.4L150.414,38.767L160.992,57.858Z" style="fill:rgb(244,147,253);fill-opacity:0.4;"/>
            </g>
            <g transform="matrix(0.537231,0,0,0.567744,6158.35,333.396)">
                <path d="M95.932,55.767L105.043,48.506L102.629,64.556L112.745,77.248L96.695,74.834L84.003,84.949L85.76,73.268C85.945,73.218 86.131,73.169 86.318,73.119L95.932,55.767Z" style="fill:rgb(244,147,253);fill-opacity:0.74;"/>
            </g>
        </g>
        <g transform="matrix(0.928821,0,0,0.981575,1586.62,-490.823)">
            <g transform="matrix(1,0,0,1,8.01678,0)">
                <g transform="matrix(1,0,0,1,10.6694,-93.7219)">
                    <circle cx="4965.19" cy="1006.27" r="3.19" style="fill:rgb(50,58,65);"/>
                </g>
                <g transform="matrix(1.69245,0.453492,-0.353675,1.31993,-3074.28,-2657.34)">
                    <circle cx="4965.19" cy="1006.27" r="3.19" style="fill:rgb(255,146,159);"/>
                </g>
            </g>
            <g transform="matrix(1,0,0,1,32.3611,0)">
                <g transform="matrix(1,0,0,1,10.6694,-93.7219)">
                    <circle cx="4965.19" cy="1006.27" r="3.19" style="fill:rgb(50,58,65);"/>
                </g>
                <g transform="matrix(1.69245,-0.453492,0.353675,1.31993,-3780.72,1846)">
                    <circle cx="4965.19" cy="1006.27" r="3.19" style="fill:rgb(255,146,159);"/>
                </g>
            </g>
        </g>
        <g transform="matrix(0.617756,0,0,0.630651,1607.5,-79.964)">
            <ellipse cx="7477.96" cy="785.807" rx="3.855" ry="5.523" style="fill:rgb(101,50,43);"/>
        </g>
        <g transform="matrix(0.564523,0.344439,-0.325927,0.596586,67.7162,-4160.62)">
            <path d="M11511.5,919.696L11513.8,930.576L11524.7,932.892L11513.8,935.208L11511.5,946.088L11509.2,935.208L11498.3,932.892L11509.2,930.576L11511.5,919.696Z" style="fill:rgb(222,80,239);"/>
        </g>
        <g transform="matrix(0.325927,0.596586,-0.564523,0.344439,2966.68,-6827.97)">
            <path d="M11511.5,919.696L11513.8,930.576L11524.7,932.892L11513.8,935.208L11511.5,946.088L11509.2,935.208L11498.3,932.892L11509.2,930.576L11511.5,919.696Z" style="fill:rgb(222,80,239);"/>
        </g>
        <g transform="matrix(0.364517,-2.01073e-17,-6.03219e-17,0.385221,2051.1,-14.4205)">
            <path d="M11511.5,919.696L11513.8,930.576L11524.7,932.892L11513.8,935.208L11511.5,946.088L11509.2,935.208L11498.3,932.892L11509.2,930.576L11511.5,919.696Z" style="fill:rgb(222,80,239);"/>
        </g>
    </g>
</svg>
