<?xml version="1.0" encoding="UTF-8" standalone="no"?>
<!DOCTYPE svg PUBLIC "-//W3C//DTD SVG 1.1//EN" "http://www.w3.org/Graphics/SVG/1.1/DTD/svg11.dtd">
<svg width="100%" height="100%" viewBox="0 0 256 256" version="1.1" xmlns="http://www.w3.org/2000/svg" xmlns:xlink="http://www.w3.org/1999/xlink" xml:space="preserve" xmlns:serif="http://www.serif.com/" style="fill-rule:evenodd;clip-rule:evenodd;stroke-linejoin:round;stroke-miterlimit:2;">
    <g id="Wizard" transform="matrix(1.5352,0,0,1.45269,-9290.25,-1084.15)">
        <g>
            <g transform="matrix(0.293515,0,0,0.655755,3954.58,-93.7219)">
                <rect x="7234.59" y="1385.79" width="134.02" height="126.914" style="fill:rgb(219,224,227);"/>
            </g>
            <g transform="matrix(-0.292506,0,0,0.655755,8272.74,-93.7219)">
                <rect x="7234.59" y="1385.79" width="134.02" height="126.914" style="fill:rgb(177,183,189);"/>
            </g>
            <g transform="matrix(0.620512,0,0,0.473983,1587.01,155.333)">
                <path d="M7373.07,1524.06C7373.07,1489.17 7352.59,1460.85 7327.37,1460.85L7280.29,1460.85C7255.07,1460.85 7234.59,1489.17 7234.59,1524.06L7234.59,1561.99C7234.59,1575.95 7242.78,1587.28 7252.87,1587.28L7354.79,1587.28C7364.88,1587.28 7373.07,1575.95 7373.07,1561.99L7373.07,1524.06Z" style="fill:rgb(158,227,0);"/>
            </g>
            <g transform="matrix(0.651382,0,0,0.688379,6051.51,746.307)">
                <path d="M126.24,147.362L101.126,147.362L101.126,234.419L152.357,234.419C161.967,234.419 169.769,226.617 169.769,217.007L169.769,190.89C169.769,166.866 150.264,147.362 126.24,147.362Z" style="fill:rgb(69,151,0);"/>
            </g>
            <g transform="matrix(0.977251,0,0,0.977251,138.772,18.9975)">
                <g transform="matrix(0.620512,0,0,0.655755,1586.06,-92.7174)">
                    <circle cx="7246.03" cy="1414.9" r="19.724" style="fill:rgb(207,138,103);"/>
                </g>
                <g transform="matrix(0.620512,0,0,0.655755,1656.98,-92.7174)">
                    <circle cx="7246.03" cy="1414.9" r="19.724" style="fill:rgb(205,133,96);"/>
                </g>
            </g>
            <g transform="matrix(0.928821,0,0,0.981575,1477.29,-59.467)">
                <g transform="matrix(1.14006,0,0,1.14006,-685.258,-241.294)">
                    <circle cx="4983.01" cy="1006.88" r="33.112" style="fill:rgb(216,153,124);"/>
                </g>
                <g>
                    <g transform="matrix(1,0,0,1,16.9875,-94.3652)">
                        <circle cx="4965.19" cy="1006.27" r="3.19" style="fill:rgb(50,58,65);"/>
                    </g>
                    <g transform="matrix(1,0,0,1,44.0041,-94.3652)">
                        <circle cx="4965.19" cy="1006.27" r="3.19" style="fill:rgb(50,58,65);"/>
                    </g>
                </g>
            </g>
            <g transform="matrix(1,0,0,1,1.23503,0)">
                <g transform="matrix(1.73569,0.570919,0,0.898716,-6992.1,-4737.05)">
                    <path d="M7552.19,1415.11L7531.99,1412.46L7531.99,1459.04C7531.99,1475.01 7537.08,1488.12 7544.55,1488.12C7548.66,1488.12 7552.19,1494.37 7552.19,1494.37L7552.19,1415.11Z" style="fill:white;"/>
                </g>
                <g transform="matrix(0.651382,0,0,0.688379,6050.27,746.307)">
                    <path d="M47.297,139.334L47.297,125.22L101.126,145.436L101.126,147.623C81.123,147.623 62.566,144.558 47.297,139.334Z" style="fill:rgb(205,212,219);"/>
                </g>
                <g transform="matrix(-1.73569,0.570919,0,0.898716,19224.4,-4737.05)">
                    <path d="M7552.19,1415.11L7531.99,1412.46L7531.99,1459.04C7531.99,1475.01 7537.08,1488.12 7544.55,1488.12C7548.66,1488.12 7552.19,1494.37 7552.19,1494.37L7552.19,1415.11Z" style="fill:rgb(205,212,219);"/>
                </g>
                <g transform="matrix(0.651382,0,0,0.688379,6050.27,746.307)">
                    <path d="M154.954,139.334C139.686,144.558 121.128,147.623 101.126,147.623L101.126,145.436L154.954,125.22L154.954,139.334Z" style="fill:rgb(171,181,190);"/>
                </g>
            </g>
            <g transform="matrix(0.617561,0.0638824,-0.0604491,0.652636,1696.11,-585.147)">
                <path d="M7293.41,1453.04C7293.41,1448.72 7289.91,1445.23 7285.6,1445.23L7263.04,1445.23C7258.73,1445.23 7255.23,1448.72 7255.23,1453.04C7255.23,1457.35 7258.73,1460.85 7263.04,1460.85L7285.6,1460.85C7289.91,1460.85 7293.41,1457.35 7293.41,1453.04Z" style="fill:rgb(205,212,219);"/>
            </g>
            <g transform="matrix(-0.617561,0.0638824,0.0604491,0.652636,10540.6,-585.147)">
                <path d="M7293.41,1453.04C7293.41,1448.72 7289.91,1445.23 7285.6,1445.23L7263.04,1445.23C7258.73,1445.23 7255.23,1448.72 7255.23,1453.04C7255.23,1457.35 7258.73,1460.85 7263.04,1460.85L7285.6,1460.85C7289.91,1460.85 7293.41,1457.35 7293.41,1453.04Z" style="fill:rgb(192,200,206);"/>
            </g>
            <g transform="matrix(0.651382,0,0,0.688379,6051.51,746.307)">
                <path d="M51.576,86.245L94.745,10.782C96.055,8.494 98.489,7.082 101.126,7.082C103.762,7.082 106.197,8.494 107.506,10.782L150.675,86.245C171.731,94.082 185.425,105.409 185.425,112.854C185.425,125.219 147.652,122.221 101.126,122.221C54.599,122.221 16.826,125.219 16.826,112.854C16.826,105.409 30.52,94.082 51.576,86.245Z" style="fill:rgb(158,227,0);"/>
            </g>
            <g transform="matrix(0.651382,0,0,0.688379,6051.51,746.307)">
                <path d="M101.126,7.082C103.762,7.082 106.197,8.494 107.506,10.782L150.675,86.245C171.731,94.082 185.425,105.409 185.425,112.854C185.425,125.219 147.652,122.221 101.126,122.221C101.126,122.221 101.126,7.082 101.126,7.082Z" style="fill:rgb(69,151,0);"/>
            </g>
            <g transform="matrix(0.585411,0,0,0.655755,1844.09,-93.7219)">
                <path d="M7311.43,1431.79C7311.43,1425.64 7306.14,1420.65 7299.62,1420.65C7293.11,1420.65 7287.82,1425.64 7287.82,1431.79L7287.82,1449.71C7287.82,1455.85 7293.11,1460.85 7299.62,1460.85C7306.14,1460.85 7311.43,1455.85 7311.43,1449.71L7311.43,1431.79Z" style="fill:rgb(245,185,154);"/>
            </g>
            <g transform="matrix(0.651382,0,0,0.688379,6051.51,746.307)">
                <path d="M90.516,147.333L90.516,143.63C90.516,137.775 95.27,133.021 101.126,133.021C106.981,133.021 111.735,137.775 111.735,143.63L111.735,147.333C108.249,147.525 104.71,147.623 101.126,147.623C97.541,147.623 94.003,147.525 90.516,147.333Z" style="fill:rgb(216,153,124);"/>
            </g>
        </g>
        <g transform="matrix(1,0,0,1,-4.50486,12.3695)">
            <g transform="matrix(0.434539,-1.58213e-17,1.4971e-17,-0.588411,1175.07,1343.88)">
                <path d="M11545.9,926.176L11570.6,940.462L11570.6,969.034L11545.9,983.32L11521.1,969.034L11521.1,940.462L11545.9,926.176Z" style="fill:rgb(123,219,0);"/>
            </g>
            <g transform="matrix(0.434539,-1.58213e-17,1.4971e-17,-0.588411,1175.07,1343.88)">
                <path d="M11545.9,926.176L11570.6,940.462L11570.6,969.034L11545.9,983.32L11545.9,926.176Z" style="fill:rgb(69,151,0);"/>
            </g>
            <g>
                <g transform="matrix(0.494027,-0.396789,0.237146,0.329753,2197.06,3300.15)">
                    <path d="M7426.24,1333.9C7426.24,1329.7 7424.09,1326.29 7421.44,1326.29C7418.78,1326.29 7416.63,1329.7 7416.63,1333.9L7416.63,1378.35C7416.63,1382.55 7418.78,1385.96 7421.44,1385.96C7424.09,1385.96 7426.24,1382.55 7426.24,1378.35L7426.24,1333.9Z" style="fill:rgb(149,80,69);"/>
                </g>
                <g transform="matrix(-0.620512,3.64672e-17,2.77556e-17,0.272089,10784.9,421.23)">
                    <path d="M7426.24,1337.88C7426.24,1331.48 7424.09,1326.29 7421.44,1326.29C7418.78,1326.29 7416.63,1331.48 7416.63,1337.88L7416.63,1374.37C7416.63,1380.77 7418.78,1385.96 7421.44,1385.96C7424.09,1385.96 7426.24,1380.77 7426.24,1374.37L7426.24,1337.88Z" style="fill:rgb(149,80,69);"/>
                </g>
            </g>
            <g transform="matrix(-1,0,0,1,12384.4,0)">
                <g transform="matrix(0.494027,-0.396789,0.237146,0.329753,2197.06,3300.15)">
                    <path d="M7426.24,1333.9C7426.24,1329.7 7424.09,1326.29 7421.44,1326.29C7418.78,1326.29 7416.63,1329.7 7416.63,1333.9L7416.63,1378.35C7416.63,1382.55 7418.78,1385.96 7421.44,1385.96C7424.09,1385.96 7426.24,1382.55 7426.24,1378.35L7426.24,1333.9Z" style="fill:rgb(124,63,53);"/>
                </g>
                <g transform="matrix(-0.620512,3.64672e-17,2.77556e-17,0.272089,10784.9,421.23)">
                    <path d="M7426.24,1337.88C7426.24,1331.48 7424.09,1326.29 7421.44,1326.29C7418.78,1326.29 7416.63,1331.48 7416.63,1337.88L7416.63,1374.37C7416.63,1380.77 7418.78,1385.96 7421.44,1385.96C7424.09,1385.96 7426.24,1380.77 7426.24,1374.37L7426.24,1337.88Z" style="fill:rgb(124,63,53);"/>
                </g>
            </g>
            <g transform="matrix(0.464482,0,0,0.643467,2744.67,-69.7707)">
                <path d="M7433.81,1367.94C7433.81,1365.52 7431.23,1363.55 7428.05,1363.55L7416.53,1363.55C7413.35,1363.55 7410.77,1365.52 7410.77,1367.94L7410.77,1495.01C7410.77,1497.44 7413.35,1499.4 7416.53,1499.4L7428.05,1499.4C7431.23,1499.4 7433.81,1497.44 7433.81,1495.01L7433.81,1367.94Z" style="fill:rgb(149,80,69);"/>
                <clipPath id="_clip1">
                    <path d="M7433.81,1367.94C7433.81,1365.52 7431.23,1363.55 7428.05,1363.55L7416.53,1363.55C7413.35,1363.55 7410.77,1365.52 7410.77,1367.94L7410.77,1495.01C7410.77,1497.44 7413.35,1499.4 7416.53,1499.4L7428.05,1499.4C7431.23,1499.4 7433.81,1497.44 7433.81,1495.01L7433.81,1367.94Z"/>
                </clipPath>
                <g clip-path="url(#_clip1)">
                    <g transform="matrix(0.5,0,0,1,3716.9,0)">
                        <rect x="7410.77" y="1363.55" width="23.032" height="135.856" style="fill:rgb(124,63,53);"/>
                    </g>
                </g>
            </g>
            <g transform="matrix(0.442331,0.269885,-0.25538,0.467454,1358.23,-2775.85)">
                <path d="M11511.5,919.696L11513.8,930.576L11524.7,932.892L11513.8,935.208L11511.5,946.088L11509.2,935.208L11498.3,932.892L11509.2,930.576L11511.5,919.696Z" style="fill:rgb(123,219,0);"/>
            </g>
            <g transform="matrix(0.25538,0.467454,-0.442331,0.269885,3645.35,-4865.85)">
                <path d="M11511.5,919.696L11513.8,930.576L11524.7,932.892L11513.8,935.208L11511.5,946.088L11509.2,935.208L11498.3,932.892L11509.2,930.576L11511.5,919.696Z" style="fill:rgb(123,219,0);"/>
            </g>
            <g transform="matrix(0.823901,-4.54476e-17,-1.36343e-16,0.870696,-3292.13,-62.9107)">
                <path d="M11511.5,919.696L11513.8,930.576L11524.7,932.892L11513.8,935.208L11511.5,946.088L11509.2,935.208L11498.3,932.892L11509.2,930.576L11511.5,919.696Z" style="fill:rgb(123,219,0);"/>
            </g>
        </g>
    </g>
</svg>
