<?xml version="1.0" encoding="UTF-8" standalone="no"?>
<!DOCTYPE svg PUBLIC "-//W3C//DTD SVG 1.1//EN" "http://www.w3.org/Graphics/SVG/1.1/DTD/svg11.dtd">
<svg width="100%" height="100%" viewBox="0 0 280 540" version="1.1" xmlns="http://www.w3.org/2000/svg" xmlns:xlink="http://www.w3.org/1999/xlink" xml:space="preserve" xmlns:serif="http://www.serif.com/" style="fill-rule:evenodd;clip-rule:evenodd;stroke-linejoin:round;stroke-miterlimit:2;">
    <g id="Body---Shadow" serif:id="Body - Shadow" transform="matrix(1.26951,0,0,1.0229,-7716.67,-1698.26)">
        <g id="Arm" transform="matrix(0.787706,0,0,0.97761,5129.37,1041.95)">
            <path d="M1302.76,899.526C1303.05,898.599 1303.71,897.838 1304.59,897.432C1305.47,897.026 1306.48,897.014 1307.37,897.399C1307.37,897.4 1307.37,897.4 1307.37,897.401C1309.38,898.271 1310.42,900.501 1309.81,902.602C1304.82,919.606 1284.23,989.799 1284.23,989.799L1275.15,989.799C1275.15,989.799 1297.47,916.814 1302.76,899.526Z" style="fill:white;"/>
        </g>
        <g id="Body" transform="matrix(0.787706,0,0,0.97761,5144.02,1049.71)">
            <path d="M1326.3,859.066L1326.26,837.025L1338.62,836.464L1338.62,847.653C1342.27,848.469 1345.82,849.658 1348.66,851.127C1349.73,851.684 1369.44,860.551 1369.44,883.121L1369.44,922.095C1371.08,953.253 1372.67,993.818 1372.67,993.818C1372.67,993.818 1378.79,1100.04 1380.58,1125.43C1381.07,1132.38 1382.69,1138.99 1383.41,1146.14C1380.29,1145.33 1377.45,1145.67 1375.22,1148.42C1371.12,1145.66 1367.13,1145.38 1363.19,1146.14C1363.19,1146.14 1360.37,1135.64 1360.37,1125.43L1360.34,1125.43L1360.34,1014.95L1326.66,1014.49L1326.56,971.768C1342.11,971.604 1354.68,958.933 1354.68,943.349L1354.68,885.755C1354.68,870.082 1341.96,859.086 1326.3,859.066ZM1297.71,1014.49L1311.54,1014.49L1312.41,1125.43C1312.41,1133.05 1313.34,1139.47 1314.05,1144.61C1314.05,1144.61 1311.52,1140.95 1305.33,1140.48C1297.71,1139.89 1294.28,1144.61 1294.28,1144.61C1293.37,1139.47 1292,1131.86 1292.17,1125.43C1292.74,1103.74 1297.71,1014.49 1297.71,1014.49Z" style="fill:white;"/>
        </g>
        <g id="Arm1" serif:id="Arm" transform="matrix(0.787706,0,0,0.97761,5144.02,1049.71)">
            <path d="M1350.63,858.503L1348.41,850.936C1348.41,850.936 1354.38,853.706 1361,858.666C1373.18,867.797 1382.73,881.851 1386.84,897.061C1392.83,919.193 1406.85,970.662 1412.91,992.948C1414.58,999.065 1411.58,1005.49 1405.82,1008.14C1405.82,1008.14 1405.82,1008.14 1405.81,1008.14C1403.33,1009.28 1400.47,1009.29 1397.98,1008.15C1397.58,1007.97 1397.2,1007.76 1396.83,1007.53C1401.83,1004.6 1404.32,998.64 1402.77,992.948C1396.7,970.662 1382.69,919.193 1376.7,897.061C1372.58,881.851 1363.03,867.797 1350.85,858.666L1350.63,858.503Z" style="fill:white;"/>
        </g>
        <g id="Head" transform="matrix(0.787706,0,0,0.97761,6078.47,1591.8)">
            <path d="M135.929,78.576C137.261,78.538 138.621,78.519 140,78.519C217.453,78.519 235.98,138.811 235.98,195.106C235.98,251.401 192.973,282.518 140,282.518C138.639,282.518 137.284,282.498 135.929,282.456C187.013,280.902 227.838,249.954 227.838,195.106C227.838,139.813 209.964,80.664 135.929,78.576Z" style="fill:white;"/>
        </g>
    </g>
</svg>
