<?xml version="1.0" encoding="UTF-8" standalone="no"?>
<!DOCTYPE svg PUBLIC "-//W3C//DTD SVG 1.1//EN" "http://www.w3.org/Graphics/SVG/1.1/DTD/svg11.dtd">
<svg width="100%" height="100%" viewBox="0 0 280 540" version="1.1" xmlns="http://www.w3.org/2000/svg" xmlns:xlink="http://www.w3.org/1999/xlink" xml:space="preserve" xmlns:serif="http://www.serif.com/" style="fill-rule:evenodd;clip-rule:evenodd;stroke-linejoin:round;stroke-miterlimit:2;">
    <g id="Body" transform="matrix(1.26951,0,0,1.0229,-7716.64,-1698.26)">
        <g transform="matrix(0.787706,0,0,0.97761,6078.44,1591.8)">
            <path d="M82.575,596.603C82.575,593.53 85.911,581.917 86.513,570.921C88.206,539.982 93.716,439.311 93.716,439.311L125.286,459.983C125.286,459.983 125.286,543.405 126.152,570.921C126.52,582.613 128.449,587.789 128.449,595.37C128.449,600.572 124.227,604.794 119.026,604.794C116.134,604.794 113.57,604.49 111.841,602.437C110.821,604.864 108.42,606.569 105.624,606.569C102.518,606.569 99.9,604.465 99.119,601.606C98.403,603.47 96.595,604.794 94.48,604.794C91.739,604.794 89.513,602.568 89.513,599.827C89.513,599.575 89.532,599.328 89.568,599.086C88.845,599.973 87.745,600.54 86.513,600.54C84.339,600.54 82.575,598.776 82.575,596.603Z" style="fill:white;"/>
        </g>
        <g transform="matrix(-0.787706,0,0,0.97761,6299.04,1591.8)">
            <path d="M82.575,596.603C82.575,593.53 85.911,581.917 86.513,570.921C88.206,539.982 93.716,439.311 93.716,439.311L125.286,459.983C125.286,459.983 125.286,543.405 126.152,570.921C126.52,582.613 128.449,587.789 128.449,595.37C128.449,600.572 124.227,604.794 119.026,604.794C116.134,604.794 113.57,604.49 111.841,602.437C110.821,604.864 108.42,606.569 105.624,606.569C102.518,606.569 99.9,604.465 99.119,601.606C98.403,603.47 96.595,604.794 94.48,604.794C91.739,604.794 89.513,602.568 89.513,599.827C89.513,599.575 89.532,599.328 89.568,599.086C88.845,599.973 87.745,600.54 86.513,600.54C84.339,600.54 82.575,598.776 82.575,596.603Z" style="fill:white;"/>
        </g>
        <g id="Arms" transform="matrix(0.607072,0,0,0.753427,3326.33,1424.1)">
            <g id="Arm" transform="matrix(1,0,0,1,1.2565,2.5625)">
                <g transform="matrix(0.635324,-0.170235,0.258819,0.965926,1485.67,803.18)">
                    <path d="M4636.7,782.529C4636.7,779.493 4632.96,777.029 4628.34,777.029C4623.73,777.029 4619.98,779.493 4619.98,782.529L4619.98,803.833C4619.98,806.869 4623.73,809.333 4628.34,809.333C4632.96,809.333 4636.7,806.869 4636.7,803.833L4636.7,782.529Z" style="fill:white;"/>
                </g>
                <g transform="matrix(0.796161,0.211198,-0.332968,1.23023,3825.98,-357.908)">
                    <path d="M1311.97,557.596C1311.97,557.596 1304.13,561.463 1296.12,568.07C1281.36,580.235 1272.62,596.558 1272.62,612.6C1272.62,635.949 1272.5,690.271 1272.44,713.778C1272.42,720.225 1279.62,725.758 1289.46,726.859C1289.46,726.859 1289.46,726.859 1289.46,726.859C1293.72,727.336 1298.08,726.593 1301.4,724.825C1304.72,723.058 1306.68,720.439 1306.78,717.651C1308.01,679.714 1311.97,557.596 1311.97,557.596Z" style="fill:white;"/>
                </g>
            </g>
            <g id="Arm1" serif:id="Arm" transform="matrix(-1,0,0,1,9428.9,2.5625)">
                <g transform="matrix(0.635324,-0.170235,0.258819,0.965926,1485.67,803.18)">
                    <path d="M4636.7,782.529C4636.7,779.493 4632.96,777.029 4628.34,777.029C4623.73,777.029 4619.98,779.493 4619.98,782.529L4619.98,803.833C4619.98,806.869 4623.73,809.333 4628.34,809.333C4632.96,809.333 4636.7,806.869 4636.7,803.833L4636.7,782.529Z" style="fill:white;"/>
                </g>
                <g transform="matrix(0.796161,0.211198,-0.332968,1.23023,3825.98,-357.908)">
                    <path d="M1312.07,557.178C1312.07,557.178 1304.13,561.463 1296.12,568.07C1281.36,580.235 1272.62,596.558 1272.62,612.6C1272.62,635.944 1272.5,690.25 1272.44,713.764C1272.42,720.219 1279.63,725.759 1289.48,726.861C1289.48,726.861 1289.49,726.862 1289.49,726.862C1293.74,727.338 1298.09,726.596 1301.41,724.831C1304.73,723.066 1306.69,720.451 1306.78,717.667C1308.03,679.686 1312.07,557.178 1312.07,557.178Z" style="fill:white;"/>
                </g>
            </g>
        </g>
        <g id="Body1" serif:id="Body" transform="matrix(0.70132,0,0,0.870398,2882,1354.28)">
            <g transform="matrix(1.12318,0,0,1.05598,3224.94,-282.663)">
                <path d="M1279.92,1001C1279.92,1001 1282.66,920.273 1285.93,877.097L1367.12,877.251C1370.18,919.784 1373.36,1001 1373.36,1001L1279.92,1001Z" style="fill:white;"/>
            </g>
            <g transform="matrix(1.39252,0,0,2.51687,2881.32,-1546.88)">
                <path d="M1363.09,880.292C1363.09,865.349 1342.35,853.218 1316.8,853.218C1291.25,853.218 1270.51,865.349 1270.51,880.292L1363.09,880.292Z" style="fill:white;"/>
            </g>
            <g transform="matrix(1.56621,0,0,0.834799,2639.25,-63.3278)">
                <rect x="1295.69" y="993.818" width="58.719" height="28.43" style="fill:white;"/>
            </g>
            <g id="Neck" transform="matrix(1.12318,0,0,1.12318,3228.19,-22.0889)">
                <rect x="1311.41" y="531.82" width="24.666" height="27.745" style="fill:white;"/>
            </g>
        </g>
        <g id="Ears" transform="matrix(1.56641,-1.44657e-16,1.13561e-16,1.99534,6233.01,1688.44)">
            <g transform="matrix(1,0,0,1,-101.982,-75.6707)">
                <circle cx="122.959" cy="132.898" r="12.204" style="fill:white;"/>
            </g>
            <g transform="matrix(1,0,0,1,-200.487,-75.6707)">
                <circle cx="122.959" cy="132.898" r="12.204" style="fill:white;"/>
            </g>
        </g>
        <g id="Head" transform="matrix(0.643891,0,0,0.849243,5319.77,1441.97)">
            <path d="M1349.52,266.815C1444.28,266.815 1466.94,336.221 1466.94,401.025C1466.94,465.83 1414.33,501.65 1349.52,501.65C1284.72,501.65 1232.11,465.83 1232.11,401.025C1232.11,336.221 1254.77,266.815 1349.52,266.815Z" style="fill:white;"/>
        </g>
    </g>
</svg>
